<svg width="50" height="30" viewBox="0 0 50 30" xmlns="http://www.w3.org/2000/svg"><title>3C3A29A6-9A3D-4644-9EB7-01EB25277DA5</title><g fill="none" fill-rule="evenodd"><path d="M7.164 6.945L16 4l8.836 2.945S26.8 21.673 16 24.618C5.2 21.673 7.164 6.945 7.164 6.945z" fill="#FFF"/><path d="M7.164 6.945L16 4l8.836 2.945S26.8 21.673 16 24.618C5.2 21.673 7.164 6.945 7.164 6.945zm12.927 5.748v5.114c0 .565-.458 1.023-1.023 1.023h-6.136a1.023 1.023 0 0 1-1.023-1.023v-5.114c0-.567.46-1.023 1.023-1.023h.511v-1.022a2.557 2.557 0 1 1 5.114 0v1.022h.511c.565 0 1.023.458 1.023 1.023z" fill="#2ABB9B"/><path d="M16 9.114c-.847 0-1.534.686-1.534 1.534v1.022h3.068v-1.022c0-.848-.687-1.534-1.534-1.534z" fill="#2ABB9B"/><text font-family="AvenirNext-Heavy, Avenir Next" font-size="8" font-weight="600" fill="#0076AF"><tspan x="26" y="13.6">128</tspan></text><text font-family="AvenirNext-DemiBold, Avenir Next" font-size="8" font-weight="500" letter-spacing="2" fill="#2ABB9B"><tspan x="27" y="25">BIT</tspan></text></g></svg>