<svg width="50" height="30" viewBox="0 0 50 30" xmlns="http://www.w3.org/2000/svg"><title>173913A3-2894-4949-AF82-4FBE3157B5D4</title><g fill="none" fill-rule="evenodd"><path fill="#00336F" d="M44.326 26.5v-24L5.28 2.505V26.5z"/><path d="M24.795 20.992a9.294 9.294 0 0 0 6.282 2.438c5.17 0 9.36-4.217 9.36-9.418 0-5.2-4.19-9.417-9.36-9.417a9.294 9.294 0 0 0-6.282 2.437 9.42 9.42 0 0 0-3.077 6.98 9.42 9.42 0 0 0 3.077 6.98" fill="#F8B41C"/><path d="M27.82 13.015a9.455 9.455 0 0 0-.159-.997H21.93c.073-.34.164-.672.272-.997h5.188a9.392 9.392 0 0 0-.396-.998H22.6c.16-.344.341-.677.54-.997h3.314a9.413 9.413 0 0 0-.713-.997H23.85c.29-.355.606-.688.944-.997a9.293 9.293 0 0 0-6.283-2.437c-5.17 0-9.36 4.216-9.36 9.417s4.19 9.418 9.36 9.418a9.294 9.294 0 0 0 6.283-2.438 9.48 9.48 0 0 0 .945-.997H23.85a9.405 9.405 0 0 1-.711-.997h3.313c.2-.32.38-.653.54-.997h-4.394a9.382 9.382 0 0 1-.398-.997h5.188a9.41 9.41 0 0 0 .483-2.992c0-.337-.018-.67-.053-.997" fill="#E20024"/><path d="M21.614 16.732c-.314.089-.53.127-.766.127-.474 0-.769-.301-.769-.853 0-.11.01-.226.03-.349l.062-.38.047-.307.441-2.652h.976l-.116.577h.61l-.144.98h-.612l-.263 1.586a1.029 1.029 0 0 0-.018.16c0 .2.105.288.347.288.116 0 .205-.012.31-.036l-.135.86zm2.531-2.347c.006-.08.01-.147.01-.198 0-.315-.179-.5-.482-.5-.322 0-.554.248-.647.696l1.12.002zm.605 2.311a3.474 3.474 0 0 1-1.04.158c-1.087 0-1.727-.598-1.727-1.74 0-1.334.753-2.315 1.774-2.315.837 0 1.37.549 1.37 1.412 0 .286-.036.565-.124.958h-2.02a.894.894 0 0 0-.01.122c0 .45.302.68.892.68.363 0 .69-.075 1.055-.246l-.17.971zm-10.891.084h-1.017l.581-3.672-1.298 3.672h-.692l-.086-3.651-.612 3.651H9.75l.794-4.776h1.462l.04 2.957.986-2.957h1.607zm3.242 0h-.879l.02-.402c-.223.303-.524.47-1.065.47-.491 0-.903-.433-.903-1.062 0-.184.034-.353.075-.508.16-.595.76-.977 1.684-.99a3.35 3.35 0 0 1 .447.016.957.957 0 0 0 .04-.252c0-.257-.21-.339-.685-.339-.29 0-.615.052-.84.118l-.142.04-.06.016.142-.873c.475-.144.806-.206 1.18-.206.874 0 1.335.395 1.335 1.14 0 .191.02.337-.048.77l-.212 1.377-.035.248-.027.197-.017.135-.01.105zm-.803-1.73c-.106-.013-.126-.016-.2-.016-.575 0-.867.222-.867.59 0 .243.143.397.365.397.49 0 .685-.397.702-.971zm13.339-2.119c.282 0 .546.074.908.258l.167-1.037a4.035 4.035 0 0 0-.246-.093l-.417-.106a1.862 1.862 0 0 0-.455-.049c-.504 0-.8.006-1.104.194-.165.1-.37.248-.607.51l-.12-.037-1.035.74.05-.416H25.7l-.62 3.885h1.016l.372-2.09s.144-.287.21-.377c.188-.252.354-.255.565-.248l.073.002a5.64 5.64 0 0 0-.046.738c0 1.27.717 2.062 1.81 2.062.282 0 .524-.037.899-.14l.179-1.088c-.338.167-.614.245-.864.245-.59 0-.948-.438-.948-1.164 0-1.052.532-1.789 1.29-1.789m7.349 2.935c-.346 0-.521-.258-.521-.766 0-.764.327-1.306.788-1.306.35 0 .539.267.539.762 0 .77-.333 1.31-.806 1.31zm1.237-3.863L38 13.368c-.245-.368-.536-.546-.93-.546-.534 0-1.023.307-1.334.882l.002-.006-.646-.386.05-.417h-1.077l-.62 3.885h1.017l.336-2.09s.26-.292.328-.381a.573.573 0 0 1 .45-.245 3.43 3.43 0 0 0-.184 1.154c0 .972.502 1.613 1.241 1.613.373 0 .66-.131.94-.431l-.05.38h.96l.774-4.777h-1.035zm-5.114 4.777h-.879l.02-.402c-.223.303-.524.47-1.065.47-.491 0-.938-.424-.934-1.066.007-.923.692-1.493 1.79-1.493.115 0 .296-.004.447.015a.964.964 0 0 0 .04-.252c0-.257-.21-.339-.685-.339-.29 0-.615.052-.841.118l-.14.04-.06.016.14-.873c.476-.144.806-.206 1.182-.206.873 0 1.334.395 1.334 1.14 0 .191.02.337-.047.77l-.213 1.377-.035.248-.026.197-.018.135-.01.105zm-.803-1.73c-.106-.013-.126-.016-.2-.016-.575 0-.867.222-.867.59 0 .243.143.397.364.397.492 0 .686-.397.703-.971zM19.22 13.726c.198 0 .47.02.763.06l.144-.898a7.143 7.143 0 0 0-.907-.078c-1.136 0-1.51.61-1.51 1.326 0 .462.223.81.759 1.063.411.195.482.23.482.407 0 .242-.21.38-.611.38-.303 0-.584-.048-.91-.154l-.117.893.022.004.186.04c.06.012.15.027.267.038a7.3 7.3 0 0 0 .576.036c1.128 0 1.594-.44 1.594-1.297 0-.533-.253-.846-.761-1.081-.425-.197-.477-.223-.475-.405.003-.179.187-.331.497-.334" fill="#00336F"/><path d="M30.82 12.889c-.362-.184-.626-.259-.908-.259-.758 0-1.29.738-1.29 1.79 0 .725.357 1.163.948 1.163.25 0 .526-.078.863-.245l-.179 1.09c-.374.102-.616.139-.897.139-1.094 0-1.776-.792-1.776-2.062 0-1.708.941-2.902 2.288-2.902.174 0 .326.017.455.05l.417.105c.128.046.155.056.246.094l-.167 1.037zm-3.095-.327a.497.497 0 0 0-.102-.01c-.333 0-.523.172-.834.632l.09-.59h-.92l-.62 3.885h1.017c.364-2.375.46-2.785.947-2.785.031 0 .034 0 .074.004.09-.469.215-.813.386-1.127l-.038-.009zm-5.853 3.87a2.31 2.31 0 0 1-.73.126c-.52 0-.803-.3-.803-.853 0-.11.01-.226.03-.349l.062-.38.047-.307.44-2.651h1.01l-.116.577h.519l-.14.944h-.52l-.268 1.62a1.025 1.025 0 0 0-.017.162c0 .2.105.287.346.287a.83.83 0 0 0 .274-.036l-.134.86zm-3.903-2.61c0 .491.236.83.772 1.083.411.195.475.252.475.429 0 .241-.181.35-.583.35a2.83 2.83 0 0 1-.909-.153l-.14.896.046.01.186.039a6.765 6.765 0 0 0 .824.066c1.071 0 1.565-.41 1.565-1.296 0-.533-.206-.846-.715-1.082-.425-.196-.474-.24-.474-.42 0-.21.169-.318.497-.318.199 0 .47.022.729.058l.144-.899a6.867 6.867 0 0 0-.893-.076c-1.135 0-1.528.597-1.524 1.313m19.275 1.743c.474 0 .806-.54.806-1.31 0-.494-.189-.762-.538-.762-.462 0-.789.542-.789 1.306 0 .509.175.766.521.766zm1.5.915h-.962l.05-.38c-.279.3-.567.43-.94.43-.738 0-1.226-.64-1.226-1.612 0-1.293.757-2.383 1.653-2.383.394 0 .695.164.973.532l.223-1.364h1.002l-.774 4.777zm-14.339-2.395c.006-.081.009-.148.009-.198 0-.316-.178-.5-.48-.5-.324 0-.555.247-.649.695l1.12.003zm.57 2.31a3.447 3.447 0 0 1-1.04.158c-1.135 0-1.727-.597-1.727-1.74 0-1.334.752-2.315 1.774-2.315.837 0 1.37.55 1.37 1.412 0 .286-.037.565-.125.959h-2.019a.886.886 0 0 0-.01.122c0 .45.302.68.891.68.363 0 .69-.076 1.055-.246l-.169.97zm-10.858.085H13.1l.582-3.672-1.3 3.672h-.692l-.086-3.651-.612 3.65h-.95l.794-4.776h1.46l.042 2.957.985-2.957h1.579zm3.241 0h-.842l.02-.403c-.258.318-.6.47-1.066.47-.55 0-.928-.433-.928-1.061 0-.946.657-1.498 1.784-1.498.116 0 .263.01.414.03a.966.966 0 0 0 .04-.253c0-.257-.177-.353-.651-.353-.29 0-.618.042-.844.109l-.141.041-.091.025.14-.873c.507-.15.841-.206 1.216-.206.873 0 1.334.394 1.334 1.139 0 .191-.015.337-.082.77l-.212 1.377-.036.248-.026.197-.018.136-.011.105zm-.74-1.731a1.703 1.703 0 0 0-.226-.016c-.576 0-.867.199-.867.59 0 .243.142.397.364.397.414 0 .712-.397.73-.971zm16.747 1.731h-.842l.02-.403c-.257.318-.6.47-1.066.47-.55 0-.928-.433-.928-1.061 0-.946.657-1.498 1.784-1.498.115 0 .263.01.414.03a.953.953 0 0 0 .04-.253c0-.257-.177-.353-.651-.353-.29 0-.618.042-.844.109l-.141.041-.091.025.14-.873c.507-.15.841-.206 1.216-.206.873 0 1.335.394 1.335 1.139 0 .191-.016.337-.083.77l-.212 1.377-.036.248-.026.197-.017.136-.012.105zm-.74-1.731a1.706 1.706 0 0 0-.226-.016c-.576 0-.867.199-.867.59 0 .243.142.397.364.397.414 0 .712-.397.73-.971zm3.465-2.187a.495.495 0 0 0-.102-.01c-.334 0-.523.172-.835.632l.09-.59h-.92l-.619 3.885h1.017c.364-2.375.46-2.785.947-2.785.03 0 .03 0 .07.004a3.76 3.76 0 0 1 .386-1.127l-.034-.009z" fill="#FEFEFE"/></g></svg>