<svg xmlns="http://www.w3.org/2000/svg" viewBox="0 0 315.9 96.6"><title>apple-glovo</title><path d="M298.1 0H18.5C8.3 0 0 7.4 0 16.4v63.8c0 9 8.3 16.4 18.5 16.4h279.6c10.6 0 17.8-5.9 17.8-14.8V16.4C315.8 7.2 308 0 298.1 0z" fill="#3e3e3c"/><path d="M70.1 45.9a13.26 13.26 0 0 1 6.5-11.4 13.76 13.76 0 0 0-11-5.9c-4.6-.5-9.1 2.8-11.5 2.8s-6-2.7-9.9-2.6a14.76 14.76 0 0 0-12.3 7.5c-5.3 9.2-1.4 22.8 3.8 30.2 2.6 3.6 5.5 7.7 9.4 7.6s5.2-2.4 9.9-2.4 5.9 2.4 9.9 2.3 6.7-3.7 9.1-7.4a34.85 34.85 0 0 0 4.2-8.5c-.1-.1-8-3.1-8.1-12.2m-7.5-22.3a13.27 13.27 0 0 0 3.1-9.6 13.39 13.39 0 0 0-8.8 4.6c-1.9 2.2-3.6 5.8-3.1 9.2 3.2.3 6.7-1.7 8.8-4.2m53.7 36.8l-2.6-8.2c-.3-.8-.8-2.8-1.6-5.9h-.1c-.3 1.3-.8 3.3-1.5 5.9l-2.6 8.2h8.4zm9.1 13h-5.3l-2.9-9.2H107l-2.8 9.2H99l10.1-31.3h6.2zM146.2 62a9.07 9.07 0 0 0-1.5-5.4 5.07 5.07 0 0 0-4.4-2.2 5.43 5.43 0 0 0-3.4 1.2 5.69 5.69 0 0 0-2 3.2 4.42 4.42 0 0 0-.2 1.5v3.8a6.36 6.36 0 0 0 1.5 4.2 5.07 5.07 0 0 0 3.9 1.7 5 5 0 0 0 4.4-2.2 8.9 8.9 0 0 0 1.7-5.8m5.1-.1c0 3.8-1 6.9-3.1 9.1a9.17 9.17 0 0 1-6.9 3c-3 0-5.1-1.1-6.4-3.2h-.1v11.9h-5V58.3c0-2.4-.1-4.9-.2-7.4h4.4l.3 3.6h.1a8.32 8.32 0 0 1 7.6-4 8.48 8.48 0 0 1 6.7 3.2 12.21 12.21 0 0 1 2.6 8.2m20.8.1a9.07 9.07 0 0 0-1.5-5.4 5.07 5.07 0 0 0-4.4-2.2 5.43 5.43 0 0 0-3.4 1.2 5.69 5.69 0 0 0-2 3.2 4.42 4.42 0 0 0-.2 1.5v3.8a6.36 6.36 0 0 0 1.5 4.2A5.07 5.07 0 0 0 166 70a5 5 0 0 0 4.4-2.2 8.9 8.9 0 0 0 1.7-5.8m5.1-.1c0 3.8-1 6.9-3.1 9.1a9.17 9.17 0 0 1-6.9 3c-3 0-5.1-1.1-6.4-3.2h-.1v11.9h-5V58.3c0-2.4-.1-4.9-.2-7.4h4.4l.3 3.6h.1a8.32 8.32 0 0 1 7.6-4 8.48 8.48 0 0 1 6.7 3.2 12.21 12.21 0 0 1 2.6 8.2m29 2.7a8.2 8.2 0 0 1-2.8 6.5c-2 1.8-4.9 2.7-8.5 2.7-3.4 0-6.1-.6-8.1-2l1.2-4.2a13.94 13.94 0 0 0 7.2 2 6.43 6.43 0 0 0 4.4-1.3 4.42 4.42 0 0 0 1.6-3.4 4.22 4.22 0 0 0-1.3-3.2 11.31 11.31 0 0 0-4.3-2.4c-5.5-2-8.2-5-8.2-9a7.88 7.88 0 0 1 2.9-6.3 11.67 11.67 0 0 1 7.7-2.5 14.94 14.94 0 0 1 7.1 1.5l-1.3 4.1a12.08 12.08 0 0 0-6-1.4 5.78 5.78 0 0 0-4.1 1.3 3.89 3.89 0 0 0-1.3 2.8 4.1 4.1 0 0 0 1.4 3.1 18.47 18.47 0 0 0 4.6 2.4c2.7 1.1 4.7 2.3 5.9 3.8a8.37 8.37 0 0 1 1.9 5.5m16.6-10h-5.5v10.9c0 2.8 1 4.2 2.9 4.2a12.73 12.73 0 0 0 2.2-.2l.1 3.8a10.65 10.65 0 0 1-3.9.6 5.88 5.88 0 0 1-4.6-1.8c-1.1-1.2-1.7-3.2-1.7-6.1V54.6H209v-3.8h3.3v-4.1l4.9-1.5v5.6h5.5l.1 3.8zm19.7 7.5a10.29 10.29 0 0 0-1.3-5.4 5.18 5.18 0 0 0-9.1 0 11.87 11.87 0 0 0 0 10.8 5.18 5.18 0 0 0 9.1 0 11.34 11.34 0 0 0 1.3-5.4m5.2-.1a12.09 12.09 0 0 1-3 8.5 10.57 10.57 0 0 1-8.3 3.4 10.12 10.12 0 0 1-7.9-3.3 11.86 11.86 0 0 1-2.9-8.3 12.35 12.35 0 0 1 3-8.6 10.62 10.62 0 0 1 8.2-3.3 10.33 10.33 0 0 1 8 3.3 11.53 11.53 0 0 1 2.9 8.3m16.3-6.7a8.08 8.08 0 0 0-1.6-.1 4.85 4.85 0 0 0-4.1 2 7.88 7.88 0 0 0-1.3 4.4v11.8h-5V58c0-2.6-.1-5-.2-7.1h4.4l.2 4.3h.1a7.82 7.82 0 0 1 2.5-3.6 6 6 0 0 1 3.6-1.2 5.28 5.28 0 0 1 1.3.1l.1 4.8zm17.6 4.5a7.09 7.09 0 0 0-1-3.9 4.41 4.41 0 0 0-4-2.1 4.93 4.93 0 0 0-4 2 8.4 8.4 0 0 0-1.5 3.9c.1.1 10.5.1 10.5.1zm4.8 1.3a14 14 0 0 1-.2 2.3h-15a6.75 6.75 0 0 0 2.2 5.1 7.78 7.78 0 0 0 4.9 1.6 17 17 0 0 0 6.1-1.1l.8 3.5a19.45 19.45 0 0 1-7.6 1.4c-3.5 0-6.2-1-8.2-3.1a11.43 11.43 0 0 1-3-8.3 12.81 12.81 0 0 1 2.8-8.5 9.6 9.6 0 0 1 7.9-3.6 8.54 8.54 0 0 1 7.4 3.6 13.16 13.16 0 0 1 1.9 7.1M112 23a5.64 5.64 0 0 0-1.4-4.1c-.9-1-2.3-1.4-4.2-1.4a11.24 11.24 0 0 0-2 .2v11.5c.3 0 .9.1 1.7.1a5.82 5.82 0 0 0 4.4-1.6A7 7 0 0 0 112 23m2.6-.1c0 2.8-.8 4.8-2.5 6.2-1.5 1.3-3.7 1.9-6.5 1.9a35.29 35.29 0 0 1-3.6-.2V15.7a27.66 27.66 0 0 1 4.2-.3c2.7 0 4.7.6 6.1 1.8a7.16 7.16 0 0 1 2.3 5.7m11.2 2.5a4.41 4.41 0 0 0-.7-2.6 2.41 2.41 0 0 0-2.2-1.3 2.56 2.56 0 0 0-2.3 1.3 5.38 5.38 0 0 0-.7 2.7 4.41 4.41 0 0 0 .7 2.6 2.41 2.41 0 0 0 2.2 1.3A2.33 2.33 0 0 0 125 28a3.85 3.85 0 0 0 .8-2.6m2.6-.1a6 6 0 0 1-1.5 4.2 5.35 5.35 0 0 1-4.1 1.7 5 5 0 0 1-3.9-1.6 5.69 5.69 0 0 1-1.4-4.1 6 6 0 0 1 1.5-4.2 5.06 5.06 0 0 1 4-1.6 5 5 0 0 1 3.9 1.6 5.51 5.51 0 0 1 1.5 4m18.4-5.4L143.3 31H141l-1.4-4.8a23.69 23.69 0 0 1-.9-3.6 23.69 23.69 0 0 1-.9 3.6l-1.5 4.8H134l-3.3-11.1h2.5l1.3 5.3c.3 1.2.6 2.4.8 3.6.2-.9.5-2.1.9-3.5l1.6-5.3h2l1.5 5.2a31.49 31.49 0 0 1 .9 3.6h.1a26.14 26.14 0 0 1 .8-3.6l1.3-5.2 2.4-.1zm12.8 11h-2.5v-6.3c0-2-.7-2.9-2.2-2.9a2.5 2.5 0 0 0-1.8.8 2.64 2.64 0 0 0-.7 1.9V31H150v-7.9c0-1 0-2-.1-3.2h2.2l.1 1.7h.1a3.25 3.25 0 0 1 1.3-1.3 4.28 4.28 0 0 1 2.2-.6 3.54 3.54 0 0 1 2.6 1 4.64 4.64 0 0 1 1.3 3.7l-.1 6.5zm4.3-16.1h2.5V31h-2.5zm14.4 10.6a4.41 4.41 0 0 0-.7-2.6 2.41 2.41 0 0 0-2.2-1.3 2.56 2.56 0 0 0-2.3 1.3 5.38 5.38 0 0 0-.7 2.7 4.41 4.41 0 0 0 .7 2.6 2.41 2.41 0 0 0 2.2 1.3 2.33 2.33 0 0 0 2.2-1.4 3.85 3.85 0 0 0 .8-2.6m2.6-.1a6 6 0 0 1-1.5 4.2 5.35 5.35 0 0 1-4.1 1.7 5 5 0 0 1-3.9-1.6 5.69 5.69 0 0 1-1.4-4.1 6 6 0 0 1 1.5-4.2 5.06 5.06 0 0 1 4-1.6 5 5 0 0 1 3.9 1.6 5.51 5.51 0 0 1 1.5 4m9.4 1.8v-1.7c-2.7 0-4.1.7-4.1 2.2a1.73 1.73 0 0 0 .5 1.3 1.59 1.59 0 0 0 1.2.4 3 3 0 0 0 1.5-.5 2.38 2.38 0 0 0 .9-1.3c-.1 0 0-.2 0-.4m2.5 3.8h-2.2l-.2-1.3h-.1a3.8 3.8 0 0 1-3.2 1.5 3.25 3.25 0 0 1-3.4-3.3 3.45 3.45 0 0 1 1.7-3.1 8.18 8.18 0 0 1 4.8-1v-.2a2 2 0 0 0-2.3-2.2 5.47 5.47 0 0 0-2.9.8l-.5-1.6a7.38 7.38 0 0 1 3.8-1c2.9 0 4.3 1.5 4.3 4.6v4.1a16.54 16.54 0 0 0 .2 2.7m11.5-4.6v-1.9a2 2 0 0 0-.1-.8 2.37 2.37 0 0 0-.9-1.5 2.45 2.45 0 0 0-1.6-.6 2.79 2.79 0 0 0-2.2 1.1 4.88 4.88 0 0 0-.8 2.8 4.55 4.55 0 0 0 .8 2.7 2.66 2.66 0 0 0 2.2 1.1 2.2 2.2 0 0 0 1.9-.9 3.46 3.46 0 0 0 .7-2m2.5 4.6h-2.2l-.1-1.8h-.1a3.62 3.62 0 0 1-3.6 2 4.07 4.07 0 0 1-3.3-1.6 5.94 5.94 0 0 1-1.3-4.1 7 7 0 0 1 1.4-4.4 4.58 4.58 0 0 1 3.4-1.6 3.28 3.28 0 0 1 3.1 1.5v-6.4h2.5v13.2c.1 1.3.1 2.3.2 3.2m18.5-5.5a4.41 4.41 0 0 0-.7-2.6 2.41 2.41 0 0 0-2.2-1.3 2.56 2.56 0 0 0-2.3 1.3 5.38 5.38 0 0 0-.7 2.7 4.41 4.41 0 0 0 .7 2.6 2.41 2.41 0 0 0 2.2 1.3 2.33 2.33 0 0 0 2.2-1.4 3.85 3.85 0 0 0 .8-2.6m2.6-.1a6 6 0 0 1-1.5 4.2 5.35 5.35 0 0 1-4.1 1.7 5 5 0 0 1-3.9-1.6 5.69 5.69 0 0 1-1.4-4.1 6 6 0 0 1 1.5-4.2 5.06 5.06 0 0 1 4-1.6 5 5 0 0 1 3.9 1.6 5.51 5.51 0 0 1 1.5 4m13.2 5.6h-2.5v-6.3c0-2-.7-2.9-2.2-2.9a2.5 2.5 0 0 0-1.8.8 2.64 2.64 0 0 0-.7 1.9V31h-2.5v-7.9c0-1 0-2-.1-3.2h2.2l.1 1.7h.1a3.25 3.25 0 0 1 1.3-1.3 4.28 4.28 0 0 1 2.2-.6 3.54 3.54 0 0 1 2.6 1 4.64 4.64 0 0 1 1.3 3.7v6.5zm16.6-9.2H255v5.4c0 1.4.5 2 1.4 2a3.75 3.75 0 0 0 1.1-.1l.1 1.9a5 5 0 0 1-1.9.3 3 3 0 0 1-2.3-.9 4.15 4.15 0 0 1-.8-3v-5.6H251v-1.8h1.6v-2l2.4-.7V20h2.7v1.7zm13 9.2h-2.5v-6.3c0-2-.7-3-2.2-3a2.34 2.34 0 0 0-2.3 1.7 2.22 2.22 0 0 0-.1.9v6.7h-2.5V14.7h2.5v6.7a3.76 3.76 0 0 1 3.3-1.8 3.17 3.17 0 0 1 2.5 1 5.18 5.18 0 0 1 1.3 3.7v6.6zm11.1-6.7a3 3 0 0 0-.5-1.9 2.12 2.12 0 0 0-2-1 2.33 2.33 0 0 0-2 1 3.16 3.16 0 0 0-.7 1.9h5.2zm2.4.7a3.75 3.75 0 0 1-.1 1.1h-7.4a3.1 3.1 0 0 0 1.1 2.5 3.65 3.65 0 0 0 2.4.8 9.43 9.43 0 0 0 3-.5l.4 1.7a8.43 8.43 0 0 1-3.7.7 5.2 5.2 0 0 1-4-1.5 5.59 5.59 0 0 1-1.5-4.1 6.44 6.44 0 0 1 1.4-4.2 4.7 4.7 0 0 1 3.9-1.8 4 4 0 0 1 3.6 1.8 7.23 7.23 0 0 1 .9 3.5" fill="#fff"/></svg>