<?xml version="1.0" encoding="UTF-8" standalone="no"?>
<svg width="170px" height="170px" viewBox="0 0 170 170" version="1.1" xmlns="http://www.w3.org/2000/svg" xmlns:xlink="http://www.w3.org/1999/xlink">
    <!-- Generator: sketchtool 3.7.2 (28276) - http://www.bohemiancoding.com/sketch -->
    <title>7BD9EA92-228F-4AD9-93C1-303FE532637F</title>
    <desc>Created with sketchtool.</desc>
    <defs></defs>
    <g id="Page-1" stroke="none" stroke-width="1" fill="none" fill-rule="evenodd">
        <g id="Artboard-1" transform="translate(-309.000000, -316.000000)">
            <g id="Group-3" transform="translate(309.000000, 316.000000)">
                <path d="M48.633,57.574 C47.419,57.03 46.37,56.271 45.496,55.372 C44.795,56.306 44.178,57.323 43.68,58.433 L16.65,116.704 C13.029,124.778 16.639,134.259 24.713,137.881 L77.995,161.776 C86.069,165.397 95.55,161.787 99.172,153.713 L126.202,95.442 C126.7,94.332 127.048,93.194 127.28,92.049 C126.027,91.995 124.763,91.716 123.549,91.171 L48.633,57.574 L48.633,57.574 Z" id="Shape" stroke="#585857" stroke-width="3.649" fill="#EED554"></path>
                <path d="M84.542,158.401 C82.958,158.401 81.413,158.069 79.952,157.413 L26.67,133.518 C21.014,130.981 18.477,124.317 21.013,118.661 L47.214,62.178" id="Shape" stroke="#FFFFFF" stroke-width="2"></path>
                <path d="M135.691,72.204 C138.137,66.749 136.235,60.458 131.476,57.192 C133.971,48.993 130.053,40.026 122.028,36.427 C119.775,35.417 117.421,34.938 115.101,34.921 C115.545,30.828 112.972,26.905 108.873,25.793 C106.342,25.106 103.769,25.639 101.773,27.03 C100.201,22.897 97.051,19.364 92.698,17.411 C83.994,13.508 73.774,17.399 69.871,26.103 C69.639,26.621 69.438,27.145 69.26,27.672 C69.234,27.66 69.21,27.645 69.184,27.633 C63.046,24.88 55.839,27.625 53.086,33.762 C52.639,34.759 52.346,35.783 52.18,36.813 L134.784,73.859 C135.122,73.338 135.428,72.788 135.691,72.204 L135.691,72.204 Z" id="Shape" stroke="#585857" stroke-width="3.442" fill="#FFFFFF"></path>
                <path d="M137.539,79.12 C136.75,76.307 134.767,73.851 131.893,72.562 L100.071,58.291 L68,43.908 L56.979,38.965 C53.161,37.253 48.851,38.085 45.941,40.732 C44.935,41.647 44.093,42.776 43.501,44.097 C41.741,48.022 42.672,52.463 45.496,55.372 C46.37,56.272 47.419,57.03 48.633,57.574 L123.548,91.171 C124.762,91.715 126.026,91.995 127.279,92.049 C131.33,92.223 135.265,89.964 137.025,86.04 C138.041,83.775 138.161,81.337 137.539,79.12 L137.539,79.12 Z" id="Shape" stroke="#585857" stroke-width="3.5779" fill="#E4E7E8"></path>
                <path d="M50.589,53.211 C49.971,52.933 49.411,52.54 48.928,52.042 C47.37,50.437 46.953,48.086 47.865,46.054 C48.17,45.374 48.606,44.773 49.16,44.268 C50.162,43.356 51.461,42.853 52.816,42.853 C53.576,42.853 54.318,43.013 55.022,43.329 L129.937,76.926 C131.405,77.585 132.499,78.856 132.935,80.412" id="Shape" stroke="#FFFFFF" stroke-width="2"></path>
                <path d="M111.063,156.962 L99.949,151.978 L105.5,139.6 L116.614,144.584 C117.501,144.982 118.546,144.584 118.944,143.697 L132.927,114.518 C133.325,113.631 132.927,112.586 132.04,112.188 L120.926,107.204 L126.477,94.826 L137.591,99.81 C145.303,103.269 148.764,112.357 145.305,120.069 L131.322,149.248 C127.864,156.96 118.775,160.421 111.063,156.962 L111.063,156.962 Z" id="Shape" stroke="#585857" stroke-width="3.649" fill="#EED554"></path>
                <path d="M58.874,74.281 L33.99,127.766" id="Shape" stroke="#585857" stroke-width="3.6388"></path>
                <path d="M81.739,84.536 L56.856,138.02" id="Shape" stroke="#585857" stroke-width="3.6388"></path>
                <path d="M104.605,94.79 L79.721,148.275" id="Shape" stroke="#585857" stroke-width="3.6388"></path>
                <path d="M37.262,129.791 L61.967,76.555" id="Shape" stroke="#FFFFFF" stroke-width="2"></path>
                <path d="M59.836,140.42 L84.542,87.184" id="Shape" stroke="#FFFFFF" stroke-width="2"></path>
                <path d="M82.601,150.677 L107.306,97.441" id="Shape" stroke="#FFFFFF" stroke-width="2"></path>
                <path d="M121.977,145.331 L136.68,114.968" id="Shape" stroke="#FFFFFF" stroke-width="2"></path>
                <path d="M75.142,46.02 C76.541,41.419 80.817,38.071 85.876,38.071 C92.071,38.071 97.093,43.093 97.093,49.288" id="Shape" stroke="#585857" stroke-width="3.442"></path>
                <path d="M119.904,53.03 C121.522,51.187 121.824,48.434 120.464,46.242 C118.799,43.557 115.273,42.731 112.589,44.396" id="Shape" stroke="#585857" stroke-width="3.442"></path>
                <ellipse id="Oval" stroke="#585857" stroke-width="3.442" fill="#FFFFFF" cx="59.836" cy="15.894" rx="5.658" ry="5.26"></ellipse>
            </g>
        </g>
    </g>
</svg>