<?xml version="1.0" encoding="utf-8"?>
<!-- Generator: Adobe Illustrator 17.0.0, SVG Export Plug-In . SVG Version: 6.00 Build 0)  -->
<!DOCTYPE svg PUBLIC "-//W3C//DTD SVG 1.0//EN" "http://www.w3.org/TR/2001/REC-SVG-20010904/DTD/svg10.dtd">
<svg version="1.0" id="Capa_1" xmlns="http://www.w3.org/2000/svg" xmlns:xlink="http://www.w3.org/1999/xlink" x="0px" y="0px"
	 width="236px" height="282px" viewBox="0 0 236 282" enable-background="new 0 0 236 282" xml:space="preserve">
<g>
	<g>
		<path fill="#54866B" d="M192.877,104.979c-43.411,7.715-87.59,10.214-131.594,7.443c-1.914-0.12-3.379,1.317-3.271,3.226
			c1.428,25.253,2.857,50.506,4.285,75.76c0.108,1.908,1.747,3.564,3.662,3.684c44.005,2.771,88.183,0.272,131.594-7.443
			c1.889-0.335,3.331-2.165,3.223-4.073c-1.428-25.253-2.857-50.506-4.285-75.76C196.383,105.906,194.766,104.643,192.877,104.979z"
			/>
		<path fill="#3F3E3E" d="M100.731,198.442C100.729,198.442,100.732,198.442,100.731,198.442c-11.595,0-23.342-0.369-34.915-1.098
			c-3.064-0.193-5.6-2.746-5.773-5.812l-4.286-75.758c-0.084-1.508,0.419-2.92,1.418-3.977c1.079-1.143,2.603-1.728,4.249-1.629
			c11.48,0.723,23.131,1.089,34.629,1.089c32.244,0,64.688-2.86,96.428-8.501c3.294-0.584,6.083,1.739,6.264,4.931l4.284,75.758
			c0.173,3.066-2.058,5.888-5.082,6.424C165.946,195.558,133.233,198.442,100.731,198.442z M61.126,114.675
			c-0.328,0-0.532,0.078-0.669,0.223c-0.14,0.148-0.206,0.363-0.191,0.622l4.286,75.758c0.043,0.769,0.78,1.511,1.548,1.559
			c11.479,0.723,23.13,1.089,34.631,1.089c32.24,0,64.683-2.86,96.428-8.501c0.757-0.135,1.407-0.955,1.362-1.724l-4.284-75.76
			c-0.031-0.548-0.416-0.83-0.964-0.741c-32.001,5.688-64.71,8.572-97.218,8.572c-11.592,0-23.339-0.369-34.913-1.098
			C61.136,114.675,61.13,114.675,61.126,114.675z"/>
	</g>
	<g>
		<path fill="#54866B" d="M184.115,95.899c-43.695,5.903-87.939,6.563-131.79,1.965c-1.908-0.2-3.431,1.176-3.402,3.087
			c0.377,25.291,0.754,50.581,1.131,75.872c0.028,1.911,1.597,3.633,3.505,3.833c43.851,4.598,88.095,3.939,131.79-1.965
			c1.901-0.256,3.418-2.025,3.389-3.936c-0.377-25.291-0.754-50.582-1.131-75.872C187.579,96.972,186.016,95.643,184.115,95.899z"/>
		<path fill="#3F3E3E" d="M111.273,185.931c-0.003,0-0.004,0-0.007,0c-19.278,0-38.771-1.02-57.942-3.029
			c-3.054-0.32-5.482-2.976-5.528-6.047l-1.132-75.871c-0.021-1.468,0.514-2.832,1.507-3.841c1.126-1.139,2.691-1.693,4.389-1.526
			c19.016,1.994,38.351,3.006,57.47,3.006c24.591,0,49.415-1.67,73.783-4.962c3.322-0.447,6.007,1.999,6.053,5.19l1.13,75.87
			c0.047,3.07-2.302,5.798-5.346,6.207C161.085,184.247,136.06,185.931,111.273,185.931z M52.043,100.108
			c-0.338,0-0.525,0.073-0.656,0.206c-0.14,0.141-0.212,0.35-0.207,0.604l1.132,75.871c0.01,0.769,0.719,1.542,1.483,1.621
			c19.014,1.994,38.351,3.006,57.471,3.006c0.001,0,0.006,0,0.007,0c24.586,0,49.407-1.67,73.772-4.962
			c0.764-0.103,1.446-0.897,1.434-1.664l-1.13-75.873c-0.009-0.553-0.379-0.858-0.933-0.782c-24.566,3.32-49.595,5.003-74.387,5.003
			c-19.275,0-38.768-1.019-57.94-3.029C52.074,100.108,52.057,100.108,52.043,100.108z"/>
	</g>
	<g>
		<g>
			<g>
				<path fill="#659D83" d="M35.218,88.877c0-1.911,1.543-3.264,3.448-3.036c43.778,5.251,88.027,5.251,131.805,0
					c1.905-0.228,3.448,1.124,3.448,3.036c0,25.293,0,50.587,0,75.881c0,1.911-1.543,3.657-3.448,3.885
					c-43.778,5.251-88.027,5.251-131.805,0c-1.905-0.228-3.448-1.974-3.448-3.885C35.218,139.464,35.218,114.171,35.218,88.877z"/>
			</g>
			<g>
				<path fill="#3F3E3E" d="M104.568,174.839c-22.032,0-44.296-1.332-66.171-3.955c-3.048-0.365-5.437-3.056-5.437-6.126v-75.88
					c0-3.209,2.704-5.672,5.973-5.278c21.698,2.603,43.782,3.923,65.634,3.923s43.936-1.32,65.633-3.923
					c3.297-0.395,5.975,2.069,5.975,5.278v75.88c0,3.07-2.388,5.762-5.438,6.126C148.864,173.507,126.6,174.839,104.568,174.839z
					 M38.369,88.082c-0.613,0-0.894,0.298-0.894,0.795v75.88c0,0.769,0.695,1.552,1.458,1.643
					c21.698,2.603,43.782,3.923,65.634,3.923s43.936-1.32,65.633-3.923c0.764-0.091,1.459-0.875,1.459-1.643v-75.88
					c0-0.504-0.29-0.804-0.775-0.804c-22.022,2.632-44.286,3.964-66.318,3.964s-44.296-1.332-66.171-3.955
					C38.389,88.082,38.38,88.082,38.369,88.082z"/>
			</g>
		</g>
		<g>
			<g>
				<path fill="#A8CEBD" d="M45.132,112.902c0,9.463,0,18.926,0,28.389c9.675,1.183,17.544,9.681,17.544,19.396
					c27.877,2.381,55.907,2.381,83.784,0c-0.001-9.715,7.869-18.214,17.544-19.396c0-9.463,0-18.926,0-28.389
					c-9.675,1.182-17.545-6.06-17.544-15.764c-27.877,2.382-55.907,2.382-83.784,0C62.677,106.842,54.807,114.084,45.132,112.902z"
					/>
				<path fill="#3F3E3E" d="M104.568,164.731c-13.988,0-28.146-0.604-42.084-1.796c-1.168-0.1-2.065-1.076-2.065-2.249
					c0-8.412-6.98-16.106-15.561-17.154c-1.133-0.138-1.984-1.101-1.984-2.241v-28.389c0-0.647,0.278-1.263,0.761-1.69
					c0.482-0.429,1.126-0.628,1.77-0.551c0.597,0.073,1.198,0.11,1.786,0.11c7.541,0,13.228-5.861,13.228-13.634
					c0-0.632,0.265-1.235,0.73-1.662c0.466-0.429,1.077-0.645,1.72-0.586c13.81,1.179,27.839,1.777,41.699,1.777
					s27.889-0.598,41.699-1.777c0.638-0.059,1.254,0.157,1.72,0.586c0.466,0.428,0.73,1.03,0.73,1.662
					c0,3.754,1.361,7.215,3.835,9.745c2.85,2.915,6.92,4.302,11.179,3.779c0.638-0.075,1.286,0.122,1.77,0.551
					c0.484,0.428,0.761,1.044,0.761,1.69v28.389c0,1.141-0.851,2.103-1.984,2.241c-8.581,1.048-15.561,8.742-15.561,17.154
					c0,1.173-0.897,2.149-2.065,2.249C132.714,164.127,118.556,164.731,104.568,164.731z M64.827,158.601
					c13.177,1.071,26.537,1.615,39.741,1.615s26.565-0.544,39.741-1.615c0.951-9.261,8.143-17.195,17.437-19.214v-24.101
					c-4.756-0.05-9.161-1.909-12.424-5.247c-2.751-2.813-4.473-6.463-4.971-10.46c-13.193,1.064-26.565,1.604-39.784,1.604
					s-26.593-0.539-39.787-1.604c-1.123,8.917-8.345,15.612-17.392,15.707v24.101C56.684,141.406,63.876,149.34,64.827,158.601z"/>
			</g>
		</g>
	</g>
	<g>
		<path fill="#3F3E3E" stroke="#3F3E3E" stroke-width="0.7" stroke-miterlimit="10" d="M117.733,141.557
			c-2.725,3.751-6.22,6.527-11.564,6.527c-7.299,0-12.747-5.191-14.546-12.799h-3.289c-0.873,0-1.593-0.719-1.593-1.593
			c0-0.924,0.72-1.645,1.593-1.645h2.776c-0.051-0.822-0.103-1.645-0.103-2.518c0-1.027,0.051-2.056,0.154-3.032h-2.828
			c-0.873,0-1.593-0.72-1.593-1.593c0-0.875,0.72-1.593,1.593-1.593h3.444c1.953-7.196,7.196-12.439,14.135-12.439
			c5.55,0,8.942,2.519,11.616,5.963c0.257,0.307,0.513,0.77,0.513,1.336c0,1.027-0.873,1.902-1.902,1.902
			c-0.719,0-1.233-0.36-1.542-0.72c-2.363-3.135-4.78-4.831-8.839-4.831c-4.625,0-8.275,3.547-9.817,8.789h11.821
			c0.873,0,1.645,0.719,1.645,1.593c0,0.873-0.772,1.593-1.645,1.593H95.22c-0.103,0.976-0.154,1.953-0.154,2.929
			c0,0.924,0,1.799,0.103,2.621h12.593c0.873,0,1.645,0.72,1.645,1.645c0,0.875-0.772,1.593-1.645,1.593H95.786
			c1.542,5.551,5.397,9.149,10.535,9.149c3.752,0,6.323-2.056,8.532-5.088c0.309-0.412,0.772-0.72,1.439-0.72
			c1.029,0,1.85,0.772,1.85,1.799C118.143,140.837,117.937,141.249,117.733,141.557z"/>
	</g>
</g>
</svg>
