<svg width="30" height="30" viewBox="0 0 30 30" xmlns="http://www.w3.org/2000/svg"><title>EC6537AE-7C53-4DF6-86DB-8E2B04A3335F</title><g transform="translate(-14 -90)" fill="none" fill-rule="evenodd"><rect fill="#FFF" y="30" width="680" height="350" rx="6"/><path d="M29.193 103.447H27.39a.513.513 0 0 0-.513.513v1.802c0 .284.23.513.513.513h1.802c.283 0 .513-.23.513-.513v-1.802a.513.513 0 0 0-.513-.513zm0 4.936H27.39a.513.513 0 0 0-.513.513v1.802c0 .283.23.513.513.513h1.802c.283 0 .513-.23.513-.513v-1.802a.513.513 0 0 0-.513-.513zm0-9.872H27.39a.513.513 0 0 0-.513.513v1.802c0 .284.23.514.513.514h1.802c.283 0 .513-.23.513-.514v-1.802a.513.513 0 0 0-.513-.513zm-5.233 9.872h-1.8a.513.513 0 0 0-.513.513v1.802c0 .283.23.513.513.513h1.802c.283 0 .513-.23.513-.513v-1.802a.513.513 0 0 0-.513-.513zm0-4.936h-1.8a.513.513 0 0 0-.513.513v1.802c0 .284.23.513.513.513h1.802c.283 0 .513-.23.513-.513v-1.802a.513.513 0 0 0-.513-.513zm0-4.936h-1.8a.513.513 0 0 0-.513.513v1.802c0 .284.23.514.513.514h1.802c.283 0 .513-.23.513-.514v-1.802a.513.513 0 0 0-.513-.513zm10.465 9.872h-1.802a.513.513 0 0 0-.513.513v1.802c0 .283.23.513.513.513h1.802c.284 0 .514-.23.514-.513v-1.802a.514.514 0 0 0-.514-.513zm0-9.872h-1.802a.513.513 0 0 0-.513.513v1.802c0 .284.23.514.513.514h1.802c.284 0 .514-.23.514-.514v-1.802a.514.514 0 0 0-.514-.513zm0 4.936h-1.802a.513.513 0 0 0-.513.513v1.802c0 .284.23.513.513.513h1.802c.284 0 .514-.23.514-.513v-1.802a.514.514 0 0 0-.514-.513z"/><path d="M38.23 97.135v-.581a3.214 3.214 0 0 0-3.213-3.214h-11.45a3.214 3.214 0 0 0-3.213 3.214v16.908a3.214 3.214 0 0 0 3.214 3.214H38.23V97.135zm-12.756 14.563c0 .283-.23.513-.513.513h-1.802a.513.513 0 0 1-.513-.513v-1.802c0-.283.23-.513.513-.513h1.802c.283 0 .513.23.513.513v1.802zm0-4.936c0 .284-.23.513-.513.513h-1.802a.513.513 0 0 1-.513-.513v-1.802c0-.283.23-.513.513-.513h1.802c.283 0 .513.23.513.513v1.802zm0-4.936c0 .283-.23.513-.513.513h-1.802a.513.513 0 0 1-.513-.513v-1.802c0-.284.23-.513.513-.513h1.802c.283 0 .513.23.513.513v1.802zm5.232 9.872c0 .283-.23.513-.513.513H28.39a.513.513 0 0 1-.513-.513v-1.802c0-.283.23-.513.513-.513h1.802c.283 0 .513.23.513.513v1.802zm0-4.936c0 .284-.23.513-.513.513H28.39a.513.513 0 0 1-.513-.513v-1.802c0-.283.23-.513.513-.513h1.802c.283 0 .513.23.513.513v1.802zm0-4.936c0 .283-.23.513-.513.513H28.39a.513.513 0 0 1-.513-.513v-1.802c0-.284.23-.513.513-.513h1.802c.283 0 .513.23.513.513v1.802zm5.232 9.872c0 .283-.23.513-.513.513h-1.802a.513.513 0 0 1-.513-.513v-1.802c0-.283.23-.513.513-.513h1.802c.283 0 .513.23.513.513v1.802zm0-4.936c0 .284-.23.513-.513.513h-1.802a.513.513 0 0 1-.513-.513v-1.802c0-.283.23-.513.513-.513h1.802c.283 0 .513.23.513.513v1.802zm0-4.936c0 .283-.23.513-.513.513h-1.802a.513.513 0 0 1-.513-.513v-1.802c0-.284.23-.513.513-.513h1.802c.283 0 .513.23.513.513v1.802z" fill="#9FA8AD"/></g></svg>