<?xml version="1.0" encoding="UTF-8" standalone="no"?>
<svg width="92px" height="80px" viewBox="0 0 92 80" version="1.1" xmlns="http://www.w3.org/2000/svg" xmlns:xlink="http://www.w3.org/1999/xlink">
    <!-- Generator: sketchtool 41.1 (35376) - http://www.bohemiancoding.com/sketch -->
    <title>7723B170-FEED-4A6B-9643-2ABCF0712317</title>
    <desc>Created with sketchtool.</desc>
    <defs></defs>
    <g id="Page-1" stroke="none" stroke-width="1" fill="none" fill-rule="evenodd">
        <g id="Desktop-Landscape-Copy-5" transform="translate(-168.000000, -1246.000000)">
            <g id="Texto-Glovers" transform="translate(5.000000, 655.000000)"></g>
            <g id="flag" transform="translate(168.000000, 1246.000000)">
                <text id="#1" stroke="#3FA990" transform="translate(46.000000, 26.000000) rotate(-16.000000) translate(-46.000000, -26.000000) " font-family="GothamRounded-Book, Gotham Rounded" font-size="30" font-weight="300" fill="#3D9F83">
                    <tspan x="30" y="37">#1</tspan>
                </text>
                <g id="Page-1" transform="translate(13.000000, 3.000000)" stroke="#3D9F83" stroke-width="3" stroke-linecap="round" stroke-linejoin="round">
                    <path d="M0.505175439,14.6919939 C1.74986842,20.1058565 2.99513158,25.520284 4.23982456,30.9341466 C4.68570175,32.8722687 5.10364035,34.6900702 5.52214912,36.5084366 C5.94008772,38.3262382 6.35802632,40.1440397 6.77596491,41.9624061 C7.19390351,43.7802076 7.61184211,45.5980092 8.0297807,47.4163756 C28.9495175,51.6852153 43.787193,29.5038565 64.7063596,33.7732611 C64.2878509,31.9548947 63.8699123,30.1370931 63.4519737,28.3192916 C63.0340351,26.5009252 62.6160965,24.6831237 62.1975877,22.8653221 C61.7796491,21.0469557 61.3617105,19.2291542 60.9437719,17.4113527 C60.5258333,15.5929863 60.1073246,13.7751847 59.689386,11.9573832 C59.2714474,10.1390168 58.8535088,8.32121527 58.4355702,6.50284885 C58.0170614,4.68504733 57.5991228,2.8672458 57.1811842,1.04887939 C43.7683772,-1.68799084 32.8563596,6.44805496 21.2378947,11.514513 C14.735614,14.3502382 8.01210526,16.2239634 0.505175439,14.6919939 Z" id="Stroke-1"></path>
                    <path d="M1.91995175,20.8446702 L13.9996886,73.6885786" id="Stroke-3"></path>
                </g>
            </g>
        </g>
    </g>
</svg>