<svg width="37" height="39" viewBox="0 0 37 39" xmlns="http://www.w3.org/2000/svg"><title>byebye</title><path d="M8.003 10.188s-.104-.896.904-1.258a1.29 1.29 0 0 1 1.536.444l1.485 7.692.687-.22L11.26 8.93s-.154-1.366 1.06-1.784c1.213-.42 1.59.825 1.59.825l1.305 7.863.792-.326-1.465-7.84s-.544-2.013.877-2.41c1.42-.397 1.85 1.577 1.85 1.577l1.302 7.62.656-.29-1.134-7.018s.024-1.61 1.315-1.484c1.29.125 1.316 1.69 1.316 1.69l2.094 10.872s3.405-4.923 7.048-2.14c.872.33-2.8 4.304-4.656 6.976-1.78 2.563-3.535 4.984-6.606 5.62-6.272 1.3-8.384-5.62-8.384-5.62L8 10.189z" fill-rule="evenodd"/></svg>