<svg width="24" height="24" viewBox="0 0 24 24" xmlns="http://www.w3.org/2000/svg"><title>A507E596-F995-4109-9A40-E7146335A51C</title><g fill="#9FA8AD" fill-rule="evenodd"><path d="M6.988 6.953c.71 0 1.284-.575 1.284-1.284V3.435a1.284 1.284 0 1 0-2.568 0v2.234c0 .709.575 1.284 1.284 1.284zm9.939 0c.709 0 1.284-.575 1.284-1.284V3.435a1.284 1.284 0 1 0-2.568 0v2.234c0 .709.575 1.284 1.284 1.284z"/><path d="M20.601 5.608h-.674v.91c0 1.372-1.307 2.487-2.913 2.487-1.606 0-2.913-1.115-2.913-2.486v-.91H9.933v.91c0 1.37-1.306 2.486-2.912 2.486-1.607 0-2.913-1.115-2.913-2.486v-.91h-.675c-1.334 0-2.416.923-2.416 2.062v9.875c0 1.139 1.082 2.062 2.416 2.062h17.168c1.334 0 2.416-.923 2.416-2.063V7.671c0-1.14-1.081-2.063-2.416-2.063zm-1.193 10.13c0 .613-.568 1.11-1.27 1.11h-2.422c-.702 0-1.27-.497-1.27-1.11v-1.571c0-.614.568-1.112 1.27-1.112h2.422c.701 0 1.27.498 1.27 1.112v1.57z"/></g></svg>