<svg width="22" height="22" viewBox="0 0 22 22" xmlns="http://www.w3.org/2000/svg"><title>896415F3-8E6E-472D-81D1-B3C291BD9C05</title><g fill="#9FA8AD" fill-rule="evenodd"><path d="M7.868 7.199a.83.83 0 0 0 .83-.83V4.928a.83.83 0 1 0-1.66 0V6.37a.83.83 0 0 0 .83.829zm6.419 0a.83.83 0 0 0 .83-.83V4.928a.83.83 0 1 0-1.659 0V6.37c0 .458.371.829.83.829z"/><path d="M16.592 5.685h-.434v.796c0 1.2-.839 2.176-1.87 2.176-1.032 0-1.872-.976-1.872-2.176v-.796H9.74v.796c0 1.2-.84 2.176-1.871 2.176-1.032 0-1.871-.976-1.871-2.176v-.796h-.434c-.857 0-1.552.808-1.552 1.805v8.64c0 .997.695 1.805 1.552 1.805h11.029c.857 0 1.552-.808 1.552-1.805V7.49c0-.997-.695-1.805-1.552-1.805zm-.702 8.695c0 .527-.367.954-.82.954h-1.565c-.453 0-.82-.427-.82-.954v-1.348c0-.527.367-.954.82-.954h1.565c.453 0 .82.427.82.954v1.348z"/></g></svg>