<?xml version="1.0" encoding="utf-8"?>
<!-- Generator: Adobe Illustrator 17.0.0, SVG Export Plug-In . SVG Version: 6.00 Build 0)  -->
<!DOCTYPE svg PUBLIC "-//W3C//DTD SVG 1.0//EN" "http://www.w3.org/TR/2001/REC-SVG-20010904/DTD/svg10.dtd">
<svg version="1.0" id="Capa_1" xmlns="http://www.w3.org/2000/svg" xmlns:xlink="http://www.w3.org/1999/xlink" x="0px" y="0px"
	 width="236px" height="282px" viewBox="0 0 236 282" enable-background="new 0 0 236 282" xml:space="preserve">
<g>
	<g>
		<g>
			<path fill="none" d="M117.046,70.311c-11.539,0-20.926,9.387-20.926,20.926v26.162h41.851V91.237
				C137.971,79.698,128.585,70.311,117.046,70.311z"/>
		</g>
		<g>
			<path fill="#999999" d="M182.086,117.398h-11.555h-4.427h-28.133H96.12H67.987H53.914c-9.962,0-18.038,8.076-18.038,18.038
				v10.222v65.899v10.222c0,9.962,8.076,18.038,18.039,18.038h28.029h72.113h28.029c9.962,0,18.038-8.076,18.038-18.038v-10.222
				v-65.899v-10.222C200.125,125.475,192.048,117.398,182.086,117.398z"/>
			<path fill="#3F3E3E" d="M182.085,242.737H53.915c-11.556,0-20.954-9.399-20.954-20.954v-86.345
				c0-11.556,9.399-20.954,20.954-20.954h128.17c11.556,0,20.954,9.399,20.954,20.954v86.345
				C203.039,233.338,193.641,242.737,182.085,242.737z M53.915,120.315c-8.341,0-15.123,6.782-15.123,15.123v86.345
				c0,8.341,6.782,15.123,15.123,15.123h128.17c8.341,0,15.123-6.782,15.123-15.123v-86.345c0-8.341-6.782-15.123-15.123-15.123
				H53.915z"/>
		</g>
		<g>
			<path fill="#CCCCCC" d="M96.12,91.237c0-11.539,9.387-20.926,20.926-20.926c11.539,0,20.926,9.387,20.926,20.926v26.162h28.133
				V91.237c0-27.052-22.006-49.059-49.058-49.059c-27.052,0-49.059,22.006-49.059,49.059v26.162H96.12V91.237z"/>
			<path fill="#3F3E3E" d="M166.102,120.315h-28.13c-1.607,0-2.916-1.309-2.916-2.916V91.234c0-9.93-8.078-18.009-18.009-18.009
				s-18.009,8.078-18.009,18.009v26.165c0,1.607-1.309,2.916-2.916,2.916H67.986c-1.607,0-2.916-1.309-2.916-2.916V91.234
				c0-28.656,23.32-51.971,51.977-51.971s51.971,23.314,51.971,51.971v26.165C169.018,119.006,167.709,120.315,166.102,120.315z
				 M140.887,114.483h22.299V91.234c0-25.442-20.697-46.139-46.139-46.139c-25.448,0-46.145,20.697-46.145,46.139v23.249h22.305
				V91.234c0-13.145,10.695-23.84,23.84-23.84s23.84,10.695,23.84,23.84V114.483z"/>
		</g>
	</g>
	<g>
		<path fill="#3F3E3E" d="M117.997,204.685c-6.313,0-11.45-5.137-11.45-11.45v-11.13c-3.968-3.357-6.295-8.32-6.295-13.545
			c0-9.786,7.959-17.751,17.746-17.751s17.751,7.965,17.751,17.751c0,5.225-2.333,10.182-6.301,13.545v11.13
			C129.448,199.547,124.31,204.685,117.997,204.685"/>
	</g>
</g>
</svg>
