<?xml version="1.0" encoding="utf-8"?>
<!-- Generator: Adobe Illustrator 19.2.1, SVG Export Plug-In . SVG Version: 6.00 Build 0)  -->
<svg version="1.1" id="Capa_1" xmlns="http://www.w3.org/2000/svg" xmlns:xlink="http://www.w3.org/1999/xlink" x="0px" y="0px"
	 viewBox="0 0 350.5 289" style="enable-background:new 0 0 350.5 289;" xml:space="preserve">
<style type="text/css">
	.st0{fill:#CFCFCF;}
</style>
<g>
	<path class="st0" d="M23.9,51.8c0,0,0,0.3,0,0.7C24,52.5,24,52.4,23.9,51.8z"/>
	<path class="st0" d="M317.8,9l-0.2,0.1l-13.9,3.4l-0.2,0.1c-0.8,0.2-1.5,0.5-2.2,0.9l-45.9,11.1c-0.7,0-1.4,0-2.2,0.2l-10.8,2.6
		c-0.3,0-0.5,0.1-0.8,0.1l-28.7,7c-0.7,0.2-1.3,0.4-1.9,0.7c0.1-0.1,0.2-0.3,0.3-0.4L136,53l-10.7-18.7
		c-4.4-7.7-14.5-12.5-22.4-10.5L96,25.4c-2-1.8-4.6-2.7-7.1-2.1L18.2,40.4l0,0c-2.6,0.6-4.5,2.7-5.5,5.5c-3.5,1-5.6,4.6-4.7,8.2
		c0.9,3.7,4.6,6,8.3,5.1l0,0c2,1.7,4.5,2.5,6.8,1.9c0.2,0,0.4-0.1,0.6-0.2c0.1,0,0.2,0,0.3,0l10.4-2.5c1.3,0.9,2.4,2.1,3.1,3.3
		L49,81.9c0,0.4,0.1,0.9,0.2,1.3c0.5,2.2,1.8,3.9,3.5,5.1l51.3,91.1c1.4,2.5,2.8,6.2,3.9,9.9c-0.5,1.4-0.7,2.9-0.3,4.4
		c0.3,1.4,1.1,2.7,2.1,3.6c0.2,1.1,0.3,2.2,0.3,3.2l1.7,39.7c0.2,5.5,2.7,10.4,6.8,13.5c3.9,2.9,8.9,4,14,3
		c-2.7,3.9-3.8,8.9-2.6,13.8c2.2,9.2,11.6,14.9,20.8,12.7c9.2-2.2,14.9-11.6,12.7-20.8c-1.2-4.9-4.4-8.8-8.6-11.1l47.7-11.6
		c-2.7,3.9-3.7,8.8-2.5,13.8c2.2,9.2,11.6,14.9,20.8,12.7c8.4-2,13.8-9.9,13.1-18.2c3.2,7.7,11.6,12.2,20,10.2
		c9.2-2.2,14.9-11.6,12.7-20.8c-1.2-4.9-4.4-8.8-8.6-11.1l3.7-0.9l44.1-10.7c-2.7,3.9-3.7,8.8-2.5,13.8c2.2,9.2,11.6,14.9,20.8,12.7
		c9.2-2.2,14.9-11.6,12.7-20.8c-1.2-4.9-4.4-8.8-8.6-11.1l12.1-2.9c3.7-0.9,6-4.6,5.1-8.3c-0.7-3.1-3.5-5.2-6.7-5.3
		c-0.6-0.1-1.2-0.1-1.8,0l-78.5,19l-48.2,11.7c-2.1,0.5-4,0.2-5.5-0.9c-1.5-1.1-2.3-2.9-2.4-5l-1.8-38.7l52.3-12.5
		c0.1,0,0.1,0,0.2-0.1l-0.1,0c0,0,0,0,0.1,0c0.2-0.1,0.5-0.1,0.7-0.2l72.9-25.7c1.8-0.6,3.3-2,4.2-3.7c0.8-1.8,0.9-3.7,0.3-5.6
		c-0.8-2.1-2.4-3.7-4.4-4.4l-6.8-99.9l1.9-0.5l0.2-0.1c4.8-1.2,7.7-6,6.6-10.8S322.6,7.8,317.8,9z M288.6,138.4l-2.5-33.5l17-5.4
		l2.6,32.8L288.6,138.4z M115.4,195.2c-1.7,0.4-3.5-0.7-3.9-2.4c-0.4-1.7,0.7-3.5,2.4-3.9c0,0,0,0,0,0l130.3-31.2
		c-0.3,1.3-0.2,2.7,0.2,4c0.3,0.9,0.8,1.6,1.3,2.3L115.4,195.2z M189.9,228.5l-56.8,13.8c-2.1,0.5-4,0.2-5.4-0.9
		c-1.4-1.1-2.2-2.8-2.3-5l-1-35.7c0-1.1-0.1-2.2-0.3-3.4l62.5-15l1.6,39.4C188.4,224.2,188.9,226.4,189.9,228.5z M117.2,174.5
		l-12-21.3l15.7-4l14.3,30.5l-14.3,3.4C119.8,179.9,118.5,176.9,117.2,174.5z M53.1,82.2c-0.6-2.6,1-5.2,3.6-5.9l149.9-36.3
		c-0.6,1.6-0.7,3.3-0.3,5.1c0.4,1.7,1.3,3.2,2.5,4.4L59,85.8C56.4,86.4,53.8,84.8,53.1,82.2z M99.1,39.1l5.1-1.2
		c3.2-0.8,8.1,1.8,10,5.2l7.5,13.3L59.1,71.6l-9.6-16.9L93.9,44C96.3,43.4,98.1,41.5,99.1,39.1z M277.7,32l2.5,35.5l-15.6,4.3
		l-2.1-33.3c0.7-1,1.2-2,1.5-3.2L277.7,32z M248.1,151.8c-0.6,0.4-1.1,0.8-1.4,1.1l-18.1,4.3l-5-34.5l21.7-5.5L248.1,151.8z
		 M138.3,178.9L124,148.3l21.1-5.4l12,31.5L138.3,178.9z M190.5,95.1l24.7-6.5l4.7,31.7l-22.7,5.8L190.5,95.1z M189.8,91.9L182.9,60
		l27.1-6.6l4.8,32L189.8,91.9z M153.6,104.8l6.4-1.7l0.4,0.7l7.9,27.1L153.6,104.8z M165.6,134.3l-18.4,4.7L136,109.4l13.6-3.6
		L165.6,134.3z M167.3,115.8l9,15.7l-4.1,1L167.3,115.8z M164.1,102l23.3-6.1L194,127l-13.7,3.5L164.1,102z M162.4,99.1L162.4,99.1
		L153,67.2l26.7-6.5l6.9,32L162.4,99.1z M149.9,68l5.6,19l-10.2-17.9L149.9,68z M141.1,70.1l17.2,30.1l-6.4,1.7l-17.1-30.2
		L141.1,70.1z M130.8,72.6l17.1,30.3l-13.1,3.4l-12-31.8L130.8,72.6z M119.6,75.3l12.1,31.9l-24.1,6.3L92.7,81.8L119.6,75.3z
		 M132.8,110.2l11.2,29.6l-21.4,5.5L109,116.5L132.8,110.2z M160.3,173.6l-12-31.5l18.9-4.9l6,10.7l6.1,21.1L160.3,173.6z
		 M182.6,168.3l-2.3-8l0.4,0.7c1.1,1.9,2.1,4.4,3,7.1L182.6,168.3z M187.6,167.1c-1-3.1-2.2-6-3.4-8.2l-8.9-15.7l-2.2-7.5l4.8-1.2
		l11.5,20c1.7,2.9,3.3,6.9,4.5,11L187.6,167.1z M197.8,164.6c-1.4-4.5-3.1-8.9-4.9-12.1L182,133.4l12.7-3.3l7.3,33.4L197.8,164.6z
		 M197.9,129.3l22.5-5.8l5,34.4l-20.1,4.8L197.9,129.3z M223.1,119.5l-4.7-31.8l23.7-6.1l2.9,32.3L223.1,119.5z M245.8,80.5
		l15.8-4.4l2.1,32.5l-15,4.7L245.8,80.5z M264.8,75.2l15.6-4.3l2.2,31.8l-15.8,5L264.8,75.2z M261.4,72.8l-15.9,4.4l-2.8-31.7
		c0.2,0,0.4-0.1,0.6-0.1l14.2-3.4c0.7-0.2,1.4-0.4,2-0.8L261.4,72.8z M241.8,78.4l-23.9,6.2l-4.7-31.9l2.5-0.6
		c-0.1,0-0.2-0.1-0.3-0.1c0.6,0,1.2-0.1,1.8-0.2l21.8-5.3L241.8,78.4z M89.4,82.6l15,31.7l-18.5,4.8L68.2,87.8L89.4,82.6z
		 M105.8,117.3l13.6,28.9l-15.9,4.1l-15.9-28.2L105.8,117.3z M249,116.6l14.9-4.7l2.3,34.4l-14.3,5L249,116.6z M267.1,110.9l15.8-5
		l2.5,33.6l-16,5.6L267.1,110.9z M285.8,101.6l-2.2-31.7l16.9-4.7l2.3,31L285.8,101.6z M283.4,66.7l-2.5-35.4l16.8-4.1l2.6,34.7
		L283.4,66.7z M297.3,18.5c-0.5,1.5-0.6,3.1-0.2,4.7l-33.1,8c-0.4-1.6-1.2-3-2.3-4.1l35.4-8.6L297.3,18.5z M242.6,31.4
		c0.2,0,0.3,0,0.5-0.1l11.1-2.7c2.6-0.6,5.2,1,5.9,3.6s-1,5.2-3.6,5.9l-14.2,3.4c-0.2,0-0.3,0-0.5,0.1l-25.6,6.2
		c-2.6,0.6-5.2-1-5.9-3.6c-0.6-2.6,1-5.2,3.6-5.9L242.6,31.4z M103.8,27.7c6.2-1.5,14.4,2.4,18,8.6L131.9,54l-6.1,1.5l-8.1-14.3
		c-2.9-5.1-9.5-8.4-14.5-7.2l-3.3,0.8c0-1-0.1-2-0.3-3.1c-0.2-1-0.6-1.8-1-2.7L103.8,27.7z M95.7,32.6c0.8,3.5-0.4,6.9-2.7,7.4
		L47.2,51.1c-4.6-6-12.9-9.5-20.4-8.4c-0.5,0-0.9,0.1-1.3,0.2c0,0,0,0,0,0l64.3-15.6C92.1,26.7,94.8,29.1,95.7,32.6z M26.6,52.5
		l-11.3,2.7c-1.5,0.4-3-0.6-3.4-2.1c-0.4-1.5,0.6-3,2.1-3.4L25.3,47c0.6-0.1,1.2-0.2,2.1-0.3c6.7-1,14.5,2.8,17.8,8.6L55,72.7
		c-1.9,0.7-3.5,1.9-4.6,3.5l-9.3-16.5C38.3,54.6,31.6,51.3,26.6,52.5z M58.2,90c0.6,0,1.1-0.1,1.7-0.2l4.1-1l18,31.9
		c-0.2,0.4-0.3,0.8-0.2,1.2c0.2,0.7,0.8,1.2,1.5,1.2l16.2,28.7c-0.2,0.3-0.3,0.8-0.2,1.2c0.2,0.7,0.8,1.2,1.5,1.2l12.6,22.4
		c1.2,2.1,2.3,4.7,3.3,7.5l-3.8,0.9c0,0-0.1,0-0.1,0c-0.7,0.2-1.3,0.5-1.9,0.8c-1-3.1-2.2-6.1-3.5-8.3L58.2,90z M146.7,253.4
		c0.4,0,0.7,0,1.1,0l2.4,9.8c0.5,2-0.8,4.1-2.8,4.6l-0.7,0.2c-2,0.5-4.1-0.8-4.6-2.8l-2.4-9.8c0.3-0.2,0.6-0.4,0.9-0.5L146.7,253.4z
		 M159.4,263.4c1.7,7.1-2.6,14.2-9.7,15.9s-14.2-2.6-15.9-9.7c-1-4,0-8.1,2.4-11.1l1.9,7.6c1,4.2,5.3,6.8,9.5,5.8l0.7-0.2
		c4.2-1,6.8-5.3,5.8-9.5l-1.9-7.6C155.7,256.2,158.5,259.4,159.4,263.4z M213,237.3l3.8-0.9c0.4,0,0.7,0,1.1,0l2.4,9.8
		c0.5,2-0.8,4.1-2.8,4.6l-0.7,0.2c-2,0.5-4.1-0.8-4.6-2.8l-2.4-9.8c0.3-0.2,0.6-0.4,0.9-0.5L213,237.3z M249.9,228.3
		c0.4,0,0.7,0,1.1,0l2.4,9.8c0.5,2-0.8,4.1-2.8,4.6l-0.7,0.2c-2,0.5-4.1-0.8-4.6-2.8l-2.4-9.8c0.3-0.2,0.6-0.4,0.9-0.5L249.9,228.3z
		 M219.9,262.3c-7.1,1.7-14.2-2.6-15.9-9.7c-1-4,0-8.1,2.4-11.1l1.9,7.7c1,4.2,5.3,6.8,9.5,5.8l0.7-0.2c4.2-1,6.8-5.3,5.8-9.5
		l-1.9-7.6c3.5,1.6,6.2,4.8,7.2,8.8C231.3,253.5,226.9,260.6,219.9,262.3z M224.9,234.4l10.7-2.6c-2.2,3.2-3.3,7.1-2.9,11.2
		C231.1,239.2,228.4,236.2,224.9,234.4z M262.6,238.4c1.7,7.1-2.6,14.2-9.7,15.9s-14.2-2.6-15.9-9.7c-1-4,0-8.1,2.4-11.1l1.9,7.6
		c1,4.2,5.3,6.8,9.5,5.8l0.7-0.2c4.2-1,6.8-5.3,5.8-9.5l-1.9-7.6C258.9,231.2,261.7,234.4,262.6,238.4z M249.4,224.3
		c-1.2,0-2.4,0.2-3.6,0.5c-1.2,0.3-2.4,0.7-3.5,1.2l-26,6.3c-1.2,0-2.4,0.2-3.6,0.5c-1.2,0.3-2.4,0.7-3.5,1.2l-63,15.3
		c-1.2,0-2.4,0.2-3.6,0.5c-1.2,0.3-2.4,0.7-3.5,1.2l-6.8,1.6c-4.1,1-8.3,0.2-11.4-2.1c-3.1-2.4-5-6.1-5.2-10.4l-1.7-39.7
		c0-0.4,0-0.7-0.1-1.1c0.8,0.1,1.6,0.1,2.4-0.1l3.8-0.9c0.1,0.9,0.2,1.8,0.2,2.6l1,35.7c0.1,3.4,1.5,6.2,3.9,8.1
		c2.4,1.8,5.5,2.4,8.8,1.6l123.3-29.9l1.4,5.7L249.4,224.3z M320,211.3c0.4,0,0.7,0,1.1,0l2.4,9.8c0.5,2-0.8,4.1-2.8,4.6l-0.7,0.2
		c-2,0.5-4.1-0.8-4.6-2.8l-2.4-9.8c0.3-0.2,0.6-0.4,0.9-0.5L320,211.3z M332.8,221.4c1.7,7.1-2.6,14.2-9.7,15.9
		c-7.1,1.7-14.2-2.6-15.9-9.7c-1-4,0-8.1,2.4-11.1l1.9,7.6c1,4.2,5.3,6.8,9.5,5.8l0.7-0.2c4.2-1,6.8-5.3,5.8-9.5l-1.9-7.7
		C329,214.2,331.8,217.4,332.8,221.4z M338,196.9c0.2,0,0.4,0.1,0.6,0.1c1.3,0,2.5,0.9,2.8,2.2c0.4,1.5-0.6,3-2.1,3.4l-19.8,4.8
		c-1.2,0-2.4,0.2-3.6,0.5s-2.4,0.7-3.5,1.2l-49.8,12.1l-1.4-5.7l76.5-18.5C337.8,196.8,337.9,196.8,338,196.9z M198.3,217.9
		c0.1,3.2,1.4,5.9,3.6,7.7l-8,1.9c-0.9-1.8-1.5-3.8-1.6-6l-1.7-39.7c0-0.2,0-0.3,0-0.5l5.9-1.4L198.3,217.9z M325.3,136.6
		l-72.9,25.7c-0.1,0-0.2,0.1-0.3,0.1c-1.6,0.4-3.3-0.5-3.8-2.1c-0.6-1.7,0.3-3.5,2-4.1l72.9-25.7c0.1,0,0.2-0.1,0.3-0.1
		c1.6-0.4,3.2,0.5,3.8,2.1C327.9,134.2,327,136,325.3,136.6z M322.8,126.4c-0.1,0-0.2,0-0.3,0c0,0,0,0,0,0c-0.2,0.1-0.5,0.1-0.7,0.2
		l-13,4.6l-2.5-32.7l14-4.4L322.8,126.4z M320,90.8L306,95.3l-2.3-30.9l14.3-4L320,90.8z M317.8,57.1l-14.3,4l-2.4-32.2
		c1.9,1.1,4.2,1.5,6.5,1l0.2-0.1l8.2-2L317.8,57.1z M306.9,25.8c-2.6,0.6-5.2-1-5.9-3.6s1-5.2,3.6-5.9l13.9-3.4
		c2.6-0.6,5.2,1,5.9,3.6s-1,5.2-3.6,5.9L306.9,25.8z"/>
</g>
</svg>
