<?xml version="1.0" encoding="utf-8"?>
<!-- Generator: Adobe Illustrator 19.2.1, SVG Export Plug-In . SVG Version: 6.00 Build 0)  -->
<svg version="1.1" id="Capa_1" xmlns="http://www.w3.org/2000/svg" xmlns:xlink="http://www.w3.org/1999/xlink" x="0px" y="0px"
	 viewBox="0 0 60.3 54.1" style="enable-background:new 0 0 60.3 54.1;" xml:space="preserve">
<style type="text/css">
	.st0{fill:#26a69a;}
</style>
<path class="st0" d="M56.3,18.2h-1c-0.1-0.1-0.1-0.1-0.2-0.2L39.3,2.2l-0.5-0.6c-0.2-0.3-0.4-0.5-0.7-0.6l0,0
	c-1.3-1.3-3.4-1.3-4.7,0c-1.3,1.3-1.3,3.4,0,4.7l12.5,12.5H13.9L26.4,5.7c1.3-1.3,1.3-3.4,0-4.7h0c-1.3-1.3-3.4-1.3-4.7,0l-17,17
	c-0.1,0.1-0.1,0.1-0.2,0.2H3.5c-1.9,0-3.4,1.5-3.5,3.4v2.2c0,1.7,1.4,3.1,3,3.4l6.2,23c0.2,1,1.2,4,4,4h33.2c2.1,0,3.5-1.9,4-3.7
	l6.2-23.3c1.7-0.1,3.1-1.6,3.1-3.4v-2.2C59.8,19.7,58.1,18.2,56.3,18.2z M22.4,42.9c0,1.4-1.1,2.5-2.5,2.5s-2.5-1.1-2.5-2.5v-9
	c0-1.4,1.1-2.5,2.5-2.5s2.5,1.1,2.5,2.5V42.9z M32.4,42.9c0,1.4-1.1,2.5-2.5,2.5c-1.4,0-2.5-1.1-2.5-2.5v-9c0-1.4,1.1-2.5,2.5-2.5
	c1.4,0,2.5,1.1,2.5,2.5V42.9z M42.3,42.9c0,1.4-1.1,2.5-2.5,2.5c-1.4,0-2.5-1.1-2.5-2.5v-9c0-1.4,1.1-2.5,2.5-2.5
	c1.4,0,2.5,1.1,2.5,2.5V42.9z"/>
</svg>
