<?xml version="1.0" encoding="utf-8"?>
<!-- Generator: Adobe Illustrator 19.2.1, SVG Export Plug-In . SVG Version: 6.00 Build 0)  -->
<svg version="1.1" id="Capa_1" xmlns="http://www.w3.org/2000/svg" xmlns:xlink="http://www.w3.org/1999/xlink" x="0px" y="0px"
	 viewBox="0 0 30 30" style="enable-background:new 0 0 30 30;" xml:space="preserve">
<style type="text/css">
	.st0{fill:#2ABB9B;}
</style>
<title>4CFA8C2D-ADC9-4405-8159-BEA6E3548CD8</title>
<desc>Created with sketchtool.</desc>
<g id="Page-1_1_">
	<g id="Assets" transform="translate(-240.000000, -124.000000)">
		<g id="Dropdown" transform="translate(240.000000, 124.000000)">
			
				<g id="Page-1" transform="translate(15.478261, 15.978261) rotate(-90.000000) translate(-15.478261, -15.978261) translate(6.978261, 0.978261)">
				<path id="Fill-1" class="st0" d="M15.3,29.5c-0.4,0-0.8-0.2-1.1-0.4L0.4,15.8c-0.3-0.3-0.4-0.6-0.4-1c0-0.4,0.2-0.8,0.4-1
					L14.2,0.4C14.5,0.2,14.9,0,15.3,0c0.4,0,0.8,0.2,1.1,0.4c0.6,0.6,0.6,1.5,0,2.1L3.7,14.7L16.3,27c0.6,0.6,0.6,1.5,0,2.1
					C16.1,29.3,15.7,29.5,15.3,29.5"/>
			</g>
		</g>
	</g>
</g>
</svg>
