<svg width="30" height="30" viewBox="0 0 30 30" xmlns="http://www.w3.org/2000/svg"><title>08052EAA-BA1E-4C7B-9D9B-937B498C0DAA</title><g fill-rule="nonzero" fill="none"><path d="M15.161 27.41c-5.884 0-10.641-4.792-10.641-10.642S9.312 6.126 15.16 6.126c5.85 0 10.642 4.793 10.642 10.642 0 5.85-4.757 10.642-10.642 10.642z" fill="#D8D8D8"/><path d="M17.091 21.032l-1.585-2.925 1.162-5.744a1.47 1.47 0 0 0-.14-1.022 1.215 1.215 0 0 0-.74-.599c-.106-.035-.177-.035-.282-.035-.564 0-1.058.423-1.198 1.057l-1.304 6.308c-.07.352 0 .74.176 1.057l1.832 3.383c.176.317.423.528.74.599.106.035.176.035.282.035.212 0 .458-.07.634-.211.6-.423.776-1.269.423-1.903z" fill="#FFF"/><path d="M19.25 3.554a1.3 1.3 0 0 1-1.305 1.304h-5.779a1.3 1.3 0 0 1-1.304-1.304 1.3 1.3 0 0 1 1.304-1.304h5.78c.704.035 1.303.6 1.303 1.304z" fill="#D8D8D8"/></g></svg>