<svg width="30" height="30" viewBox="0 0 30 30" xmlns="http://www.w3.org/2000/svg"><title>A41A5EEE-3D47-461F-AD8F-EB0EF94D5C4E</title><g fill="none" fill-rule="evenodd"><g fill-rule="nonzero" fill="#D8D8D8"><path d="M8.696 9.633c.867 0 1.551-.67 1.551-1.52V5.52c0-.85-.684-1.52-1.551-1.52-.868 0-1.552.67-1.552 1.52v2.638c0 .804.684 1.475 1.552 1.475z"/><path d="M22.164 13.617c1.763 0 3.353.626 4.643 1.654V9.816C26.807 8.253 25.603 7 24.1 7h-.774v1.252c0 1.877-1.462 3.398-3.268 3.398-1.806 0-3.267-1.52-3.267-3.398V7h-4.773v1.252c0 1.877-1.461 3.398-3.267 3.398-1.806 0-3.268-1.52-3.268-3.398V7H4.71C3.204 7 2 8.252 2 9.817v13.546c0 1.565 1.204 2.816 2.709 2.816h11.35c-.946-1.296-1.505-2.95-1.505-4.694 0-4.336 3.397-7.868 7.61-7.868z"/><path d="M20.052 9.633c.867 0 1.551-.67 1.551-1.52V5.52c0-.85-.684-1.52-1.551-1.52-.867 0-1.552.67-1.552 1.52v2.638c0 .804.685 1.475 1.552 1.475zM23.363 16v5.678l2.236 2.325a.861.861 0 0 1 0 1.162.783.783 0 0 1-1.118 0l-2.279-2.37c-.258-.134-.387-.402-.387-.715V16C19.107 16.402 17 18.817 17 21.767c0 3.22 2.494 5.812 5.59 5.812 3.095 0 5.588-2.593 5.588-5.812 0-2.95-2.106-5.365-4.815-5.767z"/></g></g></svg>