<svg width="22" height="22" viewBox="0 0 22 22" xmlns="http://www.w3.org/2000/svg"><title>3F0F5882-155B-4257-911A-F332F5A2D018</title><path d="M11 19c-4.411 0-8-3.589-8-8s3.59-8 8-8c4.411 0 8 3.59 8 8 0 4.411-3.589 8-8 8zm1.471-4.9l-1.191-2.193.888-4.314a1.12 1.12 0 0 0-.115-.771.92.92 0 0 0-.568-.456.831.831 0 0 0-.207-.026c-.427 0-.793.325-.89.79l-.973 4.728c-.056.27-.01.565.122.782l1.383 2.539a.92.92 0 0 0 .568.455.842.842 0 0 0 .69-.128c.428-.298.559-.93.293-1.407z" fill="#9FA8AD" fill-rule="evenodd"/></svg>