<svg width="26" height="26" viewBox="0 0 26 26" xmlns="http://www.w3.org/2000/svg"><title>58ED6220-D161-459E-9361-3DFE841D3845</title><g fill="none" fill-rule="evenodd"><path d="M14.456 13h-1.912c-.3 0-.544.244-.544.544v1.912c0 .3.244.544.544.544h1.912c.3 0 .544-.244.544-.544v-1.912c0-.3-.244-.544-.544-.544zm0 5h-1.912c-.3 0-.544.244-.544.544v1.912c0 .3.244.544.544.544h1.912c.3 0 .544-.244.544-.544v-1.912c0-.3-.244-.544-.544-.544zm0-9h-1.912c-.3 0-.544.244-.544.544v1.912c0 .3.244.544.544.544h1.912c.3 0 .544-.244.544-.544V9.544c0-.3-.244-.544-.544-.544zm-5 9H7.544c-.3 0-.544.244-.544.544v1.912c0 .3.244.544.544.544h1.912c.3 0 .544-.244.544-.544v-1.912c0-.3-.244-.544-.544-.544zm0-5H7.544c-.3 0-.544.244-.544.544v1.912c0 .3.244.544.544.544h1.912c.3 0 .544-.244.544-.544v-1.912c0-.3-.244-.544-.544-.544zm0-4H7.544c-.3 0-.544.244-.544.544v1.912c0 .3.244.544.544.544h1.912c.3 0 .544-.244.544-.544V9.544c0-.3-.244-.544-.544-.544zm10 9h-1.912c-.3 0-.544.244-.544.544v1.912c0 .3.244.544.544.544h1.912c.3 0 .544-.244.544-.544v-1.912c0-.3-.244-.544-.544-.544zm0-9h-1.912c-.3 0-.544.244-.544.544v1.912c0 .3.244.544.544.544h1.912c.3 0 .544-.244.544-.544V9.544c0-.3-.244-.544-.544-.544zm0 4h-1.912c-.3 0-.544.244-.544.544v1.912c0 .3.244.544.544.544h1.912c.3 0 .544-.244.544-.544v-1.912c0-.3-.244-.544-.544-.544z"/><path d="M21.217 5.578V5.03c0-1.673-1.385-3.03-3.095-3.03H7.095C5.385 2 4 3.357 4 5.03v15.94C4 22.643 5.386 24 7.095 24h14.122V5.578zM8.931 19.307a.49.49 0 0 1-.494.484H6.701a.49.49 0 0 1-.494-.484v-1.699a.49.49 0 0 1 .494-.484h1.736a.49.49 0 0 1 .494.484v1.699zm0-4.653a.49.49 0 0 1-.494.484H6.701a.49.49 0 0 1-.494-.484v-1.699a.49.49 0 0 1 .494-.484h1.736a.49.49 0 0 1 .494.484v1.699zm0-4.654a.49.49 0 0 1-.494.484H6.701A.49.49 0 0 1 6.207 10V8.301a.49.49 0 0 1 .494-.483h1.736a.49.49 0 0 1 .494.483v1.7zm5.04 9.307a.49.49 0 0 1-.495.484H11.74a.49.49 0 0 1-.494-.484v-1.699a.49.49 0 0 1 .494-.484h1.736a.49.49 0 0 1 .494.484v1.699zm0-4.653a.49.49 0 0 1-.495.484H11.74a.49.49 0 0 1-.494-.484v-1.699a.49.49 0 0 1 .494-.484h1.736a.49.49 0 0 1 .494.484v1.699zm0-4.654a.49.49 0 0 1-.495.484H11.74a.49.49 0 0 1-.494-.484V8.301a.49.49 0 0 1 .494-.483h1.736a.49.49 0 0 1 .494.483v1.7zm5.038 9.307a.49.49 0 0 1-.494.484h-1.736a.49.49 0 0 1-.494-.484v-1.699a.49.49 0 0 1 .494-.484h1.736a.49.49 0 0 1 .494.484v1.699zm0-4.653a.49.49 0 0 1-.494.484h-1.736a.49.49 0 0 1-.494-.484v-1.699a.49.49 0 0 1 .494-.484h1.736a.49.49 0 0 1 .494.484v1.699zm0-4.654a.49.49 0 0 1-.494.484h-1.736a.49.49 0 0 1-.494-.484V8.301a.49.49 0 0 1 .494-.483h1.736a.49.49 0 0 1 .494.483v1.7z" fill="#9FA8AD"/></g></svg>