<svg width="445" height="204" viewBox="0 0 445 204" xmlns="http://www.w3.org/2000/svg" xmlns:xlink="http://www.w3.org/1999/xlink"><title>885ADE02-1F73-40F5-94A9-1F4692365A58</title><defs><path id="a" d="M0 203.72V.005h444.789V203.72z"/></defs><g fill="none" fill-rule="evenodd"><g transform="translate(0 .136)"><mask id="b" fill="#fff"><use xlink:href="#a"/></mask><path d="M273.282 49.905c-2.919 3.959-5.611 7.63-8.07 11.016-1.094 1.5-2.007 2.79-3.025 4.2-.166-2.647-.332-5.308-.52-8.136-.407-5.858-.845-12.5-1.32-19.626.437 1.146.943 2.262 1.584 3.318 2.564 4.267 6.494 7.472 11.351 9.228M94.098 59.421a1132.145 1132.145 0 0 0-3.5 16.806l-.77 3.86c-.821-.082-1.606-.27-2.45-.27-1.531 0-2.995.082-4.367.233-1.11.12-2.278.294-3.5.528a99.51 99.51 0 0 1-3.454.37 32.78 32.78 0 0 1-3.048.157c-.316 0-.64-.007-.988-.03-.03-.663-.022-1.5.076-2.526a65.76 65.76 0 0 1 1.169-7.653 72.738 72.738 0 0 1 2.18-8.542c.957-2.963 1.87-5.572 2.745-7.842.143-.362.294-.626.4-.791 1.546-.581 3.432-.875 5.619-.875.716 0 1.425.015 2.134.053.476.022 1.003.06 1.57.105.768.144 1.553.226 2.345.257 1.584.098 3.303.143 5.129.15-.415 1.953-.838 3.906-1.29 6.01m235.08 49.884c-.844 0-1.629.105-2.436.173.06-.241.159-.422.212-.663 1.093-5.308.95-9.651-.393-13.542-1.772-5.067-5.385-9.1-10.197-11.393a21.63 21.63 0 0 0-2.263-.95c2.3-3.091 4.601-6.19 6.894-9.297a449.897 449.897 0 0 0 8.478-11.92c.61 2.284 1.214 4.539 1.795 6.68l3.635 13.851c-.09.407-.173.807-.256 1.199-.31 1.493-.626 3.167-.95 4.969a117.99 117.99 0 0 1-.95 4.78 555.62 555.62 0 0 0-1.547 7.268 82.302 82.302 0 0 0-1.071 6.583c-.09.784.03 1.515.007 2.284a21.296 21.296 0 0 0-.957-.022m113.89 21.3c-1.962-5.218-5.137-9.613-9.451-13.097-3.779-3.054-8.176-5.308-13.079-6.703-3.756-1.078-7.565-1.628-11.32-1.628-.823 0-1.645.03-2.46.082-1.885.136-3.756.295-5.762.49a37.83 37.83 0 0 0-9.006 1.961c-.384.136-.731.347-1.108.498-.325-.174-.558-.453-.89-.611-1.758-.852-3.711-1.38-5.785-1.75.384-1.326.807-2.608 1.139-3.988a8.77 8.77 0 0 0 .135-.64 209.597 209.597 0 0 1 1.675-7.963c.452-1.945.86-3.551 1.237-4.833.452-1.583.814-2.858 1.07-3.845.86-1.17 1.992-2.768 3.553-5 2.557-3.664 5.491-7.894 8.817-12.712a718.141 718.141 0 0 0 10.409-15.54c3.409-5.225 6.57-10.05 9.48-14.461 1.147-1.606 2.218-3.393 3.281-5.444 1.313-2.556 2.233-4.916 2.806-7.223.068-.264.128-.528.174-.8 1.063-5.534.18-11-2.557-15.81-3.44-6.025-9.571-9.629-18.23-10.737-1.803-.196-3.25-.28-4.661-.28-5.876 0-11.337 1.328-16.224 3.944-4.126 2.21-7.655 5.33-10.552 9.335a23.482 23.482 0 0 0-7.323-8.37c-4.624-3.257-10.31-4.908-16.888-4.908-1.372 0-2.828.075-4.352.226-4.555.558-8.387 1.742-11.668 3.423-3.748-2.284-8.198-3.498-13.395-3.498h-8.757c-3.024 0-6.388.022-10.099.075-3.59.053-7.158.068-10.718.068h-3.017c-2.353 0-4.736.18-7.067.528a28.549 28.549 0 0 0-9.51 3.242c-3.425 1.907-6.329 4.561-8.652 7.894-2.142 3.084-3.673 6.726-4.691 11.16-.045.18-.083.369-.12.557-.099.505-.099.98-.167 1.478-.098-.686-.166-1.418-.271-2.066-.785-4.758-2.467-8.89-4.993-12.305-2.829-3.793-6.577-6.62-11.186-8.437-3.809-1.478-8.16-2.194-13.365-2.194-5.174 0-9.67.716-13.742 2.194-4.3 1.538-8.146 3.875-11.389 6.936-2.783 2.632-5.227 5.738-7.278 9.26-1.562 2.669-3.1 5.579-4.586 8.655-.008.015-.015.03-.015.045-1.788-5.587-4.594-10.488-8.5-14.521-4.36-4.517-9.715-7.902-15.9-10.074-4.902-1.704-10.076-2.57-15.409-2.57-.92 0-1.855.03-2.79.082-.755.008-1.562.038-2.414.098-.385.03-.611.038-.822.038-.174 0-.355 0-.536.007-2.956.106-6.132.287-9.533.536-4.435.331-8.734 1.176-12.807 2.51a39.958 39.958 0 0 0-6.826 2.979c-.407-.347-.77-.74-1.214-1.056-3.093-2.217-6.69-3.68-10.696-4.343-2.02-.332-4.17-.618-6.41-.844l-.536-.046c-.407-.06-.822-.105-1.23-.135L92.907.187a73.68 73.68 0 0 0-5.242-.18c-12.731 0-24.392 3.181-34.657 9.462-9.94 6.085-18.222 14.514-24.626 25.07a12.09 12.09 0 0 0-.309.528 101.432 101.432 0 0 0-6.245 13.662c-1.788 4.803-3.198 9.614-4.201 14.31-1.252 5.8-1.946 11.62-2.052 17.275-.12 5.896.377 11.476 1.479 16.603 1.169 5.474 3.04 10.518 5.55 14.981.061.121.16.204.22.317-2.21 1.207-4.006 2.586-5.242 3.906-3.281 3.49-5.521 7.924-6.645 13.18L.942 176.395c-.49 2.005-.8 3.98-.905 5.866-.204 3.506.407 6.831 1.81 9.877 1.712 3.717 4.578 6.763 8.29 8.807 3.144 1.741 6.825 2.593 11.207 2.593 3.854 0 7.203-.573 10.228-1.756.286-.106.52-.294.792-.408 2.813 1.275 5.92 2.074 9.345 2.074 5.573 0 10.853-1.651 15.25-4.78.211-.151.415-.302.619-.453 2.594 2.307 5.86 3.913 9.533 4.577 2.33.43 4.82.656 7.362.656 4.155 0 7.889-.86 11.102-2.556a22.123 22.123 0 0 0 4.684-3.348 19.997 19.997 0 0 0 4.88 3.514c3.054 1.59 6.652 2.39 10.914 2.39 3.53 0 6.788-.58 9.699-1.727 3.168-1.251 5.92-3.083 8.206-5.451 2.263 2.36 5.92 5.067 11.69 6.273 2.882.603 6.299.905 10.417.905h3.62c.883 0 1.788.015 2.7.038.49.015.988.022 1.494.022.844 0 1.704-.022 2.594-.06h.453c1.614 0 3.198-.06 4.736-.189 2.339-.18 4.594-.791 6.774-1.643 2.323.965 5.076 1.666 8.462 1.817l1.056.023c4.51 0 8.787-1.003 12.709-2.971.211-.106.43-.219.641-.332 3.371 2.202 7.361 3.385 11.6 3.385 1.788 0 3.658-.218 5.551-.656 1.403-.324 2.7-.708 3.892-1.138.506-.189.868-.468 1.343-.671 2.994 1.508 6.396 2.375 10.114 2.375 5.581 0 10.854-1.651 15.258-4.78.211-.151.415-.302.619-.453 2.587 2.307 5.853 3.913 9.533 4.577 2.33.43 4.82.656 7.354.656 3.892 0 7.377-.822 10.454-2.315.422.174.762.438 1.2.588 2.775.965 5.814 1.576 8.967 1.787 2.21.144 4.133.211 5.808.211 4.668 0 9.262-.912 13.644-2.714 1.576-.648 3.07-1.448 4.54-2.27 2.957 2.383 7.226 4.336 13.38 4.607.408.023 1.056.046 1.682.046 6.962 0 11.797-2.406 14.814-4.675.935.769 1.946 1.455 3.024 2.058 2.896 1.614 6.298 2.511 10.122 2.662.43.023.89.03 1.343.03 3.642 0 6.999-.686 10.091-1.923 2.806 1.244 5.921 1.998 9.632 1.998 3.854 0 7.203-.573 10.227-1.756.098-.038.166-.09.257-.129 2.406 1.041 5.294 1.81 8.87 1.96l1.04.016c5.031 0 9.624-1.206 13.667-3.59 3.824-2.276 8.734-6.74 10.552-15.2.241-1.146.52-2.405.86-3.867.128-.55.256-1.101.377-1.652.58-.135 1.169-.271 1.75-.43 4.306-1.123 8.447-2.94 12.316-5.398 3.93-2.496 7.513-5.73 10.635-9.613 3.22-4.02 5.755-8.83 7.52-14.304.053-.166.106-.331.15-.497 1.864-6.53 1.72-12.75-.422-18.473" fill="#1D1C1B" mask="url(#b)"/></g><path d="M42.43 112.116c-2.685-1.818-4.903-4.313-6.675-7.465-1.773-3.16-3.085-6.748-3.945-10.767-.867-4.019-1.245-8.4-1.154-13.134.09-4.735.671-9.546 1.727-14.424.852-4.019 2.052-8.083 3.583-12.207a87.06 87.06 0 0 1 5.317-11.627C46.45 33.98 52.99 27.3 60.878 22.474c7.905-4.833 16.827-7.254 26.783-7.254 1.44 0 2.798.046 4.096.144 1.29.098 2.655.188 4.095.294.287.09.71.135 1.29.135 1.908.196 3.733.43 5.453.717 1.727.286 3.183.867 4.382 1.726 1.192.86 1.984 2.111 2.369 3.733.384 1.628.098 3.822-.86 6.597-.86 2.684-1.991 4.72-3.372 6.107-1.395 1.388-2.904 2.368-4.525 2.94-1.63.574-3.281.86-4.955.86-1.675 0-3.229-.045-4.67-.135a1.51 1.51 0 0 1-.505-.083 1.201 1.201 0 0 0-.354-.068 99.898 99.898 0 0 0-3.017-.219 60.905 60.905 0 0 0-2.874-.068c-4.495 0-8.523.77-12.06 2.3-3.545 1.53-6.222 4.539-8.04 9.04a168.697 168.697 0 0 0-3.017 8.61 85.64 85.64 0 0 0-2.58 10.052 81.087 81.087 0 0 0-1.44 9.402c-.287 3.114-.166 5.934.362 8.467.52 2.534 1.508 4.69 2.941 6.462 1.434 1.772 3.538 2.94 6.321 3.513h-.143a37.762 37.762 0 0 0 6.456.573c1.342 0 2.798-.067 4.382-.21 1.576-.144 3.085-.31 4.525-.506.95-.188 1.863-.332 2.73-.43.86-.09 1.766-.143 2.724-.143 1.433 0 2.677.264 3.733.792s1.818 1.455 2.3 2.805c.476 1.138.762 2.337.86 3.581.09 1.244.046 2.443-.143 3.59-.483 1.914-1.539 3.731-3.16 5.45-1.63 1.727-4.164 3.016-7.61 3.884a87.12 87.12 0 0 1-9.836 2.005 66.046 66.046 0 0 1-9.548.716c-4.118 0-7.995-.452-11.63-1.364-3.644-.905-6.94-2.368-9.911-4.373M141.079 58.859c3.643.098 6.418-.792 8.334-2.654 1.908-1.87 3.349-4.426 4.307-7.676.852-3.159.784-5.82-.22-7.97-1.002-2.156-3.227-3.422-6.682-3.807-1.72-.09-3.054.053-4.012.43-.966.384-1.727.935-2.3 1.651-.574.724-.981 1.583-1.223 2.586a87.736 87.736 0 0 0-.648 2.94c-.189.77-.355 1.464-.498 2.082a32.15 32.15 0 0 1-.505 1.938c-.09.573-.211 1.198-.355 1.862-.15.67-.264 1.35-.362 2.013-.483 1.629-.596 3.114-.362 4.449.242 1.342 1.75 2.066 4.526 2.156zM115.947 30.29c.868-3.25 2.444-5.813 4.737-7.675 2.308-1.87 4.91-3.273 7.829-4.23a38.736 38.736 0 0 1 9.194-1.802c3.206-.234 6.192-.4 8.976-.505.573 0 1.191-.015 1.863-.068.67-.046 1.29-.068 1.87-.068 4.495-.287 8.734.264 12.709 1.644 3.967 1.394 7.316 3.498 10.046 6.318 2.73 2.827 4.594 6.371 5.597 10.624 1.01 4.26.845 9.16-.498 14.71-1.343 5.745-3.349 10.775-6.034 15.08-2.677 4.298-6.313 8.18-10.914 11.626.581 3.733 1.034 6.84 1.365 9.327.34 2.488.596 4.577.792 6.243.197 1.674.355 3.039.506 4.087.143 1.063.264 2.066.362 3.023l.136-.143.15 2.15v-.144c.181 1.153.355 2.292.498 3.446.144 1.146.076 2.344-.211 3.589-.287 1.628-1.131 3.204-2.52 4.735-1.387 1.538-3.469 2.827-6.244 3.875a29.233 29.233 0 0 1-3.447 1.01c-1.245.287-2.391.43-3.447.43-2.776 0-5.023-.89-6.743-2.661-1.727-1.765-2.881-4.713-3.447-8.83a118.12 118.12 0 0 0-.573-4.086 281.078 281.078 0 0 1-.867-6.175c-.287-2.24-.641-4.57-1.079-6.96-.43-2.39-.837-4.637-1.214-6.748-.098-.573-.506-1.003-1.222-1.29-.724-.286-1.946-.437-3.658-.437.18.196.234.536.136 1.01-.385 2.3-.936 5.218-1.645 8.762-.716 3.536-1.365 6.74-1.938 9.614a47.32 47.32 0 0 0-.935 4.094c-.242 1.289-.55 2.465-.935 3.513-.958 3.733-2.972 6.364-6.034 7.895-3.063 1.53-6.411 2.246-10.047 2.156-4.405-.196-7.203-1.342-8.402-3.453-1.2-2.096-1.463-4.735-.792-7.895.671-2.865 1.486-6.672 2.444-11.407.95-4.736 1.991-9.855 3.085-15.36 1.1-5.503 2.247-11.03 3.446-16.58 1.2-5.549 2.278-10.578 3.236-15.072.95-4.501 1.765-8.324 2.436-11.483.672-3.16 1.147-5.172 1.433-6.024v.135zM211.578 75.079c2.874 0 5.046-.023 6.532-.068a41.165 41.165 0 0 1 4.238.068c.189-1.727.287-3.928.287-6.598 0-2.684-.053-5.262-.143-7.758-.098-2.48-.196-4.637-.287-6.454-.098-1.817-.188-2.73-.287-2.73.099 0-.316.913-1.221 2.73-.913 1.817-1.939 3.996-3.093 6.53-1.139 2.533-2.315 5.119-3.515 7.75-1.199 2.632-2.028 4.803-2.511 6.53m33.458-40.625c.573 8.806 1.101 16.7 1.584 23.683.467 6.99.86 13.406 1.139 19.234.286 5.843.528 11.227.724 16.15.188 4.932.332 9.697.43 14.281-.287 2.013-.868 3.664-1.72 4.954a9.446 9.446 0 0 1-3.379 3.091 13.237 13.237 0 0 1-4.45 1.508 18.018 18.018 0 0 1-4.812.068c-3.447.196-6.245-.648-8.395-2.51-2.157-1.87-3.183-4.804-3.092-8.83.09-2.013.075-3.92-.068-5.745-.15-1.818-.649-3.197-1.508-4.155-2.686-.58-5.604-.769-8.757-.58-3.16.195-6.275.339-9.338.43l.287-.136c-.287.475-1.169 1.749-2.655 3.8a34.487 34.487 0 0 0-3.665 6.386c-1.532 4.026-3.711 6.96-6.532 8.83-2.829 1.862-5.868 2.706-9.119 2.51-3.733.671-6.63.264-8.689-1.222-2.059-1.477-2.655-4.327-1.795-8.535.287-1.244.747-2.556 1.365-3.95.626-1.38 1.509-3.182 2.655-5.384A777.53 777.53 0 0 1 190.4 66.679c5.31-10.48 10.56-21.217 15.718-32.225a112.423 112.423 0 0 1 4.02-7.6c1.35-2.308 2.881-4.26 4.601-5.889 1.727-1.629 3.779-2.873 6.177-3.732 2.391-.867 5.257-1.29 8.614-1.29 3.25 0 5.868.377 7.829 1.139 1.953.777 3.484 1.892 4.593 3.378 1.094 1.485 1.84 3.4 2.225 5.745.377 2.345.664 5.09.86 8.249M300.171 96.468c1.916 0 3.711.045 5.386.143 1.674.098 3.107.43 4.306 1.01 1.2.574 2.014 1.478 2.444 2.723.43 1.244.4 3.016-.068 5.315-.58 2.579-1.418 4.615-2.519 6.092-1.101 1.486-2.39 2.617-3.877 3.378a14.87 14.87 0 0 1-4.736 1.508 59.544 59.544 0 0 1-5.099.505 7.09 7.09 0 0 0-.935.068 5.043 5.043 0 0 1-.785.068c-2.587 0-5.34.03-8.259.076-2.926.045-5.724.067-8.402.067h-12.49c-2.964 0-5.197-.52-6.675-1.575-1.486-1.04-2.489-2.285-3.017-3.718-.528-1.44-.716-2.94-.58-4.516.15-1.576.309-2.888.505-3.943.294-1.244 1.244-3.22 2.873-5.942 1.622-2.722 4.02-6.379 7.18-10.963 3.153-4.592 7.15-10.201 11.993-16.836 4.827-6.643 10.552-14.402 17.159-23.291l3.87-5.73c.678-.853 1.085-1.403 1.221-1.644.15-.241.219-.453.219-.649.196-.761-.649-1.214-2.512-1.357-1.87-.143-4.043-.218-6.532-.218-2.202 0-4.404-.046-6.607-.144-2.202-.098-4.118-.43-5.747-1.01-1.63-.573-2.843-1.538-3.658-2.888-.815-1.35-.988-3.28-.505-5.783.58-2.503 1.365-4.479 2.368-5.926 1.01-1.448 2.202-2.556 3.59-3.325a13.432 13.432 0 0 1 4.45-1.523 32.972 32.972 0 0 1 4.82-.362h3.01c3.635 0 7.277-.015 10.913-.068 3.635-.046 6.939-.068 9.903-.068h8.764c2.776 0 4.827.55 6.177 1.644 1.335 1.108 2.248 2.42 2.723 3.95.483 1.539.672 3.092.574 4.668-.091 1.576-.242 2.797-.423 3.664-.196 1.139-1.154 3.227-2.874 6.243-1.727 3.009-3.831 6.334-6.32 9.975v-.15c-3.635 5.655-8.018 11.943-13.139 18.88a3213.055 3213.055 0 0 1-15.44 20.742l.152-.143c-1.63 2.201-2.851 3.898-3.666 5.097-.814 1.198-1.418 2.11-1.795 2.729-.385.626-.626 1.048-.716 1.29-.098.24-.197.452-.287.648-.098.67 1.003 1.048 3.304 1.146 2.292.098 5.166.143 8.613.143h1.146zM405.283 15.94c3.733.483 6.079 1.554 7.037 3.227.95 1.682 1.244 3.522.86 5.527-.287 1.154-.815 2.466-1.584 3.951-.762 1.485-1.532 2.752-2.293 3.8-2.972 4.502-6.2 9.425-9.692 14.786a688.323 688.323 0 0 1-10.198 15.215 2665.755 2665.755 0 0 1-8.756 12.63c-2.542 3.642-4.239 5.987-5.099 7.035-.196.867-.415 1.749-.649 2.661-.233.905-.573 2.104-1.003 3.582-.43 1.492-.912 3.355-1.433 5.602-.528 2.247-1.131 5.097-1.795 8.542a68.625 68.625 0 0 1-1.66 5.806c-.618 1.87-1.523 3.476-2.722 4.818-1.2 1.335-2.753 2.413-4.669 3.227-1.915.815-4.216 1.169-6.893 1.078-2.776-.098-4.858-.505-6.245-1.221-1.388-.716-2.346-1.704-2.874-2.948-.528-1.237-.694-2.67-.498-4.305a65.66 65.66 0 0 1 .86-5.308 601.713 601.713 0 0 1 1.508-7.103c.43-1.96.792-3.762 1.079-5.384.287-1.628.573-3.136.86-4.524.286-1.387.618-2.895 1.01-4.523-1.538-5.836-3.07-11.672-4.6-17.508a6172.47 6172.47 0 0 1-4.307-16.075 490.035 490.035 0 0 1-4.02-16.083 74.044 74.044 0 0 1-.58-3.8c-.19-1.485-.137-2.797.15-3.95.377-2.006 1.433-3.846 3.16-5.528 1.72-1.673 4.54-2.744 8.47-3.227 4.782-.482 8.47.196 11.057 2.006 2.58 1.817 3.968 5.03 4.164 9.62v-.286c.188 1.056.4 2.202.64 3.446.242 1.244.529 2.85.868 4.803.332 1.96.785 4.501 1.358 7.615.58 3.107 1.297 7.05 2.157 11.838 2.104-3.544 3.877-6.53 5.31-8.973 1.44-2.435 2.73-4.637 3.884-6.597a246.21 246.21 0 0 1 3.447-5.745c1.146-1.87 2.391-3.996 3.733-6.387v.287c2.007-4.592 4.707-7.804 8.109-9.621 3.394-1.81 7.346-2.488 11.849-2.006M21.347 188.595c-1.75 0-3.062-.241-3.937-.724-.875-.482-1.493-1.116-1.855-1.9-.362-.784-.513-1.689-.453-2.714.06-1.026.241-2.141.543-3.348l10.047-47.32c.543-2.534 1.508-4.54 2.896-6.017 1.388-1.478 3.74-2.157 7.06-2.036 1.629.06 2.91.317 3.846.77.935.452 1.614 1.07 2.037 1.854.422.784.633 1.689.633 2.714 0 1.026-.12 2.112-.362 3.258a34349.042 34349.042 0 0 1-7.286 33.839c-.754 3.498-1.327 6.182-1.72 8.052-.392 1.87-.708 3.258-.95 4.162a28.34 28.34 0 0 1-.95 3.665c-.392 1.176-.98 2.186-1.765 3.03-.785.845-1.795 1.509-3.032 1.991-1.237.483-2.821.724-4.752.724M88.05 124.535c1.509.06 2.64.317 3.394.77.755.452 1.283 1.025 1.584 1.718.302.694.438 1.463.408 2.308-.03.844-.136 1.689-.317 2.533-.06.06-.211.664-.453 1.81a295.534 295.534 0 0 0-.905 4.524c-.362 1.87-.8 4.026-1.312 6.469-.513 2.443-1.041 4.991-1.584 7.645a623.33 623.33 0 0 0-1.765 8.008 1816.545 1816.545 0 0 1-3.032 13.933c-.422 1.9-.724 3.363-.905 4.389l-.272 1.085c-.18.966-.407 1.96-.678 2.986a9.688 9.688 0 0 1-1.267 2.85c-.574.875-1.373 1.584-2.399 2.127-1.026.542-2.383.814-4.073.814a25.78 25.78 0 0 1-4.661-.407c-1.478-.272-2.489-1.01-3.032-2.217a144.833 144.833 0 0 0-2.49-5.112c-.995-1.96-2.02-3.996-3.076-6.107a175.612 175.612 0 0 1-3.032-6.38 79.146 79.146 0 0 1-2.444-6.016c-.483 2.292-.905 4.283-1.267 5.972a266.918 266.918 0 0 1-.996 4.478 141.646 141.646 0 0 0-.77 3.484 73.032 73.032 0 0 1-.678 2.986c-.664 3.558-1.93 6.001-3.801 7.328-1.87 1.327-4.043 1.99-6.517 1.99-2.534 0-4.284-.829-5.25-2.487-.965-1.66-1.176-3.725-.633-6.198l9.956-46.868c.181-.905.392-1.81.634-2.715a8.692 8.692 0 0 1 1.13-2.533c.514-.784 1.223-1.463 2.128-2.036s2.112-.95 3.62-1.13c2.474-.242 4.616-.182 6.426.18 1.81.362 2.987 1.267 3.53 2.715a96.833 96.833 0 0 0 4.797 10.993c1.81 3.529 3.56 7.283 5.25 11.264l3.62-17.01c.543-2.593 1.508-4.614 2.896-6.062 1.388-1.447 3.741-2.141 7.06-2.08h.271c.242-.061.408-.076.498-.046.09.03.226.045.407.045M132.487 124.535c1.086 0 2.112.046 3.077.136.966.09 1.81.347 2.535.77.724.421 1.252 1.04 1.583 1.854.332.814.347 1.975.046 3.483-.483 2.172-1.463 3.966-2.942 5.384-1.478 1.417-3.273 2.156-5.385 2.217-1.388 0-2.52.12-3.394.362-.875.24-1.6.603-2.172 1.085a4.85 4.85 0 0 0-1.313 1.72 8.252 8.252 0 0 0-.633 2.17l-7.603 35.559a14.81 14.81 0 0 1-1.177 3.71c-.543 1.146-1.206 2.126-1.99 2.94-.785.815-1.75 1.448-2.897 1.9-1.146.453-2.534.679-4.163.679-1.75 0-3.093-.241-4.028-.724-.935-.483-1.599-1.116-1.991-1.9-.392-.784-.543-1.689-.453-2.714.09-1.026.257-2.142.498-3.348l6.879-32.21.905-4.253c.12-.784.18-1.493.18-2.126 0-.634-.165-1.161-.497-1.584-.332-.422-.86-.739-1.584-.95-.724-.21-1.72-.316-2.987-.316-2.715 0-4.48-.86-5.294-2.58-.815-1.718-.71-3.814.316-6.287v.09c.423-1.206.98-2.141 1.675-2.805.694-.663 1.433-1.16 2.217-1.493a8.684 8.684 0 0 1 2.534-.633 26.4 26.4 0 0 1 2.625-.136h25.433zM161.364 175.293c.965 0 1.885.015 2.76.045.875.03 1.63.227 2.263.589.634.361 1.086.95 1.358 1.764.271.814.286 1.945.045 3.393-.302 1.81-.815 3.212-1.539 4.207-.724.995-1.584 1.734-2.58 2.217a8.905 8.905 0 0 1-3.212.86c-1.147.09-2.323.135-3.53.135h-.815c-1.146.06-2.247.076-3.303.045a109.38 109.38 0 0 0-3.123-.045h-3.62c-3.017 0-5.46-.196-7.331-.588-1.87-.392-3.259-1.116-4.164-2.171-.905-1.056-1.403-2.474-1.493-4.253-.09-1.78.105-4.026.588-6.74.12-.845.362-2.142.724-3.891.362-1.75.724-3.529 1.086-5.339.483-2.11.98-4.373 1.494-6.785.513-2.413 1.04-4.81 1.584-7.193a375.92 375.92 0 0 0 1.493-6.832c.453-2.171.86-4.071 1.222-5.7l.996-4.705c.422-2.11 1.04-3.815 1.855-5.112.814-1.297 1.855-2.292 3.122-2.986 1.268-.693 2.806-1.16 4.616-1.402 1.81-.241 3.953-.362 6.426-.362h2.897c1.026 0 2.142.03 3.349.09 1.025.06 2.127.091 3.303.091h3.575c.543.12.875.181.996.181.905.12 1.765.241 2.58.362.814.12 1.523.392 2.126.814.604.422 1.026 1.01 1.267 1.765.242.754.212 1.824-.09 3.212-.302 1.387-.679 2.563-1.131 3.528-.453.965-1.056 1.75-1.81 2.353-.755.603-1.705 1.025-2.852 1.266-1.146.242-2.534.362-4.163.362-1.147 0-2.368.015-3.666.046-1.297.03-2.534.24-3.71.633a7.903 7.903 0 0 0-3.123 1.945c-.905.905-1.509 2.202-1.81 3.89-.302 1.509-.302 2.655 0 3.439.301.784.77 1.357 1.403 1.72.633.361 1.448.572 2.443.632.996.06 2.067.09 3.213.09h1.087c2.232 0 3.786.634 4.66 1.901.876 1.267 1.102 2.956.68 5.067-.604 2.594-1.615 4.448-3.032 5.564-1.418 1.116-3.334 1.674-5.748 1.674-1.508 0-2.836.03-3.982.09-1.147.06-2.142.257-2.987.589a4.418 4.418 0 0 0-2.036 1.583c-.513.724-.92 1.72-1.222 2.986-.242 1.267-.242 2.247 0 2.94.241.694.648 1.192 1.222 1.493.573.302 1.267.468 2.081.498.815.03 1.675.045 2.58.045h4.978zM197.746 151.588c2.293.06 4.043-.498 5.25-1.674 1.206-1.176 2.111-2.79 2.715-4.84.543-1.991.497-3.665-.136-5.022-.634-1.357-2.037-2.157-4.209-2.398-1.086-.06-1.93.03-2.534.271-.603.242-1.086.589-1.448 1.041-.362.452-.619.995-.77 1.629-.15.633-.286 1.251-.407 1.854-.12.483-.226.92-.316 1.312-.091.392-.197.8-.317 1.222-.06.362-.136.754-.227 1.176-.09.422-.165.844-.226 1.267-.302 1.025-.377 1.96-.226 2.805.15.844 1.101 1.296 2.85 1.357zm-15.84-18.006c.544-2.05 1.54-3.664 2.988-4.84a15.31 15.31 0 0 1 4.932-2.67c1.84-.602 3.772-.98 5.793-1.13 2.021-.151 3.907-.257 5.657-.317.362 0 .754-.015 1.176-.045.423-.03.815-.045 1.177-.045 2.836-.181 5.506.165 8.01 1.04 2.504.875 4.616 2.202 6.336 3.981 1.72 1.78 2.896 4.011 3.53 6.696.633 2.684.527 5.775-.317 9.274-.845 3.619-2.112 6.786-3.802 9.5-1.69 2.714-3.982 5.157-6.878 7.329.362 2.352.648 4.313.86 5.88.21 1.57.377 2.881.497 3.937.12 1.055.227 1.915.317 2.578.09.664.166 1.297.226 1.9l.09-.09.091 1.357v-.09c.121.723.227 1.447.317 2.171.09.724.045 1.478-.136 2.262-.18 1.026-.709 2.02-1.584 2.986-.874.965-2.187 1.78-3.937 2.443a18.61 18.61 0 0 1-2.172.633 9.713 9.713 0 0 1-2.172.272c-1.75 0-3.168-.558-4.254-1.674-1.086-1.116-1.81-2.971-2.172-5.565a69.402 69.402 0 0 0-.362-2.578 153.904 153.904 0 0 1-.543-3.89 86.91 86.91 0 0 0-.68-4.39c-.27-1.507-.527-2.925-.768-4.252-.06-.362-.317-.633-.77-.814-.452-.18-1.222-.271-2.308-.271.121.12.151.331.09.633a167.062 167.062 0 0 1-1.04 5.52c-.453 2.231-.86 4.252-1.222 6.061a34.214 34.214 0 0 0-.588 2.579 13.9 13.9 0 0 1-.589 2.217c-.603 2.352-1.87 4.01-3.8 4.976-1.932.965-4.044 1.417-6.336 1.357-2.776-.12-4.541-.844-5.295-2.171-.754-1.327-.92-2.986-.498-4.977.422-1.81.935-4.207 1.539-7.193.603-2.986 1.252-6.213 1.946-9.681a717.362 717.362 0 0 1 2.172-10.45c.754-3.499 1.433-6.666 2.036-9.5.604-2.836 1.116-5.248 1.539-7.239.422-1.99.724-3.257.905-3.8v.09zM270.15 124.535c1.508.06 2.64.317 3.394.77.754.452 1.282 1.025 1.584 1.718.301.694.437 1.463.407 2.308-.03.844-.136 1.689-.317 2.533-.06.06-.211.664-.452 1.81a295.535 295.535 0 0 0-.905 4.524c-.362 1.87-.8 4.026-1.313 6.469a1528.99 1528.99 0 0 0-1.584 7.645 623.322 623.322 0 0 0-1.765 8.008 1816.38 1816.38 0 0 1-3.032 13.933c-.422 1.9-.724 3.363-.905 4.389l-.271 1.085c-.181.966-.408 1.96-.68 2.986a9.687 9.687 0 0 1-1.266 2.85c-.573.875-1.373 1.584-2.399 2.127-1.025.542-2.383.814-4.073.814a25.78 25.78 0 0 1-4.66-.407c-1.48-.272-2.49-1.01-3.033-2.217a144.83 144.83 0 0 0-2.489-5.112c-.995-1.96-2.021-3.996-3.077-6.107a175.612 175.612 0 0 1-3.032-6.38 79.147 79.147 0 0 1-2.444-6.016c-.483 2.292-.905 4.283-1.267 5.972a266.919 266.919 0 0 1-.996 4.478 141.644 141.644 0 0 0-.769 3.484 73.033 73.033 0 0 1-.679 2.986c-.663 3.558-1.93 6.001-3.801 7.328-1.87 1.327-4.043 1.99-6.517 1.99-2.534 0-4.284-.829-5.25-2.487-.965-1.66-1.176-3.725-.633-6.198l9.956-46.868c.181-.905.392-1.81.634-2.715a8.692 8.692 0 0 1 1.131-2.533c.513-.784 1.222-1.463 2.127-2.036.905-.573 2.112-.95 3.62-1.13 2.474-.242 4.616-.182 6.427.18 1.81.362 2.986 1.267 3.53 2.715a96.833 96.833 0 0 0 4.796 10.993c1.81 3.529 3.56 7.283 5.25 11.264l3.62-17.01c.543-2.593 1.509-4.614 2.896-6.062 1.388-1.447 3.741-2.141 7.06-2.08h.272c.241-.061.407-.076.497-.046.09.03.227.045.408.045M306.444 169.502c-.543 2.533-1.56 4.976-3.032 7.329a25.2 25.2 0 0 1-5.43 6.152 27.874 27.874 0 0 1-7.06 4.207 20.62 20.62 0 0 1-7.92 1.584c-1.387 0-2.986-.06-4.796-.181-1.81-.12-3.5-.453-5.069-.995-1.576-.543-2.828-1.343-3.756-2.398-.943-1.056-1.192-2.518-.77-4.388.242-1.207.634-2.187 1.177-2.94a6.331 6.331 0 0 1 1.992-1.81 8.253 8.253 0 0 1 2.624-.95 16.12 16.12 0 0 1 2.987-.272c.845 0 1.614.03 2.308.09l2.037.181c1.086.181 2.02.272 2.805.272.543 0 1.147-.075 1.81-.226a7.072 7.072 0 0 0 1.946-.77c.634-.361 1.185-.889 1.675-1.583.483-.693.845-1.583 1.086-2.669a6.445 6.445 0 0 0-.181-3.03 11.373 11.373 0 0 0-1.403-2.941 17.769 17.769 0 0 0-2.308-2.805c-.905-.905-1.81-1.78-2.715-2.624a172.912 172.912 0 0 1-3.259-3.348 21.496 21.496 0 0 1-2.805-3.664 13.856 13.856 0 0 1-1.675-4.162c-.332-1.478-.316-3.062.046-4.75.724-3.378 1.93-6.228 3.62-8.55 1.69-2.323 3.696-4.208 6.019-5.656 2.315-1.447 4.917-2.503 7.783-3.166a38.95 38.95 0 0 1 8.825-.996c.241 0 .46-.015.679-.045.211-.03.467-.045.77-.045h2.533c1.207 0 2.444.09 3.711.271 1.267.181 2.361.543 3.304 1.086.928.543 1.644 1.327 2.127 2.352.482 1.026.543 2.383.18 4.072-.361 1.568-.95 2.76-1.764 3.574a6.753 6.753 0 0 1-2.896 1.72 13.492 13.492 0 0 1-3.53.542c-1.237.03-2.436.045-3.575.045h-2.354c-1.025 0-2.051.015-3.077.045a12.66 12.66 0 0 0-2.896.408c-.905.24-1.675.618-2.308 1.13-.634.513-1.04 1.192-1.222 2.036-.181.784-.068 1.584.362 2.398a8.539 8.539 0 0 0 1.539 2.126 79.087 79.087 0 0 1 5.294 5.248c1.66 1.81 3.048 3.695 4.164 5.655 1.116 1.96 1.916 3.981 2.398 6.062.476 2.081.476 4.207 0 6.379M315.22 188.411c-2.715-.12-4.495-.83-5.34-2.126-.845-1.297-1.026-3.091-.543-5.384l10.318-48.587c.603-2.774 1.704-4.795 3.303-6.062 1.6-1.267 3.937-1.84 7.015-1.719 2.594.12 4.33.83 5.204 2.126.875 1.297 1.101 3.092.679 5.384l-2.534 11.943a36.357 36.357 0 0 0-.408 2.67c-.09.813.015 1.537.317 2.17.302.634.875 1.147 1.72 1.539.844.392 2.112.588 3.801.588 1.69 0 3.032-.166 4.028-.498.995-.331 1.795-.83 2.398-1.493.604-.663 1.041-1.462 1.313-2.397.271-.935.558-1.998.86-3.212l1.99-9.5a39.694 39.694 0 0 1 1.041-3.755 8.26 8.26 0 0 1 1.765-3.032c.785-.844 1.795-1.492 3.032-1.945 1.237-.452 2.821-.64 4.752-.588 1.69.12 2.987.437 3.892.95.905.513 1.524 1.176 1.855 1.99.332.815.468 1.735.408 2.76a20.011 20.011 0 0 1-.453 3.167l-10.046 47.32c-.604 2.775-1.84 4.796-3.711 6.063-1.87 1.266-4.224 1.84-7.06 1.719-1.448-.06-2.58-.317-3.394-.77-.814-.452-1.388-1.04-1.72-1.764-.331-.724-.512-1.538-.543-2.443-.03-.905.076-1.87.317-2.895.242-1.086.438-2.036.588-2.85.151-.814.302-1.614.453-2.398a129.328 129.328 0 0 1 1.131-5.248c.242-1.198.242-2.14 0-2.804a2.697 2.697 0 0 0-1.267-1.493c-.603-.332-1.357-.543-2.262-.634-.906-.09-1.871-.135-2.897-.135-2.051-.06-3.71.301-4.978 1.085-1.267.784-2.081 2.112-2.443 3.981l-2.263 10.315c-.543 2.714-1.644 4.765-3.304 6.153-1.659 1.387-3.997 1.99-7.014 1.81M365.273 188.595c-1.75 0-3.062-.241-3.937-.724-.875-.482-1.493-1.116-1.855-1.9-.362-.784-.513-1.689-.453-2.714.06-1.026.242-2.141.543-3.348l10.047-47.32c.543-2.534 1.508-4.54 2.896-6.017 1.388-1.478 3.741-2.157 7.06-2.036 1.629.06 2.911.317 3.846.77.936.452 1.614 1.07 2.037 1.854.422.784.633 1.689.633 2.714 0 1.026-.12 2.112-.362 3.258a34354.659 34354.659 0 0 1-7.286 33.839c-.754 3.498-1.327 6.182-1.72 8.052-.392 1.87-.708 3.258-.95 4.162a28.34 28.34 0 0 1-.95 3.665c-.392 1.176-.98 2.186-1.765 3.03-.784.845-1.795 1.509-3.032 1.991-1.237.483-2.82.724-4.752.724M402.923 145.163v.181l-.09.18.09-.361zm.633-2.262c-.12.422-.226.86-.317 1.312-.09.452-.196.83-.316 1.131-.06.422-.121.814-.181 1.176s-.151.754-.272 1.176l-.18 1.448c-.061.483-.031.92.09 1.312.12.392.422.709.905.95.482.241 1.176.362 2.081.362 2.293.06 4.043-.483 5.25-1.629 1.207-1.146 2.051-2.684 2.534-4.614.543-1.93.513-3.574-.09-4.931-.604-1.357-2.022-2.096-4.254-2.217-1.086-.06-1.931.015-2.535.226-.603.211-1.086.528-1.448.95a4.169 4.169 0 0 0-.814 1.538 19.823 19.823 0 0 0-.453 1.81zm25.433 2.172c-1.207 3.74-2.851 6.906-4.933 9.5-2.081 2.594-4.404 4.705-6.969 6.333-2.564 1.629-5.234 2.805-8.01 3.529-2.775.724-5.4 1.086-7.874 1.086h-1.312c-.393 0-.77-.03-1.132-.09-.18.844-.422 1.945-.724 3.302a714.605 714.605 0 0 0-.95 4.343 332.268 332.268 0 0 1-1.041 4.66 220.144 220.144 0 0 0-.905 4.07c-.543 2.534-1.705 4.329-3.485 5.384-1.78 1.056-3.907 1.554-6.38 1.493-2.836-.12-4.647-.874-5.431-2.262-.784-1.387-.965-3.136-.543-5.247l6.698-31.487c.422-1.99.814-3.89 1.176-5.7s.71-3.454 1.041-4.931c.332-1.478.618-2.715.86-3.71.241-.995.392-1.674.452-2.036.543-1.99 1.494-3.543 2.851-4.66a15.046 15.046 0 0 1 4.616-2.578c1.72-.603 3.53-.995 5.43-1.176 1.901-.181 3.666-.332 5.296-.453 2.835-.18 5.732.151 8.688.996 2.957.844 5.536 2.156 7.739 3.935a15.317 15.317 0 0 1 4.797 6.65c.995 2.655 1.01 5.67.045 9.049z" fill="#FEFEFE"/></g></svg>