<?xml version="1.0" encoding="UTF-8" standalone="no"?>
<svg width="20px" height="20px" viewBox="0 0 20 20" version="1.1" xmlns="http://www.w3.org/2000/svg" xmlns:xlink="http://www.w3.org/1999/xlink">
    <!-- Generator: sketchtool 42 (36781) - http://www.bohemiancoding.com/sketch -->
    <title>116D774B-29CD-48DE-963F-61E9B3D315C8</title>
    <desc>Created with sketchtool.</desc>
    <defs></defs>
    <g id="Page-1" stroke="none" stroke-width="1" fill="none" fill-rule="evenodd">
        <g id="Artboard-6" transform="translate(-66.000000, -84.000000)" fill="#FF5D5D">
            <path d="M78.0621664,96.030026 L78.0621664,102.475276 C78.0621664,103.457325 77.2535809,104.253276 76.2559442,104.253276 C75.2583075,104.253276 74.449722,103.457325 74.449722,102.475276 L74.449722,96.030026 L67.9021665,96.030026 C66.9045298,96.030026 66.0959443,95.2340747 66.0959443,94.252026 C66.0959443,93.2699774 66.9045298,92.474026 67.9021665,92.474026 L74.449722,92.474026 L74.449722,86.0287761 C74.449722,85.0467275 75.2583075,84.2507762 76.2559442,84.2507762 C77.2535809,84.2507762 78.0621664,85.0467275 78.0621664,86.0287761 L78.0621664,92.474026 L84.6097218,92.474026 C85.6073586,92.474026 86.415944,93.2699774 86.415944,94.252026 C86.415944,95.2340747 85.6073586,96.030026 84.6097218,96.030026 L78.0621664,96.030026 Z" id="Page-1" transform="translate(76.255944, 94.252026) rotate(44.000000) translate(-76.255944, -94.252026) "></path>
        </g>
    </g>
</svg>