<?xml version="1.0" encoding="UTF-8" standalone="no"?>
<svg width="20px" height="20px" viewBox="0 0 20 20" version="1.1" xmlns="http://www.w3.org/2000/svg" xmlns:xlink="http://www.w3.org/1999/xlink">
    <!-- Generator: sketchtool 42 (36781) - http://www.bohemiancoding.com/sketch -->
    <title>A52223E0-6A2F-4F48-93AD-92BA7D64F1E6</title>
    <desc>Created with sketchtool.</desc>
    <defs>
        <polygon id="path-1" points="0 0.647537594 0 20.3003571 19.3621667 20.3003571 19.3621667 0.647537594 3.0116727e-20 0.647537594"></polygon>
    </defs>
    <g id="Page-1" stroke="none" stroke-width="1" fill="none" fill-rule="evenodd">
        <g id="Assets" transform="translate(-234.000000, -40.000000)">
            <g id="Cross" transform="translate(234.000000, 39.000000)">
                <g>
                    <path d="M2.91877778,20.3181203 C2.30988889,20.9350376 1.32433333,20.9350376 0.715444444,20.3181203 C0.107666667,19.7000752 0.107666667,18.6996992 0.715444444,18.0816541 L16.9621111,1.59067669 C17.571,0.973759398 18.5576667,0.973759398 19.1654444,1.59067669 C19.7743333,2.2087218 19.7743333,3.20909774 19.1654444,3.82714286 L2.91877778,20.3181203 Z" id="Fill-1" fill="#575756"></path>
                    <g id="Group-5" transform="translate(0.000000, 0.480451)">
                        <mask id="mask-2" fill="white">
                            <use xlink:href="#path-1"></use>
                        </mask>
                        <g id="Clip-4"></g>
                        <path d="M16.703,19.8376692 C17.3107778,20.4545865 18.2974444,20.4545865 18.9063333,19.8376692 C19.5141111,19.2196241 19.5141111,18.2192481 18.9063333,17.601203 L2.65966667,1.11022556 C2.05077778,0.493308271 1.06411111,0.493308271 0.456333333,1.11022556 C-0.152555556,1.72827068 -0.152555556,2.72864662 0.456333333,3.34669173 L16.703,19.8376692 Z" id="Fill-3" fill="#575756" mask="url(#mask-2)"></path>
                    </g>
                </g>
            </g>
        </g>
    </g>
</svg>