<svg width="24" height="24" viewBox="0 0 24 24" xmlns="http://www.w3.org/2000/svg"><title>83D371CD-D870-47D3-A9FD-20C80D570833</title><path d="M1.011 16.625v1.061c0 1.035.803 1.874 1.792 1.874H21.22c.99 0 1.791-.839 1.791-1.874V9.427h-22v7.198zm19.415-5.554c.55 0 .994.466.994 1.04 0 .574-.445 1.04-.994 1.04-.55 0-.995-.466-.995-1.04 0-.574.446-1.04.995-1.04zm-2.842 0c.55 0 .994.466.994 1.04 0 .574-.445 1.04-.994 1.04-.55 0-.995-.466-.995-1.04 0-.574.446-1.04.995-1.04zm-2.842 0c.55 0 .995.466.995 1.04 0 .574-.446 1.04-.995 1.04-.55 0-.995-.466-.995-1.04 0-.574.446-1.04.995-1.04zM21.22 4.49H2.803c-.99 0-1.792.84-1.792 1.874v1.854h22V6.364c0-1.035-.802-1.873-1.791-1.873z" fill="#9FA8AD" fill-rule="evenodd"/></svg>