<svg width="24" height="24" viewBox="0 0 24 24" xmlns="http://www.w3.org/2000/svg"><title>11AFCD67-09C6-41FA-AF92-2430627CF62D</title><path d="M10.462 18.227l-2.056.618-.1.037-.147.018s-.25.031-.382.031a2.259 2.259 0 0 1-1.683-.763 2.334 2.334 0 0 1-.75-1.712c0-.134.031-.388.031-.388l.018-.15.036-.102.608-2.092a3.816 3.816 0 0 1 1.006-1.862l7.697-7.864H5.75C3.13 3.998 1 6.167 1 8.832v8.996c0 2.665 2.13 4.833 4.75 4.833h10.013c2.62 0 4.75-2.168 4.75-4.833V8.874l-8.22 8.329a3.715 3.715 0 0 1-1.83 1.024zM22.327 1.585a1.94 1.94 0 0 0-2.776 0L8.289 13.092a2 2 0 0 0-.538 1.026l-.628 2.16s-.012.083-.012.127c0 .285.228.516.508.516a2.1 2.1 0 0 0 .112-.005l2.261-.442-.002-.003a1.935 1.935 0 0 0 1.074-.555L22.327 4.41a2.021 2.021 0 0 0 0-2.825z" fill="#2ABB9B" fill-rule="evenodd"/></svg>