<?xml version="1.0" encoding="UTF-8" standalone="no"?>
<svg width="30px" height="30px" viewBox="0 0 30 30" version="1.1" xmlns="http://www.w3.org/2000/svg" xmlns:xlink="http://www.w3.org/1999/xlink">
    <!-- Generator: sketchtool 42 (36781) - http://www.bohemiancoding.com/sketch -->
    <title>4CFA8C2D-ADC9-4405-8159-BEA6E3548CD8</title>
    <desc>Created with sketchtool.</desc>
    <defs></defs>
    <g id="Page-1" stroke="none" stroke-width="1" fill="none" fill-rule="evenodd">
        <g id="Assets" transform="translate(-240.000000, -124.000000)" fill="#6E6E6E">
            <g id="Dropdown" transform="translate(240.000000, 124.000000)">
                <g id="Page-1" transform="translate(15.478261, 15.978261) rotate(-90.000000) translate(-15.478261, -15.978261) translate(6.978261, 0.978261)">
                    <path d="M15.2729429,29.454853 C14.867205,29.454853 14.4850695,29.3020389 14.197344,29.0256731 L0.446086957,15.7644486 C0.158361432,15.486999 -0.000112392783,15.1185112 -0.000112392783,14.7272639 C-0.000112392783,14.3360166 0.158361432,13.9675288 0.444963029,13.691163 L14.197344,0.428854734 C14.4850695,0.152488909 14.867205,-0.000325136266 15.2729429,-0.000325136266 C15.6786809,-0.000325136266 16.0608163,0.152488909 16.3474179,0.428854734 C16.9408518,1.00109456 16.9408518,1.93098428 16.3485419,2.50322411 L3.67063591,14.7272639 L16.3485419,26.9513037 C16.9397279,27.5235435 16.9397279,28.454517 16.3474179,29.0256731 C16.0608163,29.3020389 15.6786809,29.454853 15.2729429,29.454853" id="Fill-1"></path>
                </g>
            </g>
        </g>
    </g>
</svg>