<?xml version="1.0" encoding="UTF-8" standalone="no"?>
<svg width="170px" height="170px" viewBox="0 0 170 170" version="1.1" xmlns="http://www.w3.org/2000/svg" xmlns:xlink="http://www.w3.org/1999/xlink">
    <!-- Generator: sketchtool 3.7.2 (28276) - http://www.bohemiancoding.com/sketch -->
    <title>DEF0B501-8FC2-415D-94A3-6151EC1E3312</title>
    <desc>Created with sketchtool.</desc>
    <defs></defs>
    <g id="Page-1" stroke="none" stroke-width="1" fill="none" fill-rule="evenodd">
        <g id="Artboard-1" transform="translate(-169.000000, -103.000000)">
            <g id="icons" transform="translate(-36.000000, 91.000000)">
                <g id="Group-2" transform="translate(205.000000, 12.000000)">
                    <g id="Group" transform="translate(34.000000, 7.000000)">
                        <path d="M7.675,130.423 L85.207,152.123 C90.48,153.57 95.979,150.439 97.426,145.166 L127.696,34.846 C129.143,29.573 126.012,24.074 120.739,22.627 L43.207,0.927 C37.934,-0.52 32.435,2.611 30.988,7.884 L0.718,118.204 C-0.729,123.478 2.402,128.976 7.675,130.423 L7.675,130.423 Z" id="Shape" stroke="#585857" stroke-width="3.442" fill="#898989"></path>
                        <g transform="translate(14.000000, 14.000000)" id="Shape">
                            <path d="M103.759,26.582 C104.716,22.98 102.571,19.285 98.969,18.328 L96.16,17.582 L9.14,54.262 L0.988,84.956 C0.926,85.188 0.983,85.413 0.946,85.645 L99.607,42.21 L103.759,26.582 L103.759,26.582 Z" fill="#C8EAFD"></path>
                            <path d="M31.065,0.719 C27.463,-0.238 23.768,1.907 22.811,5.509 L9.142,54.262 L96.162,17.582 L31.065,0.719 L31.065,0.719 Z" fill="#ADE3FD"></path>
                            <path d="M49.165,104.307 L73.684,110.819 C77.286,111.776 80.981,109.631 81.938,106.029 L88.45,81.51 L49.165,104.307 L49.165,104.307 Z" fill="#ADE3FD"></path>
                            <path d="M99.609,42.21 L0.948,85.645 C0.541,88.243 1.626,90.749 3.718,92.192 L94.365,59.237 L99.609,42.21 L99.609,42.21 Z" fill="#ADE3FD"></path>
                            <path d="M94.366,59.237 L3.719,92.192 C4.341,92.621 5.008,93.005 5.78,93.21 L49.166,104.307 L88.451,81.51 L94.366,59.237 L94.366,59.237 Z" fill="#C8EAFD"></path>
                        </g>
                        <path d="M19.626,106.444 L87.167,125.403 C90.761,126.389 94.474,124.275 95.46,120.681 L117.556,40.512 C118.542,36.918 116.428,33.205 112.834,32.219 L45.293,13.26 C41.699,12.274 37.986,14.388 37,17.982 L14.904,98.151 C13.918,101.745 16.032,105.458 19.626,106.444 L19.626,106.444 Z" id="Shape" stroke="#585857" stroke-width="3.442"></path>
                    </g>
                    <g id="Group" transform="translate(10.000000, 33.000000)">
                        <path d="M85.165,114.379 L37.857,127.36 C33.243,128.626 28.432,125.887 27.166,121.273 L0.68,24.747 C-0.586,20.133 2.153,15.322 6.767,14.056 L54.075,1.075 C58.689,-0.191 63.5,2.548 64.766,7.162 L91.252,103.688 C92.518,108.302 89.779,113.113 85.165,114.379 L85.165,114.379 Z" id="Shape" stroke="#585857" stroke-width="3.7065" fill="#C2C2C1"></path>
                        <path d="M85.165,114.379 L37.857,127.36 C33.243,128.626 28.432,125.887 27.166,121.273 L0.68,24.747 C-0.586,20.133 2.153,15.322 6.767,14.056 L54.075,1.075 C58.689,-0.191 63.5,2.548 64.766,7.162 L91.252,103.688 C92.518,108.302 89.779,113.113 85.165,114.379 L85.165,114.379 Z" id="Shape" stroke="#585857" stroke-width="3.442"></path>
                        <g transform="translate(11.000000, 18.000000)" id="Shape">
                            <path d="M50.577,5.231 C49.714,2.087 46.466,0.237 43.321,1.1 L40.869,1.773 L10.533,55.052 L17.886,81.849 C17.942,82.052 18.083,82.197 18.158,82.388 L54.321,18.875 L50.577,5.231 L50.577,5.231 Z" fill="#C8EAFD"></path>
                            <path d="M4.755,11.682 C1.61,12.545 -0.239,15.794 0.624,18.938 L10.533,55.052 L40.869,1.773 L4.755,11.682 L4.755,11.682 Z" fill="#ADE3FD"></path>
                            <path d="M42.302,81.271 L63.708,75.397 C66.853,74.534 68.702,71.286 67.839,68.141 L61.965,46.735 L42.302,81.271 L42.302,81.271 Z" fill="#ADE3FD"></path>
                            <path d="M54.321,18.874 L18.158,82.387 C18.994,84.53 20.918,85.947 23.136,86.117 L56.631,27.29 L54.321,18.874 L54.321,18.874 Z" fill="#ADE3FD"></path>
                            <path d="M56.63,27.291 L23.135,86.118 C23.795,86.168 24.467,86.165 25.142,85.98 L42.302,81.272 L61.966,46.737 L56.63,27.291 L56.63,27.291 Z" fill="#C8EAFD"></path>
                        </g>
                        <path d="M74.708,93.398 L36.142,103.98 C32.997,104.843 29.749,102.993 28.886,99.849 L11.624,36.938 C10.761,33.793 12.611,30.545 15.755,29.682 L54.321,19.1 C57.466,18.237 60.714,20.087 61.577,23.231 L78.839,86.142 C79.702,89.287 77.852,92.535 74.708,93.398 L74.708,93.398 Z" id="Shape" stroke="#585857" stroke-width="3.442"></path>
                        <path d="M44.28,88.002 L60.705,54.199 C60.962,53.67 60.476,53.085 59.909,53.241 L47.82,56.391 L47.482,35.365 C47.47,34.645 46.498,34.43 46.183,35.077 L29.758,68.88 C29.501,69.409 29.987,69.994 30.554,69.838 L42.643,66.688 L42.981,87.714 C42.992,88.434 43.965,88.649 44.28,88.002 L44.28,88.002 Z" id="Shape" stroke="#585857" stroke-width="3.7065" fill="#EED554"></path>
                        <path d="M40.916,12.269 C40.305,11.921 39.61,11.854 38.981,12.026 L25.336,15.77 C24.707,15.943 24.144,16.355 23.796,16.966 C23.1,18.189 23.527,19.744 24.749,20.44 C25.361,20.789 26.056,20.856 26.685,20.683 L40.327,16.94 C40.956,16.768 41.52,16.355 41.868,15.743 C42.566,14.52 42.139,12.965 40.916,12.269 L40.916,12.269 Z" id="Shape" fill="#585857"></path>
                        <circle id="Oval" stroke="#585857" stroke-width="3.442" fill="#727272" cx="58.492" cy="109.867" r="5.789"></circle>
                        <path d="M35.707,64.845 L43.897,47.09" id="Shape" stroke="#FFFFFF" stroke-width="2.471"></path>
                    </g>
                </g>
            </g>
        </g>
    </g>
</svg>