<?xml version="1.0" encoding="utf-8"?>
<!-- Generator: Adobe Illustrator 17.0.0, SVG Export Plug-In . SVG Version: 6.00 Build 0)  -->
<!DOCTYPE svg PUBLIC "-//W3C//DTD SVG 1.0//EN" "http://www.w3.org/TR/2001/REC-SVG-20010904/DTD/svg10.dtd">
<svg version="1.0" id="Capa_1" xmlns="http://www.w3.org/2000/svg" xmlns:xlink="http://www.w3.org/1999/xlink" x="0px" y="0px"
	 width="236px" height="282px" viewBox="0 0 236 282" enable-background="new 0 0 236 282" xml:space="preserve">
<g>
	<g>
		<path fill="#F2CD31" d="M153.097,107.597c0.41-1.26,1.499-2.178,2.81-2.368l12.287-1.786l5.495-11.135
			c0.587-1.187,1.797-1.94,3.121-1.94c1.324,0,2.534,0.752,3.121,1.94l5.495,11.135l12.287,1.786c1.311,0.19,2.4,1.108,2.81,2.368
			c0.409,1.26,0.068,2.644-0.881,3.569l-8.89,8.667l2.099,12.236c0.223,1.307-0.313,2.626-1.384,3.406
			c-1.073,0.777-2.495,0.881-3.665,0.265l-10.991-5.778l-10.991,5.778c-0.509,0.267-1.065,0.399-1.619,0.399
			c-0.722,0-1.44-0.224-2.046-0.664c-1.072-0.779-1.608-2.098-1.384-3.406l2.099-12.236l-8.89-8.667
			C153.029,110.241,152.688,108.857,153.097,107.597z"/>
		<path fill="#3F3E3E" d="M189.416,138.49c-0.941,0-1.88-0.233-2.712-0.67l-9.894-5.202l-9.897,5.204
			c-1.915,1.009-4.374,0.836-6.138-0.442c-1.809-1.318-2.698-3.502-2.323-5.703l1.892-11.022l-8.005-7.805
			c-1.601-1.558-2.167-3.849-1.477-5.979c0.692-2.126,2.495-3.646,4.705-3.969l11.066-1.607l4.948-10.027
			c0.989-2.004,2.992-3.249,5.229-3.249c2.236,0,4.24,1.246,5.229,3.249l4.948,10.027l11.065,1.607
			c2.215,0.323,4.018,1.844,4.707,3.969c0.681,2.094,0.103,4.442-1.475,5.979l-8.007,7.805l1.892,11.017
			c0.377,2.204-0.513,4.39-2.319,5.705C191.839,138.106,190.654,138.49,189.416,138.49z M176.81,127.61
			c0.375,0,0.752,0.09,1.094,0.269l10.991,5.778c0.381,0.204,0.845,0.165,1.192-0.089c0.346-0.251,0.519-0.677,0.445-1.104
			l-2.1-12.234c-0.13-0.762,0.122-1.541,0.677-2.082l8.891-8.668c0.306-0.298,0.418-0.752,0.285-1.157
			c-0.133-0.413-0.482-0.707-0.912-0.77l-12.286-1.785c-0.765-0.112-1.428-0.592-1.769-1.286l-5.495-11.135
			c-0.38-0.765-1.647-0.765-2.027,0l-5.495,11.135c-0.341,0.693-1.004,1.174-1.769,1.286l-12.288,1.785
			c-0.427,0.063-0.778,0.357-0.911,0.77c-0.132,0.404-0.02,0.859,0.285,1.156l8.891,8.669c0.554,0.54,0.807,1.319,0.677,2.082
			l-2.1,12.236c-0.072,0.426,0.101,0.851,0.452,1.108c0.337,0.242,0.82,0.279,1.185,0.084l10.993-5.78
			C176.058,127.701,176.435,127.61,176.81,127.61z"/>
	</g>
	<g>
		<path fill="#F2CD31" d="M94.287,107.597c0.41-1.26,1.499-2.178,2.81-2.368l12.287-1.786l5.495-11.135
			c0.587-1.187,1.797-1.94,3.121-1.94c1.324,0,2.534,0.752,3.121,1.94l5.495,11.135l12.287,1.786c1.311,0.19,2.4,1.108,2.81,2.368
			c0.409,1.26,0.068,2.644-0.881,3.569l-8.89,8.667l2.099,12.236c0.223,1.307-0.313,2.626-1.384,3.406
			c-1.073,0.777-2.495,0.881-3.665,0.265L118,129.961l-10.991,5.778c-0.509,0.267-1.065,0.399-1.619,0.399
			c-0.722,0-1.44-0.224-2.046-0.664c-1.072-0.779-1.608-2.098-1.384-3.406l2.099-12.236l-8.89-8.667
			C94.219,110.241,93.878,108.857,94.287,107.597z"/>
		<path fill="#3F3E3E" d="M130.605,138.49c-0.941,0-1.88-0.233-2.712-0.67l-9.894-5.202l-9.895,5.204
			c-1.929,1.009-4.378,0.836-6.139-0.442c-1.809-1.318-2.698-3.502-2.323-5.703l1.892-11.022l-8.005-7.805
			c-1.601-1.558-2.167-3.849-1.477-5.979c0.692-2.126,2.496-3.646,4.707-3.969l11.065-1.607l4.948-10.027
			c0.989-2.004,2.992-3.249,5.229-3.249c2.236,0,4.24,1.246,5.229,3.249l4.948,10.027l11.065,1.607
			c2.213,0.323,4.016,1.843,4.708,3.966c0.68,2.098,0.099,4.445-1.477,5.982l-8.007,7.805l1.892,11.017
			c0.377,2.204-0.513,4.39-2.319,5.705C133.028,138.106,131.844,138.49,130.605,138.49z M117.999,127.61
			c0.377,0,0.752,0.09,1.094,0.269l10.991,5.778c0.381,0.204,0.846,0.165,1.192-0.089c0.346-0.251,0.519-0.677,0.445-1.104
			l-2.1-12.234c-0.13-0.762,0.122-1.541,0.677-2.082l8.891-8.668c0.306-0.298,0.418-0.753,0.286-1.16
			c-0.133-0.409-0.484-0.704-0.914-0.767l-12.286-1.785c-0.765-0.112-1.428-0.592-1.769-1.286l-5.495-11.135
			c-0.38-0.765-1.647-0.765-2.027,0l-5.495,11.135c-0.341,0.693-1.004,1.174-1.769,1.286l-12.286,1.785
			c-0.429,0.063-0.779,0.357-0.912,0.77c-0.132,0.404-0.02,0.859,0.285,1.156l8.891,8.669c0.554,0.54,0.807,1.319,0.677,2.082
			l-2.1,12.236c-0.072,0.426,0.101,0.851,0.452,1.108c0.335,0.242,0.82,0.28,1.188,0.083l10.99-5.778
			C117.248,127.701,117.623,127.61,117.999,127.61z"/>
	</g>
	<g>
		<path fill="#F2CD31" d="M35.477,107.597c0.41-1.26,1.499-2.178,2.81-2.368l12.287-1.786l5.495-11.135
			c0.587-1.187,1.797-1.94,3.121-1.94s2.534,0.752,3.121,1.94l5.495,11.135l12.287,1.786c1.311,0.19,2.4,1.108,2.81,2.368
			c0.409,1.26,0.068,2.644-0.881,3.569l-8.89,8.667l2.099,12.236c0.223,1.307-0.313,2.626-1.384,3.406
			c-1.073,0.777-2.495,0.881-3.665,0.265l-10.991-5.778l-10.991,5.778c-0.509,0.267-1.065,0.399-1.619,0.399
			c-0.722,0-1.44-0.224-2.046-0.664c-1.072-0.779-1.608-2.098-1.384-3.406l2.099-12.236l-8.89-8.667
			C35.409,110.241,35.068,108.857,35.477,107.597z"/>
		<path fill="#3F3E3E" d="M71.797,138.49c-0.943,0-1.88-0.233-2.712-0.67l-9.895-5.202l-9.895,5.204
			c-1.929,1.009-4.378,0.836-6.139-0.442c-1.811-1.319-2.698-3.504-2.322-5.706l1.89-11.019l-8.005-7.805
			c-1.577-1.537-2.157-3.883-1.477-5.979c0.692-2.126,2.496-3.646,4.707-3.969l11.065-1.607l4.948-10.027
			c0.989-2.004,2.992-3.249,5.229-3.249c2.235,0,4.238,1.244,5.23,3.248l4.947,10.028l11.065,1.607
			c2.213,0.323,4.016,1.843,4.708,3.966c0.68,2.098,0.099,4.445-1.477,5.982l-8.007,7.805l1.892,11.017
			c0.377,2.204-0.513,4.39-2.319,5.705C74.22,138.106,73.035,138.49,71.797,138.49z M59.189,127.61c0.377,0,0.752,0.09,1.094,0.269
			l10.991,5.778c0.377,0.204,0.846,0.164,1.191-0.087c0.347-0.253,0.52-0.678,0.447-1.105l-2.1-12.234
			c-0.13-0.762,0.122-1.541,0.677-2.082l8.891-8.668c0.306-0.298,0.418-0.753,0.286-1.16c-0.133-0.409-0.484-0.704-0.914-0.767
			l-12.286-1.785c-0.765-0.112-1.428-0.592-1.769-1.286l-5.493-11.135c-0.381-0.77-1.647-0.771-2.028,0l-5.495,11.135
			c-0.341,0.693-1.004,1.174-1.769,1.286l-12.286,1.785c-0.429,0.063-0.779,0.357-0.912,0.77c-0.132,0.404-0.02,0.859,0.286,1.157
			l8.89,8.668c0.554,0.54,0.807,1.318,0.677,2.082l-2.098,12.236c-0.073,0.427,0.099,0.851,0.45,1.108
			c0.337,0.242,0.819,0.28,1.188,0.083l10.99-5.778C58.438,127.701,58.813,127.61,59.189,127.61z"/>
	</g>
	<g>
		<path fill="#F2CD31" d="M125.606,163.089c0.41-1.26,1.499-2.178,2.81-2.368l12.287-1.786l5.495-11.135
			c0.587-1.187,1.797-1.94,3.121-1.94s2.534,0.752,3.121,1.94l5.495,11.135l12.287,1.786c1.311,0.19,2.4,1.108,2.81,2.368
			c0.409,1.26,0.068,2.644-0.881,3.569l-8.89,8.667l2.099,12.236c0.223,1.307-0.313,2.626-1.384,3.406
			c-1.073,0.777-2.495,0.881-3.665,0.265l-10.991-5.778l-10.991,5.778c-0.509,0.267-1.065,0.399-1.619,0.399
			c-0.722,0-1.44-0.224-2.046-0.664c-1.072-0.779-1.608-2.098-1.384-3.406l2.099-12.236l-8.89-8.667
			C125.538,165.733,125.197,164.349,125.606,163.089z"/>
		<path fill="#3F3E3E" d="M161.926,193.982c-0.941,0-1.88-0.231-2.712-0.67l-9.895-5.202l-9.895,5.204
			c-1.932,1.013-4.374,0.839-6.139-0.442c-1.811-1.319-2.698-3.504-2.322-5.706l1.89-11.019l-8.005-7.805
			c-1.601-1.557-2.167-3.848-1.477-5.977c0.692-2.128,2.496-3.647,4.707-3.97l11.065-1.607l4.948-10.027
			c0.989-2.004,2.992-3.249,5.229-3.249c2.236,0,4.24,1.246,5.229,3.249l4.948,10.027l11.065,1.607
			c2.213,0.323,4.016,1.843,4.708,3.966c0.69,2.132,0.124,4.422-1.477,5.982l-8.007,7.805l1.892,11.017
			c0.377,2.204-0.513,4.39-2.319,5.705C164.35,193.597,163.164,193.982,161.926,193.982z M149.318,183.102
			c0.377,0,0.752,0.09,1.094,0.269l10.991,5.778c0.377,0.201,0.849,0.162,1.191-0.087c0.347-0.253,0.52-0.678,0.447-1.105
			l-2.1-12.234c-0.13-0.762,0.122-1.541,0.677-2.082l8.891-8.668c0.311-0.303,0.419-0.747,0.286-1.162
			c-0.133-0.407-0.484-0.703-0.914-0.765l-12.286-1.785c-0.765-0.112-1.428-0.592-1.769-1.286l-5.495-11.135
			c-0.381-0.773-1.645-0.771-2.027,0l-5.495,11.135c-0.341,0.693-1.004,1.174-1.769,1.286l-12.286,1.785
			c-0.429,0.063-0.779,0.357-0.912,0.77c-0.133,0.41-0.024,0.854,0.285,1.156l8.891,8.669c0.554,0.54,0.807,1.318,0.677,2.082
			l-2.098,12.236c-0.073,0.427,0.099,0.851,0.45,1.108c0.34,0.245,0.816,0.285,1.188,0.083l10.99-5.778
			C148.567,183.192,148.942,183.102,149.318,183.102z"/>
	</g>
	<g>
		<path fill="#F2CD31" d="M62.968,163.089c0.41-1.26,1.499-2.178,2.81-2.368l12.287-1.786l5.495-11.135
			c0.587-1.187,1.797-1.94,3.121-1.94c1.324,0,2.534,0.752,3.121,1.94l5.495,11.135l12.287,1.786c1.311,0.19,2.4,1.108,2.81,2.368
			c0.409,1.26,0.068,2.644-0.881,3.569l-8.89,8.667l2.099,12.236c0.223,1.307-0.313,2.626-1.384,3.406
			c-1.073,0.777-2.495,0.881-3.665,0.265l-10.991-5.778l-10.991,5.778c-0.509,0.267-1.065,0.399-1.619,0.399
			c-0.722,0-1.44-0.224-2.046-0.664c-1.072-0.779-1.608-2.098-1.384-3.406l2.099-12.236l-8.89-8.667
			C62.9,165.733,62.559,164.349,62.968,163.089z"/>
		<path fill="#3F3E3E" d="M99.288,193.982c-0.943,0-1.881-0.233-2.714-0.67l-9.894-5.202l-9.897,5.204
			c-1.922,1.01-4.371,0.837-6.138-0.442c-1.809-1.318-2.698-3.502-2.323-5.703l1.892-11.022l-8.005-7.805
			c-1.601-1.557-2.167-3.848-1.477-5.977c0.692-2.128,2.496-3.647,4.707-3.97l11.065-1.607l4.948-10.027
			c0.989-2.004,2.992-3.249,5.229-3.249s4.24,1.246,5.229,3.249l4.948,10.027l11.065,1.607c2.213,0.323,4.016,1.843,4.708,3.966
			c0.69,2.132,0.124,4.422-1.477,5.982l-8.007,7.805l1.892,11.017c0.377,2.204-0.513,4.39-2.319,5.705
			C101.712,193.597,100.526,193.982,99.288,193.982z M86.68,183.102c0.375,0,0.752,0.09,1.094,0.269l10.991,5.778
			c0.377,0.201,0.849,0.162,1.191-0.087c0.347-0.253,0.52-0.678,0.447-1.105l-2.1-12.234c-0.13-0.762,0.122-1.541,0.677-2.082
			l8.891-8.668c0.311-0.303,0.419-0.747,0.286-1.162c-0.133-0.407-0.484-0.703-0.914-0.765l-12.286-1.785
			c-0.765-0.112-1.428-0.592-1.769-1.286l-5.495-11.135c-0.38-0.765-1.647-0.765-2.027,0l-5.495,11.135
			c-0.341,0.693-1.004,1.174-1.769,1.286l-12.286,1.785c-0.429,0.063-0.779,0.357-0.912,0.77c-0.133,0.41-0.024,0.854,0.285,1.156
			l8.891,8.669c0.554,0.54,0.807,1.319,0.677,2.082l-2.1,12.236c-0.072,0.426,0.101,0.851,0.452,1.108
			c0.34,0.245,0.813,0.283,1.185,0.084l10.993-5.78C85.929,183.192,86.304,183.102,86.68,183.102z"/>
	</g>
</g>
</svg>
