<svg width="26" height="26" viewBox="0 0 26 26" xmlns="http://www.w3.org/2000/svg"><title>D39A7CAB-1E65-4959-ABF2-096A418E5690</title><path d="M13 24c6.075 0 11-4.925 11-11S19.075 2 13 2 2 6.925 2 13s4.925 11 11 11zm-.15-17.362a3.721 3.721 0 0 0-3.718 3.717 1.06 1.06 0 0 0 2.122 0c0-.88.716-1.596 1.596-1.596a1.598 1.598 0 0 1 .75 3.006 3.721 3.721 0 0 0-2.16 3.278h.003c0 .01-.003.019-.003.029 0 .556.474 1.007 1.06 1.007.566 0 1.023-.42 1.056-.95h.003a1.598 1.598 0 0 1 .946-1.445 3.708 3.708 0 0 0 2.062-3.328 3.722 3.722 0 0 0-3.718-3.718zm-.292 12.78a1.13 1.13 0 1 0 0-2.26 1.13 1.13 0 0 0 0 2.26z" fill="#9FA8AD" fill-rule="evenodd"/></svg>