<svg width="26" height="26" viewBox="0 0 26 26" xmlns="http://www.w3.org/2000/svg"><title>7ED62663-0166-4763-BD1F-0DAED051B185</title><g fill="#9FA8AD" fill-rule="evenodd"><path d="M4.202 23.702a1.26 1.26 0 0 0 2.521 0v-10.06c-.485-.075-.958-.18-1.422-.322a3.082 3.082 0 0 1-1.099-.628v11.01z"/><path d="M8.13 2.218c1.716 0 3.448.466 5.123.917 1.65.445 3.356.904 5.02.904.874 0 1.67-.123 2.435-.375.167-.055.33-.082.484-.082.613 0 1.01.43 1.01 1.097v9.499c0 .863-.64 1.83-1.37 2.066a8.027 8.027 0 0 1-2.558.396c-1.717 0-3.449-.467-5.124-.918-1.65-.445-3.355-.904-5.02-.904-.873 0-1.67.123-2.434.375-.167.055-.33.082-.484.082-.614 0-1.01-.43-1.01-1.097V4.68c0-.864.64-1.83 1.37-2.067a8.027 8.027 0 0 1 2.557-.395z"/></g></svg>