<?xml version="1.0" encoding="utf-8"?>
<!-- Generator: Adobe Illustrator 17.0.0, SVG Export Plug-In . SVG Version: 6.00 Build 0)  -->
<!DOCTYPE svg PUBLIC "-//W3C//DTD SVG 1.0//EN" "http://www.w3.org/TR/2001/REC-SVG-20010904/DTD/svg10.dtd">
<svg version="1.0" id="Capa_1" xmlns="http://www.w3.org/2000/svg" xmlns:xlink="http://www.w3.org/1999/xlink" x="0px" y="0px"
	 width="236px" height="282px" viewBox="0 0 236 282" enable-background="new 0 0 236 282" xml:space="preserve">
<g>
	<g id="D5H4A3.tif">
		<g>
			<g>
				<g>
					<path fill="#D78383" d="M35.796,123.581c-0.328-6.115,0.808-12.026,3.318-17.505c1.262-2.756,3.426-5.262,5.658-7.379
						c5.945-5.638,13.102-8.848,21.343-7.41c3.591,0.627,7.282,2.603,10.177,4.909c6.937,5.525,12.114,12.581,15.575,20.816
						c4.992,10.092,8.137,24.908,8.893,29.869c1.044,6.848,2.087,13.703,2.865,20.584c0.751,6.644,3.051,12.757,5.623,18.833
						c0.634,1.498,0.957,3.16,1.183,4.78c0.076,0.547-0.433,1.495-0.935,1.755c-7.156,3.699-14.326,7.377-21.56,10.921
						c-4.26,2.087-8.663,3.879-12.951,5.911c-1.3,0.616-1.852,0.152-2.483-0.892c-3.764-6.228-7.775-12.316-11.318-18.666
						c-5.14-9.211-10.253-18.461-14.796-27.972c-2.814-5.893-4.852-12.213-6.685-18.502
						C37.797,137.097,35.54,123.628,35.796,123.581z"/>
					<path fill="#3F3E3E" d="M73.972,212.72c-2.34,0-3.477-1.893-3.852-2.516c-1.276-2.104-2.582-4.203-3.888-6.295
						c-2.558-4.112-5.122-8.224-7.474-12.445c-5.485-9.821-10.383-18.716-14.882-28.132c-3.005-6.301-5.146-13.098-6.839-18.916
						c-0.048-0.169-3.888-15.348-3.87-20.694l-0.145,0.012c-0.351-6.555,0.853-12.881,3.568-18.813
						c1.24-2.721,3.29-5.412,6.271-8.242c7.172-6.815,15.021-9.657,23.735-8.134c5.08,0.889,9.343,3.81,11.429,5.473
						c7.178,5.721,12.699,13.092,16.406,21.915c5.207,10.516,8.381,25.961,9.077,30.533c1.082,7.093,2.11,13.878,2.878,20.694
						c0.677,5.944,2.655,11.52,5.418,18.057c0.822,1.935,1.167,3.943,1.379,5.479c0.242,1.687-0.859,3.804-2.413,4.608
						c-7.172,3.707-14.362,7.39-21.613,10.946c-2.395,1.173-4.838,2.262-7.287,3.344c-1.905,0.847-3.816,1.693-5.697,2.582
						C75.399,212.544,74.68,212.72,73.972,212.72z M38.565,123.813c0.175,1.875,2.068,13.086,3.804,19.043
						c1.633,5.606,3.689,12.137,6.525,18.081c4.427,9.27,9.283,18.081,14.713,27.817c2.316,4.142,4.832,8.176,7.347,12.209
						c1.203,1.941,2.413,3.876,3.598,5.83c1.723-0.798,3.393-1.542,5.068-2.28c2.377-1.058,4.759-2.11,7.087-3.259
						c6.997-3.429,13.939-6.979,20.857-10.552c-0.169-1.052-0.429-2.256-0.877-3.32c-2.957-6.979-5.074-12.983-5.83-19.599
						c-0.756-6.743-1.778-13.461-2.8-20.168c-0.708-4.662-3.713-19.333-8.684-29.371c-3.411-8.109-8.375-14.743-14.816-19.871
						c-2.848-2.268-6.102-3.852-8.92-4.348c-6.821-1.179-13.062,1.101-18.958,6.688c-2.413,2.298-4.112,4.487-5.037,6.519
						c-2.34,5.11-3.374,10.558-3.072,16.201C38.577,123.559,38.577,123.686,38.565,123.813z"/>
				</g>
				<g>
					<path fill="#D78383" d="M116.955,204.383c4.409,8.286,9.428,15.998,11.583,25.086c2.52,10.629-2.282,18.682-11.359,23.058
						c-3.35,1.615-7.156,2.521-10.856,3.115c-4.824,0.775-8.702-2.008-12.239-4.757c-4.566-3.548-7.169-8.692-9.624-13.776
						c-1.64-3.394-2.698-7.066-4.104-10.578c-0.808-2.018-0.158-3.145,1.726-4.086c6.747-3.371,13.445-6.84,20.142-10.31
						C107.059,209.63,111.863,207.065,116.955,204.383z"/>
					<path fill="#3F3E3E" d="M104.686,258.552c-5.267,0-9.506-3.29-12.306-5.473c-4.88-3.786-7.607-8.926-10.425-14.761
						c-1.076-2.225-1.911-4.56-2.751-6.9c-0.46-1.294-0.919-2.582-1.427-3.858c-0.756-1.887-1.367-5.388,3.06-7.601
						c6.585-3.284,13.11-6.67,19.641-10.051c3.907-2.026,7.335-3.84,10.867-5.703l4.318-2.286c1.342-0.695,3.024-0.194,3.749,1.155
						c0.895,1.681,1.814,3.338,2.727,4.983c3.592,6.477,7.305,13.171,9.101,20.772c2.709,11.405-1.977,20.96-12.85,26.203
						c-3.169,1.53-6.864,2.594-11.623,3.356C106.059,258.503,105.363,258.552,104.686,258.552z M115.819,208.124l-1.881,0.992
						c-3.538,1.875-6.979,3.695-10.432,5.485c-7.027,3.64-13.582,7.033-20.186,10.329c-0.502,0.254-0.641,0.405-0.647,0.411
						c0.798,1.494,1.282,2.854,1.766,4.209c0.768,2.153,1.536,4.306,2.522,6.35c2.51,5.195,4.904,9.742,8.829,12.79
						c3.411,2.661,6.501,4.82,10.093,4.209c4.161-0.665,7.456-1.603,10.087-2.872c8.442-4.07,11.943-11.145,9.863-19.914
						c-1.627-6.858-4.995-12.929-8.557-19.357C116.793,209.883,116.303,209.007,115.819,208.124z"/>
				</g>
			</g>
		</g>
	</g>
	<g id="D5H4A3.tif_1_">
		<g>
			<g>
				<g>
					<path fill="#D78383" d="M200.095,73.576c-0.493,6.533-1.181,13.137-2.717,19.484c-2.478,10.245-5.569,20.352-8.695,30.426
						c-2.154,6.945-4.82,13.731-7.216,20.602c-0.402,1.152-0.846,1.72-2.245,1.386c-4.615-1.102-9.294-1.945-13.893-3.106
						c-7.811-1.972-15.585-4.088-23.352-6.229c-0.545-0.15-1.24-0.973-1.278-1.523c-0.113-1.632-0.141-3.325,0.169-4.921
						c1.261-6.476,2.248-12.933,1.609-19.588c-0.661-6.894-1.057-13.816-1.452-20.732c-0.286-5.01-0.27-20.157,2.527-31.062
						c1.684-8.773,5.291-16.746,10.936-23.586c2.356-2.854,5.559-5.551,8.943-6.906c7.766-3.11,15.432-1.45,22.414,2.838
						c2.621,1.61,5.256,3.615,7.061,6.05c3.588,4.842,5.921,10.391,6.864,16.442C200.032,53.143,200.608,66.788,200.095,73.576z"/>
					<path fill="#3F3E3E" d="M179.926,148.347c-0.423,0-0.865-0.054-1.342-0.169c-2.044-0.484-4.1-0.925-6.156-1.361
						c-2.6-0.55-5.201-1.107-7.777-1.754c-7.831-1.977-15.626-4.1-23.409-6.247c-1.657-0.441-3.187-2.268-3.314-3.985
						c-0.109-1.596-0.181-3.653,0.212-5.66c1.355-6.966,2.147-12.826,1.572-18.801c-0.665-6.93-1.064-13.878-1.457-20.833
						c-0.266-4.602-0.363-20.343,2.606-31.911c1.772-9.246,5.648-17.604,11.49-24.673c1.693-2.056,5.255-5.799,10.051-7.716
						c7.922-3.163,16.473-2.123,24.903,3.054c3.483,2.141,6.047,4.348,7.837,6.761c3.888,5.249,6.368,11.193,7.378,17.67
						l-0.139,0.024c1.095,5.17,0.502,20.869,0.484,21.044c-0.447,6.029-1.137,13.11-2.782,19.926
						c-2.461,10.159-5.539,20.27-8.744,30.593c-1.421,4.59-3.066,9.107-4.711,13.63c-0.853,2.352-1.711,4.705-2.534,7.063
						C183.324,147.222,181.921,148.347,179.926,148.347z M143.425,133.652c7.529,2.074,15.04,4.112,22.586,6.017
						c2.504,0.635,5.037,1.173,7.571,1.711c1.826,0.387,3.646,0.774,5.461,1.197c0.822-2.322,1.59-4.433,2.358-6.543
						c1.615-4.433,3.229-8.865,4.626-13.37c3.175-10.238,6.229-20.258,8.648-30.254c1.554-6.428,2.213-13.231,2.649-19.037
						c0.466-6.204,0.006-17.561-0.212-19.424c-0.036-0.121-0.067-0.242-0.085-0.369c-0.871-5.582-3.005-10.698-6.35-15.215
						c-1.342-1.802-3.453-3.598-6.283-5.334c-6.924-4.257-13.637-5.152-19.926-2.631c-2.667,1.064-5.521,3.284-7.831,6.09
						c-5.243,6.35-8.726,13.866-10.359,22.351c-2.618,10.238-2.794,24.866-2.473,30.369c0.393,6.888,0.78,13.77,1.445,20.627
						c0.629,6.646-0.206,12.959-1.657,20.391C143.382,131.33,143.376,132.569,143.425,133.652z"/>
				</g>
				<g>
					<path fill="#D78383" d="M136.26,148.679c-2.601,9.018-5.918,17.601-6.148,26.938c-0.269,10.92,6.094,17.807,15.879,20.212
						c3.612,0.888,7.522,0.988,11.265,0.804c4.88-0.239,8.099-3.763,10.992-7.184c3.734-4.415,5.217-9.986,6.569-15.468
						c0.903-3.66,1.179-7.471,1.829-11.198c0.373-2.141-0.496-3.11-2.533-3.641c-7.298-1.904-14.568-3.914-21.838-5.924
						C147.027,151.768,141.797,150.251,136.26,148.679z"/>
					<path fill="#3F3E3E" d="M154.285,199.488c-3.399,0-6.331-0.314-8.956-0.962c-11.726-2.878-18.287-11.254-17.997-22.973
						c0.194-7.825,2.449-15.148,4.626-22.236c0.55-1.79,1.107-3.592,1.627-5.406c0.423-1.469,1.947-2.328,3.435-1.905l5.231,1.488
						c3.646,1.046,7.202,2.062,10.77,3.048l1.01,0.278c6.918,1.911,13.836,3.822,20.784,5.63c4.795,1.252,4.922,4.808,4.572,6.815
						c-0.242,1.361-0.423,2.733-0.611,4.106c-0.333,2.449-0.671,4.892-1.264,7.281c-1.542,6.283-3.151,11.877-7.142,16.594
						c-2.637,3.126-6.628,7.849-12.977,8.164C156.366,199.458,155.326,199.488,154.285,199.488z M138.145,152.108
						c-0.29,0.949-0.581,1.899-0.871,2.842c-2.165,7.039-4.209,13.679-4.378,20.736c-0.23,9.01,4.662,15.209,13.764,17.446
						c2.885,0.708,6.616,0.889,10.462,0.726c3.634-0.181,6.229-2.915,9.004-6.204c3.211-3.792,4.614-8.738,5.993-14.338
						c0.544-2.195,0.841-4.445,1.149-6.694c0.194-1.439,0.393-2.885,0.641-4.312c0.218-0.218,0.054-0.333-0.496-0.478
						c-6.972-1.814-13.921-3.731-20.863-5.654l-1.01-0.278c-3.58-0.992-7.154-2.008-10.819-3.06L138.145,152.108z"/>
				</g>
			</g>
		</g>
	</g>
</g>
</svg>
