<?xml version="1.0" encoding="UTF-8" standalone="no"?>
<svg width="92px" height="72px" viewBox="0 0 92 72" version="1.1" xmlns="http://www.w3.org/2000/svg" xmlns:xlink="http://www.w3.org/1999/xlink">
    <!-- Generator: sketchtool 41.1 (35376) - http://www.bohemiancoding.com/sketch -->
    <title>EC082A09-EE60-46C6-9EC8-160F8DF98456</title>
    <desc>Created with sketchtool.</desc>
    <defs></defs>
    <g id="Page-1" stroke="none" stroke-width="1" fill="none" fill-rule="evenodd">
        <g id="Desktop-Landscape-Copy-8" transform="translate(-220.000000, -897.000000)">
            <g id="Face" transform="translate(220.000000, 895.000000)">
                <g id="Chat" transform="translate(7.000000, 0.000000)"></g>
                <ellipse id="Oval" stroke="#3D9F83" stroke-width="3" cx="44.9209979" cy="37.9553467" rx="34.1288981" ry="34.159812"></ellipse>
                <path d="M44.9209979,64.5240893 C54.8028863,64.5240893 63.4235833,59.1193956 67.9934131,51.1022109 C70.2031343,47.2255363 19.6379436,47.2222729 21.8461727,51.0979819 C26.4153812,59.117495 35.0373721,64.5240893 44.9209979,64.5240893 Z" id="Oval-Copy" stroke="#3D9F83" stroke-width="3"></path>
                <path d="M29.7525988,34.159812 C31.8469176,34.159812 33.5446985,32.4604932 33.5446985,30.3642773 C33.5446985,28.2680614 31.8469176,26.5687427 29.7525988,26.5687427 C27.6582799,26.5687427 25.960499,28.2680614 25.960499,30.3642773 C25.960499,32.4604932 27.6582799,34.159812 29.7525988,34.159812 Z" id="Oval-2" fill="#3D9F83"></path>
                <ellipse id="Oval-2-Copy" fill="#3D9F83" cx="60.0893971" cy="30.3642773" rx="3.79209979" ry="3.79553467"></ellipse>
            </g>
        </g>
    </g>
</svg>