<svg width="23" height="36" viewBox="0 0 23 36" xmlns="http://www.w3.org/2000/svg" xmlns:xlink="http://www.w3.org/1999/xlink"><title>1C70DB6F-8BBE-4D68-89A6-A281FE474BC1</title><defs><path id="a" d="M0 14.069V.246h22.49v27.645H0z"/></defs><g fill="none" fill-rule="evenodd"><g transform="translate(0 -.246)"><mask id="b" fill="#fff"><use xlink:href="#a"/></mask><path d="M15.874 14.81l-.312.438-4.316 6.09-4.31-6.079-.315-.441a5.655 5.655 0 0 1-1.082-3.326 5.711 5.711 0 0 1 5.707-5.708 5.712 5.712 0 0 1 5.706 5.708c0 1.191-.373 2.34-1.078 3.318M11.246.245C5.043.245 0 5.29 0 11.492c0 2.36.735 4.628 2.12 6.555l.299.415 5.856 8.262s.714 1.168 2.272 1.168H11.944c1.56 0 2.271-1.168 2.271-1.168l5.856-8.262.298-.415a11.15 11.15 0 0 0 2.121-6.556c0-6.2-5.045-11.245-11.244-11.245" fill="#3D9F83" mask="url(#b)"/></g><path d="M8.082 32.718v-.02c0-1.683 1.334-3.073 3.136-3.073 1.803 0 3.127 1.37 3.127 3.05v.022c0 1.667-1.335 3.057-3.149 3.057-1.788 0-3.114-1.367-3.114-3.036" fill="#00A189"/></g></svg>