<?xml version="1.0" encoding="utf-8"?>
<!-- Generator: Adobe Illustrator 17.0.0, SVG Export Plug-In . SVG Version: 6.00 Build 0)  -->
<!DOCTYPE svg PUBLIC "-//W3C//DTD SVG 1.1//EN" "http://www.w3.org/Graphics/SVG/1.1/DTD/svg11.dtd">
<svg version="1.1" id="Capa_1" xmlns="http://www.w3.org/2000/svg" xmlns:xlink="http://www.w3.org/1999/xlink" x="0px" y="0px"
	 width="92px" height="61px" viewBox="0 0 92 61" enable-background="new 0 0 92 61" xml:space="preserve">
<title>B9368918-EA90-445F-B1A5-46B6641A16F8</title>
<desc>Created with sketchtool.</desc>
<path fill="#3D9F83" d="M68.059,28.99c-1.208,0-2.379,0.154-3.507,0.419L58.177,8.287c-0.295-0.909-0.674-3.102,0.035-4.078
	c0.105-0.145,0.425-0.584,1.589-0.584H66c0.828,0,1.5-0.671,1.5-1.5s-0.672-1.5-1.5-1.5h-6.199c-2.225,0-3.411,0.99-4.015,1.82
	C54,4.902,55.183,8.779,55.314,9.184l2.712,8.986H33.712l-3.806-5.795H32c0.829,0,1.5-0.671,1.5-1.5s-0.671-1.5-1.5-1.5H20.125
	c-0.829,0-1.5,0.671-1.5,1.5s0.671,1.5,1.5,1.5h6.19l4.908,7.471l-3.914,10.016c-1.587-0.555-3.285-0.872-5.059-0.872
	c-8.48,0-15.38,6.899-15.38,15.38s6.899,15.38,15.38,15.38s15.38-6.899,15.38-15.38c0-1.305-0.181-2.566-0.489-3.776l7.276-2.82
	c0.083-0.032,0.16-0.074,0.234-0.119c0.008-0.005,0.017-0.006,0.025-0.011l16.151-10.196l0.884,2.93
	c-5.319,2.423-9.032,7.777-9.032,13.992c0,8.48,6.899,15.38,15.38,15.38c8.481,0,15.381-6.899,15.381-15.38
	S76.54,28.99,68.059,28.99z M58.718,21.17l1.114,3.358L44.32,34.32l-8.638-13.15H58.718z M34.63,44.37
	c0,6.826-5.554,12.38-12.38,12.38S9.87,51.196,9.87,44.37s5.554-12.38,12.38-12.38c1.389,0,2.72,0.24,3.968,0.664l-4.365,11.17
	c-0.012,0.03-0.016,0.061-0.026,0.092c-0.017,0.054-0.035,0.108-0.046,0.164c-0.009,0.046-0.013,0.092-0.018,0.138
	c-0.005,0.05-0.011,0.1-0.011,0.151c0,0.05,0.005,0.099,0.01,0.149c0.005,0.047,0.008,0.093,0.017,0.14
	c0.011,0.055,0.028,0.108,0.045,0.161c0.01,0.031,0.014,0.063,0.026,0.094c0.003,0.007,0.008,0.012,0.011,0.02
	c0.051,0.125,0.119,0.24,0.201,0.348c0.019,0.024,0.038,0.046,0.058,0.069c0.079,0.091,0.167,0.174,0.268,0.245
	c0.01,0.007,0.019,0.017,0.03,0.024c0.088,0.058,0.182,0.11,0.284,0.15c0.016,0.006,0.033,0.004,0.049,0.009
	c0.158,0.056,0.322,0.092,0.492,0.093c0.001,0,0.003,0.001,0.004,0.001c0,0,0,0,0,0s0,0,0,0c0.001,0,0.003-0.001,0.004-0.001
	c0.169-0.001,0.333-0.037,0.49-0.092c0.016-0.005,0.032-0.003,0.047-0.009l10.536-4.084C34.521,42.55,34.63,43.447,34.63,44.37z
	 M28.928,33.962c1.87,1.204,3.391,2.896,4.391,4.897l-7.43,2.88L28.928,33.962z M30.035,31.129l3.208-8.208l8.36,12.727
	l-5.481,2.125C34.796,34.997,32.669,32.684,30.035,31.129z M68.059,56.75c-6.826,0-12.38-5.554-12.38-12.38
	c0-4.86,2.823-9.064,6.908-11.088l3.477,11.522c0.195,0.648,0.791,1.066,1.435,1.066c0.144,0,0.29-0.021,0.435-0.064
	c0.793-0.239,1.242-1.076,1.002-1.869l-3.518-11.656c0.852-0.186,1.734-0.29,2.641-0.29c6.827,0,12.381,5.554,12.381,12.38
	S74.886,56.75,68.059,56.75z"/>
</svg>
