<?xml version="1.0" encoding="UTF-8" standalone="no"?>
<svg width="92px" height="73px" viewBox="0 0 92 73" version="1.1" xmlns="http://www.w3.org/2000/svg" xmlns:xlink="http://www.w3.org/1999/xlink">
    <!-- Generator: sketchtool 41.1 (35376) - http://www.bohemiancoding.com/sketch -->
    <title>92B7E798-3108-4B80-88A0-873D99E1D5C1</title>
    <desc>Created with sketchtool.</desc>
    <defs></defs>
    <g id="Page-1" stroke="none" stroke-width="1" fill="none" fill-rule="evenodd">
        <g id="Desktop-Landscape-Copy-8" transform="translate(-220.000000, -1112.000000)">
            <g id="Texto-Glovers" transform="translate(113.000000, 737.000000)"></g>
            <g id="Money" transform="translate(220.000000, 1112.000000)">
                <text id="€" font-family="GothamRounded-Bold, Gotham Rounded" font-size="22" font-weight="bold" fill="#3D9F83">
                    <tspan x="59.7704918" y="59.6923077">€</tspan>
                </text>
                <g id="money" transform="translate(6.000000, 2.000000)">
                    <path d="M2.60981023,45.5558375 C1.48085463,44.6016727 0.565655294,45.034421 0.565655294,46.527154 L0.565655294,58.2674762 L0.576508235,58.9367977 C0.823955294,64.7325131 11.5716229,68.7299704 24.8035288,68.7299704 C38.0354347,68.7299704 42.3264725,64.6503699 42.3264725,64.6503699 L42.3264725,51.0683586 C42.3264725,51.0683586 38.9864981,52.426061 35.8147078,53.2414802 C31.7700255,54.2813067 28.955806,54.2906636 24.8035288,54.2906636 C11.5716229,54.2906636 2.60981023,45.5558375 2.60981023,45.5558375 Z" id="Stroke-7" stroke="#3D9F83" stroke-width="2.7"></path>
                    <path d="M3.01842,32.0535443 L3.00756706,43.4169061 L3.01842,44.0862276 C3.26586706,49.881943 14.0135347,53.8794003 27.2454406,53.8794003 C32.651628,53.8794003 38.8049169,53.6477908 42.8691195,49.981798 C45.0742765,47.9927018 45.086237,44.8159847 46.6676489,41.8325918 C48.3125157,38.7294889 51.4833145,35.8565072 51.4833145,35.8565072 L51.4833143,31.7140682 C51.4833142,30.2189606 50.6884755,28.104818 49.7001981,26.9831521 L49.3808842,26.6207402 C49.1345225,32.4164557 38.1936704,36.9430683 24.9617645,36.9430683" id="Stroke-11" stroke="#3D9F83" stroke-width="2.7"></path>
                    <path d="M0.577138392,11.4088887 L0.565221176,26.7477592 L0.577138392,27.4170806 C0.823066376,33.2138826 11.5518101,37.2113399 24.760418,37.2113399 C37.9690258,37.2113399 48.698853,32.5445612 48.9447809,26.7477592 L48.9566982,27.040044 L49.2949287,12.4954495" id="Stroke-23" stroke="#3D9F83" stroke-width="2.7"></path>
                    <path d="M49.3805568,11.3181887 C49.3805568,17.3183224 38.4477985,22.1828469 24.9619858,22.1828469 C11.4750798,22.1828469 0.542321471,17.3183224 0.542321471,11.3181887 C0.542321471,5.31805502 11.4750798,0.453530488 24.9619858,0.453530488 C38.4477985,0.453530488 49.3805568,5.31805502 49.3805568,11.3181887 L49.3805568,11.3181887 Z" id="Stroke-27" stroke="#3D9F83" stroke-width="2.7"></path>
                    <path d="M7.59705882,18.2286877 L7.59705882,64.6280946" id="Stroke-29" stroke="#3D9F83" stroke-width="2.7"></path>
                    <path d="M15.1941176,21.4417567 L15.1941176,67.1946599" id="Stroke-31" stroke="#3D9F83" stroke-width="2.7"></path>
                    <path d="M24.9617647,22.9772845 L24.9617647,68.7301877" id="Stroke-33" stroke="#3D9F83" stroke-width="2.7"></path>
                    <path d="M35.8147059,21.7846753 L35.8147059,67.5375785" id="Stroke-35" stroke="#3D9F83" stroke-width="2.7"></path>
                    <path d="M42.3264706,18.2286877 L42.3264706,65.4614868" id="Stroke-37" stroke="#3D9F83" stroke-width="2.7"></path>
                    <path d="M62.8569794,32.5968248 C72.9968824,32.5968248 81.2169,40.8264364 81.2169,50.9781742 C81.2169,61.1288255 72.9968824,69.3584372 62.8569794,69.3584372 C52.7170765,69.3584372 44.4970588,61.1288255 44.4970588,50.9781742 C44.4970588,40.8264364 52.7170765,32.5968248 62.8569794,32.5968248 L62.8569794,32.5968248 Z" id="Stroke-45" stroke="#3D9F83" stroke-width="2.7" stroke-linecap="round" stroke-dasharray="87.3"></path>
                    <ellipse id="Oval-2-Copy-2" fill="#3D9F83" cx="58.0632353" cy="33.1401052" rx="1.62794118" ry="1.62984124"></ellipse>
                    <path d="M42.3264706,64.6503691 C42.3264706,64.6503691 44.9167764,62.703734 46.125,61.933967" id="Path-633" stroke="#3D9F83" stroke-width="2.7"></path>
                </g>
            </g>
        </g>
    </g>
</svg>