<svg width="180" height="180" viewBox="0 0 180 180" xmlns="http://www.w3.org/2000/svg"><title>glover_overflow</title><g fill="none" fill-rule="evenodd"><g transform="matrix(-1 0 0 1 136.838 40.84)"><path d="M79.613 45.836c-8.484 0-15.361-6.7-15.361-14.967 0-.446.029-.884.067-1.32H53.49c-.023.437-.035.878-.035 1.32 0 9.784 5.66 18.276 13.961 22.548l12.197-.51v-7.07z" stroke="#585857" stroke-width="1.8" stroke-linecap="round" stroke-linejoin="round" fill="#C4C4C3"/><ellipse stroke="#585857" stroke-width="1.8" stroke-linecap="round" stroke-linejoin="round" fill="#EFD896" cx="80.75" cy="50.008" rx="4.549" ry="4.546"/><ellipse stroke="#585857" stroke-width="1.8" stroke-linecap="round" stroke-linejoin="round" fill="#EED554" cx="39.238" cy="117.631" rx="16.491" ry="16.48"/><ellipse stroke="#585857" stroke-width="1.8" stroke-linecap="round" stroke-linejoin="round" fill="#C4C4C3" cx="39.806" cy="118.2" rx="7.961" ry="7.956"/><path d="M114.612 98.704L86.598 59.829v38.875c0 14.555-13.925 15.158-15.847 15.172h22.6l-.135-.303c23.452-2.047 21.396-14.87 21.396-14.87z" fill="#00D2CC" stroke="#585857" stroke-width="1.8" stroke-linecap="round" stroke-linejoin="round"/><path d="M134.426 103.92c-4.853-6.714-12.748-10.724-21.122-10.724-13.727 0-24.885 10.583-25.73 23.867h9.914c.817-7.908 7.553-14.125 15.815-14.125 5.167 0 10.04 2.475 13.037 6.624 1.585 2.19 4.68 2.709 6.913 1.152a4.818 4.818 0 0 0 1.173-6.793zm-73.012 8.83v-10.77c0-7.99-6.425-14.467-14.351-14.467h-12.24c-7.926 0-14.351 6.478-14.351 14.467v16.22h40.943v-5.45z" stroke="#585857" stroke-width="1.8" stroke-linecap="round" stroke-linejoin="round" fill="#00D2CC"/><path d="M98.524 113.654H48.19c-1.49 0-2.698 1.272-2.698 2.84 0 1.57 1.208 2.842 2.698 2.842h50.333c1.49 0 2.698-1.272 2.698-2.841 0-1.57-1.209-2.841-2.698-2.841z" stroke="#585857" stroke-width="1.8" stroke-linecap="round" stroke-linejoin="round" fill="#00D2CC"/><ellipse stroke="#585857" stroke-width="1.8" stroke-linecap="round" stroke-linejoin="round" fill="#EED554" cx="112.026" cy="117.631" rx="16.491" ry="16.48"/><g stroke-linecap="round" stroke-linejoin="round"><path d="M40.852 98.123c-11.546 0-20.907 9.355-20.907 20.893H61.76c0-11.538-9.36-20.893-20.907-20.893z" stroke="#585857" stroke-width="1.8" fill="#00D2CC"/><path d="M23.929 113.742c2.12-7.278 8.852-12.612 16.811-12.612 7.96 0 14.692 5.333 16.812 12.612" stroke="#FFF"/></g><path d="M62.553 86.377c0 2.51-1.944 4.546-4.341 4.546H21.401c-2.398 0-4.341-2.036-4.341-4.546 0-2.511 1.943-4.546 4.34-4.546h36.812c2.397 0 4.34 2.036 4.34 4.546z" stroke="#585857" stroke-width="1.8" stroke-linecap="round" stroke-linejoin="round" fill="#C4C4C3"/><ellipse stroke="#585857" stroke-width="1.8" stroke-linecap="round" stroke-linejoin="round" fill="#C4C4C3" cx="112.595" cy="118.2" rx="7.961" ry="7.956"/><path d="M97.016 51.144h-9.442v17.048h9.442c4.836 0 8.755-3.816 8.755-8.524 0-4.708-3.92-8.524-8.755-8.524z" stroke="#585857" stroke-width="1.8" stroke-linecap="round" stroke-linejoin="round" fill="#EED554"/><path d="M68.24 53.985a2.85 2.85 0 0 0 2.856 2.842h18.171a2.85 2.85 0 0 0 2.856-2.842 2.85 2.85 0 0 0-2.856-2.84H71.096a2.849 2.849 0 0 0-2.857 2.84z" stroke="#585857" stroke-width="1.8" stroke-linecap="round" stroke-linejoin="round" fill="#C4C4C3"/><path d="M90.986 70.465l13.648 19.321M20.472 83.83h35.257m37.394 24.277c3.534-7.366 11.379-12.502 20.469-12.502 8.22 0 15.42 4.199 19.338 10.45" stroke="#FFF" stroke-linecap="round" stroke-linejoin="round"/><g transform="translate(0 22.22)" stroke-width="1.8" stroke-linecap="round" stroke-linejoin="round"><path d="M60.63 44.45c0-8.982 1.27-28.068 4.641-33.958C62.032 4.64 57.597.946 52.59.946c-14.633 0-18.661 24.594-18.661 42.572" stroke="#585857" fill="#C4C4C3"/><path d="M76.407 56.314c.715-6.548-6.564-6.726-7.228-6.609h-7.771a13.51 13.51 0 0 0-.662-4.173l-25.585-1.081a13.51 13.51 0 0 0-1.06 5.254c0 7.504 6.113 13.585 13.655 13.585h15.083l-1.216 22.195 12.198 1.984 2.586-31.155" stroke="#585857" fill="#ADE3FD"/><path d="M64.056 49.4h-13.12" stroke="#59595B"/><path d="M70.336 81.407l-.026.002h-3.526v-.002h-2.947c-1.142 0-2.07.923-2.07 2.06v6.466h5.016v-.028h3.526l8.54.028c.014-4.695-3.795-8.512-8.513-8.526z" stroke="#59595B" fill="#FFF"/><ellipse stroke="#585857" fill="#EFD896" cx="75.592" cy="29.727" rx="4.597" ry="4.574"/><path d="M46.458 12.82c1.839 12.505 12.665 22.106 25.744 22.106V24.24c-7.24 0-13.302-5.007-14.88-11.731" stroke="#585857" fill="#C4C4C3"/></g><path d="M62.365 10.81l3.346.932 10.708 2.99a13.479 13.479 0 0 0-3.242-9.497A13.504 13.504 0 0 0 66.473.997c-7.23-1.981-14.702 2.245-16.692 9.437L44.824 25.46l3.79 1.184 14.27 4.457c.657.326 1.37.553 2.124.663.341.05.688.085 1.042.085a7.095 7.095 0 0 0 6.51-4.254c.21-.48.363-.986.462-1.512l1.097-2.46-14.245-3.978a4.57 4.57 0 0 1-1.937-1.127c-1.183-1.133-1.731-2.847-1.257-4.53.687-2.442 3.234-3.865 5.685-3.18z" fill="#F5DE6E"/><path d="M56.679 13.988c.688-2.44 3.235-3.863 5.686-3.179l14.054 3.925A13.507 13.507 0 0 0 66.473.998c-7.23-1.98-14.702 2.245-16.692 9.437l-4.958 15.027 18.06 5.641c.657.326 1.37.553 2.124.663.34.05.688.085 1.042.085a7.095 7.095 0 0 0 6.51-4.254c.21-.48.363-.985.462-1.512l1.097-2.46-14.246-3.978c-2.452-.687-3.881-3.22-3.193-5.66z" stroke="#59595B" stroke-width="1.8" stroke-linecap="round" stroke-linejoin="round"/><path d="M48.495 23.583L52.577 11.2c1.271-4.596 5.5-7.806 10.284-7.806.955 0 1.91.13 2.842.384 3.529.966 6.241 3.678 7.324 7.011" stroke="#FFF" stroke-linecap="round" stroke-linejoin="round"/><path d="M62.365 10.81c-2.451-.685-4.998.738-5.686 3.178-.592 2.1.39 4.263 2.24 5.263l8.427-7.051-4.981-1.39z" fill="#C8EAFD"/><path d="M67.346 12.2l-8.428 7.05c.3.162.614.3.955.395l5.565 1.555L73.8 14l-6.454-1.8z" fill="#ADE3FD"/><path d="M73.799 14.001L65.437 21.2l8.681 2.425 1.838-6.023c.264-.956.41-1.916.463-2.868L73.8 14z" fill="#C8EAFD"/><path d="M76.42 14.733l-14.055-3.925c-2.451-.684-4.998.739-5.686 3.179-.688 2.44.741 4.972 3.193 5.657l14.246 3.978 1.838-6.022c.264-.954.411-1.914.463-2.867z" stroke="#585857" stroke-width="1.8" stroke-linecap="round" stroke-linejoin="round"/><path d="M56.679 13.988c-.474 1.682.074 3.396 1.257 4.53l7.775-6.776-3.346-.933c-2.451-.685-4.998.738-5.686 3.179z"/><path d="M50.042 35.233s1.905 15.14 19.335 19.32M37.532 55.69s2.18-21.588 9.098-27.277" stroke="#FFF" stroke-linecap="round" stroke-linejoin="round"/><path stroke="#585857" stroke-width="1.8" stroke-linecap="round" stroke-linejoin="round" fill="#78C6E7" d="M60.278 98.879h14.785v5.683H60.278z"/></g><path d="M134.323 122.818l-26.502-.078c-1.842-.016-3.325-1.574-3.31-3.483l1.902-17.988c.015-1.909 1.52-3.444 3.362-3.428l22.052.086c1.843.016 3.324 1.574 3.31 3.483l2.547 17.979c-.014 1.907-1.52 3.442-3.36 3.429z" stroke="#585857" stroke-width="1.8" stroke-linecap="round" stroke-linejoin="round" fill="#00D2CC"/><path stroke="#FFF" stroke-linecap="round" stroke-linejoin="round" d="M107.928 117.968l1.824-17.242 21.36.085"/><path d="M121.435 105.257c-1.942 0-3.522 1.636-3.522 3.647 0 .766.231 1.501.665 2.128l.094.134 1.833 2.68s.223.378.711.378h.437c.49 0 .712-.379.712-.379l1.835-2.68.092-.133a3.712 3.712 0 0 0 .665-2.128c0-2.011-1.58-3.647-3.522-3.647m1.45 4.725l-.097.14-1.352 1.975-1.349-1.972-.1-.142a1.886 1.886 0 0 1-.338-1.08c0-1.02.801-1.85 1.787-1.85.986 0 1.787.83 1.787 1.85 0 .388-.117.76-.338 1.079m-2.44 5.888v-.009a.98.98 0 0 1 .983-.996.97.97 0 0 1 .979.99v.006a.98.98 0 0 1-.987.992.967.967 0 0 1-.975-.984" fill="#FFF"/><path d="M146.9 100.741l-25.578-6.934c-1.776-.492-2.805-2.381-2.297-4.22l6.494-16.884c.507-1.84 2.359-2.933 4.134-2.441l21.278 5.79c1.776.493 2.804 2.381 2.296 4.221L151.034 98.3c-.508 1.838-2.358 2.932-4.134 2.442z" stroke="#585857" stroke-width="1.8" stroke-linecap="round" stroke-linejoin="round" fill="#FDA283"/><path stroke="#FFF" stroke-linecap="round" stroke-linejoin="round" d="M122.66 89.225l6.224-16.182 20.61 5.61"/><path d="M138.996 80.443c-1.876-.503-3.825.669-4.346 2.612-.198.74-.165 1.51.092 2.226l.056.154 1.077 3.063s.118.424.59.55l.135.037.18.048.107.028c.472.127.785-.182.785-.182l2.465-2.113.125-.106a3.712 3.712 0 0 0 1.192-1.882c.52-1.943-.582-3.933-2.458-4.435m.178 4.94l-.13.11-1.817 1.557-.793-2.253-.059-.164a1.886 1.886 0 0 1-.048-1.13c.264-.986 1.254-1.58 2.206-1.325.952.255 1.511 1.264 1.247 2.25a1.89 1.89 0 0 1-.606.954m-3.881 5.055l.002-.007a.98.98 0 0 1 1.207-.708.97.97 0 0 1 .69 1.21l-.002.006a.979.979 0 0 1-1.21.702.967.967 0 0 1-.687-1.203" fill="#FFF"/><path d="M129.069 69.15l-22.99 13.184c-1.604.908-3.667.3-4.609-1.36l-7.346-16.53c-.942-1.66-.406-3.742 1.197-4.65l19.141-10.95c1.604-.909 3.666-.3 4.608 1.36l11.195 14.297c.941 1.659.406 3.74-1.196 4.65z" stroke="#585857" stroke-width="1.8" stroke-linecap="round" stroke-linejoin="round" fill="#F9C05D"/><path stroke="#FFF" stroke-linecap="round" stroke-linejoin="round" d="M103.785 78.149l-7.04-15.844 18.54-10.607"/><path d="M109.127 60.387c-1.682.97-2.232 3.178-1.226 4.92.383.663.95 1.184 1.639 1.51l.148.069 2.928 1.404s.383.216.805-.028l.122-.07.161-.093.096-.055c.424-.245.427-.685.427-.685l.249-3.237.013-.163a3.712 3.712 0 0 0-.488-2.174c-1.006-1.742-3.192-2.37-4.874-1.398m3.618 3.366l-.014.171-.183 2.386-2.154-1.033-.158-.074a1.886 1.886 0 0 1-.833-.765c-.51-.884-.23-2.004.623-2.497.853-.492 1.963-.174 2.473.71.193.336.279.717.246 1.102m.831 6.32l-.004-.007a.98.98 0 0 1 .353-1.355.97.97 0 0 1 1.342.368l.004.006a.979.979 0 0 1-.359 1.352.967.967 0 0 1-1.336-.364" fill="#FFF"/><path d="M170.01 80.788l-25.578-6.934c-1.776-.492-2.805-2.381-2.296-4.22l6.493-16.884c.508-1.84 2.36-2.933 4.134-2.441l21.279 5.791c1.776.492 2.803 2.38 2.296 4.22l-2.194 18.026c-.507 1.839-2.358 2.932-4.133 2.442z" stroke="#585857" stroke-width="1.8" stroke-linecap="round" stroke-linejoin="round" fill="#C4C4C3"/><path stroke="#FFF" stroke-linecap="round" stroke-linejoin="round" d="M145.77 69.273l6.225-16.183 20.61 5.61"/><path d="M162.107 60.49c-1.876-.502-3.825.67-4.346 2.612-.198.74-.165 1.51.091 2.227l.056.154 1.078 3.062s.117.424.589.55l.136.037.18.048.106.029c.473.126.786-.182.786-.182l2.465-2.114.124-.105a3.712 3.712 0 0 0 1.193-1.883c.52-1.943-.582-3.932-2.458-4.435m.178 4.94l-.13.11-1.818 1.558-.792-2.254-.06-.164a1.886 1.886 0 0 1-.047-1.13c.264-.986 1.253-1.58 2.205-1.325.952.255 1.512 1.264 1.247 2.25a1.89 1.89 0 0 1-.605.954m-3.881 5.056l.002-.008a.98.98 0 0 1 1.207-.708.97.97 0 0 1 .69 1.21l-.002.006a.979.979 0 0 1-1.21.703.967.967 0 0 1-.687-1.203" fill="#FFF"/><path d="M152.245 48.811l-25.939 5.434c-1.805.368-3.58-.848-3.962-2.718l-1.879-17.99c-.383-1.87.77-3.685 2.575-4.053l21.589-4.5c1.805-.368 3.578.848 3.961 2.718l6.23 17.057c.382 1.868-.77 3.683-2.575 4.052z" stroke="#585857" stroke-width="1.8" stroke-linecap="round" stroke-linejoin="round" fill="#78C6E7"/><path stroke="#FFF" stroke-linecap="round" stroke-linejoin="round" d="M125.418 49.556l-1.8-17.245 20.91-4.358"/><path d="M135.988 34.314c-1.9.404-3.105 2.333-2.687 4.3.16.75.538 1.42 1.092 1.943l.12.111 2.35 2.24s.298.324.775.223l.138-.03.182-.038.108-.023c.478-.102.617-.519.617-.519l1.237-3.002.063-.15c.295-.703.367-1.47.208-2.22-.418-1.967-2.304-3.239-4.203-2.835m2.4 4.32l-.066.158-.911 2.213-1.73-1.649-.127-.119a1.886 1.886 0 0 1-.555-.985c-.213-.998.399-1.977 1.363-2.182.964-.205 1.92.44 2.133 1.44.08.379.043.767-.106 1.124m-1.163 6.266l-.002-.007a.98.98 0 0 1 .754-1.18.97.97 0 0 1 1.163.765l.002.007a.979.979 0 0 1-.759 1.175.967.967 0 0 1-1.158-.76" fill="#FFF"/><path d="M107.426 50.562l-25.579-6.934c-1.776-.492-2.805-2.381-2.297-4.22l6.494-16.884c.508-1.84 2.36-2.933 4.134-2.441l21.279 5.79c1.776.493 2.803 2.382 2.295 4.221L111.56 48.12c-.507 1.839-2.358 2.932-4.133 2.442z" stroke="#585857" stroke-width="1.8" stroke-linecap="round" stroke-linejoin="round" fill="#00D2CC"/><path stroke="#FFF" stroke-linecap="round" stroke-linejoin="round" d="M83.184 39.046l6.226-16.182 20.61 5.61"/><path d="M99.522 30.264c-1.876-.503-3.826.669-4.346 2.612-.199.74-.166 1.51.091 2.227l.056.153L96.4 38.32s.118.424.59.55l.136.037.18.048.106.029c.472.126.785-.183.785-.183l2.466-2.113.124-.105a3.712 3.712 0 0 0 1.193-1.883c.52-1.943-.582-3.932-2.458-4.435m.178 4.94l-.131.11-1.817 1.558-.792-2.254-.06-.164a1.886 1.886 0 0 1-.047-1.13c.264-.986 1.253-1.58 2.205-1.325.952.255 1.511 1.264 1.247 2.25a1.89 1.89 0 0 1-.605.954m-3.882 5.055l.003-.008a.98.98 0 0 1 1.207-.708.97.97 0 0 1 .69 1.21l-.003.006a.979.979 0 0 1-1.21.702.967.967 0 0 1-.687-1.202" fill="#FFF"/></g></svg>