<svg xmlns="http://www.w3.org/2000/svg" viewBox="0 0 315.9 96.6"><defs><linearGradient id="a" x1="179.54" y1="326.1" x2="191.31" y2="374.42" gradientTransform="translate(0 52)" gradientUnits="userSpaceOnUse"><stop offset="0" stop-color="#18667c"/><stop offset="1" stop-color="#84b9bb"/></linearGradient><linearGradient id="b" x1="165.19" y1="332.99" x2="197.25" y2="350.33" gradientTransform="translate(0 52)" gradientUnits="userSpaceOnUse"><stop offset="0" stop-color="#3a969a"/><stop offset="1" stop-color="#d2d890"/></linearGradient><linearGradient id="c" x1="202.15" y1="361.93" x2="202.15" y2="345.23" gradientTransform="translate(0 52)" gradientUnits="userSpaceOnUse"><stop offset="0" stop-color="#e0b477"/><stop offset="1" stop-color="#ce815f"/></linearGradient><linearGradient id="d" x1="171.36" y1="382.16" x2="196.69" y2="356.39" gradientTransform="translate(0 52)" gradientUnits="userSpaceOnUse"><stop offset="0" stop-color="#69367f"/><stop offset="1" stop-color="#ba383a"/></linearGradient></defs><title>gplay-glovo2</title><path d="M298.1 0H18.5C8.3 0 0 7.4 0 16.4v63.8c0 9 8.3 16.4 18.5 16.4h279.6c10.6 0 17.8-5.9 17.8-14.8V16.4c0-9.2-7.8-16.4-17.8-16.4z" fill="#3f3f3d"/><path d="M80.3 15.8a7.49 7.49 0 0 1 10.4.3 15.93 15.93 0 0 1-1.3 1.3 5.5 5.5 0 0 0-7.7-.2c-2.8 2.4-2.2 7.4 1 9.2 3 1.8 7.6 0 7.9-3.7h-5.2v-1.9h7.1a8.83 8.83 0 0 1-.5 4.3 7 7 0 0 1-6.5 3.8 7.29 7.29 0 0 1-7.1-5.2 7.52 7.52 0 0 1 1.9-7.9m14.2-1.6h8.5V16h-6.6v4.5h5.9v1.8h-5.9v4.4h6.6v1.9h-8.5V14.2m9.9 0h9.9V16h-4v12.6h-1.9V16h-4v-1.8m16.1 0h2v14.4h-2V14.2m3.6 0h9.9V16h-4v12.6h-1.9V16h-4v-1.8m20.1.1a7.48 7.48 0 0 1 7.7 1.5 7.73 7.73 0 0 1-.1 11.2 7.59 7.59 0 0 1-10.9-1.1c-3-3.7-1.3-10 3.3-11.6m1.1 1.6c-3.1.8-4.7 4.6-3.6 7.5a5.36 5.36 0 0 0 7.7 2.9c3.3-1.7 3.7-6.7 1.1-9.2a5.7 5.7 0 0 0-5.2-1.2m11.1-1.7h2.3c2.3 3.7 4.6 7.3 6.9 11v-11h1.9v14.4h-2c-2.5-3.9-4.8-7.8-7.3-11.6.3 3.9.1 7.8.1 11.6h-1.9V14.2M78 49.8a17.15 17.15 0 0 1 13.7-9.9 16.46 16.46 0 0 1 13 4.5c-1.1 1.1-2.2 2.2-3.2 3.3A11.8 11.8 0 0 0 84.1 49a12.33 12.33 0 0 0-2.4 9.3 11.77 11.77 0 0 0 6.9 9.2c4.4 2 10.1 1.1 13.3-2.6a10.57 10.57 0 0 0 2.2-5.2c-3.6-.1-7.2 0-10.8 0V55h15.2a17.09 17.09 0 0 1-2.1 11.7 14.25 14.25 0 0 1-10.6 6.4 17.08 17.08 0 0 1-10.2-1.7 16.63 16.63 0 0 1-8.8-11.8 16.36 16.36 0 0 1 1.2-9.8m104.3-8.3h4.8v31.3h-4.8V41.5m38.3 0h10.8a10.91 10.91 0 0 1 7.1 2.6 9.55 9.55 0 0 1-1.9 15.6c-3.4 1.9-7.5 1.2-11.2 1.3v11.7h-4.9c.1-10.5.1-20.9.1-31.2m4.9 4.8v9.9c2.2 0 4.4.1 6.6 0a4.91 4.91 0 0 0 0-9.8c-2.1-.2-4.4-.1-6.6-.1m20.1 26.3V41.5h5.1v31.1h-5.1m9.1-17.2c2.6-5.4 10-6.4 14.9-3.8a8.76 8.76 0 0 1 4.5 7.4c.1 4.5 0 9.1 0 13.6h-5V70c-3.2 5.1-12.1 4.1-14.4-1.4a7 7 0 0 1 3-8.7 12.61 12.61 0 0 1 11.5-.5c-.1-4.9-7.7-6.1-9.9-2-1.5-.7-3.1-1.2-4.6-2m5.8 8.1a2.62 2.62 0 0 0 .2 4.5c3.5 1.9 7.9-.9 8.4-4.6-2.6-1.3-6.1-1.6-8.6.1m-141-11.7a10.64 10.64 0 0 1 10.6 3.7 10.85 10.85 0 0 1-15.9 14.7c-3.3-3-4.1-8.1-2.5-12.2a10.7 10.7 0 0 1 7.8-6.2m.4 4.4a6.29 6.29 0 0 0-4.1 6.1 6.14 6.14 0 0 0 5.4 6.4c3.7.4 6.9-3.3 6.5-6.9 0-3.7-4.1-7-7.8-5.6m22.7-4.4a11.32 11.32 0 0 1 10.1 2.9 10.84 10.84 0 1 1-15.5 0 11.42 11.42 0 0 1 5.4-2.9m.7 4.4c-3.3.9-5.1 4.9-4.1 8.1a6 6 0 0 0 7.2 4.4c3.3-.8 5.2-4.6 4.4-7.8a6 6 0 0 0-7.5-4.7m19.4-2.7c3.3-2.5 8.5-2.6 11.5.4v-1.7h4.6v19.7c0 3.2-1 6.7-3.7 8.7a10.88 10.88 0 0 1-13.8-.9 12.11 12.11 0 0 1-2.4-3.5l4.2-1.8a8.55 8.55 0 0 0 2.2 2.8 5.62 5.62 0 0 0 7.9-1.3c1-1.6.9-3.5.9-5.3a7.78 7.78 0 0 1-6.8 2.3 10.66 10.66 0 0 1-8.7-7.1 11.16 11.16 0 0 1 4.1-12.3M168 56a6.32 6.32 0 0 0-5 7.1c.2 3.4 3.5 6.3 6.9 5.5s5.1-4.3 4.5-7.4c-.3-3-3.2-5.8-6.4-5.2m25-1.7a10 10 0 0 1 11-1.7 11.49 11.49 0 0 1 5.5 7.2c-4.8 2-9.5 3.9-14.3 5.9a5.8 5.8 0 0 0 3.6 2.9 6.39 6.39 0 0 0 6.9-2.8c1.3.8 2.5 1.7 3.7 2.5a10.26 10.26 0 0 1-5.3 4.1 10.78 10.78 0 0 1-11-2.2c-4.4-4-4.4-11.8-.1-15.9m1.4 7.6c3.2-1.3 6.4-2.6 9.5-3.9a4.52 4.52 0 0 0-5.2-2 6.12 6.12 0 0 0-4.3 5.9m81.3-10.5h5.5c2 4.9 4 9.7 6 14.6 1.9-4.9 3.7-9.7 5.6-14.6h5.7L285 82.3h-5.4c1.6-3.5 3.3-7 4.9-10.5-2.8-6.7-5.8-13.5-8.8-20.4z" fill="#fff"/><path d="M165.9 405.5v-22.1a2.31 2.31 0 0 1 2.2-2.3 3.39 3.39 0 0 1 2 .6l40.6 22.2a1.76 1.76 0 0 1 0 3.4l-40.6 22.2a3.39 3.39 0 0 1-2 .6 2.38 2.38 0 0 1-2.2-2.3v-22.3z" transform="translate(-148.6 -347.7)" fill="url(#a)"/><path d="M192.2 405.6L167.6 381h.4a3.39 3.39 0 0 1 2 .6l29.9 16.3z" transform="translate(-148.6 -347.7)" fill="url(#b)"/><path d="M199.8 413.1l-7.5-7.5 7.7-7.7 10.7 5.8a1.76 1.76 0 0 1 0 3.4z" transform="translate(-148.6 -347.7)" fill="url(#c)"/><path d="M167.9 429.9l24.3-24.3 7.5 7.5-29.7 16.2a3.39 3.39 0 0 1-2 .6h-.1z" transform="translate(-148.6 -347.7)" fill="url(#d)"/></svg>