<?xml version="1.0" encoding="UTF-8" standalone="no"?>
<svg width="170px" height="170px" viewBox="0 0 170 170" version="1.1" xmlns="http://www.w3.org/2000/svg" xmlns:xlink="http://www.w3.org/1999/xlink">
    <!-- Generator: sketchtool 3.7.2 (28276) - http://www.bohemiancoding.com/sketch -->
    <title>0CC80E60-C0F3-44D0-BB5F-DB5FFE86BFE8</title>
    <desc>Created with sketchtool.</desc>
    <defs></defs>
    <g id="Page-1" stroke="none" stroke-width="1" fill="none" fill-rule="evenodd">
        <g id="Artboard-1" transform="translate(-1507.000000, -104.000000)">
            <g id="icons" transform="translate(-36.000000, 91.000000)">
                <g id="Group" transform="translate(1543.000000, 13.000000)">
                    <path d="M121.647,116.383 C121.647,119.262 119.314,121.595 116.435,121.595 L95.212,121.595 C92.334,121.595 90,119.262 90,116.383 L90,65.212 C90,62.333 92.333,60 95.212,60 L116.435,60 C119.313,60 121.647,62.333 121.647,65.212 L121.647,116.383 L121.647,116.383 Z" id="Shape" stroke="#585857" stroke-width="3.6388" fill="#76CAC6"></path>
                    <path d="M140.546159,129.493168 C140.295159,132.361168 137.767159,134.482168 134.900159,134.231168 L113.758159,132.381168 C110.891159,132.130168 108.769159,129.602168 109.020159,126.735168 L113.480159,75.7581677 C113.731159,72.8901677 116.259159,70.7691677 119.126159,71.0201677 L140.268159,72.8701677 C143.135159,73.1211677 145.257159,75.6491677 145.006159,78.5161677 L140.546159,129.493168 L140.546159,129.493168 Z" id="Shape" stroke="#585857" stroke-width="3.6388" fill="#E6AD4F"></path>
                    <circle id="Oval" stroke="#585857" stroke-width="3.6388" fill="#D8234D" cx="57.677" cy="83.677" r="18.677"></circle>
                    <g transform="translate(48.000000, 57.000000)" id="Shape">
                        <path d="M15.773163,23.675 C14.951163,23.675 14.167163,23.28 13.676163,22.62 L10.325163,18.14 L4.616163,18.386 C3.515163,18.386 2.525163,17.689 2.154163,16.651 C1.766163,15.561 2.127163,14.367 3.050163,13.675 L7.535163,10.322 L7.292163,4.729 C7.240163,3.576 7.938163,2.539 9.027163,2.151 C9.310163,2.05 9.605163,2 9.905163,2 C10.725163,2 11.509163,2.392 12.000163,3.048 L15.353163,7.533 L21.055163,7.287 C22.149163,7.287 23.125163,8.016 23.486163,9.102 C23.845163,10.182 23.499163,11.345 22.626163,11.998 L18.143163,15.35 L18.387163,20.944 C18.436163,22.1 17.738163,23.135 16.652163,23.522 C16.369163,23.624 16.074163,23.675 15.773163,23.675 L15.773163,23.675 L15.773163,23.675 Z" fill="#6A9E89"></path>
                        <path d="M9.72787675,3.639 C9.97387675,3.639 10.2118767,3.753 10.3658767,3.959 L14.2928767,9.213 L20.8468767,8.928 C20.8568767,8.928 20.8668767,8.927 20.8768767,8.927 C21.5548767,8.927 21.9098767,9.949 21.3578767,10.361 L16.1038767,14.289 L16.3908767,20.843 C16.4058767,21.193 16.1918767,21.511 15.8618767,21.628 C15.7738767,21.659 15.6838767,21.674 15.5938767,21.674 C15.3478767,21.674 15.1098767,21.56 14.9558767,21.354 L11.0268767,16.099 L4.47287675,16.384 C4.46087675,16.385 4.44887675,16.385 4.43787675,16.385 C4.10287675,16.385 3.80287675,16.175 3.68887675,15.856 C3.57087675,15.526 3.68187675,15.159 3.96187675,14.951 L9.21587675,11.023 L8.93087675,4.47 C8.91487675,4.12 9.12987675,3.803 9.45887675,3.685 C9.54787675,3.654 9.63887675,3.639 9.72787675,3.639 L9.72787675,3.639 Z M9.72787675,-2.84217094e-14 L9.72787675,-2.84217094e-14 C9.21787675,-2.84217094e-14 8.71687675,0.087 8.23587675,0.258 C6.39087675,0.916 5.20887675,2.674 5.29587675,4.632 L5.49687675,9.26 L1.78287675,12.037 C0.215876746,13.206 -0.397123254,15.234 0.261876746,17.08 C0.889876746,18.841 2.56887675,20.024 4.43787675,20.024 L4.51787675,20.024 L4.63287675,20.02 L9.26387675,19.819 L12.0408767,23.534 C12.8708767,24.647 14.1998767,25.314 15.5928767,25.314 C16.1018767,25.314 16.6028767,25.227 17.0828767,25.056 C18.9268767,24.398 20.1088767,22.642 20.0238767,20.686 L19.8208767,16.051 L23.5348767,13.274 C25.0358767,12.154 25.6378767,10.174 25.0318767,8.349 C24.4238767,6.518 22.7528767,5.287 20.8738767,5.287 L20.7938767,5.287 L20.6838767,5.291 L16.0528767,5.492 L13.2768767,1.779 C12.4468767,0.665 11.1188767,-2.84217094e-14 9.72787675,-2.84217094e-14 L9.72787675,-2.84217094e-14 L9.72787675,-2.84217094e-14 Z" fill="#585857"></path>
                    </g>
                    <circle id="Oval" stroke="#585857" stroke-width="3.6388" fill="#DB5863" cx="31.677" cy="88.677" r="18.677"></circle>
                    <g transform="translate(10.000000, 65.000000)" id="Shape">
                        <path d="M11.1503024,24.182 C10.9523024,24.182 10.7533024,24.16 10.5593024,24.115 C9.43430243,23.857 8.62130243,22.907 8.54030243,21.751 L8.14030243,16.17 L3.30130243,13.354 C2.30330243,12.775 1.80730243,11.627 2.06930243,10.501 C2.33030243,9.378 3.27830243,8.567 4.42830243,8.483 L10.0143024,8.084 L12.8303024,3.245 C13.2813024,2.466 14.1083024,2 15.0413024,2 C16.4373024,2 17.6043024,3.043 17.6993024,4.374 L18.0993024,9.958 L22.9393024,12.773 C23.9383024,13.353 24.4343024,14.5 24.1723024,15.626 C23.9103024,16.752 22.9603024,17.564 21.8073024,17.645 L16.2253024,18.044 L13.4093024,22.883 C12.9463024,23.683 12.0803024,24.182 11.1503024,24.182 L11.1503024,24.182 L11.1503024,24.182 Z" fill="#6A9E89"></path>
                        <path d="M14.8617679,3.638 C15.2607679,3.638 15.6757679,3.897 15.7057679,4.322 L16.1747679,10.866 L21.8457679,14.164 C22.1477679,14.34 22.2997679,14.693 22.2207679,15.033 C22.1417679,15.373 21.8507679,15.623 21.5017679,15.647 L14.9577679,16.116 L11.6577679,21.786 C11.5127679,22.035 11.2487679,22.182 10.9697679,22.182 C10.9097679,22.182 10.8497679,22.175 10.7897679,22.161 C10.4487679,22.082 10.1997679,21.79 10.1747679,21.442 L9.70576789,14.898 L4.03676789,11.599 C3.73376789,11.423 3.58276789,11.071 3.66176789,10.731 C3.74076789,10.391 4.03176789,10.141 4.38076789,10.116 L10.9227679,9.648 L14.2227679,3.978 C14.3597679,3.744 14.6077679,3.638 14.8617679,3.638 L14.8617679,3.638 Z M14.8617679,-2.84217094e-14 C13.2747679,-2.84217094e-14 11.8597679,0.804 11.0767679,2.152 L8.74576789,6.157 L4.12176789,6.488 C2.16676789,6.63 0.558767887,8.005 0.116767887,9.911 C-0.326232113,11.822 0.516767887,13.766 2.21276789,14.749 L6.21476789,17.078 L6.54676789,21.704 C6.68476789,23.655 8.05976789,25.265 9.96876789,25.708 C10.2967679,25.784 10.6347679,25.823 10.9707679,25.823 C12.5447679,25.823 14.0137679,24.978 14.8047679,23.617 L17.1367679,19.61 L21.7627679,19.279 C23.7127679,19.142 25.3237679,17.767 25.7667679,15.857 C26.2077679,13.951 25.3697679,12.009 23.6797679,11.023 L19.6677679,8.69 L19.3357679,4.065 C19.1737679,1.786 17.2087679,-2.84217094e-14 14.8617679,-2.84217094e-14 L14.8617679,-2.84217094e-14 L14.8617679,-2.84217094e-14 Z" fill="#585857"></path>
                    </g>
                    <g transform="translate(90.000000, 14.000000)" id="Shape">
                        <g>
                            <path d="M53.319,1.26587833 C49.943,-0.20412167 46.351,-0.32712167 43.048,0.55287833 C44.133,0.76887833 45.212,1.08387833 46.268,1.54387833 C54.213,5.00287833 57.849,14.2478783 54.389,22.1918783 L23.378,93.4078783 C21.389,97.9758783 17.467,101.052878 13,102.241878 C20.08,103.648878 27.429,100.017878 30.428,93.1298783 L61.439,21.9138783 C64.9,13.9708783 61.264,4.72587833 53.319,1.26587833 L53.319,1.26587833 Z" fill="#E9BE64"></path>
                            <path d="M23.0274928,92.855 L54.0384928,21.639 C57.4984928,13.695 53.8624928,4.45 45.9174928,0.991 C44.8614928,0.531 43.7824928,0.215 42.6974928,2.84217094e-14 C38.2304928,1.189 34.3084928,4.266 32.3194928,8.834 L1.30849284,80.05 C-2.15050716,87.995 1.48449284,97.239 9.42949284,100.699 C10.4854928,101.159 11.5644928,101.475 12.6494928,101.69 C17.1174928,100.5 21.0384928,97.423 23.0274928,92.855 L23.0274928,92.855 Z" fill="#EFD896"></path>
                        </g>
                        <path d="M30.0773459,93.1723459 C26.6183459,101.116346 17.3733459,104.752346 9.42934588,101.293346 L9.42934588,101.293346 C1.48534588,97.8343459 -2.15065412,88.5893459 1.30834588,80.6453459 L32.3193459,9.42934588 C35.7783459,1.48534588 45.0233459,-2.15065412 52.9673459,1.30834588 L52.9673459,1.30834588 C60.9123459,4.76734588 64.5473459,14.0123459 61.0883459,21.9563459 L30.0773459,93.1723459 L30.0773459,93.1723459 Z" stroke="#585857" stroke-width="3.6388"></path>
                        <path d="M48.215,19 C42.283,23.376 34.245,24.557 27,21.403" stroke="#585857" stroke-width="3.6388"></path>
                        <path d="M41.215,36 C35.283,40.376 27.245,41.557 20,38.403" stroke="#585857" stroke-width="3.6388"></path>
                        <path d="M33.215,54 C27.283,58.376 19.245,59.557 12,56.403" stroke="#585857" stroke-width="3.6388"></path>
                        <path d="M26.215,71 C20.283,75.376 12.245,76.557 5,73.403" stroke="#585857" stroke-width="3.6388"></path>
                    </g>
                    <path d="M92.355,95.009 C92.355,99.525 88.694,103.187 84.177,103.187 L84.177,103.187 C79.661,103.187 76,99.526 76,95.009 L76,37.178 C76,32.662 79.661,29 84.177,29 L84.177,29 C88.693,29 92.355,32.661 92.355,37.178 L92.355,95.009 L92.355,95.009 Z" id="Shape" stroke="#585857" stroke-width="3.6388" fill="#EED554"></path>
                    <path d="M15,102 L18.609,145.459 C18.609,155.123 26.443,162.957 36.107,162.957 L130.769,162.957 C140.433,162.957 148.267,155.123 148.267,145.459 L151.876,102 L15,102 L15,102 Z" id="Shape" stroke="#585857" stroke-width="3.6388" fill="#BCE1FB"></path>
                    <g transform="translate(25.000000, 93.000000)" id="Shape" stroke="#585857" stroke-width="3.6388" fill="#C2C2C1">
                        <path d="M14.467,51.89 C14.467,54.766 12.135,57.098 9.259,57.098 L9.259,57.098 C6.383,57.098 4.051,54.766 4.051,51.89 L-4.54747351e-13,5.208 C-4.54747351e-13,2.332 2.332,0 5.208,0 L5.208,0 C8.084,0 10.416,2.332 10.416,5.208 L14.467,51.89 L14.467,51.89 Z"></path>
                        <path d="M38.863,51.89 C38.863,54.766 36.531,57.098 33.655,57.098 L33.655,57.098 C30.779,57.098 28.447,54.766 28.447,51.89 L27,5.208 C27,2.332 29.332,0 32.208,0 L32.208,0 C35.084,0 37.416,2.332 37.416,5.208 L38.863,51.89 L38.863,51.89 Z"></path>
                        <path d="M78,51.89 C78,54.766 80.332,57.098 83.208,57.098 L83.208,57.098 C86.084,57.098 88.416,54.766 88.416,51.89 L89.863,5.208 C89.863,2.332 87.531,0 84.655,0 L84.655,0 C81.779,0 79.447,2.332 79.447,5.208 L78,51.89 L78,51.89 Z"></path>
                        <path d="M102,51.89 C102,54.766 104.332,57.098 107.208,57.098 L107.208,57.098 C110.084,57.098 112.416,54.766 112.416,51.89 L116.467,5.208 C116.467,2.332 114.135,0 111.259,0 L111.259,0 C108.383,0 106.051,2.332 106.051,5.208 L102,51.89 L102,51.89 Z"></path>
                        <path d="M63.386,51.284 C63.386,54.152 61.061,56.477 58.193,56.477 L58.193,56.477 C55.325,56.477 53,54.152 53,51.284 L53,9.193 C53,6.325 55.325,4 58.193,4 L58.193,4 C61.061,4 63.386,6.325 63.386,9.193 L63.386,51.284 L63.386,51.284 Z"></path>
                    </g>
                    <path d="M157.391,98.488 C157.391,103.176 153.591,106.976 148.903,106.976 L16.488,106.976 C11.8,106.976 8,103.176 8,98.488 L8,98.488 C8,93.8 11.8,90 16.488,90 L148.903,90 C153.591,90.001 157.391,93.801 157.391,98.488 L157.391,98.488 L157.391,98.488 Z" id="Shape" stroke="#585857" stroke-width="3.6388" fill="#C2C2C1"></path>
                    <circle id="Oval" stroke="#585857" stroke-width="3.6388" fill="#EED554" cx="84.346" cy="90.346" r="12.346"></circle>
                    <circle id="Oval" stroke="#585857" stroke-width="3.6388" fill="#E6AD4F" cx="84.787" cy="89.787" r="5.787"></circle>
                    <path d="M81,35 L81,73.356" id="Shape" stroke="#FFFFFF" stroke-width="2.4258"></path>
                </g>
            </g>
        </g>
    </g>
</svg>