<svg width="51" height="51" viewBox="0 0 51 51" xmlns="http://www.w3.org/2000/svg"><title>0C06BBF4-5931-45AB-8713-0419CDEA6E53</title><path d="M14.4 17.224c-1.694 0-3.105 1.412-3.105 3.106 0 1.695 1.411 3.106 3.106 3.106 1.694 0 3.106-1.411 3.106-3.106 0-1.694-1.412-3.106-3.106-3.106zm0 5.083a2 2 0 0 1-1.976-1.977 2 2 0 0 1 1.977-1.976 2 2 0 0 1 1.976 1.976 2 2 0 0 1-1.976 1.977zm21.517-5.083c-1.694 0-3.106 1.412-3.106 3.106 0 1.695 1.412 3.106 3.106 3.106s3.106-1.411 3.106-3.106a3.097 3.097 0 0 0-3.106-3.106zm0 5.083a2 2 0 0 1-1.977-1.977 2 2 0 0 1 1.977-1.976 2 2 0 0 1 1.977 1.976 1.964 1.964 0 0 1-1.977 1.977zM25.413 0C11.408 0 0 11.408 0 25.413s11.351 25.413 25.413 25.413 25.413-11.351 25.413-25.413C50.826 11.408 39.418 0 25.413 0zm7.116 46.252V31.738c-.283-3.558-3.276-6.325-6.89-6.325s-6.608 2.767-6.89 6.325V46.42C9.826 43.541 3.39 35.239 3.39 25.413c0-12.142 9.882-22.025 22.024-22.025 12.142 0 22.024 9.883 22.024 22.025 0 9.657-6.268 17.845-14.908 20.839z" fill-rule="nonzero" fill="#3FA990"/></svg>