<svg width="51" height="51" viewBox="0 0 51 51" xmlns="http://www.w3.org/2000/svg"><title>3D738D30-C30B-473D-A72E-83EC9F452398</title><path d="M25.413 0C11.35 0 0 11.408 0 25.413s11.351 25.413 25.413 25.413 25.413-11.351 25.413-25.413C50.826 11.408 39.418 0 25.413 0zm0 47.438c-12.142 0-22.025-9.883-22.025-22.025S13.271 3.388 25.413 3.388s22.024 9.883 22.024 22.025-9.882 22.024-22.024 22.024zm-8.471-27.672c-.339 0-.565.226-.565.564a2 2 0 0 1-1.976 1.977 2 2 0 0 1-1.977-1.977c0-.338-.226-.564-.565-.564-.338 0-.564.226-.564.564 0 1.695 1.411 3.106 3.106 3.106 1.694 0 3.106-1.411 3.106-3.106a.566.566 0 0 0-.565-.564zm21.516 0c-.339 0-.564.226-.564.564a2 2 0 0 1-1.977 1.977 2 2 0 0 1-1.977-1.977c0-.338-.225-.564-.564-.564-.34 0-.565.226-.565.564 0 1.695 1.412 3.106 3.106 3.106s3.106-1.411 3.106-3.106c0-.338-.226-.564-.565-.564zm-6.72 5.647h-12.65c-.339 0-.565.282-.565.621.283 3.558 3.276 6.325 6.89 6.325s6.607-2.767 6.89-6.325c.056-.339-.226-.621-.565-.621z" fill-rule="nonzero" fill="#40B39C"/></svg>