<svg width="51" height="51" viewBox="0 0 51 51" xmlns="http://www.w3.org/2000/svg"><title>4CDBCB5E-4214-4900-8233-AE2D9A74605F</title><path d="M11.86 20.33a2.53 2.53 0 0 0 2.54 2.542 2.53 2.53 0 0 0 2.542-2.542l-4.687-1.411c-.283.395-.396.903-.396 1.411zm21.516 0a2.53 2.53 0 0 0 2.541 2.542 2.53 2.53 0 0 0 2.541-2.542c0-.508-.17-1.016-.395-1.411l-4.687 1.411zM25.413 0C11.408 0 0 11.408 0 25.413s11.351 25.413 25.413 25.413 25.413-11.351 25.413-25.413C50.826 11.408 39.418 0 25.413 0zm0 47.438c-12.142 0-22.025-9.883-22.025-22.025S13.271 3.388 25.413 3.388s22.024 9.883 22.024 22.025-9.882 22.024-22.024 22.024zm0-22.025c-3.614 0-6.607 2.767-6.89 6.325-.056.339.226.621.565.621h12.706c.34 0 .565-.282.565-.621-.339-3.558-3.332-6.325-6.946-6.325z" fill-rule="nonzero" fill="#3FA990"/></svg>