<svg width="47" height="57" viewBox="0 0 47 57" xmlns="http://www.w3.org/2000/svg"><title>0F60116A-8AAB-4FE3-8A4E-F003CED53AAA</title><g fill-rule="nonzero" fill="#3FA990"><path d="M18.612 24.947c-1.388 0-2.537-1.14-2.537-2.518s1.149-2.519 2.537-2.519 2.536 1.14 2.536 2.519c0 1.378-1.148 2.518-2.536 2.518zm0-4.039c-.862 0-1.58.713-1.58 1.568 0 .855.718 1.568 1.58 1.568.861 0 1.58-.713 1.58-1.568 0-.855-.719-1.568-1.58-1.568zM29.025 24.947c-1.388 0-2.536-1.14-2.536-2.518s1.148-2.519 2.536-2.519c1.388 0 2.537 1.14 2.537 2.519 0 1.378-1.149 2.518-2.537 2.518zm0-4.039c-.861 0-1.58.713-1.58 1.568 0 .855.719 1.568 1.58 1.568.862 0 1.58-.713 1.58-1.568 0-.855-.718-1.568-1.58-1.568z"/><path d="M46.353 40.253c-.195-.514-.583-1.286-1.49-1.736a2.878 2.878 0 0 0 0-2.314c-.323-.707-.841-1.22-1.554-1.414-.777-.257-1.683-.193-2.395.193-1.166.643-1.749 1.8-2.137 3.085l-15.022 5.336-15.022-5.336c-.388-1.22-.97-2.442-2.136-3.085-.713-.386-1.62-.45-2.396-.193-.712.257-1.23.772-1.554 1.414-.324.707-.324 1.543 0 2.314-.971.515-1.36 1.222-1.49 1.736-.194.707-.129 1.414.26 2.057.453.707 1.23 1.221 2.007 1.414 1.36.257 2.525-.321 3.69-1.029l9.26 3.279-4.209 1.478c-1.1-.836-2.46-1.285-3.626-1.028-.777.128-1.49.642-1.942 1.35-.389.642-.454 1.35-.26 2.12.195.772.778 1.35 1.49 1.8-.389.965-.26 1.8-.065 2.314.324.708.842 1.222 1.554 1.479.324.128.648.193.971.193.518 0 .972-.129 1.36-.322 1.23-.642 1.748-1.864 2.137-3.085l10.036-3.535 9.971 3.47c.389 1.222.907 2.443 2.137 3.086a3.25 3.25 0 0 0 1.36.321c.323 0 .712-.064.97-.192.713-.258 1.231-.772 1.555-1.479.194-.514.388-1.35-.065-2.314a3.168 3.168 0 0 0 1.49-1.8c.194-.771.129-1.478-.26-2.12-.388-.708-1.165-1.158-1.942-1.35-1.166-.193-2.46.192-3.626 1.028L31.2 45.909l9.26-3.278c1.1.707 2.33 1.286 3.69 1.029.777-.129 1.554-.707 2.007-1.414a2.339 2.339 0 0 0 .195-1.993zM7.244 41.41c-.194-.064-.453-.064-.647.064-.972.643-2.008 1.221-2.979 1.029-.324-.065-.842-.322-1.1-.772-.195-.321-.26-.642-.13-1.028.194-.707.842-.964 1.036-1.093.065 0 .13-.064.13-.064.647-.45.453-1.029.388-1.157v-.064c-.13-.322-.389-.9-.13-1.543.13-.386.389-.579.777-.707.518-.193 1.036-.064 1.36.064.842.45 1.23 1.35 1.619 2.636a.582.582 0 0 0 .388.385l13.857 4.885-3.626 1.286L7.244 41.41zm28.101 7.392c.194.064.453 0 .648-.129.712-.578 1.813-1.157 2.784-.964.324.064.777.322 1.036.707.194.322.259.707.13 1.093-.195.643-.778.964-1.037 1.093h-.064c-.454.193-.648.643-.454 1.157 0 .064.065.128.065.128.13.193.389.836.13 1.543-.13.386-.389.643-.777.771-.454.193-1.036.065-1.295-.064-.842-.45-1.23-1.478-1.554-2.635-.065-.193-.195-.322-.389-.45l-8.87-3.15 2.007-.707 1.554-.579 6.086 2.186zm9.648-7.135c-.26.45-.777.707-1.101.771-.971.193-2.007-.385-2.978-1.028-.195-.129-.454-.129-.648-.064l-27.26 9.77c-.194.064-.323.193-.388.45-.324 1.093-.712 2.121-1.554 2.635-.323.129-.841.257-1.295.065a1.163 1.163 0 0 1-.777-.772c-.259-.707 0-1.285.13-1.542 0-.065.065-.129.065-.129.129-.514 0-.9-.454-1.157H8.67c-.324-.129-.842-.45-1.036-1.093a1.288 1.288 0 0 1 .13-1.092c.258-.45.711-.708 1.035-.708.13 0 .259-.064.389-.064.906 0 1.813.514 2.395 1.029.194.128.453.192.648.128l6.28-2.25 5.504-1.992 15.54-5.528a.582.582 0 0 0 .388-.386c.389-1.221.842-2.185 1.62-2.635.323-.193.84-.257 1.359-.064.324.128.583.385.777.707a1.731 1.731 0 0 1-.13 1.542v.065c-.064.192-.259.77.389 1.157l.13.064c.194.064.841.386 1.035 1.093.13.385.065.707-.13 1.028z" stroke="#3FA990"/><path d="M28.167 38.403h-9.034c-1.352 0-2.49-1.13-2.49-2.472v-4.378c-.427.141-.854.141-1.352.141-2.56 0-4.837-1.765-5.335-4.237-.427-2.118.356-4.237 1.992-5.508-1.352-2.19-2.134-4.731-2.134-7.344 0-3.743 1.494-7.203 4.126-9.887C16.572 2.105 20.129.693 23.899.693c7.185.212 13.302 5.932 13.73 13.064.212 2.966-.499 5.791-2.064 8.263a5.342 5.342 0 0 1 2.063 4.237c0 3.036-2.49 5.437-5.549 5.437-.497 0-.995-.07-1.422-.212v4.379c0 1.483-1.138 2.542-2.49 2.542zm-10.813-8.545c.143 0 .285.07.356.141.213.142.356.354.356.565v5.367c0 .565.498 1.06 1.067 1.06h9.034c.57 0 1.067-.495 1.067-1.06v-5.367c0-.211.142-.494.356-.565.213-.14.427-.14.711-.07.57.282 1.21.424 1.85.424 2.276 0 4.125-1.837 4.125-4.026 0-1.483-.71-2.754-1.92-3.46-.142-.07-.285-.282-.356-.424a.546.546 0 0 1 .142-.565 12.18 12.18 0 0 0 2.206-7.98c-.427-6.426-5.905-11.51-12.378-11.58a12.876 12.876 0 0 0-8.963 3.6c-2.419 2.331-3.7 5.509-3.7 8.828 0 2.542.783 5.014 2.277 7.132.142.142.142.353.142.565-.07.212-.142.353-.355.424-1.565.918-2.277 2.613-1.92 4.378.426 1.836 2.062 3.108 3.983 3.108.64 0 1.138-.142 1.778-.424-.071 0 0-.07.142-.07z" stroke="#3FA990" stroke-linecap="round" stroke-linejoin="round"/><path d="M22.174 30.258c-.098 0-.195-.049-.292-.097-.244-.145-.292-.435-.146-.676l1.508-2.27a.502.502 0 0 1 .828 0l1.508 2.27c.146.241.098.531-.146.676-.243.145-.535.097-.681-.145l-1.12-1.642-1.119 1.642c0 .193-.194.242-.34.242z"/></g></svg>