<svg width="51" height="51" viewBox="0 0 51 51" xmlns="http://www.w3.org/2000/svg"><title>12152F2E-1CD8-4092-A49F-4D427651A93E</title><path d="M25.413 0C11.408 0 0 11.408 0 25.413s11.351 25.413 25.413 25.413c14.005 0 25.413-11.351 25.413-25.413C50.826 11.408 39.418 0 25.413 0zm0 47.438c-12.142 0-22.025-9.883-22.025-22.025S13.271 3.388 25.413 3.388s22.024 9.883 22.024 22.025-9.882 22.024-22.024 22.024zm6.325-22.025h-12.65c-.339 0-.565.282-.565.621.283 3.558 3.276 6.325 6.89 6.325s6.607-2.767 6.89-6.325c.056-.339-.226-.621-.565-.621zm-17.62-7.172l-.62.621-.622-.621a1.875 1.875 0 0 0-2.654 0 1.875 1.875 0 0 0 0 2.654l.62.621 2.655 2.655 3.276-3.276a1.875 1.875 0 0 0 0-2.654 1.875 1.875 0 0 0-2.655 0zm22.646 0l-.621.621-.621-.621a1.875 1.875 0 0 0-2.655 0 1.875 1.875 0 0 0 0 2.654l3.276 3.276 3.275-3.276a1.875 1.875 0 0 0 0-2.654 1.875 1.875 0 0 0-2.654 0z" fill-rule="nonzero" fill="#3FA990"/></svg>