<?xml version="1.0" encoding="UTF-8" standalone="no"?>
<svg width="24px" height="24px" viewBox="0 0 24 24" version="1.1" xmlns="http://www.w3.org/2000/svg" xmlns:xlink="http://www.w3.org/1999/xlink">
    <!-- Generator: sketchtool 42 (36781) - http://www.bohemiancoding.com/sketch -->
    <title>4FC93AFA-A7F2-4D9E-86B4-123A1FC56063</title>
    <desc>Created with sketchtool.</desc>
    <defs></defs>
    <g id="Page-1" stroke="none" stroke-width="1" fill="none" fill-rule="evenodd">
        <g id="Artboard-2" transform="translate(-17.000000, -12.000000)">
            <g id="Group" transform="translate(20.400002, 14.000000)">
                <path d="M2.8432455,13.1835751 C1.25478369,13.4679793 3.71217154e-15,14.4372222 0,15.6880735 C-5.35360808e-15,17.4125416 2.8432455,18.8104993 8.32646847,18.8104991 C13.5879334,18.8104993 16.6529369,17.4125416 16.6529369,15.6880735 C16.6529369,14.7428406 16.0321472,13.6658156 13.5879334,13.1835751" id="Oval-2" stroke="#2ABB9B" stroke-width="2" stroke-linecap="round" stroke-linejoin="round"></path>
                <path d="M2.08161712,5.96469904 C2.08161712,2.67048672 4.84646646,-3.78408355e-16 8.25708096,0 C11.6676955,1.13522506e-15 14.4325448,2.67048672 14.4325448,5.96469904 C14.4325448,9.32640893 11.5922967,13.159176 9.85888017,15.2204635 C9.28558934,15.9021907 8.18597777,16.6560728 8.18597777,16.6560728 C8.18597777,16.6560728 7.03840737,15.8074127 6.47177384,15.1342298 C4.74249198,13.0797751 2.08161712,9.33415437 2.08161712,5.96469904 Z M8.36936041,7.77283395 L8.36936041,7.77283395 C8.96493672,7.77283395 9.53611977,7.53885646 9.95725582,7.12237385 C10.3783919,6.70589124 10.6149836,6.14101961 10.6149836,5.55202425 C10.6149836,4.32550492 9.60958387,3.33121455 8.36936041,3.33121455 C7.77378411,3.33121455 7.20260105,3.56519205 6.78146501,3.98167465 C6.36032896,4.39815726 6.12373719,4.9630289 6.12373719,5.55202425 C6.12373719,6.77854358 7.12913696,7.77283395 8.36936041,7.77283395 Z" id="Shape" fill="#2ABB9B"></path>
            </g>
        </g>
    </g>
</svg>