<?xml version="1.0" encoding="UTF-8" standalone="no"?>
<svg width="170px" height="170px" viewBox="0 0 170 170" version="1.1" xmlns="http://www.w3.org/2000/svg" xmlns:xlink="http://www.w3.org/1999/xlink">
    <!-- Generator: sketchtool 3.7.2 (28276) - http://www.bohemiancoding.com/sketch -->
    <title>566E4A50-B3B6-4C30-8C2A-F7E4F6F185AC</title>
    <desc>Created with sketchtool.</desc>
    <defs></defs>
    <g id="Page-1" stroke="none" stroke-width="1" fill="none" fill-rule="evenodd">
        <g id="Artboard-1" transform="translate(-89.000000, -313.000000)">
            <g id="Group-4" transform="translate(89.000000, 313.000000)">
                <polygon id="Shape" fill="#EFD896" points="49.433 83.937 150.275 157.453 102.19 44.491"></polygon>
                <path d="M75.299,63.563 L70.986,99.649" id="Shape" stroke="#D3B979" stroke-width="2"></path>
                <path d="M89.298,54.131 L83.067,106.476" id="Shape" stroke="#D3B979" stroke-width="2"></path>
                <path d="M102.827,49.059 L94.17,116.492" id="Shape" stroke="#D3B979" stroke-width="2"></path>
                <path d="M113.457,70.994 L106.636,124.128" id="Shape" stroke="#D3B979" stroke-width="2"></path>
                <path d="M123.068,93.731 L117.916,133.862" id="Shape" stroke="#D3B979" stroke-width="2"></path>
                <path d="M132.714,116.197 L129.374,142.215" id="Shape" stroke="#D3B979" stroke-width="2"></path>
                <polygon id="Shape" stroke="#585857" stroke-width="3.649" points="49.433 83.937 150.275 157.453 102.19 44.491"></polygon>
                <path d="M61.101,74.747 L59.22,90.585" id="Shape" stroke="#D3B979" stroke-width="2"></path>
                <path d="M101.178,40.345 C100.153,34.085 97.589,27.987 93.386,22.651 C80.124,5.814 55.723,2.916 38.886,16.178 C22.049,29.44 19.151,53.841 32.413,70.678 C36.383,75.718 41.363,79.474 46.829,81.954 C45.976,84.794 46.468,87.99 48.442,90.497 C51.66,94.583 57.581,95.286 61.667,92.068 C65.753,88.85 66.456,82.929 63.238,78.843 C62.989,78.527 62.719,78.238 62.44,77.963 L62.57,77.861 C62.772,78.197 62.99,78.527 63.239,78.843 C66.457,82.929 72.378,83.632 76.464,80.414 C80.549,77.196 81.253,71.275 78.035,67.189 C77.786,66.873 77.516,66.584 77.237,66.309 L77.367,66.207 C77.569,66.543 77.787,66.873 78.036,67.189 C81.254,71.275 87.175,71.978 91.261,68.76 C95.347,65.542 96.05,59.621 92.832,55.535 C92.583,55.219 92.313,54.93 92.034,54.655 L92.164,54.553 C92.366,54.889 92.584,55.219 92.833,55.535 C96.051,59.621 101.972,60.324 106.058,57.106 C110.143,53.888 110.847,47.967 107.629,43.881 C105.979,41.792 103.628,40.594 101.178,40.345 L101.178,40.345 Z" id="Shape" stroke="#585857" stroke-width="3.649" fill="#F7C6E0"></path>
                <path d="M49.786,75.435 C45.124,73.321 41.172,70.23 38.035,66.249 C27.236,52.539 29.605,32.6 43.315,21.801" id="Shape" stroke="#FFFFFF" stroke-width="3"></path>
            </g>
        </g>
    </g>
</svg>