<svg width="26" height="26" viewBox="0 0 26 26" xmlns="http://www.w3.org/2000/svg"><title>6089CEF7-AD0B-4727-8B8B-2100064DBB8E</title><path d="M19.77 3H6.2C4.985 3 4 3.858 4 4.917v16.166C4 22.142 4.985 23 6.2 23h13.569c1.215 0 2.2-.858 2.2-1.917V4.917c0-1.059-.985-1.917-2.2-1.917zm-1.302 5.817H7.243c-.747 0-1.354-.582-1.354-1.3 0-.718.606-1.3 1.354-1.3h11.225c.748 0 1.354.582 1.354 1.3 0 .718-.606 1.3-1.354 1.3zm0 4.785H7.243c-.747 0-1.354-.582-1.354-1.3 0-.718.606-1.3 1.354-1.3h11.225c.748 0 1.354.581 1.354 1.3 0 .718-.606 1.3-1.354 1.3zm-3.2 4.785H7.243c-.747 0-1.354-.582-1.354-1.3 0-.718.606-1.3 1.354-1.3h8.025c.748 0 1.354.581 1.354 1.3 0 .718-.606 1.3-1.354 1.3z" fill="#9FA8AD" fill-rule="evenodd"/></svg>