<svg width="111" height="200" viewBox="0 0 111 200" xmlns="http://www.w3.org/2000/svg"><title>leaving the shop</title><g fill="none" fill-rule="evenodd"><path d="M12.767 103.4a44.802 44.802 0 0 0 7.368 14.103 45.228 45.228 0 0 1-2.764-6.8c-6.303-20.105 2.256-41.31 19.48-51.789l-5.01-7.06C14.886 62.418 6.512 83.454 12.767 103.4zm84.905 0a44.802 44.802 0 0 1-7.369 14.103 45.228 45.228 0 0 0 2.764-6.8c6.303-20.105-2.256-41.31-19.48-51.789l5.01-7.06c16.955 10.564 25.329 31.6 19.075 51.546zM59.357 71.423c3.484 10.234 4.519 21.63 2.3 32.054a46 46 0 0 1-1.794 6.251c2.156-3.566 3.832-7.835 4.875-12.735 1.815-8.529 1.45-17.707-.648-26.368l-4.733.798z" stroke="#575756" stroke-width="1.8" fill="#C6C6C6" stroke-linecap="round" stroke-linejoin="round"/><path d="M73.934 53.845c-1.22 9.114-9.04 16.166-18.481 16.166-9.442 0-17.262-7.053-18.482-16.166h-5.844c1.25 12.32 11.682 21.965 24.326 21.965s23.076-9.646 24.325-21.965h-5.844z" stroke="#575756" stroke-width="1.8" stroke-linecap="round" stroke-linejoin="round" fill="#C6C6C6"/><path d="M48.493 32.72h-7.888c-.009 0-.017.004-.026.004-.094 0-.187.018-.28.027a2.887 2.887 0 0 0-2.397 1.84L30.396 53.29a2.9 2.9 0 1 0 5.387 2.145l6.791-16.915h5.919a2.9 2.9 0 0 0 0-5.8zm31.08 20.569L72.066 34.59a2.884 2.884 0 0 0-2.396-1.839c-.093-.01-.186-.026-.28-.027-.01 0-.017-.003-.026-.003h-7.888a2.9 2.9 0 0 0 0 5.799h5.919l6.791 16.915a2.9 2.9 0 1 0 5.387-2.146z" stroke="#575756" stroke-width="1.8" stroke-linecap="round" stroke-linejoin="round" fill="#C6C6C6"/><path stroke="#575756" stroke-width="1.8" stroke-linecap="round" stroke-linejoin="round" fill="#C6C6C6" d="M50.827 36.692h9.253v24.909h-9.253zm-.839 24.909H60.92v15.355H49.988z"/><path stroke="#575756" stroke-width="1.8" stroke-linecap="round" stroke-linejoin="round" fill="#C6C6C6" d="M47.034 8.554h16.838v32.888H47.034z"/><path d="M65.593 10.338c0 .714-.579 1.293-1.293 1.293H46.605a1.292 1.292 0 0 1-1.292-1.293V6.77c0-.714.578-1.292 1.292-1.292H64.3c.714 0 1.293.578 1.293 1.292v3.568zm-3.329 51.487c0 .42-.341.763-.763.763H49.405a.763.763 0 0 1-.762-.763V59.72c0-.42.34-.762.762-.762h12.096c.42 0 .763.34.763.762v2.105zm0 15.346c0 .42-.341.763-.763.763H49.405a.763.763 0 0 1-.762-.763v-2.105c0-.42.34-.763.762-.763h12.096c.42 0 .763.341.763.763v2.105z" stroke="#575756" stroke-width="1.8" stroke-linecap="round" stroke-linejoin="round" fill="#575756"/><ellipse fill="#595957" cx="33.012" cy="54.26" rx=".932" ry=".932"/><ellipse fill="#595957" cx="76.763" cy="54.26" rx=".932" ry=".932"/><path d="M49.057 14.333v23.76m2.515 6.033v11.863m0 8.839v7.22M13.14 87.562s2.6-19.3 15.057-29.703m69.28 29.703s-2.6-19.3-15.057-29.703m-48.885-6.433l6.638-16.083h4.312" stroke="#FFF" stroke-width="1.8" stroke-linecap="round" stroke-linejoin="round"/><g stroke-width="1.8" stroke-linecap="round" stroke-linejoin="round"><path stroke="#585857" fill="#EFD896" d="M25.394 127.47l55.656 13.51-11.926 49.129-55.656-13.51z"/><path stroke="#585857" fill="#E9BE64" d="M80.66 140.885l16.792 4.077-11.926 49.129-16.792-4.076z"/><path stroke="#585857" fill="#E4E7E8" d="M45.836 132.431l8.366 2.03-11.925 49.13-8.367-2.03z"/><path stroke="#585857" fill="#E4E7E8" d="M75.7 161.265l-2.032 8.366-55.265-13.415 2.031-8.366z"/><path stroke="#585857" fill="#C4C4C3" d="M75.712 161.266l16.793 4.077-2.031 8.366-16.793-4.076z"/><path d="M27.366 130.806l14.782 3.833m13.962 3.193l20.963 5.293" stroke="#FFF"/></g><g fill="#E9BE64"><path d="M58.86 174.03a2.6 2.6 0 0 0-.858.35 2.643 2.643 0 0 0-1.165 2.77c.115.538.393 1.02.806 1.396l1.73 1.592c.01.01.264.274.67.187l.303-.065a.739.739 0 0 0 .249-.1.717.717 0 0 0 .284-.337l.935-2.168c.223-.507.28-1.06.166-1.602a2.634 2.634 0 0 0-3.12-2.023zm1.658 2.335c.049.232.024.47-.072.69l-.63 1.46-1.169-1.076a1.13 1.13 0 0 1 .526-1.948c.61-.13 1.215.263 1.345.874zm-.293 4.099a.825.825 0 0 0-.64.974.807.807 0 0 0 .974.617.89.89 0 0 0 .284-.114.803.803 0 0 0 .36-.856.801.801 0 0 0-.35-.511.821.821 0 0 0-.628-.11z"/><path d="M63.46 183.94a7.043 7.043 0 0 1-2.306.939 6.995 6.995 0 0 1-5.299-.98 6.992 6.992 0 0 1-3.054-4.44 7.07 7.07 0 0 1 3.115-7.415 7.043 7.043 0 0 1 2.305-.94 6.995 6.995 0 0 1 5.3.981 6.99 6.99 0 0 1 3.054 4.44 7.071 7.071 0 0 1-3.115 7.415zm-6.598-10.403a5.295 5.295 0 0 0-2.333 5.553 5.24 5.24 0 0 0 2.288 3.326 5.24 5.24 0 0 0 3.968.733 5.261 5.261 0 0 0 1.726-.702 5.295 5.295 0 0 0 2.333-5.553 5.24 5.24 0 0 0-2.287-3.326 5.24 5.24 0 0 0-3.968-.734 5.257 5.257 0 0 0-1.727.703z"/></g><path d="M35.22 120.843V94.284m13.837 24.594v-20.63m26.415 21.182V95.6" stroke="#585857" stroke-width="1.8" stroke-linecap="round" stroke-linejoin="round"/><path d="M47.034 6.29h16.838" stroke="#FFF" stroke-width="1.8" stroke-linecap="round" stroke-linejoin="round"/></g></svg>