<?xml version="1.0" encoding="utf-8"?>
<!-- Generator: Adobe Illustrator 17.0.0, SVG Export Plug-In . SVG Version: 6.00 Build 0)  -->
<!DOCTYPE svg PUBLIC "-//W3C//DTD SVG 1.0//EN" "http://www.w3.org/TR/2001/REC-SVG-20010904/DTD/svg10.dtd">
<svg version="1.0" id="Capa_1" xmlns="http://www.w3.org/2000/svg" xmlns:xlink="http://www.w3.org/1999/xlink" x="0px" y="0px"
	 width="236px" height="282px" viewBox="0 0 236 282" enable-background="new 0 0 236 282" xml:space="preserve">
<g>
	<g>
		<path fill="#E5E5E5" d="M200.4,241.496c0,2.754-2.233,4.987-4.987,4.987H40.588c-2.754,0-4.987-2.233-4.987-4.987V54.415
			c0-2.754,2.233-4.987,4.987-4.987h154.825c2.754,0,4.987,2.233,4.987,4.987V241.496z"/>
		<path fill="#3F3E3E" d="M195.412,249.122H40.588c-4.206,0-7.627-3.421-7.627-7.627V54.415c0-4.206,3.421-7.627,7.627-7.627
			h154.825c4.206,0,7.627,3.421,7.627,7.627v187.08C203.039,245.702,199.618,249.122,195.412,249.122z M40.588,52.066
			c-1.296,0-2.349,1.053-2.349,2.349v187.08c0,1.296,1.053,2.349,2.349,2.349h154.825c1.296,0,2.349-1.053,2.349-2.349V54.415
			c0-1.296-1.053-2.349-2.349-2.349H40.588z"/>
	</g>
	<g>
		<g>
			<path fill="#3F3E3E" d="M167.229,91.952H68.771c-1.457,0-2.639-1.182-2.639-2.639c0-1.457,1.182-2.639,2.639-2.639h98.458
				c1.457,0,2.639,1.182,2.639,2.639C169.868,90.77,168.686,91.952,167.229,91.952z"/>
		</g>
		<g>
			<path fill="#3F3E3E" d="M167.229,117.641H68.771c-1.457,0-2.639-1.182-2.639-2.639c0-1.457,1.182-2.639,2.639-2.639h98.458
				c1.457,0,2.639,1.182,2.639,2.639C169.868,116.459,168.686,117.641,167.229,117.641z"/>
		</g>
		<g>
			<path fill="#3F3E3E" d="M167.229,143.332H68.771c-1.457,0-2.639-1.182-2.639-2.639s1.182-2.639,2.639-2.639h98.458
				c1.457,0,2.639,1.182,2.639,2.639S168.686,143.332,167.229,143.332z"/>
		</g>
		<g>
			<path fill="#3F3E3E" d="M167.229,169.02H68.771c-1.457,0-2.639-1.182-2.639-2.639c0-1.457,1.182-2.639,2.639-2.639h98.458
				c1.457,0,2.639,1.182,2.639,2.639C169.868,167.838,168.686,169.02,167.229,169.02z"/>
		</g>
		<g>
			<path fill="#3F3E3E" d="M167.229,194.709H68.771c-1.457,0-2.639-1.182-2.639-2.639s1.182-2.639,2.639-2.639h98.458
				c1.457,0,2.639,1.182,2.639,2.639S168.686,194.709,167.229,194.709z"/>
		</g>
	</g>
	<g>
		<path fill="#F2CD31" d="M155.023,58.35c0,2.754-2.233,4.987-4.987,4.987H85.964c-2.754,0-4.987-2.233-4.987-4.987V40.504
			c0-2.754,2.233-4.987,4.987-4.987h64.072c2.754,0,4.987,2.233,4.987,4.987V58.35z"/>
		<path fill="#3F3E3E" d="M150.037,65.977H85.965c-4.206,0-7.627-3.421-7.627-7.627V40.505c0-4.206,3.421-7.627,7.627-7.627h64.071
			c4.204,0,7.625,3.421,7.625,7.627V58.35C157.662,62.556,154.241,65.977,150.037,65.977z M85.965,38.156
			c-1.296,0-2.349,1.053-2.349,2.349V58.35c0,1.296,1.053,2.349,2.349,2.349h64.071c1.294,0,2.347-1.053,2.347-2.349V40.505
			c0-1.296-1.053-2.349-2.347-2.349H85.965z"/>
	</g>
	<g>
		<path fill="#FFFFFF" d="M146.519,45.029H88.458c-1.457,0-2.639-1.182-2.639-2.639s1.182-2.639,2.639-2.639h58.061
			c1.457,0,2.639,1.182,2.639,2.639S147.976,45.029,146.519,45.029z"/>
	</g>
	<g>
		<path fill="#FFFFFF" d="M193.144,58.37H162.06c-1.457,0-2.639-1.182-2.639-2.639s1.182-2.639,2.639-2.639h31.084
			c1.457,0,2.639,1.182,2.639,2.639S194.601,58.37,193.144,58.37z"/>
	</g>
	<g>
		<path fill="#FFFFFF" d="M42.713,241.645c-1.457,0-2.639-1.182-2.639-2.639V55.731c0-1.457,1.182-2.639,2.639-2.639
			s2.639,1.182,2.639,2.639v183.274C45.352,240.463,44.17,241.645,42.713,241.645z"/>
	</g>
</g>
</svg>
