<?xml version="1.0" encoding="utf-8"?>
<!-- Generator: Adobe Illustrator 16.0.0, SVG Export Plug-In . SVG Version: 6.00 Build 0)  -->
<!DOCTYPE svg PUBLIC "-//W3C//DTD SVG 1.1//EN" "http://www.w3.org/Graphics/SVG/1.1/DTD/svg11.dtd">
<svg version="1.1" id="Layer_1" xmlns="http://www.w3.org/2000/svg" xmlns:xlink="http://www.w3.org/1999/xlink" x="0px" y="0px"
	 width="223.376px" height="237.662px" viewBox="0 0 223.376 237.662" enable-background="new 0 0 223.376 237.662"
	 xml:space="preserve">
<g id="Page-1">
	<g id="main-current-search" transform="translate(-57.000000, -542.000000)">
		<g id="Group" transform="translate(54.000000, 541.000000)">
			<g id="Oval-2">
				<path fill="#FFF" d="M115.618,232.03c-30.902,0-56.799-3.87-74.889-11.193c-11.333-4.588-30.347-15.174-30.347-34.526
					c0-18.641,16.377-34.105,40.752-38.481c5.438-0.974,10.634,2.64,11.61,8.076s-2.64,10.634-8.076,11.61
					c-14.073,2.526-24.287,10.431-24.287,18.796c0,9.944,23.141,25.72,85.236,25.72c58.139,0,85.225-15.348,85.225-25.72
					c0-11.159-14.675-16.398-26.986-18.828c-5.418-1.069-8.943-6.329-7.874-11.747c1.069-5.417,6.321-8.945,11.747-7.874
					c14.681,2.897,25.797,7.937,33.042,14.978c6.589,6.404,10.071,14.52,10.071,23.472c0,19.232-19.646,29.902-31.357,34.552
					C171.08,228.168,145.537,232.03,115.618,232.03z"/>
			</g>
			<g id="Shape">
				<path fill="#FFF" d="M44.189,75.108c0,38.54,30.437,81.38,50.212,104.881c6.484,7.695,19.608,17.402,19.608,17.402
					s12.571-8.623,19.139-16.419c19.814-23.579,52.306-67.413,52.306-105.864c0-37.68-31.62-68.223-70.629-68.223
					C75.815,6.885,44.189,37.428,44.189,75.108z M116.103,95.788c-14.185,0-25.684-11.371-25.684-25.399
					c0-6.741,2.708-13.197,7.522-17.96c4.819-4.764,11.354-7.439,18.161-7.439c14.186,0,25.69,11.371,25.69,25.399
					c0,6.735-2.703,13.197-7.529,17.96C129.451,93.113,122.917,95.788,116.103,95.788L116.103,95.788z"/>
			</g>
		</g>
	</g>
</g>
</svg>
