<?xml version="1.0" encoding="UTF-8" standalone="no"?>
<svg width="92px" height="79px" viewBox="0 0 92 79" version="1.1" xmlns="http://www.w3.org/2000/svg" xmlns:xlink="http://www.w3.org/1999/xlink">
    <!-- Generator: sketchtool 41.1 (35376) - http://www.bohemiancoding.com/sketch -->
    <title>420AC677-C94B-4945-B324-2855EB70DFB5</title>
    <desc>Created with sketchtool.</desc>
    <defs></defs>
    <g id="Page-1" stroke="none" stroke-width="1" fill="none" fill-rule="evenodd">
        <g id="Desktop-Landscape-Copy-5" transform="translate(-1024.000000, -1012.000000)">
            <g id="Texto-Glovers" transform="translate(5.000000, 655.000000)"></g>
            <g id="pointer" transform="translate(1024.000000, 1012.000000)" stroke="#3D9F83" stroke-width="3">
                <path d="M56.7648221,27.8787162 C56.8390489,34.3582757 51.6278936,39.6905953 45.148334,39.764822 C38.6687744,39.8395946 33.3364549,34.6284393 33.2622282,28.1483339 C33.1874556,21.6687743 38.3986108,16.3364548 44.8787162,16.2622281 C51.3582758,16.1880013 56.6905953,21.3991566 56.7648221,27.8787162 Z M44.7608267,6.00146995 C32.6231139,6.14119091 22.8622949,16.1290565 23.00147,28.2662235 C23.0571401,33.1171606 24.2087465,38.3015724 26.4251794,43.6759174 C28.1705998,47.9084801 30.5786033,52.2747602 33.5836955,56.6530475 C38.6753238,64.0719031 43.6807181,68.9293896 43.8908454,69.1324217 C44.3378433,69.5635918 44.9163754,69.7748106 45.4927244,69.7682612 C46.0679818,69.7617118 46.6405102,69.5379399 47.0771382,69.098583 C47.2828992,68.8911847 52.1764076,63.9354568 57.0972052,56.40799 C60.0013272,51.9658458 62.309452,47.5460789 63.9571769,43.2714907 C66.0491709,37.8442046 67.0812503,32.6259541 67.0255802,27.7608266 C66.8864051,15.6236596 56.8979936,5.86229477 44.7608267,6.00146995 Z" id="Page-1"></path>
            </g>
        </g>
    </g>
</svg>