<svg width="24" height="24" viewBox="0 0 24 24" xmlns="http://www.w3.org/2000/svg"><title>4E05EB36-372D-48EF-8CA1-A47EC81465C5</title><path d="M19.275 9.373h-1.779V6.46a5.467 5.467 0 0 0-5.46-5.461 5.467 5.467 0 0 0-5.462 5.46v2.913H5.008C3.898 9.373 3 10.272 3 11.38v9.612C3 22.102 3.899 23 5.008 23h14.267c1.11 0 2.008-.899 2.008-2.008v-9.611c0-1.11-.9-2.008-2.008-2.008zm-7.24-5.242a2.332 2.332 0 0 1 2.33 2.33v2.911h-4.66V6.46a2.332 2.332 0 0 1 2.33-2.329zm5.078 10.156l-4.885 4.871a1.116 1.116 0 0 1-.795.328l-.038-.001h-.002c-.309 0-.59-.117-.801-.327l-2.82-2.82a1.118 1.118 0 0 1-.33-.797c0-.3.117-.583.33-.796a1.152 1.152 0 0 1 1.593 0l2.046 2.047 4.11-4.098c.424-.424 1.167-.424 1.592 0 .439.44.439 1.154 0 1.593z" fill="#9FA8AD" fill-rule="evenodd"/></svg>