<?xml version="1.0" encoding="UTF-8" standalone="no"?>
<svg width="510px" height="170px" viewBox="0 0 510 170" version="1.1" xmlns="http://www.w3.org/2000/svg" xmlns:xlink="http://www.w3.org/1999/xlink">
    <!-- Generator: Sketch 40.3 (33839) - http://www.bohemiancoding.com/sketch -->
    <title>logo_wg</title>
    <desc>Created with Sketch.</desc>
    <defs></defs>
    <g id="Page-1" stroke="none" stroke-width="1" fill="none" fill-rule="evenodd">
        <g id="Artboard" transform="translate(1.000000, 1.000000)">
            <g id="Group-2" transform="translate(-1.000000, -1.000000)">
                <g id="Capa_1" transform="translate(3.000000, 3.000000)">
                    <g id="Group" transform="translate(0.000000, 44.870386)" fill="#2ABB9B">
                        <path d="M0.205226914,61.2119473 L0.205226914,60.8972719 C0.205226914,30.0060508 24.2677861,3.84486761 58.1183641,3.84486761 C74.9629859,3.84486761 86.1923384,7.78297239 96.4608018,15.0350757 C98.3861387,16.4505324 100.472217,19.1305182 100.472217,22.9124507 C100.472217,28.1156673 96.1416917,32.5292816 90.6853843,32.5292816 C88.1182684,32.5292816 86.1929315,31.4261694 84.5896704,30.3218917 C77.3705468,25.1215888 69.5096442,21.6496698 57.3176233,21.6496698 C36.6229208,21.6496698 20.9017088,39.463213 20.9017088,60.5820138 L20.9017088,60.8966892 C20.9017088,83.5929462 36.1401038,100.298715 59.082812,100.298715 C69.6715718,100.298715 79.2952905,96.9899614 86.1929315,91.947579 L86.1929315,71.2984605 L64.0557093,71.2984605 C59.2417739,71.2984605 55.2333245,67.6744484 55.2333245,62.9467414 C55.2333245,58.2167034 59.2417739,54.4347709 64.0557093,54.4347709 L95.3391715,54.4347709 C100.952068,54.4347709 105.284373,58.6910475 105.284373,64.2089395 L105.284373,93.6794593 C105.284373,99.1944376 103.040519,103.136039 98.3867318,105.972197 C88.7600474,112.278526 75.2838754,117.952007 58.4422193,117.952007 C23.3045245,117.95259 0.205226914,93.3671148 0.205226914,61.2119473 L0.205226914,61.2119473 Z" id="Shape"></path>
                        <path d="M122.976594,9.67452139 C122.976594,4.47421848 127.145191,0.215610945 132.599126,0.215610945 C138.05484,0.215610945 142.386552,4.47363575 142.386552,9.67452139 L142.386552,107.39115 C142.386552,112.753452 138.054247,116.847729 132.599126,116.847729 C127.306526,116.847729 122.976594,112.753452 122.976594,107.39115 L122.976594,9.67452139 L122.976594,9.67452139 Z" id="Shape"></path>
                        <path d="M157.422686,74.9271344 L157.422686,74.6077971 C157.422686,50.8101761 176.672496,31.1085803 202.660985,31.1085803 C228.650067,31.1085803 247.743288,50.4955006 247.743288,74.2966181 L247.743288,74.6077971 C247.743288,98.2527423 228.490512,117.95259 202.341282,117.95259 C176.511754,117.95259 157.422686,98.5656695 157.422686,74.9271344 L157.422686,74.9271344 Z M228.329771,74.9271344 L228.329771,74.6077971 C228.329771,59.9520802 217.58027,47.8178458 202.341282,47.8178458 C186.777845,47.8178458 176.830864,59.7959079 176.830864,74.2966181 L176.830864,74.6077971 C176.830864,89.1085073 187.581552,101.245073 202.660392,101.245073 C218.383383,101.245073 228.329771,89.2652623 228.329771,74.9271344 L228.329771,74.9271344 Z" id="Shape"></path>
                        <path d="M296.20709,117.637914 L295.244422,117.637914 C289.953007,117.637914 286.420257,114.327412 284.176404,109.283282 L255.945247,45.7660454 C255.463616,44.3470923 254.823023,42.7754633 254.823023,41.0377557 C254.823023,36.3100486 259.151769,31.8975998 264.443183,31.8975998 C269.734597,31.8975998 272.463641,34.8905128 274.067495,38.8332794 L295.885014,93.9947175 L318.025202,38.518604 C319.469501,35.2081019 322.035431,31.8975998 327.171442,31.8975998 C332.462856,31.8975998 336.63264,35.8380355 336.63264,41.0377557 C336.63264,42.7754633 335.995606,44.6646814 335.514569,45.608125 L307.27926,109.283282 C305.027695,114.168909 301.502063,117.637914 296.20709,117.637914 L296.20709,117.637914 Z" id="Shape"></path>
                        <path d="M343.711782,74.9271344 L343.711782,74.6077971 C343.711782,50.8101761 362.963372,31.1085803 388.957793,31.1085803 C414.941537,31.1085803 434.034164,50.4955006 434.034164,74.2966181 L434.034164,74.6077971 C434.034164,98.2527423 414.782575,117.95259 388.632158,117.95259 C362.80441,117.95259 343.711782,98.5656695 343.711782,74.9271344 L343.711782,74.9271344 Z M414.623613,74.9271344 L414.623613,74.6077971 C414.623613,59.9520802 403.874112,47.8178458 388.632751,47.8178458 C373.072873,47.8178458 363.126486,59.7959079 363.126486,74.2966181 L363.126486,74.6077971 C363.126486,89.1085073 373.872428,101.245073 388.958386,101.245073 C404.673666,101.245073 414.623613,89.2652623 414.623613,74.9271344 L414.623613,74.9271344 Z" id="Shape"></path>
                    </g>
                    <g id="Group" transform="translate(428.248070, 0.000000)" fill="#2ABB9B">
                        <path d="M38.2451625,0.434135552 C17.227198,0.434135552 0.129304819,17.2378037 0.129304819,37.885174 C0.129304819,45.7497289 2.6193123,53.3007739 7.3175851,59.7201527 L8.3312637,61.1000628 L28.1765877,88.614933 C28.1765877,88.614933 30.5977908,92.5052538 35.8785284,92.5052538 L37.3987497,92.5052538 L39.4077196,92.5052538 L40.6165417,92.5052538 C45.9008382,92.5052538 48.3149235,88.614933 48.3149235,88.614933 L68.1638064,61.1000628 L69.1697742,59.7201527 C73.8716058,53.3007739 76.3616133,45.7497289 76.3616133,37.885174 C76.3610201,17.237221 59.263127,0.434135552 38.2451625,0.434135552 L38.2451625,0.434135552 Z M53.934938,48.9425191 L52.8779601,50.3958534 L38.2481282,70.6772678 L23.6438013,50.4354792 L22.5690292,48.9652457 C20.1656203,45.6832974 18.8986704,41.8541636 18.8986704,37.885174 C18.8986704,27.4029857 27.5781081,18.8752814 38.2445693,18.8752814 C48.9110306,18.8752814 57.5904683,27.4029857 57.5904683,37.885174 C57.5910614,41.8559118 56.3241115,45.6792183 53.934938,48.9425191 L53.934938,48.9425191 Z" id="Shape"></path>
                        <path d="M27.5241322,109.321742 C27.5241322,103.727512 32.0486146,99.0942077 38.1544119,99.0942077 C44.2673268,99.0942077 48.7520687,103.651757 48.7520687,109.247152 L48.7520687,109.321742 C48.7520687,114.874015 44.2275864,119.506737 38.0820486,119.506737 C32.0159918,119.506737 27.5241322,114.953267 27.5241322,109.397497 L27.5241322,109.321742 Z" id="Shape"></path>
                    </g>
                </g>
            </g>
        </g>
    </g>
</svg>
