<svg xmlns="http://www.w3.org/2000/svg" viewBox="0 0 384.8 126.1"><title>logo</title><path d="M0 82v-.22c0-24 18.36-44.3 44.18-44.3 12.85 0 21.42 3.06 29.25 8.69a7.63 7.63 0 0 1 3.06 6.12A7.49 7.49 0 0 1 69 59.76 7.86 7.86 0 0 1 64.38 58a32.58 32.58 0 0 0-20.8-6.73C27.79 51.27 15.8 65.1 15.8 81.5v.24c0 17.63 11.62 30.6 29.13 30.6a35 35 0 0 0 20.67-6.44v-16H48.71A6.58 6.58 0 0 1 42 83.38a6.68 6.68 0 0 1 6.73-6.61h23.85a7.47 7.47 0 0 1 7.58 7.59v22.88a10.39 10.39 0 0 1-5.26 9.54 54.55 54.55 0 0 1-30.47 9.3C17.62 126.09 0 107 0 82m93.66-40a7.29 7.29 0 0 1 7.34-7.33 7.4 7.4 0 0 1 7.47 7.33v75.88a7.41 7.41 0 0 1-14.82 0V42zm26.28 50.68v-.24c0-18.48 14.68-33.78 34.51-33.78s34.39 15.05 34.39 33.54v.24c0 18.36-14.68 33.66-34.63 33.66-19.71 0-34.27-15.05-34.27-33.41m54.09 0v-.25c0-11.38-8.2-20.81-19.82-20.81-11.87 0-19.46 9.3-19.46 20.56v.24c0 11.26 8.2 20.68 19.7 20.68 12 0 19.58-9.3 19.58-20.44m51.78 33.18h-.73c-4 0-6.73-2.57-8.45-6.49L195.1 70a11.39 11.39 0 0 1-.86-3.67 7.4 7.4 0 0 1 7.34-7.1c4 0 6.12 2.32 7.35 5.39l16.64 42.83 16.89-43.07c1.1-2.57 3.06-5.14 7-5.14a7.05 7.05 0 0 1 7.22 7.1 8.89 8.89 0 0 1-.86 3.55l-21.54 49.44c-1.71 3.79-4.41 6.49-8.45 6.49m36.23-33.14v-.24c0-18.48 14.68-33.78 34.51-33.78S331 73.71 331 92.19v.24c0 18.36-14.68 33.66-34.64 33.66-19.7 0-34.27-15.05-34.27-33.41m54.09 0v-.24c0-11.38-8.2-20.81-19.83-20.81-11.87 0-19.46 9.3-19.46 20.56v.24c0 11.26 8.2 20.68 19.71 20.68 12 0 19.58-9.3 19.58-20.44" fill="#fff"/><path d="M355.72 0a29 29 0 0 0-23.6 46l.77 1.08L348 68.47a7.06 7.06 0 0 0 5.88 3h3.61a7 7 0 0 0 5.87-3l15.14-21.36.82-1.11a29 29 0 0 0-23.6-46m12 37.66l-.81 1.13-11.19 15.75-11.14-15.72-.82-1.14a14.72 14.72 0 0 1 12-23.36 14.77 14.77 0 0 1 14.76 14.76 14.6 14.6 0 0 1-2.79 8.58M347.54 84.6v-.05a8.1 8.1 0 0 1 16.2-.06v.06a7.94 7.94 0 0 1-8.14 7.9 7.85 7.85 0 0 1-8.05-7.85" fill="#f2cc38"/></svg>