<svg width="24" height="24" viewBox="0 0 24 24" xmlns="http://www.w3.org/2000/svg"><title>E530C2BE-9A8A-42D4-BE78-5132AC0292AD</title><path d="M17.898 18.798a5.49 5.49 0 0 1-5.303 4.096h-4.87a5.487 5.487 0 0 1-5.481-5.481V6.844a5.487 5.487 0 0 1 5.48-5.48h4.871a5.49 5.49 0 0 1 5.178 3.684 3.265 3.265 0 0 0-1.748.867 3.258 3.258 0 0 0-.998 2.719H8.952a3.284 3.284 0 0 0-3.281 3.28 3.283 3.283 0 0 0 3.28 3.281h6.076a3.259 3.259 0 0 0 .999 2.72c.518.493 1.171.8 1.872.883zm5.15-6.79a1.244 1.244 0 0 1-.083.37c-.006.017-.01.034-.017.05-.005.012-.013.023-.018.036a1.176 1.176 0 0 1-.095.168 1.627 1.627 0 0 1-.119.153l-.023.03-3.459 3.625a1.3 1.3 0 0 1-1.844.044 1.304 1.304 0 0 1-.043-1.844l1.355-1.422h-9.75a1.304 1.304 0 0 1 0-2.609h9.75l-1.356-1.42a1.305 1.305 0 0 1 1.888-1.801l3.458 3.625c.01.01.017.021.026.032a1.447 1.447 0 0 1 .166.232l.045.088c.006.012.013.023.018.035.007.017.011.033.017.05a1.298 1.298 0 0 1 .083.558z" fill="#9FA8AD" fill-rule="evenodd"/></svg>