<?xml version="1.0" encoding="UTF-8" standalone="no"?>
<svg width="220px" height="110px" viewBox="0 0 220 110" version="1.1" xmlns="http://www.w3.org/2000/svg" xmlns:xlink="http://www.w3.org/1999/xlink">
    <!-- Generator: sketchtool 41.2 (35397) - http://www.bohemiancoding.com/sketch -->
    <title>F156F1E3-435E-4C89-9F4B-549B08EBDEC0</title>
    <desc>Created with sketchtool.</desc>
    <defs>
        <polygon id="path-1" points="31.9938322 39.0743148 31.9938322 0.332127542 0.447877181 0.332127542 0.447877181 39.0743148 31.9938322 39.0743148"></polygon>
    </defs>
    <g id="Page-1" stroke="none" stroke-width="1" fill="none" fill-rule="evenodd">
        <g id="Artboard" transform="translate(-47.000000, -27.000000)">
            <g id="Group" transform="translate(47.000000, 27.000000)">
                <g id="Page-1" transform="translate(4.000000, 19.000000)">
                    <path d="M0,44.8592399 L0,44.7233058 C0,31.7268888 9.9590604,20.7148288 23.9676711,20.7148288 C30.9376107,20.7148288 35.5847047,22.3726638 39.8320336,25.4262752 C40.6301611,26.023264 41.4928121,27.1499751 41.4928121,28.7405437 C41.4928121,30.9309038 39.7015839,32.787735 37.4432617,32.787735 C36.3814295,32.787735 35.5847047,32.325279 34.9212349,31.8572174 C31.9335168,29.6710614 28.6806913,28.2094199 23.6366376,28.2094199 C15.0718456,28.2094199 8.56619463,35.7068138 8.56619463,44.5929773 L8.56619463,44.7233058 C8.56619463,54.2765271 14.8712617,61.3058594 24.3646309,61.3058594 C28.7480201,61.3058594 32.7302416,59.9128857 35.5847047,57.7911933 L35.5847047,49.1040261 L26.4223691,49.1040261 C24.430557,49.1040261 22.7725839,47.5765196 22.7725839,45.5879585 C22.7725839,43.5979961 24.430557,42.0060261 26.4223691,42.0060261 L39.3705503,42.0060261 C41.6919933,42.0060261 43.4846242,43.7955909 43.4846242,46.1204837 L43.4846242,58.5213133 C43.4846242,60.8434034 42.556047,62.5012383 40.6301611,63.6938144 C36.6451342,66.348032 31.0694631,68.735987 24.1009262,68.735987 C9.5592953,68.735987 0,58.388182 0,44.8592399" id="Fill-1" fill="#21957C"></path>
                    <path d="M50.8041128,23.1707508 C50.8041128,20.9803907 52.5322201,19.1908259 54.7877369,19.1908259 C57.0446564,19.1908259 58.8400926,20.9803907 58.8400926,23.1707508 L58.8400926,64.2915038 C58.8400926,66.5477289 57.0446564,68.2700274 54.7877369,68.2700274 C52.5967436,68.2700274 50.8041128,66.5477289 50.8041128,64.2915038 L50.8041128,23.1707508 Z" id="Fill-3" fill="#21957C"></path>
                    <path d="M94.4023544,50.62901 L94.4023544,50.4958787 C94.4023544,44.326995 89.9558443,39.2203589 83.6493745,39.2203589 C77.208247,39.2203589 73.0927705,44.26113 73.0927705,50.3641488 L73.0927705,50.4958787 C73.0927705,56.5988975 77.5406832,61.7041322 83.7812268,61.7041322 C90.2854752,61.7041322 94.4023544,56.6647624 94.4023544,50.62901 M65.0609987,50.62901 L65.0609987,50.4958787 C65.0609987,40.4802013 73.0254416,32.1896252 83.7812268,32.1896252 C94.5356094,32.1896252 102.435529,40.34707 102.435529,50.3641488 L102.435529,50.4958787 C102.435529,60.4456911 94.4696832,68.7362672 83.6493745,68.7362672 C72.9581128,68.7362672 65.0609987,60.5788224 65.0609987,50.62901" id="Fill-5" fill="#21957C"></path>
                    <path d="M122.490972,68.6035564 L122.094013,68.6035564 C119.903019,68.6035564 118.441422,67.2091812 117.512845,65.0860875 L105.831288,38.3575279 C105.629301,37.7605392 105.365597,37.0990869 105.365597,36.3689668 C105.365597,34.3790043 107.156825,32.5221731 109.346415,32.5221731 C111.537409,32.5221731 112.66657,33.7806142 113.331442,35.4412519 L122.35912,58.6509412 L131.521456,35.3081206 C132.117597,33.9165483 133.180832,32.5221731 135.304496,32.5221731 C137.495489,32.5221731 139.222194,34.1800081 139.222194,36.3689668 C139.222194,37.0990869 138.955684,37.8964732 138.757905,38.291663 L127.073543,65.0860875 C126.143563,67.1419149 124.683368,68.6035564 122.490972,68.6035564" id="Fill-7" fill="#21957C"></path>
                    <path d="M171.493197,50.62901 L171.493197,50.4958787 C171.493197,44.326995 167.046687,39.2203589 160.738814,39.2203589 C154.299089,39.2203589 150.183613,44.26113 150.183613,50.3641488 L150.183613,50.4958787 C150.183613,56.5988975 154.631526,61.7041322 160.873472,61.7041322 C167.376317,61.7041322 171.493197,56.6647624 171.493197,50.62901 M142.151841,50.62901 L142.151841,50.4958787 C142.151841,40.4802013 150.117687,32.1896252 160.873472,32.1896252 C171.626452,32.1896252 179.526371,40.34707 179.526371,50.3641488 L179.526371,50.4958787 C179.526371,60.4456911 171.560526,68.7362672 160.738814,68.7362672 C150.05176,68.7362672 142.151841,60.5788224 142.151841,50.62901" id="Fill-9" fill="#21957C"></path>
                    <g id="Group-13" transform="translate(176.738255, 0.068548)">
                        <mask id="mask-2" fill="white">
                            <use xlink:href="#path-1"></use>
                        </mask>
                        <g id="Clip-12"></g>
                        <path d="M22.7140919,20.7428364 L22.2764544,21.3566418 L16.2224678,29.889657 L10.1768973,21.372057 L9.73505168,20.7526461 C8.73914564,19.3722848 8.21734698,17.7620969 8.21734698,16.0916495 C8.21734698,11.6786975 11.8068168,8.09396221 16.2224678,8.09396221 C20.6339107,8.09396221 24.2261859,11.6786975 24.2261859,16.0916495 C24.2261859,17.7620969 23.7029846,19.3708834 22.7140919,20.7428364 M16.2224678,0.331707127 C7.52161544,0.331707127 0.447877181,7.40167949 0.447877181,16.0916495 C0.447877181,19.4003125 1.47885034,22.5786469 3.42156846,25.2777087 L3.84097114,25.8606836 L12.0550919,37.438902 C12.0550919,37.438902 13.0566087,39.0743148 15.2419913,39.0743148 L15.870394,39.0743148 L16.7021859,39.0743148 L17.2015416,39.0743148 C19.3897295,39.0743148 20.3870383,37.438902 20.3870383,37.438902 L28.6011591,25.8606836 L29.0191591,25.2777087 C30.9660852,22.5786469 31.994253,19.4003125 31.994253,16.0916495 C31.994253,7.40167949 24.9177094,0.331707127 16.2224678,0.331707127" id="Fill-11" fill="#3D9F83" mask="url(#mask-2)"></path>
                    </g>
                    <path d="M188.52333,46.2512327 L188.52333,46.2218036 C188.52333,43.8646791 190.394511,41.916758 192.922149,41.916758 C195.451189,41.916758 197.308344,43.83525 197.308344,46.1895718 L197.308344,46.2218036 C197.308344,48.5579075 195.43576,50.5058285 192.89129,50.5058285 C190.381887,50.5058285 188.52333,48.5901393 188.52333,46.2512327" id="Fill-14" fill="#21957C"></path>
                </g>
            </g>
        </g>
    </g>
</svg>