<svg xmlns="http://www.w3.org/2000/svg" viewBox="0 0 294.095 425.19626" height="425.196" width="294.095"><defs><clipPath id="a"><path d="M0 340.157h235.276V0H0v340.157z"/></clipPath></defs><g clip-path="url(#a)" transform="matrix(1.25 0 0 -1.25 0 425.196)"><path d="M154.334 196.331l-2.472-3.46-34.216-48.28-34.157 48.187-2.514 3.5c-5.621 7.813-8.584 16.928-8.584 26.377 0 24.954 20.3 45.255 45.247 45.255s45.246-20.3 45.246-45.255c0-9.453-2.963-18.555-8.55-26.324m-36.696 115.48c-49.158 0-89.147-40.002-89.147-89.156 0-18.722 5.824-36.698 16.812-51.98l2.37-3.284 46.414-65.5s5.664-9.262 18.015-9.262h11.08c12.36 0 18.006 9.261 18.006 9.261l46.423 65.501 2.353 3.284c10.996 15.282 16.82 33.258 16.82 51.98 0 49.154-39.989 89.156-89.146 89.156M92.564 52.413v.18c0 13.318 10.581 24.348 24.862 24.348 14.298 0 24.786-10.85 24.786-24.17v-.178c0-13.218-10.581-24.246-24.955-24.246-14.188 0-24.693 10.839-24.693 24.066" fill="#ffe15c"/></g></svg>