<?xml version="1.0" encoding="UTF-8" standalone="no"?>
<svg width="30px" height="30px" viewBox="0 0 30 30" version="1.1" xmlns="http://www.w3.org/2000/svg" xmlns:xlink="http://www.w3.org/1999/xlink">
    <!-- Generator: sketchtool 42 (36781) - http://www.bohemiancoding.com/sketch -->
    <title>23C63A3C-D608-4259-8A74-B56C538DE3A8</title>
    <desc>Created with sketchtool.</desc>
    <defs></defs>
    <g id="Page-1" stroke="none" stroke-width="1" fill="none" fill-rule="evenodd">
        <g id="Assets" transform="translate(-132.000000, -39.000000)" fill="#FFCA43">
            <g id="Logo-30x30" transform="translate(132.000000, 39.000000)">
                <g id="Group" transform="translate(5.000000, 0.000000)">
                    <path d="M13.2922644,12.1980309 L13.0317862,12.5631505 L9.41659634,17.6613221 L5.81040788,12.5715893 L5.54486639,12.2019691 C4.95133615,11.3772152 4.63909986,10.4146273 4.63909986,9.41603376 C4.63909986,6.78087201 6.78424754,4.63684951 9.41659634,4.63684951 C12.0517581,4.63684951 14.195218,6.78087201 14.195218,9.41603376 C14.195218,10.4146273 13.8835443,11.3772152 13.2922644,12.1980309 M9.41659634,0 C4.22503516,0 0,4.22447257 0,9.41603376 C0,11.3940928 0.616596343,13.2917018 1.7766526,14.9068917 L2.02756681,15.2534459 L6.92995781,22.1710267 C6.92995781,22.1710267 7.52686357,23.1504923 8.83206751,23.1504923 L9.20787623,23.1504923 L9.70576653,23.1504923 L10.0011252,23.1504923 C11.3080169,23.1504923 11.9032349,22.1710267 11.9032349,22.1710267 L16.8073136,15.2534459 L17.0565401,14.9068917 C18.2182841,13.2917018 18.8326301,11.3940928 18.8326301,9.41603376 C18.8326301,4.22447257 14.6087201,0 9.41659634,0" id="Fill-1"></path>
                    <path d="M6.76866385,27.3961744 L6.76866385,27.3770464 C6.76866385,25.9722644 7.88596343,24.8054571 9.39482419,24.8054571 C10.9048101,24.8054571 12.0131083,25.9531364 12.0131083,27.3607314 L12.0131083,27.3770464 C12.0131083,28.772827 10.8935584,29.937384 9.37625879,29.937384 C7.87864979,29.937384 6.76866385,28.7936428 6.76866385,27.3961744" id="Fill-3"></path>
                </g>
            </g>
        </g>
    </g>
</svg>