<?xml version="1.0" encoding="UTF-8" standalone="no"?>
<svg width="10px" height="20px" viewBox="0 0 10 20" version="1.1" xmlns="http://www.w3.org/2000/svg" xmlns:xlink="http://www.w3.org/1999/xlink">
    <!-- Generator: sketchtool 39 (31667) - http://www.bohemiancoding.com/sketch -->
    <title>8CCB8FC6-C8BD-415E-B327-63FA644E0704</title>
    <desc>Created with sketchtool.</desc>
    <defs></defs>
    <g id="Page-1" stroke="none" stroke-width="1" fill="none" fill-rule="evenodd">
        <g id="prices" transform="translate(-751.000000, -416.000000)" stroke="#FFFFFF">
            <g id="Group-12" transform="translate(-410.000000, -20.000000)">
                <g id="Group-22" transform="translate(1161.000000, 436.000000)">
                    <g id="Group-20">
                        <path d="M5,9.42857143 C4.21102179,9.42857143 3.57142857,8.78897821 3.57142857,8 C3.57142857,7.6211193 3.72193834,7.25775657 3.98984746,6.98984746 C4.25775657,6.72193834 4.6211193,6.57142857 5,6.57142857 C5.78897821,6.57142857 6.42857143,7.21102179 6.42857143,8 C6.42857143,8.3788807 6.27806166,8.74224343 6.01015254,9.01015254 C5.74224343,9.27806166 5.3788807,9.42857143 5,9.42857143 L5,9.42857143 Z M5,4 C2.790861,4 1,5.790861 1,8 C1,11 5,15.4285714 5,15.4285714 C5,15.4285714 9,11 9,8 C9,5.790861 7.209139,4 5,4 L5,4 Z" id="Shape"></path>
                    </g>
                </g>
            </g>
        </g>
    </g>
</svg>