<?xml version="1.0" encoding="utf-8"?>
<!-- Generator: Adobe Illustrator 17.0.0, SVG Export Plug-In . SVG Version: 6.00 Build 0)  -->
<!DOCTYPE svg PUBLIC "-//W3C//DTD SVG 1.0//EN" "http://www.w3.org/TR/2001/REC-SVG-20010904/DTD/svg10.dtd">
<svg version="1.0" id="Capa_1" xmlns="http://www.w3.org/2000/svg" xmlns:xlink="http://www.w3.org/1999/xlink" x="0px" y="0px"
	 width="236px" height="282px" viewBox="0 0 236 282" enable-background="new 0 0 236 282" xml:space="preserve">
<g>
	<g>
		<g>
			<g>
				<path fill="#F2CD31" d="M200.455,167.433c-24.32,6.244-49.824,6.244-74.145,0c0-7.085,0-14.17,0-21.255
					c24.32,6.244,49.824,6.244,74.145,0C200.455,153.263,200.455,160.348,200.455,167.433z"/>
				<path fill="#3F3E3E" d="M163.382,174.701c-12.713,0-25.403-1.602-37.715-4.763c-1.143-0.295-1.942-1.325-1.942-2.505v-21.254
					c0-0.8,0.369-1.554,1.002-2.043c0.631-0.49,1.456-0.658,2.227-0.461c23.787,6.107,49.072,6.107,72.859,0
					c0.768-0.197,1.594-0.029,2.227,0.461c0.633,0.49,1.001,1.244,1.001,2.043v21.254c0,1.18-0.8,2.21-1.942,2.505
					C188.784,173.098,176.095,174.701,163.382,174.701z M128.895,165.413c22.568,5.467,46.406,5.467,68.974,0v-15.938
					c-22.595,5.272-46.379,5.272-68.974,0V165.413z"/>
			</g>
			<g>
				<path fill="#F2CD31" d="M200.455,167.433c-24.32,6.244-49.824,6.244-74.145,0c0-7.085,0-14.17,0-21.255
					c24.32,6.244,49.824,6.244,74.145,0C200.455,153.263,200.455,160.348,200.455,167.433z"/>
				<path fill="#3F3E3E" d="M163.382,174.701c-12.713,0-25.403-1.602-37.715-4.763c-1.143-0.295-1.942-1.325-1.942-2.505v-21.254
					c0-0.8,0.369-1.554,1.002-2.043c0.631-0.49,1.456-0.658,2.227-0.461c23.787,6.107,49.072,6.107,72.859,0
					c0.768-0.197,1.594-0.029,2.227,0.461c0.633,0.49,1.001,1.244,1.001,2.043v21.254c0,1.18-0.8,2.21-1.942,2.505
					C188.784,173.098,176.095,174.701,163.382,174.701z M128.895,165.413c22.568,5.467,46.406,5.467,68.974,0v-15.938
					c-22.595,5.272-46.379,5.272-68.974,0V165.413z"/>
			</g>
		</g>
		<g>
			<g>
				<path fill="#F2CD31" d="M200.455,188.849c-24.32,6.244-49.824,6.244-74.145,0c0-7.085,0-14.17,0-21.255
					c24.32,6.244,49.824,6.244,74.145,0C200.455,174.679,200.455,181.764,200.455,188.849z"/>
				<path fill="#3F3E3E" d="M163.382,196.119c-12.713,0-25.403-1.604-37.715-4.765c-1.143-0.295-1.942-1.325-1.942-2.505v-21.255
					c0-0.8,0.369-1.554,1.002-2.043c0.631-0.49,1.456-0.658,2.227-0.461c23.787,6.11,49.072,6.11,72.859,0
					c0.768-0.197,1.594-0.029,2.227,0.461c0.633,0.49,1.001,1.244,1.001,2.043v21.255c0,1.18-0.8,2.21-1.942,2.505
					C188.784,194.515,176.095,196.119,163.382,196.119z M128.895,186.83c22.568,5.467,46.406,5.467,68.974,0v-15.94
					c-22.595,5.275-46.379,5.275-68.974,0V186.83z"/>
			</g>
			<g>
				<path fill="#F2CD31" d="M200.455,188.849c-24.32,6.244-49.824,6.244-74.145,0c0-7.085,0-14.17,0-21.255
					c24.32,6.244,49.824,6.244,74.145,0C200.455,174.679,200.455,181.764,200.455,188.849z"/>
				<path fill="#3F3E3E" d="M163.382,196.119c-12.713,0-25.403-1.604-37.715-4.765c-1.143-0.295-1.942-1.325-1.942-2.505v-21.255
					c0-0.8,0.369-1.554,1.002-2.043c0.631-0.49,1.456-0.658,2.227-0.461c23.787,6.11,49.072,6.11,72.859,0
					c0.768-0.197,1.594-0.029,2.227,0.461c0.633,0.49,1.001,1.244,1.001,2.043v21.255c0,1.18-0.8,2.21-1.942,2.505
					C188.784,194.515,176.095,196.119,163.382,196.119z M128.895,186.83c22.568,5.467,46.406,5.467,68.974,0v-15.94
					c-22.595,5.275-46.379,5.275-68.974,0V186.83z"/>
			</g>
		</g>
		<g>
			<g>
				<path fill="#F2CD31" d="M200.455,210.265c-24.32,6.244-49.824,6.244-74.145,0c0-7.085,0-14.17,0-21.255
					c24.32,6.244,49.824,6.244,74.145,0C200.455,196.095,200.455,203.18,200.455,210.265z"/>
				<path fill="#3F3E3E" d="M163.382,217.535c-12.713,0-25.403-1.604-37.715-4.765c-1.143-0.295-1.942-1.325-1.942-2.505v-21.255
					c0-0.8,0.369-1.554,1.002-2.043c0.631-0.49,1.456-0.658,2.227-0.461c23.787,6.11,49.072,6.11,72.859,0
					c0.768-0.197,1.594-0.029,2.227,0.461c0.633,0.49,1.001,1.244,1.001,2.043v21.255c0,1.18-0.8,2.21-1.942,2.505
					C188.784,215.93,176.095,217.535,163.382,217.535z M128.895,208.245c22.568,5.467,46.406,5.467,68.974,0v-15.94
					c-22.595,5.275-46.379,5.275-68.974,0V208.245z"/>
			</g>
			<g>
				<path fill="#F2CD31" d="M200.455,210.265c-24.32,6.244-49.824,6.244-74.145,0c0-7.085,0-14.17,0-21.255
					c24.32,6.244,49.824,6.244,74.145,0C200.455,196.095,200.455,203.18,200.455,210.265z"/>
				<path fill="#3F3E3E" d="M163.382,217.535c-12.713,0-25.403-1.604-37.715-4.765c-1.143-0.295-1.942-1.325-1.942-2.505v-21.255
					c0-0.8,0.369-1.554,1.002-2.043c0.631-0.49,1.456-0.658,2.227-0.461c23.787,6.11,49.072,6.11,72.859,0
					c0.768-0.197,1.594-0.029,2.227,0.461c0.633,0.49,1.001,1.244,1.001,2.043v21.255c0,1.18-0.8,2.21-1.942,2.505
					C188.784,215.93,176.095,217.535,163.382,217.535z M128.895,208.245c22.568,5.467,46.406,5.467,68.974,0v-15.94
					c-22.595,5.275-46.379,5.275-68.974,0V208.245z"/>
			</g>
		</g>
		<g>
			<g>
				<path fill="#F2CD31" d="M200.455,146.178c-24.32,6.244-49.824,6.244-74.145,0c0-7.085,0-14.17,0-21.255
					c24.32,6.244,49.824,6.244,74.145,0C200.455,132.008,200.455,139.093,200.455,146.178z"/>
				<path fill="#3F3E3E" d="M163.382,153.447c-12.713,0-25.401-1.602-37.715-4.763c-1.143-0.295-1.942-1.325-1.942-2.505v-21.255
					c0-0.8,0.369-1.554,1.002-2.043c0.631-0.491,1.456-0.66,2.227-0.461c23.787,6.107,49.072,6.107,72.859,0
					c0.768-0.199,1.594-0.03,2.227,0.461c0.633,0.49,1.001,1.244,1.001,2.043v21.255c0,1.18-0.8,2.21-1.942,2.505
					C188.783,151.844,176.095,153.447,163.382,153.447z M128.895,144.159c22.565,5.464,46.409,5.464,68.974,0v-15.94
					c-22.595,5.272-46.379,5.272-68.974,0V144.159z"/>
			</g>
			<g>
				<path fill="#F2CD31" d="M200.455,146.178c-24.32,6.244-49.824,6.244-74.145,0c0-7.085,0-14.17,0-21.255
					c24.32,6.244,49.824,6.244,74.145,0C200.455,132.008,200.455,139.093,200.455,146.178z"/>
				<path fill="#3F3E3E" d="M163.382,153.447c-12.713,0-25.401-1.602-37.715-4.763c-1.143-0.295-1.942-1.325-1.942-2.505v-21.255
					c0-0.8,0.369-1.554,1.002-2.043c0.631-0.491,1.456-0.66,2.227-0.461c23.787,6.107,49.072,6.107,72.859,0
					c0.768-0.199,1.594-0.03,2.227,0.461c0.633,0.49,1.001,1.244,1.001,2.043v21.255c0,1.18-0.8,2.21-1.942,2.505
					C188.783,151.844,176.095,153.447,163.382,153.447z M128.895,144.159c22.565,5.464,46.409,5.464,68.974,0v-15.94
					c-22.595,5.272-46.379,5.272-68.974,0V144.159z"/>
			</g>
		</g>
		<g>
			<g>
				<path fill="#F2CD31" d="M200.455,124.923c-24.32,6.244-49.824,6.244-74.145,0c0-7.085,0-14.17,0-21.255
					c24.32,6.244,49.824,6.244,74.145,0C200.455,110.753,200.455,117.838,200.455,124.923z"/>
				<path fill="#3F3E3E" d="M163.382,132.193c-12.713,0-25.403-1.604-37.715-4.765c-1.143-0.295-1.942-1.325-1.942-2.505v-21.255
					c0-0.8,0.369-1.554,1.002-2.043c0.631-0.491,1.456-0.66,2.227-0.461c23.787,6.11,49.072,6.11,72.859,0
					c0.768-0.199,1.594-0.03,2.227,0.461c0.633,0.49,1.001,1.244,1.001,2.043v21.255c0,1.18-0.8,2.21-1.942,2.505
					C188.784,130.589,176.095,132.193,163.382,132.193z M128.895,122.904c22.568,5.467,46.406,5.467,68.974,0v-15.94
					c-22.595,5.275-46.379,5.275-68.974,0V122.904z"/>
			</g>
			<g>
				<path fill="#F2CD31" d="M200.455,124.923c-24.32,6.244-49.824,6.244-74.145,0c0-7.085,0-14.17,0-21.255
					c24.32,6.244,49.824,6.244,74.145,0C200.455,110.753,200.455,117.838,200.455,124.923z"/>
				<path fill="#3F3E3E" d="M163.382,132.193c-12.713,0-25.403-1.604-37.715-4.765c-1.143-0.295-1.942-1.325-1.942-2.505v-21.255
					c0-0.8,0.369-1.554,1.002-2.043c0.631-0.491,1.456-0.66,2.227-0.461c23.787,6.11,49.072,6.11,72.859,0
					c0.768-0.199,1.594-0.03,2.227,0.461c0.633,0.49,1.001,1.244,1.001,2.043v21.255c0,1.18-0.8,2.21-1.942,2.505
					C188.784,130.589,176.095,132.193,163.382,132.193z M128.895,122.904c22.568,5.467,46.406,5.467,68.974,0v-15.94
					c-22.595,5.275-46.379,5.275-68.974,0V122.904z"/>
			</g>
		</g>
		<g>
			<g>
				<path fill="#F2CD31" d="M200.455,103.667c-24.32,6.244-49.824,6.244-74.145,0c0-7.085,0-14.17,0-21.255
					c24.32,6.244,49.824,6.244,74.145,0C200.455,89.497,200.455,96.582,200.455,103.667z"/>
				<path fill="#3F3E3E" d="M163.382,110.938c-12.713,0-25.403-1.604-37.715-4.765c-1.143-0.295-1.942-1.325-1.942-2.505V82.413
					c0-0.8,0.369-1.554,1.002-2.043c0.631-0.491,1.456-0.658,2.227-0.461c23.787,6.11,49.072,6.11,72.859,0
					c0.768-0.197,1.594-0.03,2.227,0.461c0.633,0.49,1.001,1.244,1.001,2.043v21.255c0,1.18-0.8,2.21-1.942,2.505
					C188.784,109.334,176.095,110.938,163.382,110.938z M128.895,101.648c22.568,5.467,46.406,5.467,68.974,0v-15.94
					c-22.595,5.275-46.379,5.275-68.974,0V101.648z"/>
			</g>
			<g>
				<path fill="#F2CD31" d="M200.455,103.667c-24.32,6.244-49.824,6.244-74.145,0c0-7.085,0-14.17,0-21.255
					c24.32,6.244,49.824,6.244,74.145,0C200.455,89.497,200.455,96.582,200.455,103.667z"/>
				<path fill="#3F3E3E" d="M163.382,110.938c-12.713,0-25.403-1.604-37.715-4.765c-1.143-0.295-1.942-1.325-1.942-2.505V82.413
					c0-0.8,0.369-1.554,1.002-2.043c0.631-0.491,1.456-0.658,2.227-0.461c23.787,6.11,49.072,6.11,72.859,0
					c0.768-0.197,1.594-0.03,2.227,0.461c0.633,0.49,1.001,1.244,1.001,2.043v21.255c0,1.18-0.8,2.21-1.942,2.505
					C188.784,109.334,176.095,110.938,163.382,110.938z M128.895,101.648c22.568,5.467,46.406,5.467,68.974,0v-15.94
					c-22.595,5.275-46.379,5.275-68.974,0V101.648z"/>
			</g>
		</g>
		<g>
			<g>
				<path fill="#F2CD31" d="M200.455,82.412c-24.32,6.244-49.824,6.244-74.145,0c0-7.085,0-16.727,0-23.812
					c24.32,6.244,49.824,6.244,74.145,0C200.455,65.685,200.455,75.327,200.455,82.412z"/>
				<path fill="#3F3E3E" d="M163.382,89.682c-12.713,0-25.403-1.604-37.715-4.765c-1.143-0.295-1.942-1.325-1.942-2.505V58.6
					c0-0.799,0.369-1.553,1.002-2.043c0.631-0.492,1.456-0.661,2.227-0.461c23.787,6.109,49.072,6.109,72.859,0
					c0.768-0.2,1.594-0.031,2.227,0.461c0.633,0.49,1.001,1.244,1.001,2.043v23.812c0,1.18-0.8,2.21-1.942,2.505
					C188.784,88.078,176.095,89.682,163.382,89.682z M128.895,80.393c22.568,5.467,46.406,5.467,68.974,0V61.896
					c-22.595,5.275-46.379,5.275-68.974,0V80.393z"/>
			</g>
			<g>
				<path fill="#F2CD31" d="M200.455,82.412c-24.32,6.244-49.824,6.244-74.145,0c0-7.085,0-16.727,0-23.812
					c24.32,6.244,49.824,6.244,74.145,0C200.455,65.685,200.455,75.327,200.455,82.412z"/>
				<path fill="#3F3E3E" d="M163.382,89.682c-12.713,0-25.403-1.604-37.715-4.765c-1.143-0.295-1.942-1.325-1.942-2.505V58.6
					c0-0.799,0.369-1.553,1.002-2.043c0.631-0.492,1.456-0.661,2.227-0.461c23.787,6.109,49.072,6.109,72.859,0
					c0.768-0.2,1.594-0.031,2.227,0.461c0.633,0.49,1.001,1.244,1.001,2.043v23.812c0,1.18-0.8,2.21-1.942,2.505
					C188.784,88.078,176.095,89.682,163.382,89.682z M128.895,80.393c22.568,5.467,46.406,5.467,68.974,0V61.896
					c-22.595,5.275-46.379,5.275-68.974,0V80.393z"/>
			</g>
		</g>
		<g>
			<ellipse fill="#FFED00" cx="163.382" cy="58.6" rx="37.072" ry="9.472"/>
			<path fill="#3F3E3E" d="M163.382,70.657c-14.73,0-39.658-2.54-39.658-12.057c0-9.518,24.928-12.058,39.658-12.058
				c14.73,0,39.658,2.539,39.658,12.058C203.039,68.117,178.111,70.657,163.382,70.657z M163.382,51.714
				c-22.93,0-34.108,5.002-34.489,6.903c0.38,1.869,11.559,6.87,34.489,6.87s34.108-5.001,34.489-6.902
				C197.49,56.715,186.312,51.714,163.382,51.714z"/>
		</g>
	</g>
	<g>
		<g>
			<path fill="#F2CD31" d="M109.691,194.542c-24.32,6.244-49.824,6.244-74.145,0c0-7.085,0-14.17,0-21.255
				c24.32,6.244,49.824,6.244,74.145,0C109.691,180.372,109.691,187.457,109.691,194.542z"/>
			<path fill="#3F3E3E" d="M72.618,201.812c-12.713,0-25.403-1.604-37.715-4.765c-1.143-0.295-1.942-1.325-1.942-2.505v-21.255
				c0-0.8,0.369-1.554,1.002-2.043c0.631-0.49,1.454-0.658,2.227-0.461c23.787,6.11,49.072,6.11,72.859,0
				c0.769-0.197,1.596-0.029,2.227,0.461c0.633,0.49,1.002,1.244,1.002,2.043v21.255c0,1.18-0.8,2.21-1.942,2.505
				C98.021,200.208,85.332,201.812,72.618,201.812z M38.131,192.522c22.568,5.467,46.406,5.467,68.974,0v-15.94
				c-22.595,5.275-46.379,5.275-68.974,0V192.522z"/>
		</g>
		<g>
			<path fill="#3F3E3E" d="M72.618,201.812c-12.713,0-25.403-1.604-37.715-4.765c-1.143-0.295-1.942-1.325-1.942-2.505v-21.255
				c0-0.8,0.369-1.554,1.002-2.043c0.631-0.49,1.454-0.658,2.227-0.461c23.787,6.11,49.072,6.11,72.859,0
				c0.769-0.197,1.596-0.029,2.227,0.461c0.633,0.49,1.002,1.244,1.002,2.043v21.255c0,1.18-0.8,2.21-1.942,2.505
				C98.021,200.208,85.332,201.812,72.618,201.812z M38.131,192.522c22.568,5.467,46.406,5.467,68.974,0v-15.94
				c-22.595,5.275-46.379,5.275-68.974,0V192.522z"/>
		</g>
	</g>
	<g>
		<g>
			<path fill="#F2CD31" d="M109.691,215.958c-24.32,6.244-49.824,6.244-74.145,0c0-7.085,0-14.17,0-21.255
				c24.32,6.244,49.824,6.244,74.145,0C109.691,201.788,109.691,208.873,109.691,215.958z"/>
			<path fill="#3F3E3E" d="M72.618,223.227c-12.713,0-25.403-1.604-37.715-4.765c-1.143-0.295-1.942-1.325-1.942-2.505v-21.254
				c0-0.8,0.369-1.554,1.002-2.043c0.631-0.492,1.454-0.658,2.227-0.461c23.787,6.107,49.072,6.107,72.859,0
				c0.769-0.197,1.596-0.03,2.227,0.461c0.633,0.49,1.002,1.244,1.002,2.043v21.254c0,1.18-0.8,2.21-1.942,2.505
				C98.021,221.623,85.332,223.227,72.618,223.227z M38.131,213.938c22.568,5.467,46.406,5.467,68.974,0v-15.938
				c-22.595,5.272-46.379,5.272-68.974,0V213.938z"/>
		</g>
		<g>
			<path fill="#3F3E3E" d="M72.618,223.227c-12.713,0-25.403-1.604-37.715-4.765c-1.143-0.295-1.942-1.325-1.942-2.505v-21.254
				c0-0.8,0.369-1.554,1.002-2.043c0.631-0.492,1.454-0.658,2.227-0.461c23.787,6.107,49.072,6.107,72.859,0
				c0.769-0.197,1.596-0.03,2.227,0.461c0.633,0.49,1.002,1.244,1.002,2.043v21.254c0,1.18-0.8,2.21-1.942,2.505
				C98.021,221.623,85.332,223.227,72.618,223.227z M38.131,213.938c22.568,5.467,46.406,5.467,68.974,0v-15.938
				c-22.595,5.272-46.379,5.272-68.974,0V213.938z"/>
		</g>
	</g>
	<g>
		<g>
			<path fill="#F2CD31" d="M109.691,173.287c-24.32,6.244-49.824,6.244-74.145,0c0-7.085,0-14.17,0-21.255
				c24.32,6.244,49.824,6.244,74.145,0C109.691,159.117,109.691,166.202,109.691,173.287z"/>
			<path fill="#3F3E3E" d="M72.618,180.556c-12.713,0-25.403-1.604-37.715-4.765c-1.143-0.295-1.942-1.325-1.942-2.505v-21.255
				c0-0.8,0.369-1.554,1.002-2.043c0.631-0.49,1.454-0.658,2.227-0.461c23.787,6.11,49.072,6.11,72.859,0
				c0.769-0.197,1.596-0.029,2.227,0.461c0.633,0.49,1.002,1.244,1.002,2.043v21.255c0,1.18-0.8,2.21-1.942,2.505
				C98.021,178.952,85.332,180.556,72.618,180.556z M38.131,171.267c22.568,5.467,46.406,5.467,68.974,0v-15.94
				c-22.595,5.275-46.379,5.275-68.974,0V171.267z"/>
		</g>
		<g>
			<path fill="#3F3E3E" d="M72.618,180.556c-12.713,0-25.403-1.604-37.715-4.765c-1.143-0.295-1.942-1.325-1.942-2.505v-21.255
				c0-0.8,0.369-1.554,1.002-2.043c0.631-0.49,1.454-0.658,2.227-0.461c23.787,6.11,49.072,6.11,72.859,0
				c0.769-0.197,1.596-0.029,2.227,0.461c0.633,0.49,1.002,1.244,1.002,2.043v21.255c0,1.18-0.8,2.21-1.942,2.505
				C98.021,178.952,85.332,180.556,72.618,180.556z M38.131,171.267c22.568,5.467,46.406,5.467,68.974,0v-15.94
				c-22.595,5.275-46.379,5.275-68.974,0V171.267z"/>
		</g>
	</g>
	<g>
		<g>
			<path fill="#F2CD31" d="M109.691,152.032c-24.32,6.244-49.824,6.244-74.145,0c0-7.085,0-14.17,0-21.255
				c24.32,6.244,49.824,6.244,74.145,0C109.691,137.861,109.691,144.947,109.691,152.032z"/>
			<path fill="#3F3E3E" d="M72.618,159.301c-12.713,0-25.403-1.604-37.715-4.765c-1.143-0.295-1.942-1.325-1.942-2.505v-21.255
				c0-0.8,0.369-1.554,1.002-2.043c0.631-0.49,1.454-0.658,2.227-0.461c23.787,6.11,49.072,6.11,72.859,0
				c0.769-0.197,1.596-0.029,2.227,0.461c0.633,0.49,1.002,1.244,1.002,2.043v21.255c0,1.18-0.8,2.21-1.942,2.505
				C98.021,157.697,85.332,159.301,72.618,159.301z M38.131,150.011c22.568,5.467,46.406,5.467,68.974,0v-15.94
				c-22.595,5.275-46.379,5.275-68.974,0V150.011z"/>
		</g>
		<g>
			<path fill="#3F3E3E" d="M72.618,159.301c-12.713,0-25.403-1.604-37.715-4.765c-1.143-0.295-1.942-1.325-1.942-2.505v-21.255
				c0-0.8,0.369-1.554,1.002-2.043c0.631-0.49,1.454-0.658,2.227-0.461c23.787,6.11,49.072,6.11,72.859,0
				c0.769-0.197,1.596-0.029,2.227,0.461c0.633,0.49,1.002,1.244,1.002,2.043v21.255c0,1.18-0.8,2.21-1.942,2.505
				C98.021,157.697,85.332,159.301,72.618,159.301z M38.131,150.011c22.568,5.467,46.406,5.467,68.974,0v-15.94
				c-22.595,5.275-46.379,5.275-68.974,0V150.011z"/>
		</g>
	</g>
	<g>
		<g>
			<path fill="#F2CD31" d="M109.691,130.776c-24.32,6.244-49.824,6.244-74.145,0c0-7.085,0-14.17,0-21.255
				c24.32,6.244,49.824,6.244,74.145,0C109.691,116.606,109.691,123.691,109.691,130.776z"/>
			<path fill="#3F3E3E" d="M72.618,138.046c-12.713,0-25.403-1.604-37.715-4.765c-1.143-0.295-1.942-1.325-1.942-2.505V109.52
				c0-0.8,0.369-1.554,1.002-2.043c0.631-0.491,1.454-0.66,2.227-0.461c23.787,6.11,49.072,6.11,72.859,0
				c0.769-0.199,1.596-0.03,2.227,0.461c0.633,0.49,1.002,1.244,1.002,2.043v21.255c0,1.18-0.8,2.21-1.942,2.505
				C98.021,136.441,85.332,138.046,72.618,138.046z M38.131,128.756c22.568,5.467,46.406,5.467,68.974,0v-15.94
				c-22.595,5.275-46.379,5.275-68.974,0V128.756z"/>
		</g>
		<g>
			<path fill="#3F3E3E" d="M72.618,138.046c-12.713,0-25.403-1.604-37.715-4.765c-1.143-0.295-1.942-1.325-1.942-2.505V109.52
				c0-0.8,0.369-1.554,1.002-2.043c0.631-0.491,1.454-0.66,2.227-0.461c23.787,6.11,49.072,6.11,72.859,0
				c0.769-0.199,1.596-0.03,2.227,0.461c0.633,0.49,1.002,1.244,1.002,2.043v21.255c0,1.18-0.8,2.21-1.942,2.505
				C98.021,136.441,85.332,138.046,72.618,138.046z M38.131,128.756c22.568,5.467,46.406,5.467,68.974,0v-15.94
				c-22.595,5.275-46.379,5.275-68.974,0V128.756z"/>
		</g>
	</g>
	<g>
		<g>
			<path fill="#F2CD31" d="M109.691,109.521c-24.32,6.244-49.824,6.244-74.145,0c0-7.085,0-16.727,0-23.812
				c24.32,6.244,49.824,6.244,74.145,0C109.691,92.794,109.691,102.436,109.691,109.521z"/>
			<path fill="#3F3E3E" d="M72.618,116.79c-12.713,0-25.403-1.604-37.715-4.765c-1.143-0.295-1.942-1.325-1.942-2.505V85.71
				c0-0.8,0.369-1.554,1.002-2.043c0.631-0.491,1.454-0.656,2.227-0.461c23.787,6.107,49.072,6.107,72.859,0
				c0.769-0.195,1.596-0.03,2.227,0.461c0.633,0.49,1.002,1.244,1.002,2.043v23.811c0,1.18-0.8,2.21-1.942,2.505
				C98.021,115.186,85.332,116.79,72.618,116.79z M38.131,107.501c22.568,5.467,46.406,5.467,68.974,0V89.006
				c-22.595,5.272-46.379,5.272-68.974,0V107.501z"/>
		</g>
		<g>
			<path fill="#3F3E3E" d="M72.618,116.79c-12.713,0-25.403-1.604-37.715-4.765c-1.143-0.295-1.942-1.325-1.942-2.505V85.71
				c0-0.8,0.369-1.554,1.002-2.043c0.631-0.491,1.454-0.656,2.227-0.461c23.787,6.107,49.072,6.107,72.859,0
				c0.769-0.195,1.596-0.03,2.227,0.461c0.633,0.49,1.002,1.244,1.002,2.043v23.811c0,1.18-0.8,2.21-1.942,2.505
				C98.021,115.186,85.332,116.79,72.618,116.79z M38.131,107.501c22.568,5.467,46.406,5.467,68.974,0V89.006
				c-22.595,5.272-46.379,5.272-68.974,0V107.501z"/>
		</g>
	</g>
	<g>
		<ellipse fill="#FFED00" cx="72.619" cy="85.709" rx="37.072" ry="9.472"/>
		<path fill="#3F3E3E" d="M72.618,97.767c-14.73,0-39.658-2.54-39.658-12.057c0-9.518,24.928-12.058,39.658-12.058
			s39.658,2.54,39.658,12.058C112.276,95.227,87.348,97.767,72.618,97.767z M72.618,78.822c-22.93,0-34.108,5.002-34.489,6.903
			c0.38,1.87,11.559,6.871,34.489,6.871s34.108-5.001,34.489-6.901C106.727,83.825,95.549,78.822,72.618,78.822z"/>
	</g>
	<g>
		<g>
			<g>
				<path fill="#FFED00" d="M149.32,228.187c-24.32,6.244-49.824,6.244-74.145,0c0-7.085,0-14.17,0-21.255
					c24.32,6.244,49.824,6.244,74.145,0C149.32,214.017,149.32,221.102,149.32,228.187z"/>
				<path fill="#3F3E3E" d="M112.248,235.457c-12.713,0-25.403-1.604-37.715-4.765c-1.143-0.295-1.942-1.325-1.942-2.505v-21.255
					c0-0.8,0.369-1.554,1.002-2.043c0.631-0.49,1.454-0.658,2.227-0.461c23.787,6.11,49.072,6.11,72.859,0
					c0.768-0.197,1.596-0.029,2.227,0.461c0.633,0.49,1.002,1.244,1.002,2.043v21.255c0,1.18-0.8,2.21-1.942,2.505
					C137.65,233.853,124.961,235.457,112.248,235.457z M77.761,226.168c22.568,5.467,46.406,5.467,68.974,0v-15.94
					c-22.595,5.275-46.379,5.275-68.974,0V226.168z"/>
			</g>
			<g>
				<path fill="#FFED00" d="M149.32,228.187c-24.32,6.244-49.824,6.244-74.145,0c0-7.085,0-14.17,0-21.255
					c24.32,6.244,49.824,6.244,74.145,0C149.32,214.017,149.32,221.102,149.32,228.187z"/>
				<path fill="#3F3E3E" d="M112.248,235.457c-12.713,0-25.403-1.604-37.715-4.765c-1.143-0.295-1.942-1.325-1.942-2.505v-21.255
					c0-0.8,0.369-1.554,1.002-2.043c0.631-0.49,1.454-0.658,2.227-0.461c23.787,6.11,49.072,6.11,72.859,0
					c0.768-0.197,1.596-0.029,2.227,0.461c0.633,0.49,1.002,1.244,1.002,2.043v21.255c0,1.18-0.8,2.21-1.942,2.505
					C137.65,233.853,124.961,235.457,112.248,235.457z M77.761,226.168c22.568,5.467,46.406,5.467,68.974,0v-15.94
					c-22.595,5.275-46.379,5.275-68.974,0V226.168z"/>
			</g>
		</g>
		<g>
			<g>
				<path fill="#FFED00" d="M149.32,206.932c-24.32,6.244-49.824,6.244-74.145,0c0-7.085,0-14.17,0-21.255
					c24.32,6.244,49.824,6.244,74.145,0C149.32,192.762,149.32,199.847,149.32,206.932z"/>
				<path fill="#3F3E3E" d="M112.248,214.202c-12.713,0-25.403-1.604-37.715-4.765c-1.143-0.295-1.942-1.325-1.942-2.505v-21.255
					c0-0.8,0.369-1.554,1.002-2.043c0.631-0.492,1.454-0.656,2.227-0.461c23.787,6.11,49.072,6.11,72.859,0
					c0.768-0.195,1.596-0.03,2.227,0.461c0.633,0.49,1.002,1.244,1.002,2.043v21.255c0,1.18-0.8,2.21-1.942,2.505
					C137.65,212.598,124.961,214.202,112.248,214.202z M77.761,204.912c22.568,5.467,46.406,5.467,68.974,0v-15.94
					c-22.595,5.275-46.379,5.275-68.974,0V204.912z"/>
			</g>
			<g>
				<path fill="#FFED00" d="M149.32,206.932c-24.32,6.244-49.824,6.244-74.145,0c0-7.085,0-14.17,0-21.255
					c24.32,6.244,49.824,6.244,74.145,0C149.32,192.762,149.32,199.847,149.32,206.932z"/>
				<path fill="#3F3E3E" d="M112.248,214.202c-12.713,0-25.403-1.604-37.715-4.765c-1.143-0.295-1.942-1.325-1.942-2.505v-21.255
					c0-0.8,0.369-1.554,1.002-2.043c0.631-0.492,1.454-0.656,2.227-0.461c23.787,6.11,49.072,6.11,72.859,0
					c0.768-0.195,1.596-0.03,2.227,0.461c0.633,0.49,1.002,1.244,1.002,2.043v21.255c0,1.18-0.8,2.21-1.942,2.505
					C137.65,212.598,124.961,214.202,112.248,214.202z M77.761,204.912c22.568,5.467,46.406,5.467,68.974,0v-15.94
					c-22.595,5.275-46.379,5.275-68.974,0V204.912z"/>
			</g>
		</g>
		<g>
			<g>
				<path fill="#FFED00" d="M149.32,185.677c-24.32,6.244-49.824,6.244-74.145,0c0-7.085,0-14.17,0-21.255
					c24.32,6.244,49.824,6.244,74.145,0C149.32,171.507,149.32,178.592,149.32,185.677z"/>
				<path fill="#3F3E3E" d="M112.248,192.946c-12.713,0-25.403-1.604-37.715-4.765c-1.143-0.295-1.942-1.325-1.942-2.505v-21.255
					c0-0.8,0.369-1.554,1.002-2.043c0.631-0.49,1.454-0.66,2.227-0.461c23.787,6.11,49.072,6.11,72.859,0
					c0.768-0.199,1.596-0.029,2.227,0.461c0.633,0.49,1.002,1.244,1.002,2.043v21.255c0,1.18-0.8,2.21-1.942,2.505
					C137.65,191.342,124.961,192.946,112.248,192.946z M77.761,183.657c22.568,5.467,46.406,5.467,68.974,0v-15.94
					c-22.595,5.275-46.379,5.275-68.974,0V183.657z"/>
			</g>
			<g>
				<path fill="#FFED00" d="M149.32,185.677c-24.32,6.244-49.824,6.244-74.145,0c0-7.085,0-14.17,0-21.255
					c24.32,6.244,49.824,6.244,74.145,0C149.32,171.507,149.32,178.592,149.32,185.677z"/>
				<path fill="#3F3E3E" d="M112.248,192.946c-12.713,0-25.403-1.604-37.715-4.765c-1.143-0.295-1.942-1.325-1.942-2.505v-21.255
					c0-0.8,0.369-1.554,1.002-2.043c0.631-0.49,1.454-0.66,2.227-0.461c23.787,6.11,49.072,6.11,72.859,0
					c0.768-0.199,1.596-0.029,2.227,0.461c0.633,0.49,1.002,1.244,1.002,2.043v21.255c0,1.18-0.8,2.21-1.942,2.505
					C137.65,191.342,124.961,192.946,112.248,192.946z M77.761,183.657c22.568,5.467,46.406,5.467,68.974,0v-15.94
					c-22.595,5.275-46.379,5.275-68.974,0V183.657z"/>
			</g>
		</g>
		<g>
			<g>
				<path fill="#FFED00" d="M149.32,164.421c-24.32,6.244-49.824,6.244-74.145,0c0-7.085,0-14.17,0-21.255
					c24.32,6.244,49.824,6.244,74.145,0C149.32,150.251,149.32,157.336,149.32,164.421z"/>
				<path fill="#3F3E3E" d="M112.248,171.691c-12.713,0-25.403-1.604-37.715-4.765c-1.143-0.295-1.942-1.325-1.942-2.505v-21.255
					c0-0.8,0.369-1.554,1.002-2.043c0.631-0.49,1.454-0.66,2.227-0.461c23.787,6.11,49.072,6.11,72.859,0
					c0.768-0.199,1.596-0.029,2.227,0.461c0.633,0.49,1.002,1.244,1.002,2.043v21.255c0,1.18-0.8,2.21-1.942,2.505
					C137.65,170.087,124.961,171.691,112.248,171.691z M77.761,162.401c22.568,5.467,46.406,5.467,68.974,0v-15.94
					c-22.595,5.275-46.379,5.275-68.974,0V162.401z"/>
			</g>
			<g>
				<path fill="#FFED00" d="M149.32,164.421c-24.32,6.244-49.824,6.244-74.145,0c0-7.085,0-14.17,0-21.255
					c24.32,6.244,49.824,6.244,74.145,0C149.32,150.251,149.32,157.336,149.32,164.421z"/>
				<path fill="#3F3E3E" d="M112.248,171.691c-12.713,0-25.403-1.604-37.715-4.765c-1.143-0.295-1.942-1.325-1.942-2.505v-21.255
					c0-0.8,0.369-1.554,1.002-2.043c0.631-0.49,1.454-0.66,2.227-0.461c23.787,6.11,49.072,6.11,72.859,0
					c0.768-0.199,1.596-0.029,2.227,0.461c0.633,0.49,1.002,1.244,1.002,2.043v21.255c0,1.18-0.8,2.21-1.942,2.505
					C137.65,170.087,124.961,171.691,112.248,171.691z M77.761,162.401c22.568,5.467,46.406,5.467,68.974,0v-15.94
					c-22.595,5.275-46.379,5.275-68.974,0V162.401z"/>
			</g>
		</g>
		<g>
			<g>
				<path fill="#FFED00" d="M149.32,143.166c-24.32,6.244-49.824,6.244-74.145,0c0-7.085,0-16.727,0-23.812
					c24.32,6.244,49.824,6.244,74.145,0C149.32,126.439,149.32,136.081,149.32,143.166z"/>
				<path fill="#3F3E3E" d="M112.248,150.436c-12.713,0-25.403-1.604-37.715-4.765c-1.143-0.295-1.942-1.325-1.942-2.505v-23.812
					c0-0.8,0.369-1.554,1.002-2.043c0.631-0.49,1.454-0.658,2.227-0.461c23.787,6.11,49.072,6.11,72.859,0
					c0.768-0.197,1.596-0.029,2.227,0.461c0.633,0.49,1.002,1.244,1.002,2.043v23.812c0,1.18-0.8,2.21-1.942,2.505
					C137.65,148.831,124.961,150.436,112.248,150.436z M77.761,141.146c22.568,5.467,46.406,5.467,68.974,0v-18.497
					c-22.595,5.275-46.379,5.275-68.974,0V141.146z"/>
			</g>
			<g>
				<path fill="#FFED00" d="M149.32,143.166c-24.32,6.244-49.824,6.244-74.145,0c0-7.085,0-16.727,0-23.812
					c24.32,6.244,49.824,6.244,74.145,0C149.32,126.439,149.32,136.081,149.32,143.166z"/>
				<path fill="#3F3E3E" d="M112.248,150.436c-12.713,0-25.403-1.604-37.715-4.765c-1.143-0.295-1.942-1.325-1.942-2.505v-23.812
					c0-0.8,0.369-1.554,1.002-2.043c0.631-0.49,1.454-0.658,2.227-0.461c23.787,6.11,49.072,6.11,72.859,0
					c0.768-0.197,1.596-0.029,2.227,0.461c0.633,0.49,1.002,1.244,1.002,2.043v23.812c0,1.18-0.8,2.21-1.942,2.505
					C137.65,148.831,124.961,150.436,112.248,150.436z M77.761,141.146c22.568,5.467,46.406,5.467,68.974,0v-18.497
					c-22.595,5.275-46.379,5.275-68.974,0V141.146z"/>
			</g>
		</g>
		<g>
			<ellipse fill="#FAEE6A" cx="112.248" cy="119.354" rx="37.072" ry="9.472"/>
			<path fill="#3F3E3E" d="M112.248,131.412c-14.73,0-39.658-2.54-39.658-12.058c0-9.517,24.928-12.057,39.658-12.057
				s39.658,2.54,39.658,12.057C151.906,128.872,126.977,131.412,112.248,131.412z M112.248,112.468
				c-22.93,0-34.108,5.001-34.489,6.901c0.38,1.87,11.559,6.872,34.489,6.872s34.108-5.002,34.489-6.903
				C146.356,117.468,135.178,112.468,112.248,112.468z"/>
		</g>
	</g>
</g>
</svg>
