<?xml version="1.0" encoding="UTF-8" standalone="no"?>
<svg width="359px" height="546px" viewBox="0 0 359 546" version="1.1" xmlns="http://www.w3.org/2000/svg" xmlns:xlink="http://www.w3.org/1999/xlink">
    <!-- Generator: sketchtool 41.1 (35376) - http://www.bohemiancoding.com/sketch -->
    <title>533407E5-C91A-4994-9FD8-B1E295178C18</title>
    <desc>Created with sketchtool.</desc>
    <defs>
        <polygon id="path-1" points="0.0506628901 2.25878212 140.428903 2.25878212 140.428903 0.000451756424 0.0506628901 0.000451756424 0.0506628901 2.25878212"></polygon>
        <polygon id="path-3" points="118.070769 0.110680324 0.121366728 0.110680324 0.121366728 198.78141 118.070769 198.78141 118.070769 0.110680324"></polygon>
        <polygon id="path-5" points="139.295148 197.864195 139.295148 0.101180784 4.26325641e-14 0.101180784 4.26325641e-14 197.864195"></polygon>
        <polygon id="path-7" points="129.046174 183.012954 129.046174 0.0935863818 2.84217094e-13 0.0935863818 2.84217094e-13 183.012954"></polygon>
    </defs>
    <g id="Page-1" stroke="none" stroke-width="1" fill="none" fill-rule="evenodd">
        <g id="Desktop-Landscape-Copy-8" transform="translate(-795.000000, -757.000000)">
            <g id="Group" transform="translate(795.000000, 752.000000)">
                <g id="Page-1" transform="translate(3.000000, 261.864900)">
                    <polygon id="Fill-1" fill="#F8C05D" points="216.466379 236.313404 240.547845 284.87722 335.853811 284.87722 283.863509 183.514372"></polygon>
                    <g id="Group-89" transform="translate(0.000000, 0.270673)">
                        <path d="M241.907336,282.347765 L332.197898,282.347765 L283.123477,186.670272 L219.270537,236.693261 L241.907336,282.347765 Z M335.896952,286.865329 C335.883678,286.863071 335.870404,286.863071 335.852705,286.865329 L240.546738,286.865329 C239.712681,286.865329 238.951632,286.386468 238.573319,285.627517 L214.494066,237.063701 C214.013986,236.092425 214.277256,234.911082 215.120162,234.251517 L282.51508,181.452485 C283.034983,181.043646 283.703114,180.892307 284.340272,181.036869 C284.977429,181.181431 285.519456,181.603824 285.822548,182.195625 L337.631437,283.201585 C337.930105,283.587836 338.109306,284.075733 338.109306,284.606547 C338.109306,285.855654 337.120384,286.865329 335.896952,286.865329 L335.896952,286.865329 Z" id="Fill-2" fill="#D6900C"></path>
                        <path d="M109.121007,60.5972515 C106.667507,65.8240733 108.828976,72.0899349 113.948362,74.5926655 L156.257406,95.4367069 C161.376791,97.9416963 156.452093,95.7348661 158.90338,90.5080443 L161.772803,84.3980387 C164.22409,79.1712168 173.1266,72.9053552 168.007214,70.4003659 L125.69817,49.5585832 C120.578785,47.0535939 114.441717,49.260424 111.988217,54.4872458 L109.121007,60.5972515 Z" id="Fill-4" fill="#F8C05D"></path>
                        <path d="M121.26395,50.7851019 C118.175505,50.7851019 115.317145,52.619233 113.983096,55.4630397 L111.115886,61.5730453 C110.184485,63.556256 110.06723,65.7924503 110.781821,67.8660123 C111.496411,69.9395743 112.960989,71.6065555 114.903435,72.555244 L155.993472,92.7984494 C156.079754,91.8294318 156.343024,90.7361813 156.909386,89.5299917 L159.776596,83.419986 C160.732333,81.3870821 162.396023,79.3858011 164.004403,77.4522837 C165.230047,75.9772989 167.256563,73.540073 167.353906,72.5936433 C167.311872,72.5846082 167.21674,72.5191035 167.050814,72.4377873 L124.735133,51.5914872 C123.64223,51.0584146 122.471895,50.7851019 121.26395,50.7851019 M158.577501,98.7277524 L158.575288,98.7277524 C157.858486,98.7277524 157.327521,98.4657337 155.752326,97.695489 L112.987537,76.6255694 C109.983161,75.157361 107.715499,72.5778318 106.60711,69.3658437 C105.500933,66.1538555 105.684559,62.6911425 107.124801,59.6214576 L109.994223,53.5091932 C112.058348,49.1113444 116.483055,46.2675377 121.26395,46.2675377 C123.137814,46.2675377 124.951943,46.6899299 126.653243,47.5234206 L168.968924,68.367462 C170.849424,69.2867863 171.486582,70.6330204 171.687906,71.602038 C172.287454,74.4684325 169.902537,77.3370858 167.378242,80.3751477 C165.951274,82.0895633 164.475635,83.8672249 163.767682,85.3738325 L160.900472,91.486097 C160.070839,93.2502058 160.433665,94.388632 160.672599,95.1408064 C160.854012,95.7009844 161.185865,96.7445417 160.46685,97.7564761 C160.050928,98.3415007 159.285454,98.7277524 158.577501,98.7277524" id="Fill-6" fill="#D6900C"></path>
                        <path d="M167.177803,83.3255689 C166.938869,83.3255689 166.693298,83.2736169 166.463213,83.1606778 C165.635793,82.7563558 165.286241,81.7444214 165.682252,80.8996369 C165.952159,80.3236475 165.987557,79.6731182 165.779596,79.0677646 C165.571634,78.4669286 165.14465,77.9812904 164.5805,77.7034602 L122.249333,56.8503837 C121.121032,56.2947233 119.683003,56.8300546 119.140976,57.9842923 L116.271554,64.0942979 C116.001647,64.6702874 115.968462,65.3208166 116.17421,65.928429 C116.382172,66.5270063 116.809156,67.0126444 117.373306,67.2882159 C118.200726,67.6947966 118.550278,68.7044723 118.152054,69.5492568 C117.756043,70.3917825 116.762696,70.7486701 115.939701,70.3466069 C114.574679,69.6780073 113.548147,68.5079582 113.043731,67.0510437 C112.543739,65.5918705 112.625596,64.0242757 113.280452,62.6306071 L116.147662,56.5206015 C117.098974,54.4922152 119.059119,53.2340735 121.262623,53.2340735 C122.10553,53.2340735 122.921888,53.4238112 123.687362,53.7965103 L166.01853,74.6495868 C167.379127,75.3159275 168.407871,76.4882354 168.910076,77.9428911 C169.41228,79.3998056 169.32821,80.9696592 168.675566,82.3633277 C168.390173,82.9709401 167.797262,83.3255689 167.177803,83.3255689" id="Fill-8" fill="#FFFFFF"></path>
                        <path d="M222.549687,168.489109 L222.549687,170.901488 C222.549687,153.750556 236.166721,139.845493 252.967332,139.845493 L269.626352,139.845493 L269.626352,98.0083303 C269.626352,84.1416669 271.717026,59.2882872 294.216659,59.2882872 C296.247599,59.2882872 295.882561,61.8339347 295.882561,61.8339347 L295.882561,84.3923917 L295.882561,129.83457 L295.882561,168.489109 L295.882561,182.773647 C295.882561,220.601471 265.847653,251.264438 228.799585,251.264438 C191.751517,251.264438 161.716609,220.601471 161.716609,182.773647 L161.716609,168.489109 L222.549687,168.489109 Z" id="Fill-10" fill="#F8C05D"></path>
                        <path d="M163.928298,170.747665 L163.928298,182.773421 C163.928298,219.29341 193.029593,249.00543 228.798921,249.00543 C264.570461,249.00543 293.671756,219.29341 293.671756,182.773421 L293.671756,61.8337088 C293.671756,61.7388399 293.676181,61.6439711 293.687243,61.5491023 C278.983943,61.83145 271.838042,73.7623372 271.838042,98.0081045 L271.838042,139.845267 C271.838042,141.094373 270.846908,142.104049 269.625689,142.104049 L252.966668,142.104049 C237.413825,142.104049 224.761377,155.022024 224.761377,170.899003 C224.761377,172.14811 223.770242,173.157786 222.549023,173.157786 C221.327804,173.157786 220.33667,172.14811 220.33667,170.899003 L220.33667,170.747665 L163.928298,170.747665 Z M228.798921,253.522995 C190.589368,253.522995 159.503592,221.787106 159.503592,182.773421 L159.503592,168.488883 C159.503592,167.239776 160.494726,166.230101 161.715945,166.230101 L220.657461,166.230101 C222.885301,150.063997 236.524459,137.586485 252.966668,137.586485 L267.413335,137.586485 L267.413335,98.0081045 C267.413335,70.8168853 276.430887,57.0270204 294.215995,57.0270204 C295.377481,57.0270204 296.406225,57.4855532 297.111966,58.3190438 C298.198231,59.6020321 298.158409,61.3164477 298.096463,61.9624594 L298.096463,182.773421 C298.096463,221.787106 267.008475,253.522995 228.798921,253.522995 L228.798921,253.522995 Z" id="Fill-12" fill="#D6900C"></path>
                        <path d="M125.234018,178.03811 C125.234018,183.831886 129.835713,188.530153 135.510399,188.530153 L156.361829,188.530153 C162.036515,188.530153 166.63821,183.831886 166.63821,178.03811 L166.63821,171.261764 C166.63821,165.467988 162.036515,160.769721 156.361829,160.769721 L135.510399,160.769721 C129.835713,160.769721 125.234018,165.467988 125.234018,171.261764 L125.234018,178.03811 Z" id="Fill-14" fill="#F8C05D"></path>
                        <path d="M135.511284,163.027148 C131.064454,163.027148 127.445044,166.722515 127.445044,171.262667 L127.445044,178.039014 C127.445044,182.576907 131.064454,186.272275 135.511284,186.272275 L156.360502,186.272275 C160.809544,186.272275 164.426742,182.576907 164.426742,178.039014 L164.426742,171.262667 C164.426742,166.722515 160.809544,163.027148 156.360502,163.027148 L135.511284,163.027148 Z M156.360502,190.789839 L135.511284,190.789839 C128.624228,190.789839 123.020338,185.070603 123.020338,178.039014 L123.020338,171.262667 C123.020338,164.22882 128.624228,158.509584 135.511284,158.509584 L156.360502,158.509584 C163.247557,158.509584 168.851448,164.22882 168.851448,171.262667 L168.851448,178.039014 C168.851448,185.070603 163.247557,190.789839 156.360502,190.789839 L156.360502,190.789839 Z" id="Fill-16" fill="#D6900C"></path>
                        <path d="M114.982858,150.398523 C114.982858,156.192299 119.584553,160.890566 125.259239,160.890566 L156.360502,160.890566 C162.0374,160.890566 166.639095,156.192299 166.639095,150.398523 L166.639095,143.622176 C166.639095,137.8284 162.0374,133.130134 156.360502,133.130134 L125.259239,133.130134 C119.584553,133.130134 114.982858,137.8284 114.982858,143.622176 L114.982858,150.398523 Z" id="Fill-18" fill="#F8C05D"></path>
                        <path d="M125.259682,135.388012 C120.812852,135.388012 117.195654,139.08338 117.195654,143.623532 L117.195654,150.399878 C117.195654,154.937771 120.812852,158.633139 125.259682,158.633139 L156.360944,158.633139 C160.807774,158.633139 164.427184,154.937771 164.427184,150.399878 L164.427184,143.623532 C164.427184,139.08338 160.807774,135.388012 156.360944,135.388012 L125.259682,135.388012 Z M156.360944,163.150703 L125.259682,163.150703 C118.372626,163.150703 112.770947,157.431467 112.770947,150.399878 L112.770947,143.623532 C112.770947,136.589684 118.372626,130.870448 125.259682,130.870448 L156.360944,130.870448 C163.248,130.870448 168.851891,136.589684 168.851891,143.623532 L168.851891,150.399878 C168.851891,157.431467 163.248,163.150703 156.360944,163.150703 L156.360944,163.150703 Z" id="Fill-20" fill="#575756"></path>
                        <path d="M115.683732,123.922886 C115.683732,129.716662 120.285427,134.414929 125.960113,134.414929 L151.937565,134.414929 C157.612251,134.414929 162.213946,129.716662 162.213946,123.922886 L162.213946,117.146539 C162.213946,111.352763 157.612251,106.654497 151.937565,106.654497 L125.960113,106.654497 C120.285427,106.654497 115.683732,111.352763 115.683732,117.146539 L115.683732,123.922886 Z" id="Fill-22" fill="#F8C05D"></path>
                        <path d="M125.960776,108.913505 C121.513946,108.913505 117.894536,112.606613 117.894536,117.146765 L117.894536,123.923112 C117.894536,128.461005 121.513946,132.156373 125.960776,132.156373 L151.936016,132.156373 C156.382846,132.156373 160.002256,128.461005 160.002256,123.923112 L160.002256,117.146765 C160.002256,112.606613 156.382846,108.913505 151.936016,108.913505 L125.960776,108.913505 Z M151.936016,136.673937 L125.960776,136.673937 C119.073721,136.673937 113.46983,130.9547 113.46983,123.923112 L113.46983,117.146765 C113.46983,110.115177 119.073721,104.39594 125.960776,104.39594 L151.936016,104.39594 C158.823072,104.39594 164.426963,110.115177 164.426963,117.146765 L164.426963,123.923112 C164.426963,130.9547 158.823072,136.673937 151.936016,136.673937 L151.936016,136.673937 Z" id="Fill-24" fill="#D6900C"></path>
                        <path d="M155.942146,125.616069 C155.026231,125.616069 154.282881,124.857118 154.282881,123.921982 L154.282881,117.145636 C154.282881,115.826507 153.2298,114.751327 151.935574,114.751327 L125.960334,114.751327 C125.04442,114.751327 124.301069,113.992376 124.301069,113.05724 C124.301069,112.122105 125.04442,111.363154 125.960334,111.363154 L151.935574,111.363154 C155.061629,111.363154 157.601411,113.958494 157.601411,117.145636 L157.601411,123.921982 C157.601411,124.857118 156.85806,125.616069 155.942146,125.616069" id="Fill-26" fill="#FFFFFF"></path>
                        <path d="M160.366852,151.190678 C159.450938,151.190678 158.707587,150.431727 158.707587,149.496591 L158.707587,142.720245 C158.707587,141.401116 157.654507,140.325936 156.36028,140.325936 L130.38504,140.325936 C129.469126,140.325936 128.725776,139.566985 128.725776,138.631849 C128.725776,137.696713 129.469126,136.937763 130.38504,136.937763 L156.36028,136.937763 C159.486335,136.937763 162.026117,139.533103 162.026117,142.720245 L162.026117,149.496591 C162.026117,150.431727 161.282766,151.190678 160.366852,151.190678" id="Fill-28" fill="#FFFFFF"></path>
                        <path d="M160.366852,179.251076 C159.450938,179.251076 158.707587,178.492125 158.707587,177.55699 L158.707587,170.780643 C158.707587,169.461515 157.654507,168.386334 156.36028,168.386334 L134.809747,168.386334 C133.893833,168.386334 133.150482,167.627383 133.150482,166.692248 C133.150482,165.757112 133.893833,164.998161 134.809747,164.998161 L156.36028,164.998161 C159.486335,164.998161 162.026117,167.593502 162.026117,170.780643 L162.026117,177.55699 C162.026117,178.492125 161.282766,179.251076 160.366852,179.251076" id="Fill-30" fill="#FFFFFF"></path>
                        <path d="M228.812638,247.336642 C227.896724,247.336642 227.153373,246.577691 227.153373,245.642556 C227.153373,244.70742 227.896724,243.948469 228.812638,243.948469 C284.57279,243.948469 289.081566,181.786785 289.121388,181.158844 L289.116964,64.939986 C289.116964,64.0048502 289.860314,63.2458994 290.776228,63.2458994 C291.692143,63.2458994 292.435493,64.0048502 292.435493,64.939986 L292.435493,181.267265 C292.391246,182.035251 287.652386,247.336642 228.812638,247.336642" id="Fill-32" fill="#FFFFFF"></path>
                        <path d="M185.344321,178.16144 L153.333781,178.16144 C152.417867,178.16144 151.674516,177.402489 151.674516,176.467353 C151.674516,175.532217 152.417867,174.773267 153.333781,174.773267 L185.344321,174.773267 C186.260235,174.773267 187.003586,175.532217 187.003586,176.467353 C187.003586,177.402489 186.260235,178.16144 185.344321,178.16144" id="Fill-34" fill="#FFFFFF"></path>
                        <path d="M324.608199,279.336809 C324.0175,279.336809 323.446713,279.013803 323.145833,278.446848 L292.911813,221.222862 C292.475979,220.398407 292.77686,219.370661 293.584368,218.927939 C294.387453,218.491995 295.396286,218.790154 295.832119,219.614609 L326.068352,276.838596 C326.501973,277.663051 326.201093,278.690797 325.393584,279.133518 C325.143588,279.271304 324.875893,279.336809 324.608199,279.336809" id="Fill-36" fill="#FFFFFF"></path>
                        <g id="Group-40" transform="translate(212.385915, 284.606547)">
                            <mask id="mask-2" fill="white">
                                <use xlink:href="#path-1"></use>
                            </mask>
                            <g id="Clip-39"></g>
                            <path d="M140.428903,0.000451756424 L0.0506628901,0.000451756424" id="Fill-38" fill="#F8C05D" mask="url(#mask-2)"></path>
                        </g>
                        <path d="M352.814597,286.865329 L212.436356,286.865329 C211.215137,286.865329 210.224003,285.855654 210.224003,284.606547 C210.224003,283.357441 211.215137,282.347765 212.436356,282.347765 L352.814597,282.347765 C354.035816,282.347765 355.02695,283.357441 355.02695,284.606547 C355.02695,285.855654 354.035816,286.865329 352.814597,286.865329" id="Fill-41" fill="#D6900C"></path>
                        <path d="M265.608055,2.36810718 C268.227481,2.36810718 270.351341,4.53653801 270.351341,7.21093604 L270.351341,191.678895 C270.351341,194.353294 268.227481,196.521724 265.608055,196.521724 L161.572142,196.521724 C158.952716,196.521724 156.828857,194.353294 156.828857,191.678895 L156.828857,7.21093604 C156.828857,4.53653801 158.952716,2.36810718 161.572142,2.36810718 L265.608055,2.36810718 Z" id="Fill-43" fill="#00A58D"></path>
                        <g id="Group-47" transform="translate(154.493146, 0.000000)">
                            <mask id="mask-4" fill="white">
                                <use xlink:href="#path-3"></use>
                            </mask>
                            <g id="Clip-46"></g>
                            <path d="M7.07921779,4.62779281 C5.68322287,4.62779281 4.54607329,5.78654804 4.54607329,7.21183956 L4.54607329,191.679799 C4.54607329,193.102832 5.68322287,194.263846 7.07921779,194.263846 L111.115131,194.263846 C112.511126,194.263846 113.646063,193.102832 113.646063,191.679799 L113.646063,7.21183956 C113.646063,5.78654804 112.511126,4.62779281 111.115131,4.62779281 L7.07921779,4.62779281 Z M111.115131,198.78141 L7.07921779,198.78141 C3.2429972,198.78141 0.121366728,195.596527 0.121366728,191.679799 L0.121366728,7.21183956 C0.121366728,3.29511136 3.2429972,0.110228567 7.07921779,0.110228567 L111.115131,0.110228567 C114.951351,0.110228567 118.070769,3.29511136 118.070769,7.21183956 L118.070769,191.679799 C118.070769,195.596527 114.951351,198.78141 111.115131,198.78141 L111.115131,198.78141 Z" id="Fill-45" fill="#008A71" mask="url(#mask-4)"></path>
                        </g>
                        <path d="M233.051285,16.2580361 L194.129354,16.2580361 C194.129354,29.8491281 183.337495,40.8674673 170.025765,40.8674673 L170.025765,158.02372 C183.337495,158.02372 194.129354,169.042059 194.129354,182.633151 L233.051285,182.633151 C233.051285,169.042059 243.843145,158.02372 257.154874,158.02372 L257.154874,40.8674673 C243.843145,40.8674673 233.051285,29.8491281 233.051285,16.2580361" id="Fill-48" fill="#2ECEB2"></path>
                        <path d="M196.045252,180.598892 L231.135388,180.598892 C232.106611,167.527319 242.358656,157.057864 255.161544,156.068518 L255.161544,42.8244761 C242.358656,41.8328708 232.106611,31.3656744 231.135388,18.2918435 L196.045252,18.2918435 C195.074029,31.3656744 184.821984,41.8328708 172.019096,42.8244761 L172.019096,156.068518 C184.821984,157.057864 195.074029,167.527319 196.045252,180.598892 M233.051285,184.666958 L194.129354,184.666958 C193.029815,184.666958 192.136024,183.75441 192.136024,182.631795 C192.136024,170.185906 182.218044,160.057527 170.025765,160.057527 C168.926226,160.057527 168.034647,159.147238 168.034647,158.024623 L168.034647,40.8683708 C168.034647,39.7457561 168.926226,38.8332081 170.025765,38.8332081 C182.218044,38.8332081 192.136024,28.7070879 192.136024,16.2566808 C192.136024,15.1340661 193.029815,14.2237769 194.129354,14.2237769 L233.051285,14.2237769 C234.150825,14.2237769 235.042403,15.1340661 235.042403,16.2566808 C235.042403,28.7070879 244.962596,38.8332081 257.154874,38.8332081 C258.254414,38.8332081 259.145992,39.7457561 259.145992,40.8683708 L259.145992,158.024623 C259.145992,159.147238 258.254414,160.057527 257.154874,160.057527 C244.962596,160.057527 235.042403,170.185906 235.042403,182.631795 C235.042403,183.75441 234.150825,184.666958 233.051285,184.666958" id="Fill-50" fill="#00B18D"></path>
                        <path d="M176.844017,245.953364 C172.642758,223.385872 148.335633,225.931519 134.995142,228.520084 L120.592722,231.316456 L120.831657,231.072507 C119.847159,230.467154 118.909122,229.746602 118.059578,228.87923 C112.774266,223.483 112.466749,214.93125 117.13039,209.16458 L117.081718,209.112628 L121.141386,204.967762 L127.957646,198.010714 L197.392354,127.118837 C201.405563,123.021406 201.405563,116.378328 197.392354,112.280897 L192.69774,107.487761 C188.684532,103.390331 182.178001,103.390331 178.164792,107.487761 L135.902207,150.639535 C139.915416,146.539845 139.915416,139.896767 135.902207,135.799336 L131.209806,131.008459 C127.196597,126.911029 120.687854,126.911029 116.674645,131.008459 L103.955826,143.994198 C105.382794,140.237843 104.626169,135.81063 101.654978,132.777086 L96.9603647,127.986209 C92.9471558,123.888778 86.4406248,123.888778 82.427416,127.986209 L73.7992382,136.795459 C77.812447,132.698029 77.812447,126.05495 73.7992382,121.95752 L69.1068369,117.166643 C65.0914157,113.069212 58.5848847,113.069212 54.5716759,117.166643 L31.8375336,140.377888 L21.9438897,150.479161 L20.5611689,151.8909 C20.4018795,152.053533 20.2912618,152.241011 20.1452465,152.41042 C-4.22603723,179.274116 -3.63533891,221.224217 21.9438897,247.340256 C26.5699204,252.065628 31.7114294,255.937181 37.1737297,258.991054 C49.9921046,266.160429 64.611335,268.748993 78.7283613,266.729642 C80.9141663,266.41793 83.0866973,265.997797 85.2415294,265.466983 L109.274323,260.800339 L152.997061,252.314095 L174.704671,248.101466 C174.704671,248.101466 177.222329,247.990786 176.844017,245.953364" id="Fill-52" fill="#F8C05D"></path>
                        <g id="Group-56" transform="translate(0.000000, 101.645195)" fill="#D6900C">
                            <path d="M61.8392564,14.7062528 C59.6844243,14.7062528 57.660121,15.5623312 56.1358096,17.1163733 L22.1253027,51.8428896 C21.9925615,52.025851 21.9040673,52.1433076 21.8089361,52.2539879 C-2.00483454,78.5055538 -1.24157266,118.829332 23.5058111,144.098328 C27.8663594,148.54587 32.8220308,152.338365 38.2378716,155.365133 C50.370417,162.148256 64.6754933,164.81136 78.4208442,162.848478 C80.5535528,162.541284 82.6729872,162.132444 84.7216263,161.626477 L174.290961,144.236113 C174.381668,144.218043 174.474586,144.206749 174.567505,144.199973 C172.257809,132.951238 164.260151,127.484985 150.134276,127.484985 C145.811337,127.484985 140.992832,128.009023 135.408852,129.095497 L121.006432,131.88961 C120.055121,132.070313 119.090535,131.602745 118.637002,130.724079 C118.621516,130.692456 118.606029,130.660833 118.590543,130.626951 C117.827281,130.075808 117.125965,129.474972 116.495444,128.828961 C110.544214,122.755095 109.975639,113.256917 115.083963,106.516711 C115.185731,106.281797 115.331746,106.060437 115.517584,105.870699 L195.826008,23.8769082 C198.971974,20.6671788 198.971974,15.4426157 195.826008,12.2306275 L191.133607,7.43975067 C188.084984,4.32940769 182.775336,4.32940769 179.728926,7.43975067 L137.466341,50.5915243 C136.601311,51.4724493 135.203103,51.4724493 134.338073,50.5915243 C133.473043,49.7083405 133.473043,48.2785314 134.338073,47.3976064 C137.481827,44.1856182 137.481827,38.9610552 134.338073,35.7513258 L129.64346,30.9604489 C126.597049,27.8501059 121.285189,27.8501059 118.238779,30.9604489 L105.51996,43.9461873 C104.781034,44.6983618 103.623973,44.8225948 102.745668,44.2420878 C101.869577,43.6570632 101.513388,42.5276721 101.8917,41.5315492 C103.050973,38.4844521 102.34302,35.0307743 100.090845,32.7290753 L95.3962309,27.9359396 C92.3520328,24.8255967 87.0379602,24.8255967 83.9915497,27.9359396 L75.363372,36.7474487 C74.4983418,37.6283737 73.0979222,37.6283737 72.2351044,36.7474487 C71.3700743,35.8642649 71.3700743,34.4344558 72.2351044,33.5535308 C73.7572035,31.9972299 74.5956854,29.9304442 74.5956854,27.7326492 C74.5956854,25.5325955 73.7572035,23.463551 72.2351044,21.9072502 L67.5427031,17.1163733 C66.0183917,15.5623312 63.9940885,14.7062528 61.8392564,14.7062528 M69.3966552,168.007537 C57.7751634,168.007537 46.2642893,165.005615 36.1118001,159.327037 C30.3287086,156.09472 25.0345472,152.044723 20.3775436,147.292246 C-6.05786575,120.299799 -6.87422411,77.2248243 18.5213792,49.2294787 C18.689518,48.9968241 18.833321,48.8161216 19.0014598,48.6421953 L53.0075421,13.9224554 C55.368123,11.5145936 58.5030276,10.1886885 61.8392564,10.1886885 C65.1732728,10.1886885 68.3103897,11.5145936 70.6709707,13.9224554 L75.363372,18.7133322 C77.473957,20.8704692 78.7372107,23.6623239 78.9783572,26.6665041 L80.8632822,24.7420217 C83.2238632,22.33416 86.3587678,21.0082549 89.6949965,21.0082549 C93.0312252,21.0082549 96.1661298,22.33416 98.5267108,24.7420217 L103.219112,29.5351574 C105.075276,31.4302756 106.254461,33.8291022 106.683657,36.3702321 L115.110511,27.766531 C117.46888,25.3586692 120.605997,24.0327641 123.942225,24.0327641 C127.278454,24.0327641 130.415571,25.3586692 132.77394,27.766531 L137.466341,32.5574079 C139.638872,34.7755319 140.842392,37.6125622 141.076901,40.517356 L176.600658,4.24583275 C178.959027,1.83797101 182.093931,0.512065907 185.432372,0.512065907 C188.768601,0.512065907 191.903506,1.83797101 194.261874,4.24583275 L198.956488,9.03670963 C203.825877,14.0082891 203.825877,22.0992466 198.956488,27.0708261 L119.030801,108.673848 C118.97328,108.773234 118.909122,108.868103 118.836114,108.958454 C114.82733,113.914222 115.16582,121.085856 119.623712,125.635043 C120.185649,126.208773 120.802896,126.721517 121.508637,127.193602 L134.581432,124.65699 C140.441956,123.518564 145.530369,122.967421 150.134276,122.967421 C166.481354,122.967421 176.467917,130.200041 179.016548,143.886002 C179.233358,145.051534 178.985575,146.167372 178.315232,147.030227 C177.284275,148.36065 175.627223,148.63848 174.992277,148.697208 L85.6552394,166.040137 C83.573415,166.557398 81.3123899,166.995602 79.0358784,167.320867 C75.852302,167.777141 72.6112045,168.007537 69.3966552,168.007537" id="Fill-54"></path>
                        </g>
                        <path d="M25.4898495,245.413063 C25.0650777,245.413063 24.6403059,245.248172 24.3173023,244.916131 C0.00353976525,220.094375 -0.746447996,180.484371 22.6071532,154.738773 C22.7487438,154.580658 22.8505121,154.451907 22.9412186,154.329933 L56.9450884,119.589864 C59.6441594,116.836409 64.0334684,116.836409 66.7325394,119.589864 L71.4249407,124.380741 C72.7302291,125.713422 73.4492439,127.486566 73.4492439,129.377167 C73.4492439,131.265509 72.7302291,133.038653 71.4249407,134.371334 C70.7767211,135.033157 69.7258533,135.033157 69.0776338,134.371334 C68.4294143,133.709511 68.4294143,132.63659 69.0776338,131.974766 C69.7568263,131.283579 70.130714,130.357478 70.130714,129.377167 C70.130714,128.392338 69.7568263,127.468496 69.0776338,126.777309 L64.3852325,121.984173 C62.9803882,120.552105 60.6972396,120.552105 59.2923953,121.984173 L25.4323283,156.557092 C25.4433901,156.566127 25.2929501,156.755865 25.060653,157.022401 C2.90614727,181.444354 3.61631267,218.992089 26.6623968,242.521822 C27.3106163,243.183645 27.3106163,244.254308 26.6623968,244.916131 C26.3393932,245.248172 25.9146214,245.413063 25.4898495,245.413063" id="Fill-57" fill="#FFFFFF"></path>
                        <path d="M171.059155,245.287475 C170.371114,245.287475 169.729531,244.849271 169.492809,244.149049 C168.745034,241.955771 167.685317,240.180369 166.253924,238.718937 C161.158875,233.51922 151.059482,232.342395 136.24114,235.215566 L105.836768,241.117763 C104.931916,241.307501 104.066886,240.690853 103.896535,239.771529 C103.726183,238.852205 104.316882,237.966762 105.21731,237.792836 L135.621681,231.88838 C151.586022,228.78933 162.680974,230.282385 168.599019,236.322369 C170.393237,238.154241 171.709587,240.347519 172.625502,243.037728 C172.926382,243.920912 172.470637,244.885412 171.605607,245.192606 C171.424194,245.255852 171.240568,245.287475 171.059155,245.287475" id="Fill-59" fill="#FFFFFF"></path>
                        <path d="M143.168681,143.21921 L103.91711,183.294522" id="Fill-61" fill="#F8C05D"></path>
                        <path d="M103.91711,185.553304 C103.350747,185.553304 102.784385,185.331944 102.352976,184.891481 C101.487946,184.008297 101.487946,182.580747 102.352976,181.697563 L141.604548,141.622251 C142.467365,140.739067 143.867785,140.739067 144.732815,141.622251 C145.595633,142.503176 145.595633,143.932985 144.732815,144.816169 L105.481243,184.891481 C105.049834,185.331944 104.483472,185.553304 103.91711,185.553304" id="Fill-63" fill="#D6900C"></path>
                        <path d="M111.862776,136.012791 L72.6112045,176.088104" id="Fill-65" fill="#F8C05D"></path>
                        <path d="M72.611647,178.34666 C72.0452845,178.34666 71.4789221,178.125299 71.0475132,177.684837 C70.1824831,176.801653 70.1824831,175.374103 71.0475132,174.490919 L110.299085,134.415606 C111.161903,133.532423 112.562322,133.532423 113.427353,134.415606 C114.29017,135.296531 114.29017,136.726341 113.427353,137.609524 L74.1757807,177.684837 C73.7443718,178.125299 73.1780094,178.34666 72.611647,178.34666" id="Fill-67" fill="#D6900C"></path>
                        <path d="M78.717742,131.720428 L39.4661701,171.79574" id="Fill-69" fill="#F8C05D"></path>
                        <path d="M39.4661701,174.05407 C38.8998077,174.05407 38.3334453,173.83271 37.9020364,173.392247 C37.0370062,172.509063 37.0370062,171.081513 37.9020364,170.198329 L77.1536082,130.123017 C78.016426,129.239833 79.4168456,129.239833 80.2818758,130.123017 C81.1446936,131.003942 81.1446936,132.433751 80.2818758,133.316935 L41.0303039,173.392247 C40.598895,173.83271 40.0325326,174.05407 39.4661701,174.05407" id="Fill-71" fill="#D6900C"></path>
                        <path d="M112.372281,183.998133 C111.947509,183.998133 111.522738,183.833242 111.199734,183.501201 C110.551515,182.839378 110.551515,181.768715 111.199734,181.106892 L181.191955,109.645802 C182.258309,108.55481 183.680852,107.953974 185.196314,107.951715 L185.198527,107.951715 C186.711776,107.951715 188.134319,108.552551 189.202886,109.643543 L193.895287,114.43442 C194.543507,115.096243 194.543507,116.169164 193.895287,116.830988 C193.247068,117.492811 192.1962,117.492811 191.54798,116.830988 L186.855579,112.040111 C186.413108,111.588354 185.826835,111.339888 185.198527,111.339888 L185.196314,111.339888 C184.570218,111.339888 183.981732,111.588354 183.537049,112.04237 L113.544829,183.501201 C113.221825,183.833242 112.797053,183.998133 112.372281,183.998133" id="Fill-73" fill="#FFFFFF"></path>
                        <path d="M77.454267,181.355584 C77.0294952,181.355584 76.6047234,181.190692 76.2817198,180.858652 C75.6335003,180.196828 75.6335003,179.126166 76.2817198,178.464342 L119.679242,134.156072 C121.889383,131.901808 125.480032,131.89729 127.687961,134.153814 L132.382574,138.946949 C133.030794,139.608772 133.030794,140.679435 132.382574,141.341258 C131.734355,142.003081 130.683487,142.003081 130.035267,141.341258 L125.342866,136.548123 C124.426952,135.617504 122.94025,135.617504 122.024336,136.550381 L78.6268143,180.858652 C78.3038107,181.190692 77.8790389,181.355584 77.454267,181.355584" id="Fill-75" fill="#FFFFFF"></path>
                        <path d="M43.5289357,177.660668 C43.1041639,177.660668 42.679392,177.495777 42.3563885,177.163736 C41.7081689,176.501913 41.7081689,175.43125 42.3563885,174.769427 L85.7539104,130.461157 C86.822477,129.367906 88.2450202,128.76707 89.7582698,128.76707 L89.7604822,128.76707 C91.2759442,128.76707 92.696275,129.367906 93.7648416,130.458898 L98.4572429,135.249775 C99.1054624,135.911598 99.1054624,136.982261 98.4572429,137.644084 C97.8090234,138.305907 96.7603679,138.305907 96.1121484,137.644084 L91.4175348,132.853207 C90.9750641,132.403709 90.3887905,132.155243 89.7604822,132.155243 L89.7604822,132.155243 C89.1321738,132.155243 88.5436879,132.403709 88.1012172,132.855466 L44.7014829,177.163736 C44.3784794,177.495777 43.9537075,177.660668 43.5289357,177.660668" id="Fill-77" fill="#FFFFFF"></path>
                        <path d="M25.1183954,157.327337 C24.6936236,157.327337 24.2688518,157.162446 23.9458482,156.830405 C23.2976287,156.168582 23.2976287,155.097919 23.9458482,154.436096 L57.9563551,119.70958 C60.1642837,117.457574 63.7571454,117.453056 65.965074,119.707321 L70.6596877,124.500456 C71.3079072,125.16228 71.3079072,126.232942 70.6596877,126.894765 C70.0114681,127.556589 68.9606003,127.556589 68.3123808,126.894765 L63.6199795,122.10163 C62.7062776,121.171012 61.2195762,121.168753 60.303662,122.103889 L26.2909427,156.830405 C25.9679391,157.162446 25.5431672,157.327337 25.1183954,157.327337" id="Fill-79" fill="#FFFFFF"></path>
                        <polygon id="Fill-81" fill="#F8C05D" points="222.549687 213.866235 278.382847 213.866235 278.382847 141.840449 251.022674 142.167973 233.383581 165.487639 222.549687 174.800598"></polygon>
                        <path d="M222.549687,209.754348 L222.549687,170.901036 C222.549687,153.750104 236.166721,139.845041 252.967332,139.845041 L270.734741,139.845041" id="Fill-83" fill="#F8C05D"></path>
                        <path d="M222.549244,212.012226 C221.328025,212.012226 220.336891,211.002551 220.336891,209.753444 L220.336891,170.900133 C220.336891,152.531717 234.97382,137.587614 252.96689,137.587614 L270.734299,137.587614 C271.955518,137.587614 272.946652,138.59729 272.946652,139.846396 C272.946652,141.095503 271.955518,142.105178 270.734299,142.105178 L252.96689,142.105178 C237.414046,142.105178 224.761598,155.023153 224.761598,170.900133 L224.761598,209.753444 C224.761598,211.002551 223.770463,212.012226 222.549244,212.012226" id="Fill-85" fill="#D6900C"></path>
                        <path d="M228.812638,210.066737 C227.896724,210.066737 227.153373,209.307786 227.153373,208.372651 L227.153373,169.417694 C227.153373,145.201291 251.531294,144.008654 251.776865,143.999619 L276.714511,143.99736 C277.630425,143.99736 278.373776,144.756311 278.373776,145.691447 C278.373776,146.626583 277.630425,147.385533 276.714511,147.385533 L251.838811,147.385533 C251.026877,147.419415 230.471903,148.490078 230.471903,169.417694 L230.471903,208.372651 C230.471903,209.307786 229.728552,210.066737 228.812638,210.066737" id="Fill-87" fill="#FFFFFF"></path>
                    </g>
                </g>
                <g id="Page-1" transform="translate(140.551394, 116.406922) rotate(-18.000000) translate(-140.551394, -116.406922) translate(70.551394, 16.906922)">
                    <path d="M122.303844,2.36671182 C124.887549,2.36671182 128.220377,4.5252352 129.484929,7.1896625 C158.641708,68.3972912 92.7255469,129.60492 121.882326,190.812549 C123.144695,193.476976 122.284187,195.633251 119.696114,195.635499 L16.9921778,195.635499 C14.4084722,195.635499 11.0756449,193.476976 9.81109242,190.812549 C-19.3435028,129.60492 46.5704746,68.3972912 17.4136953,7.1896625 C16.1513269,4.52748366 17.0096501,2.36671182 19.5999077,2.36671182 L122.303844,2.36671182 Z" id="Fill-1" fill="#00A58D"></path>
                    <g id="Group-5" transform="translate(0.000000, 0.018643)">
                        <mask id="mask-6" fill="white">
                            <use xlink:href="#path-5"></use>
                        </mask>
                        <g id="Clip-4"></g>
                        <path d="M20.8153196,4.59765481 C19.4328296,4.59765481 18.9217669,5.74886728 19.5966317,7.16989517 C48.755595,68.3775239 -17.1605664,129.585153 11.9940288,190.79503 C12.6688936,192.209312 14.4008281,193.369519 15.776766,193.36727 L118.480702,193.36727 C119.858824,193.36727 120.374255,192.211561 119.697206,190.79503 C90.5426105,129.585153 156.458772,68.3775239 127.299809,7.16989517 C126.627128,5.74886728 124.895193,4.59765481 123.519255,4.59765481 L20.8153196,4.59765481 Z M120.998887,197.864194 L18.2971348,197.864194 C14.5143976,197.864194 9.471476,194.693863 7.62597199,190.79503 C-21.5286232,129.585153 44.3875382,68.3775239 15.2285749,7.16989517 C13.3808869,3.27331077 14.5012934,0.100731091 18.2971348,0.100731091 L120.998887,0.100731091 C124.781624,0.100731091 129.822361,3.27331077 131.667865,7.16989517 C160.826829,68.3775239 94.9106673,129.585153 124.065263,190.79503 C125.912951,194.693863 124.792544,197.866442 120.998887,197.864194 L120.998887,197.864194 Z" id="Fill-3" fill="#008A71" mask="url(#mask-6)"></path>
                    </g>
                    <path d="M89.9157944,16.193628 L51.4921826,16.193628 C58.2539345,29.722623 47.9409524,40.69062 34.9590875,40.69062 C39.3468006,79.564277 13.9378141,118.437934 18.3255272,157.311591 C31.6262602,157.311591 42.6184752,168.27734 49.3802271,181.808583 L87.8038389,181.808583 C81.0399029,168.279588 91.3572531,157.31384 104.336934,157.311591 C99.9492209,118.437934 125.358207,79.564277 120.970494,40.69062 C107.671945,40.69062 96.6775463,29.722623 89.9157944,16.193628" id="Fill-6" fill="#2ECEB2"></path>
                    <path d="M50.2927142,179.783843 L84.9335888,179.783843 C79.877563,166.771994 89.7471874,156.350374 102.176493,155.365547 C98.8807942,117.789253 122.494509,80.2129583 119.19881,42.6389122 C106.347987,41.6540859 95.9782204,31.2302167 89.0024337,18.2161195 L54.3637431,18.2161195 C59.4197689,31.2302167 49.5501445,41.6540859 37.1208388,42.6389122 C40.4143537,80.2129583 16.8006385,117.789253 20.0963374,155.365547 C32.9449765,156.350374 43.3212955,166.769746 50.2927142,179.783843 M88.8604718,183.833323 L50.4368601,183.833323 C49.3513979,183.833323 47.973276,182.924944 47.4141647,181.807459 C41.204972,169.416186 30.7456599,159.334083 18.5806217,159.336331 C17.4951596,159.336331 16.4839544,158.427952 16.3594648,157.312715 C11.9717517,118.439058 37.3785542,79.5654013 32.9930252,40.6917442 C32.8663515,39.5720102 33.6176573,38.6658801 34.7031194,38.6658801 C46.6104423,38.6681285 55.735313,28.5815286 49.5261202,16.1925038 C48.9648249,15.0750182 49.3470299,14.1688881 50.4368601,14.1688881 L88.8604718,14.1688881 C89.9437499,14.1688881 91.3218719,15.0750182 91.8831672,16.1925038 C98.0923599,28.5837771 108.551672,38.6681285 120.714526,38.6658801 C121.799988,38.6658801 122.811193,39.5742587 122.937867,40.6917442 C127.323396,79.5654013 101.916594,118.439058 106.304307,157.312715 C106.428796,158.427952 105.679675,159.336331 104.594212,159.336331 C92.6847056,159.336331 83.5598349,169.418434 89.7712117,181.807459 C90.3281389,182.924944 89.948118,183.833323 88.8604718,183.833323" id="Fill-8" fill="#00B18D"></path>
                </g>
                <g id="Page-1-Copy" transform="translate(266.945838, 236.585325) rotate(15.000000) translate(-266.945838, -236.585325) translate(201.945838, 144.085325)">
                    <path d="M113.305045,2.18907176 C115.698649,2.18907176 118.786255,4.18558123 119.957765,6.65002262 C146.969264,63.2635445 85.9030426,119.877066 112.914542,176.490588 C114.084029,178.95503 113.286835,180.949459 110.889185,180.951539 L15.7419376,180.951539 C13.3483343,180.951539 10.2607278,178.95503 9.08921778,176.490588 C-17.9202582,119.877066 43.1439403,63.2635445 16.1324409,6.65002262 C14.9629543,4.18766093 15.7581243,2.18907176 18.1577976,2.18907176 L113.305045,2.18907176 Z" id="Fill-1" fill="#00A58D"></path>
                    <g id="Group-5" transform="translate(0.000000, 0.017244)">
                        <mask id="mask-8" fill="white">
                            <use xlink:href="#path-7"></use>
                        </mask>
                        <g id="Clip-4"></g>
                        <path d="M19.2837825,4.25256519 C18.0030126,4.25256519 17.5295526,5.31737024 18.1547626,6.63173898 C45.1682853,63.2452609 -15.8979366,119.858783 11.1115394,176.474384 C11.7367494,177.782514 13.3412527,178.855638 14.6159526,178.853558 L109.7632,178.853558 C111.039924,178.853558 111.51743,177.784594 110.890197,176.474384 C83.880721,119.858783 144.946943,63.2452609 117.93342,6.63173898 C117.310234,5.31737024 115.70573,4.25256519 114.43103,4.25256519 L19.2837825,4.25256519 Z M112.096104,183.012953 L16.9508793,183.012953 C13.446466,183.012953 8.77458946,180.08058 7.06487283,176.474384 C-19.9446032,119.858783 41.1216187,63.2452609 14.108096,6.63173898 C12.396356,3.02762344 13.434326,0.0931704423 16.9508793,0.0931704423 L112.096104,0.0931704423 C115.600517,0.0931704423 120.27037,3.02762344 121.980087,6.63173898 C148.993609,63.2452609 87.9273876,119.858783 114.936864,176.474384 C116.648604,180.08058 115.610634,183.015033 112.096104,183.012953 L112.096104,183.012953 Z" id="Fill-3" fill="#008A71" mask="url(#mask-8)"></path>
                    </g>
                    <path d="M83.3000243,14.9781708 L47.7035219,14.9781708 C53.9677617,27.4917098 44.4135819,37.6364736 32.3868889,37.6364736 C36.4517655,73.5923615 12.912306,109.548249 16.9771826,145.504137 C29.2992823,145.504137 39.4827187,155.646821 45.7469586,168.16244 L81.3434611,168.16244 C75.0771979,155.648901 84.6354243,145.506217 96.660094,145.504137 C92.5952174,109.548249 116.134677,73.5923615 112.0698,37.6364736 C99.7497239,37.6364736 89.5642642,27.4917098 83.3000243,14.9781708" id="Fill-6" fill="#2ECEB2"></path>
                    <path d="M46.5923072,166.289673 L78.6843964,166.289673 C74.0003799,154.254464 83.143823,144.615067 94.6586127,143.704159 C91.6054028,108.948257 113.481682,74.1923542 110.428472,39.4385314 C98.5231793,38.527624 88.9163929,28.8861469 82.4538664,16.8488585 L50.3638005,16.8488585 C55.047817,28.8861469 45.9043739,38.527624 34.3895842,39.4385314 C37.4407708,74.1923542 15.5644913,108.948257 18.6177012,143.704159 C30.5209709,144.615067 40.1338274,154.252384 46.5923072,166.289673 M82.3223497,170.035208 L46.7258472,170.035208 C45.7202506,170.035208 44.4435273,169.19501 43.9255539,168.1614 C38.1732174,156.700188 28.4834743,147.374825 17.2135079,147.376905 C16.2079113,147.376905 15.271108,146.536707 15.155778,145.505177 C11.0909014,109.549289 34.6283375,73.5934014 30.5654843,37.6375135 C30.4481309,36.6018242 31.1441576,35.7637062 32.1497542,35.7637062 C43.1809673,35.7657858 51.6344538,26.4362634 45.8821172,14.9771309 C45.3621206,13.9435213 45.7162039,13.1054033 46.7258472,13.1054033 L82.3223497,13.1054033 C83.325923,13.1054033 84.6026463,13.9435213 85.122643,14.9771309 C90.8749795,26.4383431 100.564723,35.7657858 111.832666,35.7637062 C112.838262,35.7637062 113.775066,36.6039039 113.892419,37.6375135 C117.955272,73.5934014 94.4178361,109.549289 98.4827126,145.505177 C98.5980426,146.536707 97.9040393,147.376905 96.8984427,147.376905 C85.8652063,147.376905 77.4117198,156.702268 83.1660797,168.1614 C83.6820297,169.19501 83.3299697,170.035208 82.3223497,170.035208" id="Fill-8" fill="#00B18D"></path>
                </g>
            </g>
        </g>
    </g>
</svg>