<?xml version="1.0" encoding="utf-8"?>
<!-- Generator: Adobe Illustrator 17.0.0, SVG Export Plug-In . SVG Version: 6.00 Build 0)  -->
<!DOCTYPE svg PUBLIC "-//W3C//DTD SVG 1.0//EN" "http://www.w3.org/TR/2001/REC-SVG-20010904/DTD/svg10.dtd">
<svg version="1.0" id="Capa_1" xmlns="http://www.w3.org/2000/svg" xmlns:xlink="http://www.w3.org/1999/xlink" x="0px" y="0px"
	 width="236px" height="282px" viewBox="0 0 236 282" enable-background="new 0 0 236 282" xml:space="preserve">
<g>
	<g>
		<circle fill="#3F3E3E" cx="68.585" cy="178.906" r="24.675"/>
		<path fill="#3F3E3E" d="M68.585,205.544c-14.688,0-26.638-11.95-26.638-26.638c0-14.688,11.95-26.637,26.638-26.637
			s26.637,11.949,26.637,26.637C95.222,193.594,83.273,205.544,68.585,205.544z M68.585,156.194
			c-12.524,0-22.714,10.189-22.714,22.713c0,12.524,10.19,22.714,22.714,22.714s22.713-10.19,22.713-22.714
			C91.298,166.382,81.109,156.194,68.585,156.194z"/>
	</g>
	<g>
		<circle fill="#CCCCCC" cx="68.585" cy="178.906" r="12.073"/>
		<path fill="#3F3E3E" d="M68.585,192.941c-7.739,0-14.035-6.296-14.035-14.035c0-7.739,6.296-14.035,14.035-14.035
			s14.034,6.296,14.034,14.035C82.619,186.645,76.324,192.941,68.585,192.941z M68.585,168.795c-5.575,0-10.111,4.536-10.111,10.111
			s4.536,10.111,10.111,10.111s10.109-4.536,10.109-10.111S74.16,168.795,68.585,168.795z"/>
	</g>
	<g>
		<path fill="#FFFFFF" d="M106.058,170.844h-0.35C105.707,170.844,105.844,170.846,106.058,170.844z"/>
		<path d="M105.872,172.806h-0.183c-1.081-0.01-1.949-0.892-1.944-1.971c0.005-1.081,0.883-1.953,1.962-1.953h0.35
			c1.082,0,1.958,0.875,1.962,1.956c0.004,1.082-0.869,1.962-1.951,1.969H105.872z"/>
	</g>
	<g>
		<path fill="#9B2627" d="M99.115,170.845v-15.933c0-11.821-9.582-21.403-21.403-21.403H59.458
			c-11.821,0-21.403,9.582-21.403,21.403v15.933v8.062h61.06V170.845z"/>
		<path fill="#3F3E3E" d="M99.114,180.868H38.055c-1.083,0-1.962-0.879-1.962-1.962v-23.994c0-12.884,10.481-23.365,23.365-23.365
			h18.254c12.883,0,23.364,10.481,23.364,23.365v23.994C101.077,179.989,100.198,180.868,99.114,180.868z M40.017,176.944h57.135
			v-22.032c0-10.72-8.721-19.441-19.44-19.441H59.458c-10.72,0-19.441,8.721-19.441,19.441V176.944z"/>
	</g>
	<g>
		<path fill="#B53737" d="M171.931,148.376l-42.074-57.565v57.565c0,21.554-20.915,22.447-23.8,22.468H82.369
			c-2.226,0-4.031,1.805-4.031,4.031c0,2.226,1.805,4.031,4.031,4.031h66.813c2.226,0,4.031-1.805,4.031-4.031
			c0-2.226-1.805-4.031-4.031-4.031h-9.183l-0.203-0.449C175.02,167.362,171.931,148.376,171.931,148.376z"/>
		<path fill="#3F3E3E" d="M149.182,180.868H82.369c-3.305,0-5.994-2.688-5.994-5.992s2.689-5.994,5.994-5.994h23.688
			c3.634-0.027,21.839-1.145,21.839-20.506V90.811c0-0.849,0.545-1.602,1.353-1.865c0.807-0.262,1.693,0.022,2.193,0.708
			l42.073,57.564c0.183,0.249,0.303,0.538,0.353,0.842c0.04,0.245,0.922,6.07-3.731,12.045c-3.595,4.614-9.362,7.989-17.217,10.089
			c1.375,1.099,2.256,2.79,2.256,4.682C155.175,178.181,152.486,180.868,149.182,180.868z M131.82,96.822v51.554
			c0,23.557-23.112,24.41-25.748,24.431H82.369c-1.141,0-2.069,0.929-2.069,2.069c0,1.141,0.929,2.068,2.069,2.068h66.813
			c1.141,0,2.069-0.927,2.069-2.068c0-1.141-0.929-2.069-2.069-2.069h-9.182c-0.77,0-1.469-0.451-1.787-1.152l-0.203-0.448
			c-0.263-0.58-0.227-1.252,0.095-1.801c0.321-0.549,0.889-0.91,1.524-0.963c13.275-1.143,22.728-4.826,27.337-10.65
			c3.03-3.83,3.132-7.472,3.066-8.692L131.82,96.822z"/>
	</g>
	<g>
		<circle fill="#3F3E3E" cx="167.687" cy="178.906" r="24.675"/>
		<path fill="#3F3E3E" d="M167.688,205.544c-14.688,0-26.637-11.95-26.637-26.638c0-14.688,11.949-26.637,26.637-26.637
			c14.688,0,26.637,11.949,26.637,26.637C194.324,193.594,182.375,205.544,167.688,205.544z M167.688,156.194
			c-12.524,0-22.713,10.189-22.713,22.713c0,12.524,10.189,22.714,22.713,22.714c12.524,0,22.713-10.19,22.713-22.714
			C190.4,166.382,180.211,156.194,167.688,156.194z"/>
	</g>
	<g>
		<g>
			<path fill="#B53737" d="M68.585,148.376c-16.861,0-30.53,13.669-30.53,30.53h61.06C99.115,162.045,85.446,148.376,68.585,148.376
				z"/>
			<path fill="#3F3E3E" d="M99.114,180.868H38.055c-1.083,0-1.962-0.879-1.962-1.962c0-17.916,14.577-32.492,32.492-32.492
				s32.491,14.577,32.491,32.492C101.077,179.989,100.198,180.868,99.114,180.868z M40.084,176.944h57.002
				c-1.012-14.841-13.408-26.606-28.501-26.606S41.095,162.103,40.084,176.944z"/>
		</g>
	</g>
	<g>
		<path fill="#999999" d="M102.247,131.702c0,3.548-2.876,6.423-6.423,6.423H41.346c-3.548,0-6.423-2.876-6.423-6.423l0,0
			c0-3.548,2.876-6.423,6.423-6.423h54.479C99.372,125.279,102.247,128.155,102.247,131.702L102.247,131.702z"/>
		<path fill="#3F3E3E" d="M95.824,140.088H41.346c-4.623,0-8.385-3.762-8.385-8.386c0-4.623,3.762-8.385,8.385-8.385h54.478
			c4.624,0,8.386,3.762,8.386,8.385C104.21,136.326,100.448,140.088,95.824,140.088z M41.346,127.241
			c-2.459,0-4.461,2.002-4.461,4.461c0,2.46,2.002,4.462,4.461,4.462h54.478c2.46,0,4.462-2.002,4.462-4.462
			c0-2.459-2.002-4.461-4.462-4.461H41.346z"/>
	</g>
	<g>
		<circle fill="#CCCCCC" cx="167.687" cy="178.906" r="12.073"/>
		<path fill="#3F3E3E" d="M167.688,192.941c-7.739,0-14.035-6.296-14.035-14.035c0-7.739,6.296-14.035,14.035-14.035
			c7.739,0,14.035,6.296,14.035,14.035C181.723,186.645,175.426,192.941,167.688,192.941z M167.688,168.795
			c-5.575,0-10.111,4.536-10.111,10.111s4.536,10.111,10.111,10.111s10.111-4.536,10.111-10.111S173.262,168.795,167.688,168.795z"
			/>
	</g>
	<g>
		<g>
			<path fill="#B53737" d="M143.222,78.418h-13.364v24.786h13.364c6.844,0,12.393-5.549,12.393-12.393
				S150.066,78.418,143.222,78.418z"/>
			<path fill="#3F3E3E" d="M143.221,105.167h-13.363c-1.083,0-1.962-0.879-1.962-1.962V78.418c0-1.084,0.879-1.962,1.962-1.962
				h13.363c7.916,0,14.356,6.439,14.356,14.356S151.137,105.167,143.221,105.167z M131.82,101.243h11.401
				c5.752,0,10.431-4.679,10.431-10.431c0-5.752-4.679-10.431-10.431-10.431H131.82V101.243z"/>
		</g>
	</g>
	<g>
		<path fill="#999999" d="M101.932,82.632c0,2.327,1.886,4.213,4.213,4.213h26.809c2.327,0,4.213-1.886,4.213-4.213l0,0
			c0-2.327-1.886-4.213-4.213-4.213h-26.809C103.818,78.418,101.932,80.305,101.932,82.632L101.932,82.632z"/>
		<path fill="#3F3E3E" d="M132.955,88.807h-26.809c-3.404,0-6.175-2.771-6.175-6.175c0-3.406,2.771-6.176,6.175-6.176h26.809
			c3.404,0,6.175,2.771,6.175,6.176C139.13,86.036,136.359,88.807,132.955,88.807z M106.145,80.38c-1.242,0-2.251,1.01-2.251,2.252
			s1.009,2.251,2.251,2.251h26.809c1.242,0,2.251-1.009,2.251-2.251s-1.009-2.252-2.251-2.252H106.145z"/>
	</g>
	<g>
		<path fill="#B53737" d="M199.717,157.652c-7.236-10.189-19.009-16.274-31.494-16.274c-20.469,0-37.106,16.059-38.365,36.217
			h14.783c1.218-12.001,11.263-21.434,23.582-21.434c7.706,0,14.971,3.757,19.439,10.052c2.364,3.324,6.98,4.11,10.308,1.747
			C201.298,165.595,202.081,160.983,199.717,157.652z"/>
		<path fill="#3F3E3E" d="M144.64,179.556h-14.782c-0.542,0-1.059-0.224-1.429-0.618c-0.372-0.395-0.562-0.926-0.529-1.466
			c1.334-21.339,19.045-38.056,40.323-38.056c13.119,0,25.49,6.392,33.093,17.1c2.985,4.205,1.994,10.057-2.209,13.044
			c-1.592,1.129-3.461,1.727-5.406,1.727c-0.001,0-0.001,0-0.001,0c-3.029,0-5.884-1.473-7.636-3.937
			c-4.102-5.778-10.77-9.227-17.84-9.227c-11.194,0-20.492,8.457-21.631,19.67C146.491,178.794,145.647,179.556,144.64,179.556z
			 M132.005,175.632h10.922c2.095-12.337,12.675-21.434,25.295-21.434c8.339,0,16.204,4.067,21.04,10.879
			c1.017,1.431,2.675,2.285,4.436,2.285h0.001c1.127,0,2.21-0.346,3.133-1.001c2.44-1.735,3.015-5.131,1.281-7.574
			c-6.867-9.673-18.044-15.447-29.893-15.447C149.71,143.34,134.187,157.362,132.005,175.632z"/>
	</g>
</g>
</svg>
