<?xml version="1.0" encoding="UTF-8"?>
<svg width="20px" height="20px" viewBox="0 0 20 20" version="1.1" xmlns="http://www.w3.org/2000/svg" xmlns:xlink="http://www.w3.org/1999/xlink">
    <!-- Generator: Sketch 42 (36781) - http://www.bohemiancoding.com/sketch -->
    <title>Artboard Copy</title>
    <desc>Created with Sketch.</desc>
    <defs>
        <polygon id="path-1" points="18.8383373 0 0 0 0 19.6326485 18.8383373 19.6326485 18.8383373 0"></polygon>
    </defs>
    <g id="Page-1" stroke="none" stroke-width="1" fill="none" fill-rule="evenodd">
        <g id="Artboard-Copy">
            <g id="Page-1" transform="translate(1.000000, 0.000000)">
                <mask id="mask-2" fill="white">
                    <use xlink:href="#path-1"></use>
                </mask>
                <g id="Clip-2"></g>
                <path d="M18.6540551,14.1852785 C17.8664042,13.0044779 16.5950897,12.2916277 15.2397691,12.262705 L12.6129863,7.5049213 L13.1495043,7.5049213 C14.3055131,7.5049213 15.2461175,6.50347289 15.2461175,5.27268636 C15.2461175,4.04189983 14.3055131,3.04045143 13.1495043,3.04045143 L12.3776507,3.04045143 L11.4085521,0.704000465 C11.3986603,0.680422179 11.3849299,0.660144853 11.3695756,0.641910979 C11.2395061,0.267802173 10.9020047,-4.7156572e-05 10.5060384,-4.7156572e-05 L9.62921388,-4.7156572e-05 C9.12119008,-4.7156572e-05 8.70780251,0.44008085 8.70780251,0.980966732 C8.70780251,1.52185261 9.12119008,1.96198062 9.62921388,1.96198062 L10.5060384,1.96198062 C10.8222799,1.96198062 11.1017595,1.79127383 11.267705,1.53206987 L11.8933967,3.04045143 L11.5959052,3.04045143 L10.9059909,3.04045143 L9.01607152,3.04045143 C8.54244748,3.04045143 8.15696357,3.4507136 8.15696357,3.95497455 C8.15696357,4.45923549 8.54244748,4.86934048 9.01607152,4.86934048 L10.8894554,4.86934048 L10.8894554,13.2809726 C10.8894554,15.4394861 8.98314816,15.5633507 8.60105993,15.5661801 L7.20823909,15.5661801 L7.20823909,15.4042759 L7.20823909,12.1278373 C7.20823909,11.4533411 6.96906485,10.8179849 6.58638607,10.322998 L6.63997882,10.322998 C7.13530571,10.322998 7.53835859,9.89371605 7.53835859,9.36634839 C7.53835859,8.83882354 7.13530571,8.40985592 6.63997882,8.40985592 L0.898320721,8.40985592 C0.402993827,8.40985592 -5.90553666e-05,8.83882354 -5.90553666e-05,9.36634839 C-5.90553666e-05,9.89371605 0.402993827,10.322998 0.898320721,10.322998 L0.951913467,10.322998 C0.569234686,10.8179849 0.330060448,11.4533411 0.330060448,12.1278373 L0.330060448,15.4042759 L0.330060448,16.9425233 L1.03208113,16.9425233 C1.14561507,18.4457176 2.32849408,19.6326485 3.76914977,19.6326485 C5.20965782,19.6326485 6.39268447,18.4457176 6.50607077,16.9425233 L7.20823909,16.9425233 L12.3609675,16.9425233 C12.4743538,18.4457176 13.6573805,19.6326485 15.0978885,19.6326485 C16.6132493,19.6326485 17.8460301,18.3201239 17.8460301,16.7067404 C17.8460301,16.4123262 17.8041007,16.1282865 17.7277717,15.8599656 C17.7645336,15.864524 17.8017385,15.8671962 17.8392387,15.8671962 L17.8393863,15.8671962 C18.0475565,15.8671962 18.2474589,15.7992908 18.417686,15.6705533 C18.867245,15.3303973 18.9732494,14.6642321 18.6540551,14.1852785" id="Fill-1" fill="#FFFFFF" mask="url(#mask-2)"></path>
            </g>
        </g>
    </g>
</svg>