<svg width="320" height="320" viewBox="0 0 320 320" xmlns="http://www.w3.org/2000/svg"><title>6C715CA4-93B7-4403-B824-B69758D463FC</title><g fill="none" fill-rule="evenodd"><path d="M47.668 77l17.515 1.466c-1.441 17.867 11.655 33.596 29.192 35.064l-1.439 17.845C65.741 129.099 45.434 104.707 47.668 77z" stroke="#595857" stroke-width="1.184" fill="#FBF096"/><path fill="#78BABC" d="M139.757 257.064l10.937-27.483 33.31 13.17-10.937 27.483z"/><path stroke="#595857" stroke-width="1.184" d="M150.736 229.547l33.31 13.17L173.11 270.2l-33.31-13.17z"/><path stroke="#595857" stroke-width="1.184" fill="#78BABC" d="M151.328 224.069l36.055 14.255-3.334 8.38-36.056-14.256z"/><path stroke="#595857" stroke-width="1.184" fill="#F0D655" d="M164.053 229.1l10.605 4.193-3.335 8.379-10.604-4.193zm-1.538 9.254l-5.19 13.043-4.334 10.89 6.917 2.734 6.604-16.596 2.92-7.336z"/><path stroke="#595857" stroke-width="1.416" d="M162.52 238.318l6.916 2.734-9.523 23.93-6.917-2.734z"/><path d="M168.179 216.897c-3.283-1.298-7 .302-8.303 3.574-1.302 3.272.304 6.977 3.586 8.275l5.945 2.35 2.357-5.925c1.302-3.272-.303-6.976-3.585-8.274z" stroke="#595857" stroke-width="1.184"/><path d="M180.066 221.597c3.283 1.298 4.888 5.003 3.586 8.275-1.302 3.272-5.02 4.872-8.302 3.574l-5.945-2.35 2.358-5.925c1.303-3.272 5.02-4.872 8.303-3.574z" stroke="#595857" stroke-width="1.184"/><path d="M163.555 240.197l-8.603 21.618m-4.417-26.765l-8.603 21.617m23.014-25.766l-2.385 5.994" stroke="#FFF" stroke-width="1.133"/><path d="M165.873 267.401l-22.41-8.753a2.857 2.857 0 0 1-1.1-3.438 2.875 2.875 0 0 1 3.721-1.62l1.064.415.008-.019 8.175 3.193c1.831.715 3.918-.376 4.613-2.144.695-1.767-.12-4.08-1.893-4.773l-16.359-6.39c-1.42-9.053 2.536-18.514 10.8-23.692.178-.111.344-.233.509-.355l18.424-13.54-18.434-6.018-8.53 6.017a9.054 9.054 0 0 0-.542.302c-15.987 10.018-22.366 29.575-16.41 46.642l.06.005s2.35 7.447 10.238 10.589l25.55 9.979a3.452 3.452 0 0 0 4.468-1.946 3.433 3.433 0 0 0-1.952-4.454z" stroke="#595857" stroke-width="1.184" fill="#CD5865"/><path d="M135.625 245.991c.75-1.712 2.91-2.556 4.823-1.886l7.364 2.583" stroke="#595857" stroke-width="1.184"/><path d="M74.128 155.024c-11.822 0-21.44-9.768-21.44-21.774H38.125c0 20.161 16.151 36.563 36.002 36.563.19 0 .375-.015.56-.029v-14.732a7.34 7.34 0 0 0-.559-.028z" stroke="#595857" stroke-width="1.184" fill="#6A9F8A"/><g stroke="#595857" stroke-width="1.184"><path d="M54.063 166.643c0 3.264-2.626 5.91-5.865 5.91h-22.02c-3.24 0-5.866-2.646-5.866-5.91l1.552-26.955c0-3.265 2.626-4.347 5.865-4.347h18.917c3.239 0 5.865 1.082 5.865 4.347l1.551 26.955z" fill="#C5C5C4"/><path d="M54.063 134.909c0 1.673-1.378 3.029-3.075 3.029H23.387c-1.698 0-3.075-1.357-3.075-3.03 0-1.673 1.378-3.028 3.075-3.028h27.601c1.697 0 3.075 1.356 3.075 3.029z" fill="#C5C5C4"/><path d="M34.159 137.08a3.458 3.458 0 0 1-3.462 3.454 3.458 3.458 0 0 1-3.461-3.455v-6.937a3.458 3.458 0 0 1 3.461-3.455 3.458 3.458 0 0 1 3.462 3.455v6.937zm6.923 0a3.458 3.458 0 0 1-3.462 3.454 3.458 3.458 0 0 1-3.461-3.455v-6.937a3.458 3.458 0 0 1 3.461-3.455 3.458 3.458 0 0 1 3.462 3.455v6.937zm6.923 0a3.458 3.458 0 0 1-3.462 3.454 3.458 3.458 0 0 1-3.461-3.455v-6.937a3.458 3.458 0 0 1 3.461-3.455 3.458 3.458 0 0 1 3.462 3.455v6.937z" fill="#6A9F8A"/><path d="M36.755 144.86c-3.34 0-6.058 2.843-6.058 6.336 0 1.33.396 2.608 1.143 3.695l.162.233 3.154 4.654s.383.66 1.223.66h.752c.84 0 1.223-.66 1.223-.66l3.156-4.654.16-.233a6.489 6.489 0 0 0 1.142-3.695c0-3.494-2.718-6.335-6.057-6.335m2.493 8.207l-.168.245-2.325 3.43-2.32-3.424-.17-.248a3.29 3.29 0 0 1-.583-1.875c0-1.773 1.379-3.216 3.074-3.216 1.694 0 3.073 1.442 3.073 3.216 0 .672-.201 1.32-.581 1.872m-4.224 10.848v-.013c0-.948.738-1.735 1.734-1.735s1.728.775 1.728 1.723v.012c0 .941-.74 1.727-1.741 1.727-.989 0-1.721-.77-1.721-1.714" fill="#EFD554"/><path d="M34.955 189.854l-2.285-4.32 2.283-4.321c.244-.46-.342-1.046-.802-.802l-4.321 2.283-4.32-2.284a.593.593 0 0 0-.801.803l2.283 4.32-2.283 4.321a.593.593 0 0 0 .801.802l4.322-2.283 4.321 2.284a.594.594 0 0 0 .802-.803zm16.471-6.559l-1.332-2.52 1.331-2.522c.142-.268-.2-.61-.467-.468l-2.52 1.332-2.52-1.332a.346.346 0 0 0-.47.468l1.332 2.52-1.331 2.522a.346.346 0 1 0 .468.468l2.52-1.332 2.52 1.332c.135.07.3.046.407-.062a.343.343 0 0 0 .062-.406z" fill="#CD5865"/></g><path d="M272.5 128.834v-1.167s4.95-3.416 3.96-9.417l6.353.833v6.167l-4.868 4.25-5.445-.666z" fill="#EABF64"/><path d="M283.35 120.125c0 3.777-2.54 7.273-6.474 7.4h-13.022c-3.65-.498-4.598-3.623-4.598-7.4h-5.088c0 6.563 3.199 11.957 9.635 12.5v2.448c-1.201 11.38-11.808 20.277-23.522 20.277-.2 0-.397.015-.594.03v15.34c.197.014.394.03.594.03 21.03 0 38.139-17.077 38.139-38.068 6.32-.661 10.017-6.078 10.017-12.557h-5.087z" stroke="#595857" stroke-width="1.184" fill="#F9C05D"/><path d="M279.063 120.125c0 3.35-2.575 7.388-6.563 7.5m4.688-7.5c0 3.35-2.575 7.388-6.563 7.5" stroke="#595857" stroke-width="1.184"/><path d="M302.5 117.781c0 1.295-1.168 2.344-2.61 2.344h-51.968c-1.441 0-2.61-1.05-2.61-2.344 0-1.294 1.169-2.344 2.61-2.344h51.968c1.442.001 2.61 1.05 2.61 2.344z" stroke="#595857" stroke-width="1.184" fill="#C5C5C4"/><g transform="translate(252.813 90.125)"><g stroke="#595857" stroke-width="1.184"><path d="M2.875 13.693v1.234c0 1.222.987 2.222 2.195 2.222h27.82c1.208 0 2.195-1 2.195-2.222v-1.234" fill="#85603C"/><path d="M17.544 14.571c.55.99 1.955.99 2.505 0l.481-.864a1.428 1.428 0 0 1 2.505 0l.482.864c.55.99 1.955.99 2.505 0l.481-.864a1.428 1.428 0 0 1 2.505 0l.482.864c.55.99 1.955.99 2.505 0l.481-.864a1.427 1.427 0 0 1 2.505 0l.481.864c.258.463.694.71 1.143.745V12.09c0-1.1-.88-1.99-1.964-1.99H16.288" fill="#6A9F8A"/><path d="M16.563 10.1H2.735c-1.092 0-1.978.92-1.978 2.054v3.161c.527.046 1.074-.2 1.376-.744l.482-.864c.153-.277.375-.473.625-.595a1.426 1.426 0 0 1 1.88.595l.481.864c.55.99 1.955.99 2.505 0l.482-.864c.55-.99 1.955-.99 2.505 0l.481.864c.55.99 1.955.99 2.505 0l.481-.864a1.428 1.428 0 0 1 2.506 0l.48.864" fill="#6A9F8A"/></g><path d="M26.133 0H11.367c-4.451 0-8.33 2.965-10.23 7.267-.615 1.393.267 3.045 1.622 3.045h31.982c1.355 0 2.237-1.652 1.622-3.045C34.463 2.964 30.585 0 26.133 0z" stroke="#595857" stroke-width="1.184" fill="#F0D997"/><circle fill="#595857" cx="9.844" cy="3.281" r=".469"/><circle fill="#595857" cx="12.656" cy="6.094" r=".469"/><circle fill="#595857" cx="18.281" cy="4.219" r=".469"/><circle fill="#595857" cx="23.906" cy="7.969" r=".469"/><circle fill="#595857" cx="26.719" cy="7.031" r=".469"/><circle fill="#595857" cx="28.594" cy="3.281" r=".469"/><circle fill="#595857" cx="32.344" cy="7.031" r=".469"/><circle fill="#595857" cx="6.094" cy="7.031" r=".469"/><circle fill="#595857" cx="22.969" cy="2.344" r=".469"/><g stroke="#595857" stroke-width="1.184"><path d="M33.762 25.45H4.06c-1.515 0-2.755-1.223-2.755-2.719 0-1.495 1.24-2.719 2.755-2.719h29.703c1.515 0 2.755 1.224 2.755 2.72 0 1.496-1.24 2.719-2.755 2.719z" fill="#F0D997"/><path d="M34.954 20.012H2.9c-1.058 0-1.924-.855-1.924-1.9 0-1.044.866-1.9 1.924-1.9h32.054c1.058 0 1.924.855 1.924 1.9.001 1.045-.865 1.9-1.924 1.9z" fill="#C73052"/></g></g><path d="M292.663 81.218l2.267-4.29c.242-.458-.34-1.039-.796-.797l-4.291 2.267-4.29-2.267a.589.589 0 0 0-.797.797l2.268 4.291-2.268 4.291a.59.59 0 0 0 .797.796l4.29-2.267 4.293 2.267a.59.59 0 0 0 .795-.797l-2.268-4.29zm-45.301 22.969l1.65-3.121c.175-.332-.247-.756-.579-.58l-3.121 1.65-3.12-1.65a.428.428 0 0 0-.579.58l1.648 3.121-1.649 3.122a.428.428 0 0 0 .579.578l3.12-1.65 3.122 1.65a.429.429 0 0 0 .58-.58l-1.65-3.12z" stroke="#595857" stroke-width="1.184" fill="#CD5865"/><path d="M94.861 180.613c-17.617 10.016-28.776 27.363-31.521 46.732-.752.315-1.487.697-2.194 1.156-6.292 4.09-8.04 12.45-3.903 18.671 4.137 6.222 12.588 7.95 18.88 3.86s8.04-12.45 3.903-18.672a13.558 13.558 0 0 0-1.494-1.864c1.787-15.04 10.62-28.484 24.22-36.216a49.21 49.21 0 0 1 16.936-5.845l-.664-15.81a64.26 64.26 0 0 0-24.163 7.988zm-22.095 65.37c-3.471 2.256-8.134 1.303-10.416-2.13s-1.318-8.045 2.153-10.301c3.472-2.257 8.135-1.304 10.417 2.13 2.281 3.432 1.317 8.044-2.154 10.3z" stroke="#595857" stroke-width="1.184" fill="#EBC8CF"/><ellipse stroke="#595857" stroke-width="1.184" fill="#C73052" cx="55.938" cy="261.219" rx="9.375" ry="9.844"/><path d="M58.25 257.541l-.193-3.083 2.445-1.895c.26-.202.075-.691-.254-.67l-3.09.19-1.9-2.438a.376.376 0 0 0-.672.253l.192 3.082-2.445 1.896a.374.374 0 0 0 .253.67l3.091-.192 1.9 2.438c.102.13.276.18.43.121a.368.368 0 0 0 .243-.372z" stroke="#595857" stroke-width="1.184" fill="#54836D"/><ellipse stroke="#595857" stroke-width="1.184" fill="#C73052" cx="41.875" cy="264.969" rx="9.375" ry="9.844"/><path d="M41.67 259.422l-2.88-1.607-.296-3.29c-.031-.351-.577-.467-.748-.16l-1.602 2.887-3.28.297a.402.402 0 0 0-.159.75l2.877 1.608.297 3.29a.4.4 0 0 0 .749.159l1.602-2.887 3.281-.297a.4.4 0 1 0 .158-.75z" stroke="#595857" stroke-width="1.184" fill="#54836D"/><g stroke-width="1.184" stroke="#595857" fill="#EABF64"><path d="M110.291 242.884c-1.317-1.267-2.968-1.944-4.658-2.106.468.288.915.62 1.327 1.016a7.767 7.767 0 0 1 .207 10.997L80.4 280.525c-1.716 1.78-4.075 2.531-6.36 2.312 3.052 1.877 7.103 1.46 9.691-1.224l26.766-27.733a7.765 7.765 0 0 0-.206-10.996z"/><path d="M80.401 280.525l26.767-27.734a7.767 7.767 0 0 0-.207-10.997 7.7 7.7 0 0 0-1.327-1.016c-2.286-.22-4.645.533-6.361 2.311l-26.767 27.734a7.767 7.767 0 0 0 .207 10.997c.412.396.86.73 1.327 1.017 2.286.22 4.645-.533 6.361-2.312z"/><path d="M83.732 281.614a7.805 7.805 0 0 1-11.02.206 7.767 7.767 0 0 1-.206-10.997l26.767-27.734a7.805 7.805 0 0 1 11.02-.205 7.767 7.767 0 0 1 .205 10.997l-26.766 27.733zm21.043-31.014a10.616 10.616 0 0 1-10.293-2.548m3.859 9.215a10.616 10.616 0 0 1-10.293-2.548m3.859 9.215a10.616 10.616 0 0 1-10.293-2.548m3.859 9.214a10.616 10.616 0 0 1-10.294-2.548"/></g><path d="M72.812 265.927c.041 2.275-1.717 4.155-3.927 4.197-2.211.043-4.037-1.767-4.078-4.042l-.431-23.634c-.042-2.276 1.717-4.155 3.927-4.197 2.21-.043 4.036 1.767 4.078 4.042l.43 23.634z" stroke="#595857" stroke-width="1.184" fill="#5E7970"/><path d="M33.438 270.483l2.212 21.909c.09 4.879 4.08 8.76 8.912 8.669l47.331-.897c4.832-.092 8.675-4.12 8.585-9l1.397-21.976-68.438 1.295z" stroke="#595857" stroke-width="1.184" fill="#6FC1AC"/><path d="M46.428 291.336c.028 1.435-1.138 2.62-2.602 2.646-1.464.027-2.674-1.114-2.701-2.549l-2.508-23.247c-.028-1.435 1.137-2.62 2.602-2.647 1.464-.026 2.673 1.115 2.7 2.55l2.51 23.247zm12.318-.226c.027 1.435-1.138 2.62-2.602 2.646-1.464.027-2.674-1.114-2.701-2.549l-1.183-23.271c-.028-1.434 1.138-2.62 2.602-2.647 1.464-.027 2.674 1.115 2.7 2.55l1.184 23.271zm19.921-.367c.027 1.435 1.237 2.576 2.701 2.55 1.464-.027 2.63-1.212 2.602-2.647l.29-23.299c-.027-1.434-1.236-2.576-2.7-2.55-1.464.028-2.63 1.213-2.602 2.647l-.29 23.3zm12.318-.226c.027 1.435 1.237 2.576 2.701 2.55 1.464-.027 2.63-1.212 2.602-2.647l1.617-23.322c-.027-1.435-1.237-2.576-2.701-2.55-1.464.027-2.63 1.212-2.602 2.648l-1.617 23.321zm-19.634.368c.028 1.43-1.133 2.613-2.594 2.64-1.46.026-2.667-1.111-2.694-2.543l-.402-20.995c-.028-1.43 1.133-2.612 2.595-2.639 1.46-.027 2.666 1.11 2.693 2.542l.402 20.995z" stroke="#595857" stroke-width="1.184" fill="#54836D"/><path d="M105.624 267.566c.045 2.253-1.824 4.115-4.172 4.156l-67.432 1.215c-2.348.042-4.288-1.75-4.332-4.003-.044-2.253 1.824-4.115 4.172-4.156l67.433-1.215c2.348-.042 4.287 1.75 4.331 4.003z" stroke="#595857" stroke-width="1.184" fill="#6FC1AC"/><circle stroke="#595857" stroke-width="1.184" fill="#8CC0AC" cx="68.594" cy="264.031" r="6.094"/><circle stroke="#595857" stroke-width="1.184" fill="#EFD554" cx="68.125" cy="263.563" r="2.813"/><path d="M223.536 111.828a63.63 63.63 0 0 1-20.567 14.86l-5.469-14.883a48.782 48.782 0 0 0 14.34-10.651c10.892-11.784 15.139-27.828 11.723-43.103l15.045-5.426c5.384 20.853-.135 43.044-15.072 59.203z" stroke="#595857" stroke-width="1.184" fill="#C9E3F7"/><g stroke="#595857" stroke-width="1.184"><g fill="#7ABEE0"><path d="M203.198 28.523c-.016-.026-.03-.053-.045-.08-.077-.132-.342-.76-.382-.858a10.395 10.395 0 0 1-.587-5.558c.003-.04.004-.077.011-.116.005-.026.015-.052.022-.078a.988.988 0 0 1 1.647-.445c1.515 1.759 3.154 2.503 3.154 2.503.79.308 1.456.93 1.794 1.785a3.185 3.185 0 0 1-1.765 4.129 3.144 3.144 0 0 1-3.849-1.282z"/><path d="M206.58 40.476c-.05-.038-.099-.082-.149-.122-.253-.2-1.256-1.236-1.41-1.4a21.915 21.915 0 0 1-5.403-10.518c-.024-.078-.05-.155-.065-.237-.01-.055-.01-.113-.016-.17a2.11 2.11 0 0 1 .15-1.038 2.098 2.098 0 0 1 2.76-1.116c4.335 2.3 8.138 2.501 8.138 2.501a6.642 6.642 0 0 1 4.906 2.135c2.519 2.72 2.37 6.98-.332 9.516a6.652 6.652 0 0 1-8.58.45z"/><path d="M207.772 38.272c-.03-.057-.055-.116-.084-.174-.144-.29-.619-1.654-.688-1.87a22.007 22.007 0 0 1-.474-11.83c.012-.08.02-.162.041-.242.015-.054.039-.107.058-.16.114-.326.298-.631.572-.878a2.093 2.093 0 0 1 2.97.166c2.96 3.93 6.32 5.733 6.32 5.733a6.69 6.69 0 0 1 3.547 4.025c1.14 3.536-.787 7.333-4.3 8.48-3.135 1.02-6.47-.416-7.962-3.25z"/></g><path fill="#F6DF6F" d="M235.37 37.623l-5.865-.138-8.182 7.373-12.18 11.463 43.82 24.117z"/><path d="M213.642 51.78l38.907 27.649" fill="#EFD554"/><path d="M232.782 70.075a.372.372 0 0 0 .527.03l8.71-17.63a.378.378 0 0 0 .03-.53l-2.252-4.52a.372.372 0 0 0-.527-.029l-10.233 19.89a.378.378 0 0 0-.03.531l3.775 2.258z" fill="#FFF"/><g transform="translate(208.786 22.855)"><path d="M4.2 20.285l3.334-2.734-4.512-.04c-1.72-.096-3.038-1.577-2.943-3.31a3.127 3.127 0 0 1 3.288-2.962l4.278.44-3.162-3.24a3.155 3.155 0 0 1 .243-4.435 3.105 3.105 0 0 1 4.406.245l2.717 3.356.04-4.542A3.127 3.127 0 0 1 15.175.101a3.132 3.132 0 0 1 2.942 3.31l-.437 4.306 3.22-3.183a3.105 3.105 0 0 1 4.405.245 3.155 3.155 0 0 1-.243 4.435l-3.334 2.734 4.512.04c1.72.096 3.038 1.577 2.943 3.31a3.127 3.127 0 0 1-3.288 2.962l-4.278-.44 3.162 3.24a3.155 3.155 0 0 1-.243 4.435 3.105 3.105 0 0 1-4.406-.246l-2.716-3.355-.04 4.542a3.127 3.127 0 0 1-3.288 2.962c-1.72-.096-3.037-1.577-2.942-3.31l.437-4.306-3.219 3.183a3.105 3.105 0 0 1-4.405-.245 3.155 3.155 0 0 1 .243-4.435z" fill="#D29FA9"/><ellipse fill="#EFD554" cx="14.63" cy="14.749" rx="4.16" ry="4.187"/><path d="M19.737 5.684l-4.685 4.574m-3.177-5.712l.259 6.834M5.92 9.913l4.592 4.26m-6.5 3.346l7.52.023m-1.672 5.94l4.576-4.446m2.958 5.098l.11-5.661m5.171.433l-3.923-3.599m5.201-3.339l-6.027-.19" fill="#EFD554"/></g><g transform="translate(199.375 37.592)"><path d="M3.324 18.5a2.491 2.491 0 0 1-.103-3.179 2.483 2.483 0 0 1-.918-4.778 2.49 2.49 0 0 1-1.105-2.919 2.462 2.462 0 0 1 2.682-1.68 2.495 2.495 0 0 1 .494-3.084 2.45 2.45 0 0 1 3.158-.104A2.477 2.477 0 0 1 9.492.334a2.46 2.46 0 0 1 2.786 1.499 2.458 2.458 0 0 1 2.9-1.112 2.48 2.48 0 0 1 1.669 2.7 2.455 2.455 0 0 1 3.064.497c.808.91.824 2.25.103 3.179a2.483 2.483 0 0 1 .918 4.778 2.49 2.49 0 0 1 1.105 2.919 2.462 2.462 0 0 1-2.683 1.68c.568.995.39 2.288-.493 3.084a2.45 2.45 0 0 1-3.158.104 2.477 2.477 0 0 1-1.96 2.422 2.46 2.46 0 0 1-2.786-1.499 2.458 2.458 0 0 1-2.9 1.112 2.48 2.48 0 0 1-1.669-2.7 2.455 2.455 0 0 1-3.064-.497z" fill="#CD5865"/><ellipse fill="#FFF" cx="11.617" cy="11.208" rx="2.687" ry="2.705"/></g></g><path d="M246.61 52.554c1.112 1.797.57 4.163-1.211 5.284l-2.705 1.704a3.785 3.785 0 0 1-5.241-1.22c-1.113-1.798-.57-4.164 1.211-5.285l2.705-1.704a3.785 3.785 0 0 1 5.24 1.22zm-2.813-7.5c1.113 1.797.57 4.163-1.211 5.284l-2.705 1.704a3.785 3.785 0 0 1-5.24-1.22c-1.113-1.798-.571-4.164 1.21-5.285l2.705-1.704a3.785 3.785 0 0 1 5.241 1.22z" stroke="#595857" stroke-width="1.184" fill="#C9E3F7"/><path d="M250.36 59.116c1.112 1.797.57 4.163-1.211 5.285l-2.705 1.704a3.785 3.785 0 0 1-5.241-1.221c-1.113-1.797-.57-4.163 1.211-5.285l2.705-1.704a3.786 3.786 0 0 1 5.24 1.221z" stroke="#595857" stroke-width="1.184" fill="#C9E3F7"/><path d="M219.64 206.63c0-1.176-.937-2.13-2.093-2.13h-13.266c-1.156 0-2.094.954-2.094 2.13 0 29.325 23.455 53.183 52.282 53.183 1.156 0 2.094-.954 2.094-2.13v-13.495c-.002-1.177-.939-2.13-2.095-2.13-19.204 0-34.828-15.893-34.828-35.429z" stroke="#595857" stroke-width="1.184" fill="#F9D746"/><path d="M201.411 77.633l-.059-.007s-2.046-7.527-9.746-10.964l-24.942-10.937a3.414 3.414 0 0 0-4.503 1.774 3.441 3.441 0 0 0 1.767 4.523l21.877 9.592a2.87 2.87 0 0 1 .96 3.476 2.843 2.843 0 0 1-3.75 1.477l-1.039-.455-.008.019-7.98-3.5c-1.787-.784-3.898.227-4.653 1.966-.756 1.739-.035 4.08 1.695 4.84l15.971 7.001c1.064 9.097-3.215 18.395-11.602 23.254a8.33 8.33 0 0 0-.517.336l7.95 13.847c.185-.088.369-.177.549-.281 16.224-9.398 23.286-28.69 18.03-45.96z" stroke="#595857" stroke-width="1.184" fill="#85603C"/><circle stroke="#595857" stroke-width="1.184" fill="#EABF64" cx="111.719" cy="36.219" r="20.156"/><path d="M93.438 29.188c4.88 1.082 9.157 4.575 11.117 9.709a16.198 16.198 0 0 1-1.58 14.666m27.963-8.438c-5.265-.832-9.976-4.532-12.06-10.146-2.082-5.613-1.01-11.711 2.315-16.104" stroke="#595857" stroke-width="1.184"/><path d="M104.688 17.938l14.062 37.5M93.438 43.25l37.5-14.063" stroke="#595857" stroke-width="1.184" fill="#EFD554"/><path d="M135.625 23.655c10.358-5.363 21.928-6.462 32.22-2.024 11.341 4.89 18.748 15.475 21.218 28.181" stroke="#595857" stroke-width="1.184"/><path d="M138.438 28.556c8.54-4.55 18.081-5.483 26.567-1.718 9.351 4.149 15.458 13.13 17.495 23.912m7.5 34.152c-.761 2.033-2.793 2.962-4.537 2.074l-6.713-3.413" stroke="#595857" stroke-width="1.184"/><path d="M95.24 41.375c-1.152-2.728-1.178-5.609.073-8.438m13.125-13.539c2.74-.799 5.62-.7 8.437.415m-20.625 7.5c1.691-2.388 3.962-4.294 6.563-5.625" stroke="#FFF" stroke-width="1.184"/><g stroke="#595857" stroke-width="1.184"><path d="M87.574 212.838h144.579c0-11.035 9.608-19.98 21.46-19.98v-63.67c-11.853 0-21.46-8.945-21.46-19.979H87.574c0 11.034-9.608 19.979-21.46 19.979v63.67c11.852 0 21.46 8.945 21.46 19.98z" fill="#2ABB9B"/><path d="M201.087 116.636h26.053c2.64 9.151 10.036 16.377 19.403 18.957v50.86c-9.367 2.58-16.763 9.806-19.403 18.957h-26.053m-81.567 0H93.467c-2.64-9.152-10.036-16.378-19.402-18.957v-50.861c9.366-2.58 16.762-9.806 19.402-18.956h26.053"/><path d="M229.375 123.875l-6.3 1.875m10.05 2.813l-4.54 3.53m10.452.717l-3.268 5.063m-7.331 60.065l-5.513-2.48m9.263-2.208l-4.22-4.219m10.782.469l-3.75-6.563M91.563 199.813l5.55-2.587m-9.3-3.038l4.218-4.22m-8.906.47l3.281-5.157M91.563 122l6.562 2.813m-9.375 1.875l4.688 4.687m-10.313 0L85.938 137" stroke-linecap="round" stroke-linejoin="round"/></g><path d="M287.069 254.602l-8.918 4.095 4.08 12.994-23.648 8.747-11.32-32.482s-1.493-13.168 8.832-17.181c10.325-4.013 19.778-7.525 19.778-7.525l12.565 28.844-1.37 2.508z" fill="#FFF"/><path d="M290.226 293.399l-2.888-5.462 2.887-5.461c.307-.582-.433-1.321-1.014-1.014l-5.461 2.886-5.46-2.886a.75.75 0 0 0-1.014 1.014l2.885 5.461-2.886 5.462a.749.749 0 0 0 1.013 1.014l5.462-2.887 5.462 2.887a.75.75 0 0 0 1.014-1.014zm6.599-20.153l-1.65-3.121 1.65-3.121c.176-.332-.248-.756-.58-.58l-3.12 1.65-3.12-1.65a.429.429 0 0 0-.58.58l1.65 3.12-1.65 3.122a.429.429 0 0 0 .579.579l3.12-1.65 3.122 1.65a.427.427 0 0 0 .58-.58z" stroke="#595857" stroke-width="1.184" fill="#CD5865"/><g stroke="#595857" stroke-width="1.184"><path d="M289.465 254.589c6.38-2.49 8.793-11.622 5.39-20.395-3.402-8.773-11.332-13.867-17.712-11.376-6.38 2.49-8.793 11.621-5.39 20.395 3.402 8.773 11.332 13.866 17.712 11.376z" fill="#FFF"/><path d="M285.744 244.995c1.823-.712 2.208-4.105.86-7.58-1.347-3.475-3.917-5.715-5.74-5.003-1.823.711-2.208 4.105-.86 7.58 1.347 3.474 3.917 5.714 5.74 5.003zm-8.761-22.238l-20.212 7.8c-8.268 3.227-12.363 12.568-9.145 20.863l11.303 29.145 23.552-8.958-10.323-27.53m16.396 10.861l-10.477 3.998m-26.037 3.328l3.191-1.245m6.382-2.491l3.74-1.46m6.654-2.964l3.521-1.375"/></g><path d="M286.766 232.881a4.013 4.013 0 0 1 5.165 2.34 3.999 3.999 0 0 1-2.345 5.153l-7.026 2.497s-1.198.783-2.89-3.023c0 .001-1.28-3.233-.124-4.05l7.22-2.917z" stroke="#595857" stroke-width="1.184" fill="#EFD554"/><path stroke="#595857" stroke-width="1.184" fill="#54836D" d="M77.5 87.727L62.016 95.75 45.625 69.79l20.461-10.603z"/><path stroke="#595857" stroke-width="1.184" fill="#F0D997" d="M74.688 79.033l-18.51 9.217L47.5 76.169l22.013-11.356z"/><g stroke="#595857" stroke-width="1.184" fill="#FFF"><path d="M67.601 57.007c.524 1.05.132 2.343-.874 2.889l-23.36 12.673c-1.006.546-2.247.14-2.771-.91s-.133-2.343.874-2.889l23.36-12.673c1.005-.547 2.246-.14 2.771.91z"/><path d="M59.178 53.19l-8.215 4.457-8.217 4.457.785 5.565 9.787-5.309 9.784-5.308z"/></g><path d="M49.94 80.315c-1.68 1.03-3.823.41-4.787-1.387-.964-1.796-.383-4.089 1.297-5.12l6.11-3.747c1.68-1.031 3.823-.411 4.787 1.386.963 1.796.384 4.089-1.297 5.12l-6.11 3.748zm15.669-12.294c-.8-1.857.077-4.002 1.958-4.791 1.882-.79 4.055.076 4.854 1.933l2.908 6.753c.8 1.857-.078 4.003-1.959 4.792-1.881.79-4.055-.077-4.854-1.934l-2.907-6.753zM53.69 86.815c-1.68 1.03-3.823.41-4.787-1.387-.964-1.796-.383-4.089 1.297-5.12l6.11-3.748c1.68-1.03 3.823-.41 4.787 1.387.963 1.796.384 4.089-1.297 5.12l-6.11 3.748zm3.75 6.562c-1.68 1.03-3.823.41-4.787-1.386-.964-1.797-.383-4.09 1.297-5.12l6.11-3.748c1.68-1.03 3.823-.41 4.787 1.386.963 1.797.384 4.09-1.297 5.12l-6.11 3.748z" stroke="#595857" stroke-width="1.184" fill="#F8F09A"/></g></svg>