<svg xmlns="http://www.w3.org/2000/svg" viewBox="0 0 100 125"><path d="M50.525 8.999c-22.834 0-41.44 18.604-41.475 41.472C9.034 61.76 13.487 72.705 21.27 80.5c7.393 7.403 17.214 11.481 27.656 11.481.557 0 1.118-.011 1.682-.035C73.818 90.995 92 72.778 92 50.474c0-22.87-18.605-41.475-41.475-41.475zm-.082 78.951c-.508.021-1.015.031-1.518.031-8.268 0-16.101-2.852-22.388-8.087.002-.04.012-.078.012-.119 0-10.51 6.162-19.454 15.39-22.497a16.9 16.9 0 0 0 7.727 1.874 16.91 16.91 0 0 0 7.728-1.874c9.447 3.103 16.004 12.192 16.052 22.383-6.315 4.88-14.263 7.93-23.003 8.289zm-.777-32.798c-7.182 0-13.024-5.842-13.024-13.024s5.842-13.024 13.024-13.024S62.69 34.947 62.69 42.128s-5.842 13.024-13.024 13.024zm27.549 21.192c-1.191-9.572-7.276-17.91-15.911-21.825 3.307-3.107 5.386-7.506 5.386-12.391 0-9.387-7.637-17.024-17.024-17.024s-17.024 7.637-17.024 17.024c0 4.888 2.082 9.288 5.392 12.396-8.391 3.852-14.136 12.027-15.261 21.743-6.213-6.929-9.736-16.218-9.721-25.791.031-20.665 16.842-37.478 37.475-37.478C71.189 12.999 88 29.81 88 50.474c0 10.026-4.086 19.137-10.785 25.87z"/></svg>