<svg width="24" height="24" viewBox="0 0 24 24" xmlns="http://www.w3.org/2000/svg"><title>CC723729-5EFE-4948-A5B0-B6CDADD19719</title><g transform="translate(1 4)" fill="#9FA8AD" fill-rule="evenodd"><path d="M21.436 1.938c0 .91-.545 1.65-1.217 1.65H7.253c-.672 0-1.217-.739-1.217-1.65 0-.912.545-1.65 1.217-1.65h12.966c.672 0 1.217.738 1.217 1.65z"/><circle cx="1.65" cy="1.98" r="1.65"/><circle cx="1.65" cy="8.25" r="1.65"/><circle cx="1.65" cy="14.52" r="1.65"/><path d="M21.436 8.22c0 .912-.545 1.65-1.217 1.65H7.253c-.672 0-1.217-.738-1.217-1.65 0-.91.545-1.65 1.217-1.65h12.966c.672 0 1.217.74 1.217 1.65zm-1.217 7.934H7.253c-.672 0-1.217-.738-1.217-1.65 0-.911.545-1.65 1.217-1.65h12.966c.672 0 1.217.739 1.217 1.65 0 .911-.545 1.65-1.217 1.65z"/></g></svg>