<svg width="150" height="180" viewBox="0 0 150 180" xmlns="http://www.w3.org/2000/svg"><title>0C977B60-BA19-47B5-B5DA-AED47FB92DF5</title><g fill="none" fill-rule="evenodd" stroke-linecap="round" stroke-linejoin="round"><path d="M102.94 101.944c0-6.319-7.05-6.527-7.05-6.527h-.427l5.463-35.7a7.406 7.406 0 0 0-6.201-8.441 7.406 7.406 0 0 0-8.442 6.2l-5.805 37.94h-.061l-5.974-37.898a7.407 7.407 0 0 0-14.632 2.306l5.61 35.593h-.102l.16 1.015c.021.134.054.262.083.393-10.321.926-18.412 9.593-18.412 20.155 0 8.794 5.61 16.275 13.444 19.068v5.619h31.684v-10.293c6.345-3.415 10.661-10.111 10.661-17.823 0-.26-.018-.516-.028-.773h.028v-10.834z" stroke="#575756" stroke-width="1.8" fill="#EABA62"/><path d="M90.934 128.878a17.392 17.392 0 0 0 9.17-15.327c0-.132-.007-.261-.014-.391l-.013-.275-.084-2.942h.11v-7.999c0-3.22-3.25-3.642-4.273-3.693H76.443m-24.727 26.286a17.426 17.426 0 0 0 9.829 8.841l1.883.672v4.782m8.215-80.872c-.347-2.203-2.285-3.862-4.507-3.862a4.579 4.579 0 0 0-4.526 5.285l4.054 25.721m17.269 6.464l5.152-33.662c.34-2.213 2.278-3.882 4.51-3.882.233 0 .47.018.702.053a4.544 4.544 0 0 1 2.993 1.813c.722.984 1.02 2.19.834 3.398" stroke="#FFF"/><path d="M55.546 113.177a7.176 7.176 0 0 1-14.177 2.234l-1.893-12.008a7.176 7.176 0 0 1 14.178-2.234l1.892 12.008z" stroke="#575756" stroke-width="1.8" fill="#EABA62"/><path d="M49.133 118.583a4.42 4.42 0 0 1-.685.055c-2.11 0-3.95-1.576-4.279-3.666l-1.893-12.01a4.313 4.313 0 0 1 .778-3.23 4.316 4.316 0 0 1 3.52-1.788" stroke="#FFF"/><path d="M68.86 105.462a7.176 7.176 0 0 1-14.178 2.234l-1.893-12.01a7.176 7.176 0 0 1 14.178-2.234l1.892 12.01z" stroke="#575756" stroke-width="1.8" fill="#EABA62"/><path d="M62.447 110.868a4.505 4.505 0 0 1-.684.054 4.317 4.317 0 0 1-4.28-3.667l-1.894-12.01a4.348 4.348 0 0 1 4.297-5.018" stroke="#FFF"/><path d="M95.3 95.434H76.674a7.14 7.14 0 1 0 0 14.28l15.29 1.717M73.5 109.15v13.072" stroke="#575756" stroke-width="1.8"/><path d="M96.167 152.387c0 .177-.212.321-.473.321H57.195c-.26 0-.473-.143-.473-.32v-10.401c0-.177.212-.321.473-.321l38.5-2.5c.26 0 .472.143.472.32v12.901z" stroke="#575756" stroke-width="1.8" fill="#B9DBF0"/><path d="M51.722 150.528c0-.176.211-.32.472-.32h47.667c.26 0 .472.143.472.32v18.734c0 .177-.211.321-.472.321l-47.667 2.5c-.26 0-.472-.143-.472-.32v-21.235z" stroke="#575756" stroke-width="1.8" fill="#4BACD1"/><path d="M75 121.472v-9.18" stroke="#FFF"/><path stroke="#FFF" stroke-width="1.8" d="M54.5 167.5v-14.792h43.3"/><path d="M131.416 104.463l-4.383-8.29 4.38-8.29c.468-.883-.656-2.005-1.538-1.539l-8.29 4.381-8.29-4.382a1.14 1.14 0 0 0-1.538 1.54l4.38 8.29-4.381 8.29a1.137 1.137 0 0 0 1.538 1.539l8.291-4.381 8.292 4.382a1.139 1.139 0 0 0 1.54-1.54h-.001zM44.507 78.065l-7.193-13.602 7.188-13.604c.767-1.447-1.075-3.29-2.524-2.524l-13.603 7.188-13.6-7.19a1.87 1.87 0 0 0-2.525 2.525l7.187 13.603-7.189 13.603a1.866 1.866 0 0 0 2.524 2.524l13.603-7.189 13.605 7.19c.725.384 1.614.25 2.193-.33a1.866 1.866 0 0 0 .334-2.194z" stroke="#595957" stroke-width="1.8" fill="#EDD554"/><path d="M44.507 78.065l-7.193-13.602 7.188-13.604c.767-1.447-1.075-3.29-2.524-2.524l-13.603 7.188-13.6-7.19a1.87 1.87 0 0 0-2.525 2.525l7.187 13.603-7.189 13.603a1.866 1.866 0 0 0 2.524 2.524l13.603-7.189 13.605 7.19c.725.384 1.614.25 2.193-.33a1.866 1.866 0 0 0 .334-2.194z" stroke="#595957" stroke-width="1.8"/><path d="M14.734 78.056l7.125-13.188m-7.125-14.251l13.644 7.452 13.4-7.452m73.054 52.213l3.176-5.88m-3.176-7.433l6.814 3.721 6.692-3.721" stroke="#FFF"/><path d="M73.042 25.267l4.38-8.29c.468-.883-.655-2.005-1.538-1.539l-8.29 4.381-8.289-4.381a1.14 1.14 0 0 0-1.54 1.539l4.38 8.29-4.38 8.29a1.137 1.137 0 0 0 1.538 1.539l8.291-4.381 8.292 4.382a1.138 1.138 0 0 0 1.539-1.54l-4.383-8.29z" stroke="#595957" stroke-width="1.8" fill="#EDD554"/><path d="M60.842 31.924l3.176-5.879m-3.176-7.435l6.814 3.723 6.692-3.722" stroke="#FFF"/></g></svg>