<svg width="24" height="24" viewBox="0 0 24 24" xmlns="http://www.w3.org/2000/svg"><title>98244A3C-7F9F-46E4-9F64-2C49D5D7BAB3</title><path d="M19.275 9.373h-1.779V6.46a5.467 5.467 0 0 0-5.46-5.461 5.467 5.467 0 0 0-5.462 5.46v2.913H5.008C3.898 9.373 3 10.272 3 11.38v9.612C3 22.102 3.899 23 5.008 23h14.267c1.11 0 2.008-.899 2.008-2.008v-9.611c0-1.11-.9-2.008-2.008-2.008zm-7.24-5.242a2.332 2.332 0 0 1 2.33 2.33v2.911h-4.66V6.46a2.332 2.332 0 0 1 2.33-2.329z" fill="#9FA8AD" fill-rule="evenodd"/></svg>