<?xml version="1.0" encoding="UTF-8" standalone="no"?>
<svg width="170px" height="170px" viewBox="0 0 170 170" version="1.1" xmlns="http://www.w3.org/2000/svg" xmlns:xlink="http://www.w3.org/1999/xlink">
    <!-- Generator: sketchtool 3.7.2 (28276) - http://www.bohemiancoding.com/sketch -->
    <title>B64113F1-9AFE-4D58-BEF0-9DC93716FBD9</title>
    <desc>Created with sketchtool.</desc>
    <defs></defs>
    <g id="Page-1" stroke="none" stroke-width="1" fill="none" fill-rule="evenodd">
        <g id="Artboard-1" transform="translate(-818.000000, -115.000000)">
            <g id="icons" transform="translate(-36.000000, 91.000000)">
                <g id="Group" transform="translate(864.000000, 33.000000)">
                    <g>
                        <path d="M9.825,93.551 C-3.232,106.608 -3.232,127.778 9.825,140.836 C22.882,153.894 44.052,153.893 57.11,140.836 L67.382,130.564 L20.097,83.279 L9.825,93.551 L9.825,93.551 Z" id="Shape" fill="#EFD896"></path>
                        <path d="M140.692,9.968 C127.635,-3.089 106.464,-3.089 93.407,9.968 L27.974,75.401 L75.259,122.686 L140.692,57.253 C153.75,44.196 153.75,23.026 140.692,9.968 L140.692,9.968 Z" id="Shape" stroke="#585857" stroke-width="3.649" fill="#EFD896"></path>
                        <rect id="Rectangle-path" fill="#E9BE64" transform="translate(47.682305, 102.991660) rotate(225.000000) translate(-47.682305, -102.991660) " x="14.2471255" y="97.4217139" width="66.8703587" height="11.1398932"></rect>
                    </g>
                    <path d="M9.825,93.551 C-3.232,106.608 -3.232,127.778 9.825,140.836 L9.825,140.836 C22.882,153.893 44.052,153.893 57.11,140.836 L140.692,57.254 C153.749,44.197 153.749,23.027 140.692,9.969 L140.692,9.969 C127.635,-3.088 106.465,-3.088 93.407,9.969 L9.825,93.551 L9.825,93.551 Z" id="Shape" stroke="#585857" stroke-width="3.649"></path>
                    <circle id="Oval" fill="#585857" cx="117.022" cy="22.088" r="3.563"></circle>
                    <circle id="Oval" fill="#585857" cx="130.886" cy="35.953" r="3.563"></circle>
                    <circle id="Oval" fill="#585857" cx="105.571" cy="33.54" r="3.563"></circle>
                    <circle id="Oval" fill="#585857" cx="119.435" cy="47.404" r="3.563"></circle>
                    <circle id="Oval" fill="#585857" cx="28.623" cy="108.122" r="3.563"></circle>
                    <circle id="Oval" fill="#585857" cx="42.487" cy="121.987" r="3.563"></circle>
                    <circle id="Oval" fill="#585857" cx="17.172" cy="119.574" r="3.563"></circle>
                    <circle id="Oval" fill="#585857" cx="31.036" cy="133.438" r="3.563"></circle>
                </g>
                <path d="M956.675,172.796 C969.732,185.853 990.902,185.853 1003.96,172.796 L1003.96,172.796 C1017.017,159.739 1017.017,138.569 1003.96,125.511 L920.378,41.929 C907.321,28.872 886.151,28.872 873.093,41.929 L873.093,41.929 C860.036,54.986 860.036,76.156 873.093,89.214 L956.675,172.796 L956.675,172.796 Z" id="Shape" stroke="#585857" stroke-width="3.649" fill="#EFD896"></path>
                <g id="Group" transform="translate(854.000000, 24.000000)" fill="#585857">
                    <circle id="Oval" cx="33.747" cy="43.64" r="3.563"></circle>
                    <circle id="Oval" cx="47.612" cy="29.775" r="3.563"></circle>
                    <circle id="Oval" cx="45.199" cy="55.091" r="3.563"></circle>
                    <circle id="Oval" cx="59.063" cy="41.227" r="3.563"></circle>
                </g>
                <g id="Group" transform="translate(963.000000, 131.000000)" fill="#585857">
                    <circle id="Oval" cx="4.21" cy="17.549" r="3.563"></circle>
                    <circle id="Oval" cx="18.074" cy="3.685" r="3.563"></circle>
                    <circle id="Oval" cx="15.661" cy="29.001" r="3.563"></circle>
                    <circle id="Oval" cx="29.526" cy="15.136" r="3.563"></circle>
                </g>
                <path d="M964.783,104.117 C968.924,108.258 968.924,114.971 964.783,119.112 L950.581,133.314 C946.44,137.455 939.727,137.455 935.586,133.314 L910.804,108.532 C906.663,104.391 906.663,97.678 910.804,93.537 L925.006,79.335 C929.147,75.194 935.86,75.194 940.001,79.335 L964.783,104.117 L964.783,104.117 Z" id="Shape" stroke="#585857" stroke-width="3.649" fill="#EED554"></path>
                <path d="M964.783,104.117 C968.924,108.258 968.924,114.971 964.783,119.112 L950.581,133.314 C946.44,137.455 939.727,137.455 935.586,133.314 L910.804,108.532 C906.663,104.391 906.663,97.678 910.804,93.537 L925.006,79.335 C929.147,75.194 935.86,75.194 940.001,79.335 L964.783,104.117 L964.783,104.117 Z" id="Shape" stroke="#585857" stroke-width="2.4849"></path>
                <path d="M915.704,98.436 L929.907,84.233 C930.599,83.537 931.523,83.155 932.506,83.155 C933.485,83.155 934.409,83.537 935.101,84.233 L961.912,110.73" id="Shape" stroke="#FFFFFF" stroke-width="2.4849"></path>
            </g>
        </g>
    </g>
</svg>