<?xml version="1.0" encoding="utf-8"?>
<!-- Generator: Adobe Illustrator 17.0.0, SVG Export Plug-In . SVG Version: 6.00 Build 0)  -->
<!DOCTYPE svg PUBLIC "-//W3C//DTD SVG 1.1//EN" "http://www.w3.org/Graphics/SVG/1.1/DTD/svg11.dtd">
<svg version="1.1" id="Capa_1" xmlns="http://www.w3.org/2000/svg" xmlns:xlink="http://www.w3.org/1999/xlink" x="0px" y="0px"
	 width="200px" height="200px" viewBox="0 0 200 200" enable-background="new 0 0 200 200" xml:space="preserve">
<path fill="#9FA8AD" d="M149.909,3.789h-17.798H71.233H53.434c-10.129,0-18.341,8.212-18.341,18.341v18.713v118.412v4.983v12.576
	c0,10.129,8.212,18.341,18.341,18.341h17.798h60.879h17.798c10.13,0,18.341-8.212,18.341-18.341v-12.576v-4.983V40.843V22.13
	C168.251,12.001,160.039,3.789,149.909,3.789z M149.281,136.807c0,5.222-4.233,9.455-9.455,9.455H63.518
	c-5.222,0-9.455-4.233-9.455-9.455V33.969c0-5.222,4.233-9.455,9.455-9.455h76.308c5.222,0,9.455,4.233,9.455,9.455V136.807z
	 M115.014,169.942c0,7.369-5.974,13.342-13.342,13.342c-7.369,0-13.342-5.974-13.342-13.342c0-7.369,5.974-13.342,13.342-13.342
	C109.041,156.6,115.014,162.573,115.014,169.942z"/>
</svg>
