<?xml version="1.0" encoding="UTF-8" standalone="no"?>
<svg width="92px" height="79px" viewBox="0 0 92 79" version="1.1" xmlns="http://www.w3.org/2000/svg" xmlns:xlink="http://www.w3.org/1999/xlink">
    <!-- Generator: sketchtool 41.1 (35376) - http://www.bohemiancoding.com/sketch -->
    <title>0175689D-0BA9-48B4-AAA8-81644B5B5B07</title>
    <desc>Created with sketchtool.</desc>
    <defs></defs>
    <g id="Page-1" stroke="none" stroke-width="1" fill="none" fill-rule="evenodd">
        <g id="Desktop-Landscape-Copy-5" transform="translate(-599.000000, -1009.000000)">
            <g id="Texto-Glovers" transform="translate(5.000000, 655.000000)"></g>
            <g id="Group-4" transform="translate(599.000000, 1009.000000)">
                <g id="cerdo">
                    <path d="M51.0662709,28.8229555 C49.4591445,26.5837231 43.2880039,26.4850382 41.8651913,26.4921598 C40.4423788,26.4850382 34.2712382,26.5837231 32.6641118,28.8229555 L34.3173166,30.8098801 C34.3173166,30.8098801 36.5167197,29.428291 41.8651913,29.3764051 C47.2147869,29.428291 49.41419,30.8098801 49.41419,30.8098801 L51.0662709,28.8229555 Z" id="Fill-5" fill="#3D9F83"></path>
                    <path d="M34.0418077,15.514607 C29.2602827,16.1539028 25.2479858,17.3965326 21.9320573,19.0709827 L16.0988465,12.6058449 C16.0988465,12.6058449 12.0196562,10.4127484 12.6490646,15.2659257 C13.0183868,18.1174123 13.4605332,22.4390346 13.7632734,25.5292021 C11.7606105,28.0140196 10.4310504,30.7755686 9.7069707,33.6293613 L8.11316313,33.6293613 C5.5726422,33.6293613 3.49403416,35.9331503 3.49403416,38.7488925 L3.49403416,42.5989183 C3.49403416,45.4146605 5.5726422,47.7184496 8.11316313,47.7184496 L11.6753022,47.7184496 C13.4719769,50.7071489 16.1082096,53.5251971 19.3291157,55.9339135 L16.8062806,65.6298905 C16.8062806,68.3199505 18.3751199,70.5211183 20.3049587,70.5211183 L26.9881309,70.5211183 C28.91901,70.5211183 30.7094427,68.525193 31.5281937,65.6298905 L32.00051,62.126932 C35.1787621,63.0124726 38.5255499,63.5152013 41.9378794,63.5152013 C44.1392481,63.5152013 46.2303402,63.3733764 48.2225997,63.1173999 L48.5617519,65.6298905 C49.3794626,68.525193 51.1709356,70.5211183 53.1007744,70.5211183 L59.7839466,70.5211183 C61.7148257,70.5211183 63.2826247,68.3199505 63.2826247,65.6298905 L62.599435,63.0026518 C62.2497738,61.6580128 61.5504513,58.9687347 61.5504513,58.9687347 C70.2550126,54.2262501 74.8429312,46.4627808 74.8429312,39.0532971" id="Stroke-11" stroke="#3D9F83" stroke-width="3" stroke-linecap="round" stroke-linejoin="round"></path>
                    <path d="M51.0875646,14.8182038 C51.0875646,19.4307339 47.3656456,23.1704973 42.7751243,23.1704973 C38.183676,23.1704973 34.4626839,19.4307339 34.4626839,14.8182038 C34.4626839,10.2056737 38.183676,6.46591025 42.7751243,6.46591025 C47.3656456,6.46591025 51.0875646,10.2056737 51.0875646,14.8182038" id="Fill-13" stroke="#3D9F83" stroke-width="3" stroke-linecap="round" stroke-linejoin="round"></path>
                    <path d="M74.8426191,40.651325 C74.8426191,40.651325 82.8031074,37.3513874 83.1374746,42.9816286 C83.4718418,48.6118699 69.5409126,42.5414065 88.8079272,35.8063336" id="Path-330" stroke="#3D9F83" stroke-width="3" stroke-linecap="round" stroke-linejoin="round"></path>
                    <path d="M15.0510454,33.3978064 C15.0510454,33.3978064 18.2301597,39.5463854 22.9582845,33.9663919" id="Path-331" stroke="#3D9F83" stroke-width="3" stroke-linecap="round" stroke-linejoin="round"></path>
                    <path d="M51.4893617,16.0704225 C51.4893617,16.0704225 64.2978723,17.9014085 70.4020412,26.4918544 C73.6369811,31.0444114 75.0011897,36.3981831 74.8427707,40.4635732 C74.7166369,43.7004512 73.4522654,46.0522608 73.4522654,46.0522608" id="Path-591" stroke="#3D9F83" stroke-width="2.7" stroke-linecap="round" stroke-linejoin="round"></path>
                </g>
            </g>
        </g>
    </g>
</svg>