<svg width="22" height="22" viewBox="0 0 22 22" xmlns="http://www.w3.org/2000/svg"><title>EA10E2B5-E30E-4E95-B7A5-5766E241D273</title><path d="M3.3 8.52c0 4.249 3.232 8.971 5.332 11.561C9.32 20.93 10.714 22 10.714 22s1.335-.95 2.031-1.81c2.106-2.599 5.555-7.431 5.555-11.67C18.3 4.367 14.942 1 10.8 1 6.658 1 3.3 4.367 3.3 8.52zm7.5 2.686A2.682 2.682 0 0 1 8.121 8.52c0-.712.283-1.395.785-1.899a2.675 2.675 0 0 1 1.894-.787 2.682 2.682 0 0 1 2.679 2.686 2.69 2.69 0 0 1-.785 1.9 2.675 2.675 0 0 1-1.894.786z" fill="#2ABB9B" fill-rule="evenodd"/></svg>