<svg width="35" height="35" viewBox="0 0 35 35" xmlns="http://www.w3.org/2000/svg"><title>b</title><path d="M17.5 32S29 19.12 29 13.03C29 6.937 23.851 2 17.5 2S6 6.938 6 13.03C6 19.12 17.5 32 17.5 32zm-3.454-13V9.047h3.26c1.099 0 1.958.227 2.578.68.62.454.93 1.131.93 2.034 0 .437-.125.831-.373 1.182s-.594.618-1.036.8c.638.105 1.13.38 1.473.827.344.447.517.971.517 1.573 0 .934-.306 1.644-.916 2.129-.611.485-1.454.728-2.53.728h-3.903zm1.661-4.525v3.199h2.242c.574 0 1.016-.131 1.326-.393.31-.262.465-.642.465-1.138 0-.502-.152-.9-.458-1.197-.305-.296-.733-.453-1.285-.471h-2.29zm0-1.238h1.777c.515 0 .922-.122 1.22-.365.3-.244.448-.59.448-1.036 0-.492-.157-.858-.471-1.097-.315-.24-.773-.36-1.374-.36h-1.6v2.858z" fill="#E84E40" fill-rule="evenodd"/></svg>