<?xml version="1.0" encoding="UTF-8"?>
<svg width="20px" height="20px" viewBox="0 0 20 20" version="1.1" xmlns="http://www.w3.org/2000/svg" xmlns:xlink="http://www.w3.org/1999/xlink">
    <!-- Generator: Sketch 42 (36781) - http://www.bohemiancoding.com/sketch -->
    <title>Artboard</title>
    <desc>Created with Sketch.</desc>
    <defs>
        <polygon id="path-1" points="13.8290303 19.6732083 13.8290303 -8.33333332e-05 0 -8.33333332e-05 0 19.6732083 13.8290303 19.6732083"></polygon>
    </defs>
    <g id="Page-1" stroke="none" stroke-width="1" fill="none" fill-rule="evenodd">
        <g id="Artboard">
            <g id="Page-1" transform="translate(3.000000, 0.000000)">
                <mask id="mask-2" fill="white">
                    <use xlink:href="#path-1"></use>
                </mask>
                <g id="Clip-2"></g>
                <path d="M10.843,6.791125 C10.843,8.918625 9.08069697,10.6494583 6.91451515,10.6494583 C4.74833333,10.6494583 2.9860303,8.918625 2.9860303,6.791125 C2.9860303,4.663625 4.74833333,2.93279167 6.91451515,2.93279167 C9.08069697,2.93279167 10.843,4.663625 10.843,6.791125 M6.91451515,-0.000125 C3.10184848,-0.000125 -0.000212121212,3.04654167 -0.000212121212,6.791125 C-0.000212121212,8.28779167 0.343,9.891125 1.01966667,11.5569583 C1.55251515,12.868625 2.29324242,14.2240417 3.22148485,15.5852917 C4.79372727,17.8919583 6.34857576,19.4077917 6.41390909,19.4715417 C6.55263636,19.606125 6.73378788,19.6732083 6.91451515,19.6732083 C7.09524242,19.6732083 7.2759697,19.606125 7.41469697,19.472375 C7.4800303,19.4090417 9.03487879,17.897375 10.6075455,15.5927917 C11.5357879,14.2327917 12.2765152,12.8777917 12.8093636,11.564875 C13.4860303,9.89820833 13.8292424,8.29195833 13.8292424,6.791125 C13.8292424,3.04654167 10.7271818,-0.000125 6.91451515,-0.000125" id="Fill-1" fill="#FFFFFF" mask="url(#mask-2)"></path>
            </g>
        </g>
    </g>
</svg>