<?xml version="1.0" encoding="utf-8"?>
<!-- Generator: Adobe Illustrator 17.0.0, SVG Export Plug-In . SVG Version: 6.00 Build 0)  -->
<!DOCTYPE svg PUBLIC "-//W3C//DTD SVG 1.0//EN" "http://www.w3.org/TR/2001/REC-SVG-20010904/DTD/svg10.dtd">
<svg version="1.0" id="Capa_1" xmlns="http://www.w3.org/2000/svg" xmlns:xlink="http://www.w3.org/1999/xlink" x="0px" y="0px"
	 width="236px" height="282px" viewBox="0 0 236 282" enable-background="new 0 0 236 282" xml:space="preserve">
<g>
	<g>
		<g>
			<path fill="#FFFFFF" d="M42.206,223.622c0.035-0.015,0.067-0.033,0.102-0.049l-0.109,0.04L42.206,223.622z"/>
			<path d="M42.233,225.917c-0.691,0-1.376-0.273-1.819-0.803l-0.007-0.008c-0.484-0.582-0.656-1.363-0.46-2.094
				c0.194-0.73,0.733-1.321,1.443-1.584c1.189-0.441,2.565,0.13,3.032,1.306c0.467,1.178-0.038,2.494-1.205,2.986
				C42.906,225.852,42.569,225.917,42.233,225.917z"/>
		</g>
		<g>
			<path fill="#FFFFFF" d="M41.995,223.687c0.069-0.025,0.143-0.038,0.211-0.065l-0.007-0.009L41.995,223.687z"/>
			<path d="M41.937,226.041c-0.947,0-1.823-0.6-2.167-1.553c-0.317-0.884-0.049-1.841,0.59-2.463
				c0.084-0.082,0.174-0.158,0.27-0.228l0,0l0.001-0.001c0.001,0,0.001,0,0.001,0c0-0.001,0.001-0.001,0.001-0.001
				c0.001-0.001,0.001-0.001,0.001-0.001c0.001,0-0.001,0.001,0.004-0.003l0,0c0.155-0.111,0.327-0.205,0.513-0.277
				c0.001,0,0.001,0,0.001,0c0.001-0.001,0.001-0.001,0.003-0.001c0,0,0.001,0,0.003-0.001l0,0c0.008-0.003,0.015-0.005,0.023-0.008
				c0.003-0.003,0.012-0.004,0.016-0.007l0,0c0.003,0,0.007-0.001,0.009-0.003l0.194-0.072c0.923-0.335,1.959-0.055,2.59,0.699
				c0.472,0.568,0.652,1.332,0.476,2.05c-0.175,0.718-0.677,1.314-1.359,1.6c-0.089,0.038-0.286,0.104-0.389,0.132
				c-0.009,0.003-0.018,0.005-0.027,0.008C42.442,226,42.187,226.041,41.937,226.041z"/>
		</g>
		<g>
			<path fill="#E5E5E5" d="M118,58.031c-45.821,0-82.967,37.145-82.967,82.967c0,16.698,4.951,32.232,13.439,45.248l-12.298,31.958
				l0.041,0.019c-0.119,0.403-0.203,0.821-0.203,1.263c0,2.474,2.005,4.479,4.479,4.479c0.53,0,1.032-0.108,1.504-0.278l0.204-0.074
				l0.109-0.04l30.675-12.899c12.969,8.397,28.417,13.291,45.017,13.291c45.821,0,82.967-37.146,82.967-82.967
				C200.967,95.177,163.821,58.031,118,58.031z"/>
			<path fill="#3F3E3E" d="M117.999,226.037c-16.053,0-31.662-4.503-45.216-13.031l-29.673,12.478
				c-0.027,0.012-0.165,0.063-0.193,0.073l-0.213,0.078c-4.513,1.613-8.765-1.815-8.765-6.149c0-0.453,0.055-0.916,0.17-1.405
				c0.009-0.208,0.051-0.418,0.13-0.622l11.921-30.975c-8.639-13.616-13.2-29.319-13.2-45.485c0-46.892,38.149-85.04,85.039-85.04
				c46.892,0,85.04,38.149,85.04,85.04C203.039,187.889,164.891,226.037,117.999,226.037z M72.982,208.601
				c0.394,0,0.785,0.112,1.127,0.333c13.094,8.477,28.271,12.957,43.89,12.957c44.606,0,80.895-36.289,80.895-80.893
				c0-44.606-36.289-80.895-80.895-80.895c-44.604,0-80.893,36.289-80.893,80.895c0,15.716,4.531,30.971,13.103,44.116
				c0.363,0.557,0.437,1.255,0.198,1.877l-12.146,31.565c-0.013,0.084-0.032,0.169-0.057,0.252
				c-0.081,0.274-0.119,0.488-0.119,0.677c0,1.326,1.08,2.406,2.406,2.406c0.248,0,0.513-0.051,0.806-0.157l0.192-0.069
				l30.69-12.903C72.437,208.655,72.71,208.601,72.982,208.601z"/>
		</g>
		<g>
			<path fill="#FFFFFF" d="M40.542,222.12c-1.503,0-2.684-1.182-2.684-2.634c0-0.099,0.007-0.196,0.02-0.293
				c0.016-0.107,0.069-0.325,0.101-0.428l0.12-0.41c0.016-0.054,0.034-0.108,0.054-0.162l12.378-32.165l-0.514-0.789
				c-8.596-13.179-13.139-28.477-13.139-44.24c0-44.731,36.39-81.123,81.121-81.123c1.144,0,2.073,0.928,2.073,2.073
				c0,1.145-0.928,2.073-2.073,2.073c-42.445,0-76.976,34.532-76.976,76.977c0,14.957,4.31,29.472,12.466,41.976l1.093,1.677
				c0.364,0.557,0.439,1.255,0.2,1.877l-11.619,30.188l29.406-12.368c0.63-0.264,1.355-0.202,1.93,0.171l1.738,1.125
				c0.961,0.622,1.235,1.905,0.613,2.866c-0.623,0.962-1.907,1.233-2.866,0.613l-0.818-0.529l-31.791,13.355
				C41.064,222.061,40.795,222.113,40.542,222.12L40.542,222.12z"/>
		</g>
	</g>
	<g>
		<g>
			<circle fill="#F2CD31" cx="115.654" cy="183.287" r="9.085"/>
			<path fill="#3F3E3E" d="M115.654,194.444c-6.152,0-11.157-5.005-11.157-11.157s5.005-11.157,11.157-11.157
				s11.157,5.005,11.157,11.157S121.806,194.444,115.654,194.444z M115.654,176.276c-3.866,0-7.012,3.146-7.012,7.012
				s3.146,7.012,7.012,7.012s7.012-3.146,7.012-7.012S119.52,176.276,115.654,176.276z"/>
		</g>
		<g>
			<path fill="#FFFFFF" d="M110.487,185.36c-1.144,0-2.073-0.928-2.073-2.073c0-3.992,3.248-7.24,7.24-7.24
				c1.144,0,2.073,0.928,2.073,2.073s-0.928,2.073-2.073,2.073c-1.706,0-3.094,1.389-3.094,3.094
				C112.56,184.432,111.631,185.36,110.487,185.36z"/>
		</g>
		<g>
			<path fill="#F2CD31" d="M118,89.624c-16.48,0-29.886,13.406-29.886,29.886c0,4.71,3.818,8.528,8.528,8.528
				c4.71,0,8.528-3.818,8.528-8.528c0-7.074,5.757-12.831,12.831-12.831c7.074,0,12.831,5.757,12.831,12.831
				c0,4.763-2.603,9.093-6.804,11.333c-10.334,4.758-17.057,15.006-17.362,26.354l0.021,0.001c-0.002,0.078-0.024,0.15-0.024,0.228
				c0,4.473,3.82,8.099,8.531,8.099c4.543,0,8.222-3.381,8.482-7.632l0.024,0.001c0.041-5.023,3.014-9.578,7.609-11.624
				c0.256-0.113,0.503-0.239,0.742-0.374c9.777-5.212,15.837-15.292,15.837-26.384C147.886,103.031,134.48,89.624,118,89.624z"/>
			<path fill="#3F3E3E" d="M115.192,167.597c-5.847,0-10.604-4.562-10.604-10.171c0-0.032,0.001-0.078,0.005-0.128
				c-0.003-0.051-0.003-0.104-0.001-0.157c0.324-12.075,7.612-23.136,18.568-28.18c3.411-1.824,5.597-5.467,5.597-9.451
				c0-5.932-4.827-10.758-10.759-10.758c-5.932,0-10.758,4.826-10.758,10.758c0,5.846-4.755,10.601-10.6,10.601
				c-5.846,0-10.601-4.755-10.601-10.601c0-17.622,14.336-31.959,31.959-31.959s31.96,14.336,31.96,31.959
				c0,11.833-6.489,22.645-16.934,28.214c-0.256,0.144-0.561,0.3-0.876,0.44c-3.839,1.708-6.344,5.535-6.379,9.747
				c-0.001,0.154-0.02,0.305-0.054,0.452C125.215,163.569,120.66,167.597,115.192,167.597z M108.735,157.522
				c0.054,3.279,2.93,5.929,6.457,5.929c3.401,0,6.218-2.498,6.414-5.687c0.004-0.076,0.013-0.15,0.026-0.223
				c0.175-5.7,3.612-10.843,8.832-13.166c0.197-0.088,0.386-0.184,0.571-0.287c9.132-4.87,14.779-14.28,14.779-24.579
				c0-15.336-12.477-27.813-27.815-27.813c-15.336,0-27.813,12.477-27.813,27.813c0,3.56,2.896,6.456,6.456,6.456
				c3.558,0,6.454-2.896,6.454-6.456c0-8.218,6.685-14.903,14.903-14.903s14.905,6.685,14.905,14.903
				c0,5.519-3.027,10.562-7.901,13.162c-9.555,4.403-15.869,13.896-16.258,24.295c0.012,0.099,0.016,0.201,0.012,0.304
				C108.756,157.328,108.745,157.436,108.735,157.522z"/>
		</g>
		<g>
			<path fill="#FFFFFF" d="M110.586,159.676c-0.063,0-0.127-0.003-0.19-0.008c-1.14-0.104-1.98-1.112-1.877-2.252l0.057-1.465
				c0.789-10.241,7.004-19.186,16.224-23.43l0.144-0.074c1.027-0.51,2.268-0.096,2.781,0.927c0.511,1.024,0.097,2.268-0.927,2.781
				l-0.205,0.103c-7.916,3.645-13.211,11.269-13.88,19.926l-0.04,1.227c-0.004,0.12-0.013,0.251-0.024,0.382
				C112.549,158.868,111.645,159.676,110.586,159.676z"/>
		</g>
		<g>
			<path fill="#FFFFFF" d="M96.642,126.194c-3.685,0-6.684-2.998-6.684-6.684c0-15.462,12.579-28.041,28.041-28.041
				c1.144,0,2.073,0.928,2.073,2.073c0,1.144-0.928,2.073-2.073,2.073c-13.176,0-23.896,10.72-23.896,23.896
				c0,1.399,1.139,2.538,2.538,2.538c1.399,0,2.537-1.139,2.537-2.538c0-1.144,0.928-2.073,2.073-2.073s2.073,0.928,2.073,2.073
				C103.324,123.196,100.327,126.194,96.642,126.194z"/>
		</g>
	</g>
</g>
</svg>
