<svg width="24" height="24" viewBox="0 0 24 24" xmlns="http://www.w3.org/2000/svg"><title>promo</title><g fill="#9FA8AD" fill-rule="evenodd"><path d="M14.894 5.038l-7.143.854A2.103 2.103 0 0 0 5.913 7.73l-.854 7.143c-.077.64.144 1.28.6 1.737l9.668 9.667a2.103 2.103 0 0 0 2.974 0l7.997-7.997a2.103 2.103 0 0 0 0-2.974L16.63 5.639a2.103 2.103 0 0 0-1.737-.601zM9.636 8.425a1.25 1.25 0 1 1-2.501 0 1.25 1.25 0 0 1 2.5 0zm9.431 7.533c-1.458 0-2.445 1.143-2.445 2.559v.028c0 1.402.973 2.531 2.417 2.531 1.458 0 2.445-1.158 2.445-2.56v-.028c0-1.4-.973-2.53-2.417-2.53zm-6.639 4.83a.731.731 0 0 1-.73-.731c0-.21.084-.366.167-.49l6.393-8.753a.784.784 0 0 1 .633-.324.73.73 0 0 1 .73.73.765.765 0 0 1-.169.494l-6.39 8.749a.784.784 0 0 1-.634.324zm2.27-8.027v-.03c0-1.4-.973-2.53-2.417-2.53-1.458 0-2.445 1.144-2.445 2.56v.028c0 1.4.972 2.53 2.417 2.53 1.458 0 2.445-1.157 2.445-2.558z"/><path d="M19.982 18.546c0 .643-.314 1.23-.915 1.23-.572 0-.944-.587-.944-1.259v-.028c0-.658.315-1.23.916-1.23.572 0 .943.586.943 1.258v.029zm-8.645-5.786v-.028c0-.658.315-1.23.915-1.23.572 0 .944.586.944 1.259v.028c0 .643-.315 1.23-.915 1.23-.572 0-.944-.587-.944-1.258z"/></g></svg>
