<svg width="72" height="56" viewBox="0 0 72 56" xmlns="http://www.w3.org/2000/svg" xmlns:xlink="http://www.w3.org/1999/xlink"><title>1B543E72-5406-424E-915D-CA31B615C63A</title><defs><path d="M.462.574c-.644.637-.541 1.771.23 2.534l7.1 7.563.997-2.152 2.047-.453L3.024.801c-.43-.426-.978-.646-1.49-.646C1.13.155.747.293.462.574z" id="a"/><path d="M.148 6.29l2.584 2.752c.77.763 2.89-.482 3.533-1.119.645-.637 1.708-2.54.937-3.303L2.306.066.148 6.29z" id="c"/><path id="e" d="M0 26.69v38.935h78.99V.119H0V26.69h13.319V13.516H0V26.69z"/><path id="g" d="M0 46.515v19.11h78.99V.119H0v46.396h13.319V33.341H0v13.174z"/></defs><g fill="none" fill-rule="evenodd"><g transform="translate(35.252 15.988)"><mask id="b" fill="#fff"><use xlink:href="#a"/></mask><path fill="#959595" mask="url(#b)" d="M-1.604 12.296H12.48V-1.469H-1.604z"/></g><path fill="#C6C6C6" d="M57.432 41.981l3.477 3.703 2.058-5.93-3.6-3.349z"/><path d="M58.145 41.832l2.512 2.676 1.588-4.578-2.601-2.42-1.5 4.322zm2.764 4.47a.628.628 0 0 1-.458-.197l-3.476-3.703a.613.613 0 0 1-.134-.621l1.935-5.576a.622.622 0 0 1 .44-.4.63.63 0 0 1 .579.15l3.6 3.348a.614.614 0 0 1 .162.65L61.5 45.886a.623.623 0 0 1-.591.417z" fill="#595958"/><path fill="#C6C6C6" d="M51.084 35.221l3.477 3.703 1.833-5.284-3.6-3.348z"/><path d="M51.796 35.071l2.513 2.676 1.363-3.93-2.601-2.419-1.275 3.673zm2.765 4.47a.628.628 0 0 1-.458-.197l-3.477-3.702a.613.613 0 0 1-.133-.622l1.71-4.928a.622.622 0 0 1 .44-.4.632.632 0 0 1 .579.15l3.6 3.348a.614.614 0 0 1 .162.65l-1.832 5.284a.622.622 0 0 1-.591.418z" fill="#595958"/><path fill="#C6C6C6" d="M44.042 24.508l-.997 2.151 5.168 5.504 1.608-4.636-3.733-3.473z"/><g transform="translate(63.634 42.453)"><mask id="d" fill="#fff"><use xlink:href="#c"/></mask><path fill="#C6C6C6" mask="url(#d)" d="M-1.495 10.907h10.61V-1.56h-10.61z"/></g><path d="M66.813 51.063c.304.274 1.924-.412 2.645-1.124.26-.257.637-.815.856-1.387.188-.488.22-.894.085-1.038l-4.182-3.89-1.723 4.969 2.319 2.47zm.226 1.29c-.422 0-.81-.12-1.115-.422a.679.679 0 0 1-.016-.016l-2.584-2.752a.613.613 0 0 1-.133-.621l2.158-6.224a.622.622 0 0 1 .441-.4.632.632 0 0 1 .578.15l4.896 4.555a.47.47 0 0 1 .014.013c.366.363.7 1.066.204 2.355-.297.772-.787 1.472-1.141 1.822-.442.437-2.022 1.54-3.302 1.54z" fill="#595958"/><path fill="#E2E5E6" d="M48.213 32.163l2.871 3.058 1.71-4.929-2.973-2.765z"/><path d="M48.925 32.013l1.907 2.031 1.24-3.575-1.974-1.836-1.173 3.38zm2.16 3.826a.628.628 0 0 1-.459-.198l-2.871-3.058a.613.613 0 0 1-.133-.62l1.608-4.637a.63.63 0 0 1 1.019-.25l2.973 2.766a.613.613 0 0 1 .163.65l-1.71 4.93a.623.623 0 0 1-.59.417z" fill="#595958"/><path fill="#E2E5E6" d="M54.56 38.924l2.872 3.057 1.935-5.576-2.973-2.765z"/><path d="M55.273 38.774l1.907 2.03 1.465-4.222-1.975-1.836-1.397 4.028zm2.16 3.825a.628.628 0 0 1-.459-.197l-2.87-3.058a.613.613 0 0 1-.134-.62l1.833-5.284a.63.63 0 0 1 1.019-.25l2.973 2.765a.613.613 0 0 1 .163.65l-1.935 5.577a.622.622 0 0 1-.59.417z" fill="#595958"/><path fill="#E2E5E6" d="M60.91 45.684l2.87 3.058 2.16-6.223-2.973-2.766z"/><path d="M61.621 45.535l1.908 2.03 1.689-4.87-1.975-1.836-1.622 4.676zm2.16 3.825a.628.628 0 0 1-.458-.197l-2.872-3.058a.613.613 0 0 1-.133-.621l2.058-5.931a.622.622 0 0 1 .44-.4.632.632 0 0 1 .578.15l2.974 2.766a.613.613 0 0 1 .163.65l-2.16 6.224a.622.622 0 0 1-.59.417z" fill="#595958"/><path d="M66.812 51.063c.305.274 1.925-.412 2.645-1.124.26-.257.637-.816.857-1.387.187-.489.22-.894.084-1.038L37.848 17.24l-.014-.014a1.554 1.554 0 0 0-.943-.46c-.296-.025-.557.057-.735.234-.393.388-.288 1.149.229 1.66l.016.017 30.411 32.386zm.226 1.29c-.421 0-.81-.12-1.115-.422a.679.679 0 0 1-.016-.016l-30.414-32.39c-1.005-1.002-1.105-2.525-.221-3.4.444-.44 1.058-.649 1.73-.59a2.808 2.808 0 0 1 1.708.81l32.553 30.278.014.013c.367.362.7 1.065.205 2.355-.297.772-.787 1.471-1.142 1.822-.442.437-2.022 1.54-3.302 1.54z" fill="#595958"/><path d="M33.524 27.128l-10.59.052a1.735 1.735 0 0 1-1.558-.947 1.696 1.696 0 0 1 .17-1.8l6.4-8.346-3.323-9.946c-.207-.62-.04-1.3.43-1.758a1.745 1.745 0 0 1 1.784-.398l10.001 3.442 8.537-6.2a1.748 1.748 0 0 1 1.823-.14c.585.302.947.905.933 1.556l-.218 10.473 8.598 6.115c.536.38.806 1.029.697 1.672a1.718 1.718 0 0 1-1.207 1.359l-10.138 3.031-3.222 9.978c-.2.621-.74 1.076-1.392 1.173a1.741 1.741 0 0 1-1.678-.717l-6.047-8.599z" fill="#F8D646"/><path d="M33.85 26.508l6.233 8.867a1.112 1.112 0 1 0 1.963-.291l3.322-10.289L55.82 21.67a1.091 1.091 0 0 0 .327-1.937l-8.865-6.305.224-10.797c.01-.42-.219-.801-.596-.995a1.111 1.111 0 0 0-1.165.09l-8.802 6.39L26.631 4.57c-.4-.138-.837-.04-1.14.255a1.08 1.08 0 0 0-.275 1.123l3.426 10.255-6.599 8.604a1.077 1.077 0 0 0-.108 1.15c.189.375.568.606.99.606h.006l10.918-.054zm7.137 10.574a2.347 2.347 0 0 1-1.93-1.002L33.2 27.748l-10.262.05h-.012a2.346 2.346 0 0 1-2.108-1.288 2.294 2.294 0 0 1 .23-2.451l6.202-8.086-3.22-9.638a2.299 2.299 0 0 1 .586-2.393 2.362 2.362 0 0 1 2.427-.54l9.692 3.334L45.005.73a2.363 2.363 0 0 1 2.48-.19 2.312 2.312 0 0 1 1.27 2.117l-.21 10.148 8.33 5.925a2.305 2.305 0 0 1 .95 2.276 2.324 2.324 0 0 1-1.644 1.848L46.36 25.79l-3.123 9.67c-.275.85-1 1.462-1.893 1.595a2.441 2.441 0 0 1-.356.027z" fill="#575756"/><path d="M23.055 25.056a.627.627 0 0 1-.382-.129.613.613 0 0 1-.111-.867l5.875-7.515a.63.63 0 0 1 .877-.11.614.614 0 0 1 .112.866l-5.876 7.516a.626.626 0 0 1-.495.24M37.169 10.219a.63.63 0 0 1-.205-.035L26.436 6.563a.616.616 0 0 1-.385-.787.626.626 0 0 1 .796-.38L37.064 8.91l8.72-6.332a.63.63 0 0 1 .874.132.613.613 0 0 1-.134.864l-8.985 6.524a.628.628 0 0 1-.37.12" fill="#FFF"/><g><path d="M12.881 14.798c0 .84-.688 1.52-1.536 1.52h-9.37c-.85 0-1.537-.68-1.537-1.52V5.529c0-.84.688-1.52 1.536-1.52h9.37c.85 0 1.537.68 1.537 1.52v9.269z" fill="#F1EEE5"/><g transform="translate(0 -9.94)"><mask id="f" fill="#fff"><use xlink:href="#e"/></mask><path d="M1.974 14.382c-.606 0-1.099.488-1.099 1.087v9.269c0 .599.493 1.086 1.1 1.086h9.37c.605 0 1.098-.487 1.098-1.086v-9.269c0-.6-.493-1.087-1.098-1.087h-9.37zm9.37 12.308h-9.37A1.966 1.966 0 0 1 0 24.738v-9.269c0-1.077.886-1.953 1.974-1.953h9.37c1.09 0 1.975.876 1.975 1.953v9.269a1.966 1.966 0 0 1-1.974 1.952z" fill="#565655" mask="url(#f)"/></g><path d="M12.881 34.623c0 .839-.688 1.52-1.536 1.52h-9.37c-.85 0-1.537-.681-1.537-1.52v-9.27c0-.838.688-1.519 1.536-1.519h9.37c.85 0 1.537.68 1.537 1.52v9.269z" fill="#F1EEE5"/><g transform="translate(0 -9.94)"><mask id="h" fill="#fff"><use xlink:href="#g"/></mask><path d="M1.974 34.207c-.606 0-1.099.488-1.099 1.087v9.269c0 .599.493 1.086 1.1 1.086h9.37c.605 0 1.098-.487 1.098-1.086v-9.27c0-.598-.493-1.086-1.098-1.086h-9.37zm9.37 12.308h-9.37A1.966 1.966 0 0 1 0 44.563v-9.27c0-1.076.886-1.952 1.974-1.952h9.37c1.09 0 1.975.876 1.975 1.953v9.269a1.966 1.966 0 0 1-1.974 1.952z" fill="#565655" mask="url(#h)"/></g><path d="M12.881 53.732c0 .84-.688 1.52-1.536 1.52h-9.37c-.85 0-1.537-.68-1.537-1.52v-9.269c0-.839.688-1.52 1.536-1.52h9.37c.85 0 1.537.681 1.537 1.52v9.27z" fill="#F1EEE5"/><g fill="#565655"><path d="M1.974 43.319c-.606 0-1.098.487-1.098 1.086v9.27c0 .598.492 1.086 1.098 1.086h9.37c.607 0 1.1-.488 1.1-1.087v-9.269c0-.599-.493-1.086-1.1-1.086h-9.37zm9.37 12.308h-9.37A1.966 1.966 0 0 1 0 53.674v-9.269c0-1.076.886-1.952 1.974-1.952h9.37c1.09 0 1.975.876 1.975 1.952v9.27a1.966 1.966 0 0 1-1.974 1.952zM1.974 24.176c-.606 0-1.098.487-1.098 1.086v9.27c0 .598.492 1.086 1.098 1.086h9.37c.607 0 1.1-.488 1.1-1.087v-9.269c0-.599-.493-1.086-1.1-1.086h-9.37zm9.37 12.308h-9.37A1.966 1.966 0 0 1 0 34.53v-9.269c0-1.076.886-1.952 1.974-1.952h9.37c1.09 0 1.975.876 1.975 1.952v9.27a1.966 1.966 0 0 1-1.974 1.952zM1.974 4.435c-.606 0-1.098.487-1.098 1.086v9.27c0 .598.492 1.086 1.098 1.086h9.37c.607 0 1.1-.488 1.1-1.087V5.521c0-.599-.493-1.086-1.1-1.086h-9.37zm9.37 12.308h-9.37A1.966 1.966 0 0 1 0 14.79V5.521C0 4.445.886 3.57 1.974 3.57h9.37c1.09 0 1.975.876 1.975 1.952v9.27a1.966 1.966 0 0 1-1.974 1.952z"/></g><path d="M15.365 26.178L7.694 33.75a.807.807 0 0 1-.598.231.807.807 0 0 1-.597-.231L3.114 30.4a.793.793 0 0 1 0-1.129.814.814 0 0 1 1.142 0l2.841 2.81 7.126-7.033a.814.814 0 0 1 1.142 0 .793.793 0 0 1 0 1.13" fill="#38AC33"/></g></g></svg>