<svg width="22" height="36" viewBox="0 0 22 36" xmlns="http://www.w3.org/2000/svg"><title>CEF09737-9B19-4C64-BC0A-8B8876DB50DB</title><g fill="none" fill-rule="evenodd"><path d="M14.896.682a2.425 2.425 0 0 0-1.876 1.083L.854 19.91a2.5 2.5 0 0 0 .643 3.438c.401.277.874.426 1.359.428h4.08L4.58 32.154c-.36 1.317.397 2.681 1.692 3.048.992.28 2.05-.104 2.642-.96l12.167-18.146a2.5 2.5 0 0 0-.644-3.438 2.405 2.405 0 0 0-1.359-.428h-4.08l2.357-8.403c.365-1.315-.387-2.683-1.68-3.054a2.39 2.39 0 0 0-.779-.09" fill="#F8D646"/><path d="M6.937 23.338a.43.43 0 0 1 .345.175c.081.11.107.253.07.385l-2.357 8.377c-.143.52-.077 1.07.186 1.544.263.473.692.814 1.207.96a1.989 1.989 0 0 0 2.173-.79l12.163-18.14a2.06 2.06 0 0 0-.53-2.828 1.97 1.97 0 0 0-1.118-.352h-4.079a.43.43 0 0 1-.344-.175.445.445 0 0 1-.07-.385l2.357-8.402c.3-1.08-.32-2.207-1.383-2.512a1.966 1.966 0 0 0-.638-.075 2.006 2.006 0 0 0-1.541.89L1.21 20.159c-.3.45-.41.991-.31 1.525.1.535.398.997.84 1.303.331.229.718.35 1.118.352h4.079zM6.92 35.731a2.8 2.8 0 0 1-.765-.106c-1.521-.43-2.416-2.04-1.992-3.588l2.2-7.82H2.856a2.824 2.824 0 0 1-1.601-.505 2.899 2.899 0 0 1-1.203-1.864 2.933 2.933 0 0 1 .445-2.184L12.663 1.517A2.871 2.871 0 0 1 14.871.244h.004c.312-.015.619.02.917.106 1.52.437 2.407 2.05 1.978 3.596l-2.2 7.845h3.508a2.823 2.823 0 0 1 1.602.504c1.306.904 1.646 2.72.758 4.048L9.27 34.489a2.862 2.862 0 0 1-2.35 1.242z" fill="#575756"/><path d="M2.856 22.926h-.001a1.567 1.567 0 0 1-.887-.28 1.643 1.643 0 0 1-.422-2.256L13.712 2.244a1.603 1.603 0 0 1 1.232-.712l.07-.001a1.591 1.591 0 0 1 1.392.83c.208.379.259.817.143 1.234a.345.345 0 0 1-.427.243.352.352 0 0 1-.238-.434.926.926 0 0 0-.625-1.136.895.895 0 0 0-.246-.035l-.037.001a.909.909 0 0 0-.693.405L2.117 20.785a.932.932 0 0 0 .24 1.279c.15.103.322.158.5.159.191 0 .345.159.345.353-.001.193-.156.35-.346.35M6.924 34.441a1.59 1.59 0 0 1-1.39-.825 1.636 1.636 0 0 1-.148-1.234l2.551-8.943a.345.345 0 0 1 .428-.24.353.353 0 0 1 .236.436l-2.55 8.94a.923.923 0 0 0 .63 1.13.909.909 0 0 0 .974-.343.342.342 0 0 1 .481-.084.355.355 0 0 1 .083.49 1.575 1.575 0 0 1-1.295.673M19.485 13.837h-4.89a.349.349 0 0 1-.345-.351c0-.195.155-.352.346-.352h4.889c.19 0 .345.157.345.352a.349.349 0 0 1-.345.351" fill="#FFF"/></g></svg>