<?xml version="1.0" encoding="utf-8"?>
<!-- Generator: Adobe Illustrator 17.0.0, SVG Export Plug-In . SVG Version: 6.00 Build 0)  -->
<!DOCTYPE svg PUBLIC "-//W3C//DTD SVG 1.0//EN" "http://www.w3.org/TR/2001/REC-SVG-20010904/DTD/svg10.dtd">
<svg version="1.0" id="Capa_1" xmlns="http://www.w3.org/2000/svg" xmlns:xlink="http://www.w3.org/1999/xlink" x="0px" y="0px"
	 width="236px" height="282px" viewBox="0 0 236 282" enable-background="new 0 0 236 282" xml:space="preserve">
<g>
	<g>
		<circle fill="#D78383" cx="118" cy="141" r="82.245"/>
		<path fill="#3F3E3E" d="M118,226.039c-46.891,0-85.039-38.149-85.039-85.039S71.109,55.961,118,55.961S203.039,94.109,203.039,141
			S164.891,226.039,118,226.039z M118,61.548c-43.809,0-79.452,35.642-79.452,79.452S74.191,220.452,118,220.452
			s79.452-35.642,79.452-79.452S161.809,61.548,118,61.548z"/>
	</g>
	<g>
		<circle fill="#FFFFFF" cx="118" cy="141" r="61.384"/>
		<path fill="#3F3E3E" d="M118,205.178c-35.388,0-64.178-28.79-64.178-64.178S82.612,76.822,118,76.822s64.178,28.79,64.178,64.178
			S153.388,205.178,118,205.178z M118,82.41c-32.306,0-58.59,26.284-58.59,58.59s26.284,58.59,58.59,58.59s58.59-26.284,58.59-58.59
			S150.306,82.41,118,82.41z"/>
	</g>
	<g>
		<g>
			<line fill="#659D83" x1="118" y1="145.004" x2="91.53" y2="120.231"/>
			<path fill="#3F3E3E" d="M118,147.797c-0.684,0-1.37-0.249-1.91-0.753l-26.471-24.772c-1.126-1.055-1.184-2.823-0.131-3.951
				c1.057-1.126,2.823-1.184,3.951-0.131l26.471,24.772c1.126,1.055,1.184,2.823,0.131,3.951
				C119.49,147.501,118.746,147.797,118,147.797z"/>
		</g>
		<g>
			<line fill="#659D83" x1="118" y1="145.004" x2="143.238" y2="105.638"/>
			<path fill="#3F3E3E" d="M117.998,147.797c-0.517,0-1.039-0.142-1.506-0.442c-1.299-0.833-1.677-2.561-0.844-3.86l25.238-39.366
				c0.833-1.299,2.561-1.677,3.86-0.844c1.299,0.833,1.677,2.561,0.844,3.86l-25.238,39.366
				C119.819,147.343,118.917,147.797,117.998,147.797z"/>
		</g>
	</g>
</g>
</svg>
