<svg width="181" height="180" viewBox="0 0 181 180" xmlns="http://www.w3.org/2000/svg"><title>remove_product</title><g fill="none" fill-rule="evenodd"><g stroke-width="1.8" stroke-linecap="round" stroke-linejoin="round"><path stroke="#585857" fill="#EFD896" d="M63.394 56.47l55.656 13.51-11.926 49.129-55.656-13.51z"/><path stroke="#585857" fill="#E9BE64" d="M118.66 69.885l16.792 4.077-11.926 49.129-16.792-4.076z"/><path stroke="#585857" fill="#E4E7E8" d="M83.836 61.431l8.366 2.03-11.925 49.13-8.367-2.03z"/><path stroke="#585857" fill="#E4E7E8" d="M113.7 90.265l-2.032 8.366-55.265-13.415 2.031-8.366z"/><path stroke="#585857" fill="#C4C4C3" d="M113.712 90.266l16.793 4.077-2.031 8.366-16.793-4.076z"/><path d="M65.366 59.806l14.782 3.833m13.962 3.193l20.963 5.293" stroke="#FFF"/></g><g fill="#E9BE64"><path d="M96.86 103.03a2.6 2.6 0 0 0-.858.35 2.643 2.643 0 0 0-1.165 2.77c.115.538.393 1.02.806 1.396l1.73 1.592c.01.01.264.274.67.187l.303-.065a.739.739 0 0 0 .249-.1.717.717 0 0 0 .284-.337l.935-2.168c.223-.507.28-1.06.166-1.602a2.634 2.634 0 0 0-3.12-2.023zm1.658 2.335c.049.232.024.47-.072.69l-.63 1.46-1.169-1.076a1.13 1.13 0 0 1 .526-1.948c.61-.13 1.215.263 1.345.874zm-.293 4.099a.825.825 0 0 0-.64.974.807.807 0 0 0 .974.617.89.89 0 0 0 .284-.114.803.803 0 0 0 .36-.856.801.801 0 0 0-.35-.511.821.821 0 0 0-.628-.11z"/><path d="M101.46 112.94a7.043 7.043 0 0 1-2.306.939 6.995 6.995 0 0 1-5.299-.98 6.992 6.992 0 0 1-3.054-4.44 7.07 7.07 0 0 1 3.115-7.415 7.043 7.043 0 0 1 2.305-.94 6.995 6.995 0 0 1 5.3.981 6.99 6.99 0 0 1 3.054 4.44 7.071 7.071 0 0 1-3.115 7.415zm-6.598-10.403a5.295 5.295 0 0 0-2.333 5.553 5.24 5.24 0 0 0 2.288 3.326 5.24 5.24 0 0 0 3.968.733 5.261 5.261 0 0 0 1.726-.702 5.295 5.295 0 0 0 2.333-5.553 5.24 5.24 0 0 0-2.287-3.326 5.24 5.24 0 0 0-3.968-.734 5.257 5.257 0 0 0-1.727.703z"/></g><path d="M142.288 45.864C152.11 57.251 158.05 72.082 158.05 88.3c0 35.899-29.101 65-65 65-16.948 0-32.382-6.487-43.953-17.113l93.19-90.323zm-7-6.971C123.929 29.17 109.176 23.3 93.05 23.3c-35.899 0-65 29.101-65 65a64.727 64.727 0 0 0 14.297 40.675l92.942-90.082zM93 164c41.421 0 75-33.579 75-75s-33.579-75-75-75-75 33.579-75 75 33.579 75 75 75z" stroke="#595857" stroke-width="1.8" fill="#FC5764"/></g></svg>