<?xml version="1.0" encoding="UTF-8" standalone="no"?>
<svg width="170px" height="170px" viewBox="0 0 170 170" version="1.1" xmlns="http://www.w3.org/2000/svg" xmlns:xlink="http://www.w3.org/1999/xlink">
    <!-- Generator: sketchtool 3.7.2 (28276) - http://www.bohemiancoding.com/sketch -->
    <title>F19EDFF0-43BF-4AA8-85A0-D871DA42BF23</title>
    <desc>Created with sketchtool.</desc>
    <defs></defs>
    <g id="Page-1" stroke="none" stroke-width="1" fill="none" fill-rule="evenodd">
        <g id="Artboard-1" transform="translate(-403.000000, -114.000000)">
            <g id="icons" transform="translate(-36.000000, 91.000000)">
                <g id="Group" transform="translate(439.000000, 23.000000)">
                    <g transform="translate(16.000000, 10.000000)">
                        <g transform="translate(0.000000, 11.000000)">
                            <g>
                                <path d="M0.077,7.314 L0.077,36.278 C0.077,45.387 15.344,52.771 34.176,52.771 C36.861,52.771 39.47,52.616 41.976,52.332 L41.976,7.315 L0.077,7.315 L0.077,7.314 Z" id="Shape" fill="#585857"></path>
                                <path d="M60.304,7.314 L60.304,46.872 C65.277,44.006 68.276,40.312 68.276,36.278 L68.276,7.314 L60.304,7.314 L60.304,7.314 Z" id="Shape" fill="#585857"></path>
                                <rect id="Rectangle-path" fill="#C4C4C3" x="41.977" y="0.108" width="18.327" height="7.205"></rect>
                                <path d="M41.977,7.314 L41.977,52.331 C49.263,51.506 55.65,49.554 60.304,46.871 L60.304,7.313 L41.977,7.313 L41.977,7.314 Z" id="Shape" fill="#585857"></path>
                            </g>
                            <path d="M0.077,7.314 L0.077,36.278 C0.077,45.387 15.344,52.771 34.176,52.771 C53.009,52.771 68.275,45.387 68.275,36.278 L68.275,7.314 L0.077,7.314 L0.077,7.314 Z" id="Shape" stroke="#585857" stroke-width="3.7212"></path>
                        </g>
                        <ellipse id="Oval" stroke="#585857" stroke-width="3.442" fill="#FFFFFF" cx="34.177" cy="17.422" rx="34.099" ry="16.493"></ellipse>
                        <ellipse id="Oval" stroke="#585857" stroke-width="3.442" fill="#DB5863" cx="34.177" cy="14.797" rx="14.152" ry="6.845"></ellipse>
                        <path d="M23.85,14.797 C24.391,13.865 28.018,11.743 34.177,11.743" id="Shape" stroke="#FFFFFF" stroke-width="2.4808"></path>
                        <path d="M3.814,17.907 L3.814,51.129" id="Shape" stroke="#FFFFFF" stroke-width="3.7212"></path>
                    </g>
                    <g transform="translate(81.000000, 25.000000)">
                        <g transform="translate(0.000000, 10.000000)">
                            <g>
                                <path d="M0.202,8.078 L0.202,37.042 C0.202,46.151 15.469,53.535 34.301,53.535 C36.986,53.535 39.595,53.38 42.101,53.096 L42.101,8.079 L0.202,8.079 L0.202,8.078 Z" id="Shape" fill="#585857"></path>
                                <path d="M60.429,8.078 L60.429,47.636 C65.402,44.77 68.401,41.076 68.401,37.042 L68.401,8.078 L60.429,8.078 L60.429,8.078 Z" id="Shape" fill="#585857"></path>
                                <rect id="Rectangle-path" fill="#C4C4C3" x="42.102" y="0.873" width="18.327" height="7.205"></rect>
                                <path d="M42.102,8.078 L42.102,53.095 C49.388,52.27 55.775,50.318 60.429,47.635 L60.429,8.077 L42.102,8.077 L42.102,8.078 Z" id="Shape" fill="#C4C4C3"></path>
                            </g>
                            <path d="M0.202,8.078 L0.202,37.042 C0.202,46.151 15.469,53.535 34.301,53.535 C53.134,53.535 68.4,46.151 68.4,37.042 L68.4,8.078 L0.202,8.078 L0.202,8.078 Z" id="Shape" stroke="#585857" stroke-width="3.7212"></path>
                        </g>
                        <ellipse id="Oval" stroke="#585857" stroke-width="3.442" fill="#FFFFFF" cx="34.302" cy="17.187" rx="34.099" ry="16.493"></ellipse>
                        <ellipse id="Oval" stroke="#585857" stroke-width="3.442" fill="#DB5863" cx="34.302" cy="14.562" rx="14.152" ry="6.845"></ellipse>
                        <path d="M23.975,14.561 C24.516,13.629 28.143,11.507 34.302,11.507" id="Shape" stroke="#FFFFFF" stroke-width="2.4808"></path>
                        <path d="M18.191,23.232 L18.191,59.243" id="Shape" stroke="#FFFFFF" stroke-width="3.7212"></path>
                        <polyline id="Shape" fill="#FFFFFF" points="16.698 28.09 12.802 27.754 16.698 36.649 16.958 28.09"></polyline>
                    </g>
                    <g transform="translate(21.000000, 54.000000)">
                        <g>
                            <path d="M0.891,8.191 L0.891,39.788 C0.891,49.725 17.546,57.78 38.09,57.78 C41.019,57.78 43.865,57.611 46.6,57.301 L46.6,8.191 L0.891,8.191 L0.891,8.191 Z" id="Shape" fill="#585857"></path>
                            <path d="M66.594,8.191 L66.594,51.345 C72.019,48.219 75.291,44.189 75.291,39.788 L75.291,8.191 L66.594,8.191 L66.594,8.191 Z" id="Shape" fill="#585857"></path>
                            <rect id="Rectangle-path" fill="#C4C4C3" x="46.6" y="0.331" width="19.993" height="7.86"></rect>
                            <path d="M46.6,8.191 L46.6,57.301 C54.549,56.401 61.516,54.271 66.593,51.345 L66.593,8.191 L46.6,8.191 L46.6,8.191 Z" id="Shape" fill="#C4C4C3"></path>
                        </g>
                        <path d="M0.891,8.191 L0.891,39.788 C0.891,49.725 17.546,57.78 38.09,57.78 C58.634,57.78 75.289,49.725 75.289,39.788 L75.289,8.191 L0.891,8.191 L0.891,8.191 Z" id="Shape" stroke="#585857" stroke-width="3.7212"></path>
                    </g>
                    <ellipse id="Oval" stroke="#585857" stroke-width="3.442" fill="#FFFFFF" cx="59.091" cy="61.218" rx="37.199" ry="17.992"></ellipse>
                    <ellipse id="Oval" stroke="#585857" stroke-width="3.442" fill="#DB5863" cx="59.091" cy="58.355" rx="15.439" ry="7.467"></ellipse>
                    <path d="M47.825,58.354 C48.415,57.337 52.372,55.023 59.091,55.023" id="Shape" stroke="#FFFFFF" stroke-width="2.4808"></path>
                    <path d="M26.051,60.854 L26.051,97.567" id="Shape" stroke="#FFFFFF" stroke-width="3.7212"></path>
                    <g transform="translate(10.000000, 107.000000)" id="Shape">
                        <path d="M6.933,55.088 C5.061,55.088 3.422,53.888 2.856,52.102 C2.511,51.013 2.611,49.856 3.137,48.842 C3.663,47.826 4.554,47.078 5.644,46.734 L144.551,2.632 C144.973,2.498 145.409,2.431 145.848,2.431 C147.721,2.431 149.357,3.63 149.921,5.415 C150.267,6.505 150.168,7.666 149.641,8.681 C149.115,9.695 148.224,10.442 147.134,10.786 L8.228,54.888 C7.806,55.02 7.371,55.088 6.933,55.088 L6.933,55.088 Z" fill="#F7EF99"></path>
                        <path d="M145.849,4.152 C146.933,4.152 147.937,4.846 148.281,5.933 C148.71,7.283 147.967,8.719 146.617,9.144 L7.708,53.247 C7.451,53.328 7.19,53.367 6.934,53.367 C5.849,53.367 4.843,52.673 4.498,51.582 C4.072,50.239 4.816,48.8 6.163,48.375 L145.073,4.273 C145.331,4.191 145.592,4.152 145.849,4.152 L145.849,4.152 Z M145.849,0.71 C145.233,0.71 144.621,0.805 144.031,0.992 L5.121,45.094 C3.597,45.576 2.348,46.626 1.61,48.05 C0.873,49.472 0.733,51.096 1.217,52.622 C2.01,55.127 4.308,56.809 6.935,56.809 C7.549,56.809 8.158,56.715 8.746,56.529 L147.659,12.425 C149.181,11.945 150.431,10.897 151.169,9.476 C151.909,8.052 152.048,6.424 151.562,4.892 C150.771,2.392 148.475,0.71 145.849,0.71 L145.849,0.71 L145.849,0.71 Z" fill="#585857"></path>
                    </g>
                    <g transform="translate(11.000000, 84.000000)" id="Shape">
                        <path d="M6.875,78.384 C5.271,78.384 3.816,77.5 3.078,76.077 C2.552,75.063 2.453,73.905 2.797,72.816 C3.142,71.726 3.891,70.836 4.906,70.31 L134.228,3.108 C134.836,2.793 135.518,2.625 136.2,2.625 C137.803,2.625 139.257,3.509 139.994,4.932 C140.522,5.949 140.623,7.11 140.276,8.201 C139.93,9.289 139.181,10.178 138.165,10.702 L8.846,77.903 C8.237,78.218 7.556,78.384 6.875,78.384 L6.875,78.384 Z" fill="#F7EF99"></path>
                        <path d="M136.201,4.347 C137.124,4.347 138.013,4.849 138.467,5.724 C139.12,6.981 138.634,8.523 137.377,9.172 L8.054,76.376 C7.677,76.571 7.274,76.664 6.876,76.664 C5.952,76.664 5.061,76.163 4.606,75.284 C3.957,74.033 4.444,72.489 5.698,71.839 L135.022,4.636 C135.4,4.44 135.803,4.347 136.201,4.347 L136.201,4.347 Z M136.201,0.905 C135.244,0.905 134.287,1.139 133.435,1.582 L4.11,68.785 C2.691,69.52 1.64,70.768 1.156,72.297 C0.673,73.824 0.813,75.448 1.55,76.869 C2.586,78.865 4.626,80.105 6.876,80.105 C7.831,80.105 8.786,79.872 9.636,79.431 L138.963,12.225 C140.381,11.492 141.432,10.246 141.917,8.719 C142.402,7.19 142.262,5.562 141.521,4.136 C140.489,2.144 138.45,0.905 136.201,0.905 L136.201,0.905 L136.201,0.905 Z" fill="#585857"></path>
                    </g>
                    <g id="Oval" fill="#585857">
                        <circle cx="33.747" cy="44.64" r="3.563"></circle>
                    </g>
                </g>
            </g>
        </g>
    </g>
</svg>