<?xml version="1.0" encoding="utf-8"?>
<!-- Generator: Adobe Illustrator 17.0.0, SVG Export Plug-In . SVG Version: 6.00 Build 0)  -->
<!DOCTYPE svg PUBLIC "-//W3C//DTD SVG 1.0//EN" "http://www.w3.org/TR/2001/REC-SVG-20010904/DTD/svg10.dtd">
<svg version="1.0" id="Capa_1" xmlns="http://www.w3.org/2000/svg" xmlns:xlink="http://www.w3.org/1999/xlink" x="0px" y="0px"
	 width="236px" height="282px" viewBox="0 0 236 282" enable-background="new 0 0 236 282" xml:space="preserve">
<g>
	<g>
		<path fill="#902221" d="M105.228,127.245c-13.477-13.477-38.682-10.123-56.295,7.491l24.402,24.402L105.228,127.245z"/>
	</g>
	<g>
		<path fill="#3F3E3E" d="M73.333,161.669c-0.646,0-1.297-0.247-1.791-0.74L47.14,136.526c-0.474-0.474-0.74-1.12-0.74-1.791
			c0-0.671,0.266-1.317,0.74-1.791c10.487-10.487,23.875-16.5,36.725-16.5c9.254,0,17.26,3.118,23.154,9.007
			c0.987,0.991,0.987,2.59,0,3.581l-31.895,31.895C74.63,161.422,73.979,161.669,73.333,161.669z M52.546,134.775l20.787,20.782
			l28.225-28.22c-4.711-3.823-10.773-5.831-17.694-5.831C73.066,121.506,61.78,126.316,52.546,134.775z"/>
	</g>
	<g>
		<path fill="#902221" d="M132.323,154.341c13.477,13.477,10.123,38.682-7.491,56.3l-24.402-24.407L132.323,154.341z"/>
	</g>
	<g>
		<path fill="#3F3E3E" d="M124.831,213.172c-0.671,0-1.317-0.266-1.791-0.74l-24.402-24.407c-0.987-0.991-0.987-2.59,0-3.581
			l31.895-31.895c0.987-0.987,2.595-0.987,3.581,0c14.438,14.443,11.079,41.307-7.493,59.884
			C126.148,212.906,125.502,213.172,124.831,213.172z M104.005,186.234l20.787,20.787c14.315-15.647,17.462-36.646,7.439-49.012
			L104.005,186.234z"/>
	</g>
	<g>
		<path fill="#FFED00" d="M72.265,212.746c9.628-9.628,12.795-23.261,9.521-35.535c-12.274-3.273-25.907-0.106-35.535,9.521
			c-9.628,9.628-12.795,23.261-9.521,35.535C49.005,225.541,62.638,222.374,72.265,212.746"/>
	</g>
	<g>
		<path fill="#3F3E3E" d="M46.257,226.046L46.257,226.046c-3.438,0-6.861-0.449-10.176-1.332c-0.878-0.237-1.559-0.917-1.796-1.796
			c-3.611-13.536,0.286-28.087,10.176-37.977c7.424-7.419,17.294-11.508,27.791-11.508c3.443,0,6.871,0.449,10.186,1.332
			c0.878,0.237,1.559,0.918,1.796,1.796c3.606,13.536-0.291,28.087-10.176,37.977C66.634,221.957,56.759,226.046,46.257,226.046z
			 M38.823,220.172c11.35,2.501,23.421-0.982,31.654-9.214c8.262-8.262,11.725-20.274,9.214-31.654
			c-11.331-2.496-23.411,0.982-31.649,9.219C39.775,196.785,36.312,208.797,38.823,220.172z"/>
	</g>
	<g>
		<path fill="#DADADA" d="M103.354,201.014l84.562-84.562l-45.37-45.37l-84.562,84.562c-0.803,0.803-1.52,1.662-2.192,2.541
			l45.021,45.016C101.692,202.529,102.551,201.817,103.354,201.014"/>
	</g>
	<g>
		<path fill="#3F3E3E" d="M100.813,205.733c-0.651,0-1.297-0.252-1.791-0.74l-45.021-45.017c-0.898-0.898-0.991-2.318-0.222-3.325
			c0.74-0.967,1.529-1.909,2.407-2.792l84.568-84.568c0.987-0.987,2.595-0.987,3.581,0l45.372,45.367
			c0.474,0.474,0.74,1.12,0.74,1.791s-0.266,1.317-0.74,1.791l-84.563,84.563c-0.883,0.883-1.825,1.662-2.787,2.407
			C101.899,205.561,101.356,205.733,100.813,205.733z M59.21,158.023l41.766,41.761c0.197-0.183,0.395-0.37,0.587-0.562
			l82.772-82.772l-41.791-41.786l-82.772,82.772C59.58,157.629,59.393,157.826,59.21,158.023z"/>
	</g>
	<g>
		<path fill="#B53737" d="M107.512,209.903c-3.591,3.591-9.415,3.591-13.012,0l-45.405-45.41c-3.596-3.591-3.596-9.415,0-13.007
			c3.591-3.596,9.415-3.596,13.007,0l45.41,45.405C111.104,200.488,111.104,206.312,107.512,209.903"/>
	</g>
	<g>
		<path fill="#3F3E3E" d="M101.006,215.125c-3.132,0-6.077-1.218-8.297-3.433l-45.406-45.406c-2.215-2.215-3.438-5.16-3.438-8.292
			c0-3.137,1.223-6.082,3.438-8.297c4.44-4.43,12.159-4.43,16.589,0l45.411,45.406c4.568,4.578,4.568,12.016,0,16.589
			C107.088,213.907,104.143,215.125,101.006,215.125z M55.599,151.32c-1.781,0-3.458,0.696-4.716,1.958
			c-1.263,1.258-1.958,2.935-1.958,4.716c0,1.776,0.696,3.453,1.958,4.711l45.406,45.406c2.516,2.516,6.916,2.511,9.431,0
			c2.6-2.595,2.6-6.827,0-9.427L60.31,153.278C59.052,152.015,57.38,151.32,55.599,151.32z"/>
	</g>
	<g>
		<path fill="#B53737" d="M200.335,74.363l-0.061,0.01c-0.162-3.955-1.738-7.865-4.763-10.89c-2.945-2.95-6.738-4.516-10.597-4.748
			l0.01-0.045c-14.815-1.177-29.969,2.94-42.379,12.391l45.37,45.37C197.309,104.124,201.436,89.087,200.335,74.363"/>
	</g>
	<g>
		<path fill="#3F3E3E" d="M187.912,118.98c-0.671,0-1.312-0.266-1.791-0.74l-45.367-45.372c-0.513-0.518-0.784-1.233-0.735-1.963
			c0.049-0.725,0.409-1.396,0.991-1.84c12.613-9.604,28.171-14.187,44.114-12.899c0.163,0.01,0.326,0.039,0.483,0.084
			c4.435,0.395,8.573,2.313,11.696,5.446c3.216,3.216,5.145,7.463,5.466,12.001c0.044,0.153,0.074,0.316,0.089,0.478
			c1.179,15.76-3.413,31.318-12.934,43.808c-0.444,0.582-1.115,0.942-1.845,0.991C188.025,118.98,187.966,118.98,187.912,118.98z
			 M146.432,71.389l41.169,41.174c7.518-10.936,11.133-24.121,10.245-37.494c-0.059-0.192-0.094-0.39-0.104-0.592
			c-0.143-3.483-1.569-6.753-4.02-9.21c-2.378-2.378-5.559-3.798-8.963-4.005c-0.183-0.01-0.36-0.039-0.533-0.089
			C170.721,60.216,157.452,63.802,146.432,71.389z"/>
	</g>
	<g>
		<path fill="#A1D0ED" d="M148.476,130.232c-5.445,5.445-14.27,5.445-19.71,0c-5.445-5.445-5.445-14.27,0-19.71
			c5.44-5.445,14.264-5.445,19.71,0C153.921,115.963,153.921,124.787,148.476,130.232"/>
	</g>
	<g>
		<path fill="#3F3E3E" d="M138.623,136.847c-4.4,0-8.539-1.712-11.646-4.824c-3.113-3.113-4.824-7.251-4.824-11.646
			c0-4.4,1.712-8.539,4.824-11.646c6.22-6.215,17.058-6.22,23.288,0c3.113,3.108,4.824,7.246,4.824,11.646
			c0,4.395-1.712,8.534-4.824,11.646C147.157,135.135,143.018,136.847,138.623,136.847z M138.623,108.972
			c-3.048,0-5.914,1.184-8.065,3.339c-2.156,2.151-3.344,5.017-3.344,8.065c0,3.044,1.189,5.909,3.344,8.065
			c4.301,4.306,11.824,4.316,16.125,0c2.156-2.156,3.344-5.022,3.344-8.065c0-3.048-1.189-5.914-3.344-8.065
			C144.533,110.156,141.667,108.972,138.623,108.972z"/>
	</g>
</g>
</svg>
