<svg width="220" height="167" viewBox="0 0 220 167" xmlns="http://www.w3.org/2000/svg"><title>7270BDED-292F-4C80-B55D-0AC5F6AB7187</title><g fill="none" fill-rule="evenodd"><path d="M99.857 125.971c-12.14 16.501-35.442 20.05-51.943 7.91l8.289-11.269c10.288 7.57 24.817 5.357 32.386-4.931l11.268 8.29z" stroke="#575756" stroke-width="2" fill="#F9D746"/><path d="M57.115 127.459c9.125 4.984 20.255 4.135 28.487-1.8" stroke="#FFF" stroke-width="1.8" stroke-linecap="round"/><path d="M94.08 119.759c-18.893 7.92-40.708-1.009-48.626-19.902l12.9-5.407c4.939 11.78 18.54 17.346 30.319 12.409l5.407 12.9z" stroke="#575756" stroke-width="2" fill="#F9D746"/><path d="M56.646 99.074c5.268 8.964 15.252 13.955 25.363 13.093" stroke="#FFF" stroke-width="1.8" stroke-linecap="round"/><g transform="translate(47.052 25.434)"><path d="M2.847 13.457v1.274a2.301 2.301 0 0 0 2.294 2.294h29.082a2.301 2.301 0 0 0 2.294-2.294v-2.723H3.215l-.368 1.449z" stroke="#585857" stroke-width="1.8" fill="#84603B"/><path d="M27.78.922H12.21c-4.696 0-8.785 3.296-10.788 8.08-.649 1.55.28 3.387 1.71 3.387h33.724c1.43 0 2.359-1.838 1.71-3.387C36.565 4.22 32.475.922 27.78.922z" stroke="#585857" stroke-width="1.8" fill="#EFD896"/><ellipse fill="#585857" cx="11.287" cy="4.434" rx=".698" ry=".654"/><ellipse fill="#585857" cx="14.64" cy="7.701" rx=".698" ry=".654"/><ellipse fill="#585857" cx="20.477" cy="5.74" rx=".698" ry=".654"/><ellipse fill="#585857" cx="25.737" cy="9.573" rx=".698" ry=".654"/><ellipse fill="#585857" cx="29.177" cy="8.045" rx=".698" ry=".654"/><ellipse fill="#585857" cx="30.734" cy="4.634" rx=".698" ry=".654"/><ellipse fill="#585857" cx="34.755" cy="8.355" rx=".698" ry=".654"/><ellipse fill="#585857" cx="7.111" cy="8.698" rx=".698" ry=".654"/><ellipse fill="#585857" cx="24.667" cy="3.328" rx=".698" ry=".654"/><g stroke="#585857" stroke-width="1.8"><path d="M35.145 26.666H4.184a2.88 2.88 0 0 1-2.872-2.872 2.88 2.88 0 0 1 2.872-2.871h30.961a2.88 2.88 0 0 1 2.872 2.871 2.88 2.88 0 0 1-2.872 2.872z" fill="#EFD896"/><path d="M36.388 20.924H2.976a2.012 2.012 0 0 1-2.007-2.007c0-1.103.903-2.006 2.007-2.006h33.412c1.104 0 2.006.903 2.006 2.006a2.012 2.012 0 0 1-2.006 2.007z" fill="#C62F51"/></g></g><path d="M72.33 74.308a.721.721 0 0 1-.72.72h-9.368a.721.721 0 0 1-.72-.72v-7.73a.72.72 0 0 1 .72-.72h9.367c.398 0 .721.323.721.72v7.73zm88.363-.578c0 .717-.323 1.299-.721 1.299h-9.367c-.398 0-.721-.582-.721-1.3V59.797c0-.718.323-1.3.72-1.3h9.368c.398 0 .72.582.72 1.3v13.932z" stroke="#575756" stroke-width="2" fill="#459B82"/><g stroke-width="1.8"><path d="M97.085 107.595c-20.486 0-37.152-16.666-37.152-37.152H73.92c0 12.773 10.391 23.164 23.164 23.164v13.988z" stroke="#575756" fill="#F9D746"/><path d="M70.558 74.048c1.393 10.305 8.673 18.767 18.33 21.88" stroke="#FFF" stroke-linecap="round"/></g><path d="M122.34 125.971c12.138 16.501 35.44 20.05 51.942 7.91l-8.289-11.269c-10.288 7.57-24.817 5.357-32.386-4.931l-11.268 8.29z" stroke="#575756" stroke-width="2" fill="#F9D746"/><path d="M165.081 127.459c-9.125 4.984-20.255 4.135-28.486-1.8" stroke="#FFF" stroke-width="1.8" stroke-linecap="round"/><path d="M127.892 116.142c18.01 9.764 40.605 3.057 50.369-14.952l-12.297-6.668c-6.088 11.23-20.176 15.41-31.404 9.323l-6.668 12.297z" stroke="#575756" stroke-width="2" fill="#F9D746"/><path d="M167.204 99.294c-6.136 8.394-16.569 12.364-26.544 10.497" stroke="#FFF" stroke-width="1.8" stroke-linecap="round"/><path d="M125.111 107.595c20.486 0 37.152-16.666 37.152-37.152h-13.988c0 12.773-10.391 23.164-23.164 23.164v13.988z" stroke="#575756" stroke-width="2" fill="#F9D746"/><path d="M151.638 74.048c-1.393 10.305-8.672 18.767-18.33 21.88" stroke="#FFF" stroke-width="1.8" stroke-linecap="round"/><path d="M110.768 88.368h-.044c-12.06 0-21.835 9.775-21.835 21.834v25.811a7.959 7.959 0 0 0 7.96 7.96h27.794a7.959 7.959 0 0 0 7.96-7.96v-25.81c0-12.06-9.776-21.835-21.835-21.835z" stroke="#575756" stroke-width="2" fill="#F9D746"/><path d="M110.427 143.973V88.384" stroke="#575756" stroke-width="2"/><path d="M110.738 55.11h-.037c-9.955 0-18.024 8.07-18.024 18.024v12.908a6.571 6.571 0 0 0 6.571 6.57h22.944a6.57 6.57 0 0 0 6.57-6.57V73.134c-.001-9.953-8.07-18.023-18.024-18.023z" stroke="#575756" stroke-width="1.8" fill="#6FC1AC"/><path d="M99.07 64.248c2.627-3.567 6.857-5.887 11.617-5.887 4.833 0 9.11 2.37 11.735 6.002" stroke="#FFF" stroke-width="1.8" stroke-linecap="round"/><path d="M103.099 67.75a5.865 5.865 0 0 0-5.865 5.865 5.82 5.82 0 0 0 1.526 3.914l9.779-9.78h-5.44zm18.238.82l-10.91 10.91h7.965a5.865 5.865 0 0 0 5.865-5.865c.001-2.16-1.18-4.028-2.92-5.045z" fill="#C8EAFD"/><path d="M118.393 67.75h-9.853l-9.78 9.779c1.074 1.189 2.612 1.95 4.34 1.95h7.329l10.91-10.91a5.82 5.82 0 0 0-2.946-.82z" fill="#ADE3FD"/><path d="M124.258 73.615a5.865 5.865 0 0 1-5.865 5.865H103.1a5.865 5.865 0 0 1 0-11.73h15.293a5.865 5.865 0 0 1 5.865 5.865z" stroke="#575756" stroke-width="1.8"/><path d="M119.065 52.775l1.166-5.3m4.508 8.289l4.504-5.197m0 10.582l4.61-.429m-14.696 66.342l7.85 7.848m-24.977-7.848l-7.85 7.848" stroke="#575756" stroke-width="1.8" stroke-linecap="round" stroke-linejoin="round"/><g stroke="#585857"><path d="M70.638 66.33c5.492-.574 8.706-5.29 8.706-10.933h-4.422c0 3.29-2.208 6.333-5.626 6.443h-5.774c-3.172-.433-5.626-3.153-5.626-6.443h-5.694c0 5.715 5.682 10.411 11.276 10.885l7.16.047z" stroke-width="2" fill="#E9BE64"/><path d="M87.931 54.01a2.134 2.134 0 0 1-2.134 2.135H47.122a2.134 2.134 0 0 1 0-4.268h38.675c1.18 0 2.134.955 2.134 2.134z" stroke-width="1.8" fill="#C4C4C3"/></g><g stroke="#585857" stroke-width="1.8"><path d="M66.55 159.869a4.994 4.994 0 0 1-5.087 4.9l-18.751-.354a4.994 4.994 0 0 1-4.9-5.088l1.751-22.752c.052-2.758 2.306-3.63 5.064-3.578l16.108.304c2.759.052 4.978 1.008 4.925 3.767l.89 22.8z" fill="#F4E2AD"/><path d="M67.067 132.538a2.62 2.62 0 0 1-2.668 2.569l-23.503-.444a2.62 2.62 0 0 1 .1-5.237l23.502.444a2.62 2.62 0 0 1 2.569 2.668z" fill="#EFD896"/></g><g stroke="#585857"><path d="M59.687 122.179l-13.596-.257a3.4 3.4 0 0 0-3.463 3.334l-.16 8.463a3.4 3.4 0 1 0 6.797.129 3.4 3.4 0 1 0 6.797.128 3.4 3.4 0 1 0 6.797.129l.16-8.463a3.394 3.394 0 0 0-3.332-3.463z" stroke-width="1.8" fill="#E9BE64"/><path d="M49.266 133.848l.11-5.827m6.688 5.955l.111-5.827" stroke-width="2" stroke-linecap="round" stroke-linejoin="round"/></g><path d="M52.524 141.42a4.95 4.95 0 0 0-5.036 4.85 4.921 4.921 0 0 0 .878 2.899l.128.184 2.504 3.68s.304.52.988.532l.197.004.262.005.155.003c.686.012 1.008-.495 1.008-.495l2.642-3.582.134-.18a4.898 4.898 0 0 0 .986-2.864 4.946 4.946 0 0 0-4.846-5.035m1.914 6.44l-.141.19-1.947 2.64-1.843-2.707-.136-.197a2.485 2.485 0 0 1-.448-1.472 2.51 2.51 0 0 1 2.555-2.46 2.511 2.511 0 0 1 2.461 2.556 2.49 2.49 0 0 1-.501 1.45m-3.584 8.392v-.01c.014-.737.612-1.339 1.404-1.324.793.016 1.364.629 1.35 1.367v.01c-.014.732-.613 1.332-1.41 1.317-.787-.015-1.358-.627-1.344-1.36" fill="#585857"/><path d="M99.904 95.929c-8.053 5.64-7.63 16.827-7.63 16.827v14.73" stroke="#FFF" stroke-width="1.8" stroke-linecap="round"/><g transform="translate(156.416 71.214)"><path d="M2.32 12.747a1.664 1.664 0 0 1-.07-2.134 1.664 1.664 0 0 1-.62-3.207 1.665 1.665 0 0 1 1.067-3.088 1.664 1.664 0 0 1 2.467-2.14 1.664 1.664 0 0 1 3.207-.62 1.665 1.665 0 0 1 3.088 1.067 1.664 1.664 0 0 1 2.14 2.467 1.664 1.664 0 0 1 .62 3.207 1.665 1.665 0 0 1-1.067 3.088 1.664 1.664 0 0 1-2.467 2.14 1.664 1.664 0 0 1-3.207.62A1.665 1.665 0 0 1 4.39 13.08a1.665 1.665 0 0 1-2.07-.333z" stroke="#575756" stroke-width="2" fill="#6FC1AC"/><ellipse stroke="#585857" fill="#FFF" cx="7.925" cy="7.851" rx="1.816" ry="1.816"/></g><path stroke="#575756" stroke-width="2" fill="#EFD896" d="M179.51 80.196l-4.26-.1-5.947 5.321-8.85 8.274 31.841 17.408z"/><path d="M177.63 103.619c.1.112.271.12.383.021l6.33-12.724c.111-.1.12-.27.02-.383l-1.636-3.262a.271.271 0 0 0-.383-.021l-7.435 14.356c-.112.1-.12.27-.022.382l2.743 1.63z" stroke="#585857" stroke-width="1.8" fill="#FFF"/><path d="M167.359 86.485l3.324-3.21" stroke="#585857" fill="#EED453"/><g transform="translate(153.873 80.116)" stroke="#585857"><path d="M1.9 13.411a1.789 1.789 0 0 1-.075-2.294 1.788 1.788 0 0 1-.666-3.448 1.792 1.792 0 0 1-.803-2.107 1.791 1.791 0 0 1 1.95-1.213 1.789 1.789 0 0 1 2.653-2.302 1.788 1.788 0 0 1 3.448-.666 1.792 1.792 0 0 1 2.106-.802 1.791 1.791 0 0 1 1.213 1.95 1.789 1.789 0 0 1 2.302 2.653 1.788 1.788 0 0 1 .666 3.448 1.792 1.792 0 0 1 .803 2.105 1.791 1.791 0 0 1-1.95 1.214 1.789 1.789 0 0 1-2.653 2.302 1.788 1.788 0 0 1-3.448.666 1.792 1.792 0 0 1-2.106.802 1.791 1.791 0 0 1-1.213-1.95 1.793 1.793 0 0 1-2.227-.358z" stroke-width="2" fill="#DE9EA9"/><ellipse fill="#FFF" cx="7.925" cy="8.148" rx="1.953" ry="1.953"/></g><g transform="translate(165.318 72.486)" stroke="#585857"><path d="M2.353 13.153a1.789 1.789 0 0 1-.075-2.294 1.788 1.788 0 0 1-.666-3.448 1.792 1.792 0 0 1-.803-2.107 1.791 1.791 0 0 1 1.95-1.213 1.789 1.789 0 0 1 2.653-2.302 1.788 1.788 0 0 1 3.448-.666A1.792 1.792 0 0 1 10.964.32a1.791 1.791 0 0 1 1.213 1.95 1.789 1.789 0 0 1 2.302 2.653 1.788 1.788 0 0 1 .666 3.448 1.792 1.792 0 0 1 .802 2.106A1.791 1.791 0 0 1 14 11.691a1.789 1.789 0 0 1-2.653 2.302 1.788 1.788 0 0 1-3.448.666 1.792 1.792 0 0 1-2.106.802 1.791 1.791 0 0 1-1.213-1.95 1.793 1.793 0 0 1-2.226-.358z" stroke-width="2" fill="#EBC8CE"/><circle fill="#FFF" cx="8.379" cy="7.889" r="1.953"/></g><path d="M187.9 90.517a2.789 2.789 0 0 1-.889 3.843l-1.983 1.24a2.789 2.789 0 1 1-2.955-4.73l1.983-1.241a2.788 2.788 0 0 1 3.843.888z" stroke="#585857" stroke-width="2" fill="#E9BE64"/><path d="M185.418 85.522a2.789 2.789 0 0 1-.888 3.843l-1.983 1.24a2.789 2.789 0 1 1-2.955-4.73l1.983-1.241a2.79 2.79 0 0 1 3.843.888zm5.005 9.92a2.789 2.789 0 0 1-.887 3.843l-1.984 1.24a2.789 2.789 0 1 1-2.955-4.73l1.983-1.24a2.789 2.789 0 0 1 3.843.887z" stroke="#585857" stroke-width="2" fill="#E9BE64"/><path d="M158.077 25.301a4.221 4.221 0 0 0-4.181 4.262 4.206 4.206 0 0 0-4.232-3.858 4.221 4.221 0 0 0-4.096 3.387c-.256-2.067-2.007-3.662-4.138-3.642a4.152 4.152 0 0 0-4.111 4.19l.066 12.816c.001.161-.102 1.678-.102 2.297 0 5.312 3.388 9.829 8.12 11.517v9.752h19.134V53.447c3.832-2.063 6.438-6.107 6.438-10.764 0-.157-.01-.312-.017-.468.017 0 .017-.838.017-4.025 0-.306-.034-.581-.085-.841l-.065-25.607a4.152 4.152 0 0 0-8.302.078l-.184 17.663a4.221 4.221 0 0 0-4.262-4.182z" stroke="#585857" stroke-width="1.8" stroke-linecap="round" stroke-linejoin="round" fill="#CC5765"/><text fill="#FFF" font-family="AvenirNext-DemiBold, Avenir Next" font-size="14" font-weight="500"><tspan x="145.686" y="44.473">#1</tspan></text><path stroke="#575756" stroke-width="1.8" stroke-linecap="round" stroke-linejoin="round" fill="#23CCC8" d="M155.347 138.725l12.254 6.38 12.97-20.642-16.192-8.431z"/><path d="M180.67 127.35c-.434 0-.866-.106-1.25-.308l-16.363-8.518a2.694 2.694 0 0 1-1.334-1.59 2.685 2.685 0 0 1 .182-2.067 2.704 2.704 0 0 1 2.406-1.459c.432 0 .864.106 1.25.307l16.362 8.519a2.688 2.688 0 0 1 1.334 1.59 2.68 2.68 0 0 1-.181 2.067 2.708 2.708 0 0 1-2.406 1.458z" fill="#FFF"/><path d="M164.308 114.678c.224 0 .452.053.664.163l16.363 8.52a1.439 1.439 0 1 1-1.33 2.553l-16.363-8.52a1.439 1.439 0 0 1 .666-2.716zm0-2.543a3.972 3.972 0 0 0-3.534 2.144 3.956 3.956 0 0 0-.266 3.037 3.957 3.957 0 0 0 1.96 2.335l16.363 8.519a3.99 3.99 0 0 0 1.837.45 3.972 3.972 0 0 0 3.534-2.144 3.987 3.987 0 0 0-1.694-5.372l-16.362-8.519a4 4 0 0 0-1.838-.45z" fill="#585857"/><path stroke="#585857" stroke-width="1.8" fill="#FFF" d="M168.899 111.27l6.49 3.378 6.493 3.38-.621 4.22-7.732-4.025-7.73-4.026z"/><path d="M176.708 135.196a2.947 2.947 0 1 0 2.932-5.112l-5.133-2.946a2.947 2.947 0 1 0-2.932 5.112l5.133 2.946zm-12.776-8.056a2.946 2.946 0 0 0-1.56-3.864 2.946 2.946 0 0 0-3.864 1.56l-2.316 5.446a2.946 2.946 0 0 0 1.56 3.865 2.946 2.946 0 0 0 3.864-1.56l2.316-5.446z" stroke="#585857" stroke-width="1.8" fill="#E9BE64"/><path d="M173.775 140.308a2.947 2.947 0 1 0 2.932-5.112l-5.134-2.945a2.947 2.947 0 1 0-2.932 5.112l5.134 2.945z" stroke="#585857" stroke-width="1.8" fill="#E9BE64"/><path d="M170.842 145.42a2.947 2.947 0 1 0 2.932-5.112l-5.133-2.945a2.947 2.947 0 1 0-2.932 5.112l5.133 2.945z" stroke="#585857" stroke-width="1.8" fill="#E9BE64"/><path d="M165.318 31.993V10.915m-25.434 17.91v20.029" stroke="#FFF" stroke-width="1.8" stroke-linecap="round"/><path d="M147.514 62.1v-5.298" stroke="#FFF" stroke-width="1.8" stroke-linecap="round" stroke-linejoin="round"/><path d="M113.224 116.807c0 .562-.456 1.018-1.018 1.018h-3.558a1.017 1.017 0 0 1-1.017-1.018l.722-5.562c0-.562.455-1.017 1.018-1.017h2.114c.562 0 1.018.455 1.018 1.017l.72 5.562z" fill="#575756"/><path d="M111.516 114.181a.395.395 0 0 1-.396.396h-1.385a.395.395 0 0 1-.395-.396l.281-2.164c0-.219.177-.396.396-.396h.822c.219 0 .396.177.396.396l.28 2.164z" fill="#6FC1AC"/><path d="M41.069 158.843l1.484-19.923" stroke="#FFF" stroke-width="1.8" stroke-linecap="round" stroke-linejoin="round"/><g transform="translate(11.445 71.214)"><path d="M.506 7.188c-.626 1.255 6.048 5.853 14.908 10.27l2.266-4.543C8.822 8.497 1.132 5.932.506 7.188z" stroke="#575756" stroke-width="1.8" fill="#FAEF95"/><ellipse stroke="#575756" stroke-width="1.8" fill="#DE9EA9" transform="rotate(-43.055 19.422 8.422)" cx="19.422" cy="8.422" rx="2.941" ry="6.287"/><g stroke-width="1.8"><path d="M27.524 6.249A12.5 12.5 0 0 0 25.91 4.11c-2.37-2.537-5.254-3.695-6.44-2.585-1.082 1.01-.379 3.55 1.545 5.913-.39.32-3.044 3.098-4.131 5.406l-4.681 9.386 13.462 7.956c.272-.201.574-.368.913-.48a3.374 3.374 0 0 1 4.27 2.13c1.508 3.439 1.677 6.396 1.59 8.128l23.802-7.961a35.664 35.664 0 0 0-.692-2.375C51.236 16.744 40.11 8.068 27.524 6.249z" stroke="#575756" fill="#EBC8CE"/><path d="M10.658 25.323a7.317 7.317 0 0 0 3.282 9.813 7.277 7.277 0 0 0 4.8.602c.07-.017.14-.03.21-.047.051-.013.102-.03.154-.045a7.431 7.431 0 0 0 1.392-.53 9.182 9.182 0 0 0 3.612-3.056l.924-1.326a.83.83 0 0 0 .015.033 3.44 3.44 0 0 1 .617-.581L12.202 22.23l-1.544 3.093z" stroke="#595957" fill="#FFF"/></g><path d="M12.876 29.283l1.076-1.82" stroke="#575756" stroke-width="1.8"/><ellipse fill="#575756" cx="23.942" cy="17.029" rx="2.203" ry="2.203"/><path d="M12.19 15.457l-.226-5.266m-4.582 3.253l-.228-5.267" stroke="#575756" stroke-width="1.8"/></g><path d="M38.97 77.463s12.86 31.056 27.734 26.08l.978-.326s-6.166-22.44-28.713-25.754z" stroke="#575756" stroke-width="1.8" fill="#DE9EA9"/></g></svg>