<?xml version="1.0" encoding="UTF-8" standalone="no"?>
<svg width="92px" height="80px" viewBox="0 0 92 80" version="1.1" xmlns="http://www.w3.org/2000/svg" xmlns:xlink="http://www.w3.org/1999/xlink">
    <!-- Generator: sketchtool 41.1 (35376) - http://www.bohemiancoding.com/sketch -->
    <title>CCC0935B-C0CE-4ADB-B8D7-0FCB538A3DF3</title>
    <desc>Created with sketchtool.</desc>
    <defs></defs>
    <g id="Page-1" stroke="none" stroke-width="1" fill="none" fill-rule="evenodd">
        <g id="Desktop-Landscape-Copy-5" transform="translate(-592.000000, -1246.000000)">
            <g id="Texto-Glovers" transform="translate(5.000000, 655.000000)"></g>
            <g id="caja" transform="translate(592.000000, 1246.000000)" stroke-width="3" stroke-linecap="round" stroke-linejoin="round">
                <path d="M80.5372257,66.7306484 C80.5372257,71.6075194 76.5551726,75.5612935 71.6434204,75.5612935 L23.4194292,75.5612935 C18.5070841,75.5612935 14.5256239,71.6075194 14.5256239,66.7306484 L14.5256239,12.3521242 C14.5256239,7.47525323 18.5070841,3.52147903 23.4194292,3.52147903 L71.6434204,3.52147903 C76.5551726,3.52147903 80.5372257,7.47525323 80.5372257,12.3521242 L80.5372257,66.7306484 Z" id="Stroke-1" stroke="#3D9F83"></path>
                <path d="M22.826331,16.0296169 L22.826331,12.3519476 C22.826331,12.0275685 23.0919593,11.7632379 23.4192513,11.7632379 L71.6432425,11.7632379 C71.9705345,11.7632379 72.2361628,12.0275685 72.2361628,12.3519476 L72.2361628,66.7304718 C72.2361628,67.0554395 71.9705345,67.3191815 71.6432425,67.3191815 L23.4192513,67.3191815 C23.0919593,67.3191815 22.826331,67.0554395 22.826331,66.7304718 L22.826331,62.3934476" id="Stroke-3" stroke="#3D9F83"></path>
                <path d="M22.260274,48.1616266 L22.260274,30.2607315" id="Stroke-5" stroke="#00A183"></path>
                <path d="M60.3779336,39.5414452 C60.3779336,46.5859452 54.6260133,52.2970177 47.5311283,52.2970177 C40.4362434,52.2970177 34.6849159,46.5859452 34.6849159,39.5414452 C34.6849159,32.4969452 40.4362434,26.7858726 47.5311283,26.7858726 C54.6260133,26.7858726 60.3779336,32.4969452 60.3779336,39.5414452 Z" id="Stroke-7" stroke="#3D9F83"></path>
                <path d="M53.1824163,39.5414452 C53.1824163,42.640438 50.6524642,45.1524234 47.5313062,45.1524234 C44.4101482,45.1524234 41.8801961,42.640438 41.8801961,39.5414452 C41.8801961,36.4424523 44.4101482,33.9304669 47.5313062,33.9304669 C50.6524642,33.9304669 53.1824163,36.4424523 53.1824163,39.5414452 Z" id="Stroke-9" stroke="#3D9F83"></path>
                <path d="M25.6427027,27.4647137 C25.6427027,29.0088992 24.3815611,30.2610847 22.826331,30.2610847 C21.2711009,30.2610847 20.0099593,29.0088992 20.0099593,27.4647137 L20.0099593,18.8259879 C20.0099593,17.2812137 21.2711009,16.0296169 22.826331,16.0296169 C24.3815611,16.0296169 25.6427027,17.2812137 25.6427027,18.8259879 L25.6427027,27.4647137 Z" id="Stroke-35" stroke="#3D9F83"></path>
                <path d="M25.6427027,59.5970177 C25.6427027,61.1412032 24.3815611,62.3933887 22.826331,62.3933887 C21.2711009,62.3933887 20.0099593,61.1412032 20.0099593,59.5970177 L20.0099593,50.9582919 C20.0099593,49.4135177 21.2711009,48.161921 22.826331,48.161921 C24.3815611,48.161921 25.6427027,49.4135177 25.6427027,50.9582919 L25.6427027,59.5970177 Z" id="Stroke-37" stroke="#3D9F83"></path>
            </g>
        </g>
    </g>
</svg>