<svg width="24" height="24" viewBox="0 0 24 24" xmlns="http://www.w3.org/2000/svg"><title>00BCFBA5-FBCF-4942-8E87-73AA6E13D148</title><g fill="none" fill-rule="evenodd"><path d="M1.074 9.878a8.68 8.68 0 0 1 10.772-8.425c-2.865-.717-6.025.033-8.26 2.269-3.387 3.386-3.387 8.896 0 12.282a8.656 8.656 0 0 0 1.912 1.44 8.677 8.677 0 0 1-4.424-7.566zm20.958 9.043l-3.613-3.584a8.723 8.723 0 0 1-3.221 3.216l3.616 3.587a2.276 2.276 0 1 0 3.218-3.219z" fill="#9FA8AD"/><path d="M17.262 14.18l.02.02a8.64 8.64 0 0 0 1.153-4.322 8.661 8.661 0 0 0-3.22-6.746c.225.184.443.38.652.59 2.83 2.83 3.294 7.14 1.395 10.458zm-3.004-5.849a6.416 6.416 0 0 0-9.063 0 6.416 6.416 0 0 0 0 9.064c2.058 2.058 5.179 2.417 7.612 1.084a6.38 6.38 0 0 0 1.452-1.084 6.38 6.38 0 0 0 1.084-1.452c1.332-2.433.974-5.554-1.085-7.612z"/><path d="M17.262 14.18c1.899-3.318 1.435-7.629-1.394-10.458a8.819 8.819 0 0 0-.653-.59l-.019-.015a8.776 8.776 0 0 0-.64-.47c-.046-.031-.094-.06-.14-.09a8.813 8.813 0 0 0-.794-.45 8.73 8.73 0 0 0-.817-.357 8.904 8.904 0 0 0-.856-.272c-.034-.01-.068-.017-.102-.025a8.68 8.68 0 0 0-6.013 16.169l.145.074a8.722 8.722 0 0 0 8.065-.298 8.724 8.724 0 0 0 3.218-3.218zm-3.003.215a6.38 6.38 0 0 1-1.452 1.084c-2.433 1.333-5.554.974-7.612-1.084a6.416 6.416 0 0 1 0-9.064 6.416 6.416 0 0 1 9.063 0c2.059 2.058 2.417 5.179 1.085 7.612a6.388 6.388 0 0 1-1.084 1.452z" fill="#9FA8AD"/></g></svg>