<?xml version="1.0" encoding="UTF-8" standalone="no"?>
<svg width="20px" height="20px" viewBox="0 0 20 20" version="1.1" xmlns="http://www.w3.org/2000/svg" xmlns:xlink="http://www.w3.org/1999/xlink">
    <!-- Generator: sketchtool 42 (36781) - http://www.bohemiancoding.com/sketch -->
    <title>AB0E0C90-208D-4098-AFDA-1AAFAE31E5F8</title>
    <desc>Created with sketchtool.</desc>
    <defs></defs>
    <g id="Page-1" stroke="none" stroke-width="1" fill="none" fill-rule="evenodd">
        <g id="Assets" transform="translate(-234.000000, -69.000000)" fill="#626261">
            <g id="Search" transform="translate(234.000000, 69.000000)">
                <g id="Group-4">
                    <path d="M10.8511618,13.207807 C8.60080771,14.4405029 5.7151627,14.109001 3.81139472,12.2048822 C1.50035299,9.89419126 1.50035299,6.13366191 3.81139472,3.82262018 C6.12243645,1.51192924 9.88261501,1.51192924 12.1936567,3.82262018 C14.0974247,5.72638816 14.4292774,8.61203317 13.1965815,10.8623873 C12.9327832,11.3440297 12.6012813,11.7979592 12.1940075,12.205233 C11.7867338,12.6125067 11.3328042,12.9440086 10.8511618,13.207807 M19.3835643,16.3912775 L14.8186606,12.2522396 C14.8698767,12.1705042 14.9231977,12.0898212 14.9712567,12.0059811 C16.7273397,8.93827312 16.2990182,4.95112978 13.6820827,2.33454504 C13.4877419,2.14020425 13.2860344,1.9584921 13.0780126,1.78870701 C13.0723998,1.78414667 13.0664363,1.77993712 13.0608236,1.77537678 C12.8692892,1.61962351 12.6714404,1.47614809 12.4693821,1.34074097 C12.4262343,1.31197572 12.382034,1.28461366 12.3385353,1.25690081 C12.1698026,1.14850495 11.9979128,1.04712501 11.8232165,0.952760981 C11.7513034,0.91417346 11.6779871,0.877339917 11.6046708,0.840857169 C11.4524255,0.764383718 11.298777,0.692821406 11.142673,0.626871824 C11.0458534,0.585828733 10.9472798,0.547942803 10.8483554,0.510758464 C10.7448707,0.471469351 10.6403336,0.436389787 10.5357965,0.401661017 C10.3782893,0.349743261 10.219028,0.301333462 10.0569604,0.259237984 C10.0257396,0.250818889 9.99451882,0.244153771 9.96294721,0.236085471 C9.3430913,0.082787773 8.69517174,0 8.02795841,0 C3.59425221,0 0,3.59425221 0,8.02795841 C0,11.03112 1.65014273,13.6473539 4.09203124,15.0242268 C4.19481436,15.0814065 4.29759749,15.1375338 4.40213459,15.1898024 C4.44668564,15.2122533 4.49088589,15.2364582 4.53613853,15.2582075 C6.89909802,16.3860155 9.70335843,16.2944579 11.9947556,14.9828329 C12.109115,14.9172342 12.2196156,14.8460226 12.3301162,14.7751619 L16.4067125,19.3677785 C17.2286267,20.1896927 18.5616501,20.1896927 19.3835643,19.3677785 C20.2054786,18.5458643 20.2054786,17.2131917 19.3835643,16.3912775" id="Fill-16"></path>
                </g>
            </g>
        </g>
    </g>
</svg>