<svg version="1" xmlns="http://www.w3.org/2000/svg" width="850.39" height="850.39" viewBox="0 0 850.39 850.39"><path fill="#FFD480" d="M299.736 711.496l3.027 20.271 16.73 11.839-20.271 3.026-11.84 16.73-3.026-20.271-16.73-11.839 20.271-3.026zm-182.124-215.62l17.192 27.106 31.466 6.339-27.106 17.192-6.34 31.466-17.192-27.106-31.466-6.34 27.106-17.192z"/><path fill="#575756" d="M484.846 495.278c-11.689-2.91-21.481 1.047-32.187.946-34.174-.324-68.36-.523-102.528.036-37.34.611-66.327 29.423-65.924 64.505.429 37.392 34.599 67.475 71.719 63.144 1.178-.137 2.959.214 3.45-.431 9.689-12.722 30.825-12.672 36.863-23.707 10.407-19.019 24.815-16.061 40.497-18.611 12.08-1.964 23.204-9.807 34.754-15.036 14.839-6.718 22.918-3.998 28.891 11.316 1.914 4.907 4.542 4.497 7.95 4.511 12.717.049 25.436.168 38.15-.028 8.425-.13 14.91 3.147 18.309 10.741 3.65 8.156 1.209 15.428-5.031 21.659-37.119 37.067-74.197 74.174-111.284 111.273-3.767 3.768-8.026 6.599-13.574 6.483-41.68-.872-83.52 3.11-125.031-2.417-96.586-12.86-170.146-98.89-170.091-198.089.055-98.813 72.986-184.241 169.058-197.892 35.601-5.058 71.431-1.75 107.151-2.446 6.66-.13 11.487-1.206 16.438-6.657 14.174-15.608 37.18-15.469 51.656.156 4.591 4.955 8.973 6.546 15.317 6.476 24.636-.273 49.279.044 73.916-.188 9.069-.085 16.555 1.984 20.563 10.915 4.071 9.069.109 15.989-5.947 22.524a50387.388 50387.388 0 0 0-99.497 107.692c-2.058 2.234-5.209 3.762-5.664 8.309"/><path fill="#575756" d="M482.275 480.463c136.753 33.098 264.582-71.233 258.79-210.642-3.357-80.804-62.199-151.134-139.169-166.34-53.554-10.58-108.331 10.512-135.326 52.107-36.164 55.723-13.544 126.936 46.316 145.817 50.025 15.779 98.497-18.297 97.005-68.194-.921-30.816-28.018-55.26-58.625-52.886-19.816 1.537-36.592 17.798-38.721 37.535-2.014 18.666 9.989 34.272 29.046 36.98 5.63.8 11.14 1.563 10.229 8.422-.908 6.841-7.09 6.384-12.336 5.94-27.296-2.307-46.649-30.034-40.275-58.101 4.871-21.454 17.7-36.482 38.912-42.679 23.543-6.878 45.131-1.268 63.081 15.113 41.601 37.966 23.846 110.222-31.827 130.867-59.031 21.891-128.279-23.648-133.584-87.847-5.899-71.382 44.989-131.027 118.236-138.58 92.068-9.494 175.856 53.252 196.652 147.268 34.396 155.497-111.702 298.534-266.325 260.035"/><path fill="#FEA597" d="M561.426 355.793c-35.273 38.292-68.393 74.134-101.326 110.147-3.866 4.228-7.095 3.407-11.409 1.177-15.977-8.256-30.575-18.41-43.678-30.716-2.315-2.174-4.517-4.47-6.819-6.658-3.668-3.488-7.548-4.543-11.353-.335-3.46 3.826-1.799 7.276 1.242 10.44 10.659 11.094 22.422 20.923 34.714 31.564-15.23 0-30.462-.121-45.69.069-4.967.062-6.93-3.166-8.872-6.665-18.481-33.284-36.871-66.619-55.465-99.839-2.704-4.83-2.469-6.813 3.588-7.36 37.275-3.364 74.629-1.173 111.937-1.902 4.414-.086 6.01 2.56 8.155 5.577 12.573 17.678 30.838 17.513 43.701-.491 2.264-3.17 4.196-5.125 8.388-5.093 23.292.177 46.589.085 72.887.085z"/><path fill="#FEA597" d="M456.238 468.657l-33.442 2.755-61.349-47.799 94.791-10.035zm-100.843 2.563c-26.171-.215-48.22 6.944-66.778 23.431-3.206 2.848-6.775 1.292-10.139.276-30.692-9.273-61.335-18.71-92.076-27.819-6.314-1.871-8.279-4.007-4.935-10.639 22.7-45.031 57.491-75.982 105.459-91.956 4.29-1.429 7.815-2.894 10.842 2.632 18.762 34.261 37.812 68.365 57.627 104.075zM164.69 531.949c-.13-15.165 2.213-30.004 5.655-44.72 1.45-6.199 3.245-9.504 11.201-6.923 28.255 9.168 56.785 17.498 85.264 25.965 5.698 1.694 9.031 2.905 4.535 9.881-8.804 13.659-12.672 29.025-11.705 45.313.353 5.947-1.47 9.308-6.983 12.038-20.952 10.376-41.785 21.018-62.346 32.147-6.446 3.489-8.839 1.634-11.262-4.29-9.114-22.271-14.297-45.296-14.359-69.411zm147.641 113.126c-5.888 17.62-11.644 35.29-17.763 52.833-1.271 3.642-4.546 1.915-7.162 1.057-39.424-12.927-70.747-36.519-93.858-71.03-2.762-4.124-2.928-6.494 2.17-9.036 20.541-10.247 40.919-20.827 61.241-31.503 4.22-2.217 6.14-1.661 7.789 2.95 7.82 21.868 22.422 37.914 42.827 48.806 2.426 1.294 5.234 2.293 4.756 5.923z"/><path fill="#FEA698" d="M370.418 707.492c-13.497.127-33.328.144-53.148-1.662-7.455-.679-9.582-2.762-6.85-10.189 5.058-13.756 9.584-27.721 13.862-41.742 1.722-5.643 4.076-7.082 10.19-6.24 9.377 1.292 19.006.724 28.525 1.027 30.11.957 56.361 22.736 62.569 51.169 1.333 6.103.082 7.806-5.906 7.711-14.293-.228-28.592-.074-49.242-.074z"/><path fill="#E57B6A" d="M439.559 692.375c-18.044-20.314-15.313-48.297-15.057-75.879.06-6.419 1.615-9.226 8.63-9.161 31.36.287 62.725.125 91.637.125l-85.21 84.915z"/><path fill="#E87C6A" d="M410.343 650.226c-4.19-2.439-6.626-3.649-8.833-5.186-4.358-3.035-12.359-3.405-12.032-9.913.313-6.244 8.284-6.004 12.707-8.88 6.972-4.532 8.739-1.584 8.236 5.518-.39 5.488-.078 11.025-.078 18.461z"/><path fill="#FAFAFA" d="M469.014 349.186c-1.306 6.344-4.648 10.73-11.192 10.419-6.341-.301-10.384-4.384-10.102-10.893.277-6.397 4.334-10.429 10.822-10.207 6.466.221 9.636 4.646 10.472 10.681z"/><path fill="#3DCCC0" d="M519.663 310.397l35.321 29.976a1503.539 1503.539 0 0 0 7.503-25.691l-33.784-30.458a955.9 955.9 0 0 0-9.04 26.173z"/><path fill="#FFD480" d="M528.702 284.224l33.784 30.458c2.382-8.451 4.589-16.63 6.604-24.499l-30.885-30.913a782.226 782.226 0 0 0-9.503 24.954z"/><path fill="#E5675C" d="M538.206 259.27l30.885 30.913c2.506-9.787 4.717-19.096 6.552-27.782l-27.235-27.012c-3.3 7.197-6.722 15.213-10.202 23.881z"/><path fill="#5986B2" d="M512.371 333.384l40.954 12.476c.561-1.841 1.109-3.663 1.658-5.487l-35.321-29.976a1064.849 1064.849 0 0 0-7.291 22.987z"/><path fill="#FAEF95" d="M578.027 264.766l-2.382-2.37-.001.004z"/><path fill="#FF8080" d="M578.88 239.043l-.026.183-21.458-23.462c-3.084 5.412-6.323 11.752-9.639 18.981l.651.645.029-.064 27.208 27.07c1.694-8.015 3.078-15.515 4.106-22.41l-.871-.943z"/><path fill="#FAEF95" d="M556.62 214.915l.776.849.003-.005z"/><path fill="#FAEF95" d="M578.88 239.043l-21.482-23.283-.003.005 21.458 23.462c.011-.064.018-.122.027-.184zm-30.472-3.653l27.235 27.012.001-.006-27.208-27.07-.028.064z"/><path fill="#BF568B" d="M576.889 195.052c-4.233-1.29-11.296 6.325-19.49 20.707l21.482 23.283c3.818-25.702 3.467-42.327-1.992-43.99z"/><path fill="#575756" d="M560.912 320.323a4.756 4.756 0 0 1-3.426-1.452l-30.917-31.926a4.769 4.769 0 1 1 6.851-6.635l30.917 31.926a4.769 4.769 0 0 1-3.425 8.087z"/><path fill="#575756" d="M553.325 354.206a8.34 8.34 0 0 1-2.431-.362l-40.954-12.476a8.344 8.344 0 0 1-5.552-10.417c11.532-37.86 24.534-73.172 36.604-99.433 18.16-39.504 27.533-44.95 34.96-44.95 1.148 0 2.284.169 3.372.5 12.792 3.898 12.207 25.216 7.392 56.027-4.509 28.859-13.533 66.219-25.407 105.198a8.35 8.35 0 0 1-4.057 4.934 8.364 8.364 0 0 1-3.927.979zm-30.51-26.365l24.93 7.594c20.288-68.373 26.12-111.782 25.344-127.91-9.634 12.956-28.996 52.244-50.274 120.316z"/><path fill="#575756" d="M568.208 294.182a4.757 4.757 0 0 1-3.426-1.452l-28.425-29.352a4.769 4.769 0 1 1 6.851-6.635l28.425 29.352a4.769 4.769 0 0 1-3.425 8.087zm-14.59 52.28a4.76 4.76 0 0 1-3.426-1.451l-30.919-31.926a4.77 4.77 0 0 1 6.851-6.637l30.919 31.926a4.77 4.77 0 0 1-3.425 8.088zm19.392-80.994a4.76 4.76 0 0 1-3.426-1.451l-24.58-25.38a4.77 4.77 0 0 1 6.851-6.637l24.58 25.38a4.77 4.77 0 0 1-3.425 8.088zm5.852-21.466a4.763 4.763 0 0 1-3.542-1.572l-19.427-21.505a4.77 4.77 0 0 1 7.079-6.395l19.427 21.505a4.77 4.77 0 0 1-3.537 7.967z"/><path fill="#FFD480" d="M367.659 200.131l12.445 30.977 30.978 12.446-30.978 12.445-12.445 30.977-12.445-30.977-30.977-12.445 30.977-12.446zM730.75 417.379l10.167 25.306 25.307 10.167-25.307 10.167-10.167 25.307-10.167-25.307-25.306-10.167 25.306-10.167zm-105.908-37.646l10.471 16.509 19.164 3.861-16.509 10.471-3.861 19.164-10.471-16.509-19.164-3.861 16.509-10.471zm106.762-275.665l8.85 13.952 16.196 3.264-13.952 8.849-3.264 16.196-8.849-13.952-16.196-3.263 13.952-8.85zM634.169 142.4l13.161 5.158 12.83-5.935-5.158 13.161 5.934 12.83-13.161-5.158-12.829 5.934 5.158-13.16zm-64.238 524.042l3.026 20.271 16.73 11.839-20.271 3.026-11.839 16.731-3.026-20.271-16.731-11.84 20.271-3.026z"/><path fill="#FFF" d="M194.526 462.78a4.768 4.768 0 0 1-4.695-5.643c3.514-18.847 26.102-42.329 46.93-57.243l2.501-1.794c15.136-10.863 33.972-24.383 48.47-26.485a4.776 4.776 0 0 1 4.771 2.26l49.184 81.674a4.769 4.769 0 0 1-8.171 4.923l-47.444-78.787c-11.989 3.166-28.097 14.727-41.246 24.166l-2.509 1.799c-22.8 16.326-40.525 37.394-43.106 51.234a4.775 4.775 0 0 1-4.685 3.896zm-9.545 140.4a4.772 4.772 0 0 1-4.539-3.309c-.955-2.965-23.167-73.075-4.934-113.505a4.771 4.771 0 0 1 5.637-2.632l77.858 21.849a4.769 4.769 0 0 1 3.303 5.88 4.773 4.773 0 0 1-5.881 3.305l-73.757-20.698c-13.782 37.815 6.638 102.208 6.854 102.876a4.768 4.768 0 0 1-3.079 6.001 4.715 4.715 0 0 1-1.462.233zm239.66-231.912H324.237a4.769 4.769 0 1 1 0-9.538h100.404a4.769 4.769 0 1 1 0 9.538zm116.434 0h-55.029a4.769 4.769 0 1 1 0-9.538h55.029a4.769 4.769 0 1 1 0 9.538z"/><path fill="#575756" d="M468.536 449.65c-9.746 0-20.512-1.549-30.63-6.292-14.655-6.868-25.195-19.053-31.329-36.215a7.155 7.155 0 0 1 13.474-4.816c4.802 13.439 12.853 22.886 23.928 28.076 23.232 10.889 52.43.431 52.724.321 3.7-1.346 7.818.547 9.178 4.259a7.157 7.157 0 0 1-4.259 9.178c-.918.336-15.31 5.489-33.086 5.489z"/><path fill="#FFF" d="M286.928 694.393a4.8 4.8 0 0 1-1.4-.212c-58.837-18.048-86.761-62.772-87.921-64.668a4.772 4.772 0 0 1-.55-3.689 4.773 4.773 0 0 1 2.274-2.955l56.04-31.597a4.77 4.77 0 0 1 4.685 8.309l-51.489 29.031c8.246 11.218 34.578 42.591 79.757 56.45a4.77 4.77 0 0 1-1.396 9.331z"/></svg>