<svg width="61" height="52" viewBox="0 0 61 52" xmlns="http://www.w3.org/2000/svg" xmlns:xlink="http://www.w3.org/1999/xlink"><title>B74238AB-64DD-4966-BDBB-F1B12919915F</title><defs><path id="a" d="M60.864.009H0v9.634h60.864V.009z"/></defs><g fill="none" fill-rule="evenodd"><path d="M18.649 9.005H.735a.227.227 0 0 0-.225.229v42.012c0 .126.1.229.225.229h.477l17.437-9.101V9.005z" fill="#2F9DE6"/><path d="M1.02 50.959h.068l17.051-8.9V9.52H1.02V50.96zm.192 1.032H.735A.741.741 0 0 1 0 51.246V9.233c0-.41.33-.744.735-.744H18.65c.281 0 .51.23.51.516v33.368c0 .194-.107.37-.276.46l-17.437 9.1a.505.505 0 0 1-.234.058z" fill="#565655"/><path d="M1.212 51.475h41.003a.227.227 0 0 0 .226-.229v-8.872H18.649l-17.437 9.1z" fill="#0086D0"/><path d="M3.314 50.959h38.617v-8.07H18.773L3.314 50.96zm38.901 1.032H1.212a.519.519 0 0 1-.233-.975l17.436-9.101a.504.504 0 0 1 .234-.058H42.44c.281 0 .51.231.51.516v8.873c0 .41-.33.745-.736.745z" fill="#565655"/><path d="M42.215 9.005H18.65v33.369h23.792V9.234c0-.127-.101-.229-.226-.229" fill="#2F9DE6"/><path d="M42.215 9.521h.002-.002zM19.16 41.857H41.93V9.521H19.159v32.336zM42.44 42.89H18.649a.513.513 0 0 1-.51-.517V9.005c0-.285.228-.516.51-.516h23.566c.406 0 .735.334.735.744v33.14a.513.513 0 0 1-.51.517z" fill="#565655"/><path d="M42.44 9.07a.227.227 0 0 1-.225.229H.735A.227.227 0 0 1 .51 9.07L18.423.926c0-.126.101-.229.226-.229h41.48c.124 0 .225.103.225.23L42.441 9.07z" fill="#FFD635"/><g transform="translate(0 .172)"><mask id="b" fill="#fff"><use xlink:href="#a"/></mask><path d="M2.387 8.61h39.63a.51.51 0 0 1 .215-.183l16.244-7.385h-39.63a.51.51 0 0 1-.214.183L2.387 8.61zm39.828 1.033H.735A.741.741 0 0 1 0 8.898c0-.203.118-.388.301-.471L18.018.372a.734.734 0 0 1 .631-.363h41.48c.405 0 .735.334.735.745a.516.516 0 0 1-.3.47L42.846 9.28a.734.734 0 0 1-.632.364z" fill="#565655" mask="url(#b)"/></g><path d="M5.02 8.755c-.206 0-.401-.12-.49-.32a.546.546 0 0 1 .27-.72l14.136-6.427a.532.532 0 0 1 .22-.047h36.69a.54.54 0 0 1 .536.543c0 .3-.24.544-.537.544H19.271L5.239 8.708a.53.53 0 0 1-.22.047" fill="#FFF"/><path d="M60.487 43.182a.227.227 0 0 1-.226.229l-17.595 8.064a.227.227 0 0 1-.225-.229V9.234c0-.127.1-.229.225-.229L60.261.941c.125 0 .226.102.226.229v42.012z" fill="#FFD635"/><path d="M42.667 9.521zm17.594 33.374zM42.951 9.442v41.336l17.026-7.803V1.638L42.951 9.442zm-.284 42.549a.741.741 0 0 1-.736-.745V9.233c0-.362.257-.665.596-.731L60.051.471a.504.504 0 0 1 .21-.046c.406 0 .736.334.736.745v42.012a.744.744 0 0 1-.596.732l-17.524 8.031a.504.504 0 0 1-.21.046z" fill="#565655"/><path d="M44.02 49.948a.54.54 0 0 1-.536-.544V10.196c0-.218.128-.415.325-.5l14.888-6.45a.534.534 0 0 1 .704.285.546.546 0 0 1-.282.714l-14.562 6.31v38.85c0 .3-.24.543-.537.543" fill="#FFF"/><path d="M47.212 27.782c0 4.36 2.082 6.608 4.65 5.021 2.568-1.587 4.65-6.408 4.65-10.768s-2.082-6.608-4.65-5.02c-2.568 1.586-4.65 6.407-4.65 10.767" fill="#00A38B"/><path d="M51.114 23.37c.004-.644.29-1.357.665-1.66a.791.791 0 0 1 .09-.063c.2-.12.386-.1.526.055.14.156.216.429.214.769a2.65 2.65 0 0 1-.145.827l-.614 1.82-.598-1.091c-.091-.163-.14-.39-.138-.657m-.629 2.049l.871 1.589c.002.005.122.263.383.106l.2-.12a.526.526 0 0 0 .06-.042c.22-.178.325-.521.33-.537l.891-2.643c.211-.619.324-1.264.328-1.866.004-.766-.168-1.381-.483-1.732-.316-.352-.738-.396-1.187-.125-.068.04-.136.088-.202.142-.847.682-1.492 2.291-1.5 3.745-.003.603.104 1.115.309 1.483M51.86 27.562c.292-.177.52.069.517.564-.003.444-.195.919-.457 1.13a.57.57 0 0 1-.067.047c-.293.176-.521-.068-.518-.56.002-.483.227-1.006.525-1.181" fill="#FECC1F"/><path d="M16.196 37.745c.574-1.197.414-2.516-.3-3.482-1.25.152-2.412.923-2.986 2.12-.574 1.197-.414 2.516.3 3.482 1.25-.153 2.412-.923 2.986-2.12" fill="#FF9E00"/><path d="M15.73 34.655c-1.085.2-2.03.908-2.498 1.886-.462.962-.403 2.066.144 2.932 1.084-.2 2.03-.908 2.498-1.887.462-.961.403-2.066-.145-2.931m-2.52 5.572a.356.356 0 0 1-.286-.145c-.817-1.106-.946-2.585-.335-3.857.604-1.26 1.856-2.15 3.266-2.322a.356.356 0 0 1 .329.143c.817 1.106.945 2.584.335 3.857-.604 1.26-1.856 2.15-3.266 2.322a.34.34 0 0 1-.043.002" fill="#575756"/><path d="M13.531 39.388a.268.268 0 0 1-.237-.145 3.013 3.013 0 0 1-.024-2.683c.425-.885 1.262-1.562 2.239-1.812a.272.272 0 0 1 .131.527c-.825.21-1.53.78-1.887 1.523a2.461 2.461 0 0 0 .016 2.192c.069.132.019.297-.112.367a.264.264 0 0 1-.126.031" fill="#FFF"/><path d="M12.192 34.48c1.216.504 2.59.293 3.621-.438a3.328 3.328 0 0 0-2.07-2.796c-1.216-.504-2.59-.293-3.62.438a3.327 3.327 0 0 0 2.069 2.796" fill="#FF9E00"/><path d="M10.504 31.863a2.987 2.987 0 0 0 1.823 2.282c.994.411 2.164.301 3.104-.282a2.986 2.986 0 0 0-1.823-2.282c-.994-.412-2.164-.301-3.104.282m3.078 3.252c-.521 0-1.04-.098-1.526-.3a3.703 3.703 0 0 1-2.29-3.1.364.364 0 0 1 .151-.328c1.164-.825 2.682-1.008 3.962-.477a3.702 3.702 0 0 1 2.29 3.1.364.364 0 0 1-.15.33 4.228 4.228 0 0 1-2.437.775" fill="#575756"/><path d="M15.081 33.973a.27.27 0 0 1-.26-.207 2.382 2.382 0 0 0-1.434-1.642c-.754-.312-1.654-.26-2.408.14a.266.266 0 0 1-.363-.113.273.273 0 0 1 .113-.367c.893-.475 1.963-.535 2.863-.163l.094.041a2.92 2.92 0 0 1 1.656 1.975.272.272 0 0 1-.261.336" fill="#FFF"/><path d="M19.672 29.946c1.57.65 3.341.378 4.673-.566-.135-1.55-1.101-2.958-2.67-3.608-1.57-.65-3.342-.378-4.674.565.135 1.551 1.102 2.958 2.671 3.609" fill="#FFB858"/><path d="M17.382 26.516a3.956 3.956 0 0 0 2.426 3.094c1.333.553 2.906.394 4.157-.408a3.956 3.956 0 0 0-2.426-3.095c-1.334-.553-2.907-.394-4.157.409m4.085 4.144c-.66 0-1.317-.124-1.93-.38v.001a4.673 4.673 0 0 1-2.892-3.912.364.364 0 0 1 .151-.329c1.474-1.044 3.394-1.275 5.014-.604A4.672 4.672 0 0 1 24.7 29.35a.364.364 0 0 1-.151.328 5.35 5.35 0 0 1-3.083.983" fill="#575756"/><path d="M18.118 28.01a.267.267 0 0 1-.233-.136 3.844 3.844 0 0 1-.424-1.146.273.273 0 0 1 .13-.29c1.214-.699 2.684-.808 3.932-.29.042.017.083.035.124.054a.273.273 0 0 1 .136.359.267.267 0 0 1-.355.137 3.924 3.924 0 0 0-.11-.048c-1.036-.43-2.25-.365-3.286.166.072.276.179.54.319.788.073.13.029.297-.1.371a.264.264 0 0 1-.133.036" fill="#FFF"/><path d="M23.508 25.99c-.55.112-1.1.272-1.643.482-3.545 1.372-5.9 4.521-6.463 8.061 2.75 2.258 6.58 3.012 10.124 1.64a10.24 10.24 0 0 0 1.542-.75c-1.228-1.105-2.244-2.56-2.895-4.286a11.065 11.065 0 0 1-.665-5.148" fill="#FF9E00"/><path d="M15.79 34.383a9.831 9.831 0 0 0 9.608 1.451c.364-.14.72-.304 1.066-.487a11.42 11.42 0 0 1-2.625-4.08 11.54 11.54 0 0 1-.732-4.814 9.976 9.976 0 0 0-1.114.357c-3.223 1.248-5.583 4.137-6.202 7.573m6.09 2.832c-2.403 0-4.784-.824-6.704-2.4a.365.365 0 0 1-.128-.34c.6-3.78 3.163-6.977 6.688-8.342a10.61 10.61 0 0 1 1.7-.499.353.353 0 0 1 .313.088.365.365 0 0 1 .114.309c-.187 1.645.035 3.366.643 4.977.608 1.611 1.576 3.044 2.799 4.143a.365.365 0 0 1-.057.584 10.444 10.444 0 0 1-5.368 1.48" fill="#575756"/><path d="M16.133 34.522a.272.272 0 0 1-.263-.326c.667-3.323 3.019-6.137 6.138-7.345a9.96 9.96 0 0 1 .691-.238.268.268 0 0 1 .334.181.272.272 0 0 1-.18.34 9.531 9.531 0 0 0-.653.225c-2.95 1.142-5.174 3.803-5.804 6.945a.27.27 0 0 1-.263.218" fill="#FFF"/><path d="M31.989 28.111c-2.33-1.911-5.432-2.745-8.48-2.122a11.065 11.065 0 0 0 .664 5.148c.65 1.726 1.667 3.181 2.895 4.285 2.682-1.595 4.445-4.312 4.92-7.31" fill="#FFB858"/><path d="M23.837 26.295a10.777 10.777 0 0 0 .67 4.713 10.662 10.662 0 0 0 2.604 3.964c2.365-1.493 3.987-3.917 4.49-6.71a9.766 9.766 0 0 0-7.764-1.967m3.231 9.49a.355.355 0 0 1-.238-.092c-1.308-1.176-2.343-2.707-2.991-4.426-.65-1.72-.886-3.559-.686-5.32a.36.36 0 0 1 .285-.313c3.104-.634 6.303.166 8.776 2.196.1.082.149.211.128.34-.505 3.182-2.362 5.94-5.093 7.565a.355.355 0 0 1-.18.05" fill="#575756"/><path d="M31.258 28.666a.265.265 0 0 1-.16-.054 9.357 9.357 0 0 0-1.775-1.053 9.168 9.168 0 0 0-5.154-.723.268.268 0 0 1-.305-.23.271.271 0 0 1 .226-.308 9.699 9.699 0 0 1 5.452.765c.664.3 1.295.675 1.876 1.113.12.09.144.26.055.38a.267.267 0 0 1-.215.11" fill="#FFF"/><path d="M27.2 31.042a1.661 1.661 0 0 1-2.153-.975 1.696 1.696 0 0 1 .962-2.18 1.661 1.661 0 0 1 2.153.974 1.696 1.696 0 0 1-.962 2.18" fill="#EDEDED"/><path d="M26.603 28.138c-.155 0-.313.028-.466.087a1.334 1.334 0 0 0-.756 1.713 1.306 1.306 0 0 0 2.42.067c.142-.323.152-.684.027-1.015a1.313 1.313 0 0 0-1.225-.852m.004 3.378a2.03 2.03 0 0 1-1.894-1.32c-.399-1.056.126-2.244 1.169-2.648a2.02 2.02 0 0 1 2.614 1.184c.194.512.178 1.069-.042 1.569a2.022 2.022 0 0 1-1.847 1.215" fill="#575756"/><path d="M27.004 29.645a.436.436 0 0 1-.578.224.446.446 0 0 1-.221-.586.436.436 0 0 1 .578-.224c.221.1.32.362.221.586M29.82 31.989c-.262 0-.525-.057-.773-.169a.364.364 0 0 1-.18-.478.356.356 0 0 1 .472-.183 1.18 1.18 0 0 0 1.56-.604.356.356 0 0 1 .474-.183c.18.081.26.296.18.479a1.895 1.895 0 0 1-1.732 1.138" fill="#575756"/><path d="M23.66 37.22c.43-.897.31-1.886-.224-2.61a2.87 2.87 0 0 0-2.239 1.59c-.43.896-.31 1.885.225 2.61a2.87 2.87 0 0 0 2.238-1.59" fill="#FFB858"/><path d="M23.66 37.22h.002-.002zm-.393-2.215c-.76.159-1.417.663-1.748 1.352a2.181 2.181 0 0 0 .071 2.057 2.517 2.517 0 0 0 1.749-1.352 2.181 2.181 0 0 0-.072-2.057zm-1.845 4.167a.357.357 0 0 1-.287-.146c-.632-.857-.732-2-.26-2.985a3.244 3.244 0 0 1 2.518-1.79.355.355 0 0 1 .33.142c.632.857.732 2 .26 2.985a3.244 3.244 0 0 1-2.561 1.794z" fill="#575756"/><path d="M21.752 38.318a.268.268 0 0 1-.246-.162 2.112 2.112 0 0 1 .052-1.78 2.459 2.459 0 0 1 1.467-1.262.268.268 0 0 1 .337.177.273.273 0 0 1-.175.34c-.507.164-.925.522-1.147.983-.209.436-.224.906-.043 1.323a.273.273 0 0 1-.245.381M36.443 14.615c0 1.044-.836 1.89-1.866 1.89a1.879 1.879 0 0 1-1.867-1.89c0-1.045.836-1.891 1.867-1.891 1.03 0 1.866.846 1.866 1.89M36.496 22.436c0 .598-.479 1.083-1.07 1.083-.59 0-1.07-.485-1.07-1.083s.48-1.083 1.07-1.083c.591 0 1.07.485 1.07 1.083M15.35 44.589a.95.95 0 0 1-.945.957.951.951 0 0 1-.945-.957.95.95 0 0 1 .945-.957.95.95 0 0 1 .945.957M7.855 17.1c0 .787-.63 1.425-1.408 1.425A1.417 1.417 0 0 1 5.039 17.1c0-.787.63-1.425 1.408-1.425.777 0 1.408.638 1.408 1.425" fill="#FFF"/></g></svg>