<?xml version="1.0" encoding="UTF-8" standalone="no"?>
<svg width="170px" height="170px" viewBox="0 0 170 170" version="1.1" xmlns="http://www.w3.org/2000/svg" xmlns:xlink="http://www.w3.org/1999/xlink">
    <!-- Generator: sketchtool 3.7.2 (28276) - http://www.bohemiancoding.com/sketch -->
    <title>F52D7A89-8EEE-4D6B-BF98-1DEA89964239</title>
    <desc>Created with sketchtool.</desc>
    <defs></defs>
    <g id="Page-1" stroke="none" stroke-width="1" fill="none" fill-rule="evenodd">
        <g id="Artboard-1" transform="translate(-1286.000000, -113.000000)">
            <g id="icons" transform="translate(-36.000000, 91.000000)">
                <g id="Group" transform="translate(1322.000000, 22.000000)">
                    <g transform="translate(8.000000, 87.000000)" stroke="#585857">
                        <circle id="Oval" stroke-width="3.5779" fill="#E9BE64" cx="38.683" cy="36.255" r="35.549"></circle>
                        <polygon id="Shape" stroke-width="3.5779" fill="#845F3B" points="17.109 14.086 15.687 3.727 28.28 6.295 28.28 12.664"></polygon>
                        <polygon id="Shape" stroke-width="3.5779" fill="#845F3B" points="15.687 31.351 24.014 27.288 28.28 31.351 25.436 39.678 17.312 36.511"></polygon>
                        <polygon id="Shape" stroke-width="3.5779" fill="#845F3B" points="29.295 52.678 26.249 57.712 30.717 62.63 37.217 60.798 37.217 52.678"></polygon>
                        <polygon id="Shape" stroke-width="3.5779" fill="#845F3B" points="5.651 45.339 0.9 54.359 12.867 56.163 14.671 45.339"></polygon>
                        <polygon id="Shape" stroke-width="2.1542" fill="#845F3B" points="41.076 21.601 45.748 14.316 52.857 16.726 50.419 21.601 46.966 25.054"></polygon>
                    </g>
                    <g transform="translate(47.000000, 48.000000)" id="Shape">
                        <polygon fill="#54826D" points="0.272 0.256 10.376 111.66 45.278 111.66 37.473 0.256"></polygon>
                        <polygon fill="#54826D" points="93.732 0.256 73.307 0.256 62.989 111.66 81.102 111.66"></polygon>
                        <polygon fill="#6A9E89" points="37.473 0.256 45.278 111.66 62.989 111.66 73.307 0.256"></polygon>
                    </g>
                    <polygon id="Shape" stroke="#585857" stroke-width="3.5779" points="128.102 159.66 57.376 159.66 47.272 48.256 140.732 48.256"></polygon>
                    <path d="M50.255,124.979 L45.585,73.489 C45.342,70.81 47.452,68.5 50.142,68.5 L137.902,68.5 C140.633,68.5 142.757,70.877 142.449,73.592 L136.637,124.853 C136.337,127.501 134.101,129.505 131.435,129.513 L55.502,129.757 C52.78,129.766 50.501,127.691 50.255,124.979 L50.255,124.979 Z" id="Shape" stroke="#585857" stroke-width="3.5779" fill="#EFD896"></path>
                    <g transform="translate(31.000000, 11.000000)" id="Shape" stroke="#585857" stroke-width="3.5779" fill="#E4E7E8">
                        <path d="M123.849,28.945 C123.849,33.537 120.127,37.257 115.536,37.257 L9.01,37.257 C4.419,37.257 0.697,33.537 0.697,28.945 L0.697,28.945 C0.697,24.351 4.419,20.631 9.01,20.631 L115.536,20.631 C120.127,20.631 123.849,24.351 123.849,28.945 L123.849,28.945 L123.849,28.945 Z"></path>
                        <path d="M101.863,4.077 C101.03,1.676 98.767,0.066 96.226,0.066 L63.006,0.066 L29.781,0.066 C27.24,0.066 24.977,1.676 24.144,4.077 L18.377,20.695 L63.005,20.695 L107.628,20.695 L101.863,4.077 L101.863,4.077 Z"></path>
                    </g>
                    <path d="M60.925,16.257 L125.361,16.257" id="Shape" stroke="#FFFFFF" stroke-width="2.3853"></path>
                    <path d="M38.785,36.433 L144.054,36.433" id="Shape" stroke="#FFFFFF" stroke-width="2.3853"></path>
                    <path d="M50.701,73.136 L136.994,73.136" id="Shape" stroke="#FFFFFF" stroke-width="2.3853"></path>
                    <path d="M53.916,124.855 L132.048,124.855" id="Shape" stroke="#FFFFFF" stroke-width="2.3853"></path>
                </g>
            </g>
        </g>
    </g>
</svg>