<svg width="34" height="29" viewBox="0 0 34 29" xmlns="http://www.w3.org/2000/svg" xmlns:xlink="http://www.w3.org/1999/xlink"><title>CE2731C8-D471-41B3-B9FC-682ED597D2EA</title><defs><path id="a" d="M0 28.79h33.972V0H0z"/></defs><g fill="none" fill-rule="evenodd"><mask id="b" fill="#fff"><use xlink:href="#a"/></mask><path d="M33.972 14.315v-.085c-.104-6.08-3.64-11.566-9.107-14.132a1.037 1.037 0 0 0-1.382.51A1.053 1.053 0 0 0 23.989 2c6.79 3.135 9.774 11.225 6.664 18.07a13.577 13.577 0 0 1-6.664 6.717 1.053 1.053 0 0 0-.506 1.393c.242.526.86.754 1.382.51 5.465-2.565 9-8.049 9.107-14.125v-.251zm-5.423.08c-.017-4.018-2.343-7.66-5.964-9.339a1.039 1.039 0 0 0-1.382.517c-.24.528-.01 1.151.513 1.393a8.222 8.222 0 0 1 4.75 7.429 8.215 8.215 0 0 1-4.75 7.44c-.523.241-.754.863-.516 1.39.238.528.855.761 1.378.52 3.63-1.675 5.962-5.326 5.971-9.35zm-5.429.079v-.159a4.743 4.743 0 0 0-2.867-4.372 1.036 1.036 0 0 0-1.363.556 1.05 1.05 0 0 0 .552 1.373 2.635 2.635 0 0 1 1.607 2.443v.159a2.635 2.635 0 0 1-1.587 2.436 1.051 1.051 0 0 0-.41 1.422c.235.43.733.638 1.2.501a4.749 4.749 0 0 0 2.868-4.36zM15.77 2.699a1.039 1.039 0 0 0-1.11.165L7.134 9.449H1.04C.465 9.449 0 9.918 0 10.496v7.797c0 .579.465 1.047 1.039 1.047h6.095l7.526 6.586c.43.382 1.087.339 1.466-.095.168-.192.26-.44.259-.695V3.654c0-.413-.24-.787-.614-.955z" fill="#40B39C" mask="url(#b)"/></g></svg>