<?xml version="1.0" encoding="UTF-8"?>
<svg width="19px" height="15px" viewBox="0 0 19 15" version="1.1" xmlns="http://www.w3.org/2000/svg" xmlns:xlink="http://www.w3.org/1999/xlink">
    <!-- Generator: Sketch 42 (36781) - http://www.bohemiancoding.com/sketch -->
    <title>Artboard 2 Copy</title>
    <desc>Created with Sketch.</desc>
    <defs></defs>
    <g id="Page-1" stroke="none" stroke-width="1" fill="none" fill-rule="evenodd">
        <g id="Artboard-2-Copy" stroke="#FFFFFF">
            <g id="Group-5" transform="translate(1.000000, 1.000000)">
                <path d="M1.32208031,10.7246629 C1.32208031,11.9052132 2.40221811,12.8622382 3.73463561,12.8622382 L3.73463561,12.8622382 C5.06705312,12.8622382 6.14719092,11.9052132 6.14719092,10.7246629" id="Oval"></path>
                <ellipse id="Oval" cx="13.3848568" cy="10.1902691" rx="2.41255531" ry="2.67196918"></ellipse>
                <path d="M15.3019725,8.64960669 C15.5281961,8.98246435 16.1519459,8.88635401 16.4703288,8.64960669 C16.7887117,8.41269134 16.8550059,7.86103144 16.6287823,7.52750167 C15.9363036,6.50725345 14.8098416,5.89782653 13.6153038,5.89782653 C13.571472,5.89782653 13.528764,5.90286728 13.4854139,5.90454753 L10.81103,2.0752562 L11.2230171,2.0752562 C11.8779256,2.0752562 12.4088849,1.5195973 12.4088849,0.834223043 C12.4088849,0.148848786 12.0840877,0.0581557701 12.0840877,0.0581557701 L7.62742636,0.0367861803 C7.62742636,0.0367861803 7.4607114,0.0813144419 7.68340279,0.0813144419 L9.90100687,0.0896634909 C9.90100687,0.0896634909 9.9439805,0.61327379 9.94401419,0.851423301 C9.9440719,1.2593676 9.94418732,2.0752562 9.94418732,2.0752562 L9.94418732,6.59865909 C9.94418732,8.75694111 7.9430154,8.84649847 7.66685881,8.84851477 L6.19969667,8.84851477 L6.19969667,7.25311674 C6.19969667,6.57182264 5.89595931,5.96477727 5.42246527,5.57219394 M1.13419125,5.57219394 C0.660742356,5.96477727 0.357058185,6.57182264 0.357058185,7.25311674 L0.357058185,8.84851477 L0.357058185,9.65587523 L6.19969667,9.65587523 L10.9141022,9.65587523" id="Shape" stroke-linecap="round" stroke-linejoin="round"></path>
                <rect id="Rectangle" stroke-linecap="round" stroke-linejoin="round" x="0.357058185" y="3.2431492" width="5.79013273" height="2.13757534" rx="1.06878767"></rect>
            </g>
        </g>
    </g>
</svg>