<?xml version="1.0" encoding="UTF-8"?>
<svg width="15px" height="15px" viewBox="0 0 15 15" version="1.1" xmlns="http://www.w3.org/2000/svg" xmlns:xlink="http://www.w3.org/1999/xlink">
    <!-- Generator: Sketch 42 (36781) - http://www.bohemiancoding.com/sketch -->
    <title>Artboard 2</title>
    <desc>Created with Sketch.</desc>
    <defs></defs>
    <g id="Page-1" stroke="none" stroke-width="1" fill="none" fill-rule="evenodd">
        <g id="Artboard-2" stroke="#FFFFFF">
            <path d="M7.5,7.175 C6.61239951,7.175 5.89285714,6.44746272 5.89285714,5.55 C5.89285714,5.1190232 6.06218064,4.7056981 6.36357839,4.40095148 C6.66497614,4.09620487 7.07375921,3.925 7.5,3.925 C8.38760049,3.925 9.10714286,4.65253728 9.10714286,5.55 C9.10714286,5.9809768 8.93781936,6.3943019 8.63642161,6.69904852 C8.33502386,7.00379513 7.92624079,7.175 7.5,7.175 L7.5,7.175 Z M7.5,1 C5.01471863,1 3,3.03710439 3,5.55 C3,8.9625 7.5,14 7.5,14 C7.5,14 12,8.9625 12,5.55 C12,3.03710439 9.98528137,1 7.5,1 L7.5,1 Z" id="Shape"></path>
        </g>
    </g>
</svg>