<svg width="44" height="18" viewBox="0 0 44 18" xmlns="http://www.w3.org/2000/svg"><title>2CD84E85-6853-4028-8359-3BA954F1D3E8</title><g transform="translate(-3 -7)" fill="none" fill-rule="evenodd"><path d="M9.353 11.941v2.118s-3.2-1.11-3.059.235c.142 1.346 4 1.647 3.53 4.47C8.882 23 3.47 20.883 3.47 20.883v-2.117s2.823.706 2.823-.47c0-1.177-3.059-.707-3.059-4 0-4.236 6.118-2.354 6.118-2.354zm2.266 1.647c-.004 1.612 0 3.355.025 4.584.02 1.06-.409 2.004.768 2.946 1.176.94 4.47 0 4.47 0v-2.353s-1.576 1.09-1.882-.593v-4.584h1.412l.47-2.117H15V8.41l-3.356.942s-.01.874-.016 2.118h-1.334v2.117h1.325zm21.263-1.56v-.557h-3.53v13.411h3.53v-3.617c.617.234 1.603.395 2.824-.147 2.118-.942 2.118-3.53 2.118-5.177 0-1.647.235-3.059-1.648-4.235-1.309-.818-2.618-.157-3.294.322zm0 2.383v4.621c.674.27 1.815.255 1.647-3.09-.159-3.186-1.073-2.383-1.647-1.531zm-11.911-2.3c-.14-.349-.39-.64-.795-.64h-2.588v9.882h3.53v-6.699c.31-.139.854-.36 1.176-.36.47 0 1.412.235 1.412.235v-3.058s-.906-.236-1.412-.236c-.294 0-1.062.16-1.323.875zm3.44-.64h3.295v9.882h-3.294V11.47zM47 15.47c0-.705-.47-4.235-4.072-4.24-2.987.005-4.163 2.32-4.163 5.18s1.647 4.708 4.163 4.943c2.516.235 3.601-.706 3.601-.706V18.53s-1.882.471-3.058.236c-.942-.236-1.296-.792-1.412-1.412H47V15.47zm-3.464.236c0-.455.165-2.47-.741-2.47s-.741 2.015-.741 2.47h1.482z" fill="#0076AF"/><ellipse fill="#F3C33F" cx="26.059" cy="8.647" rx="1.647" ry="1.647"/></g></svg>