<svg width="24" height="24" viewBox="0 0 24 24" xmlns="http://www.w3.org/2000/svg"><title>7B52434F-3B6E-4C62-B4C6-A77AA6E406F6</title><g fill="#9FA8AD" fill-rule="evenodd"><path d="M6.759 8.831a1.22 1.22 0 0 0 1.22-1.22V5.485a1.22 1.22 0 1 0-2.441 0V7.61a1.22 1.22 0 0 0 1.22 1.221z"/><path d="M17.99 11.934c1.47 0 2.818.502 3.896 1.337V8.887A2.285 2.285 0 0 0 19.6 6.602h-.638V7.61a2.757 2.757 0 0 1-2.755 2.754 2.757 2.757 0 0 1-2.754-2.754V6.602h-3.94V7.61a2.757 2.757 0 0 1-2.755 2.754A2.757 2.757 0 0 1 4.004 7.61V6.602h-.638A2.285 2.285 0 0 0 1.08 8.887v10.936a2.285 2.285 0 0 0 2.285 2.285h9.52a6.335 6.335 0 0 1-1.268-3.802 6.372 6.372 0 0 1 6.372-6.372z"/><path d="M16.208 8.831a1.22 1.22 0 0 0 1.221-1.22V5.485a1.22 1.22 0 1 0-2.441 0V7.61a1.22 1.22 0 0 0 1.22 1.221zm4.872 6.009a4.663 4.663 0 1 0-6.18 6.985 4.663 4.663 0 0 0 6.18-6.985zm-3.79 4.283a1.056 1.056 0 0 1 .841-1.838l1.607-1.815a.588.588 0 0 1 .88.778l-1.606 1.816a1.055 1.055 0 0 1-1.722 1.059z"/></g></svg>