<svg width="50" height="30" viewBox="0 0 50 30" xmlns="http://www.w3.org/2000/svg"><title>5B46AEE2-3507-4B34-B2A2-517EBE171DF9</title><g fill="none" fill-rule="evenodd"><path fill="#FEFEFE" d="M5 26.8h40v-24H5z"/><path fill="#0076AF" d="M6.185 9.307h37.35V3.984H6.186z"/><path fill="#F3C43E" d="M6.185 25.524h37.35V20.2H6.186z"/><path fill="#0076AF" d="M18.971 19.28l2.554-8.418h2.277l-2.552 8.419zm-1.019-8.416l-2.05 3.568c-.52.936-.825 1.407-.972 1.998h-.03c.037-.749-.068-1.667-.077-2.188l-.227-3.378H10.76l-.039.226c.985 0 1.57.496 1.73 1.508l.747 6.683h2.36l4.773-8.417h-2.38zm17.453 3.45c-.024-.622-.045-1.466-.003-1.978h-.034c-.138.418-.733 1.674-.996 2.291l-.847 1.846h1.997l-.117-2.159zm.262 4.967l-.063-1.253-2.843-.002-.583 1.255h-2.473l4.485-8.403h3.034l.76 8.403h-2.317zm-9.472.239c-1.61 0-2.677-.51-3.438-.965l1.084-1.659c.684.384 1.221.826 2.458.826.396 0 .78-.104.997-.48.317-.548-.073-.843-.963-1.346l-.44-.286c-1.318-.902-1.89-1.759-1.268-3.253.397-.955 1.445-1.68 3.174-1.68 1.193 0 2.31.517 2.962 1.02l-1.247 1.463c-.636-.514-1.163-.774-1.767-.774-.48 0-.846.185-.971.436-.237.47.077.79.77 1.22l.522.332c1.602 1.01 1.984 2.07 1.582 3.06-.69 1.705-2.043 2.085-3.455 2.085"/></g></svg>