<svg width="40" height="62" viewBox="0 0 40 62" xmlns="http://www.w3.org/2000/svg" xmlns:xlink="http://www.w3.org/1999/xlink"><title>340F3CBB-D780-42C7-B4B2-E68683A56114</title><defs><path id="a" d="M0 61.92h39.826V0H0z"/></defs><g fill="none" fill-rule="evenodd"><path d="M5.885 57.924a.195.195 0 0 1-.197.193H4.176a.195.195 0 0 1-.196-.193v-7.796c0-.107.087-.194.196-.194h1.512c.109 0 .197.087.197.194v7.796z" fill="#565655"/><mask id="b" fill="#fff"><use xlink:href="#a"/></mask><path d="M4.495 57.61h.874v-7.168h-.874v7.168zm1.193 1.015H4.176a.707.707 0 0 1-.712-.701v-7.796c0-.387.32-.701.712-.701h1.512c.393 0 .712.314.712.7v7.797c0 .386-.32.7-.712.7zM35.347 57.924a.195.195 0 0 1-.196.193h-1.513a.195.195 0 0 1-.196-.193v-7.796c0-.107.088-.194.196-.194h1.513c.108 0 .196.087.196.194v7.796z" fill="#565655" mask="url(#b)"/><path d="M33.958 57.61h.873v-7.168h-.873v7.168zm1.193 1.015h-1.512a.707.707 0 0 1-.713-.701v-7.796c0-.387.32-.701.713-.701h1.512c.393 0 .712.314.712.7v7.797c0 .386-.32.7-.712.7z" fill="#565655" mask="url(#b)"/><path d="M5.826 46.3a.195.195 0 0 1-.196-.193v-7.512c0-.107.088-.193.196-.193h2.61c.108 0 .196.086.196.193v7.512a.195.195 0 0 1-.197.194H5.826z" fill="#F1EEE5" mask="url(#b)"/><path d="M6.145 45.793h1.97V38.91h-1.97v6.883zm2.29 1.015h-2.61a.707.707 0 0 1-.711-.7v-7.513c0-.386.32-.7.712-.7h2.61c.392 0 .711.314.711.7v7.512c0 .387-.32.701-.712.701z" fill="#565655" mask="url(#b)"/><path d="M31.149 46.3a.195.195 0 0 1-.196-.193v-7.512c0-.107.088-.193.196-.193h2.61c.108 0 .196.086.196.193v7.512a.195.195 0 0 1-.197.194H31.15z" fill="#F1EEE5" mask="url(#b)"/><path d="M31.468 45.793h1.97V38.91h-1.97v6.883zm2.29 1.015H31.15a.707.707 0 0 1-.712-.7v-7.513c0-.386.32-.7.712-.7h2.61c.392 0 .711.314.711.7v7.512c0 .387-.32.701-.712.701z" fill="#565655" mask="url(#b)"/><path d="M28.188 17.858a.885.885 0 0 1-.204-.024c-2.518-.6-5.309-.917-8.071-.917-2.67 0-5.27.282-7.726.837a.867.867 0 0 1-1.038-.64.852.852 0 0 1 .65-1.022 36.875 36.875 0 0 1 8.114-.88c2.939 0 5.791.325 8.478.965.465.11.75.572.638 1.029a.864.864 0 0 1-.84.652" fill="#CECCC3" mask="url(#b)"/><path d="M31.316 2.183C27.95 1.119 24.06.508 19.913.508c-4.149 0-8.038.61-11.403 1.675-1.726.545-3.313 1.21-4.724 1.976l8.738 41.899h14.779l8.737-41.9c-1.411-.765-2.998-1.43-4.724-1.975" fill="#409ECF" mask="url(#b)"/><path d="M12.944 45.55h13.938l8.576-41.124a26.915 26.915 0 0 0-4.3-1.76c-3.415-1.08-7.303-1.65-11.245-1.65-3.942 0-7.83.57-11.245 1.65-1.555.492-3 1.083-4.3 1.76l8.576 41.124zm14.358 1.015H12.524a.514.514 0 0 1-.506-.405L3.28 4.26a.505.505 0 0 1 .257-.547C4.98 2.931 6.6 2.254 8.352 1.7 11.868.588 15.865 0 19.912 0c4.048 0 8.046.588 11.561 1.7 1.753.553 3.373 1.231 4.816 2.014a.505.505 0 0 1 .256.547L27.808 46.16a.514.514 0 0 1-.506.405z" fill="#565655" mask="url(#b)"/><path d="M13.739 44.927a.385.385 0 0 1-.379-.305L5.175 5.036a.38.38 0 0 1 .21-.419A27.195 27.195 0 0 1 8.862 3.26c3.353-1.06 7.175-1.62 11.052-1.62s7.699.56 11.051 1.62c1.235.39 2.404.847 3.476 1.358.192.092.273.32.18.509a.39.39 0 0 1-.517.177 26.377 26.377 0 0 0-3.375-1.32C27.45 2.949 23.71 2.4 19.913 2.4c-3.798 0-7.538.548-10.815 1.584a26.71 26.71 0 0 0-3.104 1.192l8.125 39.295a.381.381 0 0 1-.38.456" fill="#FFF" mask="url(#b)"/><path d="M30.164 15.579l1.728-9.575a26.788 26.788 0 0 0-1.636-.575c-3.127-.99-6.704-1.512-10.343-1.512-3.64 0-7.216.523-10.343 1.512-.564.178-1.11.37-1.636.575l2.27 9.575c2.834-.766 6.519-1.167 9.709-1.167 3.19 0 7.418.401 10.251 1.167" fill="#F1EEE5" mask="url(#b)"/><path d="M8.538 6.319l2.048 8.636c2.683-.661 6.121-1.051 9.327-1.051 2.81 0 6.848.324 9.841 1.046l1.556-8.623c-.394-.146-.8-.285-1.212-.415-3.077-.973-6.6-1.487-10.185-1.487-3.586 0-7.108.514-10.185 1.487-.403.127-.801.263-1.19.407m1.666 9.767a.509.509 0 0 1-.502-.392l-2.27-9.575a.506.506 0 0 1 .312-.587c.54-.21 1.1-.408 1.668-.587 3.178-1.005 6.809-1.536 10.5-1.536 3.692 0 7.324.531 10.502 1.536.572.181 1.133.378 1.668.587.228.089.36.323.318.56l-1.728 9.575a.508.508 0 0 1-.232.34.522.522 0 0 1-.412.061c-2.94-.794-7.199-1.149-10.115-1.149-3.33 0-6.908.43-9.572 1.15a.524.524 0 0 1-.137.017" fill="#565655" mask="url(#b)"/><path d="M25.465 14.598a.506.506 0 0 1-.493-.657l1.504-4.807a.517.517 0 0 1 .645-.336.507.507 0 0 1 .34.635l-1.503 4.806a.515.515 0 0 1-.493.359" fill="#BE1521" mask="url(#b)"/><path d="M39.31 55.367a.195.195 0 0 1-.197.193H.713a.195.195 0 0 1-.197-.193V44.502c0-.107.088-.193.196-.193h38.401c.109 0 .197.086.197.193v10.865z" fill="#409ECF" mask="url(#b)"/><path d="M1.032 55.052h37.762V44.816H1.032v10.236zm38.081 1.016H.713A.707.707 0 0 1 0 55.367V44.502c0-.387.32-.701.712-.701h38.401c.393 0 .713.314.713.7v10.866c0 .386-.32.7-.713.7z" fill="#565655" mask="url(#b)"/><path d="M2.051 54.43a.384.384 0 0 1-.387-.381V45.82c0-.21.174-.38.387-.38h35.724c.213 0 .386.17.386.38s-.173.38-.386.38H2.438v7.849c0 .21-.173.38-.387.38" fill="#FFF" mask="url(#b)"/><path d="M30.073 52.241a.195.195 0 0 1-.196.194H9.949a.195.195 0 0 1-.197-.194v-3.25c0-.107.088-.193.197-.193h19.928c.108 0 .196.086.196.193v3.25z" fill="#58C9F1" mask="url(#b)"/><path d="M10.268 51.927h19.29v-2.621h-19.29v2.621zm19.609 1.015H9.949a.707.707 0 0 1-.712-.7v-3.25c0-.387.32-.702.712-.702h19.928c.393 0 .712.315.712.701v3.25c0 .387-.32.701-.712.701z" fill="#565655" mask="url(#b)"/><path d="M23.838 29.084c0 2.37-1.95 4.29-4.358 4.29-2.407 0-4.359-1.92-4.359-4.29s1.952-4.29 4.359-4.29 4.358 1.92 4.358 4.29" fill="#58C9F1" mask="url(#b)"/><path d="M8.944 61.22a.195.195 0 0 1-.196.193H1.116a.195.195 0 0 1-.196-.193V58.65c0-.106.088-.193.196-.193h7.632c.108 0 .196.087.196.193v2.569z" fill="#F1EEE5" mask="url(#b)"/><path d="M1.436 60.905h6.992v-1.94H1.436v1.94zm7.312 1.016H1.116a.707.707 0 0 1-.712-.701V58.65c0-.386.32-.7.712-.7h7.632c.393 0 .712.314.712.7v2.569c0 .386-.32.7-.712.7z" fill="#565655" mask="url(#b)"/><path d="M38.407 61.22a.195.195 0 0 1-.196.193h-7.632a.195.195 0 0 1-.197-.193V58.65c0-.106.088-.193.197-.193h7.632c.108 0 .196.087.196.193v2.569z" fill="#F1EEE5" mask="url(#b)"/><path d="M30.898 60.905h6.993v-1.94h-6.993v1.94zm7.312 1.016H30.58a.707.707 0 0 1-.712-.701V58.65c0-.386.32-.7.712-.7h7.631c.393 0 .713.314.713.7v2.569c0 .386-.32.7-.713.7z" fill="#565655" mask="url(#b)"/><path d="M28.635 35.472c-1.12 0-1.726.34-2.643.854-.241.135-.49.274-.771.42-1.02.531-1.836.25-2.49.022-.316-.109-.614-.212-.932-.232-.63-.035-.981.163-1.511.468-.19.109-.388.222-.615.333-.542.264-1.025.37-1.463.37-.722 0-1.325-.287-1.877-.628-.831-.514-1.048-.471-1.96-.292-.17.034-.358.07-.568.108-1.077.188-1.776.058-2.408-.278 2.23 1.533 4.983 2.44 7.962 2.44 3.657 0 6.974-1.366 9.403-3.583l-.126-.002z" fill="#38AC33" mask="url(#b)"/><path d="M29.839 29.153c-1.124-.051-1.702.096-1.817.464a.735.735 0 0 1-.64.51c-.266.023-.517.05-.758.077-.952.105-1.85.205-2.984-.058-.876-.203-1.555-.18-2.343.081-1.574.522-2.422.42-3.908.176l-.415-.071c-1.05-.182-1.809-.313-2.656.136l-.273.147c-.754.41-1.298.707-2.539.403-.198-.048-.377-.099-.55-.147-.687-.194-1.011-.272-1.505-.095a7.885 7.885 0 0 0-.44.178c-.378.161-.81.346-1.332.346a2.34 2.34 0 0 1-.827-.155 12.437 12.437 0 0 0 1.713 2.847c.837-.067 1.741-.027 2.606.678.948.773 1.27.988 2.375.794.198-.035.376-.07.538-.102 1.12-.22 1.764-.298 3.034.486.79.488 1.199.528 1.9.187.182-.09.35-.185.527-.287.593-.34 1.266-.73 2.344-.662.523.031.953.18 1.332.311.596.207.878.29 1.31.065.26-.136.5-.27.73-.4 1-.56 1.862-1.043 3.374-1.043h.001c.211 0 .424.006.65.013.275.008.554.016.824.013a12.208 12.208 0 0 0 2.519-5.379c-.76.341-1.696.539-2.79.487M6.968 29.444c.08.096.199.242.254.275.446.225.651.137 1.2-.098.155-.066.331-.142.525-.211.965-.345 1.702-.138 2.415.064.158.044.323.09.5.134.678.166.799.1 1.47-.265.088-.048.183-.1.286-.154 1.298-.688 2.422-.494 3.611-.288.132.022.266.046.403.068 1.41.231 1.96.29 3.193-.119 1.044-.346 2.017-.383 3.154-.118.884.205 1.588.127 2.48.028l.368-.04c.716-1.128 2.4-1.05 3.08-1.019 1.035.047 2.218-.244 2.928-.876.004-.137.008-.273.008-.411 0-.705-.063-1.396-.181-2.07-1.521.16-2.82-.201-4.078-.553-.99-.277-1.925-.54-2.92-.526-.755.01-1.44.276-2.167.558-.638.247-1.297.503-2.064.62-1.558.236-2.834-.013-4.185-.278l-.078-.015c-1.229-.24-2.358.113-3.554.488-.97.303-1.973.617-3.115.661l-.528.019c-1.684.058-2.938.1-4.094.817-.002.093-.004.186-.004.279 0 .796.08 1.574.23 2.329.017.006.035.01.052.017.372.148.615.445.81.684M11.661 18.42c.27.022.522.055.766.087.75.098 1.34.176 1.994-.101a8.74 8.74 0 0 0 .742-.374c.492-.266 1.048-.568 1.765-.732 1.446-.332 2.854-.126 4.215.073 1.073.157 2.086.306 3.046.182.432-.056.868-.245 1.33-.446.478-.208.973-.423 1.535-.526.25-.046.489-.058.719-.048-2.306-1.73-5.231-2.764-8.414-2.764-4.401 0-8.31 1.977-10.77 5.036.935-.365 1.914-.486 3.072-.388" fill="#38AC33" mask="url(#b)"/><path d="M10.444 23.847c.942-.037 1.808-.307 2.725-.594 1.321-.414 2.687-.84 4.288-.528l.079.015c1.272.25 2.371.465 3.671.267.605-.092 1.16-.308 1.749-.536.817-.318 1.663-.646 2.69-.659 1.207-.01 2.293.288 3.342.582 1.112.31 2.168.605 3.331.522a12.35 12.35 0 0 0-2.435-4.404.745.745 0 0 1-.287-.02c-.24-.064-.47-.14-.691-.215-.574-.193-1.07-.359-1.582-.265-.393.072-.79.244-1.21.427-.536.233-1.09.474-1.733.557-1.165.15-2.33-.02-3.455-.185-1.281-.188-2.491-.365-3.663-.096-.518.119-.94.348-1.388.59a10.01 10.01 0 0 1-.87.435c-1.027.436-1.915.32-2.773.207-.227-.03-.462-.06-.698-.08-1.197-.102-2.104.074-3.032.588-.18.1-.513.36-.836.613-.296.232-.565.44-.816.618-.375.872-.649 1.79-.81 2.745 1.213-.474 2.49-.518 3.882-.566l.522-.018" fill="#38AC33" mask="url(#b)"/><path d="M29.908 27.701c-.68-.031-2.365-.109-3.082 1.02-.125.012-.247.026-.367.04-.892.098-1.596.176-2.48-.03-1.137-.264-2.11-.227-3.154.12-1.234.408-1.784.35-3.193.118-.137-.022-.271-.046-.402-.068-1.19-.206-2.314-.4-3.612.288-.103.054-.198.106-.287.154-.67.365-.79.43-1.469.265-.177-.043-.342-.09-.5-.134-.713-.202-1.45-.409-2.415-.064-.194.07-.37.145-.525.211-.548.235-.754.323-1.2.098-.055-.033-.175-.179-.254-.275-.196-.239-.44-.536-.811-.684l-.053-.017c.166.832.418 1.636.748 2.402.299.111.573.155.827.155.521 0 .954-.185 1.331-.346.143-.061.29-.124.441-.178.494-.177.818-.099 1.505.095.173.048.352.099.55.147 1.24.304 1.786.007 2.54-.403l.272-.147c.847-.449 1.606-.318 2.656-.136.136.024.274.047.415.07 1.486.244 2.334.347 3.908-.175.788-.261 1.467-.284 2.343-.081 1.134.263 2.032.164 2.984.058.241-.026.492-.054.757-.077a.736.736 0 0 0 .64-.51c.116-.368.694-.515 1.818-.464 1.094.052 2.03-.146 2.79-.487.115-.6.184-1.215.206-1.84-.71.631-1.893.922-2.927.875M29.285 34.032c-.225-.007-.438-.013-.649-.013h-.001c-1.512 0-2.375.484-3.374 1.044-.23.13-.47.263-.73.399-.432.224-.714.142-1.31-.065-.38-.13-.809-.28-1.332-.31-1.078-.068-1.75.32-2.345.661a8.82 8.82 0 0 1-.527.287c-.7.342-1.108.301-1.899-.187-1.27-.784-1.914-.706-3.034-.486-.162.032-.34.067-.538.102-1.105.194-1.427-.02-2.375-.793-.865-.706-1.769-.746-2.606-.68.8 1.001 1.755 1.886 2.832 2.626.633.336 1.331.466 2.408.278.21-.037.397-.074.569-.108.911-.18 1.128-.222 1.96.292.551.34 1.154.628 1.876.628.439 0 .921-.106 1.463-.37.227-.11.424-.224.615-.333.53-.305.88-.503 1.51-.468.319.02.617.123.933.232.654.227 1.47.51 2.49-.022.28-.146.53-.285.77-.42.917-.514 1.523-.854 2.644-.854h.001l.126.002c.486-.444.937-.922 1.348-1.43-.27.004-.549-.004-.825-.012M10.501 25.299c1.142-.044 2.145-.358 3.115-.661 1.196-.375 2.325-.728 3.554-.488l.078.015c1.351.265 2.627.514 4.184.278.768-.117 1.427-.373 2.065-.62.726-.282 1.412-.548 2.168-.558.994-.014 1.929.25 2.92.526 1.257.352 2.556.713 4.076.553-.085-.486-.2-.963-.342-1.428-1.163.083-2.22-.212-3.331-.523-1.05-.293-2.135-.592-3.342-.58-1.027.012-1.873.34-2.69.658-.589.228-1.144.444-1.749.536-1.3.198-2.399-.018-3.671-.267l-.078-.015c-1.602-.313-2.968.114-4.29.528-.916.286-1.782.557-2.725.594l-.521.018c-1.391.048-2.67.092-3.881.566a11.944 11.944 0 0 0-.162 1.704c1.156-.716 2.41-.76 4.094-.817.173-.006.35-.012.528-.02M8.502 20.455c.928-.514 1.835-.69 3.032-.588.236.02.471.05.698.08.858.113 1.746.23 2.773-.207.314-.133.597-.287.87-.435.448-.242.87-.471 1.388-.59 1.172-.27 2.382-.092 3.662.096 1.127.164 2.29.335 3.456.185.642-.083 1.197-.324 1.734-.557.42-.183.817-.355 1.209-.427.512-.094 1.008.072 1.582.265.222.074.451.151.691.216a.745.745 0 0 0 .287.02 13.174 13.174 0 0 0-2.111-1.978c-.23-.01-.47.002-.72.048-.56.103-1.056.318-1.535.526-.461.2-.897.39-1.329.446-.96.124-1.974-.025-3.046-.182-1.361-.199-2.769-.405-4.215-.073-.717.164-1.273.466-1.765.732a8.737 8.737 0 0 1-.742.373c-.653.278-1.245.2-1.994.102a16.461 16.461 0 0 0-.766-.088c-1.158-.098-2.137.023-3.072.388a12.433 12.433 0 0 0-1.739 2.88c.25-.18.52-.387.816-.619.323-.252.656-.514.836-.613" fill="#269425" mask="url(#b)"/><path d="M19.359 14.29c-7.145 0-12.957 5.439-12.957 12.124 0 6.685 5.812 12.124 12.957 12.124 7.144 0 12.956-5.439 12.956-12.124 0-6.685-5.812-12.124-12.956-12.124m0 25.285c-7.726 0-14.01-5.904-14.01-13.161s6.284-13.161 14.01-13.161c7.725 0 14.01 5.904 14.01 13.161s-6.285 13.161-14.01 13.161" fill="#575756" mask="url(#b)"/><path d="M6.961 26.795a.384.384 0 0 1-.387-.381c0-6.592 5.735-11.955 12.785-11.955.213 0 .387.17.387.38 0 .211-.174.382-.387.382-6.623 0-12.011 5.02-12.011 11.193 0 .21-.173.38-.387.38" fill="#FFF" mask="url(#b)"/><path d="M36.04 40.605c0 .148-.353.269-.79.269H4.576c-.436 0-.79-.12-.79-.27v-3.576c0-.148.354-.269.79-.269h30.676c.436 0 .789.12.789.27v3.576z" fill="#F1EEE5" mask="url(#b)"/><path d="M4.301 40.344c.071.012.164.022.274.022H35.25c.11 0 .203-.01.273-.022v-3.055a1.587 1.587 0 0 0-.273-.022H4.575c-.11 0-.203.01-.274.022v3.055zm30.95 1.038H4.575c-.805 0-1.305-.298-1.305-.777v-3.576c0-.48.5-.777 1.305-.777H35.25c.805 0 1.305.297 1.305.777v3.576c0 .479-.5.777-1.305.777z" fill="#565655" mask="url(#b)"/><path d="M5.476 39.812a.384.384 0 0 1-.387-.38V38.27c0-.21.173-.381.387-.381h28.63c.213 0 .386.17.386.38s-.173.381-.387.381H5.863v.78c0 .21-.173.381-.387.381" fill="#FFF" mask="url(#b)"/></g></svg>