<?xml version="1.0" encoding="UTF-8" standalone="no"?>
<svg width="160px" height="160px" viewBox="0 0 160 160" version="1.1" xmlns="http://www.w3.org/2000/svg" xmlns:xlink="http://www.w3.org/1999/xlink">
    <!-- Generator: Sketch 41.2 (35397) - http://www.bohemiancoding.com/sketch -->
    <title>saturation</title>
    <desc>Created with Sketch.</desc>
    <defs>
        <path d="M28.7711219,85.8801039 L34.6153846,91.4606793 L33.0841136,91.8088887 L32.3385368,93.4615385 L27.0263964,87.6534355 C26.4503721,87.0677057 26.3731651,86.196029 26.8545731,85.7071522 C27.336738,85.216738 28.1950976,85.2943741 28.7711219,85.8801039 L28.7711219,85.8801039 Z" id="path-1"></path>
        <rect id="path-3" x="10.3846154" y="64.6153846" width="49.6153846" height="49.6153846"></rect>
        <rect id="path-5" x="10.3846154" y="64.6153846" width="49.6153846" height="49.6153846"></rect>
        <rect id="path-7" x="3.27942801e-14" y="72.6923077" width="54.2307692" height="23.0769231" rx="4"></rect>
        <mask id="mask-8" maskContentUnits="userSpaceOnUse" maskUnits="objectBoundingBox" x="0" y="0" width="54.2307692" height="23.0769231" fill="white">
            <use xlink:href="#path-7"></use>
        </mask>
    </defs>
    <g id="Page-1" stroke="none" stroke-width="1" fill="none" fill-rule="evenodd">
        <g id="Mobile-Portrait-Copy" transform="translate(-128.000000, -406.000000)">
            <g id="Group-23" transform="translate(127.000000, 406.000000)">
                <g id="Group-17" transform="translate(0.000000, 2.000000)">
                    <path d="M113.076923,78.0383546 L134.234431,15 C134.234431,15 163.0202,37.1950527 122.895851,83.0769231 L113.076923,78.0383546 L113.076923,78.0383546 Z" id="Shape" fill="#88CEDB"></path>
                    <path d="M122.76606,84.2307692 C122.640987,84.2307692 122.515107,84.201953 122.39891,84.1427196 L112.362406,79.0518505 C112.006553,78.871749 111.837906,78.4595167 111.9654,78.0841051 L133.591735,14.3914093 C133.674848,14.1464713 133.872544,13.9567644 134.121076,13.881522 C134.370415,13.8046787 134.641542,13.8551071 134.847307,14.0127959 C135.214457,14.2929538 143.85095,21.0207455 145.205773,34.7300717 C146.653393,49.3847308 139.307169,65.9476653 123.372059,83.9586159 C123.214709,84.1355155 122.991999,84.2307692 122.76606,84.2307692 L122.76606,84.2307692 Z M113.716422,77.9408244 L122.573206,82.432956 C137.916034,64.9503032 144.989518,48.955689 143.599997,34.8853593 C142.563102,24.3818397 136.922712,18.1119061 134.733531,16.0443409 L113.716422,77.9408244 L113.716422,77.9408244 Z" id="Shape" fill="#575756"></path>
                    <path d="M111.923077,78.7677024 L128.651649,13.8461538 C128.651649,13.8461538 159.736885,33.934574 122.331679,83.0769231 L111.923077,78.7677024 L111.923077,78.7677024 Z" id="Shape" fill="#88CEDB"></path>
                    <path d="M122.965978,84.2307692 C122.86258,84.2307692 122.757592,84.2109475 122.658171,84.1689255 L112.410647,79.8866431 C112.047164,79.7344124 111.850708,79.3403568 111.947743,78.9597799 L128.416636,14.4440762 C128.47947,14.1959084 128.659224,13.993727 128.898629,13.9001685 C129.138035,13.8074029 129.407665,13.8351533 129.622414,13.975491 C130.003396,14.2244517 138.99901,20.2288442 141.360458,33.667964 C143.884161,48.033947 137.909356,64.9386947 123.601477,83.912829 C123.447971,84.1181819 123.210156,84.2307692 122.965978,84.2307692 L122.965978,84.2307692 Z M113.65858,78.6886189 L122.701121,82.4674299 C136.452241,64.0792253 142.205139,47.7707147 139.801536,33.9859043 C138.00639,23.6897149 131.973523,17.8851252 129.662183,15.9957197 L113.65858,78.6886189 L113.65858,78.6886189 Z" id="Shape" fill="#575756"></path>
                    <path d="M116.538462,76.6407409 L154.468086,20.7692308 C154.468086,20.7692308 176.775551,50.2760984 124.834433,84.2307692 L116.538462,76.6407409 L116.538462,76.6407409 Z" id="Shape" fill="#88CEDB"></path>
                    <path d="M125.545116,84.2307692 C125.35048,84.2307692 125.15744,84.1597623 125.005879,84.0209397 L116.796884,76.4838324 C116.505728,76.216559 116.453879,75.7761565 116.675636,75.4490458 L154.207599,19.9670955 C154.35198,19.7540747 154.589691,19.6232305 154.848141,19.6168478 C155.101008,19.6000934 155.349886,19.7285441 155.505435,19.9343845 C155.780637,20.299791 162.221161,29.040825 159.868782,42.567248 C157.352878,57.0263353 145.952338,70.9995436 125.983843,84.099925 C125.849034,84.1876864 125.697474,84.2307692 125.545116,84.2307692 L125.545116,84.2307692 Z M118.382686,75.773763 L125.62648,82.4244803 C144.870675,69.6895054 155.858013,56.2045696 158.288565,42.3366749 C160.1041,31.9784379 156.390868,24.4333522 154.853725,21.8587523 L118.382686,75.773763 L118.382686,75.773763 Z" id="Shape" fill="#575756"></path>
                    <path d="M114.230769,75.4328439 L145.384033,16.1538462 C145.384033,16.1538462 171.105591,42.5406799 123.395206,81.9230769 L114.230769,75.4328439 L114.230769,75.4328439 Z" id="Shape" fill="#88CEDB"></path>
                    <path d="M122.934399,83.0769231 C122.770563,83.0769231 122.607527,83.0271322 122.466868,82.9259443 L113.408743,76.3672027 C113.088264,76.1343099 112.984368,75.7006476 113.165786,75.34649 L143.954939,15.4344288 C144.073221,15.2039453 144.295398,15.0457388 144.550343,15.0079941 C144.804488,14.9718556 145.064228,15.0593912 145.24165,15.2473115 C145.558932,15.5805891 152.999478,23.5527488 152.255423,37.3528488 C151.46022,52.1037936 141.767531,67.4249242 123.447485,82.8890027 C123.300432,83.0134799 123.117416,83.0769231 122.934399,83.0769231 L122.934399,83.0769231 Z M114.902446,75.4677548 L122.895238,81.2555412 C140.556744,66.2267312 149.896187,51.4284047 150.660222,37.2653132 C151.230051,26.6919824 146.654635,19.6248921 144.82287,17.2453707 L114.902446,75.4677548 L114.902446,75.4677548 Z" id="Shape" fill="#575756"></path>
                    <path d="M114.230769,78.0383546 L93.0732609,15 C93.0732609,15 64.2874924,37.1950527 104.411841,83.0769231 L114.230769,78.0383546 L114.230769,78.0383546 Z" id="Shape" fill="#88CEDB"></path>
                    <path d="M104.541637,84.2307692 C104.315699,84.2307692 104.092181,84.1363144 103.934832,83.9586111 C87.9997295,65.9465477 80.6543156,49.3833259 82.1019343,34.7292131 C83.4559499,21.019649 92.0932465,14.2909402 92.4603961,14.0115779 C92.6669683,13.8546868 92.9380942,13.8058584 93.1866262,13.8803017 C93.4351583,13.9547449 93.6336612,14.1460561 93.7159673,14.3901979 L115.342292,78.0839985 C115.469786,78.460217 115.301139,78.871656 114.945287,79.0517607 L104.908787,84.1427181 C104.79259,84.2019525 104.667517,84.2307692 104.541637,84.2307692 L104.541637,84.2307692 Z M92.576593,16.0455595 C90.3833781,18.1243671 84.7276595,24.4264281 83.7036751,34.9285289 C82.333521,48.9886966 89.407809,64.9691799 104.734492,82.4329248 L113.592078,77.9407153 L92.576593,16.0455595 L92.576593,16.0455595 Z" id="Shape" fill="#575756"></path>
                    <path d="M115.384615,78.7677024 L98.6560434,13.8461538 C98.6560434,13.8461538 67.5708069,33.934574 104.976013,83.0769231 L115.384615,78.7677024 L115.384615,78.7677024 Z" id="Shape" fill="#88CEDB"></path>
                    <path d="M104.34379,84.2307692 C104.099605,84.2307692 103.862579,84.1181794 103.707478,83.9144076 C89.3991974,64.9398458 83.4234283,48.0347173 85.9472025,33.6684106 C88.3087169,20.2281952 97.3037885,14.2244602 97.6847806,13.9754939 C97.9003314,13.835153 98.1691734,13.807402 98.4085859,13.9001697 C98.6487939,13.9929374 98.8277567,14.1959163 98.8905926,14.4440897 L115.359949,78.961247 C115.456987,79.3418324 115.260525,79.7358969 114.897032,79.888131 L104.650015,84.1705099 C104.552182,84.2101542 104.447191,84.2307692 104.34379,84.2307692 L104.34379,84.2307692 Z M97.6466018,15.9933895 C95.3351969,17.8828375 89.3029551,23.6883509 87.5069633,33.9839794 C85.1032931,47.7698933 90.8555574,64.0787713 104.60786,82.4665972 L113.649859,78.6877012 L97.6466018,15.9933895 L97.6466018,15.9933895 Z" id="Shape" fill="#575756"></path>
                    <path d="M110.769231,76.6407409 L72.8396065,20.7692308 C72.8396065,20.7692308 50.5321408,50.2760984 102.473259,84.2307692 L110.769231,76.6407409 L110.769231,76.6407409 Z" id="Shape" fill="#88CEDB"></path>
                    <path d="M101.762747,84.2307692 C101.611184,84.2307692 101.458823,84.1876873 101.324809,84.0999279 C81.3559397,70.9998356 69.9551856,57.026138 67.4392342,42.5681677 C65.0860139,29.0420433 71.5266582,20.3012022 71.8018653,19.9358038 C71.9566195,19.729968 72.2031093,19.5935419 72.4591716,19.6182741 C72.7168293,19.6246566 72.9553421,19.755498 73.0997261,19.9685141 L110.632393,75.4492397 C110.853357,75.7771409 110.802304,76.216736 110.511143,76.4840034 L102.301994,84.0209444 C102.15043,84.1597639 101.957386,84.2307692 101.762747,84.2307692 L101.762747,84.2307692 Z M72.4535877,21.8593313 C70.9164163,24.4338744 67.2031144,31.9795914 69.0186837,42.3368019 C71.4492811,56.2043904 82.4376234,69.6890286 101.681382,82.4237224 L108.925312,75.7731518 L72.4535877,21.8593313 L72.4535877,21.8593313 Z" id="Shape" fill="#575756"></path>
                    <path d="M114.230769,75.4328439 L83.0775055,16.1538462 C83.0775055,16.1538462 57.3559478,42.5406799 105.066332,81.9230769 L114.230769,75.4328439 L114.230769,75.4328439 Z" id="Shape" fill="#88CEDB"></path>
                    <path d="M104.373696,83.0769231 C104.190682,83.0769231 104.007668,83.0134801 103.859019,82.8890033 C85.5392234,67.4249734 75.8474659,52.1038911 75.0522735,37.3529926 C74.3082291,23.5529361 81.7478737,15.5808015 82.0651515,15.2475249 C82.2433705,15.0604083 82.5007092,14.9712668 82.7564495,15.0082083 C83.0121897,15.0451498 83.2335649,15.2041588 83.352644,15.4346416 L114.141376,75.3465143 C114.323591,75.6998677 114.219697,76.1335287 113.898423,76.3672238 L104.840422,82.9259448 C104.700564,83.0271324 104.53753,83.0769231 104.373696,83.0769231 L104.373696,83.0769231 Z M82.4863238,17.2479871 C80.6537848,19.6387441 76.0680419,26.7403444 76.6514494,37.3088235 C77.4322565,51.4598242 86.7715719,66.2420426 104.413655,81.2555469 L112.406338,75.4677788 L82.4863238,17.2479871 L82.4863238,17.2479871 Z" id="Shape" fill="#575756"></path>
                    <path d="M46.4620342,106.306898 L42.2332672,106.306898 C38.578277,106.306898 35.6153846,103.723636 35.6153846,100.538064 C35.6153846,97.3524921 38.578277,94.7692308 42.2332672,94.7692308 L48.6128866,94.7692308 C52.2678769,94.7692308 55.2307692,97.3524921 55.2307692,100.538064 C55.2307692,102.355326 54.2647496,103.973937 52.7589909,105.031556 C52.9769936,105.418529 53.1107128,105.847616 53.1107128,106.307692" id="Shape" fill="#F5AA33"></path>
                    <path d="M52.518582,107.307692 C52.0810681,107.307692 51.7259843,106.964262 51.7259843,106.539393 C51.7259843,106.252049 51.6435541,105.9624 51.4810716,105.678129 C51.2860926,105.337004 51.3859599,104.908293 51.7125101,104.681645 C53.0385261,103.761222 53.7994199,102.405173 53.7994199,100.961538 C53.7994199,98.3093686 51.2512183,96.1519836 48.1196646,96.1519836 L41.8803354,96.1519836 C38.7487817,96.1519836 36.2005801,98.3093686 36.2005801,100.961538 C36.2005801,103.613708 38.7487817,105.771093 41.8803354,105.771093 L46.0153177,105.771093 C46.4528316,105.771093 46.8079154,106.114523 46.8079154,106.539393 C46.8079154,106.964262 46.4528316,107.307692 46.0153177,107.307692 L41.8803354,107.307692 C37.8745465,107.307692 34.6153846,104.460374 34.6153846,100.961538 C34.6153846,97.4627026 37.8745465,94.6153846 41.8803354,94.6153846 L48.1196646,94.6153846 C52.1254535,94.6153846 55.3846154,97.4627026 55.3846154,100.961538 C55.3846154,102.70942 54.5753731,104.348971 53.1439416,105.543677 C53.2549053,105.869436 53.3103871,106.202109 53.3103871,106.539393 C53.3111797,106.964262 52.9568886,107.307692 52.518582,107.307692 L52.518582,107.307692 Z" id="Shape" fill="#595957"></path>
                    <path d="M69.5693621,86.5384615 C69.5693621,86.5384615 65.5635314,93.4136689 45,94.9988648 L51.943707,124.615385 C51.943707,124.615385 70.7414681,123.295043 72.6923077,95.7934275 L69.5693621,86.5384615 L69.5693621,86.5384615 Z" id="Shape" fill="#009299"></path>
                    <path d="M53.47461,125.769231 C53.1247188,125.769231 52.8164813,125.513844 52.7369606,125.148778 L46.1730919,94.9795517 C46.1238648,94.7521857 46.1700626,94.5144121 46.3003251,94.3262748 C46.4305877,94.138938 46.6320402,94.0204515 46.8516689,94.0020381 C65.5087478,92.4521065 69.4446455,85.8448827 69.4825125,85.7784341 C69.6339806,85.5094378 69.926314,85.3525232 70.2171326,85.3901507 C70.511738,85.4237752 70.7624177,85.6335283 70.8555705,85.9305452 L73.8076831,95.3582282 C73.8387341,95.4575007 73.8516089,95.5615767 73.8440355,95.6656526 C72.8716105,110.432434 67.4399657,117.825831 63.0549652,121.427661 C58.2556995,125.369739 53.7199883,125.75402 53.5291385,125.76843 C53.5109624,125.76843 53.4927862,125.769231 53.47461,125.769231 L53.47461,125.769231 Z M47.8452994,95.5207468 L54.0600341,124.084801 C57.22193,123.547609 70.6768382,119.843304 72.3232961,95.7104854 L69.8460359,87.7983088 C67.8337826,89.9238607 62.1120765,94.1861725 47.8452994,95.5207468 L47.8452994,95.5207468 Z" id="Shape" fill="#575756"></path>
                    <path d="M152.613424,95.7692308 L146.233541,95.7692308 C142.578399,95.7692308 139.615385,98.4512789 139.615385,101.758671 C139.615385,103.645427 140.581444,105.325935 142.087265,106.423999 C141.869253,106.82577 141.735529,107.271266 141.735529,107.748936 C141.735529,109.417069 143.229193,110.769231 145.072162,110.769231 L148.288848,110.769231 C150.131818,110.769231 151.625482,109.417069 151.625482,107.748936 L152.612613,107.748936 C156.267754,107.748936 159.230769,105.066888 159.230769,101.759496 C159.230769,98.4521039 156.268565,95.7692308 152.613424,95.7692308 L152.613424,95.7692308 Z" id="Shape" fill="#F8C05E"></path>
                    <path d="M147.73731,111.923077 L144.591489,111.923077 C142.355571,111.923077 140.535767,110.24934 140.535767,108.192188 C140.535767,107.840791 140.591249,107.493396 140.702212,107.154807 C139.269988,105.909309 138.461538,104.201953 138.461538,102.380933 C138.461538,98.7348915 141.7207,95.7692308 145.727282,95.7692308 L151.965818,95.7692308 C155.971607,95.7692308 159.230769,98.735692 159.230769,102.380933 C159.230769,106.026975 155.971607,108.992636 151.965818,108.992636 L151.700298,108.992636 C151.300036,110.666373 149.676004,111.923077 147.73731,111.923077 L147.73731,111.923077 Z M145.727282,97.3701273 C142.594936,97.3701273 140.046734,99.617786 140.046734,102.380933 C140.046734,103.884175 140.807628,105.296966 142.133644,106.256704 C142.460987,106.492836 142.560854,106.940287 142.365875,107.294885 C142.203392,107.590251 142.120962,107.89202 142.120962,108.192188 C142.120962,109.367246 143.229014,110.32218 144.591489,110.32218 L147.73731,110.32218 C149.100578,110.32218 150.208629,109.367246 150.208629,108.192188 C150.208629,107.74954 150.562921,107.391739 151.001227,107.391739 L151.965818,107.391739 C155.097372,107.391739 157.645574,105.144081 157.645574,102.380933 C157.645574,99.617786 155.097372,97.3701273 151.965818,97.3701273 L145.727282,97.3701273 L145.727282,97.3701273 Z" id="Shape" fill="#595957"></path>
                    <path d="M147.435955,109.615385 C147.025296,109.615385 146.692308,109.295026 146.692308,108.899944 C146.692308,108.504862 147.025296,108.184504 147.435955,108.184504 C147.636739,108.184504 147.77638,108.115345 147.836698,108.068444 L147.836698,105.989692 C147.836698,105.59461 148.169686,105.274252 148.580344,105.274252 L151.843302,105.274252 C153.908987,105.274252 155.588803,103.980895 155.588803,102.391028 C155.588803,100.801161 153.908987,99.5078036 151.843302,99.5078036 C151.432643,99.5078036 151.099655,99.1874453 151.099655,98.7923633 C151.099655,98.3972813 151.432643,98.0769231 151.843302,98.0769231 C154.728652,98.0769231 157.076923,100.012586 157.076923,102.391823 C157.076923,104.771059 154.728652,106.706722 151.843302,106.706722 L149.323991,106.706722 L149.323991,108.163041 C149.324818,108.94923 148.460535,109.615385 147.435955,109.615385 L147.435955,109.615385 Z" id="Shape" fill="#FFFFFF"></path>
                    <path d="M111.923077,143.412695 C111.923077,147.05052 108.823254,150 105,150 L105,150 C101.176746,150 98.0769231,147.05052 98.0769231,143.412695 L98.0769231,127.741151 C98.0769231,124.103326 101.176746,121.153846 105,121.153846 L105,121.153846 C108.823254,121.153846 111.923077,124.103326 111.923077,127.741151 L111.923077,143.412695 L111.923077,143.412695 Z" id="Shape" fill="#EA5767"></path>
                    <path d="M104.423077,150 C100.287872,150 96.9230769,146.735711 96.9230769,142.724024 L96.9230769,127.275976 C96.9230769,123.264289 100.287872,120 104.423077,120 C108.558282,120 111.923077,123.264289 111.923077,127.275976 L111.923077,142.724024 C111.923077,146.735711 108.558282,150 104.423077,150 L104.423077,150 Z M104.423077,121.565231 C101.177675,121.565231 98.5365006,124.126732 98.5365006,127.275976 L98.5365006,142.724024 C98.5365006,145.872486 101.176868,148.434769 104.423077,148.434769 C107.669285,148.434769 110.309653,145.873268 110.309653,142.724024 L110.309653,127.275976 C110.309653,124.126732 107.668479,121.565231 104.423077,121.565231 L104.423077,121.565231 Z" id="Shape" fill="#595957"></path>
                    <path d="M104.423478,148.846154 C101.560862,148.846154 99.2307692,146.490429 99.2307692,143.594512 L99.2307692,127.560147 C99.2307692,124.66423 101.560059,122.307692 104.423478,122.307692 C104.82267,122.307692 105.146361,122.635057 105.146361,123.038779 C105.146361,123.442502 104.82267,123.769866 104.423478,123.769866 C102.35764,123.769866 100.677338,125.47005 100.677338,127.559335 L100.677338,143.593699 C100.677338,145.682984 102.35764,147.382355 104.423478,147.382355 C106.489317,147.382355 108.169619,145.682984 108.169619,143.593699 C108.169619,143.189977 108.493309,142.862612 108.892501,142.862612 C109.291693,142.862612 109.615384,143.189977 109.615384,143.593699 C109.616188,146.490429 107.286095,148.846154 104.423478,148.846154 L104.423478,148.846154 Z" id="Shape" fill="#FFFFFF"></path>
                    <path d="M130.384615,142.258849 C130.384615,145.896674 127.284792,148.846154 123.461538,148.846154 L123.461538,148.846154 C119.638284,148.846154 116.538462,145.896674 116.538462,142.258849 L116.538462,126.587305 C116.538462,122.94948 119.638284,120 123.461538,120 L123.461538,120 C127.284792,120 130.384615,122.94948 130.384615,126.587305 L130.384615,142.258849 L130.384615,142.258849 Z" id="Shape" fill="#EA5767"></path>
                    <path d="M122.884615,150 C118.74941,150 115.384615,146.735711 115.384615,142.724024 L115.384615,127.275976 C115.384615,123.264289 118.74941,120 122.884615,120 C127.01982,120 130.384615,123.264289 130.384615,127.275976 L130.384615,142.724024 C130.384615,146.735711 127.01982,150 122.884615,150 L122.884615,150 Z M122.884615,121.565231 C119.639214,121.565231 116.998039,124.126732 116.998039,127.275976 L116.998039,142.724024 C116.998039,145.872486 119.638407,148.434769 122.884615,148.434769 C126.130824,148.434769 128.771192,145.873268 128.771192,142.724024 L128.771192,127.275976 C128.771192,124.126732 126.130017,121.565231 122.884615,121.565231 L122.884615,121.565231 Z" id="Shape" fill="#595957"></path>
                    <path d="M122.885418,147.692308 C120.02258,147.692308 117.692308,145.346729 117.692308,142.462475 L117.692308,126.497169 C117.692308,126.095185 118.016024,125.769231 118.415247,125.769231 C118.814469,125.769231 119.138185,126.095185 119.138185,126.497169 L119.138185,142.462475 C119.138185,144.542761 120.818616,146.235622 122.884615,146.235622 C124.950613,146.235622 126.631045,144.542761 126.631045,142.462475 C126.631045,142.060491 126.954761,141.734537 127.353983,141.734537 C127.753206,141.734537 128.076922,142.060491 128.076922,142.462475 C128.078529,145.346729 125.748256,147.692308 122.885418,147.692308 L122.885418,147.692308 Z" id="Shape" fill="#FFFFFF"></path>
                    <ellipse id="Oval" fill="#00A6B0" cx="100.807692" cy="102.269231" rx="36.3461538" ry="36.3461538"></ellipse>
                    <path d="M100.961942,139.615385 C80.2842473,139.615385 63.4615385,123.051665 63.4615385,102.692308 C63.4615385,82.3329506 80.2842473,65.7692308 100.961942,65.7692308 C121.639636,65.7692308 138.461538,82.3329506 138.461538,102.692308 C138.461538,123.051665 121.639636,139.615385 100.961942,139.615385 L100.961942,139.615385 Z M100.961942,67.3576959 C81.1739835,67.3576959 65.0748407,83.2089891 65.0748407,102.692308 C65.0748407,122.175626 81.1739835,138.02692 100.961942,138.02692 C120.7499,138.02692 136.848236,122.175626 136.848236,102.692308 C136.848236,83.2089891 120.7499,67.3576959 100.961942,67.3576959 L100.961942,67.3576959 Z" id="Shape" fill="#575756"></path>
                    <path d="M137.002652,96.9243121 C134.8415,97.0232404 132.923155,98.2391009 131.928607,100.123525 C126.191261,111.004839 112.117236,118.943035 93.8238183,121.969922 C87.0750401,123.086854 80.4251539,123.334175 74.0574718,122.704704 C72.4936913,122.549929 70.9041828,123.021434 69.6812984,123.997952 C69.1844262,124.394463 69.0839262,125.106108 69.4529623,125.62229 C71.0127228,127.805893 74.3227919,131.902641 78.9715214,134.804271 C79.1580495,134.920751 79.3727175,134.983778 79.5930136,134.987767 C84.9412234,135.077919 90.3963652,134.669441 95.8080909,133.773502 C113.406049,130.8615 127.439873,124.256442 136.84748,113.821901 C136.97612,113.679093 137.06858,113.507565 137.11682,113.321675 C138.778689,106.910484 138.545529,100.973191 138.257697,98.0037473 C138.196593,97.371085 137.645049,96.895591 137.002652,96.9243121 L137.002652,96.9243121 Z" id="Shape" fill="#008186"></path>
                    <path d="M80.6103634,136.153846 C80.6103634,136.153846 80.6095646,136.153846 80.6103634,136.153846 C80.1246468,136.153846 79.6405279,136.149113 79.1572079,136.141224 C78.7913227,136.134123 78.4342251,136.029199 78.125859,135.837494 C73.3901218,132.89566 70.0268537,128.753898 68.4434814,126.547325 C67.8347379,125.698461 68.0001052,124.52299 68.8213498,123.869775 C70.1970143,122.777138 71.9793067,122.246204 73.749616,122.420552 C79.9776536,123.034322 86.5691798,122.788972 93.1790801,121.701069 C111.323153,118.712689 124.913632,110.989289 130.465021,100.511026 C131.580252,98.4078 133.769173,97.0343128 136.176985,96.9246547 C136.189767,96.9246547 136.257671,96.9230769 136.268856,96.9230769 C137.3034,96.9230769 138.157399,97.6898946 138.25566,98.7067957 C138.546451,101.692809 138.78212,107.667202 137.101285,114.125195 C137.019799,114.432869 136.865616,114.716086 136.654713,114.948814 C127.336623,125.234584 113.460945,131.95765 95.4119386,134.930251 C90.4844712,135.741248 85.504278,136.153846 80.6103634,136.153846 L80.6103634,136.153846 Z M73.0865489,123.96681 C71.9026146,123.96681 70.7434455,124.369153 69.8231403,125.10047 C69.6585719,125.230639 69.6258179,125.466522 69.7472471,125.636138 C71.2619161,127.747253 74.4749955,131.706777 78.9782597,134.503453 C79.040572,134.542898 79.111672,134.562621 79.1851686,134.564198 C84.4465662,134.651767 89.8293929,134.251791 95.151505,133.374527 C112.832229,130.461882 126.395547,123.908431 135.465985,113.897201 C135.508326,113.849866 135.539482,113.793065 135.555459,113.730741 C137.17558,107.507843 136.947101,101.740932 136.667495,98.857477 C136.647523,98.653939 136.477362,98.500891 136.270453,98.500891 C134.381112,98.586093 132.74741,99.6108832 131.881429,101.243132 C126.095968,112.163183 112.086079,120.187946 93.4427092,123.258372 C86.6954022,124.369942 79.9616761,124.618447 73.5922375,123.992055 C73.4236746,123.97391 73.2551118,123.96681 73.0865489,123.96681 L73.0865489,123.96681 Z" id="Shape" fill="#575756"></path>
                    <path d="M80.0431124,133.846154 C79.9078121,133.846154 79.7717065,133.806565 79.649292,133.723177 C76.0694727,131.294798 73.3441389,128.093178 71.6883215,125.835788 C71.4442978,125.503076 71.5046997,125.027171 71.8228164,124.772793 C72.1409331,124.516731 72.5951553,124.579904 72.839179,124.912617 C74.4257356,127.075668 77.0318763,130.139991 80.4385435,132.451289 C80.7743781,132.679555 80.8702158,133.148721 80.6527689,133.499965 C80.5134419,133.724861 80.2806932,133.846154 80.0431124,133.846154 L80.0431124,133.846154 Z" id="Shape" fill="#FFFFFF"></path>
                    <path d="M71.9650242,122.307692 C71.712597,122.307692 71.4674514,122.179936 71.3323381,121.951235 C67.5103313,115.461668 65.7692308,107.786803 65.7692308,103.402067 C65.7692308,103.010122 66.0952826,102.692308 66.4973862,102.692308 C66.8994898,102.692308 67.2255416,103.010122 67.2255416,103.402067 C67.2255416,107.603843 68.9059624,114.979821 72.5952832,121.243842 C72.7959304,121.584526 72.6753803,122.01748 72.3258657,122.213058 C72.2125971,122.276936 72.0880016,122.307692 71.9650242,122.307692 L71.9650242,122.307692 Z" id="Shape" fill="#FFFFFF"></path>
                    <ellipse id="Oval" fill="#F5AA33" cx="67.9230769" cy="64.0384615" rx="6.92307692" ry="6.34615385"></ellipse>
                    <path d="M67.5,72.6923077 C63.3647951,72.6923077 60,69.3275126 60,65.1923077 C60,61.0571028 63.3639884,57.6923077 67.5,57.6923077 C71.6360116,57.6923077 75,61.0562961 75,65.1923077 C75,69.3283193 71.6352049,72.6923077 67.5,72.6923077 L67.5,72.6923077 Z M67.5,59.3057314 C64.2545983,59.3057314 61.6134237,61.9460992 61.6134237,65.1923077 C61.6134237,68.4385161 64.2537915,71.078884 67.5,71.078884 C70.7462085,71.078884 73.3865763,68.4385161 73.3865763,65.1923077 C73.3865763,61.9469059 70.7462085,59.3057314 67.5,59.3057314 L67.5,59.3057314 Z" id="Shape" fill="#595957"></path>
                    <ellipse id="Oval" fill="#F5AA33" cx="105" cy="64.0384615" rx="6.92307692" ry="6.34615385"></ellipse>
                    <path d="M104.423077,72.6923077 C100.287872,72.6923077 96.9230769,69.3275126 96.9230769,65.1923077 C96.9230769,61.0571028 100.287872,57.6923077 104.423077,57.6923077 C108.558282,57.6923077 111.923077,61.0562961 111.923077,65.1923077 C111.923077,69.3283193 108.558282,72.6923077 104.423077,72.6923077 L104.423077,72.6923077 Z M104.423077,59.3057314 C101.177675,59.3057314 98.5365006,61.9460992 98.5365006,65.1923077 C98.5365006,68.4385161 101.176868,71.078884 104.423077,71.078884 C107.669285,71.078884 110.309653,68.4385161 110.309653,65.1923077 C110.309653,61.9469059 107.668479,59.3057314 104.423077,59.3057314 L104.423077,59.3057314 Z" id="Shape" fill="#595957"></path>
                    <path d="M107.600527,75.0577353 L100.928486,52.1890032 C96.2858573,51.2819043 91.0586306,50.7692308 85.5263963,50.7692308 C79.8861384,50.7692308 74.5651854,51.3025382 69.855042,52.2429688 L63.3021442,75.0069441 L62.3076923,78.4615385 L108.461538,78.0107667 L107.600527,75.0577353 L107.600527,75.0577353 Z" id="Shape" fill="#F8C05E"></path>
                    <path d="M63.1138215,79.6146028 C62.8622655,79.6146028 62.624416,79.5004566 62.4720311,79.3057826 C62.3180337,79.1095449 62.2688512,78.8538887 62.3389967,78.6162144 L69.999362,52.7871168 C70.0824078,52.5064422 70.3202572,52.2937863 70.6161581,52.2367132 C75.6384101,51.2625613 81.04364,50.7692308 86.6818818,50.7692308 C92.2153085,50.7692308 97.5278175,51.2445794 102.471055,52.1827674 C102.76615,52.2390586 103.005612,52.4501509 103.09027,52.7316073 L110.736929,78.1705751 C110.80788,78.4051221 110.760311,78.6592147 110.610344,78.8554523 C110.460378,79.05169 110.224141,79.1689635 109.970973,79.171309 L63.121078,79.6153846 C63.1186591,79.6146028 63.1162403,79.6146028 63.1138215,79.6146028 L63.1138215,79.6146028 Z M71.4127523,53.6791772 L64.1877723,78.0407924 L108.892184,77.6170442 L101.680911,53.6275769 C96.9755229,52.768353 91.932308,52.3328774 86.682688,52.3328774 C81.3298656,52.3328774 76.1955422,52.7855532 71.4127523,53.6791772 L71.4127523,53.6791772 Z" id="Shape" fill="#595957"></path>
                    <path d="M86.7973034,2.01838555 C86.7320031,1.53298773 86.3457753,1.15384615 85.859208,1.15384615 C85.474573,1.15384615 85.1480712,1.39131275 84.9935801,1.72940078 L84.945003,1.90085971 L84.9442066,1.90488457 L70.3846154,53.0769231 C75.1069463,52.1230318 80.4416672,51.582091 86.0965191,51.582091 C91.643068,51.582091 96.88382,52.1021026 101.538462,53.022185 L86.7973034,2.01838555 L86.7973034,2.01838555 Z" id="Shape" fill="#00A6B0"></path>
                    <path d="M70.0446373,53.0769231 C69.8192407,53.0769231 69.6019811,52.9851401 69.4457495,52.8191325 C69.2537149,52.6140174 69.1837361,52.3258985 69.2626656,52.0577325 L84.191734,1.14609058 C84.2031258,1.10778114 84.2177726,1.06947171 84.2348604,1.03355661 C84.5310495,0.405441513 85.1681814,0 85.8582043,0 C86.7329385,0 87.4603919,0.618537741 87.612555,1.48050001 L102.659611,52.0002684 C102.739354,52.2676363 102.671003,52.5565533 102.478968,52.7624665 C102.288561,52.9675816 102.005391,53.0617589 101.721407,53.0074872 C96.8351015,52.0697042 91.5785592,51.5940287 86.0990614,51.5940287 C80.5154092,51.5940287 75.1677318,52.0872627 70.2041238,53.0609608 C70.1512328,53.0721344 70.0975282,53.0769231 70.0446373,53.0769231 L70.0446373,53.0769231 Z M85.7312662,1.67124907 L85.7044139,1.76063775 L71.1927768,51.2524363 C75.8878618,50.4200042 80.89541,49.9986004 86.0990614,49.9986004 C91.1985584,49.9986004 96.1117166,50.4032438 100.725431,51.2021551 L86.0347786,1.87955662 C86.0233867,1.8420453 86.0152496,1.80293775 86.0095537,1.7638302 C85.9981618,1.68082643 85.9420161,1.59702454 85.8573906,1.59702454 C85.795549,1.59622643 85.7540499,1.63852643 85.7312662,1.67124907 L85.7312662,1.67124907 Z" id="Shape" fill="#575756"></path>
                    <path d="M73.4092573,50.7692308 C73.3432262,50.7692308 73.2771951,50.7604005 73.2103685,50.7411343 C72.830093,50.630354 72.6113153,50.2305817 72.7203064,49.8468645 L85.1341521,6.29255302 C85.2431432,5.90883581 85.6393297,5.68647249 86.0204008,5.79805553 C86.4006762,5.90883581 86.6194539,6.30860814 86.5104629,6.69232534 L74.0966171,50.2466368 C74.0067194,50.5637253 73.7203195,50.7692308 73.4092573,50.7692308 L73.4092573,50.7692308 Z" id="Shape" fill="#FFFFFF"></path>
                    <path d="M113.076923,92.6973274 C113.076923,90.128245 112.001169,87.8119777 110.278993,86.157845 C111.192537,84.9178474 111.738081,83.3937339 111.738081,81.7387986 C111.738081,77.5990527 108.363941,74.2434346 104.201345,74.2434346 C101.233941,74.2434346 98.6748887,75.9529458 97.445801,78.4313358 C94.6979064,75.6038203 90.8992751,73.8461538 86.6882577,73.8461538 C79.8520124,73.8461538 74.0721531,78.456216 72.1611356,84.7966567 C70.9102585,84.1577971 69.4955568,83.7902121 67.9920832,83.7902121 C62.9409607,83.7902121 58.8461538,87.8625407 58.8461538,92.8859354 C58.8461538,96.7841026 61.3164344,100.099591 64.7817676,101.394165 C64.7430307,101.735264 64.7180132,102.080377 64.7180132,102.431108 C64.7180132,107.454502 68.81282,111.526831 73.8639426,111.526831 C74.8331706,111.526831 75.7660828,111.374339 76.6433109,111.096644 C77.7368196,114.903316 81.2529948,117.692308 85.4309245,117.692308 C89.8049593,117.692308 93.4567135,114.636857 94.3589591,110.5557 C95.4912047,111.05491 96.7412748,111.33742 98.0591344,111.33742 C103.110257,111.33742 107.205064,107.265092 107.205064,102.241697 C107.205064,101.890164 107.180046,101.545051 107.141309,101.204754 C110.606642,99.9117858 113.076923,96.5954945 113.076923,92.6973274 L113.076923,92.6973274 Z" id="Shape" fill="#E2E4E6"></path>
                    <path d="M84.857181,117.692308 C80.7425522,117.692308 77.0513117,115.113864 75.621076,111.333206 C74.8879502,111.503248 74.1388173,111.588269 73.3856825,111.588269 C67.9424633,111.588269 63.5148955,107.191804 63.5148955,101.7878 C63.5148955,101.620936 63.5196976,101.450099 63.5309026,101.272906 C60.0141396,99.7059746 57.6923077,96.1891205 57.6923077,92.3369495 C57.6923077,86.9337394 62.1206759,82.5372744 67.5630947,82.5372744 C68.8284571,82.5372744 70.0530013,82.772473 71.2167185,83.237308 C73.5137394,76.8933036 79.3883504,72.6923077 86.1041352,72.6923077 C90.0058693,72.6923077 93.6923077,74.1241584 96.5927968,76.7463045 C98.1158737,74.4642428 100.666607,73.0856296 103.472655,73.0856296 C108.035482,73.0856296 111.747532,76.7709368 111.747532,81.3008928 C111.747532,82.8249159 111.327345,84.2933177 110.526189,85.5853206 C112.176523,87.3898339 113.076923,89.6973224 113.076923,92.1510155 C113.076923,96.0023919 110.754291,99.519246 107.237528,101.086972 C107.248733,101.263371 107.253535,101.434207 107.253535,101.601071 C107.253535,107.005076 102.825967,111.400746 97.3827479,111.400746 C96.3110716,111.400746 95.2626056,111.229909 94.2525567,110.892209 C92.9535794,114.882638 89.1414851,117.692308 84.857181,117.692308 L84.857181,117.692308 Z M76.6847488,109.36024 L76.9112494,110.148473 C77.9196976,113.654203 81.1867497,116.102334 84.857181,116.102334 C88.7076923,116.102334 92.1028012,113.393577 92.9295687,109.660595 L93.1400622,108.71106 L94.0356603,109.105177 C95.1001334,109.573984 96.2246332,109.811567 97.3811472,109.811567 C101.940774,109.811567 105.651223,106.127849 105.651223,101.601071 C105.651223,101.311046 105.632815,101.004334 105.593597,100.662661 L105.523966,100.047648 L106.107426,99.8299306 C109.317652,98.6324839 111.474611,95.5462974 111.474611,92.1502209 C111.474611,89.9078887 110.575811,87.811761 108.943886,86.2472138 L108.441263,85.7656925 L108.854246,85.2063013 C109.699422,84.0605029 110.14602,82.710495 110.14602,81.3008928 C110.14602,77.6473692 107.15189,74.6748091 103.471854,74.6748091 C100.917119,74.6748091 98.6240996,76.0939463 97.4891952,78.3783918 L96.9865718,79.3906991 L96.1966207,78.5786284 C93.499422,75.807894 89.9146287,74.2814871 86.1033348,74.2814871 C79.7997332,74.2814871 74.3180969,78.41097 72.4636727,84.5563269 L72.18755,85.4716943 L71.3311694,85.0354645 C70.149044,84.4323709 68.8812806,84.1264539 67.5622944,84.1264539 C63.0018675,84.1264539 59.2922188,87.8093772 59.2922188,92.3369495 C59.2922188,95.7338206 61.4491774,98.8200071 64.6602045,100.016659 L65.2444642,100.234377 L65.1740329,100.850184 C65.1348155,101.191857 65.1156069,101.497774 65.1156069,101.787005 C65.1156069,106.314577 68.826056,109.998295 73.3856825,109.998295 C74.2380614,109.998295 75.0840373,109.867188 75.8987995,109.608946 L76.6847488,109.36024 L76.6847488,109.36024 Z" id="Shape" fill="#595957"></path>
                    <path d="M84.8596314,116.538462 C81.4907841,116.538462 78.4919028,114.250659 77.5657895,110.974409 L77.1510761,109.507083 L75.7127637,109.970619 C74.9640422,110.212078 74.1881526,110.334826 73.4058704,110.334826 C69.2195824,110.334826 65.8139783,106.89222 65.8139783,102.661441 C65.8139783,102.396563 65.8315576,102.109881 65.8675154,101.786052 L65.9969636,100.638517 L64.927818,100.233124 C61.9808758,99.1146608 60,96.2308829 60,93.0571928 C60,88.8264136 63.4056041,85.3846154 67.5918922,85.3846154 C67.9890262,85.3846154 68.3110484,85.7100599 68.3110484,86.1114146 C68.3110484,86.5127693 67.9890262,86.8382139 67.5918922,86.8382139 C64.1990731,86.8382139 61.4391114,89.6275079 61.4391114,93.0563853 C61.4391114,95.6276395 63.0444279,97.9638953 65.4336245,98.8707793 L67.0285532,99.4756378 C67.3369913,99.5927332 67.5279672,99.9076795 67.4904113,100.238777 L67.2978372,101.949178 C67.2682719,102.212441 67.2530897,102.445016 67.2530897,102.660634 C67.2530897,106.089511 70.0138504,108.879613 73.4066695,108.879613 C74.039527,108.879613 74.6691882,108.780283 75.2756765,108.584855 L77.4211592,107.893588 C77.6049435,107.833829 77.8071063,107.851595 77.9797038,107.944464 C78.1507032,108.037333 78.2785532,108.196421 78.3312913,108.386197 L78.9497656,110.57467 C79.7000852,113.229102 82.1300341,115.083248 84.8596314,115.083248 C87.7234711,115.083248 90.2493075,113.032059 90.8645856,110.206425 L91.4383124,107.567336 C91.484658,107.354142 91.6228958,107.174057 91.8162689,107.075535 C92.0072448,106.974591 92.2341786,106.969746 92.432346,107.058577 L94.876678,108.152813 C95.6685489,108.508137 96.5059663,108.688222 97.3641594,108.688222 C100.756978,108.688222 103.51694,105.898928 103.51694,102.470051 C103.51694,102.252011 103.502557,102.019435 103.472992,101.757787 L103.280418,100.048194 C103.242862,99.7170966 103.433039,99.4021503 103.742276,99.2850549 L105.336405,98.6793888 C107.725602,97.7716973 109.330918,95.4354415 109.330918,92.8649948 C109.330918,92.4636401 109.652941,92.1381955 110.050075,92.1381955 C110.447209,92.1381955 110.769231,92.4636401 110.769231,92.8649948 C110.769231,96.0378773 108.788355,98.9216552 105.841413,100.040926 L104.772267,100.446319 L104.901715,101.593046 C104.937673,101.915261 104.954453,102.201943 104.954453,102.469243 C104.954453,106.699215 101.54805,110.141821 97.3625613,110.141821 C96.3014063,110.141821 95.2682186,109.919743 94.2917643,109.482048 L92.6528873,108.747981 L92.2685382,110.517334 C91.510228,114.006777 88.3938845,116.538462 84.8596314,116.538462 L84.8596314,116.538462 Z" id="Shape" fill="#FFFFFF"></path>
                    <circle id="Oval" fill="#EA5767" cx="80.1923077" cy="82.5" r="7.5"></circle>
                    <path d="M80.191897,91.1538462 C75.4200234,91.1538462 71.5384615,87.2712787 71.5384615,82.5 C71.5384615,77.7287213 75.4208448,73.8461538 80.191897,73.8461538 C84.9637706,73.8461538 88.8461538,77.7287213 88.8461538,82.5 C88.8461538,87.2712787 84.9637706,91.1538462 80.191897,91.1538462 L80.191897,91.1538462 Z M80.191897,75.4888733 C76.3259402,75.4888733 73.1811031,78.6338597 73.1811031,82.5 C73.1811031,86.3661403 76.3259402,89.5111267 80.191897,89.5111267 C84.0578538,89.5111267 87.2035123,86.3661403 87.2035123,82.5 C87.2035123,78.6338597 84.0578538,75.4888733 80.191897,75.4888733 L80.191897,75.4888733 Z" id="Shape" fill="#595957"></path>
                    <path d="M80.1923077,88.8461538 C76.6930266,88.8461538 73.8461538,85.9992811 73.8461538,82.5 C73.8461538,79.0007189 76.6930266,76.1538462 80.1923077,76.1538462 C83.6915888,76.1538462 86.5384615,79.0007189 86.5384615,82.5 C86.5384615,85.9992811 83.6915888,88.8461538 80.1923077,88.8461538 L80.1923077,88.8461538 Z M80.1923077,77.6374161 C77.5110083,77.6374161 75.3297238,79.8187006 75.3297238,82.5 C75.3297238,85.1812994 77.5110083,87.3625839 80.1923077,87.3625839 C82.8736071,87.3625839 85.0548916,85.1812994 85.0548916,82.5 C85.0548916,79.8187006 82.8736071,77.6374161 80.1923077,77.6374161 L80.1923077,77.6374161 Z" id="Shape" fill="#FFFFFF"></path>
                    <path d="M70.9296522,64.6153846 C66.2596055,64.6153846 62.4617761,68.2799165 62.2629327,72.8717994 C61.9935831,73.9967438 61.0690803,75.7459575 58.0531569,76.6772446 C57.8757031,76.7205419 57.7022103,76.773286 57.5318862,76.8346895 L57.5318862,76.8346895 L57.5318862,76.8346895 C55.607621,77.5305963 54.2307692,79.3593198 54.2307692,81.5123799 C54.2307692,84.2637309 56.4758774,86.4947263 59.2446328,86.4947263 C59.2446328,86.4947263 79.6153846,88.0069853 79.6153846,73.2465184 C79.6145924,68.4798717 75.7264517,64.6153846 70.9296522,64.6153846 L70.9296522,64.6153846 Z" id="Shape" fill="#E2E4E6"></path>
                    <path d="M61.8025923,87.6923077 C61.8017788,87.6923077 61.8025923,87.6923077 61.8025923,87.6923077 C60.7800545,87.6923077 60.1585598,87.6468481 60.1325286,87.6444128 L60.1284612,87.6444128 C56.9030338,87.6444128 54.2307692,84.9769094 54.2307692,81.6973253 C54.2307692,79.2092249 55.8080968,76.9638462 58.1557849,76.1114791 C58.3591536,76.0376072 58.5649627,75.9751003 58.7764662,75.9231465 C61.3283365,75.1300391 62.2077027,73.7297217 62.4834706,72.6695392 C62.7486634,67.4993235 66.9974421,63.4615385 72.1914784,63.4615385 C77.5579714,63.4615385 81.9230769,67.8183524 81.9230769,73.1736535 C81.9230769,78.860972 79.0523245,83.126055 73.6199401,85.5070006 C69.2857466,87.4081853 64.3552761,87.6923077 61.8025923,87.6923077 L61.8025923,87.6923077 Z M72.1922919,65.085095 C67.8442693,65.085095 64.2926385,68.4840105 64.1055393,72.8221536 L64.084389,72.9755796 C63.7956054,74.1851293 62.778762,76.3801777 59.2116752,77.4866314 C59.00912,77.5369617 58.8586271,77.583233 58.7122017,77.6368104 C57.0063451,78.257009 55.8585322,79.8886833 55.8585322,81.6973253 C55.8585322,84.0823298 57.8035504,86.0232916 60.1935392,86.0232916 C60.4270065,86.0330329 67.3008682,86.5046761 72.9667198,84.0206346 C77.8304854,81.8889049 80.2969409,78.2383381 80.2969409,73.1736535 C80.2969409,68.7137438 76.6615222,65.085095 72.1922919,65.085095 L72.1922919,65.085095 Z" id="Shape" fill="#595957"></path>
                    <path d="M60.3055006,85.3846154 C60.2878602,85.3846154 60.2694179,85.3838027 60.2509756,85.38299 L60.1723954,85.3773011 L60.144331,85.3789265 C58.1565724,85.3789265 56.5384615,83.7388931 56.5384615,81.7242039 C56.5384615,80.1971361 57.4926498,78.8187929 58.9135083,78.2945998 C59.0337841,78.2499012 59.1572673,78.2117042 59.2839579,78.1800088 L59.3970172,78.1483134 C63.2057519,76.947952 64.3106858,74.5009051 64.628214,73.1493811 L64.6667023,72.868186 C64.8358903,68.8875698 68.0440477,65.7692308 71.9706527,65.7692308 C72.3691666,65.7692308 72.6923077,66.0967498 72.6923077,66.5006629 C72.6923077,66.904576 72.3691666,67.2320951 71.9706527,67.2320951 C68.8194259,67.2320951 66.2439194,69.7352184 66.1084086,72.9307641 L66.0995884,73.1428795 C66.0979847,73.1892035 66.09157,73.2355275 66.0811461,73.2810389 L66.0322339,73.4874653 C65.6433421,75.1413146 64.3171006,78.1288085 59.8019458,79.5510377 L59.6479927,79.5941109 C59.5533757,79.618492 59.4796066,79.6412477 59.4066392,79.6680669 C58.5542845,79.9825827 57.9817715,80.8082883 57.9817715,81.7225785 C57.9817715,82.9310669 58.9511947,83.9136241 60.1435292,83.9136241 L60.2253167,83.9136241 C60.2429572,83.9136241 60.3399797,83.9201257 60.3576201,83.9217511 C60.7553322,83.9518211 61.0536163,84.3029085 61.0239483,84.7060089 C60.9958839,85.0920425 60.6799594,85.3846154 60.3055006,85.3846154 L60.3055006,85.3846154 Z" id="Shape" fill="#FFFFFF"></path>
                    <path d="M66.8856268,58.8461538 C66.2876958,58.8461538 65.9276426,58.8194253 65.9276426,58.8194253 L65.9235971,58.8194253 C63.9566549,58.8194253 62.3076923,57.2165009 62.3076923,55.2464526 C62.3076923,53.7504422 63.2810495,52.4006525 64.7301624,51.8888802 C64.8563833,51.8440706 64.9834133,51.8071224 65.1136797,51.7756771 C66.3330058,51.4061947 66.7715425,50.7749302 66.9123273,50.2898864 C67.089522,47.3167328 69.6058487,45 72.6788418,45 C75.8675374,45 78.4615385,47.5211273 78.4615385,50.6184898 C78.4615385,53.8542117 76.7866844,56.2794308 73.6190256,57.6315789 C71.1423453,58.6881412 68.337167,58.8461538 66.8856268,58.8461538 L66.8856268,58.8461538 L66.8856268,58.8461538 Z" id="Shape" fill="#E2E4E6"></path>
                    <path d="M73.1966064,45.4933289 C75.8717539,45.4933289 78.0402387,47.7598419 78.0402387,50.5559216 C78.0402387,57.7417229 70.2149398,58.3528249 67.5539757,58.3528249 C67.0087026,58.3528249 66.6801204,58.3272937 66.6801204,58.3272937 C65.1357054,58.3272937 63.883626,57.0186131 63.883626,55.4043815 C63.883626,54.1418218 64.6511058,53.0686872 65.7243166,52.6601878 L65.7243166,52.6601878 C65.8188726,52.6239499 65.9157926,52.5934772 66.0150764,52.567946 C67.6965977,52.0219074 68.211928,50.9957173 68.3624297,50.3360237 C68.473533,47.6428924 70.5923759,45.4933289 73.1966064,45.4933289 L73.1966064,45.4933289 Z M73.1966064,43.8461538 C69.8185924,43.8461538 67.047313,46.5565805 66.8006794,50.0551804 C66.6612092,50.4389722 66.2357071,50.7651128 65.5856345,50.9825399 C65.4493162,51.0196014 65.3169378,51.0624279 65.1861353,51.1126668 C63.4644277,51.7674189 62.3076923,53.4920112 62.3076923,55.4043815 C62.3076923,57.9039697 64.2374232,59.9415253 66.6218109,59.9736452 C66.7526134,59.9818811 67.0811956,60 67.5531877,60 C73.3841425,60 79.6153845,57.5193543 79.6153845,50.5559216 C79.6161724,46.8563663 76.7361535,43.8461538 73.1966064,43.8461538 L73.1966064,43.8461538 L73.1966064,43.8461538 Z" id="Shape" fill="#595957"></path>
                    <path d="M66.9288051,57.6923077 C66.9127662,57.6923077 66.8967273,57.6915022 66.8799246,57.6906966 L66.837918,57.6874745 L66.834863,57.6874745 C65.6128515,57.6874745 64.6153846,56.6338367 64.6153846,55.3393444 C64.6153846,54.3565936 65.2050052,53.4705067 66.0825622,53.1337937 C66.1589379,53.1047945 66.2330223,53.0814341 66.3101618,53.0612957 C68.2455225,52.4273409 68.7893176,51.1860138 68.9435965,50.5005048 L68.9565804,50.4038408 C69.0535776,48.0210728 70.8995787,46.1538462 73.1587724,46.1538462 C73.5383597,46.1538462 73.8461538,46.4784761 73.8461538,46.8788263 C73.8461538,47.2791764 73.5383597,47.6038064 73.1587724,47.6038064 C71.6381318,47.6038064 70.3954989,48.8612442 70.3298158,50.4658669 L70.3252333,50.5842803 C70.3237057,50.6310012 70.3168319,50.6769166 70.3069031,50.7220265 L70.2809353,50.8372178 C70.058682,51.8207742 69.3048537,53.5985866 66.7500859,54.4363414 C66.7432121,54.438758 66.6653089,54.4613129 66.6576713,54.4637295 C66.6103184,54.476618 66.5790043,54.4862844 66.5492178,54.4975619 C66.2154559,54.6256417 65.9893838,54.9647713 65.9893838,55.3393444 C65.9893838,55.835553 66.3712624,56.2383198 66.8417368,56.2383198 C66.8577757,56.2383198 66.9181125,56.2391253 66.9341514,56.2399308 C67.312975,56.2681245 67.6192416,56.6169205 67.5925101,57.0156596 C67.5680699,57.3990935 67.2854797,57.6923077 66.9288051,57.6923077 L66.9288051,57.6923077 Z" id="Shape" fill="#FFFFFF"></path>
                    <path d="M89.4549632,64.6153846 C94.1250099,64.6153846 97.9228393,68.2799165 98.1216826,72.8717994 C98.3910322,73.9967438 99.3155351,75.7459575 102.331458,76.6772446 C102.508912,76.7205419 102.682405,76.773286 102.852729,76.8346895 L102.852729,76.8346895 L102.852729,76.8346895 C104.776994,77.5305963 106.153846,79.3593198 106.153846,81.5123799 C106.153846,84.2637309 103.908738,86.4947263 101.139983,86.4947263 C101.139983,86.4947263 80.7692308,88.0069853 80.7692308,73.2465184 C80.7692308,68.4798717 84.6581637,64.6153846 89.4549632,64.6153846 L89.4549632,64.6153846 Z" id="Shape" fill="#E2E4E6"></path>
                    <path d="M99.7374962,87.6923077 C95.0169022,87.6923077 79.6153846,86.6451137 79.6153846,73.1736535 C79.6153846,67.8183524 83.9813036,63.4615385 89.3469831,63.4615385 C94.5410195,63.4615385 98.7889846,67.4993235 99.0558044,72.6695392 C99.3307588,73.7297217 100.211752,75.1300391 102.810804,75.936135 C102.974312,75.9742885 103.180935,76.0376072 103.382677,76.1106673 C105.730365,76.9630345 107.307692,79.2084131 107.307692,81.6965135 C107.307692,84.9769094 104.633801,87.6460363 101.346549,87.6460363 C101.373394,87.6476599 100.753526,87.6923077 99.7374962,87.6923077 L99.7374962,87.6923077 Z M89.3477966,65.085095 C84.8785663,65.085095 81.2431476,68.7137438 81.2431476,73.1736535 C81.2431476,77.0507065 83.0449942,86.0687512 99.7383097,86.0687512 C100.694143,86.0687512 101.280658,86.0265387 101.286352,86.0257269 C103.737352,86.0232916 105.681556,84.0823298 105.681556,81.6973253 C105.681556,79.8886833 104.534557,78.257009 102.827073,77.6368104 C102.679834,77.5840448 102.530969,77.5377735 102.377222,77.5012434 C98.760513,76.3809894 97.7444831,74.1867528 97.4556995,72.9763914 L97.4345492,72.8237771 C97.24745,68.4840105 93.6950057,65.085095 89.3477966,65.085095 L89.3477966,65.085095 Z" id="Shape" fill="#595957"></path>
                    <path d="M99.7366138,85.3846154 C83.658563,85.3846154 81.9230769,76.847089 81.9230769,73.1760986 C81.9230769,69.0922638 85.2541693,65.7692308 89.3489081,65.7692308 C89.7530958,65.7692308 90.0808375,66.0960998 90.0808375,66.4992112 C90.0808375,66.9023226 89.7530958,67.2291916 89.3489081,67.2291916 C86.0617315,67.2291916 83.3869359,69.8968644 83.3869359,73.1752875 C83.3869359,82.8759161 94.8196743,83.9230324 99.7358006,83.9230324 C100.566134,83.9230324 101.084991,83.8889666 101.123214,83.8865334 L101.343606,83.8784225 C102.552916,83.8784225 103.536141,82.8978155 103.536141,81.6917256 C103.536141,81.2886142 103.863883,80.9617452 104.268071,80.9617452 C104.672258,80.9617452 105,81.2886142 105,81.6917256 C105,83.7024161 103.358851,85.3391944 101.342792,85.3391944 L101.22975,85.3432498 C101.207792,85.3481164 100.606797,85.3846154 99.7366138,85.3846154 L99.7366138,85.3846154 Z" id="Shape" fill="#FFFFFF"></path>
                    <path d="M98.1284567,51.9230769 C98.0988882,52.087277 98.0769231,52.2548112 98.0769231,52.4273463 L98.0769231,59.3904314 C98.0769231,61.0015929 99.4007457,62.3076923 101.03377,62.3076923 C102.666794,62.3076923 103.846154,61.0015929 103.846154,59.3904314 L103.529349,58.2793717 L101.719758,52.3231584 L98.1284567,51.9230769 L98.1284567,51.9230769 Z" id="Shape" fill="#E2E4E6"></path>
                    <path d="M100.451658,62.3076923 C98.5062338,62.3076923 96.9230769,60.707352 96.9230769,58.740812 L96.9230769,52.1190968 C96.9230769,51.8717931 96.9575786,51.647476 96.9834549,51.5008376 L97.1120521,50.7692308 L101.691367,51.2907879 L103.846154,58.740812 C103.846154,60.7406429 102.355524,62.3076923 100.451658,62.3076923 L100.451658,62.3076923 Z M98.4913354,52.5209653 L98.4913354,58.740812 C98.4913354,59.83307 99.3703442,60.7224122 100.451658,60.7224122 C101.461617,60.7224122 102.230848,59.921053 102.275543,58.8422699 L102.01286,57.8982356 L100.48616,52.748453 L98.4913354,52.5209653 L98.4913354,52.5209653 Z" id="Shape" fill="#595957"></path>
                    <path d="M95.80749,58.8461538 C94.3559498,58.8461538 91.5507715,58.6881502 89.0732821,57.6308618 C85.9048142,56.2787905 84.2307692,53.853709 84.2307692,50.6181709 C84.2307692,47.5201981 86.8247703,45 90.0134659,45 C93.0872681,45 95.6027856,47.3166013 95.7799804,50.2895861 C95.9207652,50.7746024 96.3609201,51.405831 97.6271745,51.7878698 C97.7088944,51.8059498 97.8343062,51.8428959 97.9589089,51.8861308 C99.4112582,52.4002323 100.384615,53.7499454 100.384615,55.2450848 C100.384615,57.2142352 98.737271,58.8170686 96.7112639,58.8202129 C96.7072184,58.8233573 96.3584927,58.8461538 95.80749,58.8461538 L95.80749,58.8461538 Z" id="Shape" fill="#E2E4E6"></path>
                    <path d="M89.4964892,45.4933289 C92.1007197,45.4933289 94.2187746,47.6428924 94.329878,50.3368473 C94.4803796,50.9965409 94.99571,52.022731 96.6772313,52.5687696 C96.7765151,52.5943008 96.873435,52.6247735 96.967991,52.6610114 L96.967991,52.6610114 C98.0412019,53.0695108 98.8086816,54.1418218 98.8086816,55.4052051 C98.8086816,57.0194367 97.5566023,58.3281173 96.0121872,58.3281173 C96.0121872,58.3281173 95.683605,58.3536485 95.138332,58.3536485 C92.4773678,58.3536485 84.6520689,57.7425465 84.6520689,50.5567452 C84.6528568,47.7598419 86.8213416,45.4933289 89.4964892,45.4933289 L89.4964892,45.4933289 Z M89.4964892,43.8461538 C85.956942,43.8461538 83.0769231,46.8563663 83.0769231,50.5559216 C83.0769231,57.5193543 89.3081651,60 95.1391199,60 C95.6119001,60 95.9396943,59.9827047 96.0704968,59.9736452 C98.4548845,59.9415253 100.384615,57.9039697 100.384615,55.4043815 C100.384615,53.4920112 99.22788,51.7674189 97.5069604,51.1126668 C97.3761579,51.0632515 97.2429915,51.0196014 97.1066732,50.9825399 C96.4573885,50.7642892 96.0310984,50.4381486 95.8916283,50.0551804 C95.6457826,46.5565805 92.8745031,43.8461538 89.4964892,43.8461538 L89.4964892,43.8461538 L89.4964892,43.8461538 Z" id="Shape" fill="#595957"></path>
                    <path d="M95.7974851,57.6923077 C95.4385786,57.6923077 95.1201446,57.4014289 95.0941811,57.0194994 C95.0674541,56.6198431 95.3339612,56.273367 95.7127221,56.2451654 L95.7547218,56.2419424 C95.770758,56.2411367 95.8318485,56.2403309 95.8478847,56.2403309 C96.3175177,56.2403309 96.7000967,55.8374517 96.7000967,55.3411044 C96.7000967,54.9664267 96.474062,54.6272024 96.1380645,54.498281 C96.1090465,54.4870004 96.0792649,54.4773313 96.047956,54.4692737 C96.0433742,54.4676622 95.9677748,54.4459067 95.963193,54.4442952 C93.3874663,53.5998603 92.632999,51.8215514 92.4100188,50.8361087 L92.384819,50.7224968 C92.3741282,50.6765685 92.3680191,50.6298346 92.3664919,50.5822948 L92.3619101,50.4646541 C92.2962378,48.8611947 91.0538105,47.6042114 89.5334216,47.6042114 C89.1538971,47.6042114 88.8461538,47.2794908 88.8461538,46.8790288 C88.8461538,46.4785668 89.1538971,46.1538462 89.5334216,46.1538462 C91.7930051,46.1538462 93.6387008,48.0215943 93.7356819,50.4050279 L93.7479,50.5001074 C93.9029171,51.1866137 94.4466222,52.4290933 96.3495902,53.0535561 C96.459553,53.0833691 96.5351525,53.1067361 96.608461,53.1357434 C97.4866365,53.4725505 98.0769231,54.3596906 98.0769231,55.3419102 C98.0769231,56.6375698 97.0773303,57.6923077 95.849412,57.6923077 C95.8310849,57.6923077 95.814285,57.6923077 95.7974851,57.6923077 L95.7974851,57.6923077 Z" id="Shape" fill="#FFFFFF"></path>
                    <path d="M121.969099,86.5384615 C121.969099,86.5384615 125.97493,93.4136689 146.538462,94.9988648 L139.594755,124.615385 C139.594755,124.615385 120.796993,123.295043 118.846154,95.7934275" id="Shape" fill="#00A6B0"></path>
                    <path d="M138.912585,125.769231 C138.893651,125.769231 138.874718,125.76843 138.855784,125.766829 C138.66408,125.75322 119.640436,124.04491 117.694208,95.6664692 C117.66423,95.2253826 117.992414,94.8427339 118.427101,94.8123142 C118.851531,94.7802934 119.238095,95.1141103 119.268862,95.5551969 C120.914517,119.557194 135.054053,123.487748 138.305128,124.073729 L144.776512,95.5223756 C125.130423,93.7588296 121.038375,86.877558 120.871127,86.5813655 C120.654967,86.1979163 120.786714,85.7087985 121.1646,85.4894559 C121.541696,85.272515 122.019772,85.4029998 122.23751,85.7816458 C122.296678,85.8817108 126.426593,92.4587848 145.810766,94.0037888 C146.039549,94.0222007 146.249397,94.1406777 146.385878,94.3279995 C146.521569,94.5153212 146.569692,94.7538762 146.518414,94.9812239 L139.680978,125.148027 C139.597354,125.513865 139.277059,125.769231 138.912585,125.769231 L138.912585,125.769231 Z" id="Shape" fill="#575756"></path>
                    <path d="M137.752475,123.461538 C137.684789,123.461538 137.615528,123.451184 137.547054,123.430476 C120.979568,118.348136 120.008343,95.5871212 120.000472,95.3577349 C119.986306,94.9618842 120.29247,94.6305485 120.683635,94.6162118 C121.073227,94.5970963 121.403003,94.911706 121.416383,95.3075566 C121.424253,95.5265887 122.364783,117.275277 137.957897,122.05814 C138.333321,122.17363 138.544252,122.572667 138.430916,122.951791 C138.338044,123.261622 138.057065,123.461538 137.752475,123.461538 L137.752475,123.461538 Z" id="Shape" fill="#FFFFFF"></path>
                    <path d="M159.154216,50.955553 L156.615845,46.1540759 L159.15258,41.3525989 C159.423351,40.8412813 158.773011,40.1908853 158.261737,40.4616791 L153.460674,42.9986326 L148.660428,40.460861 C148.404382,40.3258731 148.090256,40.3733234 147.885746,40.5778504 C147.681237,40.7823775 147.63379,41.096531 147.768767,41.3517808 L150.305502,46.1532578 L147.768767,50.9547349 C147.63379,51.2099846 147.680419,51.5241382 147.885746,51.7286652 C148.091074,51.9331923 148.404382,51.9806426 148.65961,51.8456547 L153.460674,49.3087012 L158.262555,51.8464728 C158.518601,51.9822788 158.83191,51.9340104 159.036419,51.7294833 C159.241747,51.5257744 159.290011,51.2116208 159.154216,50.955553 L159.154216,50.955553 Z" id="Shape" fill="#F8D748"></path>
                    <path d="M157.807045,53.0769231 C157.57615,53.0769231 157.345255,53.0193667 157.141153,52.9113501 L152.884172,50.6603455 L148.62719,52.9113501 C148.089748,53.195978 147.387606,53.0919035 146.955762,52.6590483 C146.512884,52.2159434 146.411227,51.5441901 146.705166,50.9875494 L148.954226,46.7275923 L146.705166,42.4692121 C146.412015,41.9125714 146.512884,41.240818 146.95655,40.7969247 C147.387606,40.3656464 148.086596,40.2576297 148.627978,40.5446229 L152.884172,42.7956275 L157.141153,40.5446229 C157.774736,40.2103232 158.618724,40.4783937 159.009591,41.1272823 C159.264127,41.5506761 159.284616,42.0521258 159.063178,42.4692121 L156.814117,46.7275923 L159.064754,50.9859725 C159.357904,51.5434016 159.256247,52.215155 158.811794,52.6590483 C158.543861,52.9286958 158.186091,53.0769231 157.807045,53.0769231 L157.807045,53.0769231 Z M148.328524,42.1703922 L150.541335,46.3593894 C150.66348,46.5896148 150.66348,46.8655698 150.541335,47.0965836 L148.315915,51.3115994 L152.516158,49.0724215 C152.745477,48.9510013 153.022866,48.9510013 153.252185,49.0724215 L157.440607,51.2871577 L155.226221,47.0981605 C155.104075,46.8679351 155.104075,46.5919801 155.226221,46.3609663 L157.438243,42.1719691 L153.252185,44.3859168 C153.022866,44.507337 152.746265,44.507337 152.51537,44.3859168 L148.328524,42.1703922 L148.328524,42.1703922 Z" id="Shape" fill="#595957"></path>
                    <path d="M145.331503,67.3986489 L143.554605,64.0378591 L145.330696,60.6770694 C145.520329,60.3196073 145.06521,59.8645087 144.706926,60.0533262 L141.345989,61.8293402 L137.98586,60.0533262 C137.806718,59.9589175 137.586421,59.9920009 137.443591,60.1356312 C137.300761,60.2792616 137.26687,60.4987418 137.362089,60.6778763 L139.137374,64.0386661 L137.361283,67.3994558 C137.26687,67.5785903 137.299148,67.7980705 137.442784,67.9417009 C137.586421,68.0853313 137.805911,68.1176078 137.985053,68.023199 L141.345989,66.247185 L144.706926,68.023199 C144.886068,68.1184147 145.105558,68.0845244 145.249194,67.9417009 C145.392024,67.7972636 145.425916,67.5777834 145.331503,67.3986489 L145.331503,67.3986489 Z" id="Shape" fill="#F8D748"></path>
                    <path d="M144.174801,69.2307692 L144.174801,69.2307692 C143.97807,69.2307692 143.782875,69.1823197 143.609966,69.0900347 L140.76965,67.5873288 L137.927797,69.0900347 C137.470549,69.3322826 136.875742,69.2430739 136.509175,68.8762414 C136.13185,68.4986423 136.04578,67.9280139 136.295537,67.4565918 L137.797154,64.6126786 L136.296305,61.7695343 C136.046548,61.3004193 136.131081,60.7290219 136.508407,60.3506538 C136.877279,59.9815142 137.468243,59.8938435 137.927797,60.1353224 L140.768881,61.6387973 L143.610734,60.1360914 C144.147136,59.8523153 144.872585,60.0776443 145.19919,60.6221253 C145.415903,60.9828055 145.432041,61.4126993 145.241457,61.7710724 L143.741377,64.6134476 L145.243762,67.4565918 C145.491983,67.928783 145.406681,68.4986423 145.030892,68.8754723 C144.801884,69.1046465 144.497565,69.2307692 144.174801,69.2307692 L144.174801,69.2307692 Z M140.76965,65.9485026 C140.892607,65.9485026 141.016333,65.9784952 141.128532,66.0377114 L143.387106,67.2320319 L142.192882,64.9725897 C142.073767,64.7480298 142.073767,64.4788654 142.192882,64.2535364 L143.385569,61.9940942 L141.127763,63.1876457 C140.904134,63.306078 140.634397,63.306078 140.409231,63.1876457 L138.152194,61.9933252 L139.344881,64.2527674 C139.463996,64.4773274 139.463996,64.7464917 139.344881,64.9718207 L138.151425,67.2320319 L140.409999,66.0377114 C140.522198,65.9784952 140.645924,65.9485026 140.76965,65.9485026 L140.76965,65.9485026 Z" id="Shape" fill="#595957"></path>
                    <path d="M71.4847831,30.475572 L69.7080101,27.1147822 L71.4839762,23.7539925 C71.6735955,23.3965303 71.2185092,22.9414318 70.8602498,23.1302493 L67.4995506,24.9062632 L64.1396582,23.1302493 C63.9605285,23.0358405 63.7402474,23.0689239 63.5974278,23.2125543 C63.4546081,23.3561847 63.4207187,23.5756649 63.5159318,23.7547994 L65.2910911,27.1155891 L63.5151249,30.4763789 C63.4207187,30.6555134 63.4529944,30.8749936 63.5966209,31.018624 C63.7402474,31.1622543 63.9597216,31.1945308 64.1388513,31.1001221 L67.4995506,29.3241081 L70.8602498,31.1001221 C71.0393795,31.1953377 71.2588538,31.1614474 71.4024803,31.018624 C71.5461068,30.8749936 71.5799962,30.6555134 71.4847831,30.475572 L71.4847831,30.475572 Z" id="Shape" fill="#F8D748"></path>
                    <path d="M70.3292614,31.1538462 L70.3292614,31.1538462 C70.1325521,31.1538462 69.9373797,31.105399 69.7637224,31.0131188 L66.9229647,29.5104896 L64.0814385,31.0131188 C63.6219381,31.2545854 63.0287369,31.1661502 62.6629807,30.7993364 C62.2856985,30.4217566 62.1996383,29.8511573 62.4493668,29.3789903 L63.9508113,26.5359912 L62.4493668,23.692992 C62.2004067,23.222363 62.2856985,22.6517637 62.6622123,22.2741839 C63.0295053,21.9058321 63.6211697,21.8158589 64.0806701,22.0588635 L66.9221963,23.5622617 L69.7637224,22.0596325 C70.3023675,21.7751018 71.0246592,22.0004193 71.3519956,22.5448725 C71.5686831,22.9055343 71.5855878,23.3346372 71.3965625,23.692992 L69.895118,26.5367602 L71.3973309,29.3797593 C71.646291,29.8519263 71.5602308,30.4225256 71.183717,30.7993364 C70.9555036,31.0277299 70.6519874,31.1538462 70.3292614,31.1538462 L70.3292614,31.1538462 Z M66.923733,27.871747 C67.0474447,27.871747 67.170388,27.9017381 67.2825737,27.9609512 L69.5401193,29.1552108 L68.3468013,26.8958839 C68.2277,26.6713354 68.2277,26.4021849 68.3468013,26.1768674 L69.5401193,23.9175405 L67.2825737,25.1118001 C67.0582022,25.2302263 66.7884955,25.2309953 66.564124,25.1118001 L64.3073468,23.9175405 L65.4998964,26.1768674 C65.6182293,26.4014159 65.6182293,26.6705664 65.4998964,26.8958839 L64.3073468,29.1544418 L66.5648924,27.9609512 C66.6770781,27.9017381 66.8000214,27.871747 66.923733,27.871747 L66.923733,27.871747 Z" id="Shape" fill="#595957"></path>
                    <path d="M136.100519,37.3986489 L134.323668,34.0378591 L136.099712,30.6770694 C136.28934,30.3196073 135.834234,29.8645087 135.475958,30.0533262 L132.115112,31.8293402 L128.755073,30.0533262 C128.575935,29.9589175 128.355644,29.9920009 128.212818,30.1356312 C128.069992,30.2784547 128.036102,30.4987418 128.131319,30.6778763 L129.906556,34.0386661 L128.130512,37.3994558 C128.036102,37.5785903 128.068379,37.7980705 128.212011,37.9417009 C128.355644,38.0853313 128.575128,38.1176078 128.754266,38.023199 L132.115112,36.247185 L135.475958,38.023199 C135.655096,38.1184147 135.87458,38.0845244 136.018213,37.9417009 C136.161845,37.7972636 136.194929,37.5777834 136.100519,37.3986489 L136.100519,37.3986489 Z" id="Shape" fill="#F8D748"></path>
                    <path d="M136.098259,39.2307692 L136.098259,39.2307692 C135.902288,39.2307692 135.707085,39.1823197 135.5334,39.090804 L132.692195,37.5873309 L129.850222,39.0900349 C129.396029,39.3307444 128.798892,39.2430739 128.431542,38.8762418 C128.054969,38.4994122 127.968895,37.9287846 128.218663,37.4565941 L129.719575,34.6126844 L128.218663,31.7695437 C127.968895,31.2973531 128.054969,30.7267255 128.433079,30.3491269 C128.797355,29.9830639 129.39065,29.8930862 129.850222,30.1353338 L132.691427,31.6388069 L135.5334,30.1361028 C136.069824,29.851558 136.793767,30.0753487 137.121154,30.621367 C137.338645,30.9820468 137.355552,31.4111711 137.165728,31.7695437 L135.664048,34.6134534 L137.166497,37.4565941 C137.415496,37.9280156 137.329422,38.4978742 136.953618,38.8754728 C136.723832,39.1054157 136.420268,39.2307692 136.098259,39.2307692 L136.098259,39.2307692 Z M132.692195,35.9485067 C132.815158,35.9485067 132.938889,35.9784993 133.051093,36.0377154 L135.308993,37.2320344 L134.115487,34.972595 C133.996367,34.7480354 133.996367,34.4788714 134.115487,34.2535427 L135.308993,31.9941033 L133.050324,33.1884224 C132.826686,33.3068545 132.556937,33.3068545 132.331761,33.1884224 L130.074629,31.9941033 L131.267366,34.2535427 C131.386486,34.4781024 131.386486,34.7472663 131.267366,34.972595 L130.074629,37.2320344 L132.33253,36.0384844 C132.445502,35.9784993 132.569233,35.9485067 132.692195,35.9485067 L132.692195,35.9485067 Z" id="Shape" fill="#595957"></path>
                    <ellipse id="Oval" fill="#595957" cx="74.4230769" cy="61.7307692" rx="1.73076923" ry="1.73076923"></ellipse>
                    <ellipse id="Oval" fill="#595957" cx="89.4230769" cy="61.7307692" rx="1.73076923" ry="1.73076923"></ellipse>
                    <path d="M74.2029614,61.1538462 L72.3355001,61.1538462 C71.8955348,61.1538462 71.5384615,60.8953846 71.5384615,60.5769231 C71.5384615,60.2584615 71.8955348,60 72.3355001,60 L74.2029614,60 C74.6429267,60 75,60.2584615 75,60.5769231 C75,60.8953846 74.6437238,61.1538462 74.2029614,61.1538462 L74.2029614,61.1538462 Z" id="Shape" fill="#595957"></path>
                    <path d="M89.2029614,61.1538462 L87.3355001,61.1538462 C86.8955348,61.1538462 86.5384615,60.8953846 86.5384615,60.5769231 C86.5384615,60.2584615 86.8955348,60 87.3355001,60 L89.2029614,60 C89.6437238,60 90,60.2584615 90,60.5769231 C90,60.8953846 89.6437238,61.1538462 89.2029614,61.1538462 L89.2029614,61.1538462 Z" id="Shape" fill="#595957"></path>
                    <path d="M140.17099,127.192848 C139.841327,128.61202 138.431763,129.492831 137.022989,129.160735 L137.022989,129.160735 C135.614215,128.828639 134.739858,127.40867 135.069521,125.989498 L142.521318,94.3456138 C142.85098,92.9264413 144.260545,92.0456305 145.669319,92.3777265 L145.669319,92.3777265 C147.078092,92.7098224 147.952449,94.1297913 147.622787,95.5489638 L140.17099,127.192848 L140.17099,127.192848 Z" id="Shape" fill="#E2E4E6"></path>
                    <path d="M137.433155,130.384615 C137.158984,130.384615 136.883151,130.354697 136.614796,130.294861 C135.682614,130.087798 134.890841,129.550061 134.385701,128.778492 C133.881393,128.007711 133.723537,127.096787 133.942043,126.21342 L141.773367,94.9278772 C142.153884,93.3863141 143.587882,92.3076923 145.259495,92.3076923 C145.534497,92.3076923 145.81033,92.3376103 146.079516,92.3974462 C148.002868,92.8241711 149.201743,94.6546788 148.751438,96.4781007 L140.919283,127.763643 C140.538766,129.306781 139.105599,130.384615 137.433155,130.384615 L137.433155,130.384615 Z M145.259495,93.8823226 C144.363869,93.8823226 143.594528,94.4609993 143.390146,95.2892548 L135.558822,126.574797 C135.441676,127.047186 135.52725,127.535322 135.797267,127.947875 C136.068115,128.361215 136.492665,128.650947 136.991989,128.761172 C138.022208,128.991855 139.064058,128.367514 139.301673,127.403053 L147.133828,96.1167231 C147.374767,95.1412396 146.731711,94.1594576 145.69983,93.9303489 C145.554437,93.8988562 145.407381,93.8823226 145.259495,93.8823226 L145.259495,93.8823226 Z" id="Shape" fill="#595957"></path>
                    <path d="M136.882221,128.076923 C136.825659,128.076923 136.767481,128.070495 136.710919,128.056835 C136.320642,127.963629 136.079851,127.571518 136.17439,127.184228 L143.950026,95.1693411 C144.043757,94.7812478 144.442922,94.5418031 144.827542,94.6358133 C145.217819,94.7298235 145.458611,95.1203273 145.364072,95.5084206 L137.588436,127.522504 C137.508441,127.855155 137.210279,128.076923 136.882221,128.076923 L136.882221,128.076923 Z" id="Shape" fill="#FFFFFF"></path>
                    <path d="M53.5213179,127.192848 C53.8509804,128.61202 55.2605448,129.492831 56.6693186,129.160735 L56.6693186,129.160735 C58.0780925,128.828639 58.9524493,127.40867 58.6227867,125.989498 L51.1709898,94.3456138 C50.8413273,92.9264413 49.4317629,92.0456305 48.0229891,92.3777265 L48.0229891,92.3777265 C46.6142152,92.7098224 45.7398584,94.1297913 46.069521,95.5489638 L53.5213179,127.192848 L53.5213179,127.192848 Z" id="Shape" fill="#E2E4E6"></path>
                    <path d="M56.4141718,129.230769 C54.7425587,129.230769 53.3085606,128.152912 52.9263826,126.608956 L45.0958888,95.3267028 C44.8773827,94.4409549 45.0352388,93.5300124 45.5395475,92.759215 C46.0438563,91.9884175 46.8356293,91.4498828 47.7678112,91.2436019 C48.0369974,91.1837647 48.3128301,91.1538462 48.5870013,91.1538462 C50.2586144,91.1538462 51.6926125,92.2324902 52.0747905,93.7764472 L59.9052843,125.0587 C60.3555896,126.883734 59.156714,128.715067 57.233362,129.141801 C56.9641758,129.200851 56.688343,129.230769 56.4141718,129.230769 L56.4141718,129.230769 Z M48.5878321,92.7277217 C48.4407767,92.7277217 48.2928904,92.7442557 48.1474966,92.7765363 C47.647342,92.88755 47.2227922,93.1765006 46.9519443,93.5898496 C46.6810965,94.0031986 46.5963527,94.4921315 46.7134985,94.966105 L54.5439924,126.248358 C54.7824382,127.215201 55.8251193,127.83798 56.8545073,127.608866 C57.8863878,127.379753 58.5294437,126.397951 58.2885054,125.420085 L50.4580116,94.1386196 C50.2527986,93.3064103 49.4834578,92.7277217 48.5878321,92.7277217 L48.5878321,92.7277217 Z" id="Shape" fill="#595957"></path>
                    <path d="M54.8383062,125.769231 C54.5922646,125.769231 54.3692516,125.562757 54.3086502,125.253796 L48.4769795,95.4468319 C48.4060759,95.0855037 48.586062,94.721183 48.8793727,94.6344044 C49.1726834,94.5468777 49.4672061,94.769809 49.5375037,95.1311373 L55.3691743,124.938849 C55.4400779,125.299429 55.2600918,125.664498 54.9667811,125.751277 C54.9237542,125.763994 54.8807272,125.769231 54.8383062,125.769231 L54.8383062,125.769231 Z" id="Shape" fill="#FFFFFF"></path>
                    <mask id="mask-2" fill="white">
                        <use xlink:href="#path-1"></use>
                    </mask>
                    <g id="SVGID_1_"></g>
                    <rect id="Rectangle-path" fill="#E2E5E6" mask="url(#mask-2)" x="45" y="102.692308" width="6.92307692" height="9.23076923"></rect>
                    <mask id="mask-4" fill="white">
                        <use xlink:href="#path-3"></use>
                    </mask>
                    <g id="SVGID_45_"></g>
                    <mask id="mask-6" fill="white">
                        <use xlink:href="#path-5"></use>
                    </mask>
                    <g id="SVGID_45_"></g>
                    <path d="M48.2784172,108.461538 L48.2784172,108.461538 C47.8287464,108.461538 47.5546913,108.282009 47.4034885,108.132271 L23.7134737,82.7418546 C22.9377718,81.9696447 22.8574453,80.7717395 23.5473081,80.0849823 C23.8512888,79.7823701 24.269459,79.6153846 24.7246425,79.6153846 C25.2672401,79.6153846 25.8153502,79.8513594 26.2280079,80.2629433 L51.5592031,103.974098 C51.8553086,104.268086 52.1144009,104.818433 51.7293063,105.828969 C51.4985645,106.434194 51.1166199,106.981404 50.8409898,107.255794 C50.4330572,107.662674 49.2226473,108.461538 48.2784172,108.461538 L48.2784172,108.461538 Z" id="Path" stroke="#575756" fill="#008186" mask="url(#mask-6)"></path>
                    <use id="Rectangle" stroke="#575756" mask="url(#mask-8)" stroke-width="3" fill="#F8D748" transform="translate(27.115385, 84.230769) rotate(-47.000000) translate(-27.115385, -84.230769) " xlink:href="#path-7"></use>
                    <path d="M13.4842308,86.5615385 C14.9542308,86.5615385 15.9842308,85.7815385 15.9842308,84.4715385 L15.9842308,84.4515385 C15.9842308,83.2915385 15.2142308,82.7615385 13.7342308,82.4015385 C12.3942308,82.0815385 12.0742308,81.8415385 12.0742308,81.3015385 L12.0742308,81.2815385 C12.0742308,80.8215385 12.4942308,80.4515385 13.2142308,80.4515385 C13.8542308,80.4515385 14.4842308,80.7015385 15.1142308,81.1715385 L15.7742308,80.2415385 C15.0642308,79.6715385 14.2542308,79.3615385 13.2342308,79.3615385 C11.8442308,79.3615385 10.8442308,80.1915385 10.8442308,81.3915385 L10.8442308,81.4115385 C10.8442308,82.7015385 11.6842308,83.1415385 13.1742308,83.5015385 C14.4742308,83.8015385 14.7542308,84.0715385 14.7542308,84.5715385 L14.7542308,84.5915385 C14.7542308,85.1215385 14.2742308,85.4715385 13.5142308,85.4715385 C12.6442308,85.4715385 11.9742308,85.1415385 11.3042308,84.5615385 L10.5642308,85.4415385 C11.4042308,86.1915385 12.4142308,86.5615385 13.4842308,86.5615385 Z M20.7742308,86.5815385 C22.9242308,86.5815385 24.4442308,84.9315385 24.4442308,82.9615385 L24.4442308,82.9415385 C24.4442308,80.9715385 22.9442308,79.3415385 20.7942308,79.3415385 C18.6442308,79.3415385 17.1242308,80.9915385 17.1242308,82.9615385 L17.1242308,82.9815385 C17.1242308,84.9515385 18.6242308,86.5815385 20.7742308,86.5815385 Z M20.7942308,85.4515385 C19.4042308,85.4515385 18.4142308,84.3215385 18.4142308,82.9615385 L18.4142308,82.9415385 C18.4142308,81.5815385 19.3842308,80.4715385 20.7742308,80.4715385 C22.1642308,80.4715385 23.1542308,81.6015385 23.1542308,82.9615385 L23.1542308,82.9815385 C23.1542308,84.3415385 22.1842308,85.4515385 20.7942308,85.4515385 Z M25.9342308,86.4615385 L27.1642308,86.4615385 L27.1642308,84.0215385 L28.7042308,84.0215385 L30.4242308,86.4615385 L31.8742308,86.4615385 L29.9842308,83.8115385 C30.9642308,83.5315385 31.6542308,82.8415385 31.6542308,81.6915385 L31.6542308,81.6715385 C31.6542308,81.0615385 31.4442308,80.5415385 31.0742308,80.1615385 C30.6242308,79.7215385 29.9342308,79.4615385 29.0542308,79.4615385 L25.9342308,79.4615385 L25.9342308,86.4615385 Z M27.1642308,82.9315385 L27.1642308,80.5815385 L28.9542308,80.5815385 C29.8642308,80.5815385 30.4042308,80.9915385 30.4042308,81.7415385 L30.4042308,81.7615385 C30.4042308,82.4715385 29.8442308,82.9315385 28.9642308,82.9315385 L27.1642308,82.9315385 Z M33.1642308,86.4615385 L34.3942308,86.4615385 L34.3942308,84.0215385 L35.9342308,84.0215385 L37.6542308,86.4615385 L39.1042308,86.4615385 L37.2142308,83.8115385 C38.1942308,83.5315385 38.8842308,82.8415385 38.8842308,81.6915385 L38.8842308,81.6715385 C38.8842308,81.0615385 38.6742308,80.5415385 38.3042308,80.1615385 C37.8542308,79.7215385 37.1642308,79.4615385 36.2842308,79.4615385 L33.1642308,79.4615385 L33.1642308,86.4615385 Z M34.3942308,82.9315385 L34.3942308,80.5815385 L36.1842308,80.5815385 C37.0942308,80.5815385 37.6342308,80.9915385 37.6342308,81.7415385 L37.6342308,81.7615385 C37.6342308,82.4715385 37.0742308,82.9315385 36.1942308,82.9315385 L34.3942308,82.9315385 Z M42.2042308,86.4615385 L43.4442308,86.4615385 L43.4442308,83.6715385 L46.2242308,79.4615385 L44.8142308,79.4615385 L42.8342308,82.5615385 L40.8742308,79.4615385 L39.4242308,79.4615385 L42.2042308,83.7015385 L42.2042308,86.4615385 Z" id="SORRY" fill="#4A4A4A" transform="translate(28.394231, 82.961538) rotate(-46.000000) translate(-28.394231, -82.961538) "></path>
                </g>
            </g>
        </g>
    </g>
</svg>