<?xml version="1.0" encoding="UTF-8" standalone="no"?>
<svg width="160px" height="160px" viewBox="0 0 160 160" version="1.1" xmlns="http://www.w3.org/2000/svg" xmlns:xlink="http://www.w3.org/1999/xlink">
    <!-- Generator: Sketch 41.2 (35397) - http://www.bohemiancoding.com/sketch -->
    <title>holidays</title>
    <desc>Created with Sketch.</desc>
    <defs></defs>
    <g id="Page-1" stroke="none" stroke-width="1" fill="none" fill-rule="evenodd">
        <g id="Mobile-Portrait-Copy" transform="translate(-127.000000, -230.000000)">
            <g id="Group-19" transform="translate(127.000000, 230.000000)">
                <g id="Group-17" transform="translate(8.000000, 8.000000)">
                    <path d="M105.149206,59.992381 C102.666667,65.1746032 99.2774603,69.408254 95.7777778,71.655873 C83.607619,79.4704762 68.0304762,77.6952381 57.9174603,68.2628571" id="Shape" stroke="#59595C" stroke-width="1.8642"></path>
                    <path d="M109.884444,29.6685714 C101.611429,34.9815873 90.5968254,32.5815873 85.2838095,24.3085714" id="Shape" stroke="#59595C" stroke-width="1.8642"></path>
                    <path d="M90.7225397,30.1955556 C87.5784127,32.2146032 83.391746,31.3028571 81.3726984,28.1587302" id="Shape" stroke="#59595C" stroke-width="1.8642"></path>
                    <path d="M94.1803175,23.0577778 C91.8869841,24.5307937 88.8330159,23.8653968 87.36,21.5720635" id="Shape" stroke="#59595C" stroke-width="1.8642"></path>
                    <path d="M114.179048,29.3422222 C104.791111,32.2653968 94.8101587,27.0247619 91.8869841,17.6368254" id="Shape" stroke="#59595C" stroke-width="1.8642"></path>
                    <path d="M109.779048,63.7892063 C114.217143,72.9219048 107.131429,76.8952381 107.131429,76.8952381 L107.179683,78.4228571 L107.28254,81.7053968 L107.471746,87.7066667 C107.498413,88.5511111 108.204444,89.2126984 109.047619,89.1873016 C109.892063,89.1606349 110.554921,88.4546032 110.528254,87.6114286 L110.327619,81.2139683 C115.387937,79.704127 124.79746,71.5746032 115.365079,59.3549206" id="Shape" stroke="#59595C" stroke-width="1.7388" fill="#FBCD47"></path>
                    <path d="M135.395556,62.3174603 L127.532698,58.5714286 C126.378413,58.0215873 125.888254,56.64 126.438095,55.4857143 C126.987937,54.3314286 128.369524,53.8412698 129.52381,54.3911111 L137.386667,58.1371429 C138.335238,58.5892063 138.836825,59.6990476 138.843175,60.72 L139.182222,68.647619 C139.233016,69.447619 138.624762,70.1371429 137.824762,70.1866667 C137.024762,70.2374603 136.335238,69.6292063 136.285714,68.8292063 L135.888254,62.4850794 C135.720635,62.448254 135.555556,62.3936508 135.395556,62.3174603 Z" id="Shape" stroke="#59595C" stroke-width="1.7388" fill="#FBCD47"></path>
                    <path d="M96.8330159,62.4050794 L106.189206,56.3974603 C106.189206,56.3987302 106.190476,56.4012698 106.190476,56.4025397 C106.223492,56.3822222 106.256508,56.3619048 106.289524,56.3428571 L117.883175,48.8977778 L110.598095,37.6926984 C106.808889,39.7396825 102.987937,39.8946032 101.725714,37.927619 C101.719365,37.9174603 101.715556,37.9060317 101.709206,37.8971429 L108.073651,33.8095238 L107.539048,32.9866667 C107.070476,32.2577778 107.28254,31.2863492 108.011429,30.8177778 L113.469206,27.3130159 C113.60254,27.2279365 113.744762,27.1720635 113.888254,27.1314286 L113.888254,27.1238095 L113.91873,27.1225397 C114.16,27.0590476 114.407619,27.047619 114.646349,27.0996825 L121.941587,26.8660317 C122.045714,26.8571429 122.149841,26.8546032 122.252698,26.855873 L122.252698,26.855873 C123.330794,26.8711111 124.379683,27.4069841 125.005714,28.3822222 C125.99746,29.9263492 125.549206,31.9834921 124.005079,32.9752381 L119.11873,36.1130159 L118.703492,36.3796825 L117.420952,37.2038095 L128.829206,48.3073016 C129.498413,48.7885714 130.106667,49.3739683 130.627302,50.0571429 L130.725079,50.152381 L130.699683,50.152381 C130.813968,50.3073016 130.925714,50.4647619 131.031111,50.6285714 C133.586032,54.6069841 132.431746,59.9034921 128.453333,62.4584127 C127.84127,62.8507937 127.19873,63.1555556 126.539683,63.3765079 L112.581587,69.2012698 L112.542222,69.0844444 C109.427302,70.3606349 105.749841,69.2774603 103.865397,66.344127 C103.245714,65.3803175 102.891429,64.3225397 102.778413,63.255873 C100.777143,64.0952381 98.487619,63.7447619 96.8330159,62.4050794 Z" id="Shape" stroke="#565655" stroke-width="1.5" fill="#FFB133"></path>
                    <path d="M104.346667,67.0920635 C108.784762,76.2247619 101.699048,80.1980952 101.699048,80.1980952 L101.747302,81.7257143 L101.850159,85.008254 L102.039365,91.0095238 C102.066032,91.8539683 102.772063,92.5155556 103.615238,92.4901587 C104.459683,92.4634921 105.12254,91.7574603 105.095873,90.9142857 L104.895238,84.5168254 C109.955556,83.0069841 119.365079,74.8774603 109.932698,62.6577778" id="Shape" stroke="#565655" stroke-width="1.5" fill="#FFB133"></path>
                    <path d="M126.863492,57.0311111 L134.726349,60.7771429 C135.674921,61.2292063 136.176508,62.3390476 136.182857,63.36 L136.521905,71.287619 C136.571429,72.087619 135.964444,72.7771429 135.164444,72.8266667 C134.364444,72.8774603 133.674921,72.2692063 133.625397,71.4692063 L133.227937,65.1250794 C133.061587,65.088254 132.896508,65.0336508 132.736508,64.9574603 L124.873651,61.2114286" id="Shape" stroke="#59595C" stroke-width="1.7388" fill="#FDDF66"></path>
                    <circle id="Oval" stroke="#59595C" stroke-width="1.7388" fill="#FFFFFF" cx="123.852698" cy="26.4571429" r="2.19301587"></circle>
                    <path d="M121.309206,58.8609524 C120.725079,58.8609524 120.187937,58.567619 119.873016,58.0761905 L114.784762,50.1511111 C114.276825,49.3587302 114.506667,48.3022222 115.297778,47.7942857 C115.573333,47.6177778 115.892063,47.5238095 116.219683,47.5238095 C116.80254,47.5238095 117.339683,47.8171429 117.654603,48.3073016 L122.744127,56.2336508 C122.990476,56.6184127 123.073016,57.0755556 122.976508,57.52 C122.87873,57.9657143 122.613333,58.3453968 122.229841,58.5904762 C121.955556,58.768254 121.636825,58.8609524 121.309206,58.8609524 Z" id="Shape" fill="#00A28B"></path>
                    <path d="M116.218413,48.4774603 C116.466032,48.4774603 116.708571,48.5993651 116.853333,48.824127 L121.942857,56.7492063 C122.167619,57.0996825 122.066032,57.5657143 121.716825,57.7904762 C121.591111,57.871746 121.450159,57.9098413 121.310476,57.9098413 C121.062857,57.9098413 120.820317,57.7879365 120.675556,57.5631746 L115.586032,49.6380952 C115.36127,49.287619 115.462857,48.8215873 115.812063,48.5968254 C115.939048,48.5155556 116.08,48.4774603 116.218413,48.4774603 L116.218413,48.4774603 Z M116.219683,46.5726984 L116.219683,46.5726984 C115.709206,46.5726984 115.213968,46.7187302 114.783492,46.9942857 C113.550476,47.7866667 113.192381,49.4336508 113.983492,50.6666667 L119.073016,58.591746 C119.564444,59.3561905 120.40127,59.8133333 121.310476,59.8133333 C121.820952,59.8133333 122.31619,59.6673016 122.746667,59.391746 C123.979683,58.5993651 124.337778,56.952381 123.546667,55.7193651 L118.457143,47.7942857 C117.964444,47.0285714 117.128889,46.5726984 116.219683,46.5726984 L116.219683,46.5726984 Z" id="Shape" fill="#565655"></path>
                    <path d="M108.64,59.8019048 C108.057143,59.8019048 107.52127,59.5098413 107.205079,59.0196825 L105.385397,56.1866667 C104.87746,55.3942857 105.107302,54.3377778 105.898413,53.8298413 C106.175238,53.6533333 106.493968,53.5593651 106.820317,53.5593651 C107.403175,53.5593651 107.940317,53.8514286 108.256508,54.3428571 L110.074921,57.1746032 C110.581587,57.9669841 110.351746,59.0234921 109.563175,59.5314286 C109.285079,59.7079365 108.966349,59.8019048 108.64,59.8019048 Z" id="Shape" fill="#00A28B"></path>
                    <path d="M106.820317,54.511746 C107.067937,54.511746 107.310476,54.6336508 107.455238,54.8584127 L109.273651,57.6888889 C109.498413,58.0393651 109.396825,58.5053968 109.047619,58.7301587 C108.921905,58.8114286 108.780952,58.8495238 108.64127,58.8495238 C108.393651,58.8495238 108.151111,58.727619 108.006349,58.5028571 L106.187937,55.672381 C105.963175,55.3219048 106.064762,54.855873 106.413968,54.6311111 C106.540952,54.5511111 106.681905,54.511746 106.820317,54.511746 L106.820317,54.511746 Z M106.821587,52.6069841 L106.821587,52.6069841 C106.311111,52.6069841 105.815873,52.7530159 105.385397,53.0285714 C104.788571,53.4120635 104.375873,54.0050794 104.224762,54.6996825 C104.073651,55.3930159 104.201905,56.104127 104.585397,56.7009524 L106.40381,59.5314286 C106.895238,60.295873 107.732063,60.7530159 108.64127,60.7530159 C109.150476,60.7530159 109.646984,60.6069841 110.07619,60.3314286 C111.309206,59.5390476 111.667302,57.8920635 110.87619,56.6590476 L109.057778,53.8285714 C108.566349,53.064127 107.730794,52.6069841 106.821587,52.6069841 L106.821587,52.6069841 Z" id="Shape" fill="#565655"></path>
                    <path d="M118.096508,33.3028571 C109.823492,38.615873 98.8088889,36.215873 93.495873,27.9428571" id="Shape" stroke="#59595C" stroke-width="1.8642"></path>
                    <path d="M98.9346032,33.8285714 C95.7904762,35.847619 91.6038095,34.935873 89.5847619,31.791746" id="Shape" stroke="#59595C" stroke-width="1.8642"></path>
                    <path d="M102.392381,26.6907937 C100.099048,28.1638095 97.0450794,27.4984127 95.5720635,25.2050794" id="Shape" stroke="#59595C" stroke-width="1.8642"></path>
                    <path d="M122.391111,32.9752381 C113.003175,35.8984127 103.022222,30.6577778 100.099048,21.2698413" id="Shape" stroke="#59595C" stroke-width="1.8642"></path>
                    <path d="M117.991111,67.4222222 C122.429206,76.5549206 115.343492,80.528254 115.343492,80.528254 L115.391746,82.055873 L115.494603,85.3384127 L115.68381,91.3396825 C115.710476,92.184127 116.416508,92.8457143 117.259683,92.8203175 C118.104127,92.7936508 118.766984,92.087619 118.740317,91.2444444 L118.539683,84.8469841 C123.6,83.3371429 133.009524,75.207619 123.577143,62.9879365" id="Shape" stroke="#565655" stroke-width="1.5" fill="#FFB133"></path>
                    <path d="M143.607619,65.9504762 L135.744762,62.2044444 C134.590476,61.6546032 134.100317,60.2730159 134.650159,59.1187302 C135.2,57.9644444 136.581587,57.4742857 137.735873,58.024127 L145.59873,61.7701587 C146.547302,62.2222222 147.048889,63.3320635 147.055238,64.3530159 L147.394286,72.2806349 C147.44381,73.0806349 146.836825,73.7701587 146.036825,73.8196825 C145.236825,73.8704762 144.547302,73.2622222 144.497778,72.4622222 L144.100317,66.1180952 C143.932698,66.0812698 143.767619,66.0266667 143.607619,65.9504762 Z" id="Shape" stroke="#565655" stroke-width="1.5" fill="#FFB133"></path>
                    <path d="M105.045079,66.0380952 L114.40127,60.0304762 C114.40127,60.031746 114.40254,60.0342857 114.40254,60.0355556 C114.435556,60.0152381 114.468571,59.9949206 114.501587,59.975873 L126.095238,52.5307937 L118.810159,41.3257143 C115.020952,43.3726984 111.2,43.527619 109.937778,41.5606349 C109.931429,41.5504762 109.927619,41.5390476 109.92127,41.5301587 L116.285714,37.4425397 L115.751111,36.6196825 C115.28254,35.8907937 115.494603,34.9193651 116.223492,34.4507937 L121.68127,30.9460317 C121.814603,30.8609524 121.956825,30.8050794 122.100317,30.7644444 L122.100317,30.7568254 L122.130794,30.7555556 C122.372063,30.6920635 122.619683,30.6806349 122.858413,30.7326984 L130.153651,30.4990476 C130.257778,30.4901587 130.361905,30.487619 130.464762,30.4888889 L130.464762,30.4888889 C131.542857,30.504127 132.591746,31.04 133.217778,32.0152381 C134.209524,33.5593651 133.76127,35.6165079 132.217143,36.608254 L127.330794,39.7460317 L126.915556,40.0126984 L125.633016,40.8368254 L137.04127,51.9403175 C137.710476,52.4215873 138.31873,53.0069841 138.839365,53.6901587 L138.937143,53.7853968 L138.911746,53.7853968 C139.026032,53.9403175 139.137778,54.0977778 139.243175,54.2615873 C141.798095,58.24 140.64381,63.5365079 136.665397,66.0914286 C136.053333,66.4838095 135.410794,66.7885714 134.751746,67.0095238 L120.792381,72.8355556 L120.753016,72.7187302 C117.638095,73.9949206 113.960635,72.911746 112.07619,69.9784127 C111.457778,69.0146032 111.102222,67.9568254 110.989206,66.8901587 C108.989206,67.728254 106.699683,67.3777778 105.045079,66.0380952 Z" id="Shape" stroke="#565655" stroke-width="1.5" fill="#FFD731"></path>
                    <path d="M112.55873,70.7250794 C116.996825,79.8577778 109.911111,83.8311111 109.911111,83.8311111 L109.959365,85.3587302 L110.062222,88.6412698 L110.251429,94.6425397 C110.278095,95.4869841 110.984127,96.1485714 111.827302,96.1231746 C112.671746,96.0965079 113.334603,95.3904762 113.307937,94.5473016 L113.107302,88.1498413 C118.167619,86.64 127.577143,78.5104762 118.144762,66.2907937" id="Shape" stroke="#565655" stroke-width="1.5" fill="#FFD731"></path>
                    <path d="M135.075556,60.664127 L142.938413,64.4101587 C143.886984,64.8622222 144.388571,65.9720635 144.394921,66.9930159 L144.733968,74.9206349 C144.783492,75.7206349 144.176508,76.4101587 143.376508,76.4596825 C142.576508,76.5104762 141.886984,75.9022222 141.83746,75.1022222 L141.44,68.7580952 C141.273651,68.7212698 141.108571,68.6666667 140.948571,68.5904762 L133.085714,64.8444444" id="Shape" stroke="#565655" stroke-width="1.5" fill="#FFD731"></path>
                    <ellipse id="Oval" stroke="#59595C" stroke-width="1.7388" fill="#EC1C24" cx="132.064762" cy="30.0901587" rx="2.19301587" ry="2.19301587"></ellipse>
                    <path d="M129.52254,62.4939683 C128.939683,62.4939683 128.40381,62.2019048 128.087619,61.711746 L122.996825,53.784127 C122.490159,52.9930159 122.71873,51.9365079 123.508571,51.4285714 C123.785397,51.2507937 124.104127,51.1580952 124.431746,51.1580952 C125.015873,51.1580952 125.553016,51.4514286 125.867937,51.9428571 L130.95746,59.8679365 C131.465397,60.6603175 131.234286,61.7168254 130.444444,62.2247619 C130.166349,62.4012698 129.847619,62.4939683 129.52254,62.4939683 Z" id="Shape" fill="#00A28B"></path>
                    <path d="M124.431746,52.1104762 C124.679365,52.1104762 124.921905,52.232381 125.066667,52.4571429 L130.15619,60.3822222 C130.380952,60.7326984 130.279365,61.1987302 129.930159,61.4234921 C129.804444,61.5047619 129.663492,61.5428571 129.52381,61.5428571 C129.27619,61.5428571 129.033651,61.4209524 128.888889,61.1961905 L123.799365,53.2711111 C123.574603,52.9206349 123.67619,52.4546032 124.026667,52.2298413 C124.151111,52.1485714 124.292063,52.1104762 124.431746,52.1104762 L124.431746,52.1104762 Z M124.431746,50.2057143 C123.92127,50.2057143 123.424762,50.351746 122.995556,50.6273016 C122.39873,51.0107937 121.987302,51.6038095 121.834921,52.2971429 C121.68381,52.9904762 121.812063,53.7015873 122.195556,54.2996825 L127.285079,62.2247619 C127.776508,62.9892063 128.613333,63.4463492 129.52254,63.4463492 C130.031746,63.4463492 130.528254,63.3003175 130.95746,63.0247619 C131.554286,62.6412698 131.966984,62.048254 132.118095,61.3536508 C132.269206,60.6603175 132.140952,59.9492063 131.75746,59.352381 L126.667937,51.4273016 C126.176508,50.6615873 125.340952,50.2057143 124.431746,50.2057143 L124.431746,50.2057143 Z" id="Shape" fill="#565655"></path>
                    <path d="M116.852063,63.4349206 C116.269206,63.4349206 115.732063,63.1415873 115.417143,62.6514286 L113.59873,59.8209524 C113.090794,59.0273016 113.320635,57.9707937 114.111746,57.464127 C114.387302,57.287619 114.706032,57.1949206 115.032381,57.1949206 C115.616508,57.1949206 116.153651,57.4869841 116.468571,57.9784127 L118.286984,60.8088889 C118.533333,61.192381 118.615873,61.648254 118.518095,62.0939683 C118.421587,62.5396825 118.15746,62.9193651 117.773968,63.1657143 C117.498413,63.3409524 117.179683,63.4349206 116.852063,63.4349206 Z" id="Shape" fill="#00A28B"></path>
                    <path d="M115.032381,58.1447619 C115.28,58.1447619 115.52254,58.2666667 115.667302,58.4914286 L117.485714,61.3219048 C117.710476,61.672381 117.608889,62.1384127 117.259683,62.3631746 C117.133968,62.4444444 116.993016,62.4825397 116.853333,62.4825397 C116.605714,62.4825397 116.363175,62.3606349 116.218413,62.135873 L114.4,59.3053968 C114.175238,58.9549206 114.276825,58.4888889 114.626032,58.264127 C114.753016,58.184127 114.893968,58.1447619 115.032381,58.1447619 L115.032381,58.1447619 Z M115.033651,56.24 C114.524444,56.24 114.027937,56.3860317 113.59746,56.6615873 C112.364444,57.4539683 112.006349,59.1009524 112.79746,60.3339683 L114.615873,63.1644444 C115.107302,63.9288889 115.944127,64.3860317 116.853333,64.3860317 C117.36254,64.3860317 117.859048,64.24 118.288254,63.9644444 C118.885079,63.5809524 119.297778,62.9879365 119.448889,62.2933333 C119.6,61.6 119.471746,60.8888889 119.088254,60.2920635 L117.269841,57.4615873 C116.778413,56.6971429 115.942857,56.24 115.033651,56.24 L115.033651,56.24 Z" id="Shape" fill="#565655"></path>
                    <path d="M107.714286,57.1377778 C105.652063,65.9555556 100.646349,73.8107937 95.3904762,77.1860317 C83.2203175,85.0006349 67.6431746,83.2253968 57.5301587,73.7930159" id="Shape" stroke="#59595C" stroke-width="1.8642"></path>
                    <path d="M19.6926984,44.6438095 C14.1701587,48.1904762 12.567619,55.5428571 16.1142857,61.0653968 L22.535873,71.0653968 L25.6050794,69.0946032 C25.1619048,68.2349206 24.8368254,67.3409524 24.6196825,66.4330159 C24.1206349,64.3479365 24.2044444,62.1853968 24.8203175,60.1752381 L28.7161905,66.2425397 C30.0368254,65.9466667 31.3295238,65.4171429 32.5346032,64.6438095 C38.0571429,61.0971429 39.6596825,53.7447619 36.1130159,48.2222222 C32.5663492,42.6996825 25.2152381,41.0971429 19.6926984,44.6438095 Z" id="Shape" stroke="#59595C" stroke-width="1.7388" fill="#F25A66"></path>
                    <path d="M21.847619,65.2914286 L18.2514286,59.6926984 C16.9028571,57.592381 16.4533333,55.0920635 16.984127,52.6539683 C17.5161905,50.215873 18.9663492,48.1295238 21.0666667,46.7809524 C22.5765079,45.8107937 24.32,45.2977778 26.104127,45.2977778" id="Shape" stroke="#FFFFFF" stroke-width="1.4"></path>
                    <rect id="Rectangle-path" stroke="#565655" stroke-width="1.49990853" fill="#FFB133" transform="translate(37.143881, 58.090651) rotate(-32.706307) translate(-37.143881, -58.090651) " x="32.9619142" y="51.6453302" width="8.36393441" height="12.8906425"></rect>
                    <path d="M38.7149206,135.178413 C37.9631746,135.178413 37.2736508,134.80127 36.8698413,134.171429 L32.9244444,128.027937 C32.271746,127.012063 32.567619,125.654603 33.5847619,125.001905 C33.9377778,124.774603 34.3479365,124.655238 34.7669841,124.655238 C35.5174603,124.655238 36.2069841,125.031111 36.6107937,125.662222 L40.5549206,131.804444 C41.207619,132.820317 40.911746,134.177778 39.8971429,134.831746 C39.5415873,135.057778 39.1326984,135.178413 38.7149206,135.178413 Z" id="Shape" fill="#FFB133"></path>
                    <path d="M34.7669841,125.606349 C35.1746032,125.606349 35.5733333,125.806984 35.8095238,126.175238 L39.7536508,132.31873 C40.1231746,132.893968 39.9568254,133.659683 39.3815873,134.029206 C39.1746032,134.16254 38.9434921,134.226032 38.7136508,134.226032 C38.3060317,134.226032 37.9073016,134.025397 37.6711111,133.657143 L33.7257143,127.513651 C33.3561905,126.938413 33.5238095,126.172698 34.0990476,125.803175 C34.3060317,125.671111 34.5371429,125.607619 34.7669841,125.606349 L34.7669841,125.606349 Z M34.7669841,123.702857 L34.7669841,123.702857 C34.1638095,123.702857 33.5771429,123.875556 33.0692063,124.201905 C31.6114286,125.137778 31.1873016,127.085714 32.1231746,128.543492 L36.0685714,134.686984 C36.6488889,135.591111 37.6380952,136.132063 38.7136508,136.132063 C39.3168254,136.132063 39.9034921,135.959365 40.4114286,135.633016 C41.1174603,135.179683 41.6050794,134.47746 41.784127,133.658413 C41.9631746,132.838095 41.8107937,131.99746 41.3574603,131.291429 L37.4133333,125.149206 C36.831746,124.24254 35.8425397,123.702857 34.7669841,123.702857 L34.7669841,123.702857 Z" id="Shape" fill="#565655"></path>
                    <path d="M54.7720635,124.866032 C54.0215873,124.866032 53.3320635,124.488889 52.928254,123.859048 L48.984127,117.715556 C48.3314286,116.699683 48.6273016,115.342222 49.6444444,114.689524 C49.9974603,114.460952 50.407619,114.342857 50.8266667,114.342857 C51.575873,114.342857 52.2653968,114.71873 52.6704762,115.347302 L56.6146032,121.492063 C56.9307937,121.984762 57.0361905,122.571429 56.9104762,123.142857 C56.7860317,123.715556 56.4457143,124.204444 55.9530159,124.519365 C55.6012698,124.745397 55.1911111,124.866032 54.7720635,124.866032 Z" id="Shape" fill="#FFB133"></path>
                    <path d="M50.8253968,115.293968 C51.2330159,115.293968 51.631746,115.494603 51.8679365,115.862857 L55.8120635,122.006349 C56.1815873,122.581587 56.0152381,123.347302 55.44,123.716825 C55.2330159,123.850159 55.0019048,123.913651 54.7720635,123.913651 C54.3644444,123.913651 53.9657143,123.713016 53.7295238,123.344762 L49.7853968,117.20127 C49.415873,116.626032 49.5834921,115.860317 50.1587302,115.490794 C50.3644444,115.35746 50.5968254,115.293968 50.8253968,115.293968 L50.8253968,115.293968 Z M50.8253968,113.389206 L50.8253968,113.389206 C50.2222222,113.389206 49.6355556,113.561905 49.127619,113.888254 C47.6698413,114.824127 47.2457143,116.772063 48.1815873,118.229841 L52.1269841,124.373333 C52.7085714,125.27746 53.6977778,125.818413 54.7720635,125.818413 C55.3739683,125.818413 55.9619048,125.645714 56.4685714,125.320635 C57.1746032,124.867302 57.6622222,124.165079 57.8412698,123.344762 C58.0203175,122.524444 57.8679365,121.68381 57.4146032,120.977778 L53.4704762,114.835556 C52.8901587,113.930159 51.9009524,113.389206 50.8253968,113.389206 L50.8253968,113.389206 Z" id="Shape" fill="#565655"></path>
                    <path d="M70.831746,114.553651 C70.0812698,114.553651 69.391746,114.176508 68.9879365,113.546667 L65.0438095,107.403175 C64.3911111,106.387302 64.6869841,105.029841 65.704127,104.377143 C66.0571429,104.149841 66.4660317,104.030476 66.8863492,104.030476 C67.6355556,104.030476 68.3250794,104.406349 68.7301587,105.034921 L72.6742857,111.179683 C72.9904762,111.672381 73.095873,112.259048 72.9701587,112.830476 C72.8457143,113.403175 72.5053968,113.892063 72.0126984,114.206984 C71.6596825,114.433016 71.2507937,114.553651 70.831746,114.553651 Z" id="Shape" fill="#FFB133"></path>
                    <path d="M66.8850794,104.981587 C67.2926984,104.981587 67.6914286,105.182222 67.927619,105.550476 L71.871746,111.693968 C72.2412698,112.269206 72.0736508,113.034921 71.4996825,113.404444 C71.2926984,113.537778 71.0615873,113.60127 70.831746,113.60127 C70.424127,113.60127 70.0253968,113.400635 69.7892063,113.032381 L65.8450794,106.888889 C65.4755556,106.313651 65.6431746,105.547937 66.2171429,105.178413 C66.424127,105.045079 66.6552381,104.981587 66.8850794,104.981587 L66.8850794,104.981587 Z M66.8850794,103.076825 L66.8850794,103.076825 C66.2831746,103.076825 65.6952381,103.249524 65.1885714,103.574603 C63.7295238,104.511746 63.3053968,106.459683 64.2425397,107.91746 L68.1866667,114.059683 C68.768254,114.96381 69.7574603,115.504762 70.831746,115.504762 C71.4336508,115.504762 72.0215873,115.332063 72.528254,115.006984 C73.9873016,114.069841 74.4114286,112.121905 73.4742857,110.664127 L69.5301587,104.521905 C68.9485714,103.616508 67.9593651,103.076825 66.8850794,103.076825 L66.8850794,103.076825 Z" id="Shape" fill="#565655"></path>
                    <ellipse id="Oval" stroke="#565655" stroke-width="1.5" fill="#FFD731" cx="19.7015873" cy="101.093333" rx="19.7015873" ry="19.7015873"></ellipse>
                    <path d="M5.25968254,110.366984 C0.147301587,102.40381 2.46603175,91.7663492 10.4279365,86.6514286 C13.2025397,84.8711111 16.4012698,83.927619 19.6812698,83.927619" id="Shape" stroke="#FFFFFF" stroke-width="1.4"></path>
                    <ellipse id="Oval" stroke="#565655" stroke-width="1.5" fill="#FFB133" cx="58.8279365" cy="68.0634921" rx="3.62539683" ry="3.62539683"></ellipse>
                    <path d="M29.8298413,65.272381 C30.0038095,65.5784127 30.1879365,65.8819048 30.3809524,66.1803175 C36.504127,75.7155556 49.1974603,78.4812698 58.7326984,72.3580952 L54.1561905,65.231746 C48.5561905,68.8279365 41.1034921,67.2038095 37.5073016,61.6038095 C37.3130159,61.3015873 37.1415873,60.9930159 36.9777778,60.6819048" id="Shape" stroke="#59595C" stroke-width="1.7388" fill="#F25A66"></path>
                    <path d="M58.6273016,71.5504762 C59.367619,72.7034921 59.0336508,74.2374603 57.8806349,74.9777778 L57.8806349,74.9777778 C56.727619,75.7180952 55.1936508,75.384127 54.4533333,74.2311111 L50.3606349,67.8590476 C49.6203175,66.7060317 49.9542857,65.1720635 51.1073016,64.431746 L51.1073016,64.431746 C52.2603175,63.6914286 53.7942857,64.0253968 54.5346032,65.1784127 L58.6273016,71.5504762 Z" id="Shape" stroke="#59595C" stroke-width="1.7388" fill="#FFFFFF"></path>
                    <path d="M47.7422222,83.4234921 C43.895873,77.4336508 41.7968254,71.12 41.5111111,65.7549206 C36.855873,63.2330159 32.3301587,62.6590476 29.008254,64.792381 C22.1701587,69.1834921 22.8673016,82.4634921 30.5663492,94.4533333 L47.7422222,83.4234921 Z" id="Shape" stroke="#59595C" stroke-width="1.7388" fill="#F25A66"></path>
                    <path d="M31.3942857,90.9028571 C27.04,83.1365079 25.7168254,75.0031746 27.752381,70.1904762" id="Shape" stroke="#FFFFFF" stroke-width="1.4"></path>
                    <path d="M62.9257143,84.5104762 C60.5968254,79.8387302 55.6901587,82.8215873 55.3003175,83.1822222 L50.1434921,86.4939683 C49.5187302,85.5212698 48.7631746,84.688254 47.9174603,83.992381 L30.4774603,94.1739683 C30.7174603,95.5428571 31.2266667,96.887619 32.024127,98.1295238 C35.2380952,103.133968 41.8984127,104.584127 46.9015873,101.370159 C47.3536508,101.079365 48.8685714,100.106667 49.2050794,99.8907937 L56.9092063,94.9434921 L61.7320635,104.229841 L70.6755556,100.355556 L62.9257143,84.5104762" id="Shape" stroke="#59595C" stroke-width="1.7388" fill="#F25A66"></path>
                    <path d="M51.8996825,85.3663492 L43.1936508,90.9561905" id="Shape" stroke="#59595C" stroke-width="1.7388"></path>
                    <path d="M65.7701587,97.7980952 C65.7638095,97.8019048 65.76,97.8069841 65.7536508,97.8107937 L63.4133333,99.3130159 L63.4120635,99.311746 L61.4565079,100.567619 C60.6984127,101.053968 60.4787302,102.064762 60.9650794,102.822857 L63.7346032,107.135238 L67.0628571,104.998095 L67.0514286,104.980317 L69.391746,103.478095 L75.0704762,99.8565079 C73.0679365,96.72 68.9053968,95.7980952 65.7701587,97.7980952 Z" id="Shape" stroke="#59595C" stroke-width="1.7388" fill="#FDDF66"></path>
                    <ellipse id="Oval" stroke="#565655" stroke-width="1.5" fill="#FFB133" cx="56.5955556" cy="74.184127" rx="3.62539683" ry="3.62539683"></ellipse>
                    <path d="M30.024127,75.3231746 C36.5993651,82.8787302 47.8946032,84.6692063 56.5726984,79.095873 L51.9961905,71.9695238 C47.192381,75.0539683 41.0260317,74.2971429 37.0984127,70.4863492" id="Shape" stroke="#59595C" stroke-width="1.7388" fill="#F25A66"></path>
                    <path d="M56.2526984,80.4952381 C56.8507937,81.4273016 56.5803175,82.6679365 55.648254,83.2660317 L32.6387302,98.0431746 C31.7066667,98.6412698 30.4660317,98.3707937 29.8679365,97.44 L29.8679365,97.44 C29.2698413,96.5079365 29.5403175,95.2673016 30.472381,94.6692063 L53.4831746,79.8920635 C54.4139683,79.2926984 55.6546032,79.5631746 56.2526984,80.4952381 L56.2526984,80.4952381 Z" id="Shape" stroke="#59595C" stroke-width="1.7388" fill="#FFFFFF"></path>
                    <path d="M69.9492063,94.9777778 C70.6704762,96.1003175 70.344127,97.5949206 69.2215873,98.3161905 L61.8234921,103.066667 C60.7009524,103.787937 59.2063492,103.461587 58.4850794,102.339048 L58.4850794,102.339048 C57.7638095,101.216508 58.0901587,99.7219048 59.2126984,99.0006349 L66.6107937,94.2501587 C67.7333333,93.5288889 69.2279365,93.8552381 69.9492063,94.9777778 L69.9492063,94.9777778 Z" id="Shape" stroke="#59595C" stroke-width="1.7388" fill="#FFFFFF"></path>
                    <path d="M80.7809524,83.1250794 C84.2107937,88.4660317 82.6615873,95.5771429 77.3206349,99.0069841 C71.9796825,102.436825 64.8685714,100.887619 61.4387302,95.5466667 L59.6050794,92.6920635 L51.5961905,97.8349206 C48.1015873,100.07873 43.4488889,99.0653968 41.2050794,95.5707937 L39.8285714,93.4260317 L18.0177778,107.431111 C11.2711111,111.76381 9.31428571,120.745397 13.6469841,127.492063 C17.9796825,134.23873 26.9612698,136.195556 33.7079365,131.862857 L80.288254,101.950476 C87.0349206,97.6177778 88.991746,88.6361905 84.6590476,81.8895238 C83.8196825,80.5828571 82.8050794,79.4590476 81.6685714,78.5219048 L78.9485714,80.2692063 L80.7809524,83.1250794 Z" id="Shape" stroke="#565655" stroke-width="1.5" fill="#00A28B"></path>
                    <path d="M32.3339683,129.726984 C30.3987302,130.970159 28.1650794,131.627937 25.8755556,131.627937 C21.7714286,131.627937 17.9974603,129.569524 15.7828571,126.119365 C12.2146032,120.56254 13.832381,113.137778 19.3904762,109.568254 L39.0628571,96.935873 L39.0679365,96.9434921 C40.9269841,99.8387302 44.0939683,101.568254 47.5390476,101.568254 C49.4653968,101.568254 51.3422222,101.015873 52.967619,99.9720635 L58.8393651,96.2019048 L59.3003175,96.9193651 C59.3003175,96.9193651 64.6526984,106.773333 73.6469841,102.670476" id="Shape" stroke="#FFFFFF" stroke-width="1.4"></path>
                    <circle id="Oval" stroke="#565655" stroke-width="1.5" fill="#FFD731" cx="82.4139683" cy="78.0126984" r="4.20571429"></circle>
                    <path d="M36.2184127,141.113651 C35.4679365,141.113651 34.7784127,140.737778 34.3746032,140.106667 C33.7219048,139.090794 34.0177778,137.733333 35.0336508,137.080635 L89.5593651,102.066032 C89.912381,101.83873 90.3225397,101.719365 90.7415873,101.719365 C91.4920635,101.719365 92.1815873,102.095238 92.5853968,102.726349 C92.9015873,103.217778 93.0069841,103.804444 92.8825397,104.375873 C92.7568254,104.947302 92.4177778,105.43619 91.9250794,105.752381 L37.4006349,140.766984 C37.0463492,140.993016 36.6374603,141.113651 36.2184127,141.113651 Z" id="Shape" fill="#FFB133"></path>
                    <path d="M90.7415873,102.670476 C91.1492063,102.670476 91.5479365,102.871111 91.784127,103.239365 C92.1536508,103.814603 91.9860317,104.580317 91.4120635,104.949841 L36.8850794,139.964444 C36.6780952,140.097778 36.4469841,140.16127 36.2171429,140.16127 C35.8095238,140.16127 35.4107937,139.960635 35.1746032,139.592381 C34.8050794,139.017143 34.9726984,138.251429 35.5466667,137.881905 L90.072381,102.867302 C90.2806349,102.733968 90.511746,102.670476 90.7415873,102.670476 L90.7415873,102.670476 Z M90.7415873,100.765714 L90.7415873,100.765714 C90.1384127,100.765714 89.551746,100.938413 89.0438095,101.264762 L34.5180952,136.279365 C33.0603175,137.216508 32.6361905,139.164444 33.5720635,140.622222 C34.1536508,141.526349 35.1415873,142.067302 36.2171429,142.067302 C36.8190476,142.067302 37.4069841,141.894603 37.9136508,141.568254 L92.4393651,106.553651 C93.8971429,105.616508 94.3212698,103.668571 93.3853968,102.210794 C92.8063492,101.305397 91.8171429,100.765714 90.7415873,100.765714 L90.7415873,100.765714 Z" id="Shape" fill="#565655"></path>
                    <path d="M41.6761905,57.4031746 L44.7466667,62.184127 C47.1339683,65.9022222 46.055873,70.8520635 42.3377778,73.2393651 L42.3377778,73.2393651 C38.6196825,75.6266667 33.6698413,74.5485714 31.2825397,70.8304762 L28.2120635,66.0495238 L23.7206349,59.0539683 L30.1460317,54.9269841 L34.7085714,62.031746 L41.6761905,57.4031746 Z" id="Shape" stroke="#59595C" stroke-width="1.7388" fill="#FFFFFF"></path>
                    <path d="M57.4526984,77.6698413 C58.1930159,78.8228571 57.8590476,80.3568254 56.7060317,81.0971429 L56.7060317,81.0971429 C55.5530159,81.8374603 54.0190476,81.5034921 53.2787302,80.3504762 L49.1860317,73.9784127 C48.4457143,72.8253968 48.7796825,71.2914286 49.9326984,70.5511111 L49.9326984,70.5511111 C51.0857143,69.8107937 52.6196825,70.1447619 53.36,71.2977778 L57.4526984,77.6698413 Z" id="Shape" stroke="#59595C" stroke-width="1.7388" fill="#FFFFFF"></path>
                    <path d="M38.0901587,48.4012698 C38.8520635,49.5885714 38.5079365,51.168254 37.3206349,51.9301587 L25.3790476,59.5987302 C24.191746,60.3606349 22.6120635,60.0165079 21.8501587,58.8292063 L21.8501587,58.8292063 C21.088254,57.6419048 21.432381,56.0622222 22.6196825,55.3003175 L34.5612698,47.631746 C35.7485714,46.8698413 37.328254,47.2152381 38.0901587,48.4012698 L38.0901587,48.4012698 Z" id="Shape" stroke="#59595C" stroke-width="1.7388" fill="#FFFFFF"></path>
                    <ellipse id="Oval" stroke="#59595C" stroke-width="1.7388" fill="#FFFFFF" cx="24.2171429" cy="69.9860317" rx="3.32825397" ry="3.32825397"></ellipse>
                    <path d="M11.6634921,98.4520635 L14.8546032,100.167619 C14.8634921,100.173968 15.3257143,100.459683 15.8819048,100.184127 L16.3073016,99.9733333 C16.351746,99.951746 16.392381,99.927619 16.4304762,99.9034921 C16.8711111,99.6152381 16.9168254,99.1542857 16.9180952,99.1339683 L17.4819048,95.5669841 C17.6190476,94.7314286 17.4946032,93.8920635 17.1212698,93.1403175 C16.647619,92.184127 15.8273016,91.4692063 14.8139683,91.127619 C13.7993651,90.7847619 12.7149206,90.8584127 11.7587302,91.3333333 C11.6152381,91.4044444 11.4755556,91.4844444 11.3422222,91.5720635 C9.64952381,92.6806349 9.05269841,94.8825397 9.95174603,96.6971429 C10.3225397,97.4488889 10.9155556,98.055873 11.6634921,98.4520635 Z M11.944127,95.7066667 C11.5453968,94.9028571 11.8107937,93.9250794 12.5612698,93.4336508 C12.6196825,93.3955556 12.6819048,93.36 12.7466667,93.328254 C13.1707937,93.1187302 13.6520635,93.0857143 14.1015873,93.2368254 C14.5511111,93.3892063 14.9142857,93.7053968 15.1250794,94.1295238 C15.2901587,94.4609524 15.3447619,94.8330159 15.2838095,95.2063492 L14.8965079,97.6609524 L12.7060317,96.4838095 C12.3733333,96.3073016 12.1092063,96.0380952 11.944127,95.7066667 Z" id="Shape" fill="#00A28B"></path>
                    <path d="M16.4673016,100.704762 C17.0895238,100.39619 17.8146032,100.632381 18.1219048,101.252063 C18.3961905,101.805714 18.215873,102.455873 17.6914286,102.79873 C17.648254,102.826667 17.6012698,102.853333 17.5530159,102.87746 C16.928254,103.187302 16.2019048,102.952381 15.8971429,102.337778 C15.6,101.734603 15.832381,101.014603 16.4673016,100.704762 Z" id="Shape" fill="#00A28B"></path>
                    <path d="M113.963175,68.2819048 C113.963175,68.2819048 121.691429,77.4031746 112.060952,85.2342857" id="Shape" stroke="#FFFFFF" stroke-width="1.4"></path>
                    <path d="M121.108571,40.1549206 L126.976508,49.3612698" id="Shape" stroke="#FFFFFF" stroke-width="1.4"></path>
                    <path d="M118.096508,36.1269841 L122.824127,32.6768254" id="Shape" stroke="#FFFFFF" stroke-width="1.4"></path>
                    <path d="M40.2044444,8.74285714 L38.4190476,8.74285714 L39.488254,7.67365079 C39.8031746,7.35873016 39.8031746,6.84698413 39.488254,6.53079365 C39.1733333,6.21460317 38.6615873,6.21587302 38.3453968,6.53079365 L36.1333333,8.74285714 L32.2019048,8.74285714 L32.2019048,4.87746032 L34.6793651,2.4 C34.9942857,2.08507937 34.9942857,1.57333333 34.6793651,1.25714286 C34.3644444,0.942222222 33.8526984,0.942222222 33.5377778,1.25714286 L32.2019048,2.59301587 L32.2019048,0.807619048 C32.2019048,0.361904762 31.84,0 31.3942857,0 C30.9485714,0 30.5866667,0.361904762 30.5866667,0.807619048 L30.5866667,2.59301587 L29.5174603,1.52380952 C29.2025397,1.20888889 28.6907937,1.20888889 28.3746032,1.52380952 C28.0596825,1.83873016 28.0596825,2.35047619 28.3746032,2.66666667 L30.5866667,4.87873016 L30.5866667,8.74412698 L26.5231746,8.74412698 L24.1790476,6.4 C23.864127,6.08507937 23.352381,6.08507937 23.0361905,6.4 C22.7212698,6.71492063 22.7212698,7.22666667 23.0361905,7.54285714 L24.2387302,8.74539683 L22.5853968,8.74539683 C22.1384127,8.74539683 21.7777778,9.10730159 21.7777778,9.55301587 C21.7777778,9.99873016 22.1396825,10.3606349 22.5853968,10.3606349 L24.504127,10.3606349 L23.3015873,11.5631746 C22.9866667,11.8780952 22.9866667,12.3898413 23.3015873,12.7060317 C23.4590476,12.8634921 23.6660317,12.9422222 23.8730159,12.9422222 C24.08,12.9422222 24.2869841,12.8634921 24.4444444,12.7060317 L26.7885714,10.3619048 L30.5879365,10.3619048 L30.5879365,14.4926984 L28.2438095,16.8368254 C27.9288889,17.151746 27.9288889,17.6634921 28.2438095,17.9796825 C28.4012698,18.1371429 28.608254,18.215873 28.8152381,18.215873 C29.0222222,18.215873 29.2292063,18.1371429 29.3866667,17.9796825 L30.5892063,16.7771429 L30.5892063,18.4304762 C30.5892063,18.8761905 30.9511111,19.2380952 31.3968254,19.2380952 C31.8425397,19.2380952 32.2044444,18.8761905 32.2044444,18.4304762 L32.2044444,16.511746 L33.4069841,17.7142857 C33.5644444,17.871746 33.7714286,17.9504762 33.9784127,17.9504762 C34.1853968,17.9504762 34.392381,17.871746 34.5498413,17.7142857 C34.8647619,17.3993651 34.8647619,16.887619 34.5498413,16.5726984 L32.2057143,14.2285714 L32.2057143,10.3631746 L36.1371429,10.3631746 L38.6146032,12.8406349 C38.7720635,12.9980952 38.9790476,13.0768254 39.1860317,13.0768254 C39.3930159,13.0768254 39.6,12.9980952 39.7574603,12.8406349 C40.072381,12.5257143 40.072381,12.0139683 39.7574603,11.6977778 L38.4228571,10.3631746 L40.208254,10.3631746 C40.6552381,10.3631746 41.015873,10.0012698 41.015873,9.55555556 C41.0120635,9.1047619 40.6501587,8.74285714 40.2044444,8.74285714 Z" id="Shape" fill="#FFFFFF"></path>
                    <path d="M28.232381,7.6215873 C28.3898413,7.77904762 28.5968254,7.85777778 28.8038095,7.85777778 C29.0107937,7.85777778 29.2177778,7.77904762 29.3752381,7.6215873 C29.6901587,7.30666667 29.6901587,6.79492063 29.3752381,6.47873016 L27.5619048,4.66539683 C27.2469841,4.35047619 26.7352381,4.35047619 26.4190476,4.66539683 C26.104127,4.98031746 26.104127,5.49206349 26.4190476,5.80825397 L28.232381,7.6215873 Z" id="Shape" fill="#FFFFFF"></path>
                    <path d="M33.4387302,7.6215873 C33.5961905,7.77904762 33.8031746,7.85777778 34.0101587,7.85777778 C34.2171429,7.85777778 34.424127,7.77904762 34.5815873,7.6215873 L36.3949206,5.80825397 C36.7098413,5.49333333 36.7098413,4.9815873 36.3949206,4.66539683 C36.08,4.35047619 35.568254,4.35047619 35.2533333,4.66539683 L33.4387302,6.47873016 C33.1225397,6.79492063 33.1225397,7.30539683 33.4387302,7.6215873 Z" id="Shape" fill="#FFFFFF"></path>
                    <path d="M34.5803175,11.951746 C34.2653968,11.6368254 33.7536508,11.6368254 33.4374603,11.951746 C33.1225397,12.2666667 33.1225397,12.7784127 33.4374603,13.0946032 L35.2507937,14.9079365 C35.408254,15.0653968 35.6152381,15.144127 35.8222222,15.144127 C36.0292063,15.144127 36.2361905,15.0653968 36.3936508,14.9079365 C36.7085714,14.5930159 36.7085714,14.0812698 36.3936508,13.7650794 L34.5803175,11.951746 Z" id="Shape" fill="#FFFFFF"></path>
                    <path d="M29.3739683,11.951746 C29.0590476,11.6368254 28.5473016,11.6368254 28.2311111,11.951746 L26.4177778,13.7650794 C26.1028571,14.08 26.1028571,14.591746 26.4177778,14.9079365 C26.5752381,15.0653968 26.7822222,15.144127 26.9892063,15.144127 C27.1961905,15.144127 27.4031746,15.0653968 27.5606349,14.9079365 L29.3739683,13.0946032 C29.6901587,12.7784127 29.6901587,12.2666667 29.3739683,11.951746 Z" id="Shape" fill="#FFFFFF"></path>
                    <path d="M139.508571,103.35619 L137.723175,103.35619 L138.792381,102.286984 C139.107302,101.972063 139.107302,101.460317 138.792381,101.144127 C138.47746,100.829206 137.965714,100.829206 137.650794,101.144127 L135.43873,103.35619 L131.507302,103.35619 L131.507302,99.4907937 L133.984762,97.0133333 C134.299683,96.6984127 134.299683,96.1866667 133.984762,95.871746 C133.669841,95.5568254 133.158095,95.5568254 132.843175,95.871746 L131.508571,97.2063492 L131.508571,95.4209524 C131.508571,94.9752381 131.146667,94.6133333 130.700952,94.6133333 C130.255238,94.6133333 129.893333,94.9752381 129.893333,95.4209524 L129.893333,97.2063492 L128.824127,96.1371429 C128.509206,95.8222222 127.99746,95.8222222 127.68254,96.1371429 C127.367619,96.4520635 127.367619,96.9638095 127.68254,97.2787302 L129.894603,99.4907937 L129.894603,103.35619 L125.831111,103.35619 L123.486984,101.012063 C123.172063,100.697143 122.660317,100.697143 122.344127,101.012063 C122.029206,101.326984 122.029206,101.83873 122.344127,102.154921 L123.546667,103.35746 L121.889524,103.35746 C121.44254,103.35746 121.081905,103.719365 121.081905,104.165079 C121.081905,104.610794 121.44381,104.972698 121.889524,104.972698 L123.806984,104.972698 L122.604444,106.175238 C122.289524,106.490159 122.289524,107.001905 122.604444,107.316825 C122.761905,107.474286 122.968889,107.553016 123.175873,107.553016 C123.382857,107.553016 123.589841,107.474286 123.747302,107.316825 L126.091429,104.972698 L129.890794,104.972698 L129.890794,109.103492 L127.546667,111.447619 C127.231746,111.76254 127.231746,112.274286 127.546667,112.589206 C127.704127,112.746667 127.911111,112.825397 128.118095,112.825397 C128.325079,112.825397 128.532063,112.746667 128.689524,112.589206 L129.892063,111.386667 L129.892063,113.04 C129.892063,113.485714 130.253968,113.847619 130.699683,113.847619 C131.145397,113.847619 131.507302,113.485714 131.507302,113.04 L131.507302,111.12127 L132.709841,112.32381 C132.867302,112.48127 133.074286,112.56 133.28127,112.56 C133.488254,112.56 133.695238,112.48127 133.852698,112.32381 C134.167619,112.008889 134.167619,111.497143 133.852698,111.182222 L131.508571,108.838095 L131.508571,104.972698 L135.44,104.972698 L137.91746,107.450159 C138.074921,107.607619 138.281905,107.686349 138.488889,107.686349 C138.695873,107.686349 138.902857,107.607619 139.060317,107.450159 C139.375238,107.135238 139.375238,106.623492 139.060317,106.308571 L137.725714,104.973968 L139.511111,104.973968 C139.958095,104.973968 140.31873,104.612063 140.31873,104.166349 C140.31619,103.718095 139.954286,103.35619 139.508571,103.35619 Z" id="Shape" fill="#FFFFFF"></path>
                    <path d="M127.536508,102.234921 C127.693968,102.392381 127.900952,102.471111 128.107937,102.471111 C128.314921,102.471111 128.521905,102.392381 128.679365,102.234921 C128.994286,101.92 128.994286,101.408254 128.679365,101.092063 L126.866032,99.2787302 C126.551111,98.9638095 126.039365,98.9638095 125.723175,99.2787302 C125.406984,99.5936508 125.408254,100.105397 125.723175,100.420317 L127.536508,102.234921 Z" id="Shape" fill="#FFFFFF"></path>
                    <path d="M132.742857,102.234921 C132.900317,102.392381 133.107302,102.471111 133.314286,102.471111 C133.52127,102.471111 133.728254,102.392381 133.885714,102.234921 L135.699048,100.421587 C136.013968,100.106667 136.013968,99.5949206 135.699048,99.28 C135.384127,98.9650794 134.872381,98.9650794 134.55746,99.28 L132.744127,101.093333 C132.426667,101.408254 132.426667,101.92 132.742857,102.234921 Z" id="Shape" fill="#FFFFFF"></path>
                    <path d="M133.884444,106.565079 C133.569524,106.250159 133.057778,106.250159 132.741587,106.565079 C132.425397,106.88 132.426667,107.391746 132.741587,107.706667 L134.554921,109.52 C134.712381,109.67746 134.919365,109.75619 135.126349,109.75619 C135.333333,109.75619 135.540317,109.67746 135.697778,109.52 C136.012698,109.205079 136.012698,108.693333 135.697778,108.377143 L133.884444,106.565079 Z" id="Shape" fill="#FFFFFF"></path>
                    <path d="M128.678095,106.565079 C128.363175,106.250159 127.851429,106.250159 127.535238,106.565079 L125.721905,108.378413 C125.406984,108.693333 125.406984,109.205079 125.721905,109.52127 C125.879365,109.67873 126.086349,109.75746 126.293333,109.75746 C126.500317,109.75746 126.707302,109.67873 126.864762,109.52127 L128.678095,107.707937 C128.994286,107.391746 128.994286,106.88127 128.678095,106.565079 Z" id="Shape" fill="#FFFFFF"></path>
                    <path d="M74.3530159,42.3746032 L73.2393651,42.3746032 L73.9060317,41.7079365 C74.1028571,41.5111111 74.1028571,41.192381 73.9060317,40.9955556 C73.7092063,40.7987302 73.3904762,40.7987302 73.1936508,40.9955556 L71.8146032,42.3746032 L69.3625397,42.3746032 L69.3625397,39.9644444 L70.9079365,38.4190476 C71.1047619,38.2222222 71.1047619,37.9034921 70.9079365,37.7066667 C70.7111111,37.5098413 70.392381,37.5098413 70.1955556,37.7066667 L69.3625397,38.5396825 L69.3625397,37.4247619 C69.3625397,37.1466667 69.1377778,36.9206349 68.8584127,36.9206349 C68.5803175,36.9206349 68.3542857,37.1466667 68.3542857,37.4247619 L68.3542857,38.5384127 L67.687619,37.871746 C67.4907937,37.6749206 67.1720635,37.6749206 66.9752381,37.871746 C66.7784127,38.0685714 66.7784127,38.3873016 66.9752381,38.584127 L68.3542857,39.9631746 L68.3542857,42.3746032 L65.8196825,42.3746032 L64.3568254,40.911746 C64.16,40.7149206 63.8412698,40.7149206 63.6444444,40.911746 C63.447619,41.1085714 63.447619,41.4273016 63.6444444,41.624127 L64.3949206,42.3746032 L63.3625397,42.3746032 C63.0844444,42.3746032 62.8584127,42.6006349 62.8584127,42.8787302 C62.8584127,43.1568254 63.0831746,43.3828571 63.3625397,43.3828571 L64.5587302,43.3828571 L63.808254,44.1333333 C63.6114286,44.3301587 63.6114286,44.6488889 63.808254,44.8457143 C63.9060317,44.9434921 64.0355556,44.9930159 64.1650794,44.9930159 C64.2946032,44.9930159 64.4228571,44.9434921 64.5219048,44.8457143 L65.9847619,43.3828571 L68.3542857,43.3828571 L68.3542857,45.9593651 L66.8914286,47.4222222 C66.6946032,47.6190476 66.6946032,47.9377778 66.8914286,48.1346032 C66.9892063,48.232381 67.1187302,48.2819048 67.248254,48.2819048 C67.3777778,48.2819048 67.5060317,48.232381 67.6050794,48.1346032 L68.3555556,47.384127 L68.3555556,48.4152381 C68.3555556,48.6933333 68.5803175,48.9193651 68.8596825,48.9193651 C69.1377778,48.9193651 69.3638095,48.6933333 69.3638095,48.4152381 L69.3638095,47.2190476 L70.1142857,47.9695238 C70.2120635,48.0673016 70.3415873,48.1168254 70.4711111,48.1168254 C70.6006349,48.1168254 70.7288889,48.0673016 70.8279365,47.9695238 C71.0247619,47.7726984 71.0247619,47.4539683 70.8279365,47.2571429 L69.3650794,45.7942857 L69.3650794,43.3828571 L71.8171429,43.3828571 L73.3625397,44.928254 C73.4603175,45.0260317 73.5898413,45.0755556 73.7193651,45.0755556 C73.8488889,45.0755556 73.9771429,45.0260317 74.0761905,44.928254 C74.2730159,44.7314286 74.2730159,44.4126984 74.0761905,44.215873 L73.2431746,43.3828571 L74.3568254,43.3828571 C74.6349206,43.3828571 74.8609524,43.1568254 74.8609524,42.8787302 C74.8609524,42.6006349 74.6311111,42.3746032 74.3530159,42.3746032 Z" id="Shape" fill="#FFFFFF"></path>
                    <path d="M66.8850794,41.6749206 C66.9828571,41.7726984 67.112381,41.8222222 67.2419048,41.8222222 C67.3714286,41.8222222 67.4996825,41.7726984 67.5987302,41.6749206 C67.7955556,41.4780952 67.7955556,41.1593651 67.5987302,40.9625397 L66.4685714,39.832381 C66.271746,39.6355556 65.9530159,39.6355556 65.7561905,39.832381 C65.5593651,40.0292063 65.5593651,40.3479365 65.7561905,40.5447619 L66.8850794,41.6749206 Z" id="Shape" fill="#FFFFFF"></path>
                    <path d="M70.1333333,41.6749206 C70.2311111,41.7726984 70.3606349,41.8222222 70.4901587,41.8222222 C70.6196825,41.8222222 70.7479365,41.7726984 70.8469841,41.6749206 L71.9771429,40.5447619 C72.1739683,40.3479365 72.1739683,40.0292063 71.9771429,39.832381 C71.7803175,39.6355556 71.4615873,39.6355556 71.2647619,39.832381 L70.1346032,40.9625397 C69.9365079,41.1593651 69.9365079,41.4780952 70.1333333,41.6749206 Z" id="Shape" fill="#FFFFFF"></path>
                    <path d="M70.8457143,44.375873 C70.6488889,44.1790476 70.3301587,44.1790476 70.1333333,44.375873 C69.9365079,44.5726984 69.9365079,44.8914286 70.1333333,45.088254 L71.2634921,46.2184127 C71.3612698,46.3161905 71.4907937,46.3657143 71.6203175,46.3657143 C71.7498413,46.3657143 71.8780952,46.3161905 71.9771429,46.2184127 C72.1739683,46.0215873 72.1739683,45.7028571 71.9771429,45.5060317 L70.8457143,44.375873 Z" id="Shape" fill="#FFFFFF"></path>
                    <path d="M67.5974603,44.375873 C67.4006349,44.1790476 67.0819048,44.1790476 66.8850794,44.375873 L65.7549206,45.5060317 C65.5580952,45.7028571 65.5580952,46.0215873 65.7549206,46.2184127 C65.8526984,46.3161905 65.9822222,46.3657143 66.111746,46.3657143 C66.2412698,46.3657143 66.3695238,46.3161905 66.4685714,46.2184127 L67.5987302,45.088254 C67.7942857,44.8914286 67.7942857,44.5726984 67.5974603,44.375873 Z" id="Shape" fill="#FFFFFF"></path>
                    <path d="M120.485079,135.75873 L119.371429,135.75873 L120.038095,135.092063 C120.234921,134.895238 120.234921,134.576508 120.038095,134.379683 C119.84127,134.182857 119.52254,134.182857 119.325714,134.379683 L117.946667,135.75873 L115.494603,135.75873 L115.494603,133.347302 L117.04,131.801905 C117.236825,131.605079 117.236825,131.286349 117.04,131.089524 C116.843175,130.892698 116.524444,130.892698 116.327619,131.089524 L115.494603,131.92254 L115.494603,130.808889 C115.494603,130.530794 115.269841,130.304762 114.990476,130.304762 C114.712381,130.304762 114.486349,130.530794 114.486349,130.808889 L114.486349,131.92254 L113.819683,131.255873 C113.622857,131.059048 113.304127,131.059048 113.107302,131.255873 C112.910476,131.452698 112.910476,131.771429 113.107302,131.968254 L114.486349,133.347302 L114.486349,135.75873 L111.951746,135.75873 L110.488889,134.295873 C110.292063,134.099048 109.973333,134.099048 109.776508,134.295873 C109.579683,134.492698 109.579683,134.811429 109.776508,135.008254 L110.526984,135.75873 L109.495873,135.75873 C109.217778,135.75873 108.991746,135.984762 108.991746,136.262857 C108.991746,136.540952 109.216508,136.766984 109.495873,136.766984 L110.692063,136.766984 L109.941587,137.51746 C109.744762,137.714286 109.744762,138.033016 109.941587,138.229841 C110.039365,138.327619 110.168889,138.377143 110.298413,138.377143 C110.427937,138.377143 110.55619,138.327619 110.655238,138.229841 L112.118095,136.766984 L114.487619,136.766984 L114.487619,139.343492 L113.024762,140.806349 C112.827937,141.003175 112.827937,141.321905 113.024762,141.51873 C113.12254,141.616508 113.252063,141.666032 113.381587,141.666032 C113.511111,141.666032 113.639365,141.616508 113.738413,141.51873 L114.488889,140.768254 L114.488889,141.799365 C114.488889,142.07746 114.713651,142.303492 114.993016,142.303492 C115.271111,142.303492 115.497143,142.07746 115.497143,141.799365 L115.497143,140.603175 L116.247619,141.353651 C116.345397,141.451429 116.474921,141.500952 116.604444,141.500952 C116.733968,141.500952 116.862222,141.451429 116.96127,141.353651 C117.158095,141.156825 117.158095,140.838095 116.96127,140.64127 L115.498413,139.178413 L115.498413,136.766984 L117.950476,136.766984 L119.495873,138.312381 C119.593651,138.410159 119.723175,138.459683 119.852698,138.459683 C119.982222,138.459683 120.110476,138.410159 120.209524,138.312381 C120.406349,138.115556 120.406349,137.796825 120.209524,137.6 L119.376508,136.766984 L120.490159,136.766984 C120.768254,136.766984 120.994286,136.540952 120.994286,136.262857 C120.994286,135.984762 120.764444,135.75873 120.485079,135.75873 Z" id="Shape" fill="#FFFFFF"></path>
                    <path d="M113.018413,135.059048 C113.11619,135.156825 113.245714,135.206349 113.375238,135.206349 C113.504762,135.206349 113.633016,135.156825 113.732063,135.059048 C113.928889,134.862222 113.928889,134.543492 113.732063,134.346667 L112.601905,133.216508 C112.405079,133.019683 112.086349,133.019683 111.889524,133.216508 C111.692698,133.413333 111.692698,133.732063 111.889524,133.928889 L113.018413,135.059048 Z" id="Shape" fill="#FFFFFF"></path>
                    <path d="M116.265397,135.059048 C116.363175,135.156825 116.492698,135.206349 116.622222,135.206349 C116.751746,135.206349 116.88,135.156825 116.979048,135.059048 L118.109206,133.928889 C118.306032,133.732063 118.306032,133.413333 118.109206,133.216508 C117.912381,133.019683 117.593651,133.019683 117.396825,133.216508 L116.266667,134.346667 C116.068571,134.543492 116.068571,134.862222 116.265397,135.059048 Z" id="Shape" fill="#FFFFFF"></path>
                    <path d="M116.977778,137.76 C116.780952,137.563175 116.462222,137.563175 116.265397,137.76 C116.068571,137.956825 116.068571,138.275556 116.265397,138.472381 L117.395556,139.60254 C117.493333,139.700317 117.622857,139.749841 117.752381,139.749841 C117.881905,139.749841 118.010159,139.700317 118.109206,139.60254 C118.306032,139.405714 118.306032,139.086984 118.109206,138.890159 L116.977778,137.76 Z" id="Shape" fill="#FFFFFF"></path>
                    <path d="M113.730794,137.76 C113.533968,137.563175 113.215238,137.563175 113.018413,137.76 L111.888254,138.890159 C111.691429,139.086984 111.691429,139.405714 111.888254,139.60254 C111.986032,139.700317 112.115556,139.749841 112.245079,139.749841 C112.374603,139.749841 112.502857,139.700317 112.601905,139.60254 L113.732063,138.472381 C113.927619,138.275556 113.927619,137.956825 113.730794,137.76 Z" id="Shape" fill="#FFFFFF"></path>
                    <path d="M73.8069841,134.671746 L72.9587302,134.671746 L73.4666667,134.16381 C73.6165079,134.013968 73.6165079,133.771429 73.4666667,133.621587 C73.3168254,133.471746 73.0742857,133.471746 72.9244444,133.621587 L71.8742857,134.671746 L70.007619,134.671746 L70.007619,132.835556 L71.1834921,131.659683 C71.3333333,131.509841 71.3333333,131.267302 71.1834921,131.11746 C71.0336508,130.967619 70.7911111,130.967619 70.6412698,131.11746 L70.007619,131.751111 L70.007619,130.902857 C70.007619,130.690794 69.8361905,130.519365 69.624127,130.519365 C69.4120635,130.519365 69.2406349,130.690794 69.2406349,130.902857 L69.2406349,131.751111 L68.7326984,131.243175 C68.5828571,131.093333 68.3403175,131.093333 68.1904762,131.243175 C68.0406349,131.393016 68.0406349,131.635556 68.1904762,131.785397 L69.2406349,132.835556 L69.2406349,134.671746 L67.3104762,134.671746 L66.1968254,133.558095 C66.0469841,133.408254 65.8044444,133.408254 65.6546032,133.558095 C65.5047619,133.707937 65.5047619,133.950476 65.6546032,134.100317 L66.2260317,134.671746 L65.4412698,134.671746 C65.2292063,134.671746 65.0577778,134.843175 65.0577778,135.055238 C65.0577778,135.267302 65.2292063,135.43873 65.4412698,135.43873 L66.3530159,135.43873 L65.7815873,136.010159 C65.631746,136.16 65.631746,136.40254 65.7815873,136.552381 C65.8565079,136.627302 65.9542857,136.665397 66.0533333,136.665397 C66.152381,136.665397 66.2501587,136.627302 66.3250794,136.552381 L67.4387302,135.43873 L69.2431746,135.43873 L69.2431746,137.400635 L68.1295238,138.514286 C67.9796825,138.664127 67.9796825,138.906667 68.1295238,139.056508 C68.2044444,139.131429 68.3022222,139.169524 68.4012698,139.169524 C68.5003175,139.169524 68.5980952,139.131429 68.6730159,139.056508 L69.2444444,138.485079 L69.2444444,139.269841 C69.2444444,139.481905 69.415873,139.653333 69.6279365,139.653333 C69.84,139.653333 70.0114286,139.481905 70.0114286,139.269841 L70.0114286,138.358095 L70.5828571,138.929524 C70.6577778,139.004444 70.7555556,139.04254 70.8546032,139.04254 C70.9536508,139.04254 71.0514286,139.004444 71.1263492,138.929524 C71.2761905,138.779683 71.2761905,138.537143 71.1263492,138.387302 L70.0126984,137.273651 L70.0126984,135.43746 L71.8793651,135.43746 L73.0552381,136.613333 C73.1301587,136.688254 73.2279365,136.726349 73.3269841,136.726349 C73.4260317,136.726349 73.5238095,136.688254 73.5987302,136.613333 C73.7485714,136.463492 73.7485714,136.220952 73.5987302,136.071111 L72.9650794,135.43746 L73.8133333,135.43746 C74.0253968,135.43746 74.1968254,135.266032 74.1968254,135.053968 C74.1968254,134.841905 74.0190476,134.671746 73.8069841,134.671746 Z" id="Shape" fill="#FFFFFF"></path>
                    <path d="M68.1219048,134.139683 C68.1968254,134.214603 68.2946032,134.252698 68.3936508,134.252698 C68.4926984,134.252698 68.5904762,134.214603 68.6653968,134.139683 C68.8152381,133.989841 68.8152381,133.747302 68.6653968,133.59746 L67.8044444,132.736508 C67.6546032,132.586667 67.4120635,132.586667 67.2622222,132.736508 C67.112381,132.886349 67.112381,133.128889 67.2622222,133.27873 L68.1219048,134.139683 Z" id="Shape" fill="#FFFFFF"></path>
                    <path d="M70.5942857,134.139683 C70.6692063,134.214603 70.7669841,134.252698 70.8660317,134.252698 C70.9638095,134.252698 71.0628571,134.214603 71.1377778,134.139683 L71.9987302,133.27873 C72.1485714,133.128889 72.1485714,132.886349 71.9987302,132.736508 C71.8488889,132.586667 71.6063492,132.586667 71.4565079,132.736508 L70.5955556,133.59746 C70.4444444,133.747302 70.4444444,133.989841 70.5942857,134.139683 Z" id="Shape" fill="#FFFFFF"></path>
                    <path d="M71.1365079,136.195556 C70.9866667,136.045714 70.744127,136.045714 70.5942857,136.195556 C70.4444444,136.345397 70.4444444,136.587937 70.5942857,136.737778 L71.4552381,137.59873 C71.5301587,137.673651 71.6279365,137.711746 71.7269841,137.711746 C71.8260317,137.711746 71.9238095,137.673651 71.9987302,137.59873 C72.1485714,137.448889 72.1485714,137.206349 71.9987302,137.056508 L71.1365079,136.195556 Z" id="Shape" fill="#FFFFFF"></path>
                    <path d="M68.664127,136.195556 C68.5142857,136.045714 68.271746,136.045714 68.1219048,136.195556 L67.2609524,137.056508 C67.1111111,137.206349 67.1111111,137.448889 67.2609524,137.59873 C67.335873,137.673651 67.4336508,137.711746 67.5326984,137.711746 C67.631746,137.711746 67.7295238,137.673651 67.8044444,137.59873 L68.6653968,136.737778 C68.8139683,136.589206 68.8139683,136.345397 68.664127,136.195556 Z" id="Shape" fill="#FFFFFF"></path>
                    <path d="M126.246349,5.72825397 L125.398095,5.72825397 L125.906032,5.22031746 C126.055873,5.07047619 126.055873,4.82793651 125.906032,4.67809524 C125.75619,4.52825397 125.513651,4.52825397 125.36381,4.67809524 L124.313651,5.72825397 L122.446984,5.72825397 L122.446984,3.89333333 L123.622857,2.71746032 C123.772698,2.56761905 123.772698,2.32507937 123.622857,2.1752381 C123.473016,2.02539683 123.230476,2.02539683 123.080635,2.1752381 L122.446984,2.80888889 L122.446984,1.95936508 C122.446984,1.74730159 122.275556,1.57587302 122.063492,1.57587302 C121.851429,1.57587302 121.68,1.74730159 121.68,1.95936508 L121.68,2.80761905 L121.172063,2.29968254 C121.022222,2.14984127 120.779683,2.14984127 120.629841,2.29968254 C120.48,2.44952381 120.48,2.69206349 120.629841,2.84190476 L121.68,3.89206349 L121.68,5.72825397 L119.749841,5.72825397 L118.63619,4.61460317 C118.486349,4.4647619 118.24381,4.4647619 118.093968,4.61460317 C117.944127,4.76444444 117.944127,5.00698413 118.093968,5.1568254 L118.665397,5.72825397 L117.880635,5.72825397 C117.668571,5.72825397 117.497143,5.89968254 117.497143,6.11174603 C117.497143,6.32380952 117.668571,6.4952381 117.880635,6.4952381 L118.792381,6.4952381 L118.220952,7.06666667 C118.071111,7.21650794 118.071111,7.45904762 118.220952,7.60888889 C118.295873,7.68380952 118.393651,7.72190476 118.492698,7.72190476 C118.591746,7.72190476 118.689524,7.68380952 118.764444,7.60888889 L119.878095,6.4952381 L121.68254,6.4952381 L121.68254,8.45714286 L120.568889,9.57079365 C120.419048,9.72063492 120.419048,9.9631746 120.568889,10.1130159 C120.64381,10.1879365 120.741587,10.2260317 120.840635,10.2260317 C120.939683,10.2260317 121.03746,10.1879365 121.112381,10.1130159 L121.68381,9.5415873 L121.68381,10.3263492 C121.68381,10.5384127 121.855238,10.7098413 122.067302,10.7098413 C122.279365,10.7098413 122.450794,10.5384127 122.450794,10.3263492 L122.450794,9.41460317 L123.022222,9.98603175 C123.097143,10.0609524 123.194921,10.0990476 123.293968,10.0990476 C123.393016,10.0990476 123.490794,10.0609524 123.565714,9.98603175 C123.715556,9.83619048 123.715556,9.59365079 123.565714,9.44380952 L122.452063,8.33015873 L122.452063,6.49650794 L124.31873,6.49650794 L125.494603,7.67238095 C125.569524,7.74730159 125.667302,7.78539683 125.766349,7.78539683 C125.865397,7.78539683 125.963175,7.74730159 126.038095,7.67238095 C126.187937,7.52253968 126.187937,7.28 126.038095,7.13015873 L125.404444,6.49650794 L126.252698,6.49650794 C126.464762,6.49650794 126.63619,6.32507937 126.63619,6.11301587 C126.63619,5.90095238 126.458413,5.72825397 126.246349,5.72825397 Z" id="Shape" fill="#FFFFFF"></path>
                    <path d="M120.56,5.19619048 C120.634921,5.27111111 120.732698,5.30920635 120.831746,5.30920635 C120.930794,5.30920635 121.028571,5.27111111 121.103492,5.19619048 C121.253333,5.04634921 121.253333,4.80380952 121.103492,4.65396825 L120.24254,3.79301587 C120.092698,3.6431746 119.850159,3.6431746 119.700317,3.79301587 C119.550476,3.94285714 119.550476,4.18539683 119.700317,4.3352381 L120.56,5.19619048 Z" id="Shape" fill="#FFFFFF"></path>
                    <path d="M123.033651,5.19619048 C123.108571,5.27111111 123.206349,5.30920635 123.305397,5.30920635 C123.404444,5.30920635 123.502222,5.27111111 123.577143,5.19619048 L124.438095,4.3352381 C124.587937,4.18539683 124.587937,3.94285714 124.438095,3.79301587 C124.288254,3.6431746 124.045714,3.6431746 123.895873,3.79301587 L123.034921,4.65396825 C122.88381,4.80380952 122.88381,5.04634921 123.033651,5.19619048 Z" id="Shape" fill="#FFFFFF"></path>
                    <path d="M123.575873,7.25333333 C123.426032,7.10349206 123.183492,7.10349206 123.033651,7.25333333 C122.88381,7.4031746 122.88381,7.64571429 123.033651,7.79555556 L123.894603,8.65650794 C123.969524,8.73142857 124.067302,8.76952381 124.166349,8.76952381 C124.265397,8.76952381 124.363175,8.73142857 124.438095,8.65650794 C124.587937,8.50666667 124.587937,8.26412698 124.438095,8.11428571 L123.575873,7.25333333 Z" id="Shape" fill="#FFFFFF"></path>
                    <path d="M121.103492,7.25333333 C120.953651,7.10349206 120.711111,7.10349206 120.56127,7.25333333 L119.700317,8.11428571 C119.550476,8.26412698 119.550476,8.50666667 119.700317,8.65650794 C119.775238,8.73142857 119.873016,8.76952381 119.972063,8.76952381 C120.071111,8.76952381 120.168889,8.73142857 120.24381,8.65650794 L121.104762,7.79555556 C121.253333,7.64571429 121.253333,7.4031746 121.103492,7.25333333 Z" id="Shape" fill="#FFFFFF"></path>
                </g>
            </g>
        </g>
    </g>
</svg>