<?xml version="1.0" encoding="UTF-8" standalone="no"?>
<svg width="100px" height="100px" viewBox="0 0 100 100" version="1.1" xmlns="http://www.w3.org/2000/svg" xmlns:xlink="http://www.w3.org/1999/xlink">
    <!-- Generator: Sketch 40.3 (33839) - http://www.bohemiancoding.com/sketch -->
    <title>barcelona3x</title>
    <desc>Created with Sketch.</desc>
    <defs></defs>
    <g id="Page-1" stroke="none" stroke-width="1" fill="none" fill-rule="evenodd">
        <g id="barcelona">
            <g id="Group-4" transform="translate(8.653846, 2.884615)">
                <path d="M73.7175167,19.6152489 C70.659024,19.6152489 68.0710686,33.1105402 66.5026108,53.5888601 C65.0909988,24.5582917 62.1893518,4.70765975 58.8171676,4.70765975 C54.8960231,4.70765975 51.6022617,31.9336253 50.5043412,69.1241373 C47.9948087,66.3780024 45.0147389,64.7303215 41.7994004,64.3380166 C42.7404751,63.9457116 43.3678582,63.0041796 43.3678582,61.9057257 C43.3678582,60.4149668 42.1915149,59.2380518 40.7014799,59.2380518 C39.211445,59.2380518 38.0351017,60.4149668 38.0351017,61.9057257 C38.0351017,63.0041796 38.6624848,63.8672506 39.6035595,64.3380166 C36.388221,64.6518605 33.4865741,66.3780024 30.8986187,69.1241373 C29.957544,31.9336253 26.6637826,4.70765975 22.7426381,4.70765975 C19.6057225,4.70765975 16.8609214,21.9690788 15.3708865,47.8612074 C13.8024287,30.6782494 11.3713191,19.6152489 8.62651791,19.6152489 C3.84272161,19.6152489 0,53.1965551 0,94.5454999 L14.1161202,94.5454999 L17.2530358,94.5454999 L22.7426381,94.5454999 L31.369156,94.5454999 L50.1906496,94.5454999 L58.8171676,94.5454999 L65.0909988,94.5454999 L67.4436855,94.5454999 L82.3440346,94.5454999 C82.3440346,53.1965551 78.501313,19.6152489 73.7175167,19.6152489 L73.7175167,19.6152489 Z" id="Shape" stroke="#585857" stroke-width="1.5" fill="#EAD596"></path>
                <ellipse id="Oval" stroke="#585857" stroke-width="1.5" fill="#E2B965" cx="22.7426381" cy="3.13843983" rx="2.98006982" ry="2.98151784"></ellipse>
                <ellipse id="Oval" stroke="#585857" stroke-width="1.5" fill="#E2B965" cx="58.6603218" cy="3.13843983" rx="2.98006982" ry="2.98151784"></ellipse>
                <ellipse id="Oval" stroke="#585857" stroke-width="1.5" fill="#E2B965" cx="73.6390938" cy="19.066022" rx="2.98006982" ry="2.98151784"></ellipse>
                <ellipse id="Oval" stroke="#585857" stroke-width="1.5" fill="#E2B965" cx="8.54809502" cy="19.066022" rx="2.98006982" ry="2.98151784"></ellipse>
                <ellipse id="Oval" stroke="#585857" stroke-width="1.5" fill="#E2B965" cx="40.7014799" cy="61.9841867" rx="2.98006982" ry="2.98151784"></ellipse>
                <g id="Group" transform="translate(5.489602, 28.245958)" fill="#585857">
                    <path d="M14.978772,42.2120157 L14.978772,42.2120157 C14.5866576,42.2120157 14.272966,41.8981718 14.272966,41.5058668 L14.272966,0.706148962 C14.272966,0.313843983 14.5866576,4.78249918e-14 14.978772,4.78249918e-14 L14.978772,4.78249918e-14 C15.3708865,4.78249918e-14 15.684578,0.313843983 15.684578,0.706148962 L15.684578,41.5058668 C15.684578,41.8981718 15.3708865,42.2120157 14.978772,42.2120157 L14.978772,42.2120157 Z" id="Shape"></path>
                    <path d="M18.9783394,42.2120157 L18.9783394,42.2120157 C18.5862249,42.2120157 18.2725334,41.8981718 18.2725334,41.5058668 L18.2725334,0.706148962 C18.2725334,0.313843983 18.5862249,4.78249918e-14 18.9783394,4.78249918e-14 L18.9783394,4.78249918e-14 C19.3704538,4.78249918e-14 19.6841454,0.313843983 19.6841454,0.706148962 L19.6841454,41.5058668 C19.6841454,41.8981718 19.3704538,42.2120157 18.9783394,42.2120157 L18.9783394,42.2120157 Z" id="Shape"></path>
                    <path d="M51.1317243,42.2120157 L51.1317243,42.2120157 C50.7396099,42.2120157 50.4259183,41.8981718 50.4259183,41.5058668 L50.4259183,0.706148962 C50.4259183,0.313843983 50.7396099,4.78249918e-14 51.1317243,4.78249918e-14 L51.1317243,4.78249918e-14 C51.5238388,4.78249918e-14 51.8375303,0.313843983 51.8375303,0.706148962 L51.8375303,41.5058668 C51.8375303,41.8981718 51.5238388,42.2120157 51.1317243,42.2120157 L51.1317243,42.2120157 Z" id="Shape"></path>
                    <path d="M55.1312917,42.2120157 L55.1312917,42.2120157 C54.7391773,42.2120157 54.4254857,41.8981718 54.4254857,41.5058668 L54.4254857,0.706148962 C54.4254857,0.313843983 54.7391773,4.78249918e-14 55.1312917,4.78249918e-14 L55.1312917,4.78249918e-14 C55.5234062,4.78249918e-14 55.8370977,0.313843983 55.8370977,0.706148962 L55.8370977,41.5058668 C55.8370977,41.8981718 55.5234062,42.2120157 55.1312917,42.2120157 L55.1312917,42.2120157 Z" id="Shape"></path>
                    <g transform="translate(65.090999, 8.630710)" id="Shape">
                        <path d="M1.09792046,33.5813062 L1.09792046,33.5813062 C0.705806011,33.5813062 0.39211445,33.2674622 0.39211445,32.8751572 L0.39211445,1.01999295 C0.39211445,0.627687966 0.705806011,0.313843983 1.09792046,0.313843983 L1.09792046,0.313843983 C1.49003491,0.313843983 1.80372647,0.627687966 1.80372647,1.01999295 L1.80372647,32.8751572 C1.80372647,33.2674622 1.49003491,33.5813062 1.09792046,33.5813062 L1.09792046,33.5813062 Z"></path>
                        <path d="M5.09748785,33.5813062 L5.09748785,33.5813062 C4.7053734,33.5813062 4.39168184,33.2674622 4.39168184,32.8751572 L4.39168184,1.01999295 C4.39168184,0.627687966 4.7053734,0.313843983 5.09748785,0.313843983 L5.09748785,0.313843983 C5.48960231,0.313843983 5.80329387,0.627687966 5.80329387,1.01999295 L5.80329387,32.8751572 C5.80329387,33.2674622 5.48960231,33.5813062 5.09748785,33.5813062 L5.09748785,33.5813062 Z"></path>
                    </g>
                    <g transform="translate(0.000000, 8.630710)" id="Shape">
                        <path d="M1.09792046,33.5813062 L1.09792046,33.5813062 C0.705806011,33.5813062 0.39211445,33.2674622 0.39211445,32.8751572 L0.39211445,1.01999295 C0.39211445,0.627687966 0.705806011,0.313843983 1.09792046,0.313843983 L1.09792046,0.313843983 C1.49003491,0.313843983 1.80372647,0.627687966 1.80372647,1.01999295 L1.80372647,32.8751572 C1.80372647,33.2674622 1.49003491,33.5813062 1.09792046,33.5813062 L1.09792046,33.5813062 Z"></path>
                        <path d="M5.09748785,33.5813062 L5.09748785,33.5813062 C4.7053734,33.5813062 4.39168184,33.2674622 4.39168184,32.8751572 L4.39168184,1.01999295 C4.39168184,0.627687966 4.7053734,0.313843983 5.09748785,0.313843983 L5.09748785,0.313843983 C5.48960231,0.313843983 5.80329387,0.627687966 5.80329387,1.01999295 L5.80329387,32.8751572 C5.80329387,33.2674622 5.48960231,33.5813062 5.09748785,33.5813062 L5.09748785,33.5813062 Z"></path>
                    </g>
                </g>
                <path d="M41.1720173,71.5564282 C33.1728825,71.5564282 26.6637826,81.8348186 26.6637826,94.4670389 L55.680252,94.4670389 C55.680252,81.8348186 49.1711521,71.5564282 41.1720173,71.5564282 L41.1720173,71.5564282 Z" id="Shape" stroke="#585857" stroke-width="1.5" fill="#E2B965"></path>
            </g>
        </g>
    </g>
</svg>