<?xml version="1.0" encoding="UTF-8" standalone="no"?>
<svg width="100px" height="100px" viewBox="0 0 100 100" version="1.1" xmlns="http://www.w3.org/2000/svg" xmlns:xlink="http://www.w3.org/1999/xlink">
    <!-- Generator: Sketch 40.3 (33839) - http://www.bohemiancoding.com/sketch -->
    <title>madrid3x</title>
    <desc>Created with Sketch.</desc>
    <defs></defs>
    <g id="Page-1" stroke="none" stroke-width="1" fill="none" fill-rule="evenodd">
        <g id="Group-15" stroke="#585857" stroke-width="1.8">
            <g id="Group-3" transform="translate(3.000000, 29.333333)">
                <path d="M18.908046,27.6781609 L18.908046,19.7126437 C18.908046,18.7471264 19.7126437,18.0229885 20.5977011,18.0229885 L21.2413793,18.0229885 C22.2068966,18.0229885 22.9310345,18.8275862 22.9310345,19.7126437 L22.9310345,27.6781609 C22.9310345,28.6436782 22.1264368,29.3678161 21.2413793,29.3678161 L20.5977011,29.3678161 C19.6321839,29.3678161 18.908046,28.6436782 18.908046,27.6781609 L18.908046,27.6781609 Z" id="Shape" fill="#E4E7E9"></path>
                <path d="M21.5632184,37.6551724 L20.2758621,37.6551724 C18.5057471,37.6551724 17.0574713,36.2068966 17.0574713,34.4367816 L17.0574713,24.7816092 C17.0574713,23.0114943 18.5057471,21.5632184 20.2758621,21.5632184 L21.5632184,21.5632184 C23.3333333,21.5632184 24.7816092,23.0114943 24.7816092,24.7816092 L24.7816092,34.4367816 C24.7816092,36.2068966 23.3333333,37.6551724 21.5632184,37.6551724 L21.5632184,37.6551724 Z" id="Shape" fill="#E4E7E9"></path>
                <path d="M7.56321839,27.6781609 L7.56321839,19.7126437 C7.56321839,18.7471264 8.36781609,18.0229885 9.25287356,18.0229885 L9.89655172,18.0229885 C10.862069,18.0229885 11.5862069,18.8275862 11.5862069,19.7126437 L11.5862069,27.6781609 C11.5862069,28.6436782 10.7816092,29.3678161 9.89655172,29.3678161 L9.25287356,29.3678161 C8.36781609,29.3678161 7.56321839,28.6436782 7.56321839,27.6781609 L7.56321839,27.6781609 Z" id="Shape" fill="#E4E7E9"></path>
                <path d="M10.2183908,37.6551724 L8.93103448,37.6551724 C7.16091954,37.6551724 5.71264368,36.2068966 5.71264368,34.4367816 L5.71264368,24.7816092 C5.71264368,23.0114943 7.16091954,21.5632184 8.93103448,21.5632184 L10.2183908,21.5632184 C11.9885057,21.5632184 13.4367816,23.0114943 13.4367816,24.7816092 L13.4367816,34.4367816 C13.4367816,36.2068966 11.9885057,37.6551724 10.2183908,37.6551724 L10.2183908,37.6551724 Z" id="Shape" fill="#E4E7E9"></path>
                <path d="M82.0689655,27.6781609 L82.0689655,19.7126437 C82.0689655,18.7471264 82.8735632,18.0229885 83.7586207,18.0229885 L84.4022989,18.0229885 C85.3678161,18.0229885 86.091954,18.8275862 86.091954,19.7126437 L86.091954,27.6781609 C86.091954,28.6436782 85.2873563,29.3678161 84.4022989,29.3678161 L83.7586207,29.3678161 C82.7931034,29.3678161 82.0689655,28.6436782 82.0689655,27.6781609 L82.0689655,27.6781609 Z" id="Shape" fill="#E4E7E9"></path>
                <path d="M84.7241379,37.6551724 L83.4367816,37.6551724 C81.6666667,37.6551724 80.2183908,36.2068966 80.2183908,34.4367816 L80.2183908,24.7816092 C80.2183908,23.0114943 81.6666667,21.5632184 83.4367816,21.5632184 L84.7241379,21.5632184 C86.4942529,21.5632184 87.9425287,23.0114943 87.9425287,24.7816092 L87.9425287,34.4367816 C87.9425287,36.2068966 86.4942529,37.6551724 84.7241379,37.6551724 L84.7241379,37.6551724 Z" id="Shape" fill="#E4E7E9"></path>
                <path d="M70.7241379,27.6781609 L70.7241379,19.7126437 C70.7241379,18.7471264 71.5287356,18.0229885 72.4137931,18.0229885 L73.0574713,18.0229885 C74.0229885,18.0229885 74.7471264,18.8275862 74.7471264,19.7126437 L74.7471264,27.6781609 C74.7471264,28.6436782 73.9425287,29.3678161 73.0574713,29.3678161 L72.4137931,29.3678161 C71.5287356,29.3678161 70.7241379,28.6436782 70.7241379,27.6781609 L70.7241379,27.6781609 Z" id="Shape" fill="#E4E7E9"></path>
                <path d="M73.4597701,37.6551724 L72.1724138,37.6551724 C70.4022989,37.6551724 68.954023,36.2068966 68.954023,34.4367816 L68.954023,24.7816092 C68.954023,23.0114943 70.4022989,21.5632184 72.1724138,21.5632184 L73.4597701,21.5632184 C75.2298851,21.5632184 76.6781609,23.0114943 76.6781609,24.7816092 L76.6781609,34.4367816 C76.6781609,36.2068966 75.2298851,37.6551724 73.4597701,37.6551724 L73.4597701,37.6551724 Z" id="Shape" fill="#E4E7E9"></path>
                <path d="M44.816092,10.2988506 L44.816092,2.33333333 C44.816092,1.36781609 45.6206897,0.643678161 46.5057471,0.643678161 L47.1494253,0.643678161 C48.1149425,0.643678161 48.8390805,1.44827586 48.8390805,2.33333333 L48.8390805,10.2988506 C48.8390805,11.2643678 48.0344828,11.9885057 47.1494253,11.9885057 L46.5057471,11.9885057 C45.5402299,11.9885057 44.816092,11.2643678 44.816092,10.2988506 L44.816092,10.2988506 Z" id="Shape" fill="#E4E7E9"></path>
                <path d="M50.8505747,9.81609195 L42.8850575,9.81609195 C41.9195402,9.81609195 41.1954023,9.01149425 41.1954023,8.12643678 L41.1954023,7.48275862 C41.1954023,6.51724138 42,5.79310345 42.8850575,5.79310345 L50.8505747,5.79310345 C51.816092,5.79310345 52.5402299,6.59770115 52.5402299,7.48275862 L52.5402299,8.12643678 C52.5402299,9.01149425 51.816092,9.81609195 50.8505747,9.81609195 L50.8505747,9.81609195 Z" id="Shape" fill="#C6C6C4"></path>
                <ellipse id="Oval" fill="#E4E7E9" cx="46.8275862" cy="22.6896552" rx="14" ry="14"></ellipse>
                <path d="M63.0804598,30.2528736 L30.5747126,30.2528736 C28.9655172,30.2528736 27.5977011,28.8850575 27.5977011,27.2758621 L27.5977011,26.0689655 C27.5977011,24.4597701 28.9655172,23.091954 30.5747126,23.091954 L63.0804598,23.091954 C64.6896552,23.091954 66.0574713,24.4597701 66.0574713,26.0689655 L66.0574713,27.2758621 C66.0574713,28.9655172 64.7701149,30.2528736 63.0804598,30.2528736 L63.0804598,30.2528736 Z" id="Shape" fill="#C6C6C4"></path>
                <path d="M90.7586207,27.6781609 L2.89655172,27.6781609 L2.89655172,66.3793103 L8.20689655,66.3793103 L8.20689655,50.5287356 C8.20689655,49.4827586 9.01149425,48.6781609 10.0574713,48.6781609 L15.7701149,48.6781609 C16.816092,48.6781609 17.6206897,49.4827586 17.6206897,50.5287356 L17.6206897,66.3793103 L23.3333333,66.3793103 L23.3333333,47.4712644 C23.3333333,44.4137931 25.5057471,41.7586207 28.4827586,41.3563218 C32.1034483,40.8735632 35.2413793,43.6896552 35.2413793,47.3103448 L35.2413793,66.4597701 L40.7931034,66.4597701 L40.7931034,47.4712644 C40.7931034,44.4137931 42.9655172,41.7586207 45.9425287,41.3563218 C49.5632184,40.8735632 52.7011494,43.6896552 52.7011494,47.3103448 L52.7011494,66.4597701 L58.2528736,66.4597701 L58.2528736,47.4712644 C58.2528736,44.4137931 60.4252874,41.7586207 63.4022989,41.3563218 C67.0229885,40.8735632 70.1609195,43.6896552 70.1609195,47.3103448 L70.1609195,66.4597701 L76.1149425,66.4597701 L76.1149425,50.6091954 C76.1149425,49.5632184 76.9195402,48.7586207 77.9655172,48.7586207 L83.6781609,48.7586207 C84.7241379,48.7586207 85.5287356,49.5632184 85.5287356,50.6091954 L85.5287356,66.4597701 L90.5977011,66.4597701 L90.5977011,27.6781609 L90.7586207,27.6781609 Z" id="Shape" fill="#E4E7E9"></path>
                <path d="M2.25287356,35.7241379 C1.20689655,35.7241379 0.402298851,34.9195402 0.402298851,33.8735632 L0.402298851,33.1494253 C0.402298851,32.1034483 1.20689655,31.2988506 2.25287356,31.2988506 L91.4827586,31.2988506 C92.5287356,31.2988506 93.3333333,32.1034483 93.3333333,33.1494253 L93.3333333,33.8735632 C93.3333333,34.9195402 92.5287356,35.7241379 91.4827586,35.7241379 L2.25287356,35.7241379 Z" id="Shape" fill="#C6C6C4"></path>
            </g>
        </g>
    </g>
</svg>