<?xml version="1.0" encoding="utf-8"?>
<!-- Generator: Adobe Illustrator 17.0.0, SVG Export Plug-In . SVG Version: 6.00 Build 0)  -->
<!DOCTYPE svg PUBLIC "-//W3C//DTD SVG 1.1//EN" "http://www.w3.org/Graphics/SVG/1.1/DTD/svg11.dtd">
<svg version="1.1" id="Layer_1" xmlns="http://www.w3.org/2000/svg" xmlns:xlink="http://www.w3.org/1999/xlink" x="0px" y="0px"
	 width="100px" height="100px" viewBox="0 0 100 100" enable-background="new 0 0 100 100" xml:space="preserve">
<g>
	<g>
		<rect x="41.245" y="44.86" fill="#F3E7BF" width="16.75" height="8.641"/>
		<path fill="#565655" d="M57.995,54.212h-16.75c-0.393,0-0.711-0.318-0.711-0.711V44.86c0-0.393,0.318-0.711,0.711-0.711h16.75
			c0.393,0,0.711,0.318,0.711,0.711v8.641C58.705,53.893,58.388,54.212,57.995,54.212z M41.956,52.79h15.328v-7.219H41.956V52.79z"
			/>
	</g>
	<g>
		<g>
			<rect x="21.087" y="51.854" fill="#F3E7BF" width="58.137" height="45.789"/>
			<path fill="#565655" d="M79.224,98.354H21.087c-0.393,0-0.711-0.318-0.711-0.711V51.854c0-0.393,0.318-0.711,0.711-0.711h58.137
				c0.393,0,0.711,0.318,0.711,0.711v45.789C79.935,98.036,79.617,98.354,79.224,98.354z M21.798,96.932h56.715V52.565H21.798
				V96.932z"/>
		</g>
		<g>
			<path fill="#565655" d="M39.492,98.189c-0.393,0-0.711-0.318-0.711-0.711V51.854c0-0.393,0.318-0.711,0.711-0.711
				s0.711,0.318,0.711,0.711v45.624C40.203,97.871,39.885,98.189,39.492,98.189z"/>
		</g>
		<g>
			<path fill="#565655" d="M60.526,98.189c-0.393,0-0.711-0.318-0.711-0.711V51.854c0-0.393,0.318-0.711,0.711-0.711
				c0.393,0,0.711,0.318,0.711,0.711v45.624C61.237,97.871,60.919,98.189,60.526,98.189z"/>
		</g>
		<g>
			<g>
				<g>
					<path fill="#D9C170" d="M54.629,87.926c0-2.376-1.926-4.301-4.301-4.301h-1.29c-2.376,0-4.301,1.926-4.301,4.301v9.701h9.893
						V87.926z"/>
					<path fill="#565655" d="M55.34,98.338H44.025V87.926c0-2.764,2.249-5.012,5.012-5.012h1.29c2.764,0,5.012,2.249,5.012,5.012
						V98.338z M45.447,96.916h8.471v-8.99c0-1.98-1.611-3.591-3.591-3.591h-1.29c-1.98,0-3.591,1.611-3.591,3.591V96.916z"/>
				</g>
			</g>
			<g>
				<g>
					<path fill="#D9C170" d="M35.542,92.6c0-2.376-1.926-4.301-4.301-4.301h-1.29c-2.376,0-4.301,1.926-4.301,4.301v5.027h9.893
						V92.6z"/>
					<path fill="#565655" d="M36.253,98.338H24.938V92.6c0-2.764,2.248-5.012,5.012-5.012h1.291c2.764,0,5.012,2.249,5.012,5.012
						V98.338z M26.36,96.916h8.471V92.6c0-1.98-1.611-3.591-3.591-3.591H29.95c-1.979,0-3.59,1.611-3.59,3.591V96.916z"/>
				</g>
			</g>
			<g>
				<g>
					<path fill="#D9C170" d="M74.884,92.6c0-2.376-1.926-4.301-4.301-4.301h-1.29c-2.376,0-4.301,1.926-4.301,4.301v5.027h9.893
						V92.6z"/>
					<path fill="#565655" d="M75.596,98.338H64.281V92.6c0-2.764,2.248-5.012,5.012-5.012h1.291c2.764,0,5.012,2.249,5.012,5.012
						V98.338z M65.703,96.916h8.471V92.6c0-1.98-1.611-3.591-3.591-3.591h-1.291c-1.979,0-3.59,1.611-3.59,3.591V96.916z"/>
				</g>
			</g>
		</g>
		<g>
			<path fill="#D9C170" d="M80.715,71.638c0,0.791-0.641,1.431-1.431,1.431h-58.08c-0.791,0-1.431-0.641-1.431-1.431l0,0
				c0-0.791,0.641-1.431,1.431-1.431h58.08C80.074,70.206,80.715,70.847,80.715,71.638L80.715,71.638z"/>
			<path fill="#565655" d="M79.283,73.78h-58.08c-1.182,0-2.142-0.961-2.142-2.142c0-1.181,0.961-2.142,2.142-2.142h58.08
				c1.182,0,2.142,0.961,2.142,2.142C81.426,72.819,80.465,73.78,79.283,73.78z M21.203,70.917c-0.397,0-0.721,0.323-0.721,0.72
				c0,0.397,0.324,0.721,0.721,0.721h58.08c0.397,0,0.721-0.324,0.721-0.721c0-0.397-0.324-0.72-0.721-0.72H21.203z"/>
		</g>
	</g>
	<g>
		<path fill="#F3E7BF" d="M15.863,25.497c0,1.186-0.962,2.148-2.148,2.148l0,0c-1.186,0-2.148-0.962-2.148-2.148v-9.103
			c0-1.186,0.962-2.148,2.148-2.148l0,0c1.186,0,2.148,0.962,2.148,2.148V25.497z"/>
		<path fill="#565655" d="M13.715,28.356c-1.576,0-2.858-1.282-2.858-2.859v-9.103c0-1.576,1.282-2.859,2.858-2.859
			c1.577,0,2.859,1.282,2.859,2.859v9.103C16.574,27.073,15.292,28.356,13.715,28.356z M13.715,14.957
			c-0.792,0-1.436,0.645-1.436,1.437v9.103c0,0.792,0.644,1.437,1.436,1.437s1.437-0.645,1.437-1.437v-9.103
			C15.152,15.602,14.507,14.957,13.715,14.957z"/>
	</g>
	<g>
		<path fill="#D9C170" d="M21.324,29.647c0,4.202-3.407,3.622-7.609,3.622s-7.609,0.58-7.609-3.622s3.407-7.609,7.609-7.609
			S21.324,25.444,21.324,29.647z"/>
		<path fill="#565655" d="M16.305,34.006c-0.396,0-0.807-0.006-1.23-0.013c-0.882-0.014-1.836-0.014-2.719,0
			c-2.185,0.033-3.941,0.033-5.186-0.668c-1.193-0.672-1.774-1.875-1.774-3.679c0-4.588,3.732-8.32,8.32-8.32s8.32,3.732,8.32,8.32
			C22.035,33.67,19.204,34.006,16.305,34.006z M13.715,32.558c0.472,0,0.934,0.007,1.382,0.014c0.416,0.007,0.819,0.013,1.208,0.013
			c3.038,0,4.308-0.408,4.308-2.938c0-3.803-3.094-6.898-6.898-6.898s-6.898,3.095-6.898,6.898c0,1.639,0.561,2.165,1.05,2.44
			c0.778,0.438,2.026,0.498,3.259,0.498c0.389,0,0.792-0.006,1.207-0.013C12.782,32.565,13.243,32.558,13.715,32.558z"/>
	</g>
	<g>
		<rect x="4.759" y="78.31" fill="#F3E7BF" width="17.839" height="17.332"/>
		<path fill="#565655" d="M22.598,96.353H4.759c-0.393,0-0.711-0.318-0.711-0.711V78.31c0-0.393,0.318-0.711,0.711-0.711h17.839
			c0.393,0,0.711,0.318,0.711,0.711v17.332C23.309,96.035,22.991,96.353,22.598,96.353z M5.47,94.931h16.417V79.021H5.47V94.931z"/>
	</g>
	<g>
		<rect x="4.759" y="60.306" fill="#F3E7BF" width="17.839" height="17.332"/>
		<path fill="#565655" d="M22.598,78.349H4.759c-0.393,0-0.711-0.318-0.711-0.711V60.306c0-0.393,0.318-0.711,0.711-0.711h17.839
			c0.393,0,0.711,0.318,0.711,0.711v17.332C23.309,78.031,22.991,78.349,22.598,78.349z M5.47,76.927h16.417V61.017H5.47V76.927z"/>
	</g>
	<g>
		<path fill="#D9C170" d="M24.72,77.243c0,0.739-0.599,1.338-1.338,1.338H4.049c-0.739,0-1.338-0.599-1.338-1.338l0,0
			c0-0.739,0.599-1.338,1.338-1.338h19.333C24.121,75.905,24.72,76.504,24.72,77.243L24.72,77.243z"/>
		<path fill="#565655" d="M23.382,79.291H4.049C2.919,79.291,2,78.372,2,77.243c0-1.13,0.919-2.049,2.049-2.049h19.333
			c1.13,0,2.049,0.919,2.049,2.049C25.431,78.372,24.511,79.291,23.382,79.291z M4.049,76.616c-0.346,0-0.627,0.281-0.627,0.627
			c0,0.346,0.281,0.627,0.627,0.627h19.333c0.346,0,0.627-0.281,0.627-0.627c0-0.346-0.281-0.627-0.627-0.627H4.049z"/>
	</g>
	<g>
		<rect x="4.759" y="43.369" fill="#F3E7BF" width="17.839" height="17.332"/>
		<path fill="#565655" d="M22.598,61.412H4.759c-0.393,0-0.711-0.318-0.711-0.711V43.369c0-0.393,0.318-0.711,0.711-0.711h17.839
			c0.393,0,0.711,0.318,0.711,0.711v17.332C23.309,61.094,22.991,61.412,22.598,61.412z M5.47,59.99h16.417V44.08H5.47V59.99z"/>
	</g>
	<g>
		<rect x="6.033" y="30.312" fill="#F3E7BF" width="15.291" height="13.081"/>
		<path fill="#565655" d="M21.324,44.104H6.033c-0.393,0-0.711-0.318-0.711-0.711V30.312c0-0.393,0.318-0.711,0.711-0.711h15.291
			c0.393,0,0.711,0.318,0.711,0.711v13.081C22.035,43.785,21.717,44.104,21.324,44.104z M6.744,42.682h13.87V31.023H6.744V42.682z"
			/>
	</g>
	<g>
		<path fill="#D9C170" d="M24.72,60.306c0,0.739-0.599,1.338-1.338,1.338H4.049c-0.739,0-1.338-0.599-1.338-1.338l0,0
			c0-0.739,0.599-1.338,1.338-1.338h19.333C24.121,58.968,24.72,59.567,24.72,60.306L24.72,60.306z"/>
		<path fill="#565655" d="M23.382,62.355H4.049C2.919,62.355,2,61.436,2,60.306s0.919-2.049,2.049-2.049h19.333
			c1.13,0,2.049,0.919,2.049,2.049S24.511,62.355,23.382,62.355z M4.049,59.679c-0.346,0-0.627,0.281-0.627,0.627
			c0,0.346,0.281,0.627,0.627,0.627h19.333c0.346,0,0.627-0.281,0.627-0.627c0-0.346-0.281-0.627-0.627-0.627H4.049z"/>
	</g>
	<g>
		<path fill="#D9C170" d="M24.72,43.226c0,0.739-0.599,1.338-1.338,1.338H4.049c-0.739,0-1.338-0.599-1.338-1.338l0,0
			c0-0.739,0.599-1.338,1.338-1.338h19.333C24.121,41.888,24.72,42.487,24.72,43.226L24.72,43.226z"/>
		<path fill="#565655" d="M23.382,45.275H4.049C2.919,45.275,2,44.356,2,43.226c0-1.13,0.919-2.049,2.049-2.049h19.333
			c1.13,0,2.049,0.919,2.049,2.049C25.431,44.356,24.511,45.275,23.382,45.275z M4.049,42.599c-0.346,0-0.627,0.281-0.627,0.627
			c0,0.346,0.281,0.627,0.627,0.627h19.333c0.346,0,0.627-0.282,0.627-0.627c0-0.346-0.281-0.627-0.627-0.627H4.049z"/>
	</g>
	<g>
		<path fill="#D9C170" d="M24.72,94.797c0,1.508-1.222,2.731-2.731,2.731H5.441c-1.508,0-2.731-1.222-2.731-2.731v-2.104
			c0-1.508,1.223-2.731,2.731-2.731h16.548c1.508,0,2.731,1.222,2.731,2.731V94.797z"/>
		<path fill="#565655" d="M21.989,98.239H5.441C3.544,98.239,2,96.695,2,94.797v-2.104c0-1.897,1.544-3.441,3.441-3.441h16.548
			c1.897,0,3.441,1.544,3.441,3.441v2.104C25.431,96.695,23.887,98.239,21.989,98.239z M5.441,90.673c-1.114,0-2.02,0.906-2.02,2.02
			v2.104c0,1.114,0.906,2.02,2.02,2.02h16.548c1.114,0,2.02-0.906,2.02-2.02v-2.104c0-1.114-0.906-2.02-2.02-2.02H5.441z"/>
	</g>
	<g>
		<rect x="77.627" y="79.475" fill="#F3E7BF" width="17.055" height="16.57"/>
		<path fill="#565655" d="M94.682,96.756H77.627c-0.393,0-0.711-0.318-0.711-0.711v-16.57c0-0.393,0.318-0.711,0.711-0.711h17.055
			c0.393,0,0.711,0.318,0.711,0.711v16.57C95.393,96.438,95.075,96.756,94.682,96.756z M78.338,95.335h15.634V80.186H78.338V95.335z
			"/>
	</g>
	<g>
		<rect x="77.861" y="58.023" fill="#F3E7BF" width="16.822" height="21.921"/>
		<path fill="#565655" d="M94.682,80.656H77.86c-0.393,0-0.711-0.318-0.711-0.711V58.023c0-0.393,0.318-0.711,0.711-0.711h16.822
			c0.393,0,0.711,0.318,0.711,0.711v21.921C95.393,80.338,95.075,80.656,94.682,80.656z M78.571,79.234h15.4V58.734h-15.4V79.234z"
			/>
	</g>
	<g>
		<path fill="#D9C170" d="M96.711,78.455c0,0.706-0.573,1.279-1.279,1.279H76.948c-0.706,0-1.279-0.573-1.279-1.279l0,0
			c0-0.706,0.573-1.279,1.279-1.279h18.483C96.138,77.176,96.711,77.749,96.711,78.455L96.711,78.455z"/>
		<path fill="#565655" d="M95.431,80.445H76.949c-1.098,0-1.99-0.893-1.99-1.99c0-1.097,0.893-1.99,1.99-1.99h18.483
			c1.097,0,1.99,0.893,1.99,1.99C97.421,79.552,96.528,80.445,95.431,80.445z M76.949,77.887c-0.314,0-0.569,0.255-0.569,0.568
			c0,0.314,0.255,0.569,0.569,0.569h18.483c0.313,0,0.568-0.255,0.568-0.569c0-0.313-0.255-0.568-0.568-0.568H76.949z"/>
	</g>
	<g>
		<rect x="77.627" y="46.071" fill="#F3E7BF" width="17.055" height="16.57"/>
		<path fill="#565655" d="M94.682,63.352H77.627c-0.393,0-0.711-0.318-0.711-0.711v-16.57c0-0.393,0.318-0.711,0.711-0.711h17.055
			c0.393,0,0.711,0.318,0.711,0.711v16.57C95.393,63.034,95.075,63.352,94.682,63.352z M78.338,61.93h15.634V46.782H78.338V61.93z"
			/>
	</g>
	<g>
		<rect x="78.845" y="36.357" fill="#F3E7BF" width="14.619" height="9.737"/>
		<path fill="#565655" d="M93.464,46.804H78.845c-0.393,0-0.711-0.318-0.711-0.711v-9.737c0-0.393,0.318-0.711,0.711-0.711h14.619
			c0.393,0,0.711,0.318,0.711,0.711v9.737C94.175,46.486,93.857,46.804,93.464,46.804z M79.556,45.383h13.197v-8.315H79.556V45.383z
			"/>
	</g>
	<g>
		<path fill="#D9C170" d="M96.711,62.263c0,0.706-0.573,1.279-1.279,1.279H76.948c-0.706,0-1.279-0.573-1.279-1.279l0,0
			c0-0.706,0.573-1.279,1.279-1.279h18.483C96.138,60.984,96.711,61.557,96.711,62.263L96.711,62.263z"/>
		<path fill="#565655" d="M95.431,64.253H76.949c-1.098,0-1.99-0.892-1.99-1.99s0.893-1.99,1.99-1.99h18.483
			c1.097,0,1.99,0.893,1.99,1.99S96.528,64.253,95.431,64.253z M76.949,61.695c-0.314,0-0.569,0.255-0.569,0.568
			c0,0.313,0.255,0.568,0.569,0.568h18.483c0.313,0,0.568-0.255,0.568-0.568c0-0.313-0.255-0.568-0.568-0.568H76.949z"/>
	</g>
	<g>
		<path fill="#D9C170" d="M96.711,45.934c0,0.706-0.573,1.279-1.279,1.279H76.948c-0.706,0-1.279-0.573-1.279-1.279l0,0
			c0-0.706,0.573-1.279,1.279-1.279h18.483C96.138,44.655,96.711,45.227,96.711,45.934L96.711,45.934z"/>
		<path fill="#565655" d="M95.431,47.924H76.949c-1.098,0-1.99-0.893-1.99-1.99s0.893-1.99,1.99-1.99h18.483
			c1.097,0,1.99,0.893,1.99,1.99S96.528,47.924,95.431,47.924z M76.949,45.366c-0.314,0-0.569,0.255-0.569,0.568
			s0.255,0.568,0.569,0.568h18.483c0.313,0,0.568-0.255,0.568-0.568s-0.255-0.568-0.568-0.568H76.949z"/>
	</g>
	<g>
		<path fill="#D9C170" d="M96.711,95.237c0,1.442-1.169,2.61-2.61,2.61H78.28c-1.442,0-2.61-1.169-2.61-2.61v-2.012
			c0-1.442,1.169-2.61,2.61-2.61H94.1c1.442,0,2.61,1.169,2.61,2.61V95.237z"/>
		<path fill="#565655" d="M94.1,98.559H78.28c-1.831,0-3.322-1.49-3.322-3.321v-2.012c0-1.831,1.491-3.321,3.322-3.321H94.1
			c1.831,0,3.321,1.49,3.321,3.321v2.012C97.421,97.069,95.931,98.559,94.1,98.559z M78.28,91.326c-1.048,0-1.9,0.852-1.9,1.899
			v2.012c0,1.048,0.853,1.899,1.9,1.899H94.1c1.048,0,1.899-0.852,1.899-1.899v-2.012c0-1.048-0.852-1.899-1.899-1.899H78.28z"/>
	</g>
	<g>
		<g>
			<path fill="#565655" d="M15.008,48.19c0-0.436-0.353-0.789-0.789-0.789h-1.083c-0.436,0-0.789,0.353-0.789,0.789v7.992h2.66
				V48.19z"/>
			<path fill="#565655" d="M15.72,56.892h-4.082v-8.703c0-0.827,0.673-1.499,1.5-1.499h1.083c0.827,0,1.5,0.672,1.5,1.499V56.892z
				 M13.059,55.471h1.239v-7.281c0-0.043-0.035-0.077-0.078-0.077h-1.083c-0.043,0-0.078,0.035-0.078,0.077V55.471z"/>
		</g>
	</g>
	<g>
		<g>
			<path fill="#565655" d="M15.008,33.103c0-0.436-0.353-0.789-0.789-0.789h-1.083c-0.436,0-0.789,0.353-0.789,0.789v5.808h2.66
				V33.103z"/>
			<path fill="#565655" d="M15.72,39.622h-4.082v-6.518c0-0.827,0.673-1.5,1.5-1.5h1.083c0.827,0,1.5,0.673,1.5,1.5V39.622z
				 M13.059,38.2h1.239v-5.096c0-0.043-0.035-0.078-0.078-0.078h-1.083c-0.043,0-0.078,0.035-0.078,0.078V38.2z"/>
		</g>
	</g>
	<g>
		<g>
			<path fill="#565655" d="M15.008,65.219c0-0.436-0.353-0.789-0.789-0.789h-1.083c-0.436,0-0.789,0.353-0.789,0.789v7.992h2.66
				V65.219z"/>
			<path fill="#565655" d="M15.72,73.921h-4.082v-8.702c0-0.827,0.673-1.5,1.5-1.5h1.083c0.827,0,1.5,0.673,1.5,1.5V73.921z
				 M13.059,72.5h1.239v-7.28c0-0.043-0.035-0.078-0.078-0.078h-1.083c-0.043,0-0.078,0.035-0.078,0.078V72.5z"/>
		</g>
	</g>
	<g>
		<g>
			<path fill="#565655" d="M44.515,61.735c0-0.293-0.237-0.53-0.53-0.53h-0.727c-0.293,0-0.53,0.237-0.53,0.53v5.367h1.786V61.735z"
				/>
			<path fill="#565655" d="M45.226,67.813h-3.208v-6.078c0-0.684,0.557-1.24,1.241-1.24h0.727c0.684,0,1.241,0.556,1.241,1.24
				V67.813z M43.44,66.391h0.364v-4.475H43.44V66.391z"/>
		</g>
	</g>
	<g>
		<g>
			<path fill="#565655" d="M50.576,61.735c0-0.293-0.237-0.53-0.53-0.53h-0.727c-0.293,0-0.53,0.237-0.53,0.53v5.367h1.786V61.735z"
				/>
			<path fill="#565655" d="M51.286,67.813h-3.208v-6.078c0-0.684,0.557-1.24,1.241-1.24h0.728c0.684,0,1.24,0.556,1.24,1.24V67.813z
				 M49.5,66.391h0.364v-4.475H49.5V66.391z"/>
		</g>
	</g>
	<g>
		<g>
			<path fill="#565655" d="M56.636,61.735c0-0.293-0.237-0.53-0.53-0.53h-0.727c-0.293,0-0.53,0.237-0.53,0.53v5.367h1.786V61.735z"
				/>
			<path fill="#565655" d="M57.347,67.813h-3.208v-6.078c0-0.684,0.557-1.24,1.241-1.24h0.727c0.684,0,1.241,0.556,1.241,1.24
				V67.813z M55.561,66.391h0.364v-4.475h-0.364V66.391z"/>
		</g>
	</g>
	<g>
		<g>
			<path fill="#565655" d="M28.458,61.735c0-0.293-0.237-0.53-0.53-0.53h-0.727c-0.293,0-0.53,0.237-0.53,0.53v5.367h1.786V61.735z"
				/>
			<path fill="#565655" d="M29.169,67.813h-3.208v-6.078c0-0.684,0.557-1.24,1.241-1.24h0.727c0.684,0,1.241,0.556,1.241,1.24
				V67.813z M27.383,66.391h0.364v-4.475h-0.364V66.391z"/>
		</g>
	</g>
	<g>
		<g>
			<path fill="#565655" d="M34.519,61.735c0-0.293-0.237-0.53-0.53-0.53h-0.727c-0.293,0-0.53,0.237-0.53,0.53v5.367h1.786V61.735z"
				/>
			<path fill="#565655" d="M35.23,67.813h-3.208v-6.078c0-0.684,0.557-1.24,1.241-1.24h0.727c0.684,0,1.241,0.556,1.241,1.24V67.813
				z M33.443,66.391h0.364v-4.475h-0.364V66.391z"/>
		</g>
	</g>
	<g>
		<g>
			<path fill="#565655" d="M67.217,61.735c0-0.293-0.237-0.53-0.53-0.53H65.96c-0.293,0-0.53,0.237-0.53,0.53v5.367h1.786V61.735z"
				/>
			<path fill="#565655" d="M67.928,67.813H64.72v-6.078c0-0.684,0.556-1.24,1.24-1.24h0.728c0.684,0,1.241,0.556,1.241,1.24V67.813z
				 M66.141,66.391h0.364v-4.475h-0.364V66.391z"/>
		</g>
	</g>
	<g>
		<g>
			<path fill="#565655" d="M73.277,61.735c0-0.293-0.237-0.53-0.53-0.53H72.02c-0.293,0-0.53,0.237-0.53,0.53v5.367h1.786V61.735z"
				/>
			<path fill="#565655" d="M73.988,67.813H70.78v-6.078c0-0.684,0.557-1.24,1.241-1.24h0.727c0.684,0,1.241,0.556,1.241,1.24V67.813
				z M72.201,66.391h0.364v-4.475h-0.364V66.391z"/>
		</g>
	</g>
	<g>
		<g>
			<path fill="#565655" d="M87.426,66.96c0-0.416-0.338-0.754-0.754-0.754h-1.035c-0.416,0-0.754,0.338-0.754,0.754V74.6h2.543
				V66.96z"/>
			<path fill="#565655" d="M88.137,75.311h-3.965V66.96c0-0.807,0.657-1.465,1.465-1.465h1.035c0.807,0,1.465,0.657,1.465,1.465
				V75.311z M85.598,73.889h1.117v-6.93l-1.078-0.043L85.598,73.889z"/>
		</g>
	</g>
	<g>
		<path fill="#565655" d="M57.459,80.943H41.829c-0.393,0-0.711-0.318-0.711-0.711c0-0.393,0.318-0.711,0.711-0.711h15.629
			c0.393,0,0.711,0.318,0.711,0.711C58.17,80.625,57.852,80.943,57.459,80.943z"/>
	</g>
	<g>
		<polygon fill="#D9C170" points="49.644,38.377 40.271,44.86 59.26,44.86 		"/>
		<path fill="#565655" d="M59.26,45.571h-18.99c-0.311,0-0.586-0.202-0.678-0.499c-0.093-0.297,0.018-0.62,0.274-0.796l9.374-6.483
			c0.241-0.167,0.559-0.168,0.801-0.005l9.616,6.483c0.26,0.175,0.374,0.498,0.283,0.797C59.849,45.367,59.573,45.571,59.26,45.571z
			 M42.548,44.149h14.385l-7.285-4.911L42.548,44.149z"/>
	</g>
	<g>
		<circle fill="#565655" cx="43.825" cy="48.632" r="0.974"/>
		<path fill="#565655" d="M43.825,50.317c-0.929,0-1.684-0.756-1.684-1.685c0-0.929,0.755-1.685,1.684-1.685
			c0.929,0,1.685,0.756,1.685,1.685C45.51,49.561,44.754,50.317,43.825,50.317z M43.825,48.369c-0.144,0-0.262,0.118-0.262,0.263
			c0,0.145,0.118,0.263,0.262,0.263c0.145,0,0.263-0.118,0.263-0.263C44.088,48.487,43.97,48.369,43.825,48.369z"/>
	</g>
	<g>
		<circle fill="#565655" cx="49.62" cy="48.632" r="0.974"/>
		<path fill="#565655" d="M49.62,50.317c-0.929,0-1.685-0.756-1.685-1.685c0-0.929,0.756-1.685,1.685-1.685
			c0.929,0,1.684,0.756,1.684,1.685C51.304,49.561,50.549,50.317,49.62,50.317z M49.62,48.369c-0.145,0-0.263,0.118-0.263,0.263
			c0,0.145,0.118,0.263,0.263,0.263c0.144,0,0.262-0.118,0.262-0.263C49.882,48.487,49.764,48.369,49.62,48.369z"/>
	</g>
	<g>
		<circle fill="#565655" cx="55.414" cy="48.632" r="0.974"/>
		<path fill="#565655" d="M55.414,50.317c-0.929,0-1.685-0.756-1.685-1.685c0-0.929,0.756-1.685,1.685-1.685
			c0.929,0,1.684,0.756,1.684,1.685C57.098,49.561,56.343,50.317,55.414,50.317z M55.414,48.369c-0.145,0-0.263,0.118-0.263,0.263
			c0,0.145,0.118,0.263,0.263,0.263c0.144,0,0.262-0.118,0.262-0.263C55.676,48.487,55.558,48.369,55.414,48.369z"/>
	</g>
</g>
<g>
	<defs>
		<path id="SVGID_53_" d="M442.648,20.952c-3.126,0-5.771,13.786-7.374,34.707c-1.443-29.657-4.408-49.936-7.855-49.936
			c-4.008,0-7.374,27.813-8.496,65.806c-2.565-2.805-5.611-4.489-8.897-4.889c0.962-0.401,1.603-1.363,1.603-2.485
			c0-1.523-1.202-2.725-2.725-2.725s-2.725,1.202-2.725,2.725c0,1.122,0.641,2.004,1.603,2.485
			c-3.286,0.321-6.252,2.084-8.897,4.889c-0.962-37.993-4.328-65.806-8.336-65.806c-3.206,0-6.012,17.634-7.534,44.085
			c-1.603-17.554-4.088-28.855-6.893-28.855c-4.889,0-8.817,34.306-8.817,76.547h14.428h3.206h5.611h8.817h19.237h8.817h6.412h2.405
			h15.229C451.465,55.257,447.537,20.952,442.648,20.952z"/>
	</defs>
	<clipPath id="SVGID_2_">
		<use xlink:href="#SVGID_53_"  overflow="visible"/>
	</clipPath>
	<g clip-path="url(#SVGID_2_)">
		<defs>
			<rect id="SVGID_55_" x="68.33" y="-70.424" width="420.808" height="206.797"/>
		</defs>
		<clipPath id="SVGID_4_">
			<use xlink:href="#SVGID_55_"  overflow="visible"/>
		</clipPath>
	</g>
</g>
<g>
	<defs>
		<rect id="SVGID_57_" x="68.33" y="-70.424" width="420.808" height="206.797"/>
	</defs>
	<clipPath id="SVGID_6_">
		<use xlink:href="#SVGID_57_"  overflow="visible"/>
	</clipPath>
</g>
<g>
	<defs>
		<circle id="SVGID_59_" cx="390.548" cy="4.119" r="3.046"/>
	</defs>
	<clipPath id="SVGID_8_">
		<use xlink:href="#SVGID_59_"  overflow="visible"/>
	</clipPath>
	<g clip-path="url(#SVGID_8_)">
		<defs>
			<rect id="SVGID_61_" x="68.33" y="-70.424" width="420.808" height="206.797"/>
		</defs>
		<clipPath id="SVGID_10_">
			<use xlink:href="#SVGID_61_"  overflow="visible"/>
		</clipPath>
	</g>
</g>
<g>
	<defs>
		<rect id="SVGID_63_" x="68.33" y="-70.424" width="420.808" height="206.797"/>
	</defs>
	<clipPath id="SVGID_12_">
		<use xlink:href="#SVGID_63_"  overflow="visible"/>
	</clipPath>
</g>
<g>
	<defs>
		<circle id="SVGID_65_" cx="427.258" cy="4.119" r="3.046"/>
	</defs>
	<clipPath id="SVGID_14_">
		<use xlink:href="#SVGID_65_"  overflow="visible"/>
	</clipPath>
	<g clip-path="url(#SVGID_14_)">
		<defs>
			<rect id="SVGID_67_" x="68.33" y="-70.424" width="420.808" height="206.797"/>
		</defs>
		<clipPath id="SVGID_16_">
			<use xlink:href="#SVGID_67_"  overflow="visible"/>
		</clipPath>
	</g>
</g>
<g>
	<defs>
		<rect id="SVGID_69_" x="68.33" y="-70.424" width="420.808" height="206.797"/>
	</defs>
	<clipPath id="SVGID_18_">
		<use xlink:href="#SVGID_69_"  overflow="visible"/>
	</clipPath>
</g>
<g>
	<defs>
		<circle id="SVGID_71_" cx="442.568" cy="20.39" r="3.046"/>
	</defs>
	<clipPath id="SVGID_20_">
		<use xlink:href="#SVGID_71_"  overflow="visible"/>
	</clipPath>
	<g clip-path="url(#SVGID_20_)">
		<defs>
			<rect id="SVGID_73_" x="68.33" y="-70.424" width="420.808" height="206.797"/>
		</defs>
		<clipPath id="SVGID_22_">
			<use xlink:href="#SVGID_73_"  overflow="visible"/>
		</clipPath>
	</g>
</g>
<g>
	<defs>
		<rect id="SVGID_75_" x="68.33" y="-70.424" width="420.808" height="206.797"/>
	</defs>
	<clipPath id="SVGID_24_">
		<use xlink:href="#SVGID_75_"  overflow="visible"/>
	</clipPath>
</g>
<g>
	<defs>
		<circle id="SVGID_77_" cx="376.04" cy="20.39" r="3.046"/>
	</defs>
	<clipPath id="SVGID_26_">
		<use xlink:href="#SVGID_77_"  overflow="visible"/>
	</clipPath>
	<g clip-path="url(#SVGID_26_)">
		<defs>
			<rect id="SVGID_79_" x="68.33" y="-70.424" width="420.808" height="206.797"/>
		</defs>
		<clipPath id="SVGID_28_">
			<use xlink:href="#SVGID_79_"  overflow="visible"/>
		</clipPath>
	</g>
</g>
<g>
	<defs>
		<rect id="SVGID_81_" x="68.33" y="-70.424" width="420.808" height="206.797"/>
	</defs>
	<clipPath id="SVGID_30_">
		<use xlink:href="#SVGID_81_"  overflow="visible"/>
	</clipPath>
</g>
<g>
	<defs>
		<circle id="SVGID_83_" cx="408.903" cy="64.235" r="3.046"/>
	</defs>
	<clipPath id="SVGID_32_">
		<use xlink:href="#SVGID_83_"  overflow="visible"/>
	</clipPath>
	<g clip-path="url(#SVGID_32_)">
		<defs>
			<rect id="SVGID_85_" x="68.33" y="-70.424" width="420.808" height="206.797"/>
		</defs>
		<clipPath id="SVGID_34_">
			<use xlink:href="#SVGID_85_"  overflow="visible"/>
		</clipPath>
	</g>
</g>
<g>
	<defs>
		<rect id="SVGID_87_" x="68.33" y="-70.424" width="420.808" height="206.797"/>
	</defs>
	<clipPath id="SVGID_36_">
		<use xlink:href="#SVGID_87_"  overflow="visible"/>
	</clipPath>
</g>
<g>
	<defs>
		<path id="SVGID_89_" d="M388.224,72.891L388.224,72.891c-0.401,0-0.721-0.321-0.721-0.721V30.49c0-0.401,0.321-0.721,0.721-0.721
			c0.401,0,0.721,0.321,0.721,0.721v41.68C388.945,72.571,388.624,72.891,388.224,72.891z"/>
	</defs>
	<clipPath id="SVGID_38_">
		<use xlink:href="#SVGID_89_"  overflow="visible"/>
	</clipPath>
	<g clip-path="url(#SVGID_38_)">
		<defs>
			<rect id="SVGID_91_" x="68.33" y="-70.424" width="420.808" height="206.797"/>
		</defs>
		<clipPath id="SVGID_40_">
			<use xlink:href="#SVGID_91_"  overflow="visible"/>
		</clipPath>
	</g>
</g>
<g>
	<defs>
		<path id="SVGID_93_" d="M392.311,72.891L392.311,72.891c-0.401,0-0.721-0.321-0.721-0.721V30.49c0-0.401,0.321-0.721,0.721-0.721
			c0.401,0,0.721,0.321,0.721,0.721v41.68C393.033,72.571,392.712,72.891,392.311,72.891z"/>
	</defs>
	<clipPath id="SVGID_42_">
		<use xlink:href="#SVGID_93_"  overflow="visible"/>
	</clipPath>
	<g clip-path="url(#SVGID_42_)">
		<defs>
			<rect id="SVGID_95_" x="68.33" y="-70.424" width="420.808" height="206.797"/>
		</defs>
		<clipPath id="SVGID_44_">
			<use xlink:href="#SVGID_95_"  overflow="visible"/>
		</clipPath>
	</g>
</g>
<g>
	<defs>
		<path id="SVGID_97_" d="M425.174,72.891L425.174,72.891c-0.401,0-0.721-0.321-0.721-0.721V30.49c0-0.401,0.321-0.721,0.721-0.721
			c0.401,0,0.721,0.321,0.721,0.721v41.68C425.896,72.571,425.575,72.891,425.174,72.891z"/>
	</defs>
	<clipPath id="SVGID_46_">
		<use xlink:href="#SVGID_97_"  overflow="visible"/>
	</clipPath>
	<g clip-path="url(#SVGID_46_)">
		<defs>
			<rect id="SVGID_99_" x="68.33" y="-70.424" width="420.808" height="206.797"/>
		</defs>
		<clipPath id="SVGID_48_">
			<use xlink:href="#SVGID_99_"  overflow="visible"/>
		</clipPath>
	</g>
</g>
<g>
	<defs>
		<path id="SVGID_101_" d="M429.262,72.891L429.262,72.891c-0.401,0-0.721-0.321-0.721-0.721V30.49c0-0.401,0.321-0.721,0.721-0.721
			c0.401,0,0.721,0.321,0.721,0.721v41.68C429.984,72.571,429.663,72.891,429.262,72.891z"/>
	</defs>
	<clipPath id="SVGID_50_">
		<use xlink:href="#SVGID_101_"  overflow="visible"/>
	</clipPath>
	<g clip-path="url(#SVGID_50_)">
		<defs>
			<rect id="SVGID_103_" x="68.33" y="-70.424" width="420.808" height="206.797"/>
		</defs>
		<clipPath id="SVGID_52_">
			<use xlink:href="#SVGID_103_"  overflow="visible"/>
		</clipPath>
	</g>
</g>
<g>
	<defs>
		<path id="SVGID_105_" d="M440.564,72.891L440.564,72.891c-0.401,0-0.721-0.321-0.721-0.721V39.627
			c0-0.401,0.321-0.721,0.721-0.721c0.401,0,0.721,0.321,0.721,0.721V72.17C441.285,72.571,440.965,72.891,440.564,72.891z"/>
	</defs>
	<clipPath id="SVGID_54_">
		<use xlink:href="#SVGID_105_"  overflow="visible"/>
	</clipPath>
	<g clip-path="url(#SVGID_54_)">
		<defs>
			<rect id="SVGID_107_" x="68.33" y="-70.424" width="420.808" height="206.797"/>
		</defs>
		<clipPath id="SVGID_56_">
			<use xlink:href="#SVGID_107_"  overflow="visible"/>
		</clipPath>
	</g>
</g>
<g>
	<defs>
		<path id="SVGID_109_" d="M444.652,72.891L444.652,72.891c-0.401,0-0.721-0.321-0.721-0.721V39.627
			c0-0.401,0.321-0.721,0.721-0.721c0.401,0,0.721,0.321,0.721,0.721V72.17C445.373,72.571,445.053,72.891,444.652,72.891z"/>
	</defs>
	<clipPath id="SVGID_58_">
		<use xlink:href="#SVGID_109_"  overflow="visible"/>
	</clipPath>
	<g clip-path="url(#SVGID_58_)">
		<defs>
			<rect id="SVGID_111_" x="68.33" y="-70.424" width="420.808" height="206.797"/>
		</defs>
		<clipPath id="SVGID_60_">
			<use xlink:href="#SVGID_111_"  overflow="visible"/>
		</clipPath>
	</g>
</g>
<g>
	<defs>
		<path id="SVGID_113_" d="M374.036,72.891L374.036,72.891c-0.401,0-0.721-0.321-0.721-0.721V39.627
			c0-0.401,0.321-0.721,0.721-0.721c0.401,0,0.721,0.321,0.721,0.721V72.17C374.758,72.571,374.437,72.891,374.036,72.891z"/>
	</defs>
	<clipPath id="SVGID_62_">
		<use xlink:href="#SVGID_113_"  overflow="visible"/>
	</clipPath>
	<g clip-path="url(#SVGID_62_)">
		<defs>
			<rect id="SVGID_115_" x="68.33" y="-70.424" width="420.808" height="206.797"/>
		</defs>
		<clipPath id="SVGID_64_">
			<use xlink:href="#SVGID_115_"  overflow="visible"/>
		</clipPath>
	</g>
</g>
<g>
	<defs>
		<path id="SVGID_117_" d="M378.124,72.891L378.124,72.891c-0.401,0-0.721-0.321-0.721-0.721V39.627
			c0-0.401,0.321-0.721,0.721-0.721s0.721,0.321,0.721,0.721V72.17C378.846,72.571,378.525,72.891,378.124,72.891z"/>
	</defs>
	<clipPath id="SVGID_66_">
		<use xlink:href="#SVGID_117_"  overflow="visible"/>
	</clipPath>
	<g clip-path="url(#SVGID_66_)">
		<defs>
			<rect id="SVGID_119_" x="68.33" y="-70.424" width="420.808" height="206.797"/>
		</defs>
		<clipPath id="SVGID_68_">
			<use xlink:href="#SVGID_119_"  overflow="visible"/>
		</clipPath>
	</g>
</g>
<g>
	<defs>
		<path id="SVGID_121_" d="M409.384,74.013c-8.176,0-14.828,10.5-14.828,23.405h29.657C424.213,84.514,417.56,74.013,409.384,74.013
			z"/>
	</defs>
	<clipPath id="SVGID_70_">
		<use xlink:href="#SVGID_121_"  overflow="visible"/>
	</clipPath>
	<g clip-path="url(#SVGID_70_)">
		<defs>
			<rect id="SVGID_123_" x="68.33" y="-70.424" width="420.808" height="206.797"/>
		</defs>
		<clipPath id="SVGID_72_">
			<use xlink:href="#SVGID_123_"  overflow="visible"/>
		</clipPath>
	</g>
</g>
<g>
	<defs>
		<rect id="SVGID_125_" x="68.33" y="-70.424" width="420.808" height="206.797"/>
	</defs>
	<clipPath id="SVGID_74_">
		<use xlink:href="#SVGID_125_"  overflow="visible"/>
	</clipPath>
</g>
</svg>
