<?xml version="1.0" encoding="utf-8"?>
<!-- Generator: Adobe Illustrator 17.0.0, SVG Export Plug-In . SVG Version: 6.00 Build 0)  -->
<!DOCTYPE svg PUBLIC "-//W3C//DTD SVG 1.1//EN" "http://www.w3.org/Graphics/SVG/1.1/DTD/svg11.dtd">
<svg version="1.1" id="Layer_1" xmlns="http://www.w3.org/2000/svg" xmlns:xlink="http://www.w3.org/1999/xlink" x="0px" y="0px"
	 width="100px" height="100px" viewBox="0 0 100 100" enable-background="new 0 0 100 100" xml:space="preserve">
<g>
	<g>
		<g>
			<path fill="#F9BB5C" d="M5.531,37.326c-0.939,2.857-1.571,8.19-1.571,14.304s0.632,11.447,1.571,14.304
				c0.939-2.857,1.571-8.19,1.571-14.304S6.47,40.182,5.531,37.326z"/>
			<path fill="#565655" d="M5.531,66.6c-0.288,0-0.543-0.185-0.633-0.458c-1.005-3.057-1.605-8.482-1.605-14.512
				c0-6.03,0.6-11.455,1.605-14.512c0.09-0.273,0.345-0.458,0.633-0.458s0.543,0.185,0.633,0.458
				c1.005,3.057,1.605,8.482,1.605,14.512c0,6.03-0.6,11.455-1.605,14.512C6.074,66.415,5.819,66.6,5.531,66.6z M5.531,40.098
				C4.96,43.11,4.626,47.255,4.626,51.629c0,4.375,0.334,8.519,0.905,11.531c0.571-3.012,0.905-7.156,0.905-11.531
				C6.436,47.255,6.101,43.11,5.531,40.098z"/>
		</g>
	</g>
	<g>
		<g>
			<path fill="#F9BB5C" d="M8.661,37.326c-0.939,2.857-1.571,8.19-1.571,14.304s0.632,11.447,1.571,14.304
				c0.939-2.857,1.571-8.19,1.571-14.304S9.601,40.182,8.661,37.326z"/>
			<path fill="#565655" d="M8.661,66.6L8.661,66.6c-0.288,0-0.543-0.185-0.633-0.458c-1.004-3.056-1.604-8.481-1.604-14.512
				c0-6.031,0.6-11.456,1.604-14.512c0.09-0.273,0.345-0.458,0.633-0.458s0.543,0.185,0.633,0.458
				c1.005,3.056,1.605,8.481,1.605,14.512c0,6.031-0.6,11.457-1.605,14.512C9.205,66.415,8.949,66.6,8.661,66.6z M8.661,40.098
				c-0.57,3.012-0.905,7.156-0.905,11.531s0.334,8.52,0.905,11.531c0.571-3.012,0.905-7.156,0.905-11.531
				C9.566,47.254,9.232,43.11,8.661,40.098z"/>
		</g>
	</g>
	<g>
		<g>
			<path fill="#F9BB5C" d="M34.734,13.31c-0.939,2.857-1.571,8.19-1.571,14.304s0.632,11.447,1.571,14.304
				c0.939-2.857,1.571-8.19,1.571-14.304S35.673,16.167,34.734,13.31z"/>
			<path fill="#565655" d="M34.734,42.585L34.734,42.585c-0.288,0-0.543-0.185-0.633-0.458c-1.004-3.056-1.604-8.481-1.604-14.512
				c0-6.031,0.6-11.456,1.604-14.512c0.09-0.273,0.345-0.458,0.633-0.458c0.288,0,0.543,0.185,0.633,0.458
				c1.005,3.056,1.605,8.481,1.605,14.512c0,6.031-0.6,11.457-1.605,14.512C35.277,42.4,35.022,42.585,34.734,42.585z
				 M34.734,16.083c-0.57,3.012-0.905,7.156-0.905,11.531s0.334,8.52,0.905,11.531c0.571-3.012,0.905-7.156,0.905-11.531
				C35.639,23.239,35.305,19.095,34.734,16.083z"/>
		</g>
	</g>
	<g>
		<g>
			<path fill="#F9BB5C" d="M37.865,13.31c-0.939,2.857-1.571,8.19-1.571,14.304s0.632,11.447,1.571,14.304
				c0.939-2.857,1.571-8.19,1.571-14.304S38.804,16.167,37.865,13.31z"/>
			<path fill="#565655" d="M37.865,42.585c-0.288,0-0.543-0.185-0.633-0.458c-1.005-3.057-1.605-8.482-1.605-14.512
				c0-6.03,0.6-11.455,1.605-14.512c0.09-0.273,0.345-0.458,0.633-0.458c0.288,0,0.543,0.185,0.633,0.458
				c1.004,3.057,1.604,8.482,1.604,14.512c0,6.031-0.6,11.456-1.604,14.512C38.408,42.4,38.153,42.585,37.865,42.585z
				 M37.865,16.083c-0.571,3.012-0.905,7.156-0.905,11.531c0,4.375,0.334,8.519,0.905,11.531c0.57-3.012,0.905-7.156,0.905-11.531
				C38.769,23.239,38.435,19.095,37.865,16.083z"/>
		</g>
	</g>
	<g>
		<g>
			<path fill="#F9BB5C" d="M21.441,26.688c-0.939,2.857-1.571,8.19-1.571,14.304s0.632,11.447,1.571,14.304
				c0.939-2.857,1.571-8.19,1.571-14.304S22.38,29.544,21.441,26.688z"/>
			<path fill="#565655" d="M21.441,55.962c-0.288,0-0.543-0.185-0.633-0.458c-1.005-3.057-1.605-8.482-1.605-14.512
				c0-6.03,0.6-11.455,1.605-14.512c0.09-0.273,0.345-0.458,0.633-0.458s0.543,0.185,0.633,0.458
				c1.004,3.056,1.604,8.481,1.604,14.512c0,6.031-0.6,11.456-1.604,14.512C21.985,55.777,21.729,55.962,21.441,55.962z
				 M21.441,29.461c-0.571,3.012-0.905,7.156-0.905,11.531c0,4.375,0.334,8.519,0.905,11.531c0.57-3.012,0.905-7.156,0.905-11.531
				C22.346,36.617,22.012,32.472,21.441,29.461z"/>
		</g>
	</g>
	<g>
		<g>
			<path fill="#F9BB5C" d="M93.865,37.326c0.939,2.857,1.571,8.19,1.571,14.304s-0.632,11.447-1.571,14.304
				c-0.939-2.857-1.571-8.19-1.571-14.304S92.926,40.182,93.865,37.326z"/>
			<path fill="#565655" d="M93.865,66.6L93.865,66.6c-0.288,0-0.544-0.185-0.633-0.458c-1.004-3.057-1.604-8.482-1.604-14.512
				c0-6.03,0.6-11.455,1.604-14.512c0.09-0.274,0.346-0.459,0.633-0.459s0.544,0.185,0.633,0.458
				c1.004,3.056,1.605,8.481,1.605,14.512c0,6.031-0.6,11.457-1.605,14.512C94.409,66.415,94.153,66.6,93.865,66.6z M93.865,40.099
				c-0.57,3.012-0.904,7.156-0.904,11.531s0.334,8.519,0.904,11.531c0.57-3.012,0.905-7.156,0.905-11.531
				C94.77,47.254,94.435,43.11,93.865,40.099z"/>
		</g>
	</g>
	<g>
		<g>
			<path fill="#F9BB5C" d="M90.735,37.326c0.939,2.857,1.571,8.19,1.571,14.304s-0.632,11.447-1.571,14.304
				c-0.939-2.857-1.571-8.19-1.571-14.304S89.795,40.182,90.735,37.326z"/>
			<path fill="#565655" d="M90.734,66.6L90.734,66.6c-0.288,0-0.544-0.185-0.633-0.458c-1.004-3.058-1.605-8.483-1.605-14.512
				c0-6.029,0.6-11.454,1.605-14.512c0.09-0.274,0.346-0.459,0.633-0.459c0.288,0,0.544,0.185,0.633,0.458
				c1.004,3.056,1.605,8.481,1.605,14.512c0,6.031-0.6,11.457-1.605,14.512C91.278,66.415,91.022,66.6,90.734,66.6z M90.734,40.098
				c-0.57,3.013-0.905,7.157-0.905,11.531c0,4.375,0.335,8.519,0.905,11.531c0.57-3.012,0.905-7.156,0.905-11.531
				C91.639,47.254,91.305,43.11,90.734,40.098z"/>
		</g>
	</g>
	<g>
		<g>
			<path fill="#F9BB5C" d="M64.662,13.31c0.939,2.857,1.571,8.19,1.571,14.304s-0.632,11.447-1.571,14.304
				c-0.939-2.857-1.571-8.19-1.571-14.304S63.723,16.167,64.662,13.31z"/>
			<path fill="#565655" d="M64.662,42.585c-0.288,0-0.544-0.185-0.633-0.458c-1.004-3.056-1.605-8.481-1.605-14.512
				c0-6.031,0.6-11.456,1.605-14.512c0.09-0.273,0.346-0.458,0.633-0.458l0,0c0.288,0,0.544,0.185,0.633,0.459
				C66.3,16.16,66.9,21.585,66.9,27.614c0,6.029-0.6,11.454-1.605,14.512C65.206,42.4,64.95,42.585,64.662,42.585z M64.662,16.083
				c-0.57,3.012-0.905,7.156-0.905,11.531c0,4.376,0.335,8.52,0.905,11.531c0.57-3.013,0.905-7.157,0.905-11.531
				C65.567,23.24,65.232,19.096,64.662,16.083z"/>
		</g>
	</g>
	<g>
		<g>
			<path fill="#F9BB5C" d="M61.531,13.31c0.939,2.857,1.571,8.19,1.571,14.304s-0.632,11.447-1.571,14.304
				c-0.939-2.857-1.571-8.19-1.571-14.304S60.592,16.167,61.531,13.31z"/>
			<path fill="#565655" d="M61.532,42.585c-0.288,0-0.544-0.185-0.633-0.458c-1.004-3.056-1.605-8.481-1.605-14.512
				c0-6.031,0.6-11.456,1.605-14.512c0.09-0.273,0.346-0.458,0.633-0.458l0,0c0.288,0,0.544,0.185,0.633,0.459
				c1.004,3.057,1.604,8.482,1.604,14.512c0,6.03-0.6,11.456-1.604,14.512C62.075,42.4,61.819,42.585,61.532,42.585z M61.532,16.083
				c-0.57,3.012-0.905,7.156-0.905,11.531c0,4.376,0.335,8.519,0.905,11.531c0.57-3.012,0.904-7.156,0.904-11.531
				S62.102,19.095,61.532,16.083z"/>
		</g>
	</g>
	<g>
		<g>
			<path fill="#F9BB5C" d="M77.955,26.688c0.939,2.857,1.571,8.19,1.571,14.304s-0.632,11.447-1.571,14.304
				c-0.939-2.857-1.571-8.19-1.571-14.304S77.016,29.544,77.955,26.688z"/>
			<path fill="#565655" d="M77.955,55.962c-0.288,0-0.544-0.185-0.633-0.458c-1.004-3.056-1.605-8.481-1.605-14.512
				c0-6.031,0.6-11.457,1.605-14.512c0.09-0.273,0.346-0.458,0.633-0.458l0,0c0.288,0,0.544,0.185,0.633,0.459
				c1.004,3.056,1.604,8.482,1.604,14.512c0,6.03-0.6,11.455-1.604,14.512C78.499,55.777,78.243,55.962,77.955,55.962z
				 M77.955,29.461c-0.57,3.012-0.905,7.156-0.905,11.531c0,4.375,0.335,8.519,0.905,11.531c0.57-3.012,0.904-7.156,0.904-11.531
				S78.525,32.473,77.955,29.461z"/>
		</g>
	</g>
	<g>
		<polygon fill="#FDD894" points="50.891,29.913 9.145,65.167 9.145,96.845 50.891,96.845 92.637,96.845 92.637,65.167 		"/>
		<path fill="#565655" d="M92.637,97.512H9.145c-0.368,0-0.667-0.298-0.667-0.667V65.168c0-0.196,0.087-0.383,0.237-0.509
			l41.746-35.255c0.249-0.21,0.612-0.21,0.861,0l41.746,35.255c0.15,0.127,0.236,0.313,0.236,0.509v31.678
			C93.304,97.214,93.006,97.512,92.637,97.512z M9.812,96.179h82.159V65.477L50.891,30.785L9.812,65.477V96.179z"/>
	</g>
	<g>
		<g>
			<path fill="#F9BB5C" d="M9.146,67.167c-0.569,0-1.133-0.241-1.529-0.71c-0.712-0.844-0.606-2.106,0.238-2.818l41.746-35.255
				c0.745-0.629,1.836-0.629,2.58,0l41.746,35.255c0.844,0.712,0.95,1.974,0.238,2.818c-0.712,0.844-1.974,0.95-2.818,0.238
				L50.891,32.53L10.435,66.695C10.06,67.012,9.602,67.167,9.146,67.167z"/>
			<path fill="#565655" d="M92.637,67.834c-0.628,0-1.239-0.223-1.72-0.629L50.891,33.403L10.865,67.204
				c-0.48,0.406-1.091,0.629-1.719,0.629c-0.788,0-1.531-0.345-2.038-0.947c-0.459-0.544-0.68-1.234-0.62-1.944
				c0.06-0.71,0.393-1.354,0.937-1.813l41.746-35.255c0.96-0.811,2.48-0.812,3.441,0L94.358,63.13
				c0.544,0.459,0.877,1.103,0.937,1.813c0.06,0.71-0.161,1.4-0.62,1.944C94.167,67.489,93.424,67.834,92.637,67.834z
				 M50.891,31.657l40.886,34.529c0.542,0.458,1.423,0.383,1.878-0.158c0.23-0.273,0.34-0.618,0.311-0.973
				c-0.03-0.355-0.196-0.677-0.468-0.906L51.751,28.894c-0.48-0.406-1.24-0.406-1.721,0L8.285,64.149
				c-0.272,0.23-0.438,0.552-0.468,0.906c-0.03,0.355,0.08,0.7,0.31,0.972c0.455,0.54,1.337,0.615,1.878,0.159L50.891,31.657z"/>
		</g>
	</g>
	<g>
		<path fill="#F9BB5C" d="M10.216,96.362c0,0.267-0.127,0.483-0.283,0.483H4.271c-0.156,0-0.283-0.216-0.283-0.483V53.725
			c0-0.267,0.127-0.483,0.283-0.483h5.663c0.156,0,0.283,0.216,0.283,0.483V96.362z"/>
		<path fill="#565655" d="M9.933,97.512H4.271c-0.542,0-0.95-0.495-0.95-1.15V53.725c0-0.656,0.408-1.15,0.95-1.15h5.663
			c0.542,0,0.95,0.494,0.95,1.15v42.637C10.883,97.017,10.475,97.512,9.933,97.512z M4.654,96.179h4.893L9.55,53.908H4.657
			L4.654,96.179z"/>
	</g>
	<g>
		<path fill="#F9BB5C" d="M39.414,96.362c0,0.267-0.127,0.483-0.283,0.483h-5.663c-0.156,0-0.283-0.216-0.283-0.483V28.098
			c0-0.267,0.127-0.483,0.283-0.483h5.663c0.156,0,0.283,0.216,0.283,0.483V96.362z"/>
		<path fill="#565655" d="M39.131,97.512h-5.663c-0.542,0-0.95-0.495-0.95-1.15V28.098c0-0.656,0.408-1.15,0.95-1.15h5.663
			c0.542,0,0.95,0.494,0.95,1.15v68.264C40.08,97.017,39.672,97.512,39.131,97.512z M33.852,96.179h4.893l0.003-67.898h-4.893
			L33.852,96.179z"/>
	</g>
	<g>
		<path fill="#F9BB5C" d="M23.582,96.362c0,0.267-0.127,0.483-0.283,0.483h-3.716c-0.156,0-0.283-0.216-0.283-0.483V41.153
			c0-0.267,0.127-0.483,0.283-0.483h3.716c0.156,0,0.283,0.216,0.283,0.483V96.362z"/>
		<path fill="#565655" d="M23.299,97.512h-3.716c-0.542,0-0.95-0.495-0.95-1.15V41.153c0-0.656,0.408-1.15,0.95-1.15h3.716
			c0.542,0,0.95,0.494,0.95,1.15v55.209C24.249,97.017,23.841,97.512,23.299,97.512z M19.967,96.179h2.946l0.003-54.842H19.97
			L19.967,96.179z"/>
	</g>
	<g>
		<path fill="#F9BB5C" d="M89.275,96.362c0,0.267,0.127,0.483,0.283,0.483h5.663c0.156,0,0.283-0.216,0.283-0.483V53.725
			c0-0.267-0.127-0.483-0.283-0.483h-5.663c-0.156,0-0.283,0.216-0.283,0.483V96.362z"/>
		<path fill="#565655" d="M95.221,97.512h-5.662c-0.542,0-0.95-0.495-0.95-1.15V53.725c0-0.656,0.408-1.15,0.95-1.15h5.662
			c0.542,0,0.95,0.494,0.95,1.15v42.637C96.171,97.017,95.763,97.512,95.221,97.512z M89.942,96.179h4.893l0.003-42.271h-4.893
			L89.942,96.179z"/>
	</g>
	<g>
		<path fill="#F9BB5C" d="M60.078,96.362c0,0.267,0.127,0.483,0.283,0.483h5.663c0.156,0,0.283-0.216,0.283-0.483V28.098
			c0-0.267-0.127-0.483-0.283-0.483h-5.663c-0.156,0-0.283,0.216-0.283,0.483V96.362z"/>
		<path fill="#565655" d="M66.024,97.512h-5.663c-0.542,0-0.95-0.495-0.95-1.15V28.098c0-0.656,0.408-1.15,0.95-1.15h5.663
			c0.542,0,0.95,0.494,0.95,1.15v68.264C66.974,97.017,66.566,97.512,66.024,97.512z M60.744,96.179h4.893l0.003-67.898h-4.893
			L60.744,96.179z"/>
	</g>
	<g>
		<path fill="#F9BB5C" d="M75.91,96.362c0,0.267,0.127,0.483,0.283,0.483h3.716c0.156,0,0.283-0.216,0.283-0.483V41.153
			c0-0.267-0.127-0.483-0.283-0.483h-3.716c-0.156,0-0.283,0.216-0.283,0.483V96.362z"/>
		<path fill="#565655" d="M79.909,97.512h-3.716c-0.542,0-0.95-0.495-0.95-1.15V41.153c0-0.656,0.408-1.15,0.95-1.15h3.716
			c0.542,0,0.95,0.494,0.95,1.15v55.209C80.858,97.017,80.45,97.512,79.909,97.512z M76.576,96.179h2.946l0.003-54.842h-2.946
			L76.576,96.179z"/>
	</g>
	<g>
		<path fill="#FDD894" d="M12.046,53.241c0,0.89-0.722,1.612-1.612,1.612H3.77c-0.89,0-1.612-0.722-1.612-1.612l0,0
			c0-0.89,0.722-1.612,1.612-1.612h6.664C11.324,51.629,12.046,52.351,12.046,53.241L12.046,53.241z"/>
		<path fill="#565655" d="M10.434,55.519H3.77c-1.256,0-2.278-1.022-2.278-2.278c0-1.256,1.022-2.278,2.278-2.278h6.664
			c1.256,0,2.278,1.022,2.278,2.278C12.712,54.497,11.69,55.519,10.434,55.519z M3.77,52.296c-0.521,0-0.945,0.424-0.945,0.945
			c0,0.521,0.424,0.945,0.945,0.945h6.664c0.521,0,0.945-0.424,0.945-0.945c0-0.521-0.424-0.945-0.945-0.945H3.77z"/>
	</g>
	<g>
		<path fill="#FDD894" d="M25.355,40.347c0,0.89-0.722,1.612-1.612,1.612h-4.73c-0.89,0-1.612-0.722-1.612-1.612l0,0
			c0-0.89,0.722-1.612,1.612-1.612h4.73C24.633,38.735,25.355,39.457,25.355,40.347L25.355,40.347z"/>
		<path fill="#565655" d="M23.743,42.625h-4.73c-1.256,0-2.278-1.022-2.278-2.278c0-1.256,1.022-2.278,2.278-2.278h4.73
			c1.256,0,2.278,1.022,2.278,2.278C26.022,41.603,25,42.625,23.743,42.625z M19.013,39.402c-0.521,0-0.945,0.424-0.945,0.945
			c0,0.521,0.424,0.945,0.945,0.945h4.73c0.521,0,0.945-0.424,0.945-0.945c0-0.521-0.424-0.945-0.945-0.945H19.013z"/>
	</g>
	<g>
		<path fill="#FDD894" d="M82.027,40.347c0,0.89-0.722,1.612-1.612,1.612h-4.73c-0.89,0-1.612-0.722-1.612-1.612l0,0
			c0-0.89,0.722-1.612,1.612-1.612h4.73C81.306,38.735,82.027,39.457,82.027,40.347L82.027,40.347z"/>
		<path fill="#565655" d="M80.416,42.625h-4.73c-1.256,0-2.278-1.022-2.278-2.278c0-1.256,1.022-2.278,2.278-2.278h4.73
			c1.256,0,2.278,1.022,2.278,2.278C82.694,41.603,81.672,42.625,80.416,42.625z M75.686,39.402c-0.521,0-0.945,0.424-0.945,0.945
			c0,0.521,0.424,0.945,0.945,0.945h4.73c0.521,0,0.945-0.424,0.945-0.945c0-0.521-0.424-0.945-0.945-0.945H75.686z"/>
	</g>
	<g>
		<path fill="#FDD894" d="M97.334,53.241c0,0.89-0.722,1.612-1.612,1.612h-6.664c-0.89,0-1.612-0.722-1.612-1.612l0,0
			c0-0.89,0.722-1.612,1.612-1.612h6.664C96.612,51.629,97.334,52.351,97.334,53.241L97.334,53.241z"/>
		<path fill="#565655" d="M95.722,55.519h-6.665c-1.256,0-2.278-1.022-2.278-2.278c0-1.256,1.022-2.278,2.278-2.278h6.665
			c1.256,0,2.278,1.022,2.278,2.278C98,54.497,96.978,55.519,95.722,55.519z M89.058,52.296c-0.521,0-0.945,0.424-0.945,0.945
			c0,0.521,0.424,0.945,0.945,0.945h6.665c0.521,0,0.945-0.424,0.945-0.945c0-0.521-0.424-0.945-0.945-0.945H89.058z"/>
	</g>
	<g>
		<path fill="#FDD894" d="M41.243,27.614c0,0.89-0.722,1.612-1.612,1.612h-6.664c-0.89,0-1.612-0.722-1.612-1.612l0,0
			c0-0.89,0.722-1.612,1.612-1.612h6.664C40.522,26.003,41.243,26.724,41.243,27.614L41.243,27.614z"/>
		<path fill="#565655" d="M39.632,29.893h-6.664c-1.256,0-2.278-1.022-2.278-2.278c0-1.256,1.022-2.278,2.278-2.278h6.664
			c1.256,0,2.278,1.022,2.278,2.278C41.91,28.871,40.888,29.893,39.632,29.893z M32.967,26.669c-0.521,0-0.945,0.424-0.945,0.945
			s0.424,0.945,0.945,0.945h6.664c0.521,0,0.945-0.424,0.945-0.945s-0.424-0.945-0.945-0.945H32.967z"/>
	</g>
	<g>
		<path fill="#FDD894" d="M68.136,27.614c0,0.89-0.722,1.612-1.612,1.612H59.86c-0.89,0-1.612-0.722-1.612-1.612l0,0
			c0-0.89,0.722-1.612,1.612-1.612h6.664C67.415,26.003,68.136,26.724,68.136,27.614L68.136,27.614z"/>
		<path fill="#565655" d="M66.525,29.893H59.86c-1.256,0-2.278-1.022-2.278-2.278c0-1.256,1.022-2.278,2.278-2.278h6.664
			c1.256,0,2.278,1.022,2.278,2.278C68.803,28.871,67.781,29.893,66.525,29.893z M59.86,26.669c-0.521,0-0.945,0.424-0.945,0.945
			s0.424,0.945,0.945,0.945h6.664c0.521,0,0.945-0.424,0.945-0.945s-0.424-0.945-0.945-0.945H59.86z"/>
	</g>
	<g>
		<g>
			<path fill="#565655" d="M56.447,80.576c0-2.136-1.732-3.868-3.868-3.868h-5.31c-2.136,0-3.868,1.732-3.868,3.868v16.269h13.046
				V80.576z"/>
			<path fill="#565655" d="M57.113,97.512H42.734V80.576c0-2.5,2.034-4.535,4.535-4.535h5.309c2.5,0,4.535,2.034,4.535,4.535V97.512
				z M44.068,96.179H55.78V80.576c0-1.765-1.436-3.202-3.202-3.202h-5.309c-1.765,0-3.202,1.436-3.202,3.202V96.179z"/>
		</g>
	</g>
	<g>
		<g>
			<path fill="#565655" d="M53.485,60.376c0-1.008-0.817-1.825-1.825-1.825h-2.505c-1.008,0-1.825,0.817-1.825,1.825v10.093h6.155
				V60.376z"/>
			<path fill="#565655" d="M54.151,71.135h-7.488v-10.76c0-1.374,1.118-2.491,2.491-2.491h2.505c1.374,0,2.491,1.118,2.491,2.491
				V71.135z M47.997,69.802h4.821v-9.427c0-0.639-0.519-1.158-1.158-1.158h-2.505c-0.639,0-1.158,0.519-1.158,1.158V69.802z"/>
		</g>
	</g>
	<g>
		<g>
			<path fill="#565655" d="M52.002,42.069c0-0.522-0.423-0.945-0.945-0.945h-1.298c-0.522,0-0.945,0.423-0.945,0.945v9.581h3.189
				V42.069z"/>
			<path fill="#565655" d="M52.668,52.316h-4.522V42.069c0-0.889,0.723-1.612,1.612-1.612h1.298c0.889,0,1.612,0.723,1.612,1.612
				V52.316z M49.48,50.983h1.855v-8.914c0-0.154-0.125-0.279-0.279-0.279h-1.298c-0.154,0-0.279,0.125-0.279,0.279V50.983z"/>
		</g>
	</g>
	<g>
		<g>
			<path fill="#565655" d="M30.142,62.884c0-0.522-0.423-0.945-0.945-0.945h-1.298c-0.522,0-0.945,0.423-0.945,0.945v9.581h3.189
				V62.884z"/>
			<path fill="#565655" d="M30.809,73.131h-4.522V62.884c0-0.889,0.723-1.612,1.612-1.612h1.298c0.889,0,1.612,0.723,1.612,1.612
				V73.131z M27.62,71.797h1.855v-8.914c0-0.154-0.125-0.279-0.279-0.279h-1.298c-0.154,0-0.279,0.125-0.279,0.279V71.797z"/>
		</g>
	</g>
	<g>
		<g>
			<path fill="#565655" d="M30.142,82.459c0-0.522-0.423-0.945-0.945-0.945h-1.298c-0.522,0-0.945,0.423-0.945,0.945v9.581h3.189
				V82.459z"/>
			<path fill="#565655" d="M30.809,92.706h-4.522V82.459c0-0.889,0.723-1.612,1.612-1.612h1.298c0.889,0,1.612,0.723,1.612,1.612
				V92.706z M27.62,91.373h1.855v-8.914c0-0.154-0.125-0.279-0.279-0.279h-1.298c-0.154,0-0.279,0.125-0.279,0.279V91.373z"/>
		</g>
	</g>
	<g>
		<g>
			<path fill="#565655" d="M72.448,62.884c0-0.522-0.423-0.945-0.945-0.945h-1.298c-0.522,0-0.945,0.423-0.945,0.945v9.581h3.189
				V62.884z"/>
			<path fill="#565655" d="M73.115,73.131h-4.522V62.884c0-0.889,0.723-1.612,1.612-1.612h1.297c0.889,0,1.612,0.723,1.612,1.612
				V73.131z M69.926,71.797h1.856v-8.914c0-0.154-0.125-0.279-0.279-0.279h-1.297c-0.154,0-0.279,0.125-0.279,0.279V71.797z"/>
		</g>
	</g>
	<g>
		<g>
			<path fill="#565655" d="M72.448,82.459c0-0.522-0.423-0.945-0.945-0.945h-1.298c-0.522,0-0.945,0.423-0.945,0.945v9.581h3.189
				V82.459z"/>
			<path fill="#565655" d="M73.115,92.706h-4.522V82.459c0-0.889,0.723-1.612,1.612-1.612h1.297c0.889,0,1.612,0.723,1.612,1.612
				V92.706z M69.926,91.373h1.856v-8.914c0-0.154-0.125-0.279-0.279-0.279h-1.297c-0.154,0-0.279,0.125-0.279,0.279V91.373z"/>
		</g>
	</g>
	<g>
		<g>
			<path fill="#565655" d="M86.469,66.268c0-0.522-0.423-0.945-0.945-0.945h-1.298c-0.522,0-0.945,0.423-0.945,0.945v6.196h3.189
				V66.268z"/>
			<path fill="#565655" d="M87.136,73.131h-4.522v-6.863c0-0.889,0.723-1.612,1.612-1.612h1.298c0.889,0,1.612,0.723,1.612,1.612
				V73.131z M83.947,71.797h1.855v-5.529c0-0.154-0.125-0.279-0.279-0.279h-1.298c-0.154,0-0.279,0.125-0.279,0.279V71.797z"/>
		</g>
	</g>
	<g>
		<g>
			<path fill="#565655" d="M86.469,82.459c0-0.522-0.423-0.945-0.945-0.945h-1.298c-0.522,0-0.945,0.423-0.945,0.945v9.581h3.189
				V82.459z"/>
			<path fill="#565655" d="M87.136,92.706h-4.522V82.459c0-0.889,0.723-1.612,1.612-1.612h1.298c0.889,0,1.612,0.723,1.612,1.612
				V92.706z M83.947,91.373h1.855v-8.914c0-0.154-0.125-0.279-0.279-0.279h-1.298c-0.154,0-0.279,0.125-0.279,0.279V91.373z"/>
		</g>
	</g>
	<g>
		<g>
			<path fill="#565655" d="M16.317,66.268c0-0.522-0.423-0.945-0.945-0.945h-1.298c-0.522,0-0.945,0.423-0.945,0.945v6.196h3.189
				V66.268z"/>
			<path fill="#565655" d="M16.983,73.131h-4.522v-6.863c0-0.889,0.723-1.612,1.612-1.612h1.298c0.889,0,1.612,0.723,1.612,1.612
				V73.131z M13.795,71.797h1.856v-5.529c0-0.154-0.125-0.279-0.279-0.279h-1.298c-0.154,0-0.279,0.125-0.279,0.279V71.797z"/>
		</g>
	</g>
	<g>
		<g>
			<path fill="#565655" d="M16.317,82.459c0-0.522-0.423-0.945-0.945-0.945h-1.298c-0.522,0-0.945,0.423-0.945,0.945v9.581h3.189
				V82.459z"/>
			<path fill="#565655" d="M16.983,92.706h-4.522V82.459c0-0.889,0.723-1.612,1.612-1.612h1.298c0.889,0,1.612,0.723,1.612,1.612
				V92.706z M13.795,91.373h1.856v-8.914c0-0.154-0.125-0.279-0.279-0.279h-1.298c-0.154,0-0.279,0.125-0.279,0.279V91.373z"/>
		</g>
	</g>
</g>
</svg>
