<?xml version="1.0" encoding="utf-8"?>
<!-- Generator: Adobe Illustrator 17.0.0, SVG Export Plug-In . SVG Version: 6.00 Build 0)  -->
<!DOCTYPE svg PUBLIC "-//W3C//DTD SVG 1.1//EN" "http://www.w3.org/Graphics/SVG/1.1/DTD/svg11.dtd">
<svg version="1.1" id="Layer_1" xmlns="http://www.w3.org/2000/svg" xmlns:xlink="http://www.w3.org/1999/xlink" x="0px" y="0px"
	 width="100px" height="100px" viewBox="0 0 100 100" enable-background="new 0 0 100 100" xml:space="preserve">
<g>
	<g>
		<path fill="#C6C6C6" d="M76.708,93.497c-0.013-0.375-0.168-0.732-0.433-0.997l-1.493-1.482
			c-4.836-4.793-9.044-9.015-12.905-16.816c0.025-0.042,0.058-0.075,0.079-0.119l2.08-4.295c0.108-0.224,0.158-0.47,0.147-0.717
			l-0.056-1.172c-0.038-0.791-0.69-1.411-1.482-1.411h-4.093c-0.385-1.049-0.741-2.092-1.137-3.308
			c-0.185-0.566-0.338-1.045-0.493-1.575c0.024-0.038,0.056-0.069,0.077-0.108l2.08-3.946c0.126-0.237,0.184-0.503,0.168-0.771
			l-0.063-1.168c-0.043-0.786-0.693-1.403-1.481-1.403l-2.429-0.001c-1.887-10.35-2.698-22.42-2.646-25.154l0.933-0.752
			c0.35-0.281,0.553-0.706,0.553-1.155v-2.285c0-0.364-0.134-0.716-0.376-0.988l-2.858-3.201c-0.1-0.111-0.227-0.181-0.351-0.257
			v-8.707c0-0.819-0.664-1.482-1.483-1.482c-0.819,0-1.482,0.663-1.482,1.482v8.799c-0.074,0.057-0.161,0.094-0.224,0.165
			l-2.859,3.201c-0.242,0.272-0.377,0.624-0.377,0.988v2.285c0,0.449,0.204,0.874,0.554,1.157l0.93,0.747
			c0.052,2.8-0.761,14.823-2.647,25.156l-2.929-0.001c-0.789,0-1.44,0.617-1.48,1.405l-0.062,1.168
			c-0.015,0.299,0.058,0.594,0.215,0.849l2.401,3.945c0.038,0.064,0.109,0.094,0.155,0.151c-0.147,0.492-0.293,1.006-0.44,1.459
			c-0.358,1.102-0.77,2.24-1.162,3.304l-4.498-0.001c-0.787,0-1.437,0.615-1.481,1.4l-0.065,1.17
			c-0.017,0.282,0.05,0.562,0.186,0.808l2.406,4.295c0.024,0.043,0.059,0.077,0.087,0.117c-3.968,7.883-8.189,12.126-13.035,16.936
			l-1.296,1.29c-0.266,0.267-0.42,0.623-0.433,0.997l-0.11,3.146c-0.014,0.403,0.136,0.792,0.415,1.084
			c0.28,0.288,0.664,0.452,1.066,0.452h13.612c0.812,0,1.473-0.653,1.482-1.464c0-0.033,0.014-0.972,0.164-2.692
			c0.007-0.085,1.429-8.602,9.736-8.602h2.47c7.44,0,9.613,7.183,9.733,8.601c0.149,1.725,0.167,2.668,0.167,2.698
			c0.013,0.81,0.674,1.46,1.483,1.46h13.61c0.402,0,0.789-0.164,1.067-0.453c0.279-0.291,0.429-0.681,0.414-1.083L76.708,93.497z"/>
		<path fill="#565655" d="M75.338,98.932H61.728c-1.214,0-2.216-0.987-2.235-2.2c0-0.014-0.017-0.938-0.164-2.645
			c-0.11-1.303-2.114-7.914-8.984-7.914h-2.47c-7.689,0-8.978,7.873-8.991,7.953c-0.145,1.679-0.156,2.584-0.156,2.593
			c-0.015,1.223-1.017,2.212-2.234,2.212H22.881c-0.601,0-1.186-0.247-1.605-0.679c-0.422-0.441-0.649-1.035-0.627-1.635l0.11-3.145
			c0.02-0.565,0.25-1.099,0.65-1.501l1.3-1.294c4.518-4.484,8.789-8.724,12.703-16.366l-2.286-4.082
			c-0.209-0.374-0.305-0.795-0.281-1.217l0.065-1.169c0.066-1.184,1.046-2.111,2.232-2.111l3.973,0.001
			c0.305-0.834,0.659-1.825,0.971-2.784c0.104-0.322,0.209-0.675,0.313-1.029l0.006-0.02l-2.363-3.881
			c-0.234-0.381-0.347-0.825-0.323-1.279l0.062-1.168c0.061-1.187,1.041-2.118,2.232-2.118l2.3,0.001
			c1.712-9.662,2.516-20.726,2.526-24.042l-0.651-0.524c-0.532-0.429-0.835-1.064-0.835-1.743v-2.285
			c0-0.548,0.201-1.076,0.567-1.487l2.86-3.202c0.011-0.012,0.022-0.024,0.033-0.036v-8.427c0-1.232,1.002-2.234,2.234-2.234
			c1.232,0,2.235,1.002,2.235,2.234v8.31c0.054,0.045,0.108,0.096,0.159,0.153l2.859,3.201c0.366,0.412,0.567,0.94,0.567,1.489
			v2.285c0,0.681-0.304,1.315-0.834,1.741l-0.654,0.528c0.009,3.307,0.811,14.36,2.525,24.04l1.8,0.001
			c1.187,0,2.167,0.928,2.232,2.114l0.063,1.168c0.023,0.402-0.065,0.805-0.255,1.163l-2.006,3.806
			c0.122,0.404,0.247,0.794,0.392,1.238c0.346,1.063,0.646,1.945,0.949,2.79h3.566c1.195,0,2.176,0.934,2.234,2.127l0.056,1.172
			c0.015,0.373-0.06,0.744-0.22,1.077l-1.989,4.107c3.811,7.568,8.075,11.794,12.586,16.265l1.494,1.483
			c0.404,0.407,0.635,0.94,0.654,1.506l0.112,3.146c0.023,0.598-0.203,1.193-0.622,1.629C76.528,98.683,75.941,98.932,75.338,98.932
			z M47.874,84.669h2.47c8.013,0,10.354,7.762,10.482,9.29c0.141,1.626,0.17,2.631,0.17,2.761c0.006,0.385,0.334,0.708,0.731,0.708
			h13.609c0.198,0,0.39-0.082,0.526-0.223c0.136-0.142,0.211-0.336,0.203-0.532l-0.112-3.149c-0.007-0.186-0.082-0.361-0.214-0.493
			l-1.49-1.479c-4.671-4.63-9.083-9.002-13.049-17.017c-0.114-0.231-0.102-0.504,0.032-0.723c0.012-0.021,0.06-0.09,0.075-0.109
			l2.05-4.241c0.053-0.11,0.078-0.233,0.073-0.359l-0.056-1.167c-0.018-0.39-0.34-0.695-0.731-0.695h-4.093
			c-0.315,0-0.597-0.197-0.706-0.493c-0.374-1.017-0.728-2.046-1.147-3.334c-0.187-0.573-0.342-1.059-0.5-1.596
			c-0.059-0.204-0.03-0.424,0.082-0.606c0.015-0.025,0.068-0.098,0.086-0.121l2.046-3.89c0.062-0.116,0.09-0.247,0.083-0.377
			l-0.064-1.171c-0.021-0.387-0.341-0.691-0.73-0.691l-2.429-0.001c-0.363,0-0.674-0.26-0.739-0.617
			c-1.876-10.291-2.713-22.4-2.658-25.303c0.004-0.222,0.107-0.432,0.281-0.571l0.933-0.752c0.173-0.14,0.272-0.347,0.272-0.569
			v-2.285c0-0.18-0.066-0.354-0.186-0.488l-2.857-3.199c-0.017-0.017-0.084-0.057-0.134-0.087c-0.225-0.136-0.408-0.408-0.408-0.671
			v-8.707c0-0.403-0.328-0.731-0.731-0.731c-0.403,0-0.731,0.328-0.731,0.731v8.799c0,0.232-0.107,0.452-0.292,0.594
			c-0.046,0.036-0.095,0.068-0.145,0.099c-0.004,0.002-0.006,0.004-0.008,0.005l-2.829,3.167c-0.12,0.134-0.186,0.308-0.186,0.487
			v2.285c0,0.223,0.1,0.431,0.275,0.572l0.927,0.746c0.174,0.14,0.277,0.349,0.281,0.572c0.054,2.913-0.785,15.035-2.66,25.305
			c-0.065,0.357-0.376,0.617-0.739,0.617c0,0,0,0-0.001,0l-2.928-0.001c-0.388,0-0.709,0.304-0.728,0.692l-0.062,1.169
			c-0.008,0.148,0.028,0.293,0.104,0.416l2.356,3.871c0.043,0.037,0.095,0.084,0.145,0.146c0.156,0.192,0.206,0.449,0.135,0.687
			l-0.12,0.406c-0.109,0.367-0.217,0.734-0.325,1.069c-0.384,1.181-0.828,2.401-1.172,3.332c-0.109,0.295-0.391,0.491-0.706,0.491
			l0,0l-4.498-0.001c-0.388,0-0.709,0.304-0.731,0.691l-0.065,1.17c-0.007,0.139,0.024,0.276,0.093,0.399l2.404,4.293
			c0.015,0.017,0.043,0.046,0.055,0.065c0.151,0.225,0.17,0.515,0.048,0.758c-4.075,8.099-8.497,12.486-13.177,17.132l-1.295,1.289
			c-0.129,0.129-0.205,0.305-0.211,0.491l-0.11,3.146c-0.007,0.2,0.066,0.391,0.207,0.538c0.134,0.138,0.326,0.22,0.523,0.22h13.612
			c0.398,0,0.726-0.324,0.731-0.721l0,0c0,0,0.01-0.949,0.167-2.748C37.397,93.872,38.839,84.669,47.874,84.669z"/>
	</g>
	<g>
		<path fill="#E2E8EA" d="M67.162,72.071c0,2.076-1.683,3.76-3.76,3.76H34.816c-2.076,0-3.76-1.683-3.76-3.76v-3.509
			c0-2.076,1.683-3.76,3.76-3.76h28.587c2.076,0,3.76,1.683,3.76,3.76V72.071z"/>
		<path fill="#565655" d="M63.403,76.583H34.816c-2.488,0-4.512-2.024-4.512-4.512v-3.509c0-2.488,2.024-4.512,4.512-4.512h28.586
			c2.488,0,4.512,2.024,4.512,4.512v3.509C67.914,74.559,65.89,76.583,63.403,76.583z M34.816,65.554
			c-1.659,0-3.008,1.349-3.008,3.008v3.509c0,1.659,1.349,3.008,3.008,3.008h28.586c1.659,0,3.008-1.349,3.008-3.008v-3.509
			c0-1.659-1.349-3.008-3.008-3.008H34.816z"/>
	</g>
	<g>
		<path fill="#E2E8EA" d="M60.201,58.147c0,1.321-1.071,2.392-2.392,2.392H39.617c-1.321,0-2.392-1.071-2.392-2.392v-2.233
			c0-1.321,1.071-2.392,2.392-2.392h18.191c1.321,0,2.392,1.071,2.392,2.392V58.147z"/>
		<path fill="#565655" d="M57.809,61.291H39.617c-1.734,0-3.145-1.411-3.145-3.144v-2.233c0-1.734,1.411-3.144,3.145-3.144h18.191
			c1.734,0,3.144,1.411,3.144,3.144v2.233C60.953,59.88,59.542,61.291,57.809,61.291z M39.617,54.273
			c-0.905,0-1.641,0.736-1.641,1.64v2.233c0,0.905,0.736,1.64,1.641,1.64h18.191c0.905,0,1.64-0.736,1.64-1.64v-2.233
			c0-0.905-0.736-1.64-1.64-1.64H39.617z"/>
	</g>
	<g>
		<circle fill="#E2E8EA" cx="49.046" cy="10.226" r="3.946"/>
		<path fill="#565655" d="M49.046,14.925c-2.591,0-4.699-2.108-4.699-4.698s2.108-4.698,4.699-4.698
			c2.591,0,4.698,2.108,4.698,4.698S51.637,14.925,49.046,14.925z M49.046,7.032c-1.762,0-3.195,1.433-3.195,3.195
			s1.433,3.195,3.195,3.195c1.762,0,3.194-1.433,3.194-3.195S50.808,7.032,49.046,7.032z"/>
	</g>
</g>
<g>
	<defs>
		<polygon id="SVGID_5_" points="215.213,57.954 181.754,69.26 185.698,84.707 204.17,89.638 		"/>
	</defs>
	<clipPath id="SVGID_2_">
		<use xlink:href="#SVGID_5_"  overflow="visible"/>
	</clipPath>
	<g clip-path="url(#SVGID_2_)">
		<defs>
			<rect id="SVGID_7_" x="94.722" y="-27.238" width="345.106" height="169.595"/>
		</defs>
		<clipPath id="SVGID_4_">
			<use xlink:href="#SVGID_7_"  overflow="visible"/>
		</clipPath>
	</g>
</g>
<g>
	<defs>
		<rect id="SVGID_9_" x="94.722" y="-27.238" width="345.106" height="169.595"/>
	</defs>
	<clipPath id="SVGID_6_">
		<use xlink:href="#SVGID_9_"  overflow="visible"/>
	</clipPath>
</g>
<g>
	<defs>
		<path id="SVGID_11_" d="M187.408,97.328h14.79V72.086C197.794,78.726,192.666,87.403,187.408,97.328z"/>
	</defs>
	<clipPath id="SVGID_8_">
		<use xlink:href="#SVGID_11_"  overflow="visible"/>
	</clipPath>
	<g clip-path="url(#SVGID_8_)">
		<defs>
			<rect id="SVGID_13_" x="94.722" y="-27.238" width="345.106" height="169.595"/>
		</defs>
		<clipPath id="SVGID_10_">
			<use xlink:href="#SVGID_13_"  overflow="visible"/>
		</clipPath>
	</g>
</g>
<g>
	<defs>
		<rect id="SVGID_15_" x="94.722" y="-27.238" width="345.106" height="169.595"/>
	</defs>
	<clipPath id="SVGID_12_">
		<use xlink:href="#SVGID_15_"  overflow="visible"/>
	</clipPath>
</g>
<g>
	<defs>
		<path id="SVGID_17_" d="M215.213,57.954c-2.432,0-7.165,5.324-13.015,14.133v25.242h4.076
			C215.542,74.256,219.486,57.954,215.213,57.954z"/>
	</defs>
	<clipPath id="SVGID_14_">
		<use xlink:href="#SVGID_17_"  overflow="visible"/>
	</clipPath>
	<g clip-path="url(#SVGID_14_)">
		<defs>
			<rect id="SVGID_19_" x="94.722" y="-27.238" width="345.106" height="169.595"/>
		</defs>
		<clipPath id="SVGID_16_">
			<use xlink:href="#SVGID_19_"  overflow="visible"/>
		</clipPath>
	</g>
</g>
<g>
	<defs>
		<rect id="SVGID_21_" x="94.722" y="-27.238" width="345.106" height="169.595"/>
	</defs>
	<clipPath id="SVGID_18_">
		<use xlink:href="#SVGID_21_"  overflow="visible"/>
	</clipPath>
</g>
<g>
	<defs>
		<polygon id="SVGID_23_" points="125.354,57.954 158.813,69.26 154.869,84.707 136.463,89.638 		"/>
	</defs>
	<clipPath id="SVGID_20_">
		<use xlink:href="#SVGID_23_"  overflow="visible"/>
	</clipPath>
	<g clip-path="url(#SVGID_20_)">
		<defs>
			<rect id="SVGID_25_" x="94.722" y="-27.238" width="345.106" height="169.595"/>
		</defs>
		<clipPath id="SVGID_22_">
			<use xlink:href="#SVGID_25_"  overflow="visible"/>
		</clipPath>
	</g>
</g>
<g>
	<defs>
		<rect id="SVGID_27_" x="94.722" y="-27.238" width="345.106" height="169.595"/>
	</defs>
	<clipPath id="SVGID_24_">
		<use xlink:href="#SVGID_27_"  overflow="visible"/>
	</clipPath>
</g>
<g>
	<defs>
		<path id="SVGID_29_" d="M153.16,97.328h-14.79V72.086C142.84,78.726,147.901,87.403,153.16,97.328z"/>
	</defs>
	<clipPath id="SVGID_26_">
		<use xlink:href="#SVGID_29_"  overflow="visible"/>
	</clipPath>
	<g clip-path="url(#SVGID_26_)">
		<defs>
			<rect id="SVGID_31_" x="94.722" y="-27.238" width="345.106" height="169.595"/>
		</defs>
		<clipPath id="SVGID_28_">
			<use xlink:href="#SVGID_31_"  overflow="visible"/>
		</clipPath>
	</g>
</g>
<g>
	<defs>
		<rect id="SVGID_33_" x="94.722" y="-27.238" width="345.106" height="169.595"/>
	</defs>
	<clipPath id="SVGID_30_">
		<use xlink:href="#SVGID_33_"  overflow="visible"/>
	</clipPath>
</g>
<g>
	<defs>
		<path id="SVGID_35_" d="M125.354,57.954c2.432,0,7.165,5.324,13.015,14.133v25.242h-4.076
			C125.026,74.256,121.081,57.954,125.354,57.954z"/>
	</defs>
	<clipPath id="SVGID_32_">
		<use xlink:href="#SVGID_35_"  overflow="visible"/>
	</clipPath>
	<g clip-path="url(#SVGID_32_)">
		<defs>
			<rect id="SVGID_37_" x="94.722" y="-27.238" width="345.106" height="169.595"/>
		</defs>
		<clipPath id="SVGID_34_">
			<use xlink:href="#SVGID_37_"  overflow="visible"/>
		</clipPath>
	</g>
</g>
<g>
	<defs>
		<rect id="SVGID_39_" x="94.722" y="-27.238" width="345.106" height="169.595"/>
	</defs>
	<clipPath id="SVGID_36_">
		<use xlink:href="#SVGID_39_"  overflow="visible"/>
	</clipPath>
</g>
<g>
	<defs>
		<path id="SVGID_41_" d="M170.251,52.695c-11.372,0-21.101,18.471-25.045,44.634h50.09
			C191.352,71.232,181.623,52.695,170.251,52.695z"/>
	</defs>
	<clipPath id="SVGID_38_">
		<use xlink:href="#SVGID_41_"  overflow="visible"/>
	</clipPath>
	<g clip-path="url(#SVGID_38_)">
		<defs>
			<rect id="SVGID_43_" x="94.722" y="-27.238" width="345.106" height="169.595"/>
		</defs>
		<clipPath id="SVGID_40_">
			<use xlink:href="#SVGID_43_"  overflow="visible"/>
		</clipPath>
	</g>
</g>
<g>
	<defs>
		<rect id="SVGID_45_" x="94.722" y="-27.238" width="345.106" height="169.595"/>
	</defs>
	<clipPath id="SVGID_42_">
		<use xlink:href="#SVGID_45_"  overflow="visible"/>
	</clipPath>
</g>
<g>
	<defs>
		<path id="SVGID_47_" d="M170.251,72.021c-9.794,0-18.208,10.518-21.561,25.308h43.188
			C188.459,82.473,180.111,72.021,170.251,72.021z"/>
	</defs>
	<clipPath id="SVGID_44_">
		<use xlink:href="#SVGID_47_"  overflow="visible"/>
	</clipPath>
	<g clip-path="url(#SVGID_44_)">
		<defs>
			<rect id="SVGID_49_" x="94.722" y="-27.238" width="345.106" height="169.595"/>
		</defs>
		<clipPath id="SVGID_46_">
			<use xlink:href="#SVGID_49_"  overflow="visible"/>
		</clipPath>
	</g>
</g>
<g>
	<defs>
		<rect id="SVGID_51_" x="94.722" y="-27.238" width="345.106" height="169.595"/>
	</defs>
	<clipPath id="SVGID_48_">
		<use xlink:href="#SVGID_51_"  overflow="visible"/>
	</clipPath>
</g>
<g>
	<defs>
		<path id="SVGID_53_" d="M322.648,20.952c-3.126,0-5.771,13.786-7.374,34.707c-1.443-29.657-4.408-49.936-7.855-49.936
			c-4.008,0-7.374,27.813-8.496,65.806c-2.565-2.805-5.611-4.489-8.897-4.889c0.962-0.401,1.603-1.363,1.603-2.485
			c0-1.523-1.202-2.725-2.725-2.725s-2.725,1.202-2.725,2.725c0,1.122,0.641,2.004,1.603,2.485
			c-3.286,0.321-6.252,2.084-8.897,4.889c-0.962-37.993-4.328-65.806-8.336-65.806c-3.206,0-6.012,17.634-7.534,44.085
			c-1.603-17.554-4.088-28.855-6.893-28.855c-4.889,0-8.817,34.306-8.817,76.547h14.428h3.206h5.611h8.817h19.237h8.817h6.412h2.405
			h15.229C331.465,55.257,327.537,20.952,322.648,20.952z"/>
	</defs>
	<clipPath id="SVGID_50_">
		<use xlink:href="#SVGID_53_"  overflow="visible"/>
	</clipPath>
	<g clip-path="url(#SVGID_50_)">
		<defs>
			<rect id="SVGID_55_" x="-51.67" y="-70.424" width="420.808" height="206.797"/>
		</defs>
		<clipPath id="SVGID_52_">
			<use xlink:href="#SVGID_55_"  overflow="visible"/>
		</clipPath>
	</g>
</g>
<g>
	<defs>
		<rect id="SVGID_57_" x="-51.67" y="-70.424" width="420.808" height="206.797"/>
	</defs>
	<clipPath id="SVGID_54_">
		<use xlink:href="#SVGID_57_"  overflow="visible"/>
	</clipPath>
</g>
<g>
	<defs>
		<circle id="SVGID_59_" cx="270.548" cy="4.119" r="3.046"/>
	</defs>
	<clipPath id="SVGID_56_">
		<use xlink:href="#SVGID_59_"  overflow="visible"/>
	</clipPath>
	<g clip-path="url(#SVGID_56_)">
		<defs>
			<rect id="SVGID_61_" x="-51.67" y="-70.424" width="420.808" height="206.797"/>
		</defs>
		<clipPath id="SVGID_58_">
			<use xlink:href="#SVGID_61_"  overflow="visible"/>
		</clipPath>
	</g>
</g>
<g>
	<defs>
		<rect id="SVGID_63_" x="-51.67" y="-70.424" width="420.808" height="206.797"/>
	</defs>
	<clipPath id="SVGID_60_">
		<use xlink:href="#SVGID_63_"  overflow="visible"/>
	</clipPath>
</g>
<g>
	<defs>
		<circle id="SVGID_65_" cx="307.258" cy="4.119" r="3.046"/>
	</defs>
	<clipPath id="SVGID_62_">
		<use xlink:href="#SVGID_65_"  overflow="visible"/>
	</clipPath>
	<g clip-path="url(#SVGID_62_)">
		<defs>
			<rect id="SVGID_67_" x="-51.67" y="-70.424" width="420.808" height="206.797"/>
		</defs>
		<clipPath id="SVGID_64_">
			<use xlink:href="#SVGID_67_"  overflow="visible"/>
		</clipPath>
	</g>
</g>
<g>
	<defs>
		<rect id="SVGID_69_" x="-51.67" y="-70.424" width="420.808" height="206.797"/>
	</defs>
	<clipPath id="SVGID_66_">
		<use xlink:href="#SVGID_69_"  overflow="visible"/>
	</clipPath>
</g>
<g>
	<defs>
		<circle id="SVGID_71_" cx="322.568" cy="20.39" r="3.046"/>
	</defs>
	<clipPath id="SVGID_68_">
		<use xlink:href="#SVGID_71_"  overflow="visible"/>
	</clipPath>
	<g clip-path="url(#SVGID_68_)">
		<defs>
			<rect id="SVGID_73_" x="-51.67" y="-70.424" width="420.808" height="206.797"/>
		</defs>
		<clipPath id="SVGID_70_">
			<use xlink:href="#SVGID_73_"  overflow="visible"/>
		</clipPath>
	</g>
</g>
<g>
	<defs>
		<rect id="SVGID_75_" x="-51.67" y="-70.424" width="420.808" height="206.797"/>
	</defs>
	<clipPath id="SVGID_72_">
		<use xlink:href="#SVGID_75_"  overflow="visible"/>
	</clipPath>
</g>
<g>
	<defs>
		<circle id="SVGID_77_" cx="256.04" cy="20.39" r="3.046"/>
	</defs>
	<clipPath id="SVGID_74_">
		<use xlink:href="#SVGID_77_"  overflow="visible"/>
	</clipPath>
	<g clip-path="url(#SVGID_74_)">
		<defs>
			<rect id="SVGID_79_" x="-51.67" y="-70.424" width="420.808" height="206.797"/>
		</defs>
		<clipPath id="SVGID_76_">
			<use xlink:href="#SVGID_79_"  overflow="visible"/>
		</clipPath>
	</g>
</g>
<g>
	<defs>
		<rect id="SVGID_81_" x="-51.67" y="-70.424" width="420.808" height="206.797"/>
	</defs>
	<clipPath id="SVGID_78_">
		<use xlink:href="#SVGID_81_"  overflow="visible"/>
	</clipPath>
</g>
<g>
	<defs>
		<circle id="SVGID_83_" cx="288.903" cy="64.235" r="3.046"/>
	</defs>
	<clipPath id="SVGID_80_">
		<use xlink:href="#SVGID_83_"  overflow="visible"/>
	</clipPath>
	<g clip-path="url(#SVGID_80_)">
		<defs>
			<rect id="SVGID_85_" x="-51.67" y="-70.424" width="420.808" height="206.797"/>
		</defs>
		<clipPath id="SVGID_82_">
			<use xlink:href="#SVGID_85_"  overflow="visible"/>
		</clipPath>
	</g>
</g>
<g>
	<defs>
		<rect id="SVGID_87_" x="-51.67" y="-70.424" width="420.808" height="206.797"/>
	</defs>
	<clipPath id="SVGID_84_">
		<use xlink:href="#SVGID_87_"  overflow="visible"/>
	</clipPath>
</g>
<g>
	<defs>
		<path id="SVGID_89_" d="M268.224,72.891L268.224,72.891c-0.401,0-0.721-0.321-0.721-0.721V30.49c0-0.401,0.321-0.721,0.721-0.721
			c0.401,0,0.721,0.321,0.721,0.721v41.68C268.945,72.571,268.624,72.891,268.224,72.891z"/>
	</defs>
	<clipPath id="SVGID_86_">
		<use xlink:href="#SVGID_89_"  overflow="visible"/>
	</clipPath>
	<g clip-path="url(#SVGID_86_)">
		<defs>
			<rect id="SVGID_91_" x="-51.67" y="-70.424" width="420.808" height="206.797"/>
		</defs>
		<clipPath id="SVGID_88_">
			<use xlink:href="#SVGID_91_"  overflow="visible"/>
		</clipPath>
	</g>
</g>
<g>
	<defs>
		<path id="SVGID_93_" d="M272.311,72.891L272.311,72.891c-0.401,0-0.721-0.321-0.721-0.721V30.49c0-0.401,0.321-0.721,0.721-0.721
			c0.401,0,0.721,0.321,0.721,0.721v41.68C273.033,72.571,272.712,72.891,272.311,72.891z"/>
	</defs>
	<clipPath id="SVGID_90_">
		<use xlink:href="#SVGID_93_"  overflow="visible"/>
	</clipPath>
	<g clip-path="url(#SVGID_90_)">
		<defs>
			<rect id="SVGID_95_" x="-51.67" y="-70.424" width="420.808" height="206.797"/>
		</defs>
		<clipPath id="SVGID_92_">
			<use xlink:href="#SVGID_95_"  overflow="visible"/>
		</clipPath>
	</g>
</g>
<g>
	<defs>
		<path id="SVGID_97_" d="M305.174,72.891L305.174,72.891c-0.401,0-0.721-0.321-0.721-0.721V30.49c0-0.401,0.321-0.721,0.721-0.721
			c0.401,0,0.721,0.321,0.721,0.721v41.68C305.896,72.571,305.575,72.891,305.174,72.891z"/>
	</defs>
	<clipPath id="SVGID_94_">
		<use xlink:href="#SVGID_97_"  overflow="visible"/>
	</clipPath>
	<g clip-path="url(#SVGID_94_)">
		<defs>
			<rect id="SVGID_99_" x="-51.67" y="-70.424" width="420.808" height="206.797"/>
		</defs>
		<clipPath id="SVGID_96_">
			<use xlink:href="#SVGID_99_"  overflow="visible"/>
		</clipPath>
	</g>
</g>
<g>
	<defs>
		<path id="SVGID_101_" d="M309.262,72.891L309.262,72.891c-0.401,0-0.721-0.321-0.721-0.721V30.49c0-0.401,0.321-0.721,0.721-0.721
			c0.401,0,0.721,0.321,0.721,0.721v41.68C309.984,72.571,309.663,72.891,309.262,72.891z"/>
	</defs>
	<clipPath id="SVGID_98_">
		<use xlink:href="#SVGID_101_"  overflow="visible"/>
	</clipPath>
	<g clip-path="url(#SVGID_98_)">
		<defs>
			<rect id="SVGID_103_" x="-51.67" y="-70.424" width="420.808" height="206.797"/>
		</defs>
		<clipPath id="SVGID_100_">
			<use xlink:href="#SVGID_103_"  overflow="visible"/>
		</clipPath>
	</g>
</g>
<g>
	<defs>
		<path id="SVGID_105_" d="M320.564,72.891L320.564,72.891c-0.401,0-0.721-0.321-0.721-0.721V39.627
			c0-0.401,0.321-0.721,0.721-0.721c0.401,0,0.721,0.321,0.721,0.721V72.17C321.285,72.571,320.965,72.891,320.564,72.891z"/>
	</defs>
	<clipPath id="SVGID_102_">
		<use xlink:href="#SVGID_105_"  overflow="visible"/>
	</clipPath>
	<g clip-path="url(#SVGID_102_)">
		<defs>
			<rect id="SVGID_107_" x="-51.67" y="-70.424" width="420.808" height="206.797"/>
		</defs>
		<clipPath id="SVGID_104_">
			<use xlink:href="#SVGID_107_"  overflow="visible"/>
		</clipPath>
	</g>
</g>
<g>
	<defs>
		<path id="SVGID_109_" d="M324.652,72.891L324.652,72.891c-0.401,0-0.721-0.321-0.721-0.721V39.627
			c0-0.401,0.321-0.721,0.721-0.721c0.401,0,0.721,0.321,0.721,0.721V72.17C325.373,72.571,325.053,72.891,324.652,72.891z"/>
	</defs>
	<clipPath id="SVGID_106_">
		<use xlink:href="#SVGID_109_"  overflow="visible"/>
	</clipPath>
	<g clip-path="url(#SVGID_106_)">
		<defs>
			<rect id="SVGID_111_" x="-51.67" y="-70.424" width="420.808" height="206.797"/>
		</defs>
		<clipPath id="SVGID_108_">
			<use xlink:href="#SVGID_111_"  overflow="visible"/>
		</clipPath>
	</g>
</g>
<g>
	<defs>
		<path id="SVGID_113_" d="M254.036,72.891L254.036,72.891c-0.401,0-0.721-0.321-0.721-0.721V39.627
			c0-0.401,0.321-0.721,0.721-0.721s0.721,0.321,0.721,0.721V72.17C254.758,72.571,254.437,72.891,254.036,72.891z"/>
	</defs>
	<clipPath id="SVGID_110_">
		<use xlink:href="#SVGID_113_"  overflow="visible"/>
	</clipPath>
	<g clip-path="url(#SVGID_110_)">
		<defs>
			<rect id="SVGID_115_" x="-51.67" y="-70.424" width="420.808" height="206.797"/>
		</defs>
		<clipPath id="SVGID_112_">
			<use xlink:href="#SVGID_115_"  overflow="visible"/>
		</clipPath>
	</g>
</g>
<g>
	<defs>
		<path id="SVGID_117_" d="M258.124,72.891L258.124,72.891c-0.401,0-0.721-0.321-0.721-0.721V39.627
			c0-0.401,0.321-0.721,0.721-0.721s0.721,0.321,0.721,0.721V72.17C258.846,72.571,258.525,72.891,258.124,72.891z"/>
	</defs>
	<clipPath id="SVGID_114_">
		<use xlink:href="#SVGID_117_"  overflow="visible"/>
	</clipPath>
	<g clip-path="url(#SVGID_114_)">
		<defs>
			<rect id="SVGID_119_" x="-51.67" y="-70.424" width="420.808" height="206.797"/>
		</defs>
		<clipPath id="SVGID_116_">
			<use xlink:href="#SVGID_119_"  overflow="visible"/>
		</clipPath>
	</g>
</g>
<g>
	<defs>
		<path id="SVGID_121_" d="M289.384,74.013c-8.176,0-14.828,10.5-14.828,23.405h29.657C304.213,84.514,297.56,74.013,289.384,74.013
			z"/>
	</defs>
	<clipPath id="SVGID_118_">
		<use xlink:href="#SVGID_121_"  overflow="visible"/>
	</clipPath>
	<g clip-path="url(#SVGID_118_)">
		<defs>
			<rect id="SVGID_123_" x="-51.67" y="-70.424" width="420.808" height="206.797"/>
		</defs>
		<clipPath id="SVGID_120_">
			<use xlink:href="#SVGID_123_"  overflow="visible"/>
		</clipPath>
	</g>
</g>
<g>
	<defs>
		<rect id="SVGID_125_" x="-51.67" y="-70.424" width="420.808" height="206.797"/>
	</defs>
	<clipPath id="SVGID_122_">
		<use xlink:href="#SVGID_125_"  overflow="visible"/>
	</clipPath>
</g>
</svg>
