<?xml version="1.0" encoding="utf-8"?>
<!-- Generator: Adobe Illustrator 17.0.0, SVG Export Plug-In . SVG Version: 6.00 Build 0)  -->
<!DOCTYPE svg PUBLIC "-//W3C//DTD SVG 1.1//EN" "http://www.w3.org/Graphics/SVG/1.1/DTD/svg11.dtd">
<svg version="1.1" id="Layer_1" xmlns="http://www.w3.org/2000/svg" xmlns:xlink="http://www.w3.org/1999/xlink" x="0px" y="0px"
	 width="100px" height="100px" viewBox="0 0 100 100" enable-background="new 0 0 100 100" xml:space="preserve">
<g>
	<g>
		<path fill="#F7EFDC" d="M39.397,39.142c0,0.709-0.575,1.285-1.285,1.285l0,0c-0.709,0-1.285-0.575-1.285-1.285V25.285
			c0-0.709,0.575-1.285,1.285-1.285l0,0c0.709,0,1.285,0.575,1.285,1.285V39.142z"/>
		<path fill="#565655" d="M38.112,41.166c-1.115,0-2.023-0.908-2.023-2.023V25.285c0-1.116,0.908-2.023,2.023-2.023
			c1.116,0,2.024,0.908,2.024,2.023v13.857C40.136,40.258,39.228,41.166,38.112,41.166z M38.112,24.74
			c-0.301,0-0.545,0.245-0.545,0.546v13.857c0,0.301,0.245,0.546,0.545,0.546c0.301,0,0.546-0.245,0.546-0.546V25.285
			C38.658,24.985,38.413,24.74,38.112,24.74z"/>
	</g>
	<g>
		<path fill="#F7EFDC" d="M64.201,39.142c0,0.709-0.575,1.285-1.285,1.285l0,0c-0.709,0-1.285-0.575-1.285-1.285V25.285
			c0-0.709,0.575-1.285,1.285-1.285l0,0c0.709,0,1.285,0.575,1.285,1.285V39.142z"/>
		<path fill="#565655" d="M62.916,41.166c-1.115,0-2.023-0.908-2.023-2.023V25.285c0-1.116,0.908-2.023,2.023-2.023
			c1.116,0,2.024,0.908,2.024,2.023v13.857C64.94,40.258,64.032,41.166,62.916,41.166z M62.916,24.74
			c-0.301,0-0.545,0.245-0.545,0.546v13.857c0,0.301,0.245,0.546,0.545,0.546c0.301,0,0.546-0.245,0.546-0.546V25.285
			C63.462,24.985,63.217,24.74,62.916,24.74z"/>
	</g>
	<g>
		<g>
			<path fill="#ECDFBC" d="M50.465,5.658c-1.856,0-3.36,1.504-3.36,3.36h6.72C53.824,7.163,52.32,5.658,50.465,5.658z"/>
			<path fill="#565655" d="M54.563,9.757h-8.197V9.018c0-2.26,1.838-4.099,4.099-4.099c2.26,0,4.098,1.839,4.098,4.099V9.757z
				 M47.95,8.28h5.03c-0.32-1.087-1.326-1.882-2.514-1.882C49.276,6.397,48.269,7.193,47.95,8.28z"/>
		</g>
	</g>
	<g>
		<g>
			<path fill="#F3E7BF" d="M55.504,17.941h-10.08v9.145h3.755v-4.521h0.002c0-0.006-0.002-0.011-0.002-0.017
				c0-0.709,0.575-1.285,1.285-1.285s1.285,0.575,1.285,1.285c0,0.006-0.002,0.011-0.002,0.017h0.002v4.521h3.755V17.941z"/>
			<path fill="#565655" d="M55.505,27.825h-3.755c-0.408,0-0.739-0.331-0.739-0.739v-4.51c-0.001-0.028,0-0.057,0.002-0.084
				c-0.002-0.245-0.247-0.49-0.548-0.49c-0.269,0-0.494,0.196-0.538,0.452c0.006,0.036,0.008,0.073,0.008,0.111
				c0,0.051-0.005,0.1-0.014,0.148l-0.001,4.373c0,0.408-0.331,0.738-0.739,0.738h-3.755c-0.408,0-0.739-0.331-0.739-0.739v-9.145
				c0-0.408,0.33-0.739,0.739-0.739h10.08c0.408,0,0.739,0.331,0.739,0.739v9.145C56.243,27.494,55.913,27.825,55.505,27.825z
				 M52.488,26.347h2.278V18.68h-8.602v7.667h2.278v-3.782c0-0.036,0.003-0.073,0.008-0.109c0.074-1.105,0.95-1.932,2.016-1.932
				c1.115,0,2.023,0.908,2.023,2.023c0,0.014-0.001,0.029-0.001,0.045L52.488,26.347z"/>
		</g>
	</g>
	<g>
		<g>
			<path fill="#F3E7BF" d="M53.824,9.018h-6.72v9.145h2.075v-5.241h0.002c0-0.006-0.002-0.011-0.002-0.017
				c0-0.709,0.575-1.285,1.285-1.285s1.285,0.575,1.285,1.285c0,0.006-0.002,0.011-0.002,0.017h0.002v5.241h2.075V9.018z"/>
			<path fill="#565655" d="M53.824,18.902h-2.075c-0.408,0-0.739-0.331-0.739-0.739v-5.231c-0.001-0.029,0-0.057,0.002-0.084
				c-0.002-0.245-0.247-0.49-0.548-0.49c-0.269,0-0.494,0.196-0.538,0.452c0.006,0.036,0.008,0.073,0.008,0.111
				c0,0.051-0.005,0.1-0.014,0.148l-0.001,5.094c0,0.408-0.331,0.738-0.739,0.738h-2.075c-0.408,0-0.739-0.331-0.739-0.739V9.018
				c0-0.408,0.33-0.739,0.739-0.739h6.719c0.408,0,0.739,0.331,0.739,0.739v9.145C54.563,18.572,54.233,18.902,53.824,18.902z
				 M52.488,17.425h0.597V9.757h-5.242v7.667h0.597v-4.503c0-0.036,0.003-0.073,0.008-0.109c0.074-1.105,0.95-1.932,2.016-1.932
				c1.115,0,2.023,0.908,2.023,2.023c0,0.014-0.001,0.029-0.001,0.045L52.488,17.425z"/>
		</g>
	</g>
	<g>
		<rect x="43.136" y="27.086" fill="#F7EFDC" width="14.658" height="6.811"/>
		<path fill="#565655" d="M58.532,34.636H42.397v-8.289h16.135V34.636z M43.875,33.159h13.18v-5.334h-13.18V33.159z"/>
	</g>
	<g>
		<g>
			<rect x="43.942" y="41.563" fill="none" width="2.569" height="9.388"/>
		</g>
		<g>
			<rect x="38.705" y="41.563" fill="none" width="2.569" height="9.388"/>
		</g>
		<g>
			<rect x="59.655" y="41.563" fill="none" width="2.569" height="9.388"/>
		</g>
		<g>
			<rect x="54.417" y="41.563" fill="none" width="2.569" height="9.388"/>
		</g>
		<g>
			<path fill="#F3E7BF" d="M36.531,33.312v36.274h27.867V33.312H36.531z M41.274,50.951h-2.569v-9.388h2.569V50.951z M46.512,50.951
				h-2.569v-9.388h2.569V50.951z M51.749,39.167v11.784H49.18V39.167h0.002c0-0.006-0.002-0.011-0.002-0.017
				c0-0.709,0.575-1.285,1.285-1.285s1.285,0.575,1.285,1.285c0,0.006-0.002,0.011-0.002,0.017H51.749z M56.987,50.951h-2.569
				v-9.388h2.569V50.951z M62.224,50.951h-2.569v-9.388h2.569V50.951z"/>
			<path fill="#565655" d="M64.399,70.325H36.531c-0.408,0-0.739-0.33-0.739-0.739V33.312c0-0.408,0.33-0.739,0.739-0.739h27.867
				c0.408,0,0.739,0.331,0.739,0.739v36.274C65.137,69.994,64.807,70.325,64.399,70.325z M37.27,68.847h26.39V34.051H37.27V68.847z
				 M62.224,51.69h-2.569c-0.408,0-0.739-0.33-0.739-0.739v-9.388c0-0.408,0.33-0.739,0.739-0.739h2.569
				c0.408,0,0.739,0.331,0.739,0.739v9.388C62.963,51.36,62.632,51.69,62.224,51.69z M60.393,50.213h1.092v-7.911h-1.092V50.213z
				 M56.987,51.69h-2.569c-0.408,0-0.739-0.33-0.739-0.739v-9.388c0-0.408,0.33-0.739,0.739-0.739h2.569
				c0.408,0,0.739,0.331,0.739,0.739v9.388C57.725,51.36,57.395,51.69,56.987,51.69z M55.156,50.213h1.092v-7.911h-1.092V50.213z
				 M51.749,51.69H49.18c-0.408,0-0.739-0.33-0.739-0.739V39.167c0-0.036,0.003-0.073,0.008-0.109
				c0.075-1.105,0.951-1.932,2.016-1.932c1.115,0,2.023,0.908,2.023,2.023c0,0.014-0.001,0.029-0.001,0.045l0.001,11.757
				c0,0.196-0.078,0.384-0.216,0.522C52.133,51.612,51.945,51.69,51.749,51.69z M49.919,50.213h1.092V39.177
				c-0.001-0.028,0-0.056,0.002-0.083c-0.002-0.246-0.247-0.491-0.548-0.491c-0.269,0-0.494,0.196-0.538,0.452
				c0.006,0.036,0.008,0.073,0.008,0.111c0,0.053-0.005,0.105-0.016,0.155V50.213z M46.512,51.69h-2.569
				c-0.408,0-0.739-0.33-0.739-0.739v-9.388c0-0.408,0.33-0.739,0.739-0.739h2.569c0.408,0,0.739,0.331,0.739,0.739v9.388
				C47.251,51.36,46.92,51.69,46.512,51.69z M44.681,50.213h1.092v-7.911h-1.092V50.213z M41.274,51.69h-2.569
				c-0.408,0-0.739-0.33-0.739-0.739v-9.388c0-0.408,0.33-0.739,0.739-0.739h2.569c0.408,0,0.739,0.331,0.739,0.739v9.388
				C42.013,51.36,41.683,51.69,41.274,51.69z M39.444,50.213h1.092v-7.911h-1.092V50.213z"/>
		</g>
	</g>
	<g>
		<rect x="36.531" y="50.058" fill="#FBD1AB" width="27.867" height="47.734"/>
		<path fill="#565655" d="M65.137,98.531H35.792V49.32h29.345V98.531z M37.27,97.054h26.39V50.797H37.27V97.054z"/>
	</g>
	<g>
		<path fill="#D9C170" d="M66.375,50.058c0,0.93-0.754,1.684-1.684,1.684H36.238c-0.93,0-1.684-0.754-1.684-1.684l0,0
			c0-0.93,0.754-1.684,1.684-1.684h28.453C65.621,48.375,66.375,49.128,66.375,50.058L66.375,50.058z"/>
		<path fill="#565655" d="M64.691,52.48H36.238c-1.336,0-2.423-1.087-2.423-2.422c0-1.336,1.087-2.423,2.423-2.423h28.453
			c1.336,0,2.423,1.087,2.423,2.423C67.114,51.394,66.027,52.48,64.691,52.48z M36.238,49.113c-0.521,0-0.945,0.424-0.945,0.945
			s0.424,0.944,0.945,0.944h28.453c0.521,0,0.945-0.424,0.945-0.944s-0.424-0.945-0.945-0.945H36.238z"/>
	</g>
	<g>
		<path fill="#D9C170" d="M65.782,33.897c0,0.93-0.754,1.684-1.684,1.684H36.831c-0.93,0-1.684-0.754-1.684-1.684l0,0
			c0-0.93,0.754-1.684,1.684-1.684h27.267C65.028,32.214,65.782,32.968,65.782,33.897L65.782,33.897z"/>
		<path fill="#565655" d="M64.098,36.32H36.831c-1.336,0-2.423-1.087-2.423-2.422c0-1.336,1.087-2.422,2.423-2.422h27.267
			c1.336,0,2.422,1.087,2.422,2.422C66.521,35.233,65.434,36.32,64.098,36.32z M36.831,32.953c-0.521,0-0.945,0.424-0.945,0.945
			c0,0.521,0.424,0.945,0.945,0.945h27.267c0.521,0,0.944-0.424,0.944-0.945c0-0.521-0.424-0.945-0.944-0.945H36.831z"/>
	</g>
	<g>
		<path fill="#ECDFBC" d="M57.122,18.163c0,0.725-0.588,1.313-1.313,1.313H45.12c-0.725,0-1.313-0.588-1.313-1.313l0,0
			c0-0.725,0.588-1.313,1.313-1.313h10.689C56.534,16.85,57.122,17.438,57.122,18.163L57.122,18.163z"/>
		<path fill="#565655" d="M55.809,20.215H45.12c-1.131,0-2.052-0.92-2.052-2.052s0.921-2.052,2.052-2.052h10.689
			c1.131,0,2.052,0.921,2.052,2.052S56.94,20.215,55.809,20.215z M45.12,17.589c-0.317,0-0.574,0.258-0.574,0.574
			c0,0.316,0.258,0.574,0.574,0.574h10.689c0.317,0,0.574-0.258,0.574-0.574c0-0.317-0.258-0.574-0.574-0.574H45.12z"/>
	</g>
	<g>
		<path fill="#565655" d="M38.112,24.74c-0.408,0-0.739-0.331-0.739-0.739v-3.437c0-0.408,0.33-0.739,0.739-0.739
			c0.408,0,0.739,0.331,0.739,0.739v3.437C38.851,24.409,38.52,24.74,38.112,24.74z"/>
	</g>
	<g>
		<path fill="#565655" d="M62.916,24.74c-0.408,0-0.739-0.331-0.739-0.739v-3.437c0-0.408,0.33-0.739,0.739-0.739
			c0.408,0,0.739,0.331,0.739,0.739v3.437C63.655,24.409,63.324,24.74,62.916,24.74z"/>
	</g>
	<g>
		<path fill="#565655" d="M50.465,6.397c-0.408,0-0.739-0.331-0.739-0.739v-3.92c0-0.408,0.33-0.739,0.739-0.739
			s0.739,0.331,0.739,0.739v3.92C51.204,6.066,50.873,6.397,50.465,6.397z"/>
	</g>
	<g>
		<rect x="39.397" y="55.74" fill="#DDAA81" width="5.83" height="18.185"/>
	</g>
	<g>
		<rect x="47.549" y="55.74" fill="#DDAA81" width="5.83" height="9.093"/>
	</g>
	<g>
		<rect x="47.549" y="66.971" fill="#DDAA81" width="5.83" height="6.954"/>
	</g>
	<g>
		<rect x="47.549" y="77.04" fill="#DDAA81" width="5.83" height="9.093"/>
	</g>
	<g>
		<rect x="47.549" y="88.272" fill="#DDAA81" width="5.83" height="6.954"/>
	</g>
	<g>
		<rect x="55.702" y="55.74" fill="#DDAA81" width="5.83" height="18.185"/>
	</g>
	<g>
		<rect x="39.397" y="77.04" fill="#DDAA81" width="5.83" height="18.185"/>
	</g>
	<g>
		<rect x="55.702" y="77.04" fill="#DDAA81" width="5.83" height="18.185"/>
	</g>
</g>
</svg>
