<?xml version="1.0" encoding="utf-8"?>
<!-- Generator: Adobe Illustrator 17.0.0, SVG Export Plug-In . SVG Version: 6.00 Build 0)  -->
<!DOCTYPE svg PUBLIC "-//W3C//DTD SVG 1.1//EN" "http://www.w3.org/Graphics/SVG/1.1/DTD/svg11.dtd">
<svg version="1.1" id="Layer_1" xmlns="http://www.w3.org/2000/svg" xmlns:xlink="http://www.w3.org/1999/xlink" x="0px" y="0px"
	 width="100px" height="100px" viewBox="0 0 100 100" enable-background="new 0 0 100 100" xml:space="preserve">
<g>
	<g>
		<rect x="27.178" y="42.648" fill="#E2CBE1" width="3.508" height="4.675"/>
		<path fill="#565655" d="M30.686,47.994h-3.508c-0.371,0-0.671-0.3-0.671-0.671v-4.675c0-0.371,0.3-0.671,0.671-0.671h3.508
			c0.371,0,0.671,0.3,0.671,0.671v4.675C31.357,47.694,31.057,47.994,30.686,47.994z M27.848,46.652h2.167v-3.333h-2.167V46.652z"/>
	</g>
	<g>
		<rect x="35.127" y="42.648" fill="#E2CBE1" width="3.508" height="4.675"/>
		<path fill="#565655" d="M38.635,47.994h-3.508c-0.371,0-0.671-0.3-0.671-0.671v-4.675c0-0.371,0.3-0.671,0.671-0.671h3.508
			c0.371,0,0.671,0.3,0.671,0.671v4.675C39.306,47.694,39.006,47.994,38.635,47.994z M35.798,46.652h2.167v-3.333h-2.167V46.652z"/>
	</g>
	<g>
		<rect x="17.984" y="29.16" fill="#8E6A41" width="3.824" height="7.576"/>
		<path fill="#565655" d="M22.478,37.406h-5.165v-8.917h5.165V37.406z M18.654,36.065h2.482v-6.234h-2.482V36.065z"/>
	</g>
	<g>
		<ellipse fill="#8E6A41" cx="19.895" cy="38.547" rx="5.062" ry="3.126"/>
		<path fill="#565655" d="M19.895,42.344c-3.215,0-5.733-1.667-5.733-3.796c0-2.129,2.518-3.796,5.733-3.796
			s5.733,1.667,5.733,3.796C25.628,40.676,23.11,42.344,19.895,42.344z M19.895,36.093c-2.381,0-4.392,1.124-4.392,2.455
			s2.011,2.455,4.392,2.455s4.392-1.124,4.392-2.455S22.276,36.093,19.895,36.093z"/>
	</g>
	<g>
		<ellipse fill="#E2CBE1" cx="28.932" cy="49.921" rx="3.974" ry="3.126"/>
		<path fill="#565655" d="M28.932,53.717c-2.561,0-4.645-1.703-4.645-3.796s2.084-3.796,4.645-3.796s4.645,1.703,4.645,3.796
			S31.494,53.717,28.932,53.717z M28.932,47.466c-1.822,0-3.304,1.102-3.304,2.455s1.482,2.455,3.304,2.455s3.304-1.102,3.304-2.455
			S30.754,47.466,28.932,47.466z"/>
	</g>
	<g>
		<ellipse fill="#E2CBE1" cx="36.881" cy="49.921" rx="3.974" ry="3.126"/>
		<path fill="#565655" d="M36.881,53.717c-2.561,0-4.645-1.703-4.645-3.796s2.083-3.796,4.645-3.796
			c2.561,0,4.645,1.703,4.645,3.796S39.442,53.717,36.881,53.717z M36.881,47.466c-1.821,0-3.303,1.102-3.303,2.455
			s1.482,2.455,3.303,2.455c1.822,0,3.304-1.102,3.304-2.455S38.703,47.466,36.881,47.466z"/>
	</g>
	<g>
		<rect x="14.833" y="38.547" fill="#F9BB5C" width="10.125" height="20.061"/>
		<path fill="#565655" d="M25.628,59.279H14.162V37.877h11.466V59.279z M15.503,57.938h8.784V39.218h-8.784V57.938z"/>
	</g>
	<g>
		<g>
			<path fill="#565655" d="M18.621,42.304c0-0.209-0.169-0.378-0.378-0.378h-0.519c-0.209,0-0.378,0.169-0.378,0.378v3.829h1.275
				V42.304z"/>
			<path fill="#565655" d="M19.144,46.657h-2.321v-4.353c0-0.497,0.404-0.901,0.901-0.901h0.519c0.497,0,0.901,0.404,0.901,0.901
				V46.657z M17.87,45.61h0.228v-3.161H17.87V45.61z"/>
		</g>
	</g>
	<g>
		<g>
			<path fill="#565655" d="M22.444,42.304c0-0.209-0.169-0.378-0.378-0.378h-0.519c-0.209,0-0.378,0.169-0.378,0.378v3.829h1.275
				V42.304z"/>
			<path fill="#565655" d="M22.967,46.657h-2.321v-4.353c0-0.497,0.404-0.901,0.901-0.901h0.519c0.497,0,0.901,0.404,0.901,0.901
				V46.657z M21.693,45.61h0.228v-3.161h-0.228V45.61z"/>
		</g>
	</g>
	<g>
		<rect x="78.391" y="29.16" fill="#909090" width="3.824" height="7.576"/>
		<path fill="#565655" d="M82.885,37.406H77.72v-8.917h5.165V37.406z M79.061,36.065h2.482v-6.234h-2.482V36.065z"/>
	</g>
	<g>
		<ellipse fill="#909090" cx="80.302" cy="38.547" rx="5.062" ry="3.126"/>
		<path fill="#565655" d="M80.302,42.344c-3.215,0-5.733-1.667-5.733-3.796c0-2.129,2.518-3.796,5.733-3.796
			c3.215,0,5.733,1.667,5.733,3.796C86.035,40.676,83.517,42.344,80.302,42.344z M80.302,36.093c-2.381,0-4.392,1.124-4.392,2.455
			s2.011,2.455,4.392,2.455s4.392-1.124,4.392-2.455S82.683,36.093,80.302,36.093z"/>
	</g>
	<g>
		<rect x="75.24" y="38.547" fill="#F9BB5C" width="10.125" height="20.061"/>
		<path fill="#565655" d="M86.035,59.279H74.569V37.877h11.466V59.279z M75.911,57.938h8.784V39.218h-8.784V57.938z"/>
	</g>
	<g>
		<g>
			<path fill="#565655" d="M79.028,42.304c0-0.209-0.169-0.378-0.378-0.378h-0.519c-0.209,0-0.378,0.169-0.378,0.378v3.829h1.274
				V42.304z"/>
			<path fill="#565655" d="M79.551,46.657H77.23v-4.353c0-0.497,0.404-0.901,0.901-0.901h0.519c0.497,0,0.901,0.404,0.901,0.901
				V46.657z M78.277,45.61h0.228v-3.161h-0.228V45.61z"/>
		</g>
	</g>
	<g>
		<g>
			<path fill="#565655" d="M82.851,42.304c0-0.209-0.169-0.378-0.378-0.378h-0.519c-0.209,0-0.378,0.169-0.378,0.378v3.829h1.275
				V42.304z"/>
			<path fill="#565655" d="M83.374,46.657h-2.321v-4.353c0-0.497,0.404-0.901,0.901-0.901h0.519c0.497,0,0.901,0.404,0.901,0.901
				V46.657z M82.1,45.61h0.228v-3.161H82.1V45.61z"/>
		</g>
	</g>
	<g>
		<rect x="47.996" y="32.51" fill="#6F9D8A" width="3.824" height="7.576"/>
		<path fill="#565655" d="M51.82,40.757h-3.824c-0.371,0-0.671-0.3-0.671-0.671V32.51c0-0.371,0.3-0.671,0.671-0.671h3.824
			c0.371,0,0.671,0.3,0.671,0.671v7.576C52.491,40.457,52.191,40.757,51.82,40.757z M48.667,39.416h2.483v-6.235h-2.483V39.416z"/>
	</g>
	<g>
		<circle fill="#6F9D8A" cx="49.908" cy="46.7" r="9.021"/>
		<path fill="#565655" d="M49.908,56.392c-5.344,0-9.692-4.348-9.692-9.692s4.348-9.692,9.692-9.692S59.6,41.356,59.6,46.7
			S55.252,56.392,49.908,56.392z M49.908,38.349c-4.605,0-8.351,3.746-8.351,8.351s3.746,8.351,8.351,8.351s8.351-3.746,8.351-8.351
			S54.513,38.349,49.908,38.349z"/>
	</g>
	<g>
		<rect x="40.887" y="46.7" fill="#F9BB5C" width="18.043" height="23.737"/>
		<path fill="#565655" d="M59.6,71.108H40.216V46.029H59.6V71.108z M41.558,69.766h16.701V47.371H41.558V69.766z"/>
	</g>
	<g>
		<rect x="11.578" y="58.569" fill="#F9BB5C" width="76.66" height="39.214"/>
		<path fill="#565655" d="M88.908,98.453H10.907V57.898h78.001V98.453z M12.249,97.112h75.319V59.24H12.249V97.112z"/>
	</g>
	<g>
		<rect x="8.392" y="25.993" fill="#00804B" width="3.824" height="7.576"/>
		<path fill="#565655" d="M12.886,34.239H7.721v-8.917h5.165V34.239z M9.062,32.898h2.482v-6.234H9.062V32.898z"/>
	</g>
	<g>
		<ellipse fill="#00804B" cx="10.303" cy="35.38" rx="5.062" ry="3.126"/>
		<path fill="#565655" d="M10.304,39.177c-3.215,0-5.733-1.667-5.733-3.796c0-2.129,2.518-3.796,5.733-3.796
			s5.733,1.667,5.733,3.796C16.037,37.509,13.518,39.177,10.304,39.177z M10.304,32.925c-2.381,0-4.392,1.124-4.392,2.455
			s2.011,2.455,4.392,2.455s4.392-1.124,4.392-2.455S12.684,32.925,10.304,32.925z"/>
	</g>
	<g>
		<rect x="5.241" y="35.38" fill="#F9BB5C" width="10.125" height="20.061"/>
		<path fill="#565655" d="M16.037,56.112H4.57V34.71h11.466V56.112z M5.912,54.77h8.784V36.051H5.912V54.77z"/>
	</g>
	<g>
		<rect x="4.042" y="49.472" fill="#F9BB5C" width="12.523" height="48.311"/>
		<path fill="#565655" d="M17.236,98.453H3.371V48.801h13.864V98.453z M4.713,97.112h11.182v-46.97H4.713V97.112z"/>
	</g>
	<g>
		<g>
			<path fill="#565655" d="M11.578,54.634c0-0.417-0.338-0.756-0.756-0.756H9.785c-0.417,0-0.756,0.338-0.756,0.756v7.659h2.549
				V54.634z"/>
			<path fill="#565655" d="M12.101,62.816H8.506v-8.182c0-0.705,0.574-1.279,1.279-1.279h1.037c0.705,0,1.279,0.574,1.279,1.279
				V62.816z M9.552,61.769h1.502v-7.136c0-0.128-0.104-0.232-0.232-0.232H9.785c-0.128,0-0.232,0.104-0.232,0.232V61.769z"/>
		</g>
	</g>
	<g>
		<g>
			<path fill="#565655" d="M9.029,39.137c0-0.209-0.169-0.378-0.378-0.378H8.132c-0.209,0-0.378,0.169-0.378,0.378v3.829h1.275
				V39.137z"/>
			<path fill="#565655" d="M9.552,43.49H7.231v-4.352c0-0.497,0.404-0.901,0.901-0.901h0.519c0.497,0,0.901,0.404,0.901,0.901V43.49
				z M8.278,42.443h0.228v-3.161H8.278V42.443z"/>
		</g>
	</g>
	<g>
		<g>
			<path fill="#565655" d="M12.852,39.137c0-0.209-0.169-0.378-0.378-0.378h-0.519c-0.209,0-0.378,0.169-0.378,0.378v3.829h1.275
				V39.137z"/>
			<path fill="#565655" d="M13.376,43.49h-2.321v-4.352c0-0.497,0.404-0.901,0.901-0.901h0.519c0.497,0,0.901,0.404,0.901,0.901
				V43.49z M12.101,42.443h0.228v-3.161h-0.228V42.443z"/>
		</g>
	</g>
	<g>
		<g>
			<path fill="#565655" d="M45.159,49.85c0-0.209-0.169-0.378-0.378-0.378h-0.519c-0.209,0-0.378,0.169-0.378,0.378v3.829h1.275
				V49.85z"/>
			<path fill="#565655" d="M45.682,54.203h-2.321V49.85c0-0.497,0.404-0.901,0.901-0.901h0.519c0.497,0,0.901,0.404,0.901,0.901
				V54.203z M44.408,53.156h0.228v-3.161h-0.228V53.156z"/>
		</g>
	</g>
	<g>
		<g>
			<path fill="#565655" d="M56.149,49.85c0-0.209-0.169-0.378-0.378-0.378h-0.519c-0.209,0-0.378,0.169-0.378,0.378v3.829h1.275
				V49.85z"/>
			<path fill="#565655" d="M56.673,54.203h-2.321V49.85c0-0.497,0.404-0.901,0.901-0.901h0.519c0.497,0,0.901,0.404,0.901,0.901
				V54.203z M55.398,53.156h0.228v-3.161h-0.228V53.156z"/>
		</g>
	</g>
	<g>
		<g>
			<path fill="#565655" d="M11.075,70.108c0-0.228-0.185-0.412-0.412-0.412h-0.566c-0.228,0-0.412,0.185-0.412,0.412v4.179h1.391
				V70.108z"/>
			<path fill="#565655" d="M11.598,74.81H9.161v-4.702c0-0.515,0.42-0.935,0.936-0.935h0.566c0.516,0,0.936,0.42,0.936,0.935V74.81z
				 M10.207,73.763h0.344v-3.544h-0.344V73.763z"/>
		</g>
	</g>
	<g>
		<g>
			<path fill="#565655" d="M11.075,79.833c0-0.228-0.185-0.412-0.412-0.412h-0.566c-0.228,0-0.412,0.185-0.412,0.412v4.179h1.391
				V79.833z"/>
			<path fill="#565655" d="M11.598,84.535H9.161v-4.702c0-0.516,0.42-0.936,0.936-0.936h0.566c0.516,0,0.936,0.42,0.936,0.936
				V84.535z M10.207,83.488h0.344v-3.544h-0.344V83.488z"/>
		</g>
	</g>
	<g>
		<path fill="#FDD894" d="M18.088,49.472c0,0.712-0.577,1.288-1.288,1.288H3.959c-0.712,0-1.288-0.577-1.288-1.288l0,0
			c0-0.712,0.577-1.288,1.288-1.288H16.8C17.511,48.183,18.088,48.76,18.088,49.472L18.088,49.472z"/>
		<path fill="#565655" d="M16.8,51.431H3.959C2.879,51.431,2,50.552,2,49.472c0-1.08,0.879-1.959,1.959-1.959H16.8
			c1.08,0,1.959,0.879,1.959,1.959C18.758,50.552,17.879,51.431,16.8,51.431z M3.959,48.854c-0.341,0-0.618,0.277-0.618,0.618
			c0,0.341,0.277,0.618,0.618,0.618H16.8c0.341,0,0.618-0.277,0.618-0.618c0-0.341-0.277-0.618-0.618-0.618H3.959z"/>
	</g>
	<g>
		<rect x="4.042" y="66.019" fill="#565655" width="12.523" height="1.047"/>
	</g>
	<g>
		<rect x="87.983" y="25.993" fill="#CBAACD" width="3.824" height="7.576"/>
		<path fill="#565655" d="M91.806,34.239h-3.824c-0.371,0-0.671-0.3-0.671-0.671v-7.575c0-0.37,0.3-0.671,0.671-0.671h3.824
			c0.371,0,0.671,0.3,0.671,0.671v7.575C92.477,33.939,92.177,34.239,91.806,34.239z M88.653,32.898h2.483v-6.234h-2.483V32.898z"/>
	</g>
	<g>
		<ellipse fill="#CBAACD" cx="89.894" cy="35.38" rx="5.062" ry="3.126"/>
		<path fill="#565655" d="M89.894,39.177c-3.215,0-5.733-1.667-5.733-3.796c0-2.129,2.518-3.796,5.733-3.796
			c3.215,0,5.733,1.667,5.733,3.796C95.627,37.509,93.109,39.177,89.894,39.177z M89.894,32.925c-2.381,0-4.392,1.124-4.392,2.455
			s2.011,2.455,4.392,2.455s4.392-1.124,4.392-2.455S92.275,32.925,89.894,32.925z"/>
	</g>
	<g>
		<rect x="84.832" y="35.38" fill="#F9BB5C" width="10.125" height="20.061"/>
		<path fill="#565655" d="M95.627,56.112H84.161V34.71h11.466V56.112z M85.502,54.77h8.784V36.051h-8.784V54.77z"/>
	</g>
	<g>
		<rect x="83.633" y="49.472" fill="#F9BB5C" width="12.523" height="48.311"/>
		<path fill="#565655" d="M96.826,98.453H82.963V48.801h13.864V98.453z M84.304,97.112h11.181v-46.97H84.304V97.112z"/>
	</g>
	<g>
		<g>
			<path fill="#565655" d="M91.169,54.634c0-0.417-0.338-0.756-0.756-0.756h-1.037c-0.417,0-0.756,0.338-0.756,0.756v7.659h2.549
				V54.634z"/>
			<path fill="#565655" d="M91.692,62.816h-3.596v-8.182c0-0.705,0.574-1.279,1.279-1.279h1.037c0.706,0,1.28,0.574,1.28,1.279
				V62.816z M89.143,61.769h1.503v-7.136c0-0.128-0.105-0.232-0.233-0.232h-1.037c-0.128,0-0.232,0.104-0.232,0.232V61.769z"/>
		</g>
	</g>
	<g>
		<g>
			<path fill="#565655" d="M88.62,39.137c0-0.209-0.169-0.378-0.378-0.378h-0.519c-0.209,0-0.378,0.169-0.378,0.378v3.829h1.274
				V39.137z"/>
			<path fill="#565655" d="M89.143,43.49h-2.321v-4.352c0-0.497,0.404-0.901,0.901-0.901h0.519c0.497,0,0.901,0.404,0.901,0.901
				V43.49z M87.868,42.443h0.228v-3.161h-0.228V42.443z"/>
		</g>
	</g>
	<g>
		<g>
			<path fill="#565655" d="M92.443,39.137c0-0.209-0.169-0.378-0.378-0.378h-0.519c-0.209,0-0.378,0.169-0.378,0.378v3.829h1.275
				V39.137z"/>
			<path fill="#565655" d="M92.967,43.49h-2.321v-4.352c0-0.497,0.404-0.901,0.901-0.901h0.519c0.497,0,0.901,0.404,0.901,0.901
				V43.49z M91.692,42.443h0.228v-3.161h-0.228V42.443z"/>
		</g>
	</g>
	<g>
		<g>
			<path fill="#565655" d="M90.666,70.108c0-0.228-0.185-0.412-0.412-0.412h-0.566c-0.228,0-0.412,0.185-0.412,0.412v4.179h1.391
				V70.108z"/>
			<path fill="#565655" d="M91.189,74.81h-2.437v-4.702c0-0.515,0.42-0.935,0.935-0.935h0.566c0.515,0,0.935,0.42,0.935,0.935V74.81
				z M89.798,73.763h0.344v-3.544h-0.344V73.763z"/>
		</g>
	</g>
	<g>
		<g>
			<path fill="#565655" d="M90.666,79.833c0-0.228-0.185-0.412-0.412-0.412h-0.566c-0.228,0-0.412,0.185-0.412,0.412v4.179h1.391
				V79.833z"/>
			<path fill="#565655" d="M91.189,84.535h-2.437v-4.702c0-0.516,0.42-0.936,0.935-0.936h0.566c0.515,0,0.935,0.42,0.935,0.936
				V84.535z M89.798,83.488h0.344v-3.544h-0.344V83.488z"/>
		</g>
	</g>
	<g>
		<path fill="#FDD894" d="M97.679,49.472c0,0.712-0.577,1.288-1.288,1.288H83.55c-0.712,0-1.288-0.577-1.288-1.288l0,0
			c0-0.712,0.577-1.288,1.288-1.288h12.84C97.102,48.183,97.679,48.76,97.679,49.472L97.679,49.472z"/>
		<path fill="#565655" d="M96.391,51.431H83.55c-1.08,0-1.959-0.879-1.959-1.959c0-1.08,0.879-1.959,1.959-1.959h12.841
			c1.08,0,1.959,0.879,1.959,1.959C98.35,50.552,97.471,51.431,96.391,51.431z M83.55,48.854c-0.341,0-0.618,0.277-0.618,0.618
			c0,0.341,0.277,0.618,0.618,0.618h12.841c0.341,0,0.618-0.277,0.618-0.618c0-0.341-0.277-0.618-0.618-0.618H83.55z"/>
	</g>
	<g>
		<rect x="83.633" y="66.019" fill="#565655" width="12.522" height="1.047"/>
	</g>
	<g>
		<rect x="24.958" y="49.921" fill="#FDD894" width="7.949" height="8.688"/>
		<path fill="#565655" d="M32.907,59.279h-7.949c-0.371,0-0.671-0.3-0.671-0.671v-8.687c0-0.371,0.3-0.671,0.671-0.671h7.949
			c0.371,0,0.671,0.3,0.671,0.671v8.687C33.578,58.979,33.278,59.279,32.907,59.279z M25.628,57.938h6.608v-7.346h-6.608V57.938z"/>
	</g>
	<g>
		<rect x="32.907" y="49.921" fill="#FDD894" width="7.949" height="8.688"/>
		<path fill="#565655" d="M40.855,59.131h-7.949c-0.289,0-0.523-0.234-0.523-0.523v-8.687c0-0.289,0.234-0.523,0.523-0.523h7.949
			c0.289,0,0.523,0.234,0.523,0.523v8.687C41.379,58.897,41.144,59.131,40.855,59.131z M33.43,58.085h6.902v-7.641H33.43V58.085z"/>
	</g>
	<g>
		<path fill="#E2CBE1" d="M64.658,42.648c0,0.969-0.785,1.754-1.754,1.754s-1.754-0.785-1.754-1.754"/>
		<path fill="#565655" d="M62.903,45.073c-1.337,0-2.424-1.088-2.424-2.424c0-0.371,0.3-0.671,0.671-0.671
			c0.371,0,0.671,0.3,0.671,0.671c0,0.597,0.486,1.083,1.083,1.083c0.598,0,1.084-0.486,1.084-1.083c0-0.371,0.3-0.671,0.671-0.671
			s0.671,0.3,0.671,0.671C65.329,43.985,64.241,45.073,62.903,45.073z"/>
	</g>
	<g>
		<path fill="#E2CBE1" d="M72.607,42.648c0,0.969-0.785,1.754-1.754,1.754c-0.969,0-1.754-0.785-1.754-1.754"/>
		<path fill="#565655" d="M70.853,45.073c-1.337,0-2.425-1.088-2.425-2.424c0-0.371,0.3-0.671,0.671-0.671
			c0.371,0,0.671,0.3,0.671,0.671c0,0.597,0.486,1.083,1.084,1.083c0.597,0,1.083-0.486,1.083-1.083c0-0.371,0.3-0.671,0.671-0.671
			c0.371,0,0.671,0.3,0.671,0.671C73.277,43.985,72.189,45.073,70.853,45.073z"/>
	</g>
	<g>
		<rect x="61.15" y="42.648" fill="#E2CBE1" width="3.508" height="4.675"/>
		<path fill="#565655" d="M64.658,47.994H61.15c-0.371,0-0.671-0.3-0.671-0.671v-4.675c0-0.371,0.3-0.671,0.671-0.671h3.508
			c0.371,0,0.671,0.3,0.671,0.671v4.675C65.329,47.694,65.029,47.994,64.658,47.994z M61.82,46.652h2.167v-3.333H61.82V46.652z"/>
	</g>
	<g>
		<rect x="69.098" y="42.648" fill="#E2CBE1" width="3.508" height="4.675"/>
		<path fill="#565655" d="M72.607,47.994h-3.508c-0.371,0-0.671-0.3-0.671-0.671v-4.675c0-0.371,0.3-0.671,0.671-0.671h3.508
			c0.371,0,0.671,0.3,0.671,0.671v4.675C73.277,47.694,72.977,47.994,72.607,47.994z M69.769,46.652h2.167v-3.333h-2.167V46.652z"/>
	</g>
	<g>
		<ellipse fill="#E2CBE1" cx="62.904" cy="49.921" rx="3.974" ry="3.126"/>
		<path fill="#565655" d="M62.903,53.717c-2.561,0-4.645-1.703-4.645-3.796s2.083-3.796,4.645-3.796s4.645,1.703,4.645,3.796
			S65.465,53.717,62.903,53.717z M62.903,47.466c-1.821,0-3.303,1.102-3.303,2.455s1.482,2.455,3.303,2.455
			c1.822,0,3.304-1.102,3.304-2.455S64.725,47.466,62.903,47.466z"/>
	</g>
	<g>
		<ellipse fill="#E2CBE1" cx="70.853" cy="49.921" rx="3.974" ry="3.126"/>
		<path fill="#565655" d="M70.853,53.717c-2.561,0-4.645-1.703-4.645-3.796s2.084-3.796,4.645-3.796s4.645,1.703,4.645,3.796
			S73.414,53.717,70.853,53.717z M70.853,47.466c-1.822,0-3.304,1.102-3.304,2.455s1.482,2.455,3.304,2.455
			c1.821,0,3.303-1.102,3.303-2.455S72.674,47.466,70.853,47.466z"/>
	</g>
	<g>
		<rect x="58.929" y="49.921" fill="#FDD894" width="7.949" height="8.688"/>
		<path fill="#565655" d="M66.878,59.279H58.93c-0.371,0-0.671-0.3-0.671-0.671v-8.687c0-0.371,0.3-0.671,0.671-0.671h7.949
			c0.371,0,0.671,0.3,0.671,0.671v8.687C67.549,58.979,67.249,59.279,66.878,59.279z M59.6,57.938h6.607v-7.346H59.6V57.938z"/>
	</g>
	<g>
		<rect x="66.878" y="49.921" fill="#FDD894" width="7.949" height="8.688"/>
		<path fill="#565655" d="M74.827,59.279h-7.949c-0.371,0-0.671-0.3-0.671-0.671v-8.687c0-0.371,0.3-0.671,0.671-0.671h7.949
			c0.371,0,0.671,0.3,0.671,0.671v8.687C75.497,58.979,75.197,59.279,74.827,59.279z M67.549,57.938h6.607v-7.346h-6.607V57.938z"/>
	</g>
	<g>
		<g>
			<path fill="#DD9C40" d="M33.75,84.023c0-1.472-1.193-2.664-2.664-2.664h-0.799c-1.472,0-2.664,1.193-2.664,2.664v13.759h6.128
				V84.023z"/>
			<path fill="#565655" d="M34.421,98.453h-7.469v-14.43c0-1.839,1.496-3.335,3.335-3.335h0.8c1.839,0,3.335,1.496,3.335,3.335
				V98.453z M28.293,97.112h4.787V84.024c0-1.1-0.895-1.994-1.994-1.994h-0.8c-1.099,0-1.994,0.895-1.994,1.994V97.112z"/>
		</g>
	</g>
	<g>
		<g>
			<path fill="#DD9C40" d="M70.786,84.023c0-1.472-1.193-2.664-2.664-2.664h-0.799c-1.472,0-2.664,1.193-2.664,2.664v13.759h6.128
				V84.023z"/>
			<path fill="#565655" d="M71.457,98.453h-7.469v-14.43c0-1.839,1.496-3.335,3.335-3.335h0.8c1.839,0,3.335,1.496,3.335,3.335
				V98.453z M65.329,97.112h4.787V84.024c0-1.1-0.895-1.994-1.994-1.994h-0.8c-1.099,0-1.994,0.895-1.994,1.994V97.112z"/>
		</g>
	</g>
	<g>
		<path fill="#565655" d="M37.88,98.453H23.848c-0.371,0-0.671-0.3-0.671-0.671V78.378c0-0.371,0.3-0.671,0.671-0.671H37.88
			c0.371,0,0.671,0.3,0.671,0.671v19.405C38.551,98.153,38.251,98.453,37.88,98.453z M24.518,97.112H37.21V79.048H24.518V97.112z"/>
	</g>
	<g>
		<path fill="#565655" d="M74.738,98.453H60.706c-0.371,0-0.671-0.3-0.671-0.671V78.378c0-0.371,0.3-0.671,0.671-0.671h14.033
			c0.371,0,0.671,0.3,0.671,0.671v19.405C75.409,98.153,75.109,98.453,74.738,98.453z M61.376,97.112h12.691V79.048H61.376V97.112z"
			/>
	</g>
	<g>
		<polygon fill="#DD9C40" points="23.848,78.378 30.686,71.907 37.88,78.378 		"/>
		<path fill="#565655" d="M37.893,79.048c-0.003,0-0.008,0-0.013,0H23.848c-0.274,0-0.521-0.168-0.623-0.422
			c-0.102-0.255-0.037-0.547,0.162-0.735l6.839-6.47c0.253-0.24,0.65-0.246,0.91-0.011l7.119,6.404
			c0.187,0.119,0.31,0.327,0.31,0.565C38.564,78.748,38.264,79.048,37.893,79.048z M25.532,77.707h10.6l-5.434-4.888L25.532,77.707z
			"/>
	</g>
	<g>
		<polygon fill="#DD9C40" points="60.706,78.378 67.544,71.907 74.738,78.378 		"/>
		<path fill="#565655" d="M74.751,79.048c-0.003,0-0.008,0-0.013,0H60.706c-0.274,0-0.521-0.168-0.623-0.422
			c-0.102-0.255-0.037-0.547,0.162-0.735l6.839-6.47c0.253-0.24,0.65-0.246,0.91-0.011l7.119,6.404
			c0.187,0.119,0.31,0.327,0.31,0.565C75.422,78.748,75.122,79.048,74.751,79.048z M62.39,77.707h10.6l-5.434-4.888L62.39,77.707z"
			/>
	</g>
	<g>
		<rect x="45.949" y="75.728" fill="#DD9C40" width="7.918" height="22.055"/>
		<path fill="#565655" d="M54.538,98.453h-9.259V75.057h9.259V98.453z M46.62,97.112h6.577V76.398H46.62V97.112z"/>
	</g>
	<g>
		<rect x="42.272" y="58.608" fill="#565655" width="1.341" height="39.174"/>
	</g>
	<g>
		<rect x="56.012" y="58.608" fill="#565655" width="1.341" height="39.174"/>
	</g>
</g>
</svg>
